<?xml version="1.0" encoding="iso-8859-1"?>
<!-- Generator: Adobe Illustrator 16.0.0, SVG Export Plug-In . SVG Version: 6.00 Build 0)  -->
<!DOCTYPE svg PUBLIC "-//W3C//DTD SVG 1.1//EN" "http://www.w3.org/Graphics/SVG/1.1/DTD/svg11.dtd">
<svg version="1.1" id="Capa_1" xmlns="http://www.w3.org/2000/svg" xmlns:xlink="http://www.w3.org/1999/xlink" x="0px" y="0px"
	 width="61.59px" height="61.59px" viewBox="0 0 61.59 61.59" style="enable-background:new 0 0 61.59 61.59;" xml:space="preserve"
	>
<g>
	<g id="Confirm">
		<g>
			<path d="M30.794,0C13.789,0,0,13.786,0,30.795C0,47.803,13.789,61.59,30.794,61.59c17.008,0,30.795-13.787,30.795-30.795
				C61.59,13.786,47.803,0,30.794,0z M30.794,52.275c-11.864,0-21.479-9.617-21.479-21.48c0-11.864,9.616-21.481,21.479-21.481
				c11.863,0,21.483,9.617,21.483,21.481C52.278,42.658,42.659,52.275,30.794,52.275z M38.961,21.292l-9.976,9.976l-6.122-6.125
				l-5.441,5.443l6.123,6.122l0,0l5.441,5.442l0.002-0.002l5.439-5.438l-0.001-0.001l9.977-9.978L38.961,21.292z"/>
		</g>
	</g>
</g>
<g>
</g>
<g>
</g>
<g>
</g>
<g>
</g>
<g>
</g>
<g>
</g>
<g>
</g>
<g>
</g>
<g>
</g>
<g>
</g>
<g>
</g>
<g>
</g>
<g>
</g>
<g>
</g>
<g>
</g>
</svg>
