<?xml version="1.0" encoding="iso-8859-1"?>
<!-- Generator: Adobe Illustrator 16.0.0, SVG Export Plug-In . SVG Version: 6.00 Build 0)  -->
<!DOCTYPE svg PUBLIC "-//W3C//DTD SVG 1.1//EN" "http://www.w3.org/Graphics/SVG/1.1/DTD/svg11.dtd">
<svg version="1.1" id="Capa_1" xmlns="http://www.w3.org/2000/svg" xmlns:xlink="http://www.w3.org/1999/xlink" x="0px" y="0px"
	 width="87.449px" height="87.448px" viewBox="0 0 87.449 87.448" style="enable-background:new 0 0 87.449 87.448;"
	 xml:space="preserve">
<g>
	<g id="Upload_1_">
		<g>
			<path d="M80.494,46.126c-0.006-0.089-0.014-0.175-0.026-0.264c-0.025-0.176-0.065-0.345-0.118-0.51
				c-0.014-0.045-0.016-0.093-0.031-0.137l-6.615-18.163c-0.474-1.299-1.717-2.166-3.108-2.166h-7.029
				c-1.825,0-3.305,1.466-3.305,3.278s1.479,3.283,3.305,3.283h4.706l4.227,11.603H14.952l4.227-11.603h4.705
				c1.826,0,3.308-1.471,3.308-3.283s-1.481-3.278-3.308-3.278h-7.029c-1.393,0-2.637,0.867-3.109,2.166L7.131,45.217
				c-0.015,0.041-0.016,0.084-0.029,0.125c-0.055,0.172-0.097,0.347-0.122,0.527c-0.012,0.084-0.02,0.166-0.025,0.25
				c-0.005,0.07-0.022,0.138-0.022,0.21V84.17c0,1.812,1.481,3.278,3.308,3.278h66.967c1.826,0,3.307-1.466,3.307-3.278V46.329
				C80.514,46.26,80.498,46.194,80.494,46.126z M73.9,80.888H13.547V49.612H73.9V80.888z M32.976,68.53h21.495
				c1.825,0,3.308-1.471,3.308-3.283c0-1.808-1.48-3.278-3.308-3.278H32.976c-1.826,0-3.307,1.472-3.307,3.278
				C29.669,67.061,31.15,68.53,32.976,68.53z M25.329,21.226h6.145l1.51,15.603c0.089,0.903,0.901,1.556,1.805,1.476
				c0.909-0.086,1.575-0.888,1.487-1.791l-1.653-17.085c-0.083-0.845-0.794-1.486-1.647-1.486H29.37l14.354-14l14.354,13.999h-3.605
				c-0.854,0-1.562,0.642-1.645,1.486l-1.654,17.084c-0.088,0.903,0.576,1.705,1.486,1.791c0.053,0.006,0.106,0.006,0.16,0.006
				c0.842,0,1.562-0.631,1.645-1.481l1.511-15.603h6.144c0.674,0,1.275-0.406,1.532-1.021c0.255-0.615,0.106-1.32-0.372-1.791
				L44.884,0.474c-0.645-0.631-1.677-0.631-2.32,0L24.169,18.413c-0.479,0.471-0.625,1.176-0.371,1.791
				C24.054,20.818,24.656,21.226,25.329,21.226z"/>
		</g>
	</g>
</g>
<g>
</g>
<g>
</g>
<g>
</g>
<g>
</g>
<g>
</g>
<g>
</g>
<g>
</g>
<g>
</g>
<g>
</g>
<g>
</g>
<g>
</g>
<g>
</g>
<g>
</g>
<g>
</g>
<g>
</g>
</svg>
