<?xml version="1.0" encoding="iso-8859-1"?>
<!-- Generator: Adobe Illustrator 16.0.0, SVG Export Plug-In . SVG Version: 6.00 Build 0)  -->
<!DOCTYPE svg PUBLIC "-//W3C//DTD SVG 1.1//EN" "http://www.w3.org/Graphics/SVG/1.1/DTD/svg11.dtd">
<svg version="1.1" id="Capa_1" xmlns="http://www.w3.org/2000/svg" xmlns:xlink="http://www.w3.org/1999/xlink" x="0px" y="0px"
	 width="46px" height="46px" viewBox="0 0 46 46" style="enable-background:new 0 0 46 46;" xml:space="preserve">
<g>
	<g id="Bars">
		<g>
			<path d="M13.875,20h-0.75C12.504,20,12,20.504,12,21.125v7.75C12,29.496,12.504,30,13.125,30h0.75C14.496,30,15,29.496,15,28.875
				v-7.75C15,20.504,14.496,20,13.875,20z M20,17h-1c-0.553,0-1,0.447-1,1v11c0,0.553,0.447,1,1,1h1c0.553,0,1-0.447,1-1V18
				C21,17.447,20.553,17,20,17z M23,0C10.298,0,0,10.298,0,23s10.298,23,23,23s23-10.298,23-23S35.702,0,23,0z M23,42
				C12.507,42,4,33.493,4,23S12.507,4,23,4s19,8.507,19,19S33.493,42,23,42z M26,14h-1c-0.553,0-1,0.447-1,1v14c0,0.553,0.447,1,1,1
				h1c0.553,0,1-0.447,1-1V15C27,14.447,26.553,14,26,14z M32,18h-1c-0.553,0-1,0.447-1,1v10c0,0.553,0.447,1,1,1h1
				c0.553,0,1-0.447,1-1V19C33,18.447,32.553,18,32,18z"/>
		</g>
	</g>
</g>
<g>
</g>
<g>
</g>
<g>
</g>
<g>
</g>
<g>
</g>
<g>
</g>
<g>
</g>
<g>
</g>
<g>
</g>
<g>
</g>
<g>
</g>
<g>
</g>
<g>
</g>
<g>
</g>
<g>
</g>
</svg>
