<?xml version="1.0" encoding="iso-8859-1"?>
<!-- Generator: Adobe Illustrator 16.0.0, SVG Export Plug-In . SVG Version: 6.00 Build 0)  -->
<!DOCTYPE svg PUBLIC "-//W3C//DTD SVG 1.1//EN" "http://www.w3.org/Graphics/SVG/1.1/DTD/svg11.dtd">
<svg version="1.1" id="Capa_1" xmlns="http://www.w3.org/2000/svg" xmlns:xlink="http://www.w3.org/1999/xlink" x="0px" y="0px"
	 width="781.652px" height="781.653px" viewBox="0 0 781.652 781.653" style="enable-background:new 0 0 781.652 781.653;"
	 xml:space="preserve">
<g>
	<g>
		<path d="M555.502,690.125c-3.547,0-6.902-1.623-9.205-4.454c-4.346-5.34-7.451-15.033,2.135-74.216
			c2.92-18.02,6.262-35.691,8.453-46.881H46.647C20.926,564.574,0,543.648,0,517.927V138.175c0-25.721,20.926-46.647,46.647-46.647
			h688.359c25.723,0,46.646,20.926,46.646,46.648v379.75c0,25.722-20.926,46.646-46.646,46.646h-76.883
			c-6.316,9.925-21.99,34.27-38.889,58.398c-43.148,61.615-55.387,66.97-63.471,67.148L555.502,690.125z M46.647,111.322
			c-14.807,0-26.853,12.046-26.853,26.853v379.751c0,14.807,12.046,26.853,26.853,26.853h534.48c0,0-7.955,38.362-12.582,66.349
			c-4.67,28.247-6.201,44.09-6.551,52.898c12.242-9.789,85.205-119.247,85.205-119.247h87.809c14.807,0,26.852-12.046,26.852-26.853
			v-379.75c0-14.807-12.045-26.854-26.852-26.854H46.647z"/>
	</g>
	<g>
		<path d="M260.754,369.1c-20.197,0-36.629-16.429-36.629-36.623c0-20.2,16.432-36.635,36.629-36.635
			c20.194,0,36.623,16.435,36.623,36.635C297.376,352.671,280.948,369.1,260.754,369.1z M260.754,315.637
			c-9.283,0-16.834,7.554-16.834,16.84c0,9.279,7.552,16.828,16.834,16.828c9.279,0,16.828-7.549,16.828-16.828
			C277.582,323.192,270.033,315.637,260.754,315.637z"/>
	</g>
	<g>
		<path d="M373.552,369.1c-20.194,0-36.624-16.429-36.624-36.623c0-20.2,16.43-36.635,36.624-36.635
			c20.192,0,36.622,16.435,36.622,36.635C410.174,352.671,393.746,369.1,373.552,369.1z M373.552,315.637
			c-9.28,0-16.829,7.554-16.829,16.84c0,9.279,7.549,16.828,16.829,16.828c9.277,0,16.827-7.549,16.827-16.828
			C390.379,323.192,382.831,315.637,373.552,315.637z"/>
	</g>
	<g>
		<path d="M491.711,369.1c-20.197,0-36.631-16.429-36.631-36.623c0-20.2,16.434-36.635,36.631-36.635
			c20.191,0,36.621,16.435,36.621,36.635C528.332,352.671,511.904,369.1,491.711,369.1z M491.711,315.637
			c-9.283,0-16.836,7.554-16.836,16.84c0,9.279,7.553,16.828,16.836,16.828c9.277,0,16.826-7.549,16.826-16.828
			C508.537,323.192,500.988,315.637,491.711,315.637z"/>
	</g>
</g>
<g>
</g>
<g>
</g>
<g>
</g>
<g>
</g>
<g>
</g>
<g>
</g>
<g>
</g>
<g>
</g>
<g>
</g>
<g>
</g>
<g>
</g>
<g>
</g>
<g>
</g>
<g>
</g>
<g>
</g>
</svg>
