<?xml version="1.0" encoding="iso-8859-1"?>
<!-- Generator: Adobe Illustrator 16.0.0, SVG Export Plug-In . SVG Version: 6.00 Build 0)  -->
<!DOCTYPE svg PUBLIC "-//W3C//DTD SVG 1.1//EN" "http://www.w3.org/Graphics/SVG/1.1/DTD/svg11.dtd">
<svg version="1.1" id="Capa_1" xmlns="http://www.w3.org/2000/svg" xmlns:xlink="http://www.w3.org/1999/xlink" x="0px" y="0px"
	 width="31.411px" height="31.411px" viewBox="0 0 31.411 31.411" style="enable-background:new 0 0 31.411 31.411;"
	 xml:space="preserve">
<g>
	<g>
		<path d="M7.818,15.826c0,0,5.6-5.573,5.6-10.226c0-3.093-2.507-5.6-5.6-5.6C4.728,0,2.22,2.507,2.22,5.6
			C2.22,10.517,7.818,15.826,7.818,15.826z M4.901,5.601c0-1.612,1.307-2.918,2.917-2.918c1.611,0,2.918,1.306,2.918,2.918
			c0,1.611-1.307,2.918-2.918,2.918C6.208,8.519,4.901,7.212,4.901,5.601z"/>
		<path d="M15.707,1.036c-0.99,0-1.955,0.102-2.892,0.284c0.732,0.854,1.25,1.895,1.47,3.042c0.028-0.016,0.055-0.035,0.084-0.048
			v4.039C14.22,8.34,14.077,8.31,13.93,8.293c-0.315,0.957-0.763,1.896-1.267,2.783c0.56,0.094,1.125,0.178,1.706,0.219v3.461
			h-4.272l-2.278,2.057l-2.11-2.057H3.291c0.1-0.822,0.289-1.623,0.552-2.396c-0.627-0.898-1.229-1.89-1.697-2.938
			c-1.031,2.05-1.626,4.354-1.626,6.801c0,8.374,6.813,15.188,15.187,15.188c8.374,0,15.185-6.813,15.185-15.188
			C30.892,7.85,24.08,1.036,15.707,1.036z M6.114,24.066c-1.566-1.834-2.536-4.021-2.823-6.373h3.738
			c0.1,1.86,0.374,3.627,0.825,5.254C7.239,23.277,6.656,23.652,6.114,24.066z M8.279,26.072c0.191-0.121,0.381-0.237,0.574-0.346
			c0.167,0.366,0.341,0.719,0.525,1.057C8.998,26.566,8.63,26.328,8.279,26.072z M14.37,28.132
			c-1.116-0.547-2.149-1.753-2.978-3.474c0.951-0.287,1.95-0.478,2.978-0.565V28.132z M14.37,21.152
			c-1.395,0.099-2.729,0.35-3.983,0.744c-0.36-1.318-0.589-2.73-0.683-4.205h4.666V21.152z M17.043,4.317
			c1.113,0.545,2.146,1.749,2.975,3.471c-0.951,0.285-1.945,0.477-2.975,0.564V4.317z M17.043,28.132v-4.037
			c1.035,0.089,2.033,0.276,2.978,0.562C19.192,26.381,18.158,27.587,17.043,28.132z M21.025,21.9
			c-1.253-0.396-2.591-0.646-3.982-0.748v-3.459h4.666C21.615,19.166,21.388,20.578,21.025,21.9z M17.043,14.757v-3.461
			c1.396-0.098,2.729-0.349,3.982-0.744c0.361,1.32,0.59,2.732,0.684,4.205H17.043z M22.035,26.781
			c0.18-0.332,0.354-0.682,0.521-1.045c0.203,0.111,0.393,0.225,0.572,0.338C22.779,26.329,22.414,26.566,22.035,26.781z
			 M22.56,6.721c-0.167-0.366-0.342-0.719-0.524-1.054c0.379,0.217,0.744,0.453,1.099,0.708C22.943,6.496,22.752,6.611,22.56,6.721z
			 M25.293,8.38c1.57,1.833,2.541,4.022,2.826,6.377h-3.74c-0.096-1.859-0.375-3.625-0.825-5.259
			C24.17,9.167,24.752,8.792,25.293,8.38z M25.297,24.061c-0.531-0.408-1.114-0.783-1.74-1.117c0.451-1.625,0.727-3.39,0.822-5.25
			h3.74C27.834,20.041,26.863,22.23,25.297,24.061z"/>
	</g>
</g>
<g>
</g>
<g>
</g>
<g>
</g>
<g>
</g>
<g>
</g>
<g>
</g>
<g>
</g>
<g>
</g>
<g>
</g>
<g>
</g>
<g>
</g>
<g>
</g>
<g>
</g>
<g>
</g>
<g>
</g>
</svg>
