<?xml version="1.0" encoding="iso-8859-1"?>
<!-- Generator: Adobe Illustrator 16.0.0, SVG Export Plug-In . SVG Version: 6.00 Build 0)  -->
<!DOCTYPE svg PUBLIC "-//W3C//DTD SVG 1.1//EN" "http://www.w3.org/Graphics/SVG/1.1/DTD/svg11.dtd">
<svg version="1.1" id="Capa_1" xmlns="http://www.w3.org/2000/svg" xmlns:xlink="http://www.w3.org/1999/xlink" x="0px" y="0px"
	 width="72.231px" height="72.232px" viewBox="0 0 72.231 72.232" style="enable-background:new 0 0 72.231 72.232;"
	 xml:space="preserve">
<g>
	<g id="Home">
		<g>
			<path d="M70.854,32.011L38.771,4.543c-0.1-0.085-0.209-0.149-0.314-0.223c-0.084-0.06-0.163-0.126-0.251-0.179
				c-0.123-0.072-0.252-0.127-0.381-0.187c-0.098-0.045-0.191-0.099-0.292-0.136c-0.123-0.045-0.25-0.07-0.376-0.104
				c-0.258-0.067-0.519-0.11-0.784-0.127c-0.086-0.005-0.171-0.021-0.257-0.021c-0.124,0-0.247,0.021-0.37,0.032
				c-0.119,0.011-0.239,0.013-0.357,0.034c-0.115,0.021-0.226,0.06-0.339,0.09c-0.124,0.033-0.249,0.061-0.37,0.105
				c-0.105,0.04-0.205,0.096-0.309,0.145c-0.121,0.058-0.244,0.111-0.36,0.181c-0.098,0.059-0.188,0.132-0.28,0.198
				c-0.089,0.064-0.184,0.118-0.268,0.19L1.377,32.011c-1.677,1.437-1.846,3.934-0.379,5.575c1.463,1.64,4.012,1.812,5.686,0.375
				l2.768-2.369v23.174c0,5.461,4.532,9.898,10.105,9.898h6.021c2.227,0,4.031-1.769,4.031-3.949V46.078
				c0-1.105,0.918-2.002,2.042-2.002h8.925c1.128,0,2.045,0.896,2.045,2.002v18.18c0,0.271,0.027,0.533,0.083,0.805l0.1,0.459
				c0.391,1.835,2.036,3.145,3.947,3.145h5.923c5.574,0,10.109-4.438,10.109-9.898V35.593l2.764,2.367
				c0.765,0.653,1.707,0.979,2.651,0.979c1.121,0,2.237-0.459,3.035-1.354C72.7,35.945,72.531,33.448,70.854,32.011z"/>
		</g>
	</g>
</g>
<g>
</g>
<g>
</g>
<g>
</g>
<g>
</g>
<g>
</g>
<g>
</g>
<g>
</g>
<g>
</g>
<g>
</g>
<g>
</g>
<g>
</g>
<g>
</g>
<g>
</g>
<g>
</g>
<g>
</g>
</svg>
