<?xml version="1.0" encoding="iso-8859-1"?>
<!-- Generator: Adobe Illustrator 16.0.0, SVG Export Plug-In . SVG Version: 6.00 Build 0)  -->
<!DOCTYPE svg PUBLIC "-//W3C//DTD SVG 1.1//EN" "http://www.w3.org/Graphics/SVG/1.1/DTD/svg11.dtd">
<svg version="1.1" id="Capa_1" xmlns="http://www.w3.org/2000/svg" xmlns:xlink="http://www.w3.org/1999/xlink" x="0px" y="0px"
	 width="73.17px" height="73.17px" viewBox="0 0 73.17 73.17" style="enable-background:new 0 0 73.17 73.17;" xml:space="preserve"
	>
<g>
	<g id="Bookmark_Outline">
		<g>
			<path d="M57.717,68.139L57.694,4.386C57.694,1.964,55.663,0,53.155,0H19.944c-1.204,0-2.359,0.467-3.209,1.286
				c-0.853,0.82-1.331,1.934-1.331,3.1l0.004,60.375l0.026,4.054c0.012,1.724,1.068,3.279,2.7,3.979
				c0.591,0.256,1.215,0.376,1.839,0.376c1.098,0,2.178-0.383,3.027-1.113l13.009-11.252L50.295,72.17c0.828,0.662,1.853,1,2.885,1
				h0.045c2.511,0,4.541-1.963,4.541-4.377C57.766,68.566,57.752,68.35,57.717,68.139z M48.616,59.473l-9.842-7.83
				c-0.845-0.66-1.866-1-2.889-1c-1.084,0-2.166,0.377-3.027,1.121l-8.371,7.235L24.483,8.771h24.133V59.473z"/>
		</g>
	</g>
</g>
<g>
</g>
<g>
</g>
<g>
</g>
<g>
</g>
<g>
</g>
<g>
</g>
<g>
</g>
<g>
</g>
<g>
</g>
<g>
</g>
<g>
</g>
<g>
</g>
<g>
</g>
<g>
</g>
<g>
</g>
</svg>
