<?xml version="1.0" encoding="iso-8859-1"?>
<!-- Generator: Adobe Illustrator 16.0.0, SVG Export Plug-In . SVG Version: 6.00 Build 0)  -->
<!DOCTYPE svg PUBLIC "-//W3C//DTD SVG 1.1//EN" "http://www.w3.org/Graphics/SVG/1.1/DTD/svg11.dtd">
<svg version="1.1" id="Capa_1" xmlns="http://www.w3.org/2000/svg" xmlns:xlink="http://www.w3.org/1999/xlink" x="0px" y="0px"
	 width="87.605px" height="87.605px" viewBox="0 0 87.605 87.605" style="enable-background:new 0 0 87.605 87.605;"
	 xml:space="preserve">
<g>
	<g id="Tasks">
		<g>
			<path d="M87.4,38.943c-0.002-0.223-0.025-0.446-0.068-0.669c-0.006-0.032-0.009-0.065-0.016-0.098
				c-0.037-0.17-0.083-0.34-0.144-0.507L79.334,16.19c-0.562-1.534-2.034-2.562-3.687-2.562h-3.762
				c-0.049,0-0.094,0.012-0.141,0.014l0.52-4.248c0.066-0.551-0.106-1.107-0.48-1.519c-0.369-0.417-0.902-0.658-1.465-0.658h-2.161
				l0.78-4.978c0.089-0.562-0.074-1.134-0.445-1.562C68.119,0.251,67.576,0,67.005,0H21.949c-0.591,0-1.149,0.267-1.523,0.722
				c-0.369,0.454-0.517,1.048-0.394,1.62l1.044,4.876h-2.442c-0.54,0-1.056,0.225-1.428,0.615c-0.368,0.385-0.561,0.909-0.529,1.444
				l0.275,4.499c-0.325-0.087-0.66-0.147-1.013-0.147h-3.981c-1.652,0-3.125,1.027-3.687,2.562L0.432,37.67
				c-0.061,0.166-0.105,0.335-0.143,0.506c-0.008,0.034-0.011,0.068-0.018,0.104c-0.041,0.218-0.063,0.438-0.066,0.657
				c0,0.018-0.005,0.035-0.005,0.053v44.738c0,2.14,1.757,3.877,3.919,3.877h79.367c2.163,0,3.919-1.737,3.919-3.877V38.99
				C87.405,38.975,87.4,38.96,87.4,38.943z M70.819,21.224c0.341,0.097,0.693,0.164,1.066,0.164h1.01l5.009,13.721h-8.783
				L70.819,21.224z M64.716,3.882l-0.523,3.336H25.085l-0.716-3.336H64.716z M68.108,11.1l-2.936,24.009H22.181L20.717,11.1H68.108z
				 M14.709,21.388h1.23c0.517,0,1.008-0.104,1.46-0.284l0.856,14.005H9.702L14.709,21.388z M79.566,79.848H8.039V42.868h71.527
				V79.848z M31.066,65.239H56.54c2.165,0,3.919-1.737,3.919-3.882c0-2.146-1.754-3.877-3.919-3.877H31.066
				c-2.166,0-3.92,1.731-3.92,3.877C27.146,63.502,28.9,65.239,31.066,65.239z"/>
		</g>
	</g>
</g>
<g>
</g>
<g>
</g>
<g>
</g>
<g>
</g>
<g>
</g>
<g>
</g>
<g>
</g>
<g>
</g>
<g>
</g>
<g>
</g>
<g>
</g>
<g>
</g>
<g>
</g>
<g>
</g>
<g>
</g>
</svg>
