<?xml version="1.0" encoding="iso-8859-1"?>
<!-- Generator: Adobe Illustrator 16.0.0, SVG Export Plug-In . SVG Version: 6.00 Build 0)  -->
<!DOCTYPE svg PUBLIC "-//W3C//DTD SVG 1.1//EN" "http://www.w3.org/Graphics/SVG/1.1/DTD/svg11.dtd">
<svg version="1.1" id="Capa_1" xmlns="http://www.w3.org/2000/svg" xmlns:xlink="http://www.w3.org/1999/xlink" x="0px" y="0px"
	 width="66.137px" height="66.137px" viewBox="0 0 66.137 66.137" style="enable-background:new 0 0 66.137 66.137;"
	 xml:space="preserve">
<g>
	<g>
		<path d="M33.068,66.136C14.834,66.136,0,51.302,0,33.069C0,14.835,14.834,0.001,33.068,0.001
			c18.233,0,33.069,14.834,33.069,33.068C66.137,51.302,51.302,66.136,33.068,66.136z M33.068,4.001C17.04,4.001,4,17.041,4,33.069
			s13.04,29.067,29.068,29.067s29.069-13.04,29.069-29.067S49.096,4.001,33.068,4.001z"/>
		<g>
			<path d="M55.036,11.1c12.133,12.133,12.133,31.803,0,43.937C42.902,67.17,23.232,67.169,11.1,55.036"/>
			<path d="M33.068,66.121c-8.469,0-16.936-3.224-23.383-9.67l2.828-2.828c11.334,11.333,29.773,11.334,41.108,0.001
				c11.333-11.334,11.333-29.775,0-41.109l2.828-2.828c12.894,12.893,12.894,33.873,0,46.765
				C50.005,62.897,41.535,66.12,33.068,66.121z"/>
		</g>
	</g>
</g>
<g>
</g>
<g>
</g>
<g>
</g>
<g>
</g>
<g>
</g>
<g>
</g>
<g>
</g>
<g>
</g>
<g>
</g>
<g>
</g>
<g>
</g>
<g>
</g>
<g>
</g>
<g>
</g>
<g>
</g>
</svg>
