<?xml version="1.0" encoding="iso-8859-1"?>
<!-- Generator: Adobe Illustrator 16.0.0, SVG Export Plug-In . SVG Version: 6.00 Build 0)  -->
<!DOCTYPE svg PUBLIC "-//W3C//DTD SVG 1.1//EN" "http://www.w3.org/Graphics/SVG/1.1/DTD/svg11.dtd">
<svg version="1.1" id="Capa_1" xmlns="http://www.w3.org/2000/svg" xmlns:xlink="http://www.w3.org/1999/xlink" x="0px" y="0px"
	 width="65.047px" height="65.047px" viewBox="0 0 65.047 65.047" style="enable-background:new 0 0 65.047 65.047;"
	 xml:space="preserve">
<g>
	<g>
		<path d="M58.375,65.047H6.671C2.993,65.047,0,62.055,0,58.375V6.672C0,2.993,2.993,0,6.671,0h51.704
			c3.682,0,6.672,2.993,6.672,6.672v51.703C65.047,62.055,62.057,65.047,58.375,65.047z M6.671,3.336
			c-1.84,0-3.335,1.496-3.335,3.336v51.703c0,1.84,1.496,3.336,3.335,3.336h51.704c1.839,0,3.336-1.496,3.336-3.336V6.672
			c0-1.84-1.497-3.336-3.336-3.336H6.671z"/>
		<rect x="13.899" y="29.883" width="6.672" height="5.004"/>
		<rect x="29.882" y="44.417" width="5.005" height="6.453"/>
		<path d="M32.523,45.516c-7.164,0-12.993-5.828-12.993-12.992c0-7.164,5.829-12.992,12.993-12.992
			c7.165,0,12.993,5.828,12.993,12.992C45.516,39.688,39.688,45.516,32.523,45.516z M32.523,24.536
			c-4.405,0-7.989,3.583-7.989,7.988c0,4.406,3.584,7.988,7.989,7.988c4.407,0,7.989-3.582,7.989-7.988
			C40.512,28.119,36.93,24.536,32.523,24.536z"/>
		<rect x="43.572" y="29.883" width="7.298" height="5.004"/>
		<rect x="30.021" y="13.9" width="5.004" height="6.873"/>
	</g>
</g>
<g>
</g>
<g>
</g>
<g>
</g>
<g>
</g>
<g>
</g>
<g>
</g>
<g>
</g>
<g>
</g>
<g>
</g>
<g>
</g>
<g>
</g>
<g>
</g>
<g>
</g>
<g>
</g>
<g>
</g>
</svg>
