<?xml version="1.0" encoding="iso-8859-1"?>
<!-- Generator: Adobe Illustrator 16.0.0, SVG Export Plug-In . SVG Version: 6.00 Build 0)  -->
<!DOCTYPE svg PUBLIC "-//W3C//DTD SVG 1.1//EN" "http://www.w3.org/Graphics/SVG/1.1/DTD/svg11.dtd">
<svg version="1.1" id="Capa_1" xmlns="http://www.w3.org/2000/svg" xmlns:xlink="http://www.w3.org/1999/xlink" x="0px" y="0px"
	 width="72.805px" height="72.805px" viewBox="0 0 72.805 72.805" style="enable-background:new 0 0 72.805 72.805;"
	 xml:space="preserve">
<g>
	<g id="Volume_On_Outline">
		<g>
			<path d="M40.004,2.332c-1.324-0.7-2.934-0.625-4.187,0.203L14.404,16.629h-2.162C5.49,16.629,0,22.052,0,28.724v15.441
				C0,50.837,5.49,56.26,12.242,56.26h2.17L35.825,70.28c0.681,0.443,1.467,0.669,2.253,0.669c0.666,0,1.326-0.157,1.93-0.48
				c1.326-0.699,2.15-2.062,2.15-3.55V5.889C42.158,4.399,41.331,3.03,40.004,2.332z M34.001,59.412L17.895,48.867
				c-0.67-0.438-1.452-0.671-2.254-0.671h-3.398c-2.254,0-4.081-1.805-4.081-4.03V28.724c0-2.227,1.827-4.031,4.081-4.031h3.398
				c0.805,0,1.592-0.232,2.265-0.678l16.096-10.598L34.001,59.412L34.001,59.412z M72.771,33.771
				c-0.608-11.162-9.561-18.405-9.939-18.706c-1.753-1.392-4.303-1.12-5.721,0.603s-1.15,4.257,0.587,5.664
				c0.063,0.053,6.548,5.386,6.928,12.937c0.248,4.957-2.188,9.996-7.239,14.983c-1.595,1.579-1.595,4.129,0,5.701
				c0.797,0.781,1.844,1.181,2.885,1.181c1.045,0,2.088-0.398,2.885-1.181C69.936,48.257,73.17,41.126,72.771,33.771z"/>
		</g>
	</g>
</g>
<g>
</g>
<g>
</g>
<g>
</g>
<g>
</g>
<g>
</g>
<g>
</g>
<g>
</g>
<g>
</g>
<g>
</g>
<g>
</g>
<g>
</g>
<g>
</g>
<g>
</g>
<g>
</g>
<g>
</g>
</svg>
