<?xml version="1.0" encoding="iso-8859-1"?>
<!-- Generator: Adobe Illustrator 16.0.0, SVG Export Plug-In . SVG Version: 6.00 Build 0)  -->
<!DOCTYPE svg PUBLIC "-//W3C//DTD SVG 1.1//EN" "http://www.w3.org/Graphics/SVG/1.1/DTD/svg11.dtd">
<svg version="1.1" id="Capa_1" xmlns="http://www.w3.org/2000/svg" xmlns:xlink="http://www.w3.org/1999/xlink" x="0px" y="0px"
	 width="72.23px" height="72.23px" viewBox="0 0 72.23 72.23" style="enable-background:new 0 0 72.23 72.23;" xml:space="preserve"
	>
<g>
	<g id="Home_Outline">
		<g>
			<path d="M70.854,32.011L38.771,4.52c-1.521-1.301-3.791-1.301-5.311,0L1.377,32.011c-1.678,1.436-1.846,3.933-0.379,5.581
				c1.466,1.641,4.012,1.812,5.686,0.368l2.768-2.371v23.198c0,5.461,4.532,9.898,10.105,9.898h8.037
				c2.227,0,4.031-1.769,4.031-3.949V46.083c0-1.104,0.918-2,2.042-2h4.896c1.124,0,2.042,0.896,2.042,2v18.188
				c0,0.357,0.063,0.698,0.155,1.028c0.28,1.912,1.943,3.387,3.974,3.387h7.943c5.568,0,10.104-4.438,10.104-9.898V35.593
				l2.764,2.367c0.765,0.654,1.707,0.979,2.651,0.979c1.12,0,2.237-0.459,3.034-1.348C72.699,35.944,72.53,33.447,70.854,32.011z
				 M54.716,58.787c0,1.099-0.913,1.993-2.037,1.993h-4.011V46.083c0-5.46-4.535-9.905-10.104-9.905h-4.896
				c-5.569,0-10.104,4.445-10.104,9.905V60.78h-4.006c-1.125,0-2.042-0.896-2.042-1.993V28.739c0-0.018-0.005-0.035-0.005-0.053
				l18.604-15.938l18.6,15.934V58.787z"/>
		</g>
	</g>
</g>
<g>
</g>
<g>
</g>
<g>
</g>
<g>
</g>
<g>
</g>
<g>
</g>
<g>
</g>
<g>
</g>
<g>
</g>
<g>
</g>
<g>
</g>
<g>
</g>
<g>
</g>
<g>
</g>
<g>
</g>
</svg>
