<?xml version="1.0" encoding="iso-8859-1"?>
<!-- Generator: Adobe Illustrator 16.0.0, SVG Export Plug-In . SVG Version: 6.00 Build 0)  -->
<!DOCTYPE svg PUBLIC "-//W3C//DTD SVG 1.1//EN" "http://www.w3.org/Graphics/SVG/1.1/DTD/svg11.dtd">
<svg version="1.1" id="Capa_1" xmlns="http://www.w3.org/2000/svg" xmlns:xlink="http://www.w3.org/1999/xlink" x="0px" y="0px"
	 width="73.169px" height="73.169px" viewBox="0 0 73.169 73.169" style="enable-background:new 0 0 73.169 73.169;"
	 xml:space="preserve">
<g>
	<g id="N_x2F_A">
		<g>
			<path d="M36.584,0C16.412,0,0,16.412,0,36.585s16.412,36.584,36.584,36.584c20.173,0,36.585-16.411,36.585-36.584
				S56.757,0,36.584,0z M7.894,36.585c0-15.818,12.87-28.688,28.69-28.688c6.873,0,13.188,2.431,18.134,6.475
				c-0.26,0.159-0.508,0.342-0.731,0.566L14.297,54.63C10.297,49.695,7.894,43.418,7.894,36.585z M36.584,65.279
				c-6.147,0-11.845-1.95-16.52-5.256l39.502-39.505c0.158-0.158,0.289-0.331,0.414-0.508c3.328,4.686,5.295,10.402,5.295,16.574
				C65.275,52.41,52.406,65.279,36.584,65.279z"/>
		</g>
	</g>
</g>
<g>
</g>
<g>
</g>
<g>
</g>
<g>
</g>
<g>
</g>
<g>
</g>
<g>
</g>
<g>
</g>
<g>
</g>
<g>
</g>
<g>
</g>
<g>
</g>
<g>
</g>
<g>
</g>
<g>
</g>
</svg>
