<?xml version="1.0" encoding="iso-8859-1"?>
<!-- Generator: Adobe Illustrator 16.0.0, SVG Export Plug-In . SVG Version: 6.00 Build 0)  -->
<!DOCTYPE svg PUBLIC "-//W3C//DTD SVG 1.1//EN" "http://www.w3.org/Graphics/SVG/1.1/DTD/svg11.dtd">
<svg version="1.1" id="Capa_1" xmlns="http://www.w3.org/2000/svg" xmlns:xlink="http://www.w3.org/1999/xlink" x="0px" y="0px"
	 width="31.572px" height="31.572px" viewBox="0 0 31.572 31.572" style="enable-background:new 0 0 31.572 31.572;"
	 xml:space="preserve">
<g>
	<path d="M29.905,20.212c0-0.373-0.211-0.688-0.513-0.864V14.8l2.18-1.065L15.786,6.021L0,13.735l7.087,3.463v5.43
		c0,0,3.175,2.923,8.814,2.923c5.638,0,8.583-2.923,8.583-2.923v-5.43l3.895-1.904v4.053c-0.301,0.177-0.513,0.491-0.513,0.864
		c0,0.332,0.168,0.611,0.413,0.798l-0.576,3.168h2.365l-0.576-3.168C29.737,20.824,29.905,20.544,29.905,20.212z"/>
</g>
<g>
</g>
<g>
</g>
<g>
</g>
<g>
</g>
<g>
</g>
<g>
</g>
<g>
</g>
<g>
</g>
<g>
</g>
<g>
</g>
<g>
</g>
<g>
</g>
<g>
</g>
<g>
</g>
<g>
</g>
</svg>
