<?xml version="1.0" encoding="iso-8859-1"?>
<!-- Generator: Adobe Illustrator 16.0.0, SVG Export Plug-In . SVG Version: 6.00 Build 0)  -->
<!DOCTYPE svg PUBLIC "-//W3C//DTD SVG 1.1//EN" "http://www.w3.org/Graphics/SVG/1.1/DTD/svg11.dtd">
<svg version="1.1" id="Capa_1" xmlns="http://www.w3.org/2000/svg" xmlns:xlink="http://www.w3.org/1999/xlink" x="0px" y="0px"
	 width="65.047px" height="65.047px" viewBox="0 0 65.047 65.047" style="enable-background:new 0 0 65.047 65.047;"
	 xml:space="preserve">
<g>
	<g>
		<path d="M58.375,65.047H6.671C2.994,65.047,0,62.057,0,58.376V6.672C0,2.993,2.994,0,6.671,0h51.704
			c3.678,0,6.671,2.993,6.671,6.672v51.704C65.046,62.057,62.055,65.047,58.375,65.047z M6.671,3.336
			c-1.84,0-3.335,1.497-3.335,3.336v51.704c0,1.838,1.496,3.336,3.335,3.336h51.704c1.839,0,3.335-1.498,3.335-3.336V6.672
			c0-1.839-1.496-3.336-3.335-3.336H6.671z"/>
		<path d="M42.268,15.984v5.282h-5l-0.002-5.282H26.422v5.282h-5.003v-5.282h-4.727v33.079h30.302V15.984H42.268z M26.419,42.391
			h-4.987v-4.725h4.987V42.391z M26.419,32.662h-4.987v-4.725h4.987V32.662z M34.336,42.391H29.35v-4.725h4.987V42.391z
			 M34.336,32.662H29.35v-4.725h4.987V32.662z M42.264,42.323h-4.988v-4.728h4.988V42.323z M42.264,32.593h-4.988v-4.726h4.988
			V32.593z"/>
	</g>
</g>
<g>
</g>
<g>
</g>
<g>
</g>
<g>
</g>
<g>
</g>
<g>
</g>
<g>
</g>
<g>
</g>
<g>
</g>
<g>
</g>
<g>
</g>
<g>
</g>
<g>
</g>
<g>
</g>
<g>
</g>
</svg>
