<?xml version="1.0" encoding="iso-8859-1"?>
<!-- Generator: Adobe Illustrator 16.0.0, SVG Export Plug-In . SVG Version: 6.00 Build 0)  -->
<!DOCTYPE svg PUBLIC "-//W3C//DTD SVG 1.1//EN" "http://www.w3.org/Graphics/SVG/1.1/DTD/svg11.dtd">
<svg version="1.1" id="Capa_1" xmlns="http://www.w3.org/2000/svg" xmlns:xlink="http://www.w3.org/1999/xlink" x="0px" y="0px"
	 width="61.59px" height="61.59px" viewBox="0 0 61.59 61.59" style="enable-background:new 0 0 61.59 61.59;" xml:space="preserve"
	>
<g>
	<g id="Fetch_Mails">
		<g>
			<path d="M55.814,0h-5.773l-7.699,0.021v9.603h7.699c1.062,0,1.925,0.861,1.925,1.925v26.945c0,1.062-0.862,1.925-1.925,1.925
				h-7.699v7.699c0,1.062-0.863,1.924-1.925,1.924H21.171c-1.064,0-1.925-0.862-1.925-1.924v-7.699h-7.699
				c-1.063,0-1.924-0.862-1.924-1.925V11.548c0-1.063,0.861-1.925,1.924-1.925h7.699V0H5.774C2.584,0,0,2.584,0,5.773v50.042
				c0,3.188,2.584,5.774,5.774,5.774h50.042c3.188,0,5.773-2.587,5.773-5.774V5.773C61.59,2.584,59.003,0,55.814,0z M31.137,42.616
				L44.609,23.02h-9.625V0h-7.692V23.02h-9.627L31.137,42.616z"/>
		</g>
	</g>
</g>
<g>
</g>
<g>
</g>
<g>
</g>
<g>
</g>
<g>
</g>
<g>
</g>
<g>
</g>
<g>
</g>
<g>
</g>
<g>
</g>
<g>
</g>
<g>
</g>
<g>
</g>
<g>
</g>
<g>
</g>
</svg>
