<?xml version="1.0" encoding="iso-8859-1"?>
<!-- Generator: Adobe Illustrator 16.0.0, SVG Export Plug-In . SVG Version: 6.00 Build 0)  -->
<!DOCTYPE svg PUBLIC "-//W3C//DTD SVG 1.1//EN" "http://www.w3.org/Graphics/SVG/1.1/DTD/svg11.dtd">
<svg version="1.1" id="Capa_1" xmlns="http://www.w3.org/2000/svg" xmlns:xlink="http://www.w3.org/1999/xlink" x="0px" y="0px"
	 width="31.43px" height="31.429px" viewBox="0 0 31.43 31.429" style="enable-background:new 0 0 31.43 31.429;"
	 xml:space="preserve">
<g>
	<g>
		<polygon points="16.675,14.655 8.839,6.818 9.694,5.963 2.669,0.854 0,3.523 5.109,10.548 5.964,9.693 13.8,17.531 12.533,18.727 
			24.381,30.578 29.652,25.345 17.792,13.508 		"/>
		<path d="M16.675,13.106l1.427-1.427l3.887,3.887l0.316-0.316c2.422,0.614,5.088,0,6.983-1.893
			c1.936-1.938,2.557-4.686,1.874-7.148l-4.844,4.843L21.23,5.964l4.842-4.843c-2.463-0.685-5.211-0.063-7.148,1.874
			c-1.931,1.932-2.526,4.667-1.85,7.126l-1.693,1.693L16.675,13.106z"/>
		<polygon points="12.252,17.531 10.958,16.237 1.798,25.396 6.979,30.578 14.712,22.844 10.825,18.958 		"/>
	</g>
</g>
<g>
</g>
<g>
</g>
<g>
</g>
<g>
</g>
<g>
</g>
<g>
</g>
<g>
</g>
<g>
</g>
<g>
</g>
<g>
</g>
<g>
</g>
<g>
</g>
<g>
</g>
<g>
</g>
<g>
</g>
</svg>
