<?xml version="1.0" encoding="iso-8859-1"?>
<!-- Generator: Adobe Illustrator 16.0.0, SVG Export Plug-In . SVG Version: 6.00 Build 0)  -->
<!DOCTYPE svg PUBLIC "-//W3C//DTD SVG 1.1//EN" "http://www.w3.org/Graphics/SVG/1.1/DTD/svg11.dtd">
<svg version="1.1" id="Capa_1" xmlns="http://www.w3.org/2000/svg" xmlns:xlink="http://www.w3.org/1999/xlink" x="0px" y="0px"
	 width="31.445px" height="31.445px" viewBox="0 0 31.445 31.445" style="enable-background:new 0 0 31.445 31.445;"
	 xml:space="preserve">
<g>
	<path d="M31.445,25.448l-6.608,0.021l-0.08-24.973l6.608-0.021L31.445,25.448z M28.159,30.97l1.52-2.549l-3.055,0.008L28.159,30.97
		z M23.046,23.413c1.162,2.715-0.103,5.865-2.814,7.025c-2.713,1.162-5.865-0.104-7.026-2.816c-0.075-0.178-0.137-0.354-0.188-0.535
		c-0.288-1.018-1.283-3.512-1.283-3.512s-0.983,2.51-1.262,3.521c-0.051,0.181-0.111,0.359-0.186,0.535
		C9.144,30.354,6,31.638,3.279,30.493c-2.721-1.143-4.005-4.285-2.861-7.008c1.143-2.721,4.286-4.004,7.009-2.861
		c0.549,0.23,1.021,0.562,1.444,0.935L9.86,19.22L4.118,1.841l3.173-1.343l4.414,14.358l4.313-14.381l3.152,1.366l-5.594,17.367
		l1.004,2.332c0.42-0.377,0.893-0.709,1.439-0.943C18.734,19.438,21.886,20.7,23.046,23.413z M6.542,22.725
		c-1.563-0.658-3.37,0.081-4.026,1.646c-0.657,1.563,0.08,3.368,1.644,4.026c1.563,0.655,3.371-0.08,4.028-1.646
		C8.845,25.188,8.106,23.38,6.542,22.725z M20.954,24.311c-0.667-1.562-2.478-2.287-4.038-1.619
		c-1.56,0.666-2.286,2.478-1.619,4.037s2.479,2.284,4.038,1.618C20.895,27.679,21.62,25.87,20.954,24.311z"/>
</g>
<g>
</g>
<g>
</g>
<g>
</g>
<g>
</g>
<g>
</g>
<g>
</g>
<g>
</g>
<g>
</g>
<g>
</g>
<g>
</g>
<g>
</g>
<g>
</g>
<g>
</g>
<g>
</g>
<g>
</g>
</svg>
