<?xml version="1.0" encoding="iso-8859-1"?>
<!-- Generator: Adobe Illustrator 16.0.0, SVG Export Plug-In . SVG Version: 6.00 Build 0)  -->
<!DOCTYPE svg PUBLIC "-//W3C//DTD SVG 1.1//EN" "http://www.w3.org/Graphics/SVG/1.1/DTD/svg11.dtd">
<svg version="1.1" id="Capa_1" xmlns="http://www.w3.org/2000/svg" xmlns:xlink="http://www.w3.org/1999/xlink" x="0px" y="0px"
	 width="106.339px" height="106.339px" viewBox="0 0 106.339 106.339" style="enable-background:new 0 0 106.339 106.339;"
	 xml:space="preserve">
<g>
	<g id="Cloud__x2B__Sun__x2B__Frost">
		<g>
			<path d="M105.971,27.512C103.633,14.215,90.986,5.316,77.768,7.658c-4.908,0.874-9.3,3.175-12.808,6.66
				c-2.006-0.546-4.112-0.842-6.288-0.842c-8.395,0-16.144,4.414-20.51,11.472c-2.671-1.78-5.801-2.733-9.071-2.733
				c-9.082,0-16.468,7.434-16.468,16.572c0,0.943,0.078,1.881,0.233,2.805C5.177,44.479,0,51.853,0,60.3
				c0,10.851,8.537,19.025,19.858,19.025c1.369,0,2.478-1.113,2.478-2.487c0-1.375-1.108-2.493-2.478-2.493
				c-8.497,0-14.907-6.039-14.907-14.045c0-6.981,4.707-12.985,11.446-14.596c0.677-0.161,1.254-0.603,1.593-1.215
				c0.336-0.617,0.403-1.339,0.181-2.006c-0.396-1.184-0.597-2.428-0.597-3.697c0-6.39,5.166-11.592,11.517-11.592
				c3.052,0,5.929,1.189,8.101,3.351c0.576,0.572,1.395,0.833,2.189,0.678c0.795-0.15,1.47-0.678,1.806-1.42
				c3.104-6.892,9.969-11.346,17.485-11.346c10.584,0,19.193,8.662,19.193,19.316c0,1.093-0.309,3.32-0.432,4.103
				c-0.021,0.131-0.029,0.266-0.029,0.401c0,1.229,0.888,2.263,2.07,2.458c6.664,1.575,11.487,7.693,11.487,14.605
				c0,8.271-6.688,15.003-14.907,15.003c-1.369,0-2.476,1.118-2.476,2.493c0,1.374,1.104,2.487,2.476,2.487
				c10.949,0,19.857-8.963,19.857-19.983c0-2.327-0.423-4.581-1.18-6.692C103.141,47.447,107.717,37.442,105.971,27.512z
				 M92.479,48.188c-2.357-3.508-5.785-6.269-9.86-7.711c0.104-0.913,0.198-1.931,0.198-2.703c0-9.237-5.15-17.286-12.711-21.396
				c2.47-1.944,5.36-3.251,8.524-3.811c10.528-1.876,20.603,5.216,22.468,15.81C102.463,36.157,98.96,43.986,92.479,48.188z
				 M68.381,75.177h-5.236l3.103-3.119c0.646-0.646,0.646-1.7,0-2.348s-1.69-0.647-2.335,0l-5.436,5.467h-6.538l11.627-11.701
				c0.645-0.646,0.645-1.7,0-2.348c-0.646-0.646-1.69-0.646-2.336,0L49.605,72.828v-6.584l5.43-5.467c0.646-0.646,0.646-1.7,0-2.349
				c-0.645-0.646-1.688-0.646-2.332,0l-3.098,3.115v-5.262c0-0.918-0.737-1.66-1.65-1.66c-0.91,0-1.65,0.742-1.65,1.66v5.261
				l-3.095-3.114c-0.645-0.646-1.69-0.646-2.335,0c-0.645,0.647-0.645,1.701,0,2.349l5.43,5.467v6.58L34.684,61.128
				c-0.645-0.646-1.69-0.646-2.335,0s-0.645,1.7,0,2.348l11.627,11.701h-6.544l-5.43-5.467c-0.645-0.646-1.69-0.646-2.335,0
				s-0.645,1.7,0,2.348l3.098,3.119h-5.231c-0.91,0-1.65,0.743-1.65,1.661s0.74,1.66,1.65,1.66h5.23l-3.097,3.114
				c-0.645,0.646-0.645,1.701,0,2.348c0.324,0.326,0.745,0.486,1.167,0.486c0.424,0,0.845-0.16,1.168-0.486l5.43-5.462h6.54
				L32.349,90.196c-0.645,0.646-0.645,1.699,0,2.347c0.323,0.326,0.744,0.487,1.166,0.487c0.424,0,0.845-0.161,1.169-0.487
				l11.621-11.695v6.58l-5.43,5.467c-0.645,0.647-0.645,1.7,0,2.349c0.645,0.651,1.69,0.651,2.335,0l3.095-3.114v5.267
				c0,0.919,0.74,1.66,1.65,1.66c0.913,0,1.65-0.741,1.65-1.66v-5.268l3.098,3.115c0.321,0.326,0.745,0.485,1.166,0.485
				c0.424,0,0.846-0.159,1.166-0.485c0.646-0.647,0.646-1.7,0-2.349l-5.43-5.469v-6.582L61.23,92.542
				c0.322,0.326,0.744,0.487,1.168,0.487c0.422,0,0.843-0.161,1.166-0.487c0.646-0.646,0.646-1.699,0-2.347L51.942,78.499h6.539
				l5.431,5.462c0.323,0.326,0.745,0.486,1.166,0.486c0.424,0,0.846-0.16,1.169-0.486c0.645-0.646,0.645-1.7,0-2.348l-3.094-3.114
				h5.229c0.91,0,1.65-0.742,1.65-1.66S69.291,75.177,68.381,75.177z"/>
		</g>
	</g>
</g>
<g>
</g>
<g>
</g>
<g>
</g>
<g>
</g>
<g>
</g>
<g>
</g>
<g>
</g>
<g>
</g>
<g>
</g>
<g>
</g>
<g>
</g>
<g>
</g>
<g>
</g>
<g>
</g>
<g>
</g>
</svg>
