<?xml version="1.0" encoding="iso-8859-1"?>
<!-- Generator: Adobe Illustrator 16.0.0, SVG Export Plug-In . SVG Version: 6.00 Build 0)  -->
<!DOCTYPE svg PUBLIC "-//W3C//DTD SVG 1.1//EN" "http://www.w3.org/Graphics/SVG/1.1/DTD/svg11.dtd">
<svg version="1.1" id="Capa_1" xmlns="http://www.w3.org/2000/svg" xmlns:xlink="http://www.w3.org/1999/xlink" x="0px" y="0px"
	 width="65.048px" height="65.047px" viewBox="0 0 65.048 65.047" style="enable-background:new 0 0 65.048 65.047;"
	 xml:space="preserve">
<g>
	<g>
		<path d="M58.376,65.047H6.672C2.993,65.047,0,62.055,0,58.375V6.671C0,2.993,2.993,0,6.672,0h51.704
			c3.681,0,6.672,2.992,6.672,6.671v51.704C65.048,62.055,62.057,65.047,58.376,65.047z M6.672,3.336
			c-1.839,0-3.336,1.497-3.336,3.335v51.704c0,1.839,1.497,3.336,3.336,3.336h51.704c1.839,0,3.336-1.497,3.336-3.336V6.671
			c0-1.838-1.497-3.335-3.336-3.335H6.672z"/>
		<path d="M42.951,32.01c-0.27-5.532-4.822-9.943-10.428-9.943c-4.64,0-8.571,3.028-9.937,7.212
			c-2.994,0.785-5.216,3.485-5.216,6.724c0,3.853,3.124,6.976,6.975,6.976h5.676V36.19h-3.617l6.118-7.505l6.117,7.505h-3.611v6.789
			h7.121c3.052,0,5.522-2.474,5.522-5.522C47.672,34.678,45.619,32.402,42.951,32.01z"/>
	</g>
</g>
<g>
</g>
<g>
</g>
<g>
</g>
<g>
</g>
<g>
</g>
<g>
</g>
<g>
</g>
<g>
</g>
<g>
</g>
<g>
</g>
<g>
</g>
<g>
</g>
<g>
</g>
<g>
</g>
<g>
</g>
</svg>
