<?xml version="1.0" encoding="iso-8859-1"?>
<!-- Generator: Adobe Illustrator 16.0.0, SVG Export Plug-In . SVG Version: 6.00 Build 0)  -->
<!DOCTYPE svg PUBLIC "-//W3C//DTD SVG 1.1//EN" "http://www.w3.org/Graphics/SVG/1.1/DTD/svg11.dtd">
<svg version="1.1" id="Capa_1" xmlns="http://www.w3.org/2000/svg" xmlns:xlink="http://www.w3.org/1999/xlink" x="0px" y="0px"
	 width="73.169px" height="73.169px" viewBox="0 0 73.169 73.169" style="enable-background:new 0 0 73.169 73.169;"
	 xml:space="preserve">
<g>
	<g id="Mobile">
		<g>
			<path d="M49.355,0H23.812c-6.762,0-12.26,5.25-12.26,11.711v49.755c0,6.453,5.498,11.703,12.26,11.703h25.543
				c6.762,0,12.262-5.25,12.262-11.703V11.711C61.615,5.25,56.117,0,49.355,0z M31.837,61.691c0-1.955,1.659-3.543,3.704-3.543
				c2.047,0,3.701,1.588,3.701,3.543s-1.653,3.535-3.701,3.535C33.496,65.227,31.837,63.646,31.837,61.691z M19.724,52.645V16.3
				h33.719v36.345H19.724z"/>
		</g>
	</g>
</g>
<g>
</g>
<g>
</g>
<g>
</g>
<g>
</g>
<g>
</g>
<g>
</g>
<g>
</g>
<g>
</g>
<g>
</g>
<g>
</g>
<g>
</g>
<g>
</g>
<g>
</g>
<g>
</g>
<g>
</g>
</svg>
