<?xml version="1.0" encoding="iso-8859-1"?>
<!-- Generator: Adobe Illustrator 16.0.0, SVG Export Plug-In . SVG Version: 6.00 Build 0)  -->
<!DOCTYPE svg PUBLIC "-//W3C//DTD SVG 1.1//EN" "http://www.w3.org/Graphics/SVG/1.1/DTD/svg11.dtd">
<svg version="1.1" id="Capa_1" xmlns="http://www.w3.org/2000/svg" xmlns:xlink="http://www.w3.org/1999/xlink" x="0px" y="0px"
	 width="73.168px" height="73.168px" viewBox="0 0 73.168 73.168" style="enable-background:new 0 0 73.168 73.168;"
	 xml:space="preserve">
<g>
	<g id="Sync">
		<g>
			<path d="M61.462,13.255H47.732c-2.155,0-3.903,1.707-3.903,3.812c0,2.1,1.748,3.807,3.903,3.807h13.729
				c2.151,0,3.903,1.707,3.903,3.806v23.806c0,2.099-1.752,3.812-3.903,3.812h-8.315v-0.406l2.514-2.062
				c1.65-1.354,1.861-3.753,0.479-5.37c-1.385-1.602-3.849-1.812-5.498-0.458l-10.836,8.883c-0.865,0.714-1.377,1.753-1.393,2.856
				c-0.02,1.105,0.451,2.16,1.294,2.896l10.835,9.492c0.748,0.646,1.677,0.971,2.605,0.971c1.067,0,2.137-0.43,2.906-1.265
				c1.438-1.563,1.307-3.972-0.297-5.378l-2.609-2.284v-0.258h8.314c6.457,0,11.707-5.13,11.707-11.433V24.68
				C73.169,18.384,67.919,13.255,61.462,13.255z M22.158,5.042c-1.605-1.406-4.072-1.278-5.514,0.294
				c-1.436,1.564-1.305,3.971,0.301,5.377l2.606,2.281v0.262h-7.845C5.25,13.255,0,18.384,0,24.68v23.806
				c0,6.303,5.25,11.433,11.707,11.433h15.047c2.155,0,3.904-1.708,3.904-3.813c0-2.104-1.749-3.806-3.904-3.806H11.707
				c-2.15,0-3.903-1.715-3.903-3.813V24.68c0-2.099,1.753-3.806,3.903-3.806h7.845v0.4l-2.512,2.059
				c-1.651,1.354-1.861,3.761-0.478,5.371c0.771,0.895,1.877,1.362,2.99,1.362c0.888,0,1.779-0.294,2.509-0.896l10.838-8.891
				c0.865-0.707,1.373-1.745,1.389-2.851c0.022-1.105-0.451-2.158-1.294-2.896L22.158,5.042z"/>
		</g>
	</g>
</g>
<g>
</g>
<g>
</g>
<g>
</g>
<g>
</g>
<g>
</g>
<g>
</g>
<g>
</g>
<g>
</g>
<g>
</g>
<g>
</g>
<g>
</g>
<g>
</g>
<g>
</g>
<g>
</g>
<g>
</g>
</svg>
