<?xml version="1.0" encoding="iso-8859-1"?>
<!-- Generator: Adobe Illustrator 16.0.0, SVG Export Plug-In . SVG Version: 6.00 Build 0)  -->
<!DOCTYPE svg PUBLIC "-//W3C//DTD SVG 1.1//EN" "http://www.w3.org/Graphics/SVG/1.1/DTD/svg11.dtd">
<svg version="1.1" id="Capa_1" xmlns="http://www.w3.org/2000/svg" xmlns:xlink="http://www.w3.org/1999/xlink" x="0px" y="0px"
	 width="65.047px" height="65.047px" viewBox="0 0 65.047 65.047" style="enable-background:new 0 0 65.047 65.047;"
	 xml:space="preserve">
<g>
	<g>
		<path d="M58.375,65.047H6.672C2.994,65.047,0,62.055,0,58.375V6.671C0,2.992,2.994,0,6.672,0h51.703
			c3.68,0,6.671,2.992,6.671,6.671v51.704C65.046,62.055,62.055,65.047,58.375,65.047z M6.672,3.336
			c-1.84,0-3.336,1.497-3.336,3.335v51.704c0,1.839,1.496,3.336,3.336,3.336h51.703c1.84,0,3.336-1.497,3.336-3.336V6.671
			c0-1.838-1.496-3.335-3.336-3.335H6.672z"/>
		<g>
			<rect x="17.375" y="30.02" width="5.004" height="17.651"/>
			<rect x="27.382" y="30.02" width="20.292" height="17.651"/>
			<rect x="17.375" y="17.373" width="30.299" height="7.644"/>
		</g>
	</g>
</g>
<g>
</g>
<g>
</g>
<g>
</g>
<g>
</g>
<g>
</g>
<g>
</g>
<g>
</g>
<g>
</g>
<g>
</g>
<g>
</g>
<g>
</g>
<g>
</g>
<g>
</g>
<g>
</g>
<g>
</g>
</svg>
