<?xml version="1.0" encoding="iso-8859-1"?>
<!-- Generator: Adobe Illustrator 16.0.0, SVG Export Plug-In . SVG Version: 6.00 Build 0)  -->
<!DOCTYPE svg PUBLIC "-//W3C//DTD SVG 1.1//EN" "http://www.w3.org/Graphics/SVG/1.1/DTD/svg11.dtd">
<svg version="1.1" id="Capa_1" xmlns="http://www.w3.org/2000/svg" xmlns:xlink="http://www.w3.org/1999/xlink" x="0px" y="0px"
	 width="31.35px" height="31.35px" viewBox="0 0 31.35 31.35" style="enable-background:new 0 0 31.35 31.35;" xml:space="preserve"
	>
<g>
	<path d="M18.413,18.522l8.735-8.736l4.201,4.201l-8.736,8.737L18.413,18.522z M17.01,24.126l2.588-0.648l-1.938-1.941L17.01,24.126
		z M20.51,24.304v1.355H4.203v-2.047h11.879l0.58-2.313H4.203v-2.047h12.649l0.232-0.851l1.467-1.467H4.203v-2.046H20.51
		l4.203-4.116V0.388L8.873,0.39l-0.02,9.313H0v21.259h24.713v-8.893l-2.1,2.101L20.51,24.304z M6.961,1.4L0.906,7.792h6.041
		L6.961,1.4z"/>
</g>
<g>
</g>
<g>
</g>
<g>
</g>
<g>
</g>
<g>
</g>
<g>
</g>
<g>
</g>
<g>
</g>
<g>
</g>
<g>
</g>
<g>
</g>
<g>
</g>
<g>
</g>
<g>
</g>
<g>
</g>
</svg>
