<?xml version="1.0" encoding="iso-8859-1"?>
<!-- Generator: Adobe Illustrator 16.0.0, SVG Export Plug-In . SVG Version: 6.00 Build 0)  -->
<!DOCTYPE svg PUBLIC "-//W3C//DTD SVG 1.1//EN" "http://www.w3.org/Graphics/SVG/1.1/DTD/svg11.dtd">
<svg version="1.1" id="Capa_1" xmlns="http://www.w3.org/2000/svg" xmlns:xlink="http://www.w3.org/1999/xlink" x="0px" y="0px"
	 width="45.6px" height="45.6px" viewBox="0 0 45.6 45.6" style="enable-background:new 0 0 45.6 45.6;" xml:space="preserve">
<g>
	<path d="M44.804,16.906c-0.232-0.873-1.003-1.494-1.904-1.536c-0.905-0.068-1.728,0.504-2.043,1.348
		c-1.351,3.639-4.856,6.081-8.729,6.081c-5.145,0-9.327-4.183-9.327-9.326c0-3.87,2.444-7.381,6.083-8.731
		c0.846-0.315,1.391-1.141,1.348-2.042c-0.043-0.9-0.664-1.67-1.535-1.903C26.717,0.268,24.735,0,22.8,0
		C10.228,0,0.001,10.228,0.001,22.8c0,12.57,10.227,22.8,22.799,22.8c12.571,0,22.799-10.229,22.799-22.801
		C45.599,20.863,45.331,18.88,44.804,16.906z M22.8,41.454c-10.285,0-18.654-8.368-18.654-18.654c0-10.16,8.166-18.451,18.282-18.65
		c-2.364,2.461-3.774,5.789-3.774,9.323c0,7.429,6.045,13.472,13.475,13.472c3.535,0,6.86-1.407,9.323-3.771
		C41.251,33.289,32.961,41.454,22.8,41.454z"/>
</g>
<g>
</g>
<g>
</g>
<g>
</g>
<g>
</g>
<g>
</g>
<g>
</g>
<g>
</g>
<g>
</g>
<g>
</g>
<g>
</g>
<g>
</g>
<g>
</g>
<g>
</g>
<g>
</g>
<g>
</g>
</svg>
