<?xml version="1.0" encoding="iso-8859-1"?>
<!-- Generator: Adobe Illustrator 16.0.0, SVG Export Plug-In . SVG Version: 6.00 Build 0)  -->
<!DOCTYPE svg PUBLIC "-//W3C//DTD SVG 1.1//EN" "http://www.w3.org/Graphics/SVG/1.1/DTD/svg11.dtd">
<svg version="1.1" id="Capa_1" xmlns="http://www.w3.org/2000/svg" xmlns:xlink="http://www.w3.org/1999/xlink" x="0px" y="0px"
	 width="32.012px" height="32.012px" viewBox="0 0 32.012 32.012" style="enable-background:new 0 0 32.012 32.012;"
	 xml:space="preserve">
<g>
	<g>
		<path d="M26.006,13.012h-20c-2.209,0-4,1.791-4,4v11c0,2.209,1.791,4,4,4h20c2.209,0,4-1.791,4-4v-11
			C30.006,14.803,28.215,13.012,26.006,13.012z M26.006,28.012h-20v-10h20V28.012z"/>
		<path d="M24.951,4c0-2.209-1.791-4-4-4h-10c-2.209,0-4,1.791-4,4v9h4V5h10v4l4-0.002V4z"/>
	</g>
</g>
<g>
</g>
<g>
</g>
<g>
</g>
<g>
</g>
<g>
</g>
<g>
</g>
<g>
</g>
<g>
</g>
<g>
</g>
<g>
</g>
<g>
</g>
<g>
</g>
<g>
</g>
<g>
</g>
<g>
</g>
</svg>
