<?xml version="1.0" encoding="iso-8859-1"?>
<!-- Generator: Adobe Illustrator 16.0.0, SVG Export Plug-In . SVG Version: 6.00 Build 0)  -->
<!DOCTYPE svg PUBLIC "-//W3C//DTD SVG 1.1//EN" "http://www.w3.org/Graphics/SVG/1.1/DTD/svg11.dtd">
<svg version="1.1" id="Capa_1" xmlns="http://www.w3.org/2000/svg" xmlns:xlink="http://www.w3.org/1999/xlink" x="0px" y="0px"
	 width="45.6px" height="45.6px" viewBox="0 0 45.6 45.6" style="enable-background:new 0 0 45.6 45.6;" xml:space="preserve">
<g>
	<g>
		<path d="M22.799,0C10.228,0,0,10.228,0,22.799C0,35.371,10.228,45.6,22.799,45.6C35.37,45.6,45.6,35.371,45.6,22.799
			C45.6,10.228,35.37,0,22.799,0z M22.799,41.452c-10.285,0-18.652-8.368-18.652-18.654c0-10.283,8.367-18.652,18.652-18.652
			c10.286,0,18.654,8.368,18.654,18.652C41.453,33.083,33.085,41.452,22.799,41.452z"/>
		<rect x="14.509" y="20.726" width="16.581" height="4.146"/>
	</g>
</g>
<g>
</g>
<g>
</g>
<g>
</g>
<g>
</g>
<g>
</g>
<g>
</g>
<g>
</g>
<g>
</g>
<g>
</g>
<g>
</g>
<g>
</g>
<g>
</g>
<g>
</g>
<g>
</g>
<g>
</g>
</svg>
