<?xml version="1.0" encoding="iso-8859-1"?>
<!-- Generator: Adobe Illustrator 16.0.0, SVG Export Plug-In . SVG Version: 6.00 Build 0)  -->
<!DOCTYPE svg PUBLIC "-//W3C//DTD SVG 1.1//EN" "http://www.w3.org/Graphics/SVG/1.1/DTD/svg11.dtd">
<svg version="1.1" id="Capa_1" xmlns="http://www.w3.org/2000/svg" xmlns:xlink="http://www.w3.org/1999/xlink" x="0px" y="0px"
	 width="32px" height="32px" viewBox="0 0 32 32" style="enable-background:new 0 0 32 32;" xml:space="preserve">
<g>
	<path d="M32,15.15l-3.458-3.41c-0.042-0.052-0.079-0.107-0.127-0.155l-11.001-11c-0.781-0.781-2.047-0.781-2.828,0l-9.291,9.29
		L0,15.15h3V26c0,3.309,2.691,6,6,6h14.001c3.31,0,6-2.691,6-6V15.15H32z M25.001,26c0,1.104-0.897,2-2,2H19V16h-6v12H9
		c-1.103,0-2-0.896-2-2V13.828l9-9l9.001,9V26z"/>
</g>
<g>
</g>
<g>
</g>
<g>
</g>
<g>
</g>
<g>
</g>
<g>
</g>
<g>
</g>
<g>
</g>
<g>
</g>
<g>
</g>
<g>
</g>
<g>
</g>
<g>
</g>
<g>
</g>
<g>
</g>
</svg>
