<?xml version="1.0" encoding="iso-8859-1"?>
<!-- Generator: Adobe Illustrator 16.0.0, SVG Export Plug-In . SVG Version: 6.00 Build 0)  -->
<!DOCTYPE svg PUBLIC "-//W3C//DTD SVG 1.1//EN" "http://www.w3.org/Graphics/SVG/1.1/DTD/svg11.dtd">
<svg version="1.1" id="Capa_1" xmlns="http://www.w3.org/2000/svg" xmlns:xlink="http://www.w3.org/1999/xlink" x="0px" y="0px"
	 width="31.646px" height="31.646px" viewBox="0 0 31.646 31.646" style="enable-background:new 0 0 31.646 31.646;"
	 xml:space="preserve">
<g>
	<g>
		<path d="M17.993,19.258c-0.321-1.924-1.985-3.333-3.937-3.333H12.06c0.294-0.118,0.577-0.257,0.849-0.414
			c3.804,0.091,5.072-1.121,5.072-1.121c-0.913-0.229-1.389-1.215-1.636-2.144c-0.165-0.617-0.225-1.267-0.174-1.904
			c0.014-0.167,0.021-0.335,0.021-0.506c0-3.621-2.936-6.557-6.557-6.557S3.078,6.214,3.078,9.835c0,0.166,0.007,0.329,0.019,0.491
			c0.053,0.682-0.016,1.378-0.204,2.036c-0.256,0.893-0.729,1.808-1.604,2.026c0,0,1.269,1.212,5.073,1.121
			c0.271,0.157,0.556,0.296,0.849,0.414H5.214c-1.95,0-3.614,1.411-3.936,3.333l-1.225,7.343c-0.187,1.116,0.128,2.258,0.86,3.122
			c0.73,0.863,1.805,1.361,2.938,1.361H15.42c1.133,0,2.206-0.498,2.938-1.361c0.73-0.864,1.045-2.006,0.858-3.122L17.993,19.258z
			 M5.331,9.813c0-0.509,0.104-0.99,0.267-1.442h8.077c0.162,0.453,0.266,0.934,0.266,1.442c0,2.378-1.927,4.305-4.306,4.305
			C7.259,14.118,5.331,12.19,5.331,9.813z"/>
		<path d="M29.051,0.564h-9.365c-1.433,0-2.594,1.161-2.594,2.594v4.329c0,1.433,1.161,2.594,2.594,2.594h1.034l-2.034,3.379
			l5.938-3.379h4.428c1.434,0,2.595-1.161,2.595-2.594V3.158C31.644,1.726,30.483,0.564,29.051,0.564z"/>
	</g>
</g>
<g>
</g>
<g>
</g>
<g>
</g>
<g>
</g>
<g>
</g>
<g>
</g>
<g>
</g>
<g>
</g>
<g>
</g>
<g>
</g>
<g>
</g>
<g>
</g>
<g>
</g>
<g>
</g>
<g>
</g>
</svg>
