<?xml version="1.0" encoding="iso-8859-1"?>
<!-- Generator: Adobe Illustrator 16.0.0, SVG Export Plug-In . SVG Version: 6.00 Build 0)  -->
<!DOCTYPE svg PUBLIC "-//W3C//DTD SVG 1.1//EN" "http://www.w3.org/Graphics/SVG/1.1/DTD/svg11.dtd">
<svg version="1.1" id="Capa_1" xmlns="http://www.w3.org/2000/svg" xmlns:xlink="http://www.w3.org/1999/xlink" x="0px" y="0px"
	 width="32px" height="32px" viewBox="0 0 32 32" style="enable-background:new 0 0 32 32;" xml:space="preserve">
<g>
	<g>
		<path d="M24,32H8c-3.309,0-6-2.691-6-6V13c0-0.423,0.134-0.835,0.383-1.177l8-11C10.758,0.307,11.359,0,12,0
			s1.241,0.306,1.617,0.823l8.001,11C21.867,12.165,22,12.577,22,13v9c0,1.104-0.896,2-2,2H12c-1.104,0-2-0.896-2-2v-8h4v6H18v-6.35
			L12,5.4l-6,8.25V26c0,1.104,0.897,2,2,2H24c1.103,0,2-0.896,2-2V12h4v14C30,29.309,27.31,32,24,32z"/>
	</g>
</g>
<g>
</g>
<g>
</g>
<g>
</g>
<g>
</g>
<g>
</g>
<g>
</g>
<g>
</g>
<g>
</g>
<g>
</g>
<g>
</g>
<g>
</g>
<g>
</g>
<g>
</g>
<g>
</g>
<g>
</g>
</svg>
