<?xml version="1.0" encoding="iso-8859-1"?>
<!-- Generator: Adobe Illustrator 16.0.0, SVG Export Plug-In . SVG Version: 6.00 Build 0)  -->
<!DOCTYPE svg PUBLIC "-//W3C//DTD SVG 1.1//EN" "http://www.w3.org/Graphics/SVG/1.1/DTD/svg11.dtd">
<svg version="1.1" id="Capa_1" xmlns="http://www.w3.org/2000/svg" xmlns:xlink="http://www.w3.org/1999/xlink" x="0px" y="0px"
	 width="31.215px" height="31.215px" viewBox="0 0 31.215 31.215" style="enable-background:new 0 0 31.215 31.215;"
	 xml:space="preserve">
<g>
	<path d="M0,0v31.215h31.214V0H0z M12.542,15.607c0,0.18-0.025,0.352-0.053,0.524l7.542,4.611c0.546-0.4,1.217-0.646,1.947-0.646
		c1.826,0,3.308,1.48,3.308,3.307c0,1.827-1.481,3.309-3.308,3.309c-1.825,0-3.308-1.48-3.308-3.309
		c0-0.179,0.025-0.351,0.054-0.521l-7.542-4.613c-0.546,0.402-1.217,0.646-1.947,0.646c-1.826,0-3.308-1.481-3.308-3.308
		c0-1.826,1.481-3.307,3.308-3.307c0.73,0,1.401,0.246,1.947,0.647l7.542-4.612c-0.026-0.171-0.053-0.343-0.053-0.522
		c0-1.826,1.481-3.307,3.307-3.307c1.828,0,3.309,1.48,3.309,3.307c0,1.827-1.479,3.307-3.309,3.307c-0.729,0-1.4-0.245-1.946-0.647
		l-7.542,4.613C12.518,15.257,12.542,15.428,12.542,15.607z"/>
</g>
<g>
</g>
<g>
</g>
<g>
</g>
<g>
</g>
<g>
</g>
<g>
</g>
<g>
</g>
<g>
</g>
<g>
</g>
<g>
</g>
<g>
</g>
<g>
</g>
<g>
</g>
<g>
</g>
<g>
</g>
</svg>
