<?xml version="1.0" encoding="iso-8859-1"?>
<!-- Generator: Adobe Illustrator 16.0.0, SVG Export Plug-In . SVG Version: 6.00 Build 0)  -->
<!DOCTYPE svg PUBLIC "-//W3C//DTD SVG 1.1//EN" "http://www.w3.org/Graphics/SVG/1.1/DTD/svg11.dtd">
<svg version="1.1" id="Capa_1" xmlns="http://www.w3.org/2000/svg" xmlns:xlink="http://www.w3.org/1999/xlink" x="0px" y="0px"
	 width="31.443px" height="31.443px" viewBox="0 0 31.443 31.443" style="enable-background:new 0 0 31.443 31.443;"
	 xml:space="preserve">
<g>
	<g>
		<path d="M29.212,2.928H2.231v20.1h26.981V2.928z M26.184,19.996H5.26V5.958h20.923V19.996z"/>
		<polygon points="19.404,24.856 19.404,26.686 12.039,26.686 12.039,24.856 0,24.856 0,28.516 31.443,28.516 31.443,24.856 		"/>
		<path d="M16.518,15.754l2.293,2.293l1.965-1.965L18.48,13.79c0.668-1.467,0.404-3.258-0.801-4.462c-1.551-1.55-4.075-1.55-5.625,0
			c-1.551,1.55-1.551,4.073,0,5.623C13.261,16.158,15.052,16.422,16.518,15.754z M13.049,10.321c1.002-1.004,2.637-1.004,3.638,0
			c1.004,1.004,1.004,2.637,0,3.64c-1.001,1.003-2.636,1.002-3.638-0.001C12.045,12.958,12.045,11.325,13.049,10.321z"/>
	</g>
</g>
<g>
</g>
<g>
</g>
<g>
</g>
<g>
</g>
<g>
</g>
<g>
</g>
<g>
</g>
<g>
</g>
<g>
</g>
<g>
</g>
<g>
</g>
<g>
</g>
<g>
</g>
<g>
</g>
<g>
</g>
</svg>
