<?xml version="1.0" encoding="iso-8859-1"?>
<!-- Generator: Adobe Illustrator 16.0.0, SVG Export Plug-In . SVG Version: 6.00 Build 0)  -->
<!DOCTYPE svg PUBLIC "-//W3C//DTD SVG 1.1//EN" "http://www.w3.org/Graphics/SVG/1.1/DTD/svg11.dtd">
<svg version="1.1" id="Capa_1" xmlns="http://www.w3.org/2000/svg" xmlns:xlink="http://www.w3.org/1999/xlink" x="0px" y="0px"
	 width="69.514px" height="69.514px" viewBox="0 0 69.514 69.514" style="enable-background:new 0 0 69.514 69.514;"
	 xml:space="preserve">
<g>
	<path d="M69.514,63.309l-9.467-9.467c3.828-5.396,6.09-11.979,6.09-19.084c0-18.234-14.835-33.068-33.069-33.068S0,16.523,0,34.757
		C0,52.99,14.834,67.824,33.068,67.824c9.685,0,18.411-4.185,24.464-10.841l9.153,9.153L69.514,63.309z M33.068,63.823
		C17.04,63.823,4,50.784,4,34.757C4,18.729,17.04,5.689,33.068,5.689s29.069,13.04,29.069,29.068
		C62.137,50.784,49.096,63.823,33.068,63.823z M18.021,32.756h30.097v4H18.021V32.756z"/>
</g>
<g>
</g>
<g>
</g>
<g>
</g>
<g>
</g>
<g>
</g>
<g>
</g>
<g>
</g>
<g>
</g>
<g>
</g>
<g>
</g>
<g>
</g>
<g>
</g>
<g>
</g>
<g>
</g>
<g>
</g>
</svg>
