<?xml version="1.0" encoding="iso-8859-1"?>
<!-- Generator: Adobe Illustrator 16.0.0, SVG Export Plug-In . SVG Version: 6.00 Build 0)  -->
<!DOCTYPE svg PUBLIC "-//W3C//DTD SVG 1.1//EN" "http://www.w3.org/Graphics/SVG/1.1/DTD/svg11.dtd">
<svg version="1.1" id="Capa_1" xmlns="http://www.w3.org/2000/svg" xmlns:xlink="http://www.w3.org/1999/xlink" x="0px" y="0px"
	 width="61.59px" height="61.59px" viewBox="0 0 61.59 61.59" style="enable-background:new 0 0 61.59 61.59;" xml:space="preserve"
	>
<g>
	<g id="Forward">
		<g>
			<path d="M55.816,0H5.774C2.584,0,0,2.584,0,5.774v50.042c0,3.188,2.584,5.773,5.774,5.773h50.042
				c3.188,0,5.773-2.586,5.773-5.773V5.774C61.59,2.584,59.003,0,55.816,0z M51.966,50.042c0,1.062-0.86,1.925-1.924,1.925H11.548
				c-1.064,0-1.925-0.863-1.925-1.925V34.457h17.151v9.625l19.597-13.473L26.774,17.138v9.621l-17.15,0.002V11.548
				c0-1.064,0.861-1.925,1.925-1.925h38.494c1.062,0,1.924,0.861,1.924,1.925L51.966,50.042L51.966,50.042z"/>
		</g>
	</g>
</g>
<g>
</g>
<g>
</g>
<g>
</g>
<g>
</g>
<g>
</g>
<g>
</g>
<g>
</g>
<g>
</g>
<g>
</g>
<g>
</g>
<g>
</g>
<g>
</g>
<g>
</g>
<g>
</g>
<g>
</g>
</svg>
