<?xml version="1.0" encoding="iso-8859-1"?>
<!-- Generator: Adobe Illustrator 16.0.0, SVG Export Plug-In . SVG Version: 6.00 Build 0)  -->
<!DOCTYPE svg PUBLIC "-//W3C//DTD SVG 1.1//EN" "http://www.w3.org/Graphics/SVG/1.1/DTD/svg11.dtd">
<svg version="1.1" id="Capa_1" xmlns="http://www.w3.org/2000/svg" xmlns:xlink="http://www.w3.org/1999/xlink" x="0px" y="0px"
	 width="61.591px" height="61.591px" viewBox="0 0 61.591 61.591" style="enable-background:new 0 0 61.591 61.591;"
	 xml:space="preserve">
<g>
	<g id="Briefcase">
		<g>
			<path d="M55.815,9.646H40.419V0H21.173v9.646H5.775c-3.188,0-5.774,2.584-5.774,5.771V55.82c0,3.188,2.586,5.771,5.774,5.771
				h50.041c3.189,0,5.774-2.583,5.774-5.771V15.417C61.591,12.23,59.006,9.646,55.815,9.646z M25.022,3.848h11.549V9.55H25.022
				V3.848z M11.549,19.264h38.494c1.063,0,1.925,0.863,1.925,1.925v5.77H9.624v-5.77C9.624,20.126,10.487,19.264,11.549,19.264z
				 M50.043,51.97H11.549c-1.062,0-1.925-0.858-1.925-1.923V30.806h15.397v3.85h11.548v-3.85h15.397v19.241
				C51.968,51.111,51.106,51.97,50.043,51.97z"/>
		</g>
	</g>
</g>
<g>
</g>
<g>
</g>
<g>
</g>
<g>
</g>
<g>
</g>
<g>
</g>
<g>
</g>
<g>
</g>
<g>
</g>
<g>
</g>
<g>
</g>
<g>
</g>
<g>
</g>
<g>
</g>
<g>
</g>
</svg>
