<?xml version="1.0" encoding="iso-8859-1"?>
<!-- Generator: Adobe Illustrator 16.0.0, SVG Export Plug-In . SVG Version: 6.00 Build 0)  -->
<!DOCTYPE svg PUBLIC "-//W3C//DTD SVG 1.1//EN" "http://www.w3.org/Graphics/SVG/1.1/DTD/svg11.dtd">
<svg version="1.1" id="Capa_1" xmlns="http://www.w3.org/2000/svg" xmlns:xlink="http://www.w3.org/1999/xlink" x="0px" y="0px"
	 width="73.17px" height="73.169px" viewBox="0 0 73.17 73.169" style="enable-background:new 0 0 73.17 73.169;"
	 xml:space="preserve">
<g>
	<g id="AirPlay">
		<g>
			<path d="M61.463,5.777H11.708C5.25,5.777,0,10.862,0,17.12v33.071c0,6.251,5.25,11.336,11.708,11.336
				c2.154,0,3.899-1.693,3.899-3.775c0-2.092-1.745-3.783-3.899-3.783c-2.155,0-3.9-1.692-3.9-3.776V17.12
				c0-2.084,1.745-3.783,3.9-3.783h49.755c2.15,0,3.903,1.699,3.903,3.783v33.071c0,2.084-1.753,3.775-3.903,3.775
				c-2.154,0-3.904,1.692-3.904,3.783c0,2.084,1.75,3.776,3.904,3.776c6.457,0,11.707-5.085,11.707-11.336V17.12
				C73.17,10.862,67.92,5.777,61.463,5.777z M40.105,23.784c-0.728-0.843-1.795-1.331-2.922-1.347
				c-1.1-0.061-2.217,0.437-2.969,1.256L17.413,41.828c-1.046,1.129-1.294,2.745-0.636,4.114c0.658,1.376,2.102,2.278,3.655,2.188
				l4.735-0.136v15.622c0,2.084,1.748,3.776,3.903,3.776h15.073c1.034,0,2.026-0.398,2.76-1.105c0.73-0.706,1.145-1.67,1.145-2.671
				l-0.004-15.621l4.693,0.135c1.505,0.062,2.959-0.789,3.63-2.136c0.669-1.339,0.466-2.934-0.523-4.077L40.105,23.784z"/>
		</g>
	</g>
</g>
<g>
</g>
<g>
</g>
<g>
</g>
<g>
</g>
<g>
</g>
<g>
</g>
<g>
</g>
<g>
</g>
<g>
</g>
<g>
</g>
<g>
</g>
<g>
</g>
<g>
</g>
<g>
</g>
<g>
</g>
</svg>
