<?xml version="1.0" encoding="iso-8859-1"?>
<!-- Generator: Adobe Illustrator 16.0.0, SVG Export Plug-In . SVG Version: 6.00 Build 0)  -->
<!DOCTYPE svg PUBLIC "-//W3C//DTD SVG 1.1//EN" "http://www.w3.org/Graphics/SVG/1.1/DTD/svg11.dtd">
<svg version="1.1" id="Capa_1" xmlns="http://www.w3.org/2000/svg" xmlns:xlink="http://www.w3.org/1999/xlink" x="0px" y="0px"
	 width="31.105px" height="31.105px" viewBox="0 0 31.105 31.105" style="enable-background:new 0 0 31.105 31.105;"
	 xml:space="preserve">
<g>
	<g>
		<rect y="2.974" width="2.009" height="2.043"/>
		<rect y="7.193" width="2.009" height="2.042"/>
		<rect y="11.41" width="2.009" height="2.043"/>
		<rect y="15.627" width="2.009" height="2.042"/>
		<rect y="19.846" width="2.009" height="2.043"/>
		<polygon points="6.41,24.638 6.41,0.104 3.346,0.104 3.346,27.701 31.105,27.701 31.105,24.638 		"/>
		<rect x="26.191" y="28.986" width="2.043" height="2.016"/>
		<rect x="21.974" y="28.986" width="2.043" height="2.016"/>
		<rect x="17.757" y="28.986" width="2.042" height="2.016"/>
		<rect x="13.539" y="28.986" width="2.043" height="2.016"/>
		<rect x="9.321" y="28.986" width="2.042" height="2.016"/>
		<polygon points="16.826,12.184 20.906,18.306 24.49,15.152 28.333,23.634 30.193,22.789 25.213,11.797 21.311,15.229 
			17.352,9.291 14.064,11.658 9.001,3.211 7.249,4.262 13.454,14.614 		"/>
	</g>
</g>
<g>
</g>
<g>
</g>
<g>
</g>
<g>
</g>
<g>
</g>
<g>
</g>
<g>
</g>
<g>
</g>
<g>
</g>
<g>
</g>
<g>
</g>
<g>
</g>
<g>
</g>
<g>
</g>
<g>
</g>
</svg>
