<?xml version="1.0" encoding="iso-8859-1"?>
<!-- Generator: Adobe Illustrator 16.0.0, SVG Export Plug-In . SVG Version: 6.00 Build 0)  -->
<!DOCTYPE svg PUBLIC "-//W3C//DTD SVG 1.1//EN" "http://www.w3.org/Graphics/SVG/1.1/DTD/svg11.dtd">
<svg version="1.1" id="Capa_1" xmlns="http://www.w3.org/2000/svg" xmlns:xlink="http://www.w3.org/1999/xlink" x="0px" y="0px"
	 width="32px" height="32px" viewBox="0 0 32 32" style="enable-background:new 0 0 32 32;" xml:space="preserve">
<g>
	<g>
		<polygon points="10.375,18.807 3.84,25.341 0.011,21.514 0.011,32 10.497,32 6.669,28.17 13.204,21.636 		"/>
		<polygon points="21.627,13.191 28.161,6.657 31.991,10.485 31.991,0 21.506,0 25.333,3.829 18.799,10.363 		"/>
		<polygon points="10.373,13.192 13.202,10.364 6.666,3.829 10.495,0 0.009,0 0.009,10.486 3.838,6.657 		"/>
		<polygon points="28.163,25.342 21.627,18.807 18.799,21.635 25.334,28.171 21.506,32 31.991,32 31.991,21.514 		"/>
	</g>
</g>
<g>
</g>
<g>
</g>
<g>
</g>
<g>
</g>
<g>
</g>
<g>
</g>
<g>
</g>
<g>
</g>
<g>
</g>
<g>
</g>
<g>
</g>
<g>
</g>
<g>
</g>
<g>
</g>
<g>
</g>
</svg>
