<?xml version="1.0" encoding="iso-8859-1"?>
<!-- Generator: Adobe Illustrator 16.0.0, SVG Export Plug-In . SVG Version: 6.00 Build 0)  -->
<!DOCTYPE svg PUBLIC "-//W3C//DTD SVG 1.1//EN" "http://www.w3.org/Graphics/SVG/1.1/DTD/svg11.dtd">
<svg version="1.1" id="Capa_1" xmlns="http://www.w3.org/2000/svg" xmlns:xlink="http://www.w3.org/1999/xlink" x="0px" y="0px"
	 width="45.6px" height="45.6px" viewBox="0 0 45.6 45.6" style="enable-background:new 0 0 45.6 45.6;" xml:space="preserve">
<g>
	<path d="M45.6,22.8C45.6,10.229,35.37,0,22.8,0C10.228,0,0,10.229,0,22.8c0,12.572,10.228,22.8,22.8,22.8
		c12.566,0,22.792-10.221,22.8-22.787C45.6,22.808,45.6,22.804,45.6,22.8z M22.8,41.454c-10.286,0-18.653-8.367-18.653-18.654
		c0-9.585,7.269-17.497,16.581-18.532V22.8c0,1.144,0.926,2.072,2.072,2.072h18.531C40.296,34.188,32.385,41.454,22.8,41.454z"/>
</g>
<g>
</g>
<g>
</g>
<g>
</g>
<g>
</g>
<g>
</g>
<g>
</g>
<g>
</g>
<g>
</g>
<g>
</g>
<g>
</g>
<g>
</g>
<g>
</g>
<g>
</g>
<g>
</g>
<g>
</g>
</svg>
