<?xml version="1.0" encoding="iso-8859-1"?>
<!-- Generator: Adobe Illustrator 16.0.0, SVG Export Plug-In . SVG Version: 6.00 Build 0)  -->
<!DOCTYPE svg PUBLIC "-//W3C//DTD SVG 1.1//EN" "http://www.w3.org/Graphics/SVG/1.1/DTD/svg11.dtd">
<svg version="1.1" id="Capa_1" xmlns="http://www.w3.org/2000/svg" xmlns:xlink="http://www.w3.org/1999/xlink" x="0px" y="0px"
	 width="32px" height="32px" viewBox="0 0 32 32" style="enable-background:new 0 0 32 32;" xml:space="preserve">
<g>
	<g>
		<path d="M30,13.998h-2.18c-0.307-1.821-1.019-3.501-2.047-4.946l1.539-1.538c0.778-0.78,0.778-2.047,0-2.828
			c-0.781-0.781-2.049-0.781-2.83,0l-1.537,1.538c-1.445-1.029-3.125-1.74-4.946-2.046V2c0-1.104-0.896-2-2-2c-1.104,0-2,0.896-2,2
			v2.178c-1.821,0.307-3.501,1.018-4.945,2.046l-1.54-1.54c-0.78-0.78-2.047-0.78-2.828,0c-0.781,0.781-0.781,2.048,0,2.829
			l1.539,1.539C5.197,10.498,4.485,12.178,4.179,14H2c-1.104,0-2,0.896-2,2c0,1.104,0.896,2,2,2h2.179
			c0.306,1.82,1.018,3.502,2.047,4.945l-1.54,1.541c-0.78,0.779-0.78,2.047,0,2.828c0.781,0.78,2.048,0.78,2.829,0l1.54-1.541
			c1.444,1.028,3.125,1.74,4.946,2.047V30c0,1.104,0.896,2,2,2c1.104,0,2-0.896,2-2v-2.18c1.821-0.307,3.502-1.02,4.946-2.047
			l1.539,1.537c0.779,0.779,2.047,0.779,2.828,0c0.781-0.781,0.781-2.047,0-2.828l-1.539-1.539c1.027-1.444,1.738-3.125,2.045-4.945
			H30c1.104,0,2-0.896,2-2C32,14.894,31.104,13.998,30,13.998z M16.001,23.999c-4.419,0-8-3.582-8-8s3.581-8,8-8
			c4.418,0,8,3.582,8,8S20.419,23.999,16.001,23.999z"/>
		<circle cx="15.999" cy="16" r="3"/>
	</g>
</g>
<g>
</g>
<g>
</g>
<g>
</g>
<g>
</g>
<g>
</g>
<g>
</g>
<g>
</g>
<g>
</g>
<g>
</g>
<g>
</g>
<g>
</g>
<g>
</g>
<g>
</g>
<g>
</g>
<g>
</g>
</svg>
