<?xml version="1.0" encoding="iso-8859-1"?>
<!-- Generator: Adobe Illustrator 16.0.0, SVG Export Plug-In . SVG Version: 6.00 Build 0)  -->
<!DOCTYPE svg PUBLIC "-//W3C//DTD SVG 1.1//EN" "http://www.w3.org/Graphics/SVG/1.1/DTD/svg11.dtd">
<svg version="1.1" id="Capa_1" xmlns="http://www.w3.org/2000/svg" xmlns:xlink="http://www.w3.org/1999/xlink" x="0px" y="0px"
	 width="107.734px" height="107.733px" viewBox="0 0 107.734 107.733" style="enable-background:new 0 0 107.734 107.733;"
	 xml:space="preserve">
<g>
	<g id="Cloud__x2B__Moon__x2B__Rain">
		<g>
			<path d="M102.662,25.818c0-0.125-0.008-0.246-0.015-0.32c0-1.154-0.72-2.183-1.796-2.568c-1.078-0.387-2.277-0.051-3.002,0.848
				c-2.762,3.416-6.846,5.377-11.201,5.377c-7.969,0-14.448-6.541-14.448-14.576c0-3.717,1.399-7.264,3.94-9.982
				c0.779-0.832,0.957-2.071,0.445-3.095s-1.604-1.63-2.727-1.479c-13.594,1.614-22.728,11.249-22.728,23.98
				c0,0.169,0.02,0.334,0.049,0.495c-6.053,0.557-11.535,3.85-14.902,8.899c-2.127-1.269-4.56-1.946-7.085-1.946
				c-7.699,0-13.964,6.32-13.964,14.09c0,0.602,0.04,1.204,0.113,1.801c-6.157,2.568-10.27,8.633-10.27,15.554
				c0,9.159,7.175,16.066,16.693,16.066h45.224c9.205,0,16.69-7.555,16.69-16.839c0-4.012-1.447-7.779-3.871-10.733
				C92.429,49.145,102.662,38.162,102.662,25.818z M66.989,73.51H21.765c-6.436,0-11.291-4.563-11.291-10.613
				c0-5.302,3.564-9.855,8.668-11.08c0.74-0.181,1.369-0.662,1.738-1.329c0.369-0.673,0.439-1.47,0.196-2.197
				c-0.293-0.878-0.441-1.806-0.441-2.749c0-4.765,3.84-8.637,8.56-8.637c2.265,0,4.404,0.883,6.021,2.497
				c0.627,0.622,1.52,0.903,2.39,0.737c0.868-0.16,1.603-0.742,1.969-1.555c2.382-5.302,7.654-8.728,13.428-8.728
				c8.125,0,14.736,6.666,14.736,14.862c0,0.742-0.208,2.362-0.338,3.21c-0.222,1.42,0.687,2.769,2.077,3.08
				c5.099,1.158,8.801,5.828,8.801,11.115C78.278,68.404,73.214,73.51,66.989,73.51z M75.097,46.363
				c-0.492,0-0.946,0.143-1.344,0.375c-0.238-0.106-0.473-0.219-0.716-0.314c0.06-0.597,0.103-1.209,0.103-1.705
				c0-10.021-7.237-18.351-16.715-19.998c0.062-0.23,0.107-0.468,0.107-0.718c0-7.785,4.523-14.085,11.74-17.005
				c-0.969,2.383-1.477,4.951-1.477,7.58c0,11.04,8.905,20.028,19.853,20.028c3.344,0,6.563-0.838,9.42-2.397
				C93.022,40.244,84.523,46.363,75.097,46.363z M19.515,97.812c0,2.824,2.27,5.116,5.071,5.116c2.804,0,5.076-2.292,5.076-5.116
				c0,0-0.195-5.187-5.076-10.111C19.708,92.626,19.515,97.812,19.515,97.812z M58.685,97.812c0,2.824,2.271,5.121,5.074,5.121
				c2.804,0,5.076-2.297,5.076-5.121c0,0-0.197-5.187-5.076-10.106C58.88,92.626,58.685,97.812,58.685,97.812z M39.1,102.613
				c0,2.827,2.272,5.12,5.071,5.12c2.804,0,5.076-2.293,5.076-5.12c0,0-0.195-5.183-5.076-10.107
				C39.293,97.432,39.1,102.613,39.1,102.613z"/>
		</g>
	</g>
</g>
<g>
</g>
<g>
</g>
<g>
</g>
<g>
</g>
<g>
</g>
<g>
</g>
<g>
</g>
<g>
</g>
<g>
</g>
<g>
</g>
<g>
</g>
<g>
</g>
<g>
</g>
<g>
</g>
<g>
</g>
</svg>
