<?xml version="1.0" encoding="iso-8859-1"?>
<!-- Generator: Adobe Illustrator 16.0.0, SVG Export Plug-In . SVG Version: 6.00 Build 0)  -->
<!DOCTYPE svg PUBLIC "-//W3C//DTD SVG 1.1//EN" "http://www.w3.org/Graphics/SVG/1.1/DTD/svg11.dtd">
<svg version="1.1" id="Capa_1" xmlns="http://www.w3.org/2000/svg" xmlns:xlink="http://www.w3.org/1999/xlink" x="0px" y="0px"
	 width="73.168px" height="73.169px" viewBox="0 0 73.168 73.169" style="enable-background:new 0 0 73.168 73.169;"
	 xml:space="preserve">
<g>
	<g id="Document">
		<g>
			<path d="M62.135,18.436L45.854,1.467C44.956,0.526,43.733,0,42.462,0H21.665C15.027,0,9.627,5.634,9.627,12.546v48.078
				c0,6.919,5.4,12.545,12.037,12.545h29.842c6.639,0,12.035-5.626,12.035-12.545V21.979C63.542,20.646,63.034,19.376,62.135,18.436
				z M53.936,60.624c0,1.397-1.09,2.534-2.43,2.534H21.665c-1.338,0-2.433-1.137-2.433-2.534V12.546
				c0-1.392,1.095-2.534,2.433-2.534h18.809l13.463,14.042V60.624z M24.779,34.704c0,2.769,2.15,5.01,4.802,5.01h14.005
				c2.65,0,4.803-2.241,4.803-5.01c0-2.76-2.15-5.001-4.803-5.001H29.582C26.931,29.703,24.779,31.944,24.779,34.704z
				 M43.586,45.973H29.582c-2.651,0-4.802,2.24-4.802,5.01c0,2.76,2.15,5,4.802,5h14.005c2.65,0,4.803-2.24,4.803-5
				C48.389,48.213,46.237,45.973,43.586,45.973z"/>
		</g>
	</g>
</g>
<g>
</g>
<g>
</g>
<g>
</g>
<g>
</g>
<g>
</g>
<g>
</g>
<g>
</g>
<g>
</g>
<g>
</g>
<g>
</g>
<g>
</g>
<g>
</g>
<g>
</g>
<g>
</g>
<g>
</g>
</svg>
