<?xml version="1.0" encoding="iso-8859-1"?>
<!-- Generator: Adobe Illustrator 16.0.0, SVG Export Plug-In . SVG Version: 6.00 Build 0)  -->
<!DOCTYPE svg PUBLIC "-//W3C//DTD SVG 1.1//EN" "http://www.w3.org/Graphics/SVG/1.1/DTD/svg11.dtd">
<svg version="1.1" id="Capa_1" xmlns="http://www.w3.org/2000/svg" xmlns:xlink="http://www.w3.org/1999/xlink" x="0px" y="0px"
	 width="87.605px" height="87.605px" viewBox="0 0 87.605 87.605" style="enable-background:new 0 0 87.605 87.605;"
	 xml:space="preserve">
<g>
	<g id="Wine_Glass">
		<g>
			<path d="M59.931,80.04H47.71V56.166h1.631c0.39,0,0.776-0.055,1.15-0.166c15.682-4.668,19.316-17.65,19.053-23.704V3.786
				C69.544,1.695,67.793,0,65.633,0H21.968c-2.16,0-3.911,1.695-3.911,3.786l0.005,28.355C17.792,38.35,21.428,51.332,37.108,56
				c0.375,0.111,0.763,0.166,1.15,0.166h1.633V80.04H27.67c-2.157,0-3.908,1.694-3.908,3.786c0,2.091,1.751,3.779,3.908,3.779h32.26
				c2.157,0,3.908-1.688,3.908-3.779C63.839,81.734,62.088,80.04,59.931,80.04z M61.727,32.431
				c0.014,0.491,0.19,11.939-12.993,16.168h-9.865C25.685,44.37,25.86,32.917,25.876,32.296v-10.87h35.849L61.727,32.431z
				 M61.724,7.566l0.001,10.079H25.876V7.566H61.724z"/>
		</g>
	</g>
</g>
<g>
</g>
<g>
</g>
<g>
</g>
<g>
</g>
<g>
</g>
<g>
</g>
<g>
</g>
<g>
</g>
<g>
</g>
<g>
</g>
<g>
</g>
<g>
</g>
<g>
</g>
<g>
</g>
<g>
</g>
</svg>
