<?xml version="1.0" encoding="iso-8859-1"?>
<!-- Generator: Adobe Illustrator 16.0.0, SVG Export Plug-In . SVG Version: 6.00 Build 0)  -->
<!DOCTYPE svg PUBLIC "-//W3C//DTD SVG 1.1//EN" "http://www.w3.org/Graphics/SVG/1.1/DTD/svg11.dtd">
<svg version="1.1" id="Capa_1" xmlns="http://www.w3.org/2000/svg" xmlns:xlink="http://www.w3.org/1999/xlink" x="0px" y="0px"
	 width="31.059px" height="31.059px" viewBox="0 0 31.059 31.059" style="enable-background:new 0 0 31.059 31.059;"
	 xml:space="preserve">
<g>
	<g>
		<path d="M30.299,13.299l0.454-10.094l-3.209,2.152C24.638,1.992,20.413,0,15.836,0C7.273,0,0.306,6.965,0.306,15.528
			s6.967,15.53,15.53,15.53c3.057,0,5.946-0.902,8.396-2.479c-0.772-1.196-1.552-2.431-2.392-3.597
			c-1.763,1.123-3.836,1.757-6.003,1.757c-6.183,0-11.211-5.029-11.211-11.212c0-6.181,5.029-11.21,11.211-11.21
			c3.064,0,5.973,1.281,8.074,3.476l-3.125,2.095L30.299,13.299z"/>
		<polygon points="14.55,8.085 14.55,14.118 11.829,14.118 11.829,17.178 17.608,17.178 17.608,8.085 		"/>
	</g>
</g>
<g>
</g>
<g>
</g>
<g>
</g>
<g>
</g>
<g>
</g>
<g>
</g>
<g>
</g>
<g>
</g>
<g>
</g>
<g>
</g>
<g>
</g>
<g>
</g>
<g>
</g>
<g>
</g>
<g>
</g>
</svg>
