<?xml version="1.0" encoding="iso-8859-1"?>
<!-- Generator: Adobe Illustrator 16.0.0, SVG Export Plug-In . SVG Version: 6.00 Build 0)  -->
<!DOCTYPE svg PUBLIC "-//W3C//DTD SVG 1.1//EN" "http://www.w3.org/Graphics/SVG/1.1/DTD/svg11.dtd">
<svg version="1.1" id="Capa_1" xmlns="http://www.w3.org/2000/svg" xmlns:xlink="http://www.w3.org/1999/xlink" x="0px" y="0px"
	 width="87.607px" height="87.608px" viewBox="0 0 87.607 87.608" style="enable-background:new 0 0 87.607 87.608;"
	 xml:space="preserve">
<g>
	<g id="Printer">
		<g>
			<path d="M84.043,23.672H65.166l-1.702-20.65c-0.073-0.936-0.847-1.653-1.774-1.653H27.246c-0.928,0-1.7,0.717-1.775,1.652
				l-1.704,20.65H3.563C1.596,23.672,0,25.288,0,27.277v40.312c0,1.989,1.596,3.604,3.563,3.604h12.804
				c0.311,0,0.606-0.054,0.894-0.13L14.795,84.1c-0.099,0.528,0.038,1.074,0.377,1.485c0.34,0.417,0.843,0.652,1.374,0.652h54.515
				c0.531,0,1.035-0.235,1.375-0.652c0.338-0.411,0.476-0.957,0.377-1.485l-2.467-13.037c0.287,0.076,0.584,0.129,0.895,0.129
				h12.804c1.968,0,3.563-1.614,3.563-3.604V27.277C87.605,25.288,86.012,23.672,84.043,23.672z M28.885,4.974H60.05l1.544,18.698
				h-34.25L28.885,4.974z M18.701,82.635l5.211-27.543h39.785l5.207,27.543H18.701z M19.683,58.26
				c-1.289-0.012-1.355-0.4-1.355-1.205c0-1.086,0.874-1.963,1.943-1.963h0.012L19.683,58.26z M67.324,55.092h0.012
				c1.071,0,1.943,0.877,1.943,1.963c0,1.217-0.416,1.852-1.225,1.898L67.324,55.092z M80.479,63.985H71.24
				c-0.789,0-1.51,0.267-2.1,0.703l-0.416-2.197c2.455-0.371,4.118-2.49,4.118-5.438c0-3.068-2.473-5.564-5.507-5.564H20.271
				c-3.037,0-5.508,2.496-5.508,5.564c0,2.77,1.581,4.49,4.248,4.758l-0.544,2.879c-0.591-0.438-1.312-0.705-2.1-0.705H7.128V30.88
				h73.351V63.985z M23.928,43.078H63.68c0.982,0,1.779-0.808,1.779-1.802c0-0.995-0.797-1.803-1.779-1.803H23.928
				c-0.983,0-1.78,0.808-1.78,1.803C22.147,42.27,22.944,43.078,23.928,43.078z"/>
		</g>
	</g>
</g>
<g>
</g>
<g>
</g>
<g>
</g>
<g>
</g>
<g>
</g>
<g>
</g>
<g>
</g>
<g>
</g>
<g>
</g>
<g>
</g>
<g>
</g>
<g>
</g>
<g>
</g>
<g>
</g>
<g>
</g>
</svg>
