<?xml version="1.0" encoding="iso-8859-1"?>
<!-- Generator: Adobe Illustrator 16.0.0, SVG Export Plug-In . SVG Version: 6.00 Build 0)  -->
<!DOCTYPE svg PUBLIC "-//W3C//DTD SVG 1.1//EN" "http://www.w3.org/Graphics/SVG/1.1/DTD/svg11.dtd">
<svg version="1.1" id="Capa_1" xmlns="http://www.w3.org/2000/svg" xmlns:xlink="http://www.w3.org/1999/xlink" x="0px" y="0px"
	 width="87.605px" height="87.605px" viewBox="0 0 87.605 87.605" style="enable-background:new 0 0 87.605 87.605;"
	 xml:space="preserve">
<g>
	<g id="Wallet">
		<g>
			<path d="M76.513,67.919c-1.953,0-3.537,1.614-3.537,3.608v8.859H8.439V24.313h64.537v7.202c0,1.995,1.582,3.609,3.537,3.609
				c1.951,0,3.535-1.614,3.535-3.609V20.698c0-1.988-1.584-3.609-3.535-3.609h-6.435c0.011-0.074,0.022-0.147,0.022-0.225V1.808
				c0-1-0.789-1.808-1.768-1.808H23.249c-0.979,0-1.767,0.808-1.767,1.808v5.641h-9.946c-0.979,0-1.77,0.808-1.77,1.803v7.838h-4.86
				c-1.955-0.001-3.537,1.62-3.537,3.608v63.299c0,1.994,1.582,3.608,3.537,3.608h71.607c1.951,0,3.535-1.614,3.535-3.608v-12.47
				C80.048,69.533,78.466,67.919,76.513,67.919z M25.016,3.609h41.552v13.255c0,0.077,0.013,0.15,0.021,0.225H58.39V9.251
				c0-0.995-0.793-1.803-1.769-1.803H25.016V3.609z M13.304,11.058h41.549v6.031H13.304V11.058z M82.7,39.445H37.625
				c-6.848,0-12.419,5.689-12.419,12.678c0,6.988,5.571,12.679,12.419,12.679H82.7c1.955,0,3.537-1.62,3.537-3.608V43.06
				C86.237,41.065,84.655,39.445,82.7,39.445z M79.166,57.577H37.625c-2.949,0-5.345-2.443-5.345-5.454
				c0-3.005,2.396-5.454,5.345-5.454h41.541V57.577z M35.465,52.123c0,1.369,1.085,2.48,2.43,2.48c1.342,0,2.431-1.111,2.431-2.48
				c0-1.368-1.089-2.48-2.431-2.48C36.55,49.643,35.465,50.755,35.465,52.123z"/>
		</g>
	</g>
</g>
<g>
</g>
<g>
</g>
<g>
</g>
<g>
</g>
<g>
</g>
<g>
</g>
<g>
</g>
<g>
</g>
<g>
</g>
<g>
</g>
<g>
</g>
<g>
</g>
<g>
</g>
<g>
</g>
<g>
</g>
</svg>
