<?xml version="1.0" encoding="iso-8859-1"?>
<!-- Generator: Adobe Illustrator 16.0.0, SVG Export Plug-In . SVG Version: 6.00 Build 0)  -->
<!DOCTYPE svg PUBLIC "-//W3C//DTD SVG 1.1//EN" "http://www.w3.org/Graphics/SVG/1.1/DTD/svg11.dtd">
<svg version="1.1" id="Capa_1" xmlns="http://www.w3.org/2000/svg" xmlns:xlink="http://www.w3.org/1999/xlink" x="0px" y="0px"
	 width="66.135px" height="66.135px" viewBox="0 0 66.135 66.135" style="enable-background:new 0 0 66.135 66.135;"
	 xml:space="preserve">
<g>
	<g>
		<path d="M33.066,66.135C14.833,66.135,0,51.301,0,33.068C0,14.834,14.833,0,33.066,0s33.068,14.834,33.068,33.068
			C66.135,51.301,51.3,66.135,33.066,66.135z M33.066,4C17.04,4,4,17.04,4,33.068C4,49.095,17.04,62.134,33.066,62.134
			c16.028,0,29.068-13.039,29.068-29.066C62.135,17.04,49.096,4,33.066,4z"/>
		<rect x="23.464" y="21.28" width="4" height="25.56"/>
		<g>
			<path d="M46.714,34.061c-5.5-3.067-11,3.066-16.5,0c0-4.261,0-8.521,0-12.779c5.5,3.067,11-3.067,16.5,0
				C46.714,25.54,46.714,29.8,46.714,34.061z"/>
		</g>
	</g>
</g>
<g>
</g>
<g>
</g>
<g>
</g>
<g>
</g>
<g>
</g>
<g>
</g>
<g>
</g>
<g>
</g>
<g>
</g>
<g>
</g>
<g>
</g>
<g>
</g>
<g>
</g>
<g>
</g>
<g>
</g>
</svg>
