<?xml version="1.0" encoding="iso-8859-1"?>
<!-- Generator: Adobe Illustrator 16.0.0, SVG Export Plug-In . SVG Version: 6.00 Build 0)  -->
<!DOCTYPE svg PUBLIC "-//W3C//DTD SVG 1.1//EN" "http://www.w3.org/Graphics/SVG/1.1/DTD/svg11.dtd">
<svg version="1.1" id="Capa_1" xmlns="http://www.w3.org/2000/svg" xmlns:xlink="http://www.w3.org/1999/xlink" x="0px" y="0px"
	 width="73.169px" height="73.169px" viewBox="0 0 73.169 73.169" style="enable-background:new 0 0 73.169 73.169;"
	 xml:space="preserve">
<g>
	<g id="Zoom_Out">
		<g>
			<path d="M68.912,5.776H47.994c-2.35,0-4.258,1.911-4.258,4.258c0,2.347,1.908,4.257,4.258,4.257h20.918
				c2.35,0,4.257-1.91,4.257-4.257C73.169,7.688,71.262,5.776,68.912,5.776z M42.148,49.251c2.455-3.662,3.891-8.062,3.891-12.793
				c0-12.696-10.323-23.016-23.02-23.016C10.327,13.441,0,23.76,0,36.458C0,49.154,10.327,59.48,23.02,59.48
				c4.896,0,9.436-1.541,13.17-4.156l10.82,10.82c0.83,0.834,1.918,1.248,3.008,1.248c1.092,0,2.178-0.414,3.01-1.241
				c1.662-1.662,1.662-4.361,0-6.023L42.148,49.251z M23.02,50.966c-7.999,0-14.509-6.506-14.509-14.509s6.51-14.509,14.509-14.509
				s14.509,6.506,14.509,14.509S31.019,50.966,23.02,50.966z"/>
		</g>
	</g>
</g>
<g>
</g>
<g>
</g>
<g>
</g>
<g>
</g>
<g>
</g>
<g>
</g>
<g>
</g>
<g>
</g>
<g>
</g>
<g>
</g>
<g>
</g>
<g>
</g>
<g>
</g>
<g>
</g>
<g>
</g>
</svg>
