<?xml version="1.0" encoding="iso-8859-1"?>
<!-- Generator: Adobe Illustrator 16.0.0, SVG Export Plug-In . SVG Version: 6.00 Build 0)  -->
<!DOCTYPE svg PUBLIC "-//W3C//DTD SVG 1.1//EN" "http://www.w3.org/Graphics/SVG/1.1/DTD/svg11.dtd">
<svg version="1.1" id="Capa_1" xmlns="http://www.w3.org/2000/svg" xmlns:xlink="http://www.w3.org/1999/xlink" x="0px" y="0px"
	 width="72.772px" height="72.773px" viewBox="0 0 72.772 72.773" style="enable-background:new 0 0 72.772 72.773;"
	 xml:space="preserve">
<g>
	<g id="Refresh">
		<g>
			<path d="M65.589,37.107c-1.947,0-3.531,1.549-3.531,3.467c0,13.93-11.516,25.257-25.67,25.257S10.715,54.503,10.715,40.574
				c0-13.922,11.516-25.249,25.671-25.249c0.733,0,1.414-0.219,1.978-0.594v0.966l-2.271,1.876c-1.492,1.234-1.685,3.423-0.432,4.89
				c0.699,0.819,1.699,1.241,2.707,1.241c0.801,0,1.605-0.264,2.268-0.812l9.81-8.101c0.782-0.654,1.24-1.603,1.256-2.61
				c0.021-1-0.409-1.963-1.17-2.64l-9.808-8.65c-1.452-1.286-3.687-1.165-4.987,0.264c-1.301,1.429-1.18,3.625,0.271,4.904
				l2.357,2.081v0.837C37.8,8.602,37.12,8.383,36.386,8.383c-18.047,0-32.733,14.44-32.733,32.191
				c0,17.759,14.686,32.199,32.733,32.199c18.052,0,32.733-14.44,32.733-32.199C69.12,38.656,67.54,37.107,65.589,37.107z"/>
		</g>
	</g>
</g>
<g>
</g>
<g>
</g>
<g>
</g>
<g>
</g>
<g>
</g>
<g>
</g>
<g>
</g>
<g>
</g>
<g>
</g>
<g>
</g>
<g>
</g>
<g>
</g>
<g>
</g>
<g>
</g>
<g>
</g>
</svg>
