<?xml version="1.0" encoding="iso-8859-1"?>
<!-- Generator: Adobe Illustrator 16.0.0, SVG Export Plug-In . SVG Version: 6.00 Build 0)  -->
<!DOCTYPE svg PUBLIC "-//W3C//DTD SVG 1.1//EN" "http://www.w3.org/Graphics/SVG/1.1/DTD/svg11.dtd">
<svg version="1.1" id="Capa_1" xmlns="http://www.w3.org/2000/svg" xmlns:xlink="http://www.w3.org/1999/xlink" x="0px" y="0px"
	 width="66.135px" height="66.135px" viewBox="0 0 66.135 66.135" style="enable-background:new 0 0 66.135 66.135;"
	 xml:space="preserve">
<g>
	<g>
		<path d="M33.066,66.135C14.833,66.135,0,51.301,0,33.068C0,14.834,14.833,0,33.066,0s33.068,14.834,33.068,33.068
			C66.135,51.301,51.3,66.135,33.066,66.135z M33.066,4C17.04,4,4,17.04,4,33.068S17.04,62.135,33.066,62.135
			s29.068-13.04,29.068-29.067S49.094,4,33.066,4z"/>
		<rect x="22.438" y="30.174" width="21.257" height="13.534"/>
		<polygon points="30.176,34.264 26.176,34.264 26.176,22 39.958,22 39.958,27.229 35.958,27.229 35.958,26 30.176,26 		"/>
	</g>
</g>
<g>
</g>
<g>
</g>
<g>
</g>
<g>
</g>
<g>
</g>
<g>
</g>
<g>
</g>
<g>
</g>
<g>
</g>
<g>
</g>
<g>
</g>
<g>
</g>
<g>
</g>
<g>
</g>
<g>
</g>
</svg>
