<?xml version="1.0" encoding="iso-8859-1"?>
<!-- Generator: Adobe Illustrator 16.0.0, SVG Export Plug-In . SVG Version: 6.00 Build 0)  -->
<!DOCTYPE svg PUBLIC "-//W3C//DTD SVG 1.1//EN" "http://www.w3.org/Graphics/SVG/1.1/DTD/svg11.dtd">
<svg version="1.1" id="Capa_1" xmlns="http://www.w3.org/2000/svg" xmlns:xlink="http://www.w3.org/1999/xlink" x="0px" y="0px"
	 width="73.169px" height="73.169px" viewBox="0 0 73.169 73.169" style="enable-background:new 0 0 73.169 73.169;"
	 xml:space="preserve">
<g>
	<g id="Content">
		<g>
			<path d="M60.441,41.917H4.242C1.898,41.917,0,43.759,0,46.031c0,2.271,1.898,4.114,4.242,4.114h56.199
				c2.344,0,4.242-1.844,4.242-4.114C64.684,43.759,62.785,41.917,60.441,41.917z M4.242,10.161h43.479
				c2.342,0,4.241-1.844,4.241-4.122c0-2.271-1.899-4.114-4.241-4.114H4.242C1.898,1.925,0,3.768,0,6.04
				C0,8.318,1.898,10.161,4.242,10.161z M39.234,63.015H4.242C1.898,63.015,0,64.857,0,67.128s1.898,4.115,4.242,4.115h34.992
				c2.344,0,4.242-1.844,4.242-4.115S41.578,63.015,39.234,63.015z M68.927,21.338H4.242C1.898,21.338,0,23.181,0,25.452
				s1.898,4.114,4.242,4.114h64.685c2.343,0,4.242-1.843,4.242-4.114S71.27,21.338,68.927,21.338z"/>
		</g>
	</g>
</g>
<g>
</g>
<g>
</g>
<g>
</g>
<g>
</g>
<g>
</g>
<g>
</g>
<g>
</g>
<g>
</g>
<g>
</g>
<g>
</g>
<g>
</g>
<g>
</g>
<g>
</g>
<g>
</g>
<g>
</g>
</svg>
