<?xml version="1.0" encoding="iso-8859-1"?>
<!-- Generator: Adobe Illustrator 16.0.0, SVG Export Plug-In . SVG Version: 6.00 Build 0)  -->
<!DOCTYPE svg PUBLIC "-//W3C//DTD SVG 1.1//EN" "http://www.w3.org/Graphics/SVG/1.1/DTD/svg11.dtd">
<svg version="1.1" id="Capa_1" xmlns="http://www.w3.org/2000/svg" xmlns:xlink="http://www.w3.org/1999/xlink" x="0px" y="0px"
	 width="72.764px" height="72.765px" viewBox="0 0 72.764 72.765" style="enable-background:new 0 0 72.764 72.765;"
	 xml:space="preserve">
<g>
	<g id="Navigation_1_">
		<g>
			<path d="M72.547,6.113c0.015-0.128,0.031-0.255,0.037-0.383c0.006-0.131,0.002-0.261-0.001-0.392
				c-0.003-0.118-0.003-0.236-0.014-0.354c-0.013-0.139-0.036-0.275-0.06-0.413c-0.018-0.107-0.032-0.216-0.057-0.322
				c-0.032-0.144-0.078-0.284-0.122-0.425c-0.03-0.098-0.057-0.195-0.092-0.291c-0.056-0.144-0.122-0.281-0.188-0.42
				c-0.042-0.089-0.078-0.179-0.125-0.266c-0.074-0.135-0.161-0.264-0.247-0.393c-0.055-0.084-0.104-0.17-0.163-0.251
				c-0.088-0.117-0.188-0.226-0.287-0.337c-0.066-0.077-0.126-0.16-0.197-0.234c-0.007-0.007-0.016-0.012-0.021-0.019
				c-0.003-0.004-0.006-0.007-0.009-0.011c-0.078-0.079-0.166-0.145-0.249-0.219c-0.44-0.394-0.931-0.709-1.457-0.938
				c-0.052-0.021-0.101-0.051-0.153-0.072c-0.153-0.061-0.313-0.105-0.474-0.152c-0.079-0.022-0.156-0.053-0.237-0.072
				c-0.149-0.037-0.303-0.058-0.456-0.081c-0.093-0.015-0.185-0.035-0.277-0.044c-0.15-0.016-0.302-0.016-0.452-0.018
				c-0.1-0.002-0.195-0.009-0.294-0.005c-0.155,0.006-0.311,0.026-0.464,0.046c-0.095,0.012-0.188,0.019-0.279,0.036
				c-0.166,0.029-0.329,0.074-0.493,0.12c-0.061,0.018-0.123,0.025-0.185,0.045L65.35,0.305c-0.004,0.001-0.008,0.002-0.012,0.003
				l-0.01,0.003L18.626,14.946c-1.708,0.534-3.043,1.88-3.573,3.596L0.424,65.664c-0.603,1.94-0.083,4.062,1.35,5.498
				c1.034,1.045,2.426,1.603,3.848,1.603c0.545,0,1.091-0.074,1.624-0.248l46.901-14.697c1.707-0.533,3.047-1.872,3.576-3.587
				l14.625-47.13c0.023-0.074,0.033-0.15,0.055-0.226c0.034-0.133,0.068-0.266,0.095-0.399C72.519,6.355,72.533,6.234,72.547,6.113z
				 M24.061,26.265l22.398,22.502L13.909,58.97L24.061,26.265z"/>
		</g>
	</g>
</g>
<g>
</g>
<g>
</g>
<g>
</g>
<g>
</g>
<g>
</g>
<g>
</g>
<g>
</g>
<g>
</g>
<g>
</g>
<g>
</g>
<g>
</g>
<g>
</g>
<g>
</g>
<g>
</g>
<g>
</g>
</svg>
