<?xml version="1.0" encoding="iso-8859-1"?>
<!-- Generator: Adobe Illustrator 16.0.0, SVG Export Plug-In . SVG Version: 6.00 Build 0)  -->
<!DOCTYPE svg PUBLIC "-//W3C//DTD SVG 1.1//EN" "http://www.w3.org/Graphics/SVG/1.1/DTD/svg11.dtd">
<svg version="1.1" id="Capa_1" xmlns="http://www.w3.org/2000/svg" xmlns:xlink="http://www.w3.org/1999/xlink" x="0px" y="0px"
	 width="61.544px" height="61.544px" viewBox="0 0 61.544 61.544" style="enable-background:new 0 0 61.544 61.544;"
	 xml:space="preserve">
<g>
	<g id="Heart">
		<g>
			<path d="M56.52,9.209c-3.581-3.466-8.313-5.374-13.33-5.374c-4.629,0-9.003,1.624-12.426,4.585
				c-3.434-2.935-7.798-4.539-12.413-4.539c-5.011,0-9.727,1.891-13.259,5.31C1.772,12.368,0.012,16.417,0,20.903
				c-0.015,5.889,2.983,11.911,8.635,17.377L26.61,56.058c1.088,1.051,2.605,1.65,4.156,1.65c1.302,0,2.528-0.409,3.643-1.221
				c0.195-0.143,0.381-0.303,0.554-0.473L52.86,38.318c5.68-5.494,8.682-11.514,8.684-17.399
				C61.543,16.439,59.805,12.393,56.52,9.209z M46.062,31.418L30.765,46.547L15.432,31.381C11.731,27.8,9.697,24.088,9.705,20.93
				c0.005-1.828,0.714-3.432,2.129-4.787c1.729-1.673,4.043-2.596,6.517-2.596c2.473,0,4.787,0.923,6.516,2.596
				c0.658,0.638,1.224,1.366,1.679,2.165c0.861,1.516,2.474,2.451,4.22,2.451c1.749,0,3.36-0.936,4.221-2.451
				c0.455-0.799,1.021-1.527,1.699-2.182c1.726-1.689,4.036-2.622,6.503-2.622c2.477,0,4.81,0.936,6.566,2.639
				c1.383,1.337,2.083,2.943,2.083,4.774C51.839,24.084,49.799,27.8,46.062,31.418z"/>
		</g>
	</g>
</g>
<g>
</g>
<g>
</g>
<g>
</g>
<g>
</g>
<g>
</g>
<g>
</g>
<g>
</g>
<g>
</g>
<g>
</g>
<g>
</g>
<g>
</g>
<g>
</g>
<g>
</g>
<g>
</g>
<g>
</g>
</svg>
