<?xml version="1.0" encoding="iso-8859-1"?>
<!-- Generator: Adobe Illustrator 16.0.0, SVG Export Plug-In . SVG Version: 6.00 Build 0)  -->
<!DOCTYPE svg PUBLIC "-//W3C//DTD SVG 1.1//EN" "http://www.w3.org/Graphics/SVG/1.1/DTD/svg11.dtd">
<svg version="1.1" id="Capa_1" xmlns="http://www.w3.org/2000/svg" xmlns:xlink="http://www.w3.org/1999/xlink" x="0px" y="0px"
	 width="65.047px" height="65.047px" viewBox="0 0 65.047 65.047" style="enable-background:new 0 0 65.047 65.047;"
	 xml:space="preserve">
<g>
	<g>
		<path d="M58.375,65.047H6.672C2.992,65.047,0,62.055,0,58.375V6.671C0,2.992,2.992,0,6.672,0h51.703
			c3.68,0,6.672,2.992,6.672,6.671v51.704C65.047,62.055,62.055,65.047,58.375,65.047z M6.672,3.336
			c-1.839,0-3.336,1.497-3.336,3.335v51.704c0,1.839,1.497,3.336,3.336,3.336h51.703c1.839,0,3.336-1.497,3.336-3.336V6.671
			c0-1.838-1.497-3.335-3.336-3.335H6.672z"/>
		<g>
			<path d="M31.323,36.002c0-3.85-3.121-6.975-6.975-6.975c-3.851,0-6.975,3.125-6.975,6.975c0,3.854,3.124,6.975,6.975,6.975H42.15
				c3.053,0,5.523-2.473,5.523-5.521c0-3.051-2.472-5.523-5.523-5.523c-3.051,0-5.523,2.473-5.523,5.523"/>
			<path d="M42.98,32.523c0-5.775-4.676-10.457-10.454-10.457c-5.774,0-10.457,4.682-10.457,10.457l9.031,6.893l9.172,0.626
				L42.98,32.523z"/>
		</g>
	</g>
</g>
<g>
</g>
<g>
</g>
<g>
</g>
<g>
</g>
<g>
</g>
<g>
</g>
<g>
</g>
<g>
</g>
<g>
</g>
<g>
</g>
<g>
</g>
<g>
</g>
<g>
</g>
<g>
</g>
<g>
</g>
</svg>
