<?xml version="1.0" encoding="iso-8859-1"?>
<!-- Generator: Adobe Illustrator 16.0.0, SVG Export Plug-In . SVG Version: 6.00 Build 0)  -->
<!DOCTYPE svg PUBLIC "-//W3C//DTD SVG 1.1//EN" "http://www.w3.org/Graphics/SVG/1.1/DTD/svg11.dtd">
<svg version="1.1" id="Capa_1" xmlns="http://www.w3.org/2000/svg" xmlns:xlink="http://www.w3.org/1999/xlink" x="0px" y="0px"
	 width="45.604px" height="45.604px" viewBox="0 0 45.604 45.604" style="enable-background:new 0 0 45.604 45.604;"
	 xml:space="preserve">
<g>
	<path d="M41.454,4.146H4.145C1.859,4.146,0,6.004,0,8.292v29.02c0,2.286,1.856,4.146,4.146,4.146h37.311
		c2.281,0,4.146-1.856,4.146-4.146V8.292C45.6,6.004,43.738,4.146,41.454,4.146z M38.033,8.292L22.799,20.17L7.565,8.292H38.033z
		 M4.145,34.208V10.886l13.104,10.215L4.145,34.208z M6.906,37.311l13.639-13.644l0.979,0.768c0.374,0.293,0.826,0.438,1.274,0.438
		c0.449,0,0.897-0.146,1.271-0.438l0.906-0.706l13.584,13.582H6.906z M28.273,21.159l13.18-10.276l0.003,23.457L28.273,21.159z"/>
</g>
<g>
</g>
<g>
</g>
<g>
</g>
<g>
</g>
<g>
</g>
<g>
</g>
<g>
</g>
<g>
</g>
<g>
</g>
<g>
</g>
<g>
</g>
<g>
</g>
<g>
</g>
<g>
</g>
<g>
</g>
</svg>
