<?xml version="1.0" encoding="iso-8859-1"?>
<!-- Generator: Adobe Illustrator 16.0.0, SVG Export Plug-In . SVG Version: 6.00 Build 0)  -->
<!DOCTYPE svg PUBLIC "-//W3C//DTD SVG 1.1//EN" "http://www.w3.org/Graphics/SVG/1.1/DTD/svg11.dtd">
<svg version="1.1" id="Capa_1" xmlns="http://www.w3.org/2000/svg" xmlns:xlink="http://www.w3.org/1999/xlink" x="0px" y="0px"
	 width="65.047px" height="65.047px" viewBox="0 0 65.047 65.047" style="enable-background:new 0 0 65.047 65.047;"
	 xml:space="preserve">
<g>
	<g>
		<path d="M58.375,65.047H6.671C2.993,65.047,0,62.057,0,58.376V6.672C0,2.993,2.993,0,6.671,0h51.704
			c3.682,0,6.672,2.993,6.672,6.672v51.704C65.047,62.057,62.057,65.047,58.375,65.047z M6.671,3.336
			c-1.84,0-3.335,1.497-3.335,3.336v51.704c0,1.838,1.496,3.336,3.335,3.336h51.704c1.839,0,3.336-1.498,3.336-3.336V6.672
			c0-1.839-1.497-3.336-3.336-3.336H6.671z"/>
		<g>
			<path d="M17.79,16.976v24.741h30.301V16.976H17.79z M43.088,36.713H22.793V21.979h20.295V36.713z"/>
			<polygon points="32.94,50.057 43.021,50.055 32.94,37.682 22.86,50.057 			"/>
		</g>
	</g>
</g>
<g>
</g>
<g>
</g>
<g>
</g>
<g>
</g>
<g>
</g>
<g>
</g>
<g>
</g>
<g>
</g>
<g>
</g>
<g>
</g>
<g>
</g>
<g>
</g>
<g>
</g>
<g>
</g>
<g>
</g>
</svg>
