<?xml version="1.0" encoding="iso-8859-1"?>
<!-- Generator: Adobe Illustrator 16.0.0, SVG Export Plug-In . SVG Version: 6.00 Build 0)  -->
<!DOCTYPE svg PUBLIC "-//W3C//DTD SVG 1.1//EN" "http://www.w3.org/Graphics/SVG/1.1/DTD/svg11.dtd">
<svg version="1.1" id="Capa_1" xmlns="http://www.w3.org/2000/svg" xmlns:xlink="http://www.w3.org/1999/xlink" x="0px" y="0px"
	 width="47.22px" height="47.22px" viewBox="0 0 47.22 47.22" style="enable-background:new 0 0 47.22 47.22;" xml:space="preserve"
	>
<g>
	<path d="M46.031,34.237L35.298,23.505l10.588-10.51c0.788-0.785,1.222-1.883,1.194-3.012c-0.03-1.1-0.481-2.142-1.271-2.931
		l-5.707-5.708c-0.789-0.791-1.83-1.24-3.041-1.27c-1.102,0-2.132,0.423-2.884,1.174c0,0-5.985,5.849-10.645,10.484L13.065,1.271
		c-0.764-0.775-1.885-1.256-3.011-1.199C8.959,0.101,7.92,0.549,7.12,1.341L1.408,7.053c-0.79,0.793-1.239,1.836-1.262,2.921
		c-0.035,1.141,0.392,2.212,1.209,3.034c0.003,0.001,5.234,5.092,10.61,10.446L1.191,34.23c-0.792,0.787-1.224,1.889-1.189,3.004
		c0.022,1.101,0.475,2.146,1.267,2.938l5.71,5.713c0.792,0.787,1.833,1.238,3.041,1.267c1.102,0,2.128-0.421,2.897-1.191
		l10.616-10.617L34.304,45.96c0.771,0.771,1.798,1.192,2.9,1.192c0.018,0,0.092,0,0.105,0c1.104-0.03,2.145-0.479,2.934-1.27
		l5.705-5.705c0.784-0.783,1.237-1.823,1.271-2.94C47.247,36.094,46.823,35.028,46.031,34.237z M37.31,42.953
		c-0.042,0.042-0.082,0.054-0.099,0.054L24.976,30.946c-0.4-0.4-0.931-0.598-1.456-0.598c-0.528,0-1.061,0.2-1.466,0.606
		L9.905,42.95L4.12,37.167l12.245-12.248c0.81-0.811,0.81-2.121,0-2.931C10.494,16.116,4.246,10.037,4.343,9.98l5.784-5.785
		l11.935,11.932c0.812,0.81,2.121,0.81,2.934,0c4.72-4.72,12.019-11.852,12.175-11.852c0.001,0,0.001,0,0.001,0l5.791,5.778
		L30.9,22.026c-0.389,0.389-0.608,0.918-0.608,1.468c-0.001,0.554,0.216,1.081,0.604,1.472l12.122,12.279L37.31,42.953z"/>
</g>
<g>
</g>
<g>
</g>
<g>
</g>
<g>
</g>
<g>
</g>
<g>
</g>
<g>
</g>
<g>
</g>
<g>
</g>
<g>
</g>
<g>
</g>
<g>
</g>
<g>
</g>
<g>
</g>
<g>
</g>
</svg>
