<?xml version="1.0" encoding="iso-8859-1"?>
<!-- Generator: Adobe Illustrator 16.0.0, SVG Export Plug-In . SVG Version: 6.00 Build 0)  -->
<!DOCTYPE svg PUBLIC "-//W3C//DTD SVG 1.1//EN" "http://www.w3.org/Graphics/SVG/1.1/DTD/svg11.dtd">
<svg version="1.1" id="Capa_1" xmlns="http://www.w3.org/2000/svg" xmlns:xlink="http://www.w3.org/1999/xlink" x="0px" y="0px"
	 width="31.381px" height="31.381px" viewBox="0 0 31.381 31.381" style="enable-background:new 0 0 31.381 31.381;"
	 xml:space="preserve">
<g>
	<g>
		<path d="M24.242,9.325c-0.646-0.867-1.872-1.047-2.74-0.401l-3.854,2.868V6.988c0-1.082-0.877-1.959-1.958-1.959
			c-1.08,0-1.957,0.877-1.957,1.959v4.804L9.879,8.924C9.01,8.278,7.782,8.458,7.137,9.325s-0.466,2.094,0.401,2.739l4.871,3.627
			l-4.871,3.626c-0.867,0.645-1.046,1.872-0.401,2.739c0.386,0.516,0.976,0.789,1.572,0.789c0.407,0,0.816-0.127,1.169-0.388
			l3.854-2.868v4.805c0,1.082,0.877,1.959,1.957,1.959c1.081,0,1.958-0.877,1.958-1.959V19.59l3.854,2.868
			c0.353,0.261,0.762,0.388,1.169,0.388c0.598,0,1.188-0.272,1.57-0.789c0.646-0.867,0.467-2.095-0.399-2.739l-4.872-3.626
			l4.872-3.627C24.708,11.419,24.888,10.192,24.242,9.325z"/>
		<path d="M15.69,0C7.024,0,0,7.025,0,15.691s7.024,15.689,15.69,15.689c8.666,0,15.691-7.025,15.691-15.689
			C31.381,7.025,24.355,0,15.69,0z M15.69,28.801c-7.229,0-13.109-5.881-13.109-13.108c0-7.229,5.881-13.109,13.109-13.109
			c7.229,0,13.109,5.881,13.109,13.109C28.799,22.919,22.919,28.801,15.69,28.801z"/>
	</g>
</g>
<g>
</g>
<g>
</g>
<g>
</g>
<g>
</g>
<g>
</g>
<g>
</g>
<g>
</g>
<g>
</g>
<g>
</g>
<g>
</g>
<g>
</g>
<g>
</g>
<g>
</g>
<g>
</g>
<g>
</g>
</svg>
