<?xml version="1.0" encoding="iso-8859-1"?>
<!-- Generator: Adobe Illustrator 16.0.0, SVG Export Plug-In . SVG Version: 6.00 Build 0)  -->
<!DOCTYPE svg PUBLIC "-//W3C//DTD SVG 1.1//EN" "http://www.w3.org/Graphics/SVG/1.1/DTD/svg11.dtd">
<svg version="1.1" id="Capa_1" xmlns="http://www.w3.org/2000/svg" xmlns:xlink="http://www.w3.org/1999/xlink" x="0px" y="0px"
	 width="32px" height="32px" viewBox="0 0 32 32" style="enable-background:new 0 0 32 32;" xml:space="preserve">
<g>
	<g>
		<path d="M7,32c-0.351,0-0.702-0.092-1.014-0.275C5.375,31.364,5,30.709,5,30V6c0-3.309,2.691-6,6-6H21c3.31,0,6,2.691,6,6v24
			c0,0.709-0.375,1.364-0.985,1.725c-0.611,0.359-1.365,0.368-1.986,0.023l-8.027-4.46l-8.03,4.46C7.668,31.916,7.333,32,7,32z
			 M11,4C9.896,4,9,4.897,9,6v20.602l6.03-3.35c0.604-0.336,1.339-0.336,1.942,0L23,26.602V6c0-1.103-0.897-2-2-2H11z"/>
	</g>
</g>
<g>
</g>
<g>
</g>
<g>
</g>
<g>
</g>
<g>
</g>
<g>
</g>
<g>
</g>
<g>
</g>
<g>
</g>
<g>
</g>
<g>
</g>
<g>
</g>
<g>
</g>
<g>
</g>
<g>
</g>
</svg>
