<?xml version="1.0" encoding="iso-8859-1"?>
<!-- Generator: Adobe Illustrator 16.0.0, SVG Export Plug-In . SVG Version: 6.00 Build 0)  -->
<!DOCTYPE svg PUBLIC "-//W3C//DTD SVG 1.1//EN" "http://www.w3.org/Graphics/SVG/1.1/DTD/svg11.dtd">
<svg version="1.1" id="Capa_1" xmlns="http://www.w3.org/2000/svg" xmlns:xlink="http://www.w3.org/1999/xlink" x="0px" y="0px"
	 width="87.607px" height="87.607px" viewBox="0 0 87.607 87.607" style="enable-background:new 0 0 87.607 87.607;"
	 xml:space="preserve">
<g>
	<g id="Book">
		<g>
			<path d="M86.454,10.859C74.96-0.626,63.119,0.02,55.203,2.582c-4.956,1.604-8.939,4.144-11.401,5.978
				C41.34,6.726,37.358,4.19,32.404,2.582C24.483,0.026,12.64-0.626,1.152,10.859C0.414,11.596,0,12.596,0,13.638v68.999
				c0,1.588,0.959,3.026,2.43,3.637c0.489,0.197,1,0.3,1.508,0.3c1.021,0,2.029-0.401,2.783-1.155
				c16.49-16.469,33.62-0.642,34.363,0.064c0.074,0.069,0.158,0.119,0.236,0.184c0.109,0.09,0.216,0.182,0.332,0.258
				c0.097,0.063,0.197,0.111,0.298,0.165c0.129,0.069,0.255,0.141,0.389,0.193c0.103,0.041,0.207,0.066,0.312,0.1
				c0.139,0.042,0.275,0.087,0.417,0.113c0.108,0.021,0.217,0.026,0.326,0.038c0.141,0.015,0.28,0.031,0.422,0.031
				c0.112-0.001,0.224-0.017,0.336-0.025c0.138-0.013,0.273-0.021,0.41-0.049c0.115-0.022,0.229-0.062,0.342-0.094
				c0.129-0.037,0.257-0.071,0.382-0.122c0.114-0.048,0.226-0.109,0.336-0.168c0.116-0.062,0.233-0.117,0.345-0.19
				c0.107-0.07,0.205-0.157,0.307-0.239c0.084-0.067,0.176-0.123,0.256-0.199c0.722-0.686,17.76-16.641,34.357-0.06
				c0.754,0.754,1.76,1.155,2.782,1.155c0.508,0,1.019-0.103,1.508-0.3c1.472-0.609,2.431-2.049,2.431-3.637V13.638
				C87.605,12.596,87.191,11.591,86.454,10.859z M7.873,74.452V15.324c16.135-14.656,32.508,0.497,33.205,1.154
				c0.078,0.075,0.168,0.129,0.25,0.195c0.104,0.085,0.205,0.174,0.316,0.247c0.062,0.041,0.126,0.075,0.19,0.112v59.146
				c-2.411-1.59-5.635-3.367-9.432-4.595C26.029,69.521,17.107,68.699,7.873,74.452z M79.732,74.452
				c-9.231-5.748-18.15-4.931-24.529-2.871c-3.799,1.229-7.021,3.009-9.434,4.599V17.034c0.064-0.037,0.129-0.071,0.19-0.112
				c0.11-0.073,0.212-0.162,0.315-0.247c0.082-0.066,0.173-0.12,0.25-0.195c0.703-0.674,16.982-15.912,33.205-1.16v59.133H79.732z"
				/>
		</g>
	</g>
</g>
<g>
</g>
<g>
</g>
<g>
</g>
<g>
</g>
<g>
</g>
<g>
</g>
<g>
</g>
<g>
</g>
<g>
</g>
<g>
</g>
<g>
</g>
<g>
</g>
<g>
</g>
<g>
</g>
<g>
</g>
</svg>
