<?xml version="1.0" encoding="iso-8859-1"?>
<!-- Generator: Adobe Illustrator 16.0.0, SVG Export Plug-In . SVG Version: 6.00 Build 0)  -->
<!DOCTYPE svg PUBLIC "-//W3C//DTD SVG 1.1//EN" "http://www.w3.org/Graphics/SVG/1.1/DTD/svg11.dtd">
<svg version="1.1" id="Capa_1" xmlns="http://www.w3.org/2000/svg" xmlns:xlink="http://www.w3.org/1999/xlink" x="0px" y="0px"
	 width="31.449px" height="31.449px" viewBox="0 0 31.449 31.449" style="enable-background:new 0 0 31.449 31.449;"
	 xml:space="preserve">
<g>
	<g>
		<path d="M5.296,0v31.449h20.857V0H5.296z M23.205,28.839H8.245V2.949h14.96V28.839z"/>
		<rect x="11.516" y="24.514" width="8.461" height="2.107"/>
		<path d="M16.558,17.982l2.717,2.717l2.326-2.326l-2.719-2.716c0.791-1.737,0.479-3.859-0.949-5.285
			c-1.835-1.836-4.825-1.836-6.661,0c-1.838,1.836-1.838,4.825,0.001,6.66C12.697,18.461,14.819,18.773,16.558,17.982z
			 M12.448,11.547c1.186-1.189,3.123-1.189,4.311,0c1.188,1.188,1.189,3.123-0.001,4.312c-1.187,1.188-3.124,1.187-4.31-0.002
			C11.259,14.671,11.259,12.735,12.448,11.547z"/>
	</g>
</g>
<g>
</g>
<g>
</g>
<g>
</g>
<g>
</g>
<g>
</g>
<g>
</g>
<g>
</g>
<g>
</g>
<g>
</g>
<g>
</g>
<g>
</g>
<g>
</g>
<g>
</g>
<g>
</g>
<g>
</g>
</svg>
