<?xml version="1.0" encoding="iso-8859-1"?>
<!-- Generator: Adobe Illustrator 16.0.0, SVG Export Plug-In . SVG Version: 6.00 Build 0)  -->
<!DOCTYPE svg PUBLIC "-//W3C//DTD SVG 1.1//EN" "http://www.w3.org/Graphics/SVG/1.1/DTD/svg11.dtd">
<svg version="1.1" id="Capa_1" xmlns="http://www.w3.org/2000/svg" xmlns:xlink="http://www.w3.org/1999/xlink" x="0px" y="0px"
	 width="65.047px" height="65.047px" viewBox="0 0 65.047 65.047" style="enable-background:new 0 0 65.047 65.047;"
	 xml:space="preserve">
<g>
	<g>
		<path d="M58.375,65.047H6.672C2.993,65.047,0,62.055,0,58.375V6.672C0,2.993,2.993,0,6.672,0h51.703
			c3.682,0,6.672,2.993,6.672,6.672v51.704C65.047,62.055,62.057,65.047,58.375,65.047z M6.672,3.336
			c-1.839,0-3.336,1.496-3.336,3.336v51.704c0,1.839,1.497,3.335,3.336,3.335h51.703c1.839,0,3.336-1.496,3.336-3.335V6.672
			c0-1.84-1.497-3.336-3.336-3.336H6.672z"/>
		<g>
			<path d="M45.178,33.977c0,7.791-6.318,14.105-14.106,14.105c-7.791,0-14.109-6.316-14.109-14.105
				c0-7.789,6.318-14.104,14.109-14.104v14.104H45.178z"/>
			<path d="M48.085,29.403c0-7.79-4.649-12.438-12.44-12.438v12.438H48.085z"/>
		</g>
	</g>
</g>
<g>
</g>
<g>
</g>
<g>
</g>
<g>
</g>
<g>
</g>
<g>
</g>
<g>
</g>
<g>
</g>
<g>
</g>
<g>
</g>
<g>
</g>
<g>
</g>
<g>
</g>
<g>
</g>
<g>
</g>
</svg>
