<?xml version="1.0" encoding="iso-8859-1"?>
<!-- Generator: Adobe Illustrator 16.0.0, SVG Export Plug-In . SVG Version: 6.00 Build 0)  -->
<!DOCTYPE svg PUBLIC "-//W3C//DTD SVG 1.1//EN" "http://www.w3.org/Graphics/SVG/1.1/DTD/svg11.dtd">
<svg version="1.1" id="Capa_1" xmlns="http://www.w3.org/2000/svg" xmlns:xlink="http://www.w3.org/1999/xlink" x="0px" y="0px"
	 width="61.59px" height="61.59px" viewBox="0 0 61.59 61.59" style="enable-background:new 0 0 61.59 61.59;" xml:space="preserve"
	>
<g>
	<g id="Pause">
		<g>
			<path d="M55.817,0H5.774C2.586,0,0,2.586,0,5.774v50.042c0,3.188,2.586,5.773,5.774,5.773h50.042
				c3.188,0,5.772-2.585,5.772-5.773V5.774C61.589,2.586,59.005,0,55.817,0z M51.966,50.041c0,1.064-0.86,1.925-1.925,1.925H11.548
				c-1.062,0-1.925-0.86-1.925-1.925V11.548c0-1.062,0.863-1.925,1.925-1.925h38.493c1.064,0,1.925,0.863,1.925,1.925V50.041z
				 M19.25,43.312h7.695V18.292H19.25V43.312z M34.645,43.312h7.694V18.292h-7.694V43.312z"/>
		</g>
	</g>
</g>
<g>
</g>
<g>
</g>
<g>
</g>
<g>
</g>
<g>
</g>
<g>
</g>
<g>
</g>
<g>
</g>
<g>
</g>
<g>
</g>
<g>
</g>
<g>
</g>
<g>
</g>
<g>
</g>
<g>
</g>
</svg>
