<?xml version="1.0" encoding="iso-8859-1"?>
<!-- Generator: Adobe Illustrator 16.0.0, SVG Export Plug-In . SVG Version: 6.00 Build 0)  -->
<!DOCTYPE svg PUBLIC "-//W3C//DTD SVG 1.1//EN" "http://www.w3.org/Graphics/SVG/1.1/DTD/svg11.dtd">
<svg version="1.1" id="Capa_1" xmlns="http://www.w3.org/2000/svg" xmlns:xlink="http://www.w3.org/1999/xlink" x="0px" y="0px"
	 width="102.88px" height="102.879px" viewBox="0 0 102.88 102.879" style="enable-background:new 0 0 102.88 102.879;"
	 xml:space="preserve">
<g>
	<g id="Sunrise">
		<g>
			<path d="M28.676,79.905c0.875,1.059,2.435,1.198,3.481,0.315c1.048-0.883,1.189-2.463,0.313-3.521
				c-3.717-4.489-5.761-10.197-5.761-16.062c0-13.823,11.133-25.069,24.819-25.069c13.683,0,24.816,11.246,24.816,25.069
				c0,5.869-2.047,11.572-5.761,16.066c-0.878,1.059-0.737,2.634,0.312,3.521c0.461,0.386,1.025,0.576,1.582,0.576
				c0.709,0,1.412-0.306,1.899-0.894c4.459-5.392,6.914-12.232,6.914-19.271c0-16.577-13.353-30.065-29.762-30.065
				c-16.413,0-29.765,13.488-29.765,30.065C21.764,67.675,24.22,74.511,28.676,79.905z M49.056,21.398
				c0,1.379,1.106,2.498,2.473,2.498c1.364,0,2.473-1.119,2.473-2.498v-8.684c0-0.217-0.036-0.425-0.088-0.625V11.26
				c0-1.38-1.105-2.498-2.473-2.498c-1.364,0-2.473,1.118-2.473,2.498v8.678c0,0.217,0.036,0.423,0.088,0.623V21.398z
				 M80.075,34.298c0.001,0,0.002,0,0.002,0c0.001,0,0.002,0,0.003,0c0.632,0,1.264-0.246,1.748-0.732l6.756-6.826
				c0.965-0.979,0.965-2.559,0-3.531c-0.482-0.489-1.116-0.734-1.75-0.733c-0.633-0.001-1.266,0.244-1.749,0.733l-6.759,6.826
				c-0.965,0.974-0.965,2.554-0.002,3.531C78.809,34.052,79.443,34.298,80.075,34.298z M21.145,33.652
				c0.482,0.486,1.116,0.732,1.748,0.732s1.267-0.246,1.749-0.732c0.017-0.017,0.027-0.036,0.043-0.054
				c0.013-0.012,0.027-0.02,0.04-0.032c0.966-0.978,0.966-2.558,0-3.531l-6.759-6.826c-0.963-0.979-2.531-0.979-3.496,0
				c-0.015,0.016-0.025,0.033-0.04,0.049c-0.014,0.014-0.029,0.022-0.043,0.036c-0.966,0.974-0.966,2.554,0,3.531L21.145,33.652z
				 M12.842,62.452c0.479-0.455,0.782-1.098,0.782-1.814c0-1.374-1.106-2.493-2.473-2.493h-8.59c-0.694,0-1.319,0.291-1.769,0.755
				C0.308,59.355,0,60,0,60.722c0,1.38,1.106,2.498,2.47,2.498h8.592C11.763,63.22,12.392,62.924,12.842,62.452z M100.407,58.225
				h-8.593c-1.367,0-2.474,1.118-2.474,2.497c0,1.38,1.106,2.498,2.474,2.498h8.593c1.364,0,2.473-1.118,2.473-2.498
				C102.88,59.343,101.771,58.225,100.407,58.225z M96.111,89.122H6.769c-1.367,0-2.473,1.125-2.473,2.498
				c0,1.381,1.106,2.498,2.473,2.498h89.342c1.363,0,2.473-1.117,2.473-2.498C98.584,90.247,97.475,89.122,96.111,89.122z"/>
		</g>
	</g>
</g>
<g>
</g>
<g>
</g>
<g>
</g>
<g>
</g>
<g>
</g>
<g>
</g>
<g>
</g>
<g>
</g>
<g>
</g>
<g>
</g>
<g>
</g>
<g>
</g>
<g>
</g>
<g>
</g>
<g>
</g>
</svg>
