<?xml version="1.0" encoding="iso-8859-1"?>
<!-- Generator: Adobe Illustrator 16.0.0, SVG Export Plug-In . SVG Version: 6.00 Build 0)  -->
<!DOCTYPE svg PUBLIC "-//W3C//DTD SVG 1.1//EN" "http://www.w3.org/Graphics/SVG/1.1/DTD/svg11.dtd">
<svg version="1.1" id="Capa_1" xmlns="http://www.w3.org/2000/svg" xmlns:xlink="http://www.w3.org/1999/xlink" x="0px" y="0px"
	 width="66.645px" height="66.645px" viewBox="0 0 66.645 66.645" style="enable-background:new 0 0 66.645 66.645;"
	 xml:space="preserve">
<g>
	<g>
		<path d="M66.645,66.494l-19.453-3.367c-4.428,2.097-9.176,3.158-14.124,3.158C14.834,66.285,0,51.451,0,33.217
			S14.834,0.15,33.068,0.15s33.069,14.834,33.069,33.067c0,4.951-1.063,9.701-3.162,14.128L66.645,66.494z M33.068,4.15
			C17.04,4.15,4,17.189,4,33.217s13.04,29.067,29.068,29.067c4.545,0,8.899-1.02,12.938-3.028l0.586-0.293l15.035,2.604
			l-2.835-14.785l0.302-0.605c2.018-4.043,3.041-8.401,3.041-12.958C62.137,17.189,49.096,4.15,33.068,4.15z"/>
	</g>
</g>
<g>
</g>
<g>
</g>
<g>
</g>
<g>
</g>
<g>
</g>
<g>
</g>
<g>
</g>
<g>
</g>
<g>
</g>
<g>
</g>
<g>
</g>
<g>
</g>
<g>
</g>
<g>
</g>
<g>
</g>
</svg>
