<?xml version="1.0" encoding="iso-8859-1"?>
<!-- Generator: Adobe Illustrator 16.0.0, SVG Export Plug-In . SVG Version: 6.00 Build 0)  -->
<!DOCTYPE svg PUBLIC "-//W3C//DTD SVG 1.1//EN" "http://www.w3.org/Graphics/SVG/1.1/DTD/svg11.dtd">
<svg version="1.1" id="Capa_1" xmlns="http://www.w3.org/2000/svg" xmlns:xlink="http://www.w3.org/1999/xlink" x="0px" y="0px"
	 width="87.607px" height="87.607px" viewBox="0 0 87.607 87.607" style="enable-background:new 0 0 87.607 87.607;"
	 xml:space="preserve">
<g>
	<g id="Lock_1_">
		<g>
			<path d="M73.33,32.831H32.158V18.64c0-6.625,5.411-12.015,12.061-12.015s12.061,5.39,12.061,12.015
				c0,1.829,1.488,3.31,3.326,3.31c1.84,0,3.328-1.48,3.328-3.31C62.932,8.363,54.537,0,44.219,0
				C33.901,0,25.506,8.363,25.506,18.64v14.191H14.277c-1.837,0-3.326,1.481-3.326,3.31v48.156c0,1.828,1.489,3.311,3.326,3.311
				H73.33c1.837,0,3.326-1.481,3.326-3.311V36.141C76.656,34.312,75.167,32.831,73.33,32.831z M70.001,80.98H17.603V39.456h52.398
				V80.98z M43.804,67.314c3.926,0,7.125-3.183,7.125-7.097c0-3.913-3.199-7.096-7.125-7.096c-3.927,0-7.125,3.183-7.125,7.096
				C36.679,64.132,39.876,67.314,43.804,67.314z M43.804,56.438c2.092,0,3.799,1.695,3.799,3.78c0,2.087-1.707,3.78-3.799,3.78
				c-2.093,0-3.799-1.693-3.799-3.78C40.004,58.134,41.71,56.438,43.804,56.438z"/>
		</g>
	</g>
</g>
<g>
</g>
<g>
</g>
<g>
</g>
<g>
</g>
<g>
</g>
<g>
</g>
<g>
</g>
<g>
</g>
<g>
</g>
<g>
</g>
<g>
</g>
<g>
</g>
<g>
</g>
<g>
</g>
<g>
</g>
</svg>
