<?xml version="1.0" encoding="iso-8859-1"?>
<!-- Generator: Adobe Illustrator 16.0.0, SVG Export Plug-In . SVG Version: 6.00 Build 0)  -->
<!DOCTYPE svg PUBLIC "-//W3C//DTD SVG 1.1//EN" "http://www.w3.org/Graphics/SVG/1.1/DTD/svg11.dtd">
<svg version="1.1" id="Capa_1" xmlns="http://www.w3.org/2000/svg" xmlns:xlink="http://www.w3.org/1999/xlink" x="0px" y="0px"
	 width="31.291px" height="31.291px" viewBox="0 0 31.291 31.291" style="enable-background:new 0 0 31.291 31.291;"
	 xml:space="preserve">
<g>
	<path d="M29.544,20.473l-0.879-7.576h-1.688l-0.078-0.898h3.207V9.563h-3.42L26.32,5.398h-3.826V1.334H8.798v4.064H4.97
		L4.606,9.563h-3.46v2.436h3.247l-0.079,0.898H2.625l-0.879,7.576H0v4.906h2.531v4.578h5.061v-4.578h16.107v4.578h5.062v-4.578
		h2.529v-4.906H29.544z M10.849,3.384h9.594v2.014h-9.594V3.384z M6.849,7.449h17.592l0.477,5.448H6.373L6.849,7.449z M5.988,19.17
		c-1.026,0-1.858-0.832-1.858-1.857c0-1.026,0.832-1.858,1.858-1.858c1.026,0,1.859,0.832,1.859,1.858
		C7.847,18.338,7.014,19.17,5.988,19.17z M20.877,23.712H10.414v-7.405h10.464L20.877,23.712L20.877,23.712z M25.303,19.17
		c-1.025,0-1.857-0.832-1.857-1.857c0-1.026,0.832-1.858,1.857-1.858c1.026,0,1.858,0.832,1.858,1.858
		C27.162,18.338,26.33,19.17,25.303,19.17z"/>
</g>
<g>
</g>
<g>
</g>
<g>
</g>
<g>
</g>
<g>
</g>
<g>
</g>
<g>
</g>
<g>
</g>
<g>
</g>
<g>
</g>
<g>
</g>
<g>
</g>
<g>
</g>
<g>
</g>
<g>
</g>
</svg>
