<?xml version="1.0" encoding="iso-8859-1"?>
<!-- Generator: Adobe Illustrator 16.0.0, SVG Export Plug-In . SVG Version: 6.00 Build 0)  -->
<!DOCTYPE svg PUBLIC "-//W3C//DTD SVG 1.1//EN" "http://www.w3.org/Graphics/SVG/1.1/DTD/svg11.dtd">
<svg version="1.1" id="Capa_1" xmlns="http://www.w3.org/2000/svg" xmlns:xlink="http://www.w3.org/1999/xlink" x="0px" y="0px"
	 width="61.59px" height="61.59px" viewBox="0 0 61.59 61.59" style="enable-background:new 0 0 61.59 61.59;" xml:space="preserve"
	>
<g>
	<g id="Download_1_">
		<g>
			<path d="M55.815,19.247h-3.849v28.87c0,1.062-0.86,1.924-1.925,1.924H11.549c-1.064,0-1.925-0.861-1.925-1.924v-28.87h-3.85
				C2.585,19.247,0,21.831,0,25.021v30.795c0,3.188,2.585,5.773,5.774,5.773h50.041c3.188,0,5.774-2.587,5.774-5.773V25.021
				C61.59,21.831,59.004,19.247,55.815,19.247z M44.268,19.247h-9.623V0h-7.696v19.247h-9.625l13.473,19.596L44.268,19.247z"/>
		</g>
	</g>
</g>
<g>
</g>
<g>
</g>
<g>
</g>
<g>
</g>
<g>
</g>
<g>
</g>
<g>
</g>
<g>
</g>
<g>
</g>
<g>
</g>
<g>
</g>
<g>
</g>
<g>
</g>
<g>
</g>
<g>
</g>
</svg>
