<?xml version="1.0" encoding="iso-8859-1"?>
<!-- Generator: Adobe Illustrator 16.0.0, SVG Export Plug-In . SVG Version: 6.00 Build 0)  -->
<!DOCTYPE svg PUBLIC "-//W3C//DTD SVG 1.1//EN" "http://www.w3.org/Graphics/SVG/1.1/DTD/svg11.dtd">
<svg version="1.1" id="Capa_1" xmlns="http://www.w3.org/2000/svg" xmlns:xlink="http://www.w3.org/1999/xlink" x="0px" y="0px"
	 width="89.887px" height="89.887px" viewBox="0 0 89.887 89.887" style="enable-background:new 0 0 89.887 89.887;"
	 xml:space="preserve">
<g>
	<g id="Solar_Eclipse">
		<g>
			<path d="M89.855,44.17c-0.01-1.104-0.707-2.082-1.746-2.443c-1.041-0.371-2.19-0.04-2.887,0.812
				c-2.586,3.183-5.757,5.716-9.289,7.522c0.274-1.685,0.42-3.395,0.42-5.119c0-17.355-14.09-31.476-31.411-31.476
				c-3.192,0-6.375,0.498-9.41,1.45c1.32-3.845,3.455-7.403,6.312-10.443c0.752-0.798,0.926-1.986,0.432-2.97
				c-0.492-0.979-1.553-1.565-2.636-1.42C17.042,2.753,0,21.969,0,44.787c0,24.833,20.162,45.039,44.943,45.039
				c24.782,0,44.944-20.205,44.944-45.039C89.887,44.617,89.876,44.446,89.855,44.17z M44.943,18.699
				c14.441,0,26.19,11.772,26.19,26.244c0,2.51-0.371,4.968-1.061,7.344c-2.336,0.604-4.762,0.928-7.233,0.928
				c-15.918,0-28.867-12.977-28.867-28.927c0-1.099,0.07-2.188,0.192-3.268C37.555,19.481,41.173,18.699,44.943,18.699z
				 M44.943,84.599c-21.905,0-39.724-17.862-39.724-39.812c0-17.887,11.85-33.275,28.468-38.166
				c-2.245,3.7-3.742,7.787-4.452,12.057c-0.03,0.125-0.055,0.251-0.065,0.379c-0.266,1.72-0.416,3.465-0.416,5.23
				c0,18.835,15.292,34.159,34.086,34.159c7.87,0,15.359-2.688,21.358-7.544C81.254,69.961,64.771,84.599,44.943,84.599z"/>
		</g>
	</g>
</g>
<g>
</g>
<g>
</g>
<g>
</g>
<g>
</g>
<g>
</g>
<g>
</g>
<g>
</g>
<g>
</g>
<g>
</g>
<g>
</g>
<g>
</g>
<g>
</g>
<g>
</g>
<g>
</g>
<g>
</g>
</svg>
