<?xml version="1.0" encoding="iso-8859-1"?>
<!-- Generator: Adobe Illustrator 16.0.0, SVG Export Plug-In . SVG Version: 6.00 Build 0)  -->
<!DOCTYPE svg PUBLIC "-//W3C//DTD SVG 1.1//EN" "http://www.w3.org/Graphics/SVG/1.1/DTD/svg11.dtd">
<svg version="1.1" id="Capa_1" xmlns="http://www.w3.org/2000/svg" xmlns:xlink="http://www.w3.org/1999/xlink" x="0px" y="0px"
	 width="31.654px" height="31.654px" viewBox="0 0 31.654 31.654" style="enable-background:new 0 0 31.654 31.654;"
	 xml:space="preserve">
<g>
	<g>
		<g>
			<polygon points="12.165,10.803 15.109,13.747 14.633,14.195 19.082,18.646 21.062,16.682 16.608,12.235 16.189,12.667 
				13.245,9.724 13.567,9.402 10.928,7.483 9.926,8.485 11.844,11.125 			"/>
		</g>
		<g>
			<path d="M16.189,12.085l0.535-0.536l1.459,1.459l0.119-0.118c0.91,0.23,1.912,0,2.623-0.711c0.727-0.728,0.959-1.76,0.703-2.685
				l-1.818,1.818L17.9,9.401l1.816-1.819c-0.925-0.257-1.957-0.024-2.685,0.704c-0.726,0.726-0.948,1.752-0.694,2.676l-0.636,0.636
				L16.189,12.085z"/>
		</g>
		<g>
			<polygon points="14.527,13.747 14.04,13.26 10.601,16.701 12.547,18.646 15.45,15.742 13.991,14.283 			"/>
		</g>
		<g>
			<path d="M29.409,2.947H2.245v20.233h27.163L29.409,2.947L29.409,2.947z M26.358,20.131H5.295V5.998h21.063V20.131z"/>
		</g>
		<g>
			<polygon points="19.534,25.022 19.534,26.864 12.119,26.864 12.119,25.022 0,25.022 0,28.707 31.654,28.707 31.654,25.022 			"/>
		</g>
	</g>
</g>
<g>
</g>
<g>
</g>
<g>
</g>
<g>
</g>
<g>
</g>
<g>
</g>
<g>
</g>
<g>
</g>
<g>
</g>
<g>
</g>
<g>
</g>
<g>
</g>
<g>
</g>
<g>
</g>
<g>
</g>
</svg>
