<?xml version="1.0" encoding="iso-8859-1"?>
<!-- Generator: Adobe Illustrator 16.0.0, SVG Export Plug-In . SVG Version: 6.00 Build 0)  -->
<!DOCTYPE svg PUBLIC "-//W3C//DTD SVG 1.1//EN" "http://www.w3.org/Graphics/SVG/1.1/DTD/svg11.dtd">
<svg version="1.1" id="Capa_1" xmlns="http://www.w3.org/2000/svg" xmlns:xlink="http://www.w3.org/1999/xlink" x="0px" y="0px"
	 width="66.137px" height="66.137px" viewBox="0 0 66.137 66.137" style="enable-background:new 0 0 66.137 66.137;"
	 xml:space="preserve">
<g>
	<g>
		<path d="M33.067,66.136C14.834,66.136,0,51.302,0,33.069C0,14.835,14.834,0.001,33.067,0.001c18.234,0,33.07,14.834,33.07,33.068
			C66.137,51.302,51.302,66.136,33.067,66.136z M33.067,4.001C17.04,4.001,4,17.041,4,33.069c0,16.027,13.04,29.066,29.067,29.066
			c16.029,0,29.07-13.039,29.07-29.066C62.137,17.041,49.098,4.001,33.067,4.001z"/>
		<circle cx="24.928" cy="24.825" r="4.335"/>
		<circle cx="41.211" cy="24.825" r="4.335"/>
		<rect x="18.52" y="40.849" width="30.099" height="4"/>
	</g>
</g>
<g>
</g>
<g>
</g>
<g>
</g>
<g>
</g>
<g>
</g>
<g>
</g>
<g>
</g>
<g>
</g>
<g>
</g>
<g>
</g>
<g>
</g>
<g>
</g>
<g>
</g>
<g>
</g>
<g>
</g>
</svg>
