<?xml version="1.0" encoding="iso-8859-1"?>
<!-- Generator: Adobe Illustrator 16.0.0, SVG Export Plug-In . SVG Version: 6.00 Build 0)  -->
<!DOCTYPE svg PUBLIC "-//W3C//DTD SVG 1.1//EN" "http://www.w3.org/Graphics/SVG/1.1/DTD/svg11.dtd">
<svg version="1.1" id="Capa_1" xmlns="http://www.w3.org/2000/svg" xmlns:xlink="http://www.w3.org/1999/xlink" x="0px" y="0px"
	 width="73.042px" height="73.042px" viewBox="0 0 73.042 73.042" style="enable-background:new 0 0 73.042 73.042;"
	 xml:space="preserve">
<g>
	<g id="Tag">
		<g>
			<path d="M73.008,31.27L69.961,8.457c-0.223-1.67-1.479-3.009-3.121-3.34L42.037,0.108c-1.289-0.264-2.629,0.143-3.564,1.075
				L1.154,38.475C0.414,39.212,0,40.212,0,41.251c0,1.045,0.414,2.045,1.154,2.782l27.849,27.83
				c0.737,0.736,1.737,1.149,2.782,1.149c1.046,0,2.047-0.413,2.783-1.149l37.319-37.292C72.756,33.706,73.169,32.48,73.008,31.27z
				 M41.443,25.042c0-3.979,3.242-7.213,7.221-7.213c3.975,0,7.217,3.233,7.217,7.213c0,3.979-3.242,7.213-7.217,7.213
				C44.686,32.255,41.443,29.021,41.443,25.042z"/>
		</g>
	</g>
</g>
<g>
</g>
<g>
</g>
<g>
</g>
<g>
</g>
<g>
</g>
<g>
</g>
<g>
</g>
<g>
</g>
<g>
</g>
<g>
</g>
<g>
</g>
<g>
</g>
<g>
</g>
<g>
</g>
<g>
</g>
</svg>
