<?xml version="1.0" encoding="iso-8859-1"?>
<!-- Generator: Adobe Illustrator 16.0.0, SVG Export Plug-In . SVG Version: 6.00 Build 0)  -->
<!DOCTYPE svg PUBLIC "-//W3C//DTD SVG 1.1//EN" "http://www.w3.org/Graphics/SVG/1.1/DTD/svg11.dtd">
<svg version="1.1" id="Capa_1" xmlns="http://www.w3.org/2000/svg" xmlns:xlink="http://www.w3.org/1999/xlink" x="0px" y="0px"
	 width="107.863px" height="107.863px" viewBox="0 0 107.863 107.863" style="enable-background:new 0 0 107.863 107.863;"
	 xml:space="preserve">
<g>
	<g id="Cloud__x2B__Snow">
		<g>
			<path d="M92.854,33.817c0.125-1.044,0.237-2.232,0.237-3.115c0-14.807-12.146-26.851-27.073-26.851
				c-9.471,0-18.205,4.941-23.085,12.821c-3.015-2.017-6.566-3.104-10.283-3.104c-10.152,0-18.413,8.19-18.413,18.263
				c0,1.083,0.095,2.162,0.286,3.215C5.852,38.202,0,46.373,0,55.742c0,11.963,9.561,20.986,22.235,20.986h63.392
				c12.262,0,22.236-9.891,22.236-22.05C107.863,45.259,101.68,36.836,92.854,33.817z M85.627,71.518H22.235
				c-9.681,0-16.979-6.782-16.979-15.775c0-7.84,5.359-14.576,13.036-16.383c0.718-0.17,1.332-0.632,1.69-1.273
				c0.358-0.643,0.427-1.399,0.193-2.097c-0.456-1.334-0.685-2.733-0.685-4.158c0-7.198,5.903-13.052,13.156-13.052
				c3.489,0,6.774,1.34,9.25,3.772c0.611,0.597,1.484,0.862,2.327,0.707c0.845-0.155,1.56-0.707,1.916-1.485
				C49.67,14.055,57.473,9.068,66.016,9.068c12.027,0,21.815,9.701,21.815,21.634c0,1.3-0.386,3.948-0.488,4.585
				c-0.022,0.135-0.034,0.281-0.034,0.421c0,1.27,0.918,2.338,2.15,2.559c7.624,1.745,13.145,8.632,13.145,16.412
				C102.605,63.963,94.99,71.518,85.627,71.518z M30.838,83.48c-2.324,0-4.219,1.881-4.219,4.184c0,2.308,1.895,4.184,4.219,4.184
				c2.325,0,4.219-1.876,4.219-4.184C35.057,85.361,33.163,83.48,30.838,83.48z M55.014,83.48c-2.326,0-4.217,1.881-4.217,4.184
				c0,2.308,1.891,4.184,4.217,4.184c2.326,0,4.221-1.876,4.221-4.184C59.232,85.361,57.34,83.48,55.014,83.48z M79.189,83.48
				c-2.326,0-4.217,1.881-4.217,4.184c0,2.308,1.891,4.184,4.217,4.184c2.324,0,4.219-1.876,4.219-4.184
				C83.408,85.361,81.516,83.48,79.189,83.48z M43.102,95.649c-2.324,0-4.218,1.876-4.218,4.179c0,2.308,1.894,4.184,4.218,4.184
				c2.325,0,4.219-1.876,4.219-4.184C47.32,97.525,45.427,95.649,43.102,95.649z M67.275,95.649c-2.324,0-4.215,1.876-4.215,4.179
				c0,2.308,1.891,4.184,4.215,4.184c2.328,0,4.222-1.876,4.222-4.184C71.497,97.525,69.604,95.649,67.275,95.649z"/>
		</g>
	</g>
</g>
<g>
</g>
<g>
</g>
<g>
</g>
<g>
</g>
<g>
</g>
<g>
</g>
<g>
</g>
<g>
</g>
<g>
</g>
<g>
</g>
<g>
</g>
<g>
</g>
<g>
</g>
<g>
</g>
<g>
</g>
</svg>
