<?xml version="1.0" encoding="iso-8859-1"?>
<!-- Generator: Adobe Illustrator 16.0.0, SVG Export Plug-In . SVG Version: 6.00 Build 0)  -->
<!DOCTYPE svg PUBLIC "-//W3C//DTD SVG 1.1//EN" "http://www.w3.org/Graphics/SVG/1.1/DTD/svg11.dtd">
<svg version="1.1" id="Capa_1" xmlns="http://www.w3.org/2000/svg" xmlns:xlink="http://www.w3.org/1999/xlink" x="0px" y="0px"
	 width="72.881px" height="72.881px" viewBox="0 0 72.881 72.881" style="enable-background:new 0 0 72.881 72.881;"
	 xml:space="preserve">
<g>
	<g id="Write">
		<g>
			<path d="M68.76,62.916H27.539L70.748,20.99c0.774-0.753,1.207-1.769,1.207-2.828c0-1.054-0.433-2.075-1.207-2.82L58.172,3.149
				c-1.613-1.563-4.223-1.563-5.828,0L10.733,43.48l-2.678,2.632c-0.41,0.406-0.729,0.889-0.933,1.423l-6.866,17.99
				c-0.545,1.423-0.206,3.023,0.869,4.129c0.79,0.812,1.88,1.249,2.997,1.249c0.347,0,0.698-0.049,1.045-0.137
				c0.326,0.081,0.663,0.137,1.016,0.137H68.76c2.273,0,4.121-1.789,4.121-3.993S71.033,62.916,68.76,62.916z M55.258,11.627
				l6.746,6.535L26.335,52.739l-6.733-6.527L55.258,11.627z M14.547,51.115l2.145-2.08l6.731,6.526l-0.113,0.11l-1.948,1.918
				l-10.478,3.122L14.547,51.115z"/>
		</g>
	</g>
</g>
<g>
</g>
<g>
</g>
<g>
</g>
<g>
</g>
<g>
</g>
<g>
</g>
<g>
</g>
<g>
</g>
<g>
</g>
<g>
</g>
<g>
</g>
<g>
</g>
<g>
</g>
<g>
</g>
<g>
</g>
</svg>
