<?xml version="1.0" encoding="iso-8859-1"?>
<!-- Generator: Adobe Illustrator 16.0.0, SVG Export Plug-In . SVG Version: 6.00 Build 0)  -->
<!DOCTYPE svg PUBLIC "-//W3C//DTD SVG 1.1//EN" "http://www.w3.org/Graphics/SVG/1.1/DTD/svg11.dtd">
<svg version="1.1" id="Capa_1" xmlns="http://www.w3.org/2000/svg" xmlns:xlink="http://www.w3.org/1999/xlink" x="0px" y="0px"
	 width="87.607px" height="87.607px" viewBox="0 0 87.607 87.607" style="enable-background:new 0 0 87.607 87.607;"
	 xml:space="preserve">
<g>
	<g id="Help">
		<g>
			<path d="M43.804,0C19.651,0,0.001,19.65,0.001,43.803c0,24.153,19.65,43.805,43.803,43.805c24.153,0,43.802-19.65,43.802-43.805
				C87.606,19.65,67.957,0,43.804,0z M43.804,64.385c-11.346,0-20.578-9.234-20.578-20.582c0-11.346,9.232-20.575,20.578-20.575
				c11.347,0,20.578,9.229,20.578,20.575S55.151,64.385,43.804,64.385z M65.574,54.596c1.618-3.254,2.534-6.918,2.534-10.793
				c0-3.247-0.645-6.346-1.806-9.18l10.261-6.557c2.299,4.765,3.588,10.103,3.588,15.736c0,6.261-1.592,12.154-4.389,17.304
				L65.574,54.596z M60.665,11.621l-6.518,10.196c-2.588-1.223-5.428-1.997-8.416-2.233l-1.926-3.934l-1.926,3.934
				c-3.251,0.257-6.323,1.154-9.091,2.568l0.375-0.513l-6.357-9.947c5.077-2.698,10.861-4.233,17-4.233
				C49.888,7.459,55.621,8.969,60.665,11.621z M11.332,27.505l10.078,6.853c-1.23,2.905-1.911,6.098-1.911,9.445
				c0,3.504,0.751,6.836,2.091,9.848l-10.217,6.531c-2.498-4.926-3.915-10.488-3.915-16.379C7.458,37.944,8.859,32.41,11.332,27.505
				z M27.427,76.236l6.532-10.217c2.412,1.073,5.028,1.765,7.775,1.996l2.071,4.233l2.071-4.233c2.45-0.207,4.796-0.779,6.986-1.662
				l6.561,10.266c-4.734,2.263-10.029,3.533-15.618,3.533C37.914,80.152,32.353,78.734,27.427,76.236z"/>
		</g>
	</g>
</g>
<g>
</g>
<g>
</g>
<g>
</g>
<g>
</g>
<g>
</g>
<g>
</g>
<g>
</g>
<g>
</g>
<g>
</g>
<g>
</g>
<g>
</g>
<g>
</g>
<g>
</g>
<g>
</g>
<g>
</g>
</svg>
