<?xml version="1.0" encoding="iso-8859-1"?>
<!-- Generator: Adobe Illustrator 16.0.0, SVG Export Plug-In . SVG Version: 6.00 Build 0)  -->
<!DOCTYPE svg PUBLIC "-//W3C//DTD SVG 1.1//EN" "http://www.w3.org/Graphics/SVG/1.1/DTD/svg11.dtd">
<svg version="1.1" id="Capa_1" xmlns="http://www.w3.org/2000/svg" xmlns:xlink="http://www.w3.org/1999/xlink" x="0px" y="0px"
	 width="87.605px" height="87.605px" viewBox="0 0 87.605 87.605" style="enable-background:new 0 0 87.605 87.605;"
	 xml:space="preserve">
<g>
	<g id="Bag">
		<g>
			<path d="M80.521,83.04L77.206,64.7l1.72-43.312c0.04-0.941-0.311-1.861-0.966-2.54c-0.654-0.68-1.559-1.064-2.502-1.064H60.997
				v-0.577C60.997,7.722,53.275,0,43.784,0c-9.488,0-17.209,7.722-17.209,17.207v0.577H12.114c-0.944,0-1.849,0.385-2.503,1.064
				c-0.655,0.679-1.005,1.599-0.966,2.54l1.72,43.312L6.962,83.521c-0.182,1.011,0.094,2.054,0.751,2.838
				c0.661,0.793,1.637,1.246,2.666,1.246h66.848c1.917,0,3.472-1.551,3.472-3.47C80.698,83.757,80.636,83.389,80.521,83.04z
				 M33.518,17.207c0-5.663,4.606-10.267,10.267-10.267c5.663,0,10.27,4.604,10.27,10.267v0.577H33.518V17.207z M14.533,80.666
				l2.302-12.74l7.28-4.027l-6.908-1.853L15.725,24.72h56.12l-1.463,36.859l-6.692,1.8l6.917,3.827l2.432,13.46H14.533z"/>
		</g>
	</g>
</g>
<g>
</g>
<g>
</g>
<g>
</g>
<g>
</g>
<g>
</g>
<g>
</g>
<g>
</g>
<g>
</g>
<g>
</g>
<g>
</g>
<g>
</g>
<g>
</g>
<g>
</g>
<g>
</g>
<g>
</g>
</svg>
