<?xml version="1.0" encoding="iso-8859-1"?>
<!-- Generator: Adobe Illustrator 16.0.0, SVG Export Plug-In . SVG Version: 6.00 Build 0)  -->
<!DOCTYPE svg PUBLIC "-//W3C//DTD SVG 1.1//EN" "http://www.w3.org/Graphics/SVG/1.1/DTD/svg11.dtd">
<svg version="1.1" id="Capa_1" xmlns="http://www.w3.org/2000/svg" xmlns:xlink="http://www.w3.org/1999/xlink" x="0px" y="0px"
	 width="73.171px" height="73.17px" viewBox="0 0 73.171 73.17" style="enable-background:new 0 0 73.171 73.17;"
	 xml:space="preserve">
<g>
	<g id="Mail">
		<g>
			<path d="M61.461,7.704H11.707C5.25,7.704,0,13.165,0,19.866v33.439c0,6.709,5.25,12.162,11.707,12.162h49.754
				c2.701,0,5.186-0.965,7.166-2.563c0.027-0.021,0.059-0.037,0.086-0.062c0.008-0.008,0.014-0.016,0.02-0.021
				c2.699-2.229,4.438-5.662,4.438-9.519V19.865C73.168,13.165,67.918,7.704,61.461,7.704z M7.804,20.655l14.588,12.681
				L7.804,51.608V20.655z M36.043,34.631L14.395,15.812h44.238L36.043,34.631z M28.378,38.539l5.108,4.439
				c0.725,0.625,1.613,0.938,2.504,0.938c0.861,0,1.727-0.293,2.441-0.888l5.729-4.772c0.109,0.205,0.232,0.404,0.381,0.592
				l14.74,18.513h-45.93L28.378,38.539z M50.557,33.683c-0.123-0.153-0.266-0.283-0.404-0.414l15.215-12.671v31.687L50.557,33.683z"
				/>
		</g>
	</g>
</g>
<g>
</g>
<g>
</g>
<g>
</g>
<g>
</g>
<g>
</g>
<g>
</g>
<g>
</g>
<g>
</g>
<g>
</g>
<g>
</g>
<g>
</g>
<g>
</g>
<g>
</g>
<g>
</g>
<g>
</g>
</svg>
