<?xml version="1.0" encoding="iso-8859-1"?>
<!-- Generator: Adobe Illustrator 16.0.0, SVG Export Plug-In . SVG Version: 6.00 Build 0)  -->
<!DOCTYPE svg PUBLIC "-//W3C//DTD SVG 1.1//EN" "http://www.w3.org/Graphics/SVG/1.1/DTD/svg11.dtd">
<svg version="1.1" id="Capa_1" xmlns="http://www.w3.org/2000/svg" xmlns:xlink="http://www.w3.org/1999/xlink" x="0px" y="0px"
	 width="73.17px" height="73.17px" viewBox="0 0 73.17 73.17" style="enable-background:new 0 0 73.17 73.17;" xml:space="preserve"
	>
<g>
	<g id="Desktop">
		<g>
			<path d="M60.154,0H13.016C6.901,0,1.926,5.107,1.926,11.38v31.29c0,6.28,4.975,11.38,11.09,11.38h8.939v5.37l-6.333,7.469
				c-0.951,1.121-1.177,2.709-0.575,4.062s1.914,2.219,3.365,2.219h34.661c1.416,0,2.711-0.834,3.328-2.145
				c0.615-1.309,0.446-2.873-0.438-4.008l-5.821-7.5V54.05h10.011c6.114,0,11.092-5.1,11.092-11.38V11.38
				C71.244,5.107,66.268,0,60.154,0z M63.85,42.67c0,2.091-1.658,3.798-3.695,3.798H13.016c-2.038,0-3.696-1.707-3.696-3.798V11.38
				c0-2.091,1.658-3.79,3.696-3.79h47.139c2.037,0,3.695,1.699,3.695,3.79V42.67z"/>
		</g>
	</g>
</g>
<g>
</g>
<g>
</g>
<g>
</g>
<g>
</g>
<g>
</g>
<g>
</g>
<g>
</g>
<g>
</g>
<g>
</g>
<g>
</g>
<g>
</g>
<g>
</g>
<g>
</g>
<g>
</g>
<g>
</g>
</svg>
