<?xml version="1.0" encoding="iso-8859-1"?>
<!-- Generator: Adobe Illustrator 16.0.0, SVG Export Plug-In . SVG Version: 6.00 Build 0)  -->
<!DOCTYPE svg PUBLIC "-//W3C//DTD SVG 1.1//EN" "http://www.w3.org/Graphics/SVG/1.1/DTD/svg11.dtd">
<svg version="1.1" id="Capa_1" xmlns="http://www.w3.org/2000/svg" xmlns:xlink="http://www.w3.org/1999/xlink" x="0px" y="0px"
	 width="31.404px" height="31.404px" viewBox="0 0 31.404 31.404" style="enable-background:new 0 0 31.404 31.404;"
	 xml:space="preserve">
<g>
	<g>
		<polygon points="7.478,1.816 2.685,1.816 2.685,13.307 0,13.307 0,18.101 2.685,18.101 2.685,29.588 7.478,29.588 7.478,18.101 
			10.162,18.101 10.162,13.307 7.478,13.307 		"/>
		<polygon points="18.049,1.816 13.257,1.816 13.257,3.954 10.571,3.954 10.571,8.748 13.257,8.748 13.257,29.588 18.049,29.588 
			18.049,8.748 20.732,8.748 20.732,3.954 18.049,3.954 		"/>
		<polygon points="31.404,20.522 28.723,20.522 28.723,1.816 23.928,1.816 23.928,20.522 21.242,20.522 21.242,25.316 
			23.928,25.316 23.928,29.588 28.723,29.588 28.723,25.316 31.404,25.316 		"/>
	</g>
</g>
<g>
</g>
<g>
</g>
<g>
</g>
<g>
</g>
<g>
</g>
<g>
</g>
<g>
</g>
<g>
</g>
<g>
</g>
<g>
</g>
<g>
</g>
<g>
</g>
<g>
</g>
<g>
</g>
<g>
</g>
</svg>
