<?xml version="1.0" encoding="iso-8859-1"?>
<!-- Generator: Adobe Illustrator 16.0.0, SVG Export Plug-In . SVG Version: 6.00 Build 0)  -->
<!DOCTYPE svg PUBLIC "-//W3C//DTD SVG 1.1//EN" "http://www.w3.org/Graphics/SVG/1.1/DTD/svg11.dtd">
<svg version="1.1" id="Capa_1" xmlns="http://www.w3.org/2000/svg" xmlns:xlink="http://www.w3.org/1999/xlink" x="0px" y="0px"
	 width="65.047px" height="65.047px" viewBox="0 0 65.047 65.047" style="enable-background:new 0 0 65.047 65.047;"
	 xml:space="preserve">
<g>
	<g>
		<path d="M58.376,0H6.672C2.993,0,0,2.993,0,6.672v51.704c0,3.681,2.993,6.671,6.672,6.671h51.703c3.68,0,6.672-2.99,6.672-6.671
			V6.672C65.046,2.993,62.055,0,58.376,0z M61.71,58.376c0,1.838-1.496,3.336-3.334,3.336H6.672c-1.84,0-3.336-1.498-3.336-3.336
			V6.672c0-1.839,1.496-3.336,3.336-3.336h51.705c1.838,0,3.334,1.497,3.334,3.336L61.71,58.376L61.71,58.376z"/>
		<polygon points="38.613,28.961 38.589,28.985 29.772,20.168 26.233,23.708 35.049,32.524 26.233,41.342 29.772,44.881 
			38.588,36.062 38.613,36.088 42.152,32.548 42.128,32.524 42.152,32.5 		"/>
	</g>
</g>
<g>
</g>
<g>
</g>
<g>
</g>
<g>
</g>
<g>
</g>
<g>
</g>
<g>
</g>
<g>
</g>
<g>
</g>
<g>
</g>
<g>
</g>
<g>
</g>
<g>
</g>
<g>
</g>
<g>
</g>
</svg>
