<?xml version="1.0" encoding="iso-8859-1"?>
<!-- Generator: Adobe Illustrator 16.0.0, SVG Export Plug-In . SVG Version: 6.00 Build 0)  -->
<!DOCTYPE svg PUBLIC "-//W3C//DTD SVG 1.1//EN" "http://www.w3.org/Graphics/SVG/1.1/DTD/svg11.dtd">
<svg version="1.1" id="Capa_1" xmlns="http://www.w3.org/2000/svg" xmlns:xlink="http://www.w3.org/1999/xlink" x="0px" y="0px"
	 width="73.169px" height="73.169px" viewBox="0 0 73.169 73.169" style="enable-background:new 0 0 73.169 73.169;"
	 xml:space="preserve">
<g>
	<g id="Play">
		<g>
			<path d="M35.716,24.129c-1.625-1.459-4.118-1.323-5.573,0.301c-1.455,1.625-1.32,4.114,0.301,5.574l7.578,6.799l-7.479,6.28
				c-1.67,1.407-1.884,3.896-0.485,5.56c0.782,0.933,1.899,1.414,3.024,1.414c0.898,0,1.797-0.31,2.538-0.926l10.959-9.206
				c0.876-0.737,1.388-1.819,1.406-2.964c0.018-1.144-0.459-2.234-1.31-3.001L35.716,24.129z M36.584,0C16.412,0,0,16.412,0,36.585
				s16.412,36.584,36.584,36.584c20.173,0,36.585-16.411,36.585-36.584S56.757,0,36.584,0z M36.584,65.279
				c-15.82,0-28.69-12.869-28.69-28.694c0-15.817,12.87-28.688,28.69-28.688c15.822,0,28.691,12.87,28.691,28.688
				C65.275,52.41,52.406,65.279,36.584,65.279z"/>
		</g>
	</g>
</g>
<g>
</g>
<g>
</g>
<g>
</g>
<g>
</g>
<g>
</g>
<g>
</g>
<g>
</g>
<g>
</g>
<g>
</g>
<g>
</g>
<g>
</g>
<g>
</g>
<g>
</g>
<g>
</g>
<g>
</g>
</svg>
