<?xml version="1.0" encoding="iso-8859-1"?>
<!-- Generator: Adobe Illustrator 16.0.0, SVG Export Plug-In . SVG Version: 6.00 Build 0)  -->
<!DOCTYPE svg PUBLIC "-//W3C//DTD SVG 1.1//EN" "http://www.w3.org/Graphics/SVG/1.1/DTD/svg11.dtd">
<svg version="1.1" id="Capa_1" xmlns="http://www.w3.org/2000/svg" xmlns:xlink="http://www.w3.org/1999/xlink" x="0px" y="0px"
	 width="45.6px" height="45.6px" viewBox="0 0 45.6 45.6" style="enable-background:new 0 0 45.6 45.6;" xml:space="preserve">
<g>
	<g>
		<path d="M22.799,0C10.227,0,0,10.229,0,22.8c0,12.572,10.227,22.8,22.799,22.8C35.37,45.6,45.6,35.372,45.6,22.8
			C45.6,10.229,35.371,0,22.799,0z M22.799,41.454c-10.285,0-18.653-8.367-18.653-18.654c0-10.286,8.368-18.654,18.653-18.654
			c10.286,0,18.654,8.368,18.654,18.654C41.453,33.087,33.085,41.454,22.799,41.454z"/>
		<path d="M22.798,34.199L22.798,34.199L22.798,34.199z"/>
		<path d="M11.4,22.8c0,6.296,5.101,11.398,11.398,11.399V11.401C16.501,11.401,11.4,16.505,11.4,22.8z"/>
	</g>
</g>
<g>
</g>
<g>
</g>
<g>
</g>
<g>
</g>
<g>
</g>
<g>
</g>
<g>
</g>
<g>
</g>
<g>
</g>
<g>
</g>
<g>
</g>
<g>
</g>
<g>
</g>
<g>
</g>
<g>
</g>
</svg>
