<?xml version="1.0" encoding="iso-8859-1"?>
<!-- Generator: Adobe Illustrator 16.0.0, SVG Export Plug-In . SVG Version: 6.00 Build 0)  -->
<!DOCTYPE svg PUBLIC "-//W3C//DTD SVG 1.1//EN" "http://www.w3.org/Graphics/SVG/1.1/DTD/svg11.dtd">
<svg version="1.1" id="Capa_1" xmlns="http://www.w3.org/2000/svg" xmlns:xlink="http://www.w3.org/1999/xlink" x="0px" y="0px"
	 width="31.152px" height="31.152px" viewBox="0 0 31.152 31.152" style="enable-background:new 0 0 31.152 31.152;"
	 xml:space="preserve">
<g>
	<g>
		<path d="M0.001,0v31.152h31.15V0H0.001z M19.019,21.661h-1.946v4.565h-3.518V14.823c-0.538,0.116-1.106,0.196-1.735,0.196H9.871
			v4.565H6.352V4.925h5.466c3.602,0,5.78,1.906,5.78,5.048c0,0.578-0.102,1.102-0.25,1.595h1.668c3.603,0,5.781,1.905,5.781,5.047
			C24.8,19.693,22.621,21.661,19.019,21.661z"/>
		<path d="M11.923,8.13H9.871v3.832h2.052c1.488,0,2.157-0.775,2.157-1.926C14.08,8.884,13.41,8.13,11.923,8.13z"/>
		<path d="M19.125,14.772h-2.053v3.833h2.053c1.486,0,2.157-0.775,2.157-1.926C21.282,15.526,20.611,14.772,19.125,14.772z"/>
	</g>
</g>
<g>
</g>
<g>
</g>
<g>
</g>
<g>
</g>
<g>
</g>
<g>
</g>
<g>
</g>
<g>
</g>
<g>
</g>
<g>
</g>
<g>
</g>
<g>
</g>
<g>
</g>
<g>
</g>
<g>
</g>
</svg>
