<?xml version="1.0" encoding="iso-8859-1"?>
<!-- Generator: Adobe Illustrator 16.0.0, SVG Export Plug-In . SVG Version: 6.00 Build 0)  -->
<!DOCTYPE svg PUBLIC "-//W3C//DTD SVG 1.1//EN" "http://www.w3.org/Graphics/SVG/1.1/DTD/svg11.dtd">
<svg version="1.1" id="Capa_1" xmlns="http://www.w3.org/2000/svg" xmlns:xlink="http://www.w3.org/1999/xlink" x="0px" y="0px"
	 width="32.001px" height="32px" viewBox="0 0 32.001 32" style="enable-background:new 0 0 32.001 32;" xml:space="preserve">
<g>
	<path d="M32.001,29.171l-7.683-7.682C25.984,19.21,27,16.25,27,13c0-7.18-4.925-13-11-13S5,5.82,5,13
		c0,3.249,1.015,6.211,2.682,8.49L0,29.171L2.828,32l7.719-7.719C12.156,25.37,14.014,26,16,26c1.986,0,3.846-0.631,5.453-1.719
		L29.172,32L32.001,29.171z M16,22c-3.866,0-7-4.027-7-9c0-4.972,3.134-9,7-9s7,4.029,7,9C23,17.971,19.866,22,16,22z"/>
</g>
<g>
</g>
<g>
</g>
<g>
</g>
<g>
</g>
<g>
</g>
<g>
</g>
<g>
</g>
<g>
</g>
<g>
</g>
<g>
</g>
<g>
</g>
<g>
</g>
<g>
</g>
<g>
</g>
<g>
</g>
</svg>
