<?xml version="1.0" encoding="iso-8859-1"?>
<!-- Generator: Adobe Illustrator 16.0.0, SVG Export Plug-In . SVG Version: 6.00 Build 0)  -->
<!DOCTYPE svg PUBLIC "-//W3C//DTD SVG 1.1//EN" "http://www.w3.org/Graphics/SVG/1.1/DTD/svg11.dtd">
<svg version="1.1" id="Capa_1" xmlns="http://www.w3.org/2000/svg" xmlns:xlink="http://www.w3.org/1999/xlink" x="0px" y="0px"
	 width="73.168px" height="73.168px" viewBox="0 0 73.168 73.168" style="enable-background:new 0 0 73.168 73.168;"
	 xml:space="preserve">
<g>
	<g id="Arrow_Up">
		<g>
			<path d="M58.079,22.316L40.682,1.633C39.828,0.617,38.577,0.022,37.249,0c-1.392,0.075-2.599,0.534-3.485,1.52L15.185,22.204
				c-1.688,1.888-1.53,4.775,0.35,6.468c1.884,1.686,4.78,1.535,6.472-0.354l10.109-11.253v51.531c0,2.527,2.054,4.572,4.584,4.572
				c2.527,0,4.581-2.045,4.581-4.572v-52.02l9.785,11.63c0.906,1.083,2.204,1.632,3.509,1.632c1.042,0,2.088-0.354,2.945-1.068
				C59.456,27.138,59.708,24.257,58.079,22.316z"/>
		</g>
	</g>
</g>
<g>
</g>
<g>
</g>
<g>
</g>
<g>
</g>
<g>
</g>
<g>
</g>
<g>
</g>
<g>
</g>
<g>
</g>
<g>
</g>
<g>
</g>
<g>
</g>
<g>
</g>
<g>
</g>
<g>
</g>
</svg>
