<?xml version="1.0" encoding="iso-8859-1"?>
<!-- Generator: Adobe Illustrator 16.0.0, SVG Export Plug-In . SVG Version: 6.00 Build 0)  -->
<!DOCTYPE svg PUBLIC "-//W3C//DTD SVG 1.1//EN" "http://www.w3.org/Graphics/SVG/1.1/DTD/svg11.dtd">
<svg version="1.1" id="Capa_1" xmlns="http://www.w3.org/2000/svg" xmlns:xlink="http://www.w3.org/1999/xlink" x="0px" y="0px"
	 width="46px" height="46px" viewBox="0 0 46 46" style="enable-background:new 0 0 46 46;" xml:space="preserve">
<g>
	<g id="Fast_Forward">
		<g>
			<path d="M23,0C10.298,0,0,10.298,0,23s10.298,23,23,23s23-10.298,23-23S35.702,0,23,0z M23,42C12.507,42,4,33.493,4,23
				S12.507,4,23,4s19,8.507,19,19S33.493,42,23,42z M23.964,16.329C23.484,16,23,16.419,23,16.981v3.527
				c-2.479-1.718-5.787-4.009-6.036-4.18C16.485,16,16,16.419,16,16.981v12.098c0,0.62,0.536,0.921,0.944,0.647
				C17.3,29.491,20.56,27.232,23,25.539v3.539c0,0.62,0.536,0.921,0.943,0.648c0.56-0.371,8.265-5.718,8.736-6.052
				c0.424-0.299,0.43-1.012,0-1.311C32.023,21.911,24.35,16.593,23.964,16.329z"/>
		</g>
	</g>
</g>
<g>
</g>
<g>
</g>
<g>
</g>
<g>
</g>
<g>
</g>
<g>
</g>
<g>
</g>
<g>
</g>
<g>
</g>
<g>
</g>
<g>
</g>
<g>
</g>
<g>
</g>
<g>
</g>
<g>
</g>
</svg>
