<?xml version="1.0" encoding="iso-8859-1"?>
<!-- Generator: Adobe Illustrator 16.0.0, SVG Export Plug-In . SVG Version: 6.00 Build 0)  -->
<!DOCTYPE svg PUBLIC "-//W3C//DTD SVG 1.1//EN" "http://www.w3.org/Graphics/SVG/1.1/DTD/svg11.dtd">
<svg version="1.1" id="Capa_1" xmlns="http://www.w3.org/2000/svg" xmlns:xlink="http://www.w3.org/1999/xlink" x="0px" y="0px"
	 width="73.17px" height="73.17px" viewBox="0 0 73.17 73.17" style="enable-background:new 0 0 73.17 73.17;" xml:space="preserve"
	>
<g>
	<g id="Sun">
		<g>
			<path d="M36.498,26.92c-5.34,0-9.668,4.325-9.668,9.665s4.328,9.673,9.668,9.673c5.337,0,9.67-4.333,9.67-9.673
				S41.835,26.92,36.498,26.92z M69.518,32.938H58.875c-2.016,0-3.652,1.633-3.652,3.648c0,2.015,1.637,3.655,3.652,3.655h10.643
				c2.017,0,3.652-1.641,3.652-3.655C73.17,34.57,71.533,32.938,69.518,32.938z M17.947,36.585c0-2.016-1.637-3.648-3.652-3.648
				H3.652C1.637,32.938,0,34.569,0,36.585c0,2.017,1.637,3.655,3.652,3.655h10.643C16.311,40.241,17.947,38.602,17.947,36.585z
				 M36.585,55.225c-2.016,0-3.651,1.639-3.651,3.654v10.643c0,2.017,1.636,3.647,3.651,3.647c2.017,0,3.651-1.632,3.651-3.647
				V58.879C40.236,56.862,38.602,55.225,36.585,55.225z M36.585,17.946c2.017,0,3.651-1.632,3.651-3.647V3.656
				C40.236,1.641,38.602,0,36.585,0c-2.016,0-3.651,1.64-3.651,3.655v10.644C32.934,16.314,34.569,17.946,36.585,17.946z
				 M18.244,49.772l-7.529,7.521c-1.426,1.429-1.426,3.738,0,5.167c0.715,0.714,1.647,1.066,2.584,1.066
				c0.933,0,1.865-0.354,2.58-1.066l7.525-7.529c1.425-1.429,1.425-3.738,0-5.158C21.979,48.341,19.67,48.341,18.244,49.772z
				 M52.346,24.477c0.934,0,1.869-0.354,2.58-1.068l7.529-7.529c1.426-1.422,1.426-3.73,0-5.159c-1.43-1.422-3.738-1.422-5.163,0
				l-7.528,7.528c-1.426,1.422-1.426,3.73,0,5.16C50.477,24.123,51.41,24.477,52.346,24.477z M16.066,12.343
				c-1.426-1.429-3.738-1.429-5.164,0c-1.425,1.422-1.425,3.738,0,5.16l7.529,7.529c0.711,0.707,1.647,1.067,2.58,1.067
				c0.933,0,1.869-0.36,2.58-1.067c1.426-1.43,1.426-3.738,0-5.168L16.066,12.343z M55.113,51.389c-1.424-1.423-3.737-1.423-5.162,0
				c-1.426,1.428-1.426,3.736,0,5.166l7.529,7.521c0.709,0.714,1.646,1.074,2.578,1.074c0.934,0,1.869-0.36,2.58-1.074
				c1.43-1.422,1.43-3.73,0-5.16L55.113,51.389z"/>
		</g>
	</g>
</g>
<g>
</g>
<g>
</g>
<g>
</g>
<g>
</g>
<g>
</g>
<g>
</g>
<g>
</g>
<g>
</g>
<g>
</g>
<g>
</g>
<g>
</g>
<g>
</g>
<g>
</g>
<g>
</g>
<g>
</g>
</svg>
