<?xml version="1.0" encoding="iso-8859-1"?>
<!-- Generator: Adobe Illustrator 16.0.0, SVG Export Plug-In . SVG Version: 6.00 Build 0)  -->
<!DOCTYPE svg PUBLIC "-//W3C//DTD SVG 1.1//EN" "http://www.w3.org/Graphics/SVG/1.1/DTD/svg11.dtd">
<svg version="1.1" id="Capa_1" xmlns="http://www.w3.org/2000/svg" xmlns:xlink="http://www.w3.org/1999/xlink" x="0px" y="0px"
	 width="87.606px" height="87.605px" viewBox="0 0 87.606 87.605" style="enable-background:new 0 0 87.606 87.605;"
	 xml:space="preserve">
<g>
	<g id="Trash_Can_1_">
		<g>
			<path d="M83.347,31.697l-1.791-17.544c-0.188-1.871-1.775-3.293-3.668-3.293H56.423C55.525,4.731,50.208,0,43.786,0
				C37.36,0,32.042,4.731,31.144,10.86H9.678c-1.893,0-3.479,1.422-3.668,3.293L4.167,32.216c-0.104,1.027,0.235,2.054,0.936,2.823
				c0.698,0.765,1.692,1.203,2.732,1.203h7.836v47.707c0,2.021,1.649,3.656,3.688,3.656h48.854c2.034,0,3.687-1.637,3.687-3.656
				V36.242h7.871c2.037,0,3.688-1.636,3.688-3.657C83.456,32.28,83.419,31.98,83.347,31.697z M43.786,7.32
				c2.338,0,4.327,1.478,5.084,3.54H38.698C39.455,8.798,41.444,7.32,43.786,7.32z M64.523,80.292H23.043v-44.05h11.522v31.242
				c0,1.012,0.824,1.828,1.843,1.828c1.019,0,1.845-0.816,1.845-1.828V36.242h11.061v31.242c0,1.012,0.823,1.828,1.845,1.828
				c1.02,0,1.843-0.816,1.843-1.828V36.242h11.521V80.292z M11.915,28.922l1.095-10.742h61.548l1.096,10.742H11.915z"/>
		</g>
	</g>
</g>
<g>
</g>
<g>
</g>
<g>
</g>
<g>
</g>
<g>
</g>
<g>
</g>
<g>
</g>
<g>
</g>
<g>
</g>
<g>
</g>
<g>
</g>
<g>
</g>
<g>
</g>
<g>
</g>
<g>
</g>
</svg>
