<?xml version="1.0" encoding="iso-8859-1"?>
<!-- Generator: Adobe Illustrator 16.0.0, SVG Export Plug-In . SVG Version: 6.00 Build 0)  -->
<!DOCTYPE svg PUBLIC "-//W3C//DTD SVG 1.1//EN" "http://www.w3.org/Graphics/SVG/1.1/DTD/svg11.dtd">
<svg version="1.1" id="Capa_1" xmlns="http://www.w3.org/2000/svg" xmlns:xlink="http://www.w3.org/1999/xlink" x="0px" y="0px"
	 width="45.6px" height="45.6px" viewBox="0 0 45.6 45.6" style="enable-background:new 0 0 45.6 45.6;" xml:space="preserve">
<g>
	<g>
		<path d="M22.8,0C10.229,0,0.001,10.229,0.001,22.8c0,12.571,10.228,22.8,22.799,22.8c12.571,0,22.799-10.229,22.799-22.8
			C45.599,10.229,35.371,0,22.8,0z M22.8,41.452c-10.286,0-18.653-8.368-18.653-18.653c0-10.284,8.367-18.653,18.653-18.653
			c10.286,0,18.654,8.369,18.654,18.654C41.454,33.085,33.086,41.452,22.8,41.452z"/>
		<polygon points="19.69,29.02 29.019,22.8 19.69,16.58 		"/>
	</g>
</g>
<g>
</g>
<g>
</g>
<g>
</g>
<g>
</g>
<g>
</g>
<g>
</g>
<g>
</g>
<g>
</g>
<g>
</g>
<g>
</g>
<g>
</g>
<g>
</g>
<g>
</g>
<g>
</g>
<g>
</g>
</svg>
