<?xml version="1.0" encoding="iso-8859-1"?>
<!-- Generator: Adobe Illustrator 16.0.0, SVG Export Plug-In . SVG Version: 6.00 Build 0)  -->
<!DOCTYPE svg PUBLIC "-//W3C//DTD SVG 1.1//EN" "http://www.w3.org/Graphics/SVG/1.1/DTD/svg11.dtd">
<svg version="1.1" id="Capa_1" xmlns="http://www.w3.org/2000/svg" xmlns:xlink="http://www.w3.org/1999/xlink" x="0px" y="0px"
	 width="45.6px" height="45.6px" viewBox="0 0 45.6 45.6" style="enable-background:new 0 0 45.6 45.6;" xml:space="preserve">
<g>
	<g>
		<path d="M22.799,0C10.229,0,0,10.229,0,22.8c0,12.571,10.229,22.8,22.799,22.8C35.371,45.6,45.6,35.371,45.6,22.8
			C45.6,10.229,35.371,0,22.799,0z M22.799,41.452c-10.284,0-18.653-8.368-18.653-18.653c0-10.284,8.369-18.653,18.653-18.653
			c10.287,0,18.654,8.368,18.654,18.653C41.453,33.084,33.086,41.452,22.799,41.452z"/>
		<rect x="16.581" y="16.58" width="12.438" height="12.438"/>
	</g>
</g>
<g>
</g>
<g>
</g>
<g>
</g>
<g>
</g>
<g>
</g>
<g>
</g>
<g>
</g>
<g>
</g>
<g>
</g>
<g>
</g>
<g>
</g>
<g>
</g>
<g>
</g>
<g>
</g>
<g>
</g>
</svg>
