<?xml version="1.0" encoding="iso-8859-1"?>
<!-- Generator: Adobe Illustrator 16.0.0, SVG Export Plug-In . SVG Version: 6.00 Build 0)  -->
<!DOCTYPE svg PUBLIC "-//W3C//DTD SVG 1.1//EN" "http://www.w3.org/Graphics/SVG/1.1/DTD/svg11.dtd">
<svg version="1.1" id="Capa_1" xmlns="http://www.w3.org/2000/svg" xmlns:xlink="http://www.w3.org/1999/xlink" x="0px" y="0px"
	 width="65.047px" height="65.047px" viewBox="0 0 65.047 65.047" style="enable-background:new 0 0 65.047 65.047;"
	 xml:space="preserve">
<g>
	<g>
		<path d="M58.375,0H6.671C2.993,0,0,2.992,0,6.671v51.704c0,3.68,2.993,6.672,6.671,6.672h51.704c3.68,0,6.672-2.992,6.672-6.672
			V6.671C65.046,2.992,62.053,0,58.375,0z M61.71,58.375c0,1.839-1.496,3.336-3.336,3.336H6.671c-1.839,0-3.335-1.497-3.335-3.336
			V6.671c0-1.838,1.495-3.335,3.335-3.335h51.704c1.84,0,3.336,1.497,3.336,3.335L61.71,58.375L61.71,58.375z"/>
		<polygon points="45.498,24.283 35.578,34.201 25.457,24.08 25.455,24.082 21.919,27.618 15.333,34.204 18.87,37.742 
			25.457,31.155 32.04,37.739 32.039,37.74 35.578,41.279 35.579,41.277 35.58,41.279 39.118,37.741 39.117,37.74 49.036,27.821 		
			"/>
	</g>
</g>
<g>
</g>
<g>
</g>
<g>
</g>
<g>
</g>
<g>
</g>
<g>
</g>
<g>
</g>
<g>
</g>
<g>
</g>
<g>
</g>
<g>
</g>
<g>
</g>
<g>
</g>
<g>
</g>
<g>
</g>
</svg>
