<?xml version="1.0" encoding="iso-8859-1"?>
<!-- Generator: Adobe Illustrator 16.0.0, SVG Export Plug-In . SVG Version: 6.00 Build 0)  -->
<!DOCTYPE svg PUBLIC "-//W3C//DTD SVG 1.1//EN" "http://www.w3.org/Graphics/SVG/1.1/DTD/svg11.dtd">
<svg version="1.1" id="Capa_1" xmlns="http://www.w3.org/2000/svg" xmlns:xlink="http://www.w3.org/1999/xlink" x="0px" y="0px"
	 width="66.137px" height="66.137px" viewBox="0 0 66.137 66.137" style="enable-background:new 0 0 66.137 66.137;"
	 xml:space="preserve">
<g>
	<g>
		<path d="M33.068,66.136C14.834,66.136,0,51.302,0,33.068S14.834,0.001,33.068,0.001s33.069,14.834,33.069,33.067
			S51.302,66.136,33.068,66.136z M33.068,4.001C17.04,4.001,4,17.04,4,33.068s13.04,29.067,29.068,29.067
			s29.069-13.039,29.069-29.067S49.096,4.001,33.068,4.001z"/>
		<path d="M32.859,46.974c-10.953,0-18.155-12.386-18.457-12.912l-0.567-0.993l0.567-0.992c0.301-0.527,7.505-12.912,18.457-12.912
			c6.461,0,12.655,4.3,18.407,12.782l0.762,1.122l-0.762,1.122C45.514,42.673,39.32,46.974,32.859,46.974z M18.507,33.068
			c1.803,2.688,7.301,9.904,14.353,9.904c4.789,0,9.601-3.33,14.313-9.904c-4.713-6.573-9.524-9.904-14.313-9.904
			C25.81,23.164,20.312,30.378,18.507,33.068z"/>
		<circle cx="32.875" cy="33.068" r="4.335"/>
	</g>
</g>
<g>
</g>
<g>
</g>
<g>
</g>
<g>
</g>
<g>
</g>
<g>
</g>
<g>
</g>
<g>
</g>
<g>
</g>
<g>
</g>
<g>
</g>
<g>
</g>
<g>
</g>
<g>
</g>
<g>
</g>
</svg>
