<?xml version="1.0" encoding="iso-8859-1"?>
<!-- Generator: Adobe Illustrator 16.0.0, SVG Export Plug-In . SVG Version: 6.00 Build 0)  -->
<!DOCTYPE svg PUBLIC "-//W3C//DTD SVG 1.1//EN" "http://www.w3.org/Graphics/SVG/1.1/DTD/svg11.dtd">
<svg version="1.1" id="Capa_1" xmlns="http://www.w3.org/2000/svg" xmlns:xlink="http://www.w3.org/1999/xlink" x="0px" y="0px"
	 width="47.836px" height="47.836px" viewBox="0 0 47.836 47.836" style="enable-background:new 0 0 47.836 47.836;"
	 xml:space="preserve">
<g>
	<path d="M25.753,32.348c1.617,1.613,1.582,4.278-0.076,5.938l-8.285,8.279c-0.814,0.816-1.894,1.271-3.037,1.271
		c0,0-0.001,0-0.002,0c-1.101,0-2.13-0.421-2.899-1.189L1.195,36.391C0.425,35.619,0,34.587,0.002,33.484
		c0-1.144,0.452-2.221,1.272-3.036l8.281-8.282c0.819-0.822,1.807-1.288,3.043-1.27c1.102,0,2.131,0.426,2.898,1.194L4.203,33.38
		l10.181,10.335L25.753,32.348z M15.367,29.544l2.931,2.931l13.44-13.44l-2.932-2.931L15.367,29.544z M46.646,11.451L36.389,1.192
		C35.621,0.424,34.591,0,33.49,0c-0.002,0-0.002,0-0.002,0c-1.143,0-2.223,0.452-3.035,1.271l-8.286,8.282
		c-1.659,1.657-1.693,4.324-0.077,5.938L33.459,4.124l10.184,10.334L32.348,25.749c0.768,0.771,1.797,1.192,2.897,1.192
		c0.002,0,0.002,0,0.004,0c1.142,0,2.221-0.447,3.037-1.271l8.276-8.283c0.814-0.818,1.271-1.895,1.271-3.038
		C47.841,13.253,47.418,12.221,46.646,11.451z"/>
</g>
<g>
</g>
<g>
</g>
<g>
</g>
<g>
</g>
<g>
</g>
<g>
</g>
<g>
</g>
<g>
</g>
<g>
</g>
<g>
</g>
<g>
</g>
<g>
</g>
<g>
</g>
<g>
</g>
<g>
</g>
</svg>
