<?xml version="1.0" encoding="iso-8859-1"?>
<!-- Generator: Adobe Illustrator 16.0.0, SVG Export Plug-In . SVG Version: 6.00 Build 0)  -->
<!DOCTYPE svg PUBLIC "-//W3C//DTD SVG 1.1//EN" "http://www.w3.org/Graphics/SVG/1.1/DTD/svg11.dtd">
<svg version="1.1" id="Capa_1" xmlns="http://www.w3.org/2000/svg" xmlns:xlink="http://www.w3.org/1999/xlink" x="0px" y="0px"
	 width="31.158px" height="31.158px" viewBox="0 0 31.158 31.158" style="enable-background:new 0 0 31.158 31.158;"
	 xml:space="preserve">
<g>
	<g>
		<path d="M7.392,12.987c-3.097,1.659-3.487,4.153-2.997,6.386l5.422-1.315L7.392,12.987z"/>
		<path d="M12.715,12.395c1.729-0.295,3.223-0.374,4.517-0.298l2.264,3.616l5.424-1.315c-2.132-2.088-6.025-4.05-13.146-2.779
			c-0.156,0.028-0.311,0.058-0.461,0.086l4.401,8.153L0,24.174v6.984h31.158V15.618l-14.454,3.968L12.715,12.395z"/>
		<path d="M0,0v15.413c0.292-0.459,0.608-0.908,0.982-1.333c1.291-1.448,3.082-2.651,5.262-3.496L4.91,7.791
			c1.185-0.379,2.467-0.662,3.833-0.845l1.401,2.596c0.15-0.025,0.302-0.049,0.453-0.072c4.218-0.637,8.334-0.674,12.135,0.216
			v0.001c3.43,0.676,6.602,2.081,8.426,3.711V0H0z"/>
	</g>
</g>
<g>
</g>
<g>
</g>
<g>
</g>
<g>
</g>
<g>
</g>
<g>
</g>
<g>
</g>
<g>
</g>
<g>
</g>
<g>
</g>
<g>
</g>
<g>
</g>
<g>
</g>
<g>
</g>
<g>
</g>
</svg>
