<?xml version="1.0" encoding="iso-8859-1"?>
<!-- Generator: Adobe Illustrator 16.0.0, SVG Export Plug-In . SVG Version: 6.00 Build 0)  -->
<!DOCTYPE svg PUBLIC "-//W3C//DTD SVG 1.1//EN" "http://www.w3.org/Graphics/SVG/1.1/DTD/svg11.dtd">
<svg version="1.1" id="Capa_1" xmlns="http://www.w3.org/2000/svg" xmlns:xlink="http://www.w3.org/1999/xlink" x="0px" y="0px"
	 width="65.047px" height="65.047px" viewBox="0 0 65.047 65.047" style="enable-background:new 0 0 65.047 65.047;"
	 xml:space="preserve">
<g>
	<g>
		<path d="M58.375,65.047H6.671C2.994,65.047,0,62.057,0,58.376V6.672C0,2.993,2.994,0,6.671,0h51.704
			c3.678,0,6.671,2.993,6.671,6.672v51.704C65.046,62.057,62.055,65.047,58.375,65.047z M6.671,3.336
			c-1.84,0-3.335,1.497-3.335,3.336v51.704c0,1.839,1.496,3.336,3.335,3.336h51.704c1.839,0,3.336-1.497,3.336-3.336V6.672
			c0-1.839-1.497-3.336-3.336-3.336H6.671z"/>
		<g>
			<g>
				<polygon points="47.672,32.729 47.672,17.737 28.156,32.73 47.67,47.72 				"/>
			</g>
			<rect x="17.374" y="17.373" width="5.004" height="30.299"/>
		</g>
	</g>
</g>
<g>
</g>
<g>
</g>
<g>
</g>
<g>
</g>
<g>
</g>
<g>
</g>
<g>
</g>
<g>
</g>
<g>
</g>
<g>
</g>
<g>
</g>
<g>
</g>
<g>
</g>
<g>
</g>
<g>
</g>
</svg>
