<?xml version="1.0" encoding="iso-8859-1"?>
<!-- Generator: Adobe Illustrator 16.0.0, SVG Export Plug-In . SVG Version: 6.00 Build 0)  -->
<!DOCTYPE svg PUBLIC "-//W3C//DTD SVG 1.1//EN" "http://www.w3.org/Graphics/SVG/1.1/DTD/svg11.dtd">
<svg version="1.1" id="Capa_1" xmlns="http://www.w3.org/2000/svg" xmlns:xlink="http://www.w3.org/1999/xlink" x="0px" y="0px"
	 width="69.318px" height="69.318px" viewBox="0 0 69.318 69.318" style="enable-background:new 0 0 69.318 69.318;"
	 xml:space="preserve">
<g>
	<g id="Bookmark">
		<g>
			<path d="M55.791,64.55L55.769,4.152C55.769,1.858,53.733,0,51.226,0H18.018c-1.203,0-2.357,0.437-3.208,1.219
				c-0.853,0.774-1.331,1.835-1.331,2.933v57.2l0.03,3.844c0.012,1.634,1.068,3.106,2.7,3.77c0.591,0.241,1.219,0.354,1.839,0.354
				c1.095,0,2.182-0.36,3.027-1.061l13.005-10.65L48.367,68.37c0.832,0.625,1.854,0.948,2.889,0.948h0.046
				c2.505,0,4.538-1.857,4.538-4.151C55.84,64.956,55.826,64.753,55.791,64.55z"/>
		</g>
	</g>
</g>
<g>
</g>
<g>
</g>
<g>
</g>
<g>
</g>
<g>
</g>
<g>
</g>
<g>
</g>
<g>
</g>
<g>
</g>
<g>
</g>
<g>
</g>
<g>
</g>
<g>
</g>
<g>
</g>
<g>
</g>
</svg>
