<?xml version="1.0" encoding="iso-8859-1"?>
<!-- Generator: Adobe Illustrator 16.0.0, SVG Export Plug-In . SVG Version: 6.00 Build 0)  -->
<!DOCTYPE svg PUBLIC "-//W3C//DTD SVG 1.1//EN" "http://www.w3.org/Graphics/SVG/1.1/DTD/svg11.dtd">
<svg version="1.1" id="Capa_1" xmlns="http://www.w3.org/2000/svg" xmlns:xlink="http://www.w3.org/1999/xlink" x="0px" y="0px"
	 width="65.047px" height="65.047px" viewBox="0 0 65.047 65.047" style="enable-background:new 0 0 65.047 65.047;"
	 xml:space="preserve">
<g>
	<g>
		<path d="M58.375,0H6.672C2.993,0,0,2.993,0,6.672v51.703c0,3.68,2.993,6.672,6.672,6.672h51.703c3.682,0,6.672-2.992,6.672-6.672
			V6.672C65.047,2.993,62.057,0,58.375,0z M61.711,58.375c0,1.84-1.497,3.336-3.336,3.336H6.672c-1.839,0-3.336-1.496-3.336-3.336
			V6.672c0-1.84,1.497-3.336,3.336-3.336h51.703c1.839,0,3.336,1.496,3.336,3.336V58.375z"/>
		<polygon points="40.878,24.032 45.202,28.356 46.184,18.725 36.555,19.707 		"/>
		<polygon points="42.223,39.396 42.648,38.969 36.062,32.383 42.645,25.802 39.107,22.264 32.525,28.846 25.94,22.261 
			28.493,19.706 18.862,18.724 19.845,28.355 22.399,25.801 28.985,32.387 22.401,38.971 19.845,36.415 18.863,46.046 
			28.493,45.062 25.938,42.508 32.522,35.925 39.107,42.51 36.455,45.163 46.088,46.145 45.105,36.514 		"/>
	</g>
</g>
<g>
</g>
<g>
</g>
<g>
</g>
<g>
</g>
<g>
</g>
<g>
</g>
<g>
</g>
<g>
</g>
<g>
</g>
<g>
</g>
<g>
</g>
<g>
</g>
<g>
</g>
<g>
</g>
<g>
</g>
</svg>
