<?xml version="1.0" encoding="iso-8859-1"?>
<!-- Generator: Adobe Illustrator 16.0.0, SVG Export Plug-In . SVG Version: 6.00 Build 0)  -->
<!DOCTYPE svg PUBLIC "-//W3C//DTD SVG 1.1//EN" "http://www.w3.org/Graphics/SVG/1.1/DTD/svg11.dtd">
<svg version="1.1" id="Capa_1" xmlns="http://www.w3.org/2000/svg" xmlns:xlink="http://www.w3.org/1999/xlink" x="0px" y="0px"
	 width="66.137px" height="66.137px" viewBox="0 0 66.137 66.137" style="enable-background:new 0 0 66.137 66.137;"
	 xml:space="preserve">
<g>
	<g>
		<path d="M33.066,66.136C14.834,66.136,0,51.302,0,33.069C0,14.835,14.834,0.001,33.066,0.001
			c18.235,0,33.071,14.834,33.071,33.068C66.137,51.302,51.302,66.136,33.066,66.136z M33.066,4.001C17.039,4.001,4,17.041,4,33.069
			c0,16.027,13.039,29.066,29.066,29.066c16.03,0,29.071-13.039,29.071-29.066C62.137,17.041,49.096,4.001,33.066,4.001z"/>
		<path d="M44.552,22.932l-8.368-2.593L19.348,37.175l5.48,5.48l5.127,5.127l16.836-16.836L44.552,22.932z M38.332,31.71
			c-1.645,0-2.977-1.332-2.977-2.977c0-1.643,1.332-2.976,2.977-2.976s2.977,1.333,2.977,2.976
			C41.309,30.378,39.977,31.71,38.332,31.71z"/>
	</g>
</g>
<g>
</g>
<g>
</g>
<g>
</g>
<g>
</g>
<g>
</g>
<g>
</g>
<g>
</g>
<g>
</g>
<g>
</g>
<g>
</g>
<g>
</g>
<g>
</g>
<g>
</g>
<g>
</g>
<g>
</g>
</svg>
