<?xml version="1.0" encoding="iso-8859-1"?>
<!-- Generator: Adobe Illustrator 16.0.0, SVG Export Plug-In . SVG Version: 6.00 Build 0)  -->
<!DOCTYPE svg PUBLIC "-//W3C//DTD SVG 1.1//EN" "http://www.w3.org/Graphics/SVG/1.1/DTD/svg11.dtd">
<svg version="1.1" id="Capa_1" xmlns="http://www.w3.org/2000/svg" xmlns:xlink="http://www.w3.org/1999/xlink" x="0px" y="0px"
	 width="31.464px" height="31.464px" viewBox="0 0 31.464 31.464" style="enable-background:new 0 0 31.464 31.464;"
	 xml:space="preserve">
<g>
	<g>
		<path d="M17.386,0h-9.72L3.085,4.838v8.383H0.468v18.243h19.535V13.22h-2.617V0z M7.264,2.034v2.144h-2.03L7.264,2.034z
			 M4.191,5.284h4.177V1.106h7.912v12.115H4.191V5.284z M7.212,28.734H4.275v-2.937h2.937V28.734z M7.212,23.811H4.275v-2.937h2.937
			V23.811z M7.212,18.885H4.275v-2.936h2.937V18.885z M11.705,28.734H8.769v-2.937h2.937L11.705,28.734L11.705,28.734z
			 M11.705,23.811H8.769v-2.937h2.937L11.705,23.811L11.705,23.811z M11.705,18.885H8.769v-2.936h2.937L11.705,18.885L11.705,18.885
			z M16.195,28.734h-2.936v-2.937h2.936V28.734z M16.195,23.811h-2.936v-2.937h2.936V23.811z M16.195,18.885h-2.936v-2.936h2.936
			V18.885z"/>
		<rect x="22.131" y="0.063" width="8.864" height="31.337"/>
	</g>
</g>
<g>
</g>
<g>
</g>
<g>
</g>
<g>
</g>
<g>
</g>
<g>
</g>
<g>
</g>
<g>
</g>
<g>
</g>
<g>
</g>
<g>
</g>
<g>
</g>
<g>
</g>
<g>
</g>
<g>
</g>
</svg>
