<?xml version="1.0" encoding="iso-8859-1"?>
<!-- Generator: Adobe Illustrator 16.0.0, SVG Export Plug-In . SVG Version: 6.00 Build 0)  -->
<!DOCTYPE svg PUBLIC "-//W3C//DTD SVG 1.1//EN" "http://www.w3.org/Graphics/SVG/1.1/DTD/svg11.dtd">
<svg version="1.1" id="Capa_1" xmlns="http://www.w3.org/2000/svg" xmlns:xlink="http://www.w3.org/1999/xlink" x="0px" y="0px"
	 width="46.091px" height="46.09px" viewBox="0 0 46.091 46.09" style="enable-background:new 0 0 46.091 46.09;"
	 xml:space="preserve">
<g>
	<path d="M45.99,17.698c-0.279-0.855-1.074-1.434-1.973-1.434H29.5L25.015,2.459c-0.278-0.855-1.074-1.433-1.972-1.433
		c-0.899,0-1.694,0.578-1.973,1.433l-4.485,13.804H2.073c-0.899,0-1.695,0.579-1.972,1.431c-0.276,0.854,0.026,1.792,0.753,2.318
		l11.739,8.534l-4.48,13.807c-0.278,0.854,0.026,1.787,0.752,2.316c0.366,0.262,0.792,0.396,1.22,0.396
		c0.427,0,0.853-0.134,1.217-0.396l11.74-8.529l11.745,8.529c0.729,0.528,1.711,0.528,2.438,0c0.729-0.527,1.026-1.461,0.753-2.313
		l-4.481-13.806l11.741-8.536C45.964,19.487,46.266,18.55,45.99,17.698z M29.835,26.078c-0.729,0.526-1.028,1.464-0.752,2.315
		l2.979,9.17l-7.801-5.665c-0.364-0.267-0.791-0.396-1.218-0.396c-0.427,0-0.856,0.129-1.22,0.396l-7.799,5.665l2.979-9.17
		c0.277-0.854-0.026-1.789-0.754-2.315L8.45,20.409h9.641c0.9,0,1.695-0.579,1.971-1.434l2.98-9.169l2.979,9.169
		c0.278,0.856,1.074,1.434,1.973,1.434h9.646L29.835,26.078z"/>
</g>
<g>
</g>
<g>
</g>
<g>
</g>
<g>
</g>
<g>
</g>
<g>
</g>
<g>
</g>
<g>
</g>
<g>
</g>
<g>
</g>
<g>
</g>
<g>
</g>
<g>
</g>
<g>
</g>
<g>
</g>
</svg>
