<?xml version="1.0" encoding="iso-8859-1"?>
<!-- Generator: Adobe Illustrator 16.0.0, SVG Export Plug-In . SVG Version: 6.00 Build 0)  -->
<!DOCTYPE svg PUBLIC "-//W3C//DTD SVG 1.1//EN" "http://www.w3.org/Graphics/SVG/1.1/DTD/svg11.dtd">
<svg version="1.1" id="Capa_1" xmlns="http://www.w3.org/2000/svg" xmlns:xlink="http://www.w3.org/1999/xlink" x="0px" y="0px"
	 width="32px" height="32px" viewBox="0 0 32 32" style="enable-background:new 0 0 32 32;" xml:space="preserve">
<g>
	<path d="M27,18c-0.343,0-0.677,0.035-1,0.102V8V7.001V4c0-2.209-1.791-4-4-4L4,2C1.791,2,0,3.791,0,6v3.001V10v15h0.09
		C0.035,25.327,0,25.659,0,26c0,3.314,2.686,6,6,6c3.313,0,6-2.686,6-6c0-3.312-2.687-6-6-6c-0.702,0-1.374,0.127-2,0.35V14l18-2v11
		c0,2.762,2.238,5,5,5s5-2.238,5-5C32,20.24,29.762,18,27,18z M4,10V9.001V6l18-2v3.001V8L4,10z"/>
</g>
<g>
</g>
<g>
</g>
<g>
</g>
<g>
</g>
<g>
</g>
<g>
</g>
<g>
</g>
<g>
</g>
<g>
</g>
<g>
</g>
<g>
</g>
<g>
</g>
<g>
</g>
<g>
</g>
<g>
</g>
</svg>
