<?xml version="1.0" encoding="iso-8859-1"?>
<!-- Generator: Adobe Illustrator 16.0.0, SVG Export Plug-In . SVG Version: 6.00 Build 0)  -->
<!DOCTYPE svg PUBLIC "-//W3C//DTD SVG 1.1//EN" "http://www.w3.org/Graphics/SVG/1.1/DTD/svg11.dtd">
<svg version="1.1" id="Capa_1" xmlns="http://www.w3.org/2000/svg" xmlns:xlink="http://www.w3.org/1999/xlink" x="0px" y="0px"
	 width="66.137px" height="66.137px" viewBox="0 0 66.137 66.137" style="enable-background:new 0 0 66.137 66.137;"
	 xml:space="preserve">
<g>
	<g>
		<path d="M33.066,66.136C14.834,66.136,0,51.302,0,33.069C0,14.835,14.834,0.001,33.066,0.001
			c18.234,0,33.071,14.834,33.071,33.068C66.137,51.302,51.301,66.136,33.066,66.136z M33.066,4.001C17.039,4.001,4,17.041,4,33.069
			c0,16.027,13.039,29.066,29.066,29.066c16.03,0,29.071-13.039,29.071-29.066C62.137,17.041,49.096,4.001,33.066,4.001z"/>
		<polygon points="50.617,60.17 46.617,60.17 46.617,27.831 18.52,27.831 18.52,60.17 14.52,60.17 14.52,23.831 50.617,23.831 		"/>
		<rect x="23.926" y="43.001" width="17.283" height="4"/>
		<rect x="23.926" y="34.067" width="17.283" height="4"/>
		<rect x="23.926" y="52.048" width="17.283" height="4"/>
	</g>
</g>
<g>
</g>
<g>
</g>
<g>
</g>
<g>
</g>
<g>
</g>
<g>
</g>
<g>
</g>
<g>
</g>
<g>
</g>
<g>
</g>
<g>
</g>
<g>
</g>
<g>
</g>
<g>
</g>
<g>
</g>
</svg>
