<?xml version="1.0" encoding="iso-8859-1"?>
<!-- Generator: Adobe Illustrator 16.0.0, SVG Export Plug-In . SVG Version: 6.00 Build 0)  -->
<!DOCTYPE svg PUBLIC "-//W3C//DTD SVG 1.1//EN" "http://www.w3.org/Graphics/SVG/1.1/DTD/svg11.dtd">
<svg version="1.1" id="Capa_1" xmlns="http://www.w3.org/2000/svg" xmlns:xlink="http://www.w3.org/1999/xlink" x="0px" y="0px"
	 width="66.137px" height="66.137px" viewBox="0 0 66.137 66.137" style="enable-background:new 0 0 66.137 66.137;"
	 xml:space="preserve">
<g>
	<g>
		<path d="M33.068,66.136C14.834,66.136,0,51.302,0,33.068S14.834,0,33.068,0s33.069,14.834,33.069,33.068
			S51.302,66.136,33.068,66.136z M33.068,4C17.04,4,4,17.041,4,33.068s13.04,29.068,29.068,29.068s29.069-13.04,29.069-29.068
			S49.096,4,33.068,4z"/>
		<rect x="18.02" y="41.708" width="30.098" height="4"/>
		<rect x="31.067" y="18.498" width="4" height="15.099"/>
		<polygon points="33.069,37.365 24.312,30.92 26.683,27.7 33.069,32.398 39.455,27.7 41.826,30.92 		"/>
	</g>
</g>
<g>
</g>
<g>
</g>
<g>
</g>
<g>
</g>
<g>
</g>
<g>
</g>
<g>
</g>
<g>
</g>
<g>
</g>
<g>
</g>
<g>
</g>
<g>
</g>
<g>
</g>
<g>
</g>
<g>
</g>
</svg>
