<?xml version="1.0" encoding="iso-8859-1"?>
<!-- Generator: Adobe Illustrator 16.0.0, SVG Export Plug-In . SVG Version: 6.00 Build 0)  -->
<!DOCTYPE svg PUBLIC "-//W3C//DTD SVG 1.1//EN" "http://www.w3.org/Graphics/SVG/1.1/DTD/svg11.dtd">
<svg version="1.1" id="Capa_1" xmlns="http://www.w3.org/2000/svg" xmlns:xlink="http://www.w3.org/1999/xlink" x="0px" y="0px"
	 width="85.224px" height="85.224px" viewBox="0 0 85.224 85.224" style="enable-background:new 0 0 85.224 85.224;"
	 xml:space="preserve">
<g>
	<g id="Remember">
		<g>
			<path d="M81.263,73.066c-1.399-1.396-3.668-1.396-5.067,0c-6.708,6.684-17.619,6.684-24.324,0l-36.768-36.66
				c-6.704-6.688-6.704-17.57,0-24.254c6.708-6.689,17.619-6.689,24.324,0c0.007,0.007,0.016,0.011,0.021,0.018l30.47,30.386
				c3.666,3.657,3.666,9.604,0,13.257c-3.663,3.656-9.627,3.656-13.295,0l-24.08-24.011c-0.468-0.459-1.808-2.128-1.81-3.673
				c-0.004-0.509,0.119-1.314,1.182-2.374c1.4-1.396,1.4-3.658,0-5.059c-1.401-1.396-3.668-1.396-5.069,0
				c-2.179,2.176-3.314,4.779-3.283,7.539c0.058,4.812,3.6,8.331,3.946,8.656l24.046,23.977c3.229,3.22,7.474,4.829,11.715,4.829
				c4.246,0,8.489-1.609,11.723-4.829c6.459-6.442,6.459-16.928,0-23.366L44.501,7.098c-0.002-0.002-0.002-0.003-0.004-0.005
				c-0.003-0.003-0.006-0.006-0.009-0.008l-0.71-0.708c-0.189-0.188-0.396-0.347-0.612-0.482
				c-9.562-8.233-24.057-7.849-33.131,1.198c-9.501,9.477-9.501,24.892,0,34.366l36.767,36.659
				c4.751,4.738,10.988,7.105,17.231,7.105c6.239,0,12.479-2.367,17.229-7.105C82.665,76.723,82.665,74.462,81.263,73.066z"/>
		</g>
	</g>
</g>
<g>
</g>
<g>
</g>
<g>
</g>
<g>
</g>
<g>
</g>
<g>
</g>
<g>
</g>
<g>
</g>
<g>
</g>
<g>
</g>
<g>
</g>
<g>
</g>
<g>
</g>
<g>
</g>
<g>
</g>
</svg>
