<?xml version="1.0" encoding="iso-8859-1"?>
<!-- Generator: Adobe Illustrator 16.0.0, SVG Export Plug-In . SVG Version: 6.00 Build 0)  -->
<!DOCTYPE svg PUBLIC "-//W3C//DTD SVG 1.1//EN" "http://www.w3.org/Graphics/SVG/1.1/DTD/svg11.dtd">
<svg version="1.1" id="Capa_1" xmlns="http://www.w3.org/2000/svg" xmlns:xlink="http://www.w3.org/1999/xlink" x="0px" y="0px"
	 width="46px" height="46px" viewBox="0 0 46 46" style="enable-background:new 0 0 46 46;" xml:space="preserve">
<g>
	<g id="Check">
		<g>
			<path d="M23,0C10.297,0,0,10.298,0,23s10.297,23,23,23c12.702,0,23-10.298,23-23S35.702,0,23,0z M23,42C12.507,42,4,33.493,4,23
				S12.507,4,23,4s19,8.507,19,19S33.493,42,23,42z M30.598,17.696c-0.586-0.585-1.537-0.585-2.123,0l-6.948,6.949l-4.048-4.048
				c-0.597-0.597-1.564-0.597-2.161,0l-0.721,0.721c-0.597,0.597-0.597,1.564,0,2.162l5.065,5.063
				c0.015,0.017,0.019,0.037,0.035,0.053l0.708,0.708c0.016,0.016,0.036,0.021,0.052,0.034l0.065,0.065
				c0.597,0.597,1.564,0.597,2.161,0l0.721-0.721c0.177-0.178,0.285-0.392,0.355-0.613l7.545-7.544c0.584-0.586,0.584-1.536,0-2.121
				L30.598,17.696z"/>
		</g>
	</g>
</g>
<g>
</g>
<g>
</g>
<g>
</g>
<g>
</g>
<g>
</g>
<g>
</g>
<g>
</g>
<g>
</g>
<g>
</g>
<g>
</g>
<g>
</g>
<g>
</g>
<g>
</g>
<g>
</g>
<g>
</g>
</svg>
