<?xml version="1.0" encoding="iso-8859-1"?>
<!-- Generator: Adobe Illustrator 16.0.0, SVG Export Plug-In . SVG Version: 6.00 Build 0)  -->
<!DOCTYPE svg PUBLIC "-//W3C//DTD SVG 1.1//EN" "http://www.w3.org/Graphics/SVG/1.1/DTD/svg11.dtd">
<svg version="1.1" id="Capa_1" xmlns="http://www.w3.org/2000/svg" xmlns:xlink="http://www.w3.org/1999/xlink" x="0px" y="0px"
	 width="61.59px" height="61.59px" viewBox="0 0 61.59 61.59" style="enable-background:new 0 0 61.59 61.59;" xml:space="preserve"
	>
<g>
	<g id="Logout">
		<g>
			<path d="M11.548,50.041V11.548c0-1.064,0.863-1.925,1.925-1.925h28.87V5.774C42.343,2.584,39.757,0,36.57,0H5.774
				C2.587,0,0,2.584,0,5.774v50.042c0,3.188,2.587,5.773,5.774,5.773h30.794c3.188,0,5.773-2.587,5.773-5.773v-3.851h-28.87
				C12.411,51.966,11.548,51.104,11.548,50.041z M61.59,30.794L41.993,17.322v9.624H22.747v7.695h19.246v9.627L61.59,30.794z"/>
		</g>
	</g>
</g>
<g>
</g>
<g>
</g>
<g>
</g>
<g>
</g>
<g>
</g>
<g>
</g>
<g>
</g>
<g>
</g>
<g>
</g>
<g>
</g>
<g>
</g>
<g>
</g>
<g>
</g>
<g>
</g>
<g>
</g>
</svg>
