<?xml version="1.0" encoding="iso-8859-1"?>
<!-- Generator: Adobe Illustrator 16.0.0, SVG Export Plug-In . SVG Version: 6.00 Build 0)  -->
<!DOCTYPE svg PUBLIC "-//W3C//DTD SVG 1.1//EN" "http://www.w3.org/Graphics/SVG/1.1/DTD/svg11.dtd">
<svg version="1.1" id="Capa_1" xmlns="http://www.w3.org/2000/svg" xmlns:xlink="http://www.w3.org/1999/xlink" x="0px" y="0px"
	 width="61.59px" height="61.59px" viewBox="0 0 61.59 61.59" style="enable-background:new 0 0 61.59 61.59;" xml:space="preserve"
	>
<g>
	<g id="Marked_File">
		<g>
			<path d="M55.815,0H5.773C2.584,0,0,2.584,0,5.774v50.042c0,3.188,2.584,5.773,5.773,5.773h50.042
				c3.188,0,5.774-2.586,5.774-5.773V5.774L55.815,0z M51.966,50.042c0,1.062-0.862,1.924-1.925,1.924H11.548
				c-1.063,0-1.925-0.862-1.925-1.924V11.548c0-1.064,0.861-1.925,1.925-1.925h28.81v9.62c0,1.064,0.863,1.925,1.926,1.925h9.684
				L51.966,50.042L51.966,50.042z M34.645,15.396H15.397v5.772h19.248V15.396L34.645,15.396z M15.397,30.794h30.794v-3.849H15.397
				V30.794z M15.397,38.493h30.794v-3.849H15.397V38.493z M15.397,46.191h30.794v-3.849H15.397V46.191z"/>
		</g>
	</g>
</g>
<g>
</g>
<g>
</g>
<g>
</g>
<g>
</g>
<g>
</g>
<g>
</g>
<g>
</g>
<g>
</g>
<g>
</g>
<g>
</g>
<g>
</g>
<g>
</g>
<g>
</g>
<g>
</g>
<g>
</g>
</svg>
