<?xml version="1.0" encoding="iso-8859-1"?>
<!-- Generator: Adobe Illustrator 16.0.0, SVG Export Plug-In . SVG Version: 6.00 Build 0)  -->
<!DOCTYPE svg PUBLIC "-//W3C//DTD SVG 1.1//EN" "http://www.w3.org/Graphics/SVG/1.1/DTD/svg11.dtd">
<svg version="1.1" id="Capa_1" xmlns="http://www.w3.org/2000/svg" xmlns:xlink="http://www.w3.org/1999/xlink" x="0px" y="0px"
	 width="61.587px" height="61.586px" viewBox="0 0 61.587 61.586" style="enable-background:new 0 0 61.587 61.586;"
	 xml:space="preserve">
<g>
	<g id="Display">
		<g>
			<path d="M55.814,0.008H5.773C2.586,0.008,0,2.608,0,5.81v36.75c0,3.207,2.586,5.802,5.773,5.802h16.415L16.71,58.739
				c-0.315,0.601-0.297,1.321,0.051,1.904c0.348,0.581,0.974,0.936,1.65,0.936H43.18c0.676,0,1.301-0.354,1.648-0.936
				c0.348-0.583,0.365-1.304,0.051-1.904L39.4,48.362h16.414c3.19,0,5.772-2.596,5.772-5.802V5.81
				C61.589,2.608,59.007,0.008,55.814,0.008z M51.966,36.758c0,1.068-0.86,1.934-1.925,1.934H11.548
				c-1.062,0-1.925-0.865-1.925-1.934V11.612c0-1.065,0.862-1.934,1.925-1.934h38.493c1.064,0,1.925,0.869,1.925,1.934V36.758z"/>
		</g>
	</g>
</g>
<g>
</g>
<g>
</g>
<g>
</g>
<g>
</g>
<g>
</g>
<g>
</g>
<g>
</g>
<g>
</g>
<g>
</g>
<g>
</g>
<g>
</g>
<g>
</g>
<g>
</g>
<g>
</g>
<g>
</g>
</svg>
