<?xml version="1.0" encoding="iso-8859-1"?>
<!-- Generator: Adobe Illustrator 16.0.0, SVG Export Plug-In . SVG Version: 6.00 Build 0)  -->
<!DOCTYPE svg PUBLIC "-//W3C//DTD SVG 1.1//EN" "http://www.w3.org/Graphics/SVG/1.1/DTD/svg11.dtd">
<svg version="1.1" id="Capa_1" xmlns="http://www.w3.org/2000/svg" xmlns:xlink="http://www.w3.org/1999/xlink" x="0px" y="0px"
	 width="73.168px" height="73.168px" viewBox="0 0 73.168 73.168" style="enable-background:new 0 0 73.168 73.168;"
	 xml:space="preserve">
<g>
	<g id="Card">
		<g>
			<path d="M61.461,13.479H11.707C5.25,13.479,0,18.556,0,24.798v23.579c0,6.233,5.25,11.312,11.707,11.312h49.754
				c6.457,0,11.707-5.078,11.707-11.312V24.798C73.168,18.556,67.918,13.479,61.461,13.479z M11.707,21.022h49.754
				c2.15,0,3.904,1.692,3.904,3.776v4.362H7.803v-4.362C7.803,22.714,9.556,21.022,11.707,21.022z M61.461,52.146H11.707
				c-2.151,0-3.904-1.691-3.904-3.77V36.705h57.562v11.674C65.365,50.455,63.611,52.146,61.461,52.146z"/>
		</g>
	</g>
</g>
<g>
</g>
<g>
</g>
<g>
</g>
<g>
</g>
<g>
</g>
<g>
</g>
<g>
</g>
<g>
</g>
<g>
</g>
<g>
</g>
<g>
</g>
<g>
</g>
<g>
</g>
<g>
</g>
<g>
</g>
</svg>
