<?xml version="1.0" encoding="iso-8859-1"?>
<!-- Generator: Adobe Illustrator 16.0.0, SVG Export Plug-In . SVG Version: 6.00 Build 0)  -->
<!DOCTYPE svg PUBLIC "-//W3C//DTD SVG 1.1//EN" "http://www.w3.org/Graphics/SVG/1.1/DTD/svg11.dtd">
<svg version="1.1" id="Capa_1" xmlns="http://www.w3.org/2000/svg" xmlns:xlink="http://www.w3.org/1999/xlink" x="0px" y="0px"
	 width="65.047px" height="65.047px" viewBox="0 0 65.047 65.047" style="enable-background:new 0 0 65.047 65.047;"
	 xml:space="preserve">
<g>
	<g>
		<path d="M58.375,65.047H6.672C2.993,65.047,0,62.055,0,58.375V6.671C0,2.992,2.993,0,6.672,0h51.703
			c3.682,0,6.672,2.992,6.672,6.671v51.704C65.047,62.055,62.057,65.047,58.375,65.047z M6.672,3.336
			c-1.839,0-3.336,1.497-3.336,3.335v51.704c0,1.839,1.497,3.336,3.336,3.336h51.703c1.839,0,3.336-1.497,3.336-3.336V6.671
			c0-1.838-1.497-3.335-3.336-3.335H6.672z"/>
		<path d="M42.954,32.01c-0.229-4.68-3.524-8.546-7.929-9.629v9.312l0,0h3.613l-6.116,7.505l-6.116-7.505h3.616v-9.29
			c-3.505,0.869-6.325,3.475-7.435,6.875c-2.992,0.785-5.215,3.485-5.215,6.724c0,3.854,3.125,6.975,6.975,6.975h5.676h5.005h7.121
			c3.053,0,5.523-2.473,5.523-5.521C47.675,34.678,45.622,32.402,42.954,32.01z"/>
	</g>
</g>
<g>
</g>
<g>
</g>
<g>
</g>
<g>
</g>
<g>
</g>
<g>
</g>
<g>
</g>
<g>
</g>
<g>
</g>
<g>
</g>
<g>
</g>
<g>
</g>
<g>
</g>
<g>
</g>
<g>
</g>
</svg>
