<?xml version="1.0" encoding="iso-8859-1"?>
<!-- Generator: Adobe Illustrator 16.0.0, SVG Export Plug-In . SVG Version: 6.00 Build 0)  -->
<!DOCTYPE svg PUBLIC "-//W3C//DTD SVG 1.1//EN" "http://www.w3.org/Graphics/SVG/1.1/DTD/svg11.dtd">
<svg version="1.1" id="Capa_1" xmlns="http://www.w3.org/2000/svg" xmlns:xlink="http://www.w3.org/1999/xlink" x="0px" y="0px"
	 width="61.59px" height="61.59px" viewBox="0 0 61.59 61.59" style="enable-background:new 0 0 61.59 61.59;" xml:space="preserve"
	>
<g>
	<g id="Mail_1_">
		<g>
			<path d="M55.814,5.774H5.774C2.586,5.774,0,8.36,0,11.548v38.494c0,3.188,2.586,5.773,5.774,5.773h50.042
				c3.189,0,5.773-2.585,5.773-5.773V11.548C61.59,8.36,59.005,5.774,55.814,5.774z M38.852,27.582l13.115-8.806v23.046
				L38.852,27.582z M9.624,43.589V18.728l13.631,8.841L9.624,43.589z M12.462,46.192l14.05-16.512l4.686,3.039l4.42-2.968
				l15.041,16.33c-0.194,0.066-0.399,0.11-0.617,0.11L12.462,46.192L12.462,46.192z"/>
		</g>
	</g>
</g>
<g>
</g>
<g>
</g>
<g>
</g>
<g>
</g>
<g>
</g>
<g>
</g>
<g>
</g>
<g>
</g>
<g>
</g>
<g>
</g>
<g>
</g>
<g>
</g>
<g>
</g>
<g>
</g>
<g>
</g>
</svg>
