<?xml version="1.0" encoding="iso-8859-1"?>
<!-- Generator: Adobe Illustrator 16.0.0, SVG Export Plug-In . SVG Version: 6.00 Build 0)  -->
<!DOCTYPE svg PUBLIC "-//W3C//DTD SVG 1.1//EN" "http://www.w3.org/Graphics/SVG/1.1/DTD/svg11.dtd">
<svg version="1.1" id="Capa_1" xmlns="http://www.w3.org/2000/svg" xmlns:xlink="http://www.w3.org/1999/xlink" x="0px" y="0px"
	 width="73.17px" height="73.17px" viewBox="0 0 73.17 73.17" style="enable-background:new 0 0 73.17 73.17;" xml:space="preserve"
	>
<g>
	<g id="Remove_1_">
		<g>
			<path d="M36.585,0C16.412,0,0,16.413,0,36.584c0,20.173,16.412,36.585,36.585,36.585S73.17,56.757,73.17,36.584
				C73.17,16.413,56.758,0,36.585,0z M36.585,65.28c-15.821,0-28.69-12.869-28.69-28.695c0-15.817,12.869-28.687,28.69-28.687
				c15.821,0,28.69,12.869,28.69,28.687C65.275,52.411,52.406,65.28,36.585,65.28z M46.287,32.644H26.886
				c-2.181,0-3.948,1.761-3.948,3.941c0,2.182,1.768,3.949,3.948,3.949h19.401c2.178,0,3.945-1.768,3.945-3.949
				C50.232,34.403,48.465,32.644,46.287,32.644z"/>
		</g>
	</g>
</g>
<g>
</g>
<g>
</g>
<g>
</g>
<g>
</g>
<g>
</g>
<g>
</g>
<g>
</g>
<g>
</g>
<g>
</g>
<g>
</g>
<g>
</g>
<g>
</g>
<g>
</g>
<g>
</g>
<g>
</g>
</svg>
