<?xml version="1.0" encoding="iso-8859-1"?>
<!-- Generator: Adobe Illustrator 16.0.0, SVG Export Plug-In . SVG Version: 6.00 Build 0)  -->
<!DOCTYPE svg PUBLIC "-//W3C//DTD SVG 1.1//EN" "http://www.w3.org/Graphics/SVG/1.1/DTD/svg11.dtd">
<svg version="1.1" id="Capa_1" xmlns="http://www.w3.org/2000/svg" xmlns:xlink="http://www.w3.org/1999/xlink" x="0px" y="0px"
	 width="45.6px" height="45.6px" viewBox="0 0 45.6 45.6" style="enable-background:new 0 0 45.6 45.6;" xml:space="preserve">
<g>
	<g>
		<path d="M41.346,7.771h-4.213v-5.18c0-1.146-0.927-2.072-2.072-2.072H24.698c-1.146,0-2.071,0.926-2.071,2.072v5.18H4.255
			C1.909,7.771,0,9.633,0,11.917v29.018c0,2.285,1.909,4.146,4.255,4.146h37.089c2.346,0,4.256-1.861,4.256-4.146V11.917
			C45.6,9.63,43.691,7.771,41.346,7.771z M26.77,4.665h6.217v3.104h-6.215L26.77,4.665z M41.346,40.935h-37.2l0.109-29.018h37.198
			l0.011,28.977C41.464,40.895,41.434,40.935,41.346,40.935z"/>
		<path d="M22.8,17.099c-5.142,0-9.326,4.187-9.326,9.327c0,5.14,4.182,9.327,9.326,9.327c5.142,0,9.326-4.186,9.326-9.327
			C32.126,21.285,27.943,17.099,22.8,17.099z M22.8,31.608c-2.858,0-5.182-2.322-5.182-5.182c0-2.86,2.324-5.182,5.182-5.182
			c2.854,0,5.181,2.323,5.183,5.182C27.982,29.286,25.656,31.608,22.8,31.608z"/>
	</g>
</g>
<g>
</g>
<g>
</g>
<g>
</g>
<g>
</g>
<g>
</g>
<g>
</g>
<g>
</g>
<g>
</g>
<g>
</g>
<g>
</g>
<g>
</g>
<g>
</g>
<g>
</g>
<g>
</g>
<g>
</g>
</svg>
