<?xml version="1.0" encoding="iso-8859-1"?>
<!-- Generator: Adobe Illustrator 16.0.0, SVG Export Plug-In . SVG Version: 6.00 Build 0)  -->
<!DOCTYPE svg PUBLIC "-//W3C//DTD SVG 1.1//EN" "http://www.w3.org/Graphics/SVG/1.1/DTD/svg11.dtd">
<svg version="1.1" id="Capa_1" xmlns="http://www.w3.org/2000/svg" xmlns:xlink="http://www.w3.org/1999/xlink" x="0px" y="0px"
	 width="65.047px" height="65.047px" viewBox="0 0 65.047 65.047" style="enable-background:new 0 0 65.047 65.047;"
	 xml:space="preserve">
<g>
	<g>
		<path d="M58.375,65.047H6.672c-3.68,0-6.672-2.99-6.672-6.671V6.672C0,2.993,2.992,0,6.672,0h51.703
			c3.68,0,6.672,2.993,6.672,6.672v51.704C65.047,62.057,62.055,65.047,58.375,65.047z M6.672,3.336
			c-1.839,0-3.336,1.497-3.336,3.336v51.704c0,1.838,1.497,3.336,3.336,3.336h51.703c1.839,0,3.336-1.498,3.336-3.336V6.672
			c0-1.839-1.497-3.336-3.336-3.336H6.672z"/>
		<g>
			<rect x="17.097" y="17.373" width="5.003" height="30.299"/>
			<rect x="17.097" y="17.373" width="30.854" height="5.004"/>
			<rect x="17.097" y="27.521" width="30.854" height="20.153"/>
		</g>
	</g>
</g>
<g>
</g>
<g>
</g>
<g>
</g>
<g>
</g>
<g>
</g>
<g>
</g>
<g>
</g>
<g>
</g>
<g>
</g>
<g>
</g>
<g>
</g>
<g>
</g>
<g>
</g>
<g>
</g>
<g>
</g>
</svg>
