<?xml version="1.0" encoding="iso-8859-1"?>
<!-- Generator: Adobe Illustrator 16.0.0, SVG Export Plug-In . SVG Version: 6.00 Build 0)  -->
<!DOCTYPE svg PUBLIC "-//W3C//DTD SVG 1.1//EN" "http://www.w3.org/Graphics/SVG/1.1/DTD/svg11.dtd">
<svg version="1.1" id="Capa_1" xmlns="http://www.w3.org/2000/svg" xmlns:xlink="http://www.w3.org/1999/xlink" x="0px" y="0px"
	 width="87.607px" height="87.608px" viewBox="0 0 87.607 87.608" style="enable-background:new 0 0 87.607 87.608;"
	 xml:space="preserve">
<g>
	<g id="Canvas">
		<g>
			<path d="M83.766,63.219H71.273V20.603c0-0.39-0.078-0.759-0.188-1.113L83.997,6.76c0.751-0.743,0.751-1.941,0-2.679
				c-0.751-0.743-1.968-0.743-2.716,0l-13.01,12.828c-0.271-0.06-0.551-0.097-0.84-0.097H24.017V6.53
				c0-2.091-1.72-3.791-3.842-3.791c-2.123,0-3.843,1.7-3.843,3.791v10.282H3.842c-2.12,0-3.842,1.7-3.842,3.791
				c0,2.091,1.722,3.791,3.842,3.791h12.49v42.61c0,2.096,1.72,3.791,3.843,3.791H63.59v10.287c0,2.092,1.719,3.786,3.842,3.786
				s3.842-1.694,3.842-3.786V70.797h12.492c2.119,0,3.842-1.695,3.842-3.791C87.605,64.915,85.885,63.219,83.766,63.219z
				 M60.68,24.394L27.854,56.758l-3.838-3.785V24.394H60.68z M34.408,63.219l-3.838-3.785L63.59,26.88v36.339H34.408z"/>
		</g>
	</g>
</g>
<g>
</g>
<g>
</g>
<g>
</g>
<g>
</g>
<g>
</g>
<g>
</g>
<g>
</g>
<g>
</g>
<g>
</g>
<g>
</g>
<g>
</g>
<g>
</g>
<g>
</g>
<g>
</g>
<g>
</g>
</svg>
