<?xml version="1.0" encoding="iso-8859-1"?>
<!-- Generator: Adobe Illustrator 16.0.0, SVG Export Plug-In . SVG Version: 6.00 Build 0)  -->
<!DOCTYPE svg PUBLIC "-//W3C//DTD SVG 1.1//EN" "http://www.w3.org/Graphics/SVG/1.1/DTD/svg11.dtd">
<svg version="1.1" id="Capa_1" xmlns="http://www.w3.org/2000/svg" xmlns:xlink="http://www.w3.org/1999/xlink" x="0px" y="0px"
	 width="65.047px" height="65.047px" viewBox="0 0 65.047 65.047" style="enable-background:new 0 0 65.047 65.047;"
	 xml:space="preserve">
<g>
	<g>
		<path d="M58.375,65.047H6.671C2.993,65.047,0,62.055,0,58.375V6.671C0,2.992,2.993,0,6.671,0h51.704
			c3.682,0,6.672,2.992,6.672,6.671v51.704C65.047,62.055,62.057,65.047,58.375,65.047z M6.671,3.336
			c-1.84,0-3.335,1.497-3.335,3.335v51.704c0,1.839,1.496,3.336,3.335,3.336h51.704c1.839,0,3.336-1.497,3.336-3.336V6.671
			c0-1.838-1.497-3.335-3.336-3.335H6.671z"/>
		<g>
			<rect x="16.955" y="20.552" width="23.628" height="5.004"/>
			<polygon points="40.585,23.058 40.585,29.172 48.09,23.058 40.586,16.939 			"/>
			<g>
				<rect x="24.462" y="39.803" width="23.628" height="5.004"/>
				<polygon points="24.462,42.303 24.462,36.188 16.957,42.303 24.461,48.418 				"/>
			</g>
		</g>
	</g>
</g>
<g>
</g>
<g>
</g>
<g>
</g>
<g>
</g>
<g>
</g>
<g>
</g>
<g>
</g>
<g>
</g>
<g>
</g>
<g>
</g>
<g>
</g>
<g>
</g>
<g>
</g>
<g>
</g>
<g>
</g>
</svg>
