<?xml version="1.0" encoding="iso-8859-1"?>
<!-- Generator: Adobe Illustrator 16.0.0, SVG Export Plug-In . SVG Version: 6.00 Build 0)  -->
<!DOCTYPE svg PUBLIC "-//W3C//DTD SVG 1.1//EN" "http://www.w3.org/Graphics/SVG/1.1/DTD/svg11.dtd">
<svg version="1.1" id="Capa_1" xmlns="http://www.w3.org/2000/svg" xmlns:xlink="http://www.w3.org/1999/xlink" x="0px" y="0px"
	 width="87.541px" height="87.54px" viewBox="0 0 87.541 87.54" style="enable-background:new 0 0 87.541 87.54;"
	 xml:space="preserve">
<g>
	<g id="Ring">
		<g>
			<path d="M51.963,20.606l4.96-11.326c0.297-0.674,0.053-1.471-0.564-1.845L44.478,0.201c-0.436-0.268-0.98-0.268-1.417,0
				L31.181,7.436c-0.618,0.374-0.861,1.171-0.564,1.845l4.96,11.326c-14.164,3.777-24.659,17.111-24.659,32.931
				c0,18.752,14.737,34.002,32.853,34.002c18.116,0,32.852-15.25,32.852-34.002C76.623,37.718,66.127,24.384,51.963,20.606z
				 M33.68,9.27l10.09-6.144L53.859,9.27l-4.7,10.731c-1.755-0.301-3.554-0.465-5.389-0.465c-1.836,0-3.635,0.164-5.389,0.465
				L33.68,9.27z M43.771,81.755c-15.031,0-27.259-12.655-27.259-28.217c0-15.561,12.229-28.217,27.259-28.217
				s27.258,12.656,27.258,28.217C71.029,69.1,58.8,81.755,43.771,81.755z"/>
		</g>
	</g>
</g>
<g>
</g>
<g>
</g>
<g>
</g>
<g>
</g>
<g>
</g>
<g>
</g>
<g>
</g>
<g>
</g>
<g>
</g>
<g>
</g>
<g>
</g>
<g>
</g>
<g>
</g>
<g>
</g>
<g>
</g>
</svg>
