<?xml version="1.0" encoding="iso-8859-1"?>
<!-- Generator: Adobe Illustrator 16.0.0, SVG Export Plug-In . SVG Version: 6.00 Build 0)  -->
<!DOCTYPE svg PUBLIC "-//W3C//DTD SVG 1.1//EN" "http://www.w3.org/Graphics/SVG/1.1/DTD/svg11.dtd">
<svg version="1.1" id="Capa_1" xmlns="http://www.w3.org/2000/svg" xmlns:xlink="http://www.w3.org/1999/xlink" x="0px" y="0px"
	 width="31.568px" height="31.568px" viewBox="0 0 31.568 31.568" style="enable-background:new 0 0 31.568 31.568;"
	 xml:space="preserve">
<g>
	<g>
		<path d="M1.737,31.568h8.282V0H1.737V31.568z M3.872,2.958h4.016V9.65H3.872V2.958z M3.872,11.964h4.016v2.776H3.872V11.964z
			 M5.878,24.596c1.11,0,2.009,0.897,2.009,2.008c0,1.107-0.898,2.008-2.009,2.008c-1.108,0-2.007-0.9-2.007-2.008
			C3.872,25.494,4.771,24.596,5.878,24.596z"/>
		<path d="M11.794,0v31.568h18.037V0H11.794z M27.772,29.51H13.854V2.06h13.918V29.51z"/>
		<rect x="15.86" y="4.095" width="1.984" height="23.484"/>
		<rect x="19.819" y="4.095" width="1.984" height="23.484"/>
		<rect x="23.79" y="4.095" width="1.984" height="23.484"/>
	</g>
</g>
<g>
</g>
<g>
</g>
<g>
</g>
<g>
</g>
<g>
</g>
<g>
</g>
<g>
</g>
<g>
</g>
<g>
</g>
<g>
</g>
<g>
</g>
<g>
</g>
<g>
</g>
<g>
</g>
<g>
</g>
</svg>
