<?xml version="1.0" encoding="iso-8859-1"?>
<!-- Generator: Adobe Illustrator 16.0.0, SVG Export Plug-In . SVG Version: 6.00 Build 0)  -->
<!DOCTYPE svg PUBLIC "-//W3C//DTD SVG 1.1//EN" "http://www.w3.org/Graphics/SVG/1.1/DTD/svg11.dtd">
<svg version="1.1" id="Capa_1" xmlns="http://www.w3.org/2000/svg" xmlns:xlink="http://www.w3.org/1999/xlink" x="0px" y="0px"
	 width="66.137px" height="66.137px" viewBox="0 0 66.137 66.137" style="enable-background:new 0 0 66.137 66.137;"
	 xml:space="preserve">
<g>
	<path d="M33.068,0.001C14.834,0.001,0,14.835,0,33.069c0,18.233,14.834,33.067,33.068,33.067s33.069-14.834,33.069-33.067
		C66.137,14.835,51.302,0.001,33.068,0.001z M33.068,62.135C17.04,62.135,4,49.096,4,33.069C4,17.041,17.04,4.001,33.068,4.001
		s29.069,13.04,29.069,29.068C62.137,49.096,49.096,62.135,33.068,62.135z M35.896,33.069l6.789,6.792l0.418-2.746l3.955,0.603
		l-1.233,8.108l-8.11,1.234l-0.602-3.953l2.744-0.418l-6.791-6.791l-6.82,6.819l2.548,0.39l-0.601,3.953l-8.108-1.233l-1.232-8.109
		l3.954-0.603l0.447,2.938l6.984-6.983l-6.985-6.985l-0.447,2.938l-3.954-0.601l1.232-8.108l8.109-1.233l0.602,3.954l-2.547,0.388
		l6.819,6.819l6.79-6.789l-2.744-0.417l0.603-3.955l8.108,1.234l1.234,8.109l-3.955,0.601l-0.418-2.744L35.896,33.069z"/>
</g>
<g>
</g>
<g>
</g>
<g>
</g>
<g>
</g>
<g>
</g>
<g>
</g>
<g>
</g>
<g>
</g>
<g>
</g>
<g>
</g>
<g>
</g>
<g>
</g>
<g>
</g>
<g>
</g>
<g>
</g>
</svg>
