<?xml version="1.0" encoding="iso-8859-1"?>
<!-- Generator: Adobe Illustrator 16.0.0, SVG Export Plug-In . SVG Version: 6.00 Build 0)  -->
<!DOCTYPE svg PUBLIC "-//W3C//DTD SVG 1.1//EN" "http://www.w3.org/Graphics/SVG/1.1/DTD/svg11.dtd">
<svg version="1.1" id="Capa_1" xmlns="http://www.w3.org/2000/svg" xmlns:xlink="http://www.w3.org/1999/xlink" x="0px" y="0px"
	 width="51.816px" height="51.816px" viewBox="0 0 51.816 51.816" style="enable-background:new 0 0 51.816 51.816;"
	 xml:space="preserve">
<g>
	<g>
		<path d="M44.562,0H7.253C4.966,0,3.107,1.859,3.107,4.146v29.017c0,2.286,1.857,4.146,4.146,4.146h37.31
			c2.286,0,4.146-1.859,4.146-4.146V4.146C48.707,1.859,46.848,0,44.562,0z M7.253,33.165V4.146h37.31l0.003,29.019H7.253z"/>
		<polygon points="33.162,41.453 18.652,41.453 18.652,47.671 11.572,47.671 11.572,49.744 11.572,51.816 26.082,51.816 
			40.59,51.816 40.59,49.744 40.59,47.671 33.162,47.671 		"/>
	</g>
</g>
<g>
</g>
<g>
</g>
<g>
</g>
<g>
</g>
<g>
</g>
<g>
</g>
<g>
</g>
<g>
</g>
<g>
</g>
<g>
</g>
<g>
</g>
<g>
</g>
<g>
</g>
<g>
</g>
<g>
</g>
</svg>
