<?xml version="1.0" encoding="iso-8859-1"?>
<!-- Generator: Adobe Illustrator 16.0.0, SVG Export Plug-In . SVG Version: 6.00 Build 0)  -->
<!DOCTYPE svg PUBLIC "-//W3C//DTD SVG 1.1//EN" "http://www.w3.org/Graphics/SVG/1.1/DTD/svg11.dtd">
<svg version="1.1" id="Capa_1" xmlns="http://www.w3.org/2000/svg" xmlns:xlink="http://www.w3.org/1999/xlink" x="0px" y="0px"
	 width="65.047px" height="65.047px" viewBox="0 0 65.047 65.047" style="enable-background:new 0 0 65.047 65.047;"
	 xml:space="preserve">
<g>
	<g>
		<path d="M58.375,65.047H6.671C2.994,65.047,0,62.055,0,58.375V6.672C0,2.993,2.994,0,6.671,0h51.704
			c3.678,0,6.671,2.993,6.671,6.672v51.704C65.046,62.055,62.055,65.047,58.375,65.047z M6.671,3.336
			c-1.84,0-3.335,1.496-3.335,3.336v51.704c0,1.839,1.496,3.335,3.335,3.335h51.704c1.839,0,3.336-1.496,3.336-3.335V6.672
			c0-1.84-1.497-3.336-3.336-3.336H6.671z"/>
		<g>
			<polygon points="31.859,37.792 31.822,37.855 31.787,37.835 31.751,37.855 31.714,37.792 17.374,29.337 17.374,43.572 
				47.672,43.572 47.672,28.469 			"/>
			<polygon points="31.787,32.026 47.672,22.66 47.672,21.475 17.374,21.475 17.374,23.528 			"/>
		</g>
	</g>
</g>
<g>
</g>
<g>
</g>
<g>
</g>
<g>
</g>
<g>
</g>
<g>
</g>
<g>
</g>
<g>
</g>
<g>
</g>
<g>
</g>
<g>
</g>
<g>
</g>
<g>
</g>
<g>
</g>
<g>
</g>
</svg>
