<?xml version="1.0" encoding="iso-8859-1"?>
<!-- Generator: Adobe Illustrator 16.0.0, SVG Export Plug-In . SVG Version: 6.00 Build 0)  -->
<!DOCTYPE svg PUBLIC "-//W3C//DTD SVG 1.1//EN" "http://www.w3.org/Graphics/SVG/1.1/DTD/svg11.dtd">
<svg version="1.1" id="Capa_1" xmlns="http://www.w3.org/2000/svg" xmlns:xlink="http://www.w3.org/1999/xlink" x="0px" y="0px"
	 width="31.636px" height="31.635px" viewBox="0 0 31.636 31.635" style="enable-background:new 0 0 31.636 31.635;"
	 xml:space="preserve">
<g>
	<g>
		<path d="M24.763,15.954c-3.797,0-6.874,3.076-6.874,6.873s3.077,6.875,6.874,6.875c3.796,0,6.873-3.078,6.873-6.875
			S28.559,15.954,24.763,15.954z M28.048,23.847h-2.267v2.267h-2.039v-2.267h-2.268v-2.039h2.268v-2.267h2.039v2.267h2.267V23.847z"
			/>
		<path d="M24.763,14.933c1.707,0,3.284,0.551,4.577,1.476c0.816-1.651,1.32-3.442,1.32-5.354c0-5.037-3.583-9.12-8.004-9.12
			c-3.275,0-6.088,2.245-7.326,5.456c-1.238-3.211-4.05-5.456-7.326-5.456C3.583,1.934,0,6.017,0,11.054
			c0,10.56,15.459,17.433,15.459,17.433s1.083-0.492,2.666-1.406c-0.79-1.229-1.254-2.688-1.254-4.254
			C16.869,18.473,20.41,14.933,24.763,14.933z"/>
	</g>
</g>
<g>
</g>
<g>
</g>
<g>
</g>
<g>
</g>
<g>
</g>
<g>
</g>
<g>
</g>
<g>
</g>
<g>
</g>
<g>
</g>
<g>
</g>
<g>
</g>
<g>
</g>
<g>
</g>
<g>
</g>
</svg>
