<?xml version="1.0" encoding="iso-8859-1"?>
<!-- Generator: Adobe Illustrator 16.0.0, SVG Export Plug-In . SVG Version: 6.00 Build 0)  -->
<!DOCTYPE svg PUBLIC "-//W3C//DTD SVG 1.1//EN" "http://www.w3.org/Graphics/SVG/1.1/DTD/svg11.dtd">
<svg version="1.1" id="Capa_1" xmlns="http://www.w3.org/2000/svg" xmlns:xlink="http://www.w3.org/1999/xlink" x="0px" y="0px"
	 width="53.783px" height="53.783px" viewBox="0 0 53.783 53.783" style="enable-background:new 0 0 53.783 53.783;"
	 xml:space="preserve">
<g>
	<g>
		<path d="M49.525,18.599h-3.928v-2.072c0-2.286-1.908-4.145-4.256-4.145H4.254C1.908,12.382,0,14.242,0,16.527v20.728
			c0,2.285,1.908,4.146,4.254,4.146h37.094c2.346,0,4.256-1.857,4.254-4.146v-2.074h3.928c2.346,0,4.255-1.858,4.254-4.146v-8.287
			C53.779,20.458,51.872,18.599,49.525,18.599z M41.344,37.253H4.146l0.107-20.726h37.199l0.012,20.687
			C41.465,37.21,41.43,37.253,41.344,37.253z M49.525,31.034h-3.928v-8.289h4.032L49.525,31.034z"/>
		<rect x="8.291" y="20.714" width="4.146" height="12.438"/>
	</g>
</g>
<g>
</g>
<g>
</g>
<g>
</g>
<g>
</g>
<g>
</g>
<g>
</g>
<g>
</g>
<g>
</g>
<g>
</g>
<g>
</g>
<g>
</g>
<g>
</g>
<g>
</g>
<g>
</g>
<g>
</g>
</svg>
