<?xml version="1.0" encoding="iso-8859-1"?>
<!-- Generator: Adobe Illustrator 16.0.0, SVG Export Plug-In . SVG Version: 6.00 Build 0)  -->
<!DOCTYPE svg PUBLIC "-//W3C//DTD SVG 1.1//EN" "http://www.w3.org/Graphics/SVG/1.1/DTD/svg11.dtd">
<svg version="1.1" id="Capa_1" xmlns="http://www.w3.org/2000/svg" xmlns:xlink="http://www.w3.org/1999/xlink" x="0px" y="0px"
	 width="31.038px" height="31.038px" viewBox="0 0 31.038 31.038" style="enable-background:new 0 0 31.038 31.038;"
	 xml:space="preserve">
<g>
	<g>
		<path d="M29.617,20.866c-0.307-0.054-0.614-0.098-0.922-0.141l1.365-2.336c0.916-1.565,0.387-3.583-1.179-4.498l-1.428-0.834
			c-1.565-0.916-3.583-0.387-4.498,1.179l-1.041,1.781c-0.086,0.146-0.104,0.325-0.049,0.486c0.056,0.162,0.179,0.292,0.338,0.356
			c0.317,0.127,0.638,0.252,0.957,0.379c0.271,0.107,0.578,0.001,0.726-0.25l0.963-1.647c0.305-0.521,0.978-0.697,1.5-0.394
			l1.426,0.834c0.522,0.305,0.699,0.978,0.394,1.5l-1.874,3.207c0,0-2.979-0.153-6.77,0.377c-0.728,0.102-1.303,0.858-1.303,1.576
			v6.579c0,0.718,0.58,1.44,1.303,1.575c3.339,0.588,6.754,0.588,10.092,0c0.723-0.136,1.304-0.857,1.304-1.575v-6.579
			C30.921,21.726,30.34,21.001,29.617,20.866z M25.416,27.659h-1.689l0.455-1.84c-0.385-0.155-0.656-0.529-0.656-0.969
			c0-0.578,0.469-1.048,1.047-1.048s1.046,0.47,1.046,1.048c0,0.438-0.271,0.812-0.656,0.969L25.416,27.659z"/>
		<path d="M23.504,19.473c0.211-0.018,0.374-0.192,0.374-0.404v-0.187c0-0.165-0.101-0.312-0.252-0.375l-0.375-0.152
			c-0.137-0.057-0.839-0.343-1.542-0.629c-0.396-0.161-0.703-0.487-0.84-0.893s-0.092-0.85,0.124-1.219l1.101-1.882
			c0.689-1.182,1.913-1.952,3.262-2.094v-5.47c0-0.327-0.191-0.624-0.489-0.759L13.079,0.074c-0.218-0.099-0.468-0.099-0.687,0
			L0.606,5.41C0.308,5.545,0.117,5.842,0.117,6.169v13.41c0,0.329,0.194,0.627,0.494,0.761l11.787,5.24
			c0.215,0.096,0.461,0.096,0.677,0l4.147-1.844v-1.293c0-1.213,0.932-2.337,2.121-2.56C19.628,19.833,22.432,19.556,23.504,19.473z
			 M10.866,22.854l-8.88-3.947V8.509l8.88,3.947V22.854z"/>
	</g>
</g>
<g>
</g>
<g>
</g>
<g>
</g>
<g>
</g>
<g>
</g>
<g>
</g>
<g>
</g>
<g>
</g>
<g>
</g>
<g>
</g>
<g>
</g>
<g>
</g>
<g>
</g>
<g>
</g>
<g>
</g>
</svg>
