<?xml version="1.0" encoding="iso-8859-1"?>
<!-- Generator: Adobe Illustrator 16.0.0, SVG Export Plug-In . SVG Version: 6.00 Build 0)  -->
<!DOCTYPE svg PUBLIC "-//W3C//DTD SVG 1.1//EN" "http://www.w3.org/Graphics/SVG/1.1/DTD/svg11.dtd">
<svg version="1.1" id="Capa_1" xmlns="http://www.w3.org/2000/svg" xmlns:xlink="http://www.w3.org/1999/xlink" x="0px" y="0px"
	 width="31.324px" height="31.324px" viewBox="0 0 31.324 31.324" style="enable-background:new 0 0 31.324 31.324;"
	 xml:space="preserve">
<g>
	<g>
		<g>
			<path d="M16.498,22.673c0.988,0.988,2.591,0.988,3.579,0l6.497-6.497c0.988-0.988,0.987-2.59,0-3.577L14.717,0.741
				c-0.988-0.988-2.59-0.988-3.578,0L4.641,7.238c-0.988,0.988-0.988,2.59,0,3.578L16.498,22.673z M18.108,12.27
				c0.755-0.755,1.979-0.755,2.733,0c0.346,0.346,0.523,0.788,0.554,1.239c0.451,0.03,0.895,0.209,1.24,0.556
				c0.754,0.754,0.754,1.978,0,2.732s-1.979,0.755-2.733,0c-0.345-0.345-0.523-0.788-0.554-1.238
				c-0.452-0.029-0.896-0.209-1.24-0.555C17.354,14.248,17.354,13.024,18.108,12.27z M9.982,11.813l1.281-1.281l0.723,0.722
				l-1.281,1.282L9.982,11.813z M11.654,13.485l1.282-1.282l0.722,0.723l-1.282,1.281L11.654,13.485z M14.048,15.879l-0.723-0.723
				l1.281-1.281l0.723,0.723L14.048,15.879z M11.115,3.995l5.016,5.014l-1.282,1.281L9.834,5.276L11.115,3.995z M10.314,9.583
				l-1.281,1.281L8.31,10.143L9.592,8.86L10.314,9.583z M7.92,7.189l0.722,0.722L7.361,9.193L6.639,8.472L7.92,7.189z"/>
		</g>
		<g>
			<path d="M26.682,20.508l-1.497-1.496L20.8,23.396c-1.386,1.385-3.639,1.385-5.023,0l-9.637-9.638l-1.39,1.39
				c-0.988,0.989-0.988,2.591,0,3.579l11.857,11.856c0.988,0.988,2.59,0.988,3.578,0l6.497-6.497
				C27.671,23.099,27.671,21.496,26.682,20.508z"/>
		</g>
	</g>
</g>
<g>
</g>
<g>
</g>
<g>
</g>
<g>
</g>
<g>
</g>
<g>
</g>
<g>
</g>
<g>
</g>
<g>
</g>
<g>
</g>
<g>
</g>
<g>
</g>
<g>
</g>
<g>
</g>
<g>
</g>
</svg>
