<?xml version="1.0" encoding="iso-8859-1"?>
<!-- Generator: Adobe Illustrator 16.0.0, SVG Export Plug-In . SVG Version: 6.00 Build 0)  -->
<!DOCTYPE svg PUBLIC "-//W3C//DTD SVG 1.1//EN" "http://www.w3.org/Graphics/SVG/1.1/DTD/svg11.dtd">
<svg version="1.1" id="Capa_1" xmlns="http://www.w3.org/2000/svg" xmlns:xlink="http://www.w3.org/1999/xlink" x="0px" y="0px"
	 width="31.395px" height="31.395px" viewBox="0 0 31.395 31.395" style="enable-background:new 0 0 31.395 31.395;"
	 xml:space="preserve">
<g>
	<g>
		<path d="M29.659,18.393l-2.823-4.889c-0.383-0.665-1.343-0.665-1.727,0l-2.821,4.889c-0.384,0.664,0.096,1.494,0.862,1.494h0.666
			c0.11,0,0.214,0.049,0.283,0.133c0.07,0.084,0.1,0.195,0.079,0.303c-0.916,4.891-5.557,8.484-10.854,7.707
			c-4.036-0.59-7.311-3.774-7.996-7.795c-1.027-6.02,3.604-11.257,9.436-11.257c1.891,0,3.715,0.549,5.284,1.588
			c0.729,0.482,1.737,0.387,2.271-0.304c0.58-0.752,0.398-1.826-0.375-2.349c-1.129-0.762-2.362-1.313-3.652-1.681
			c0.352-0.61,0.568-1.309,0.568-2.062C18.861,1.87,16.99,0,14.692,0c-2.298,0-4.169,1.871-4.169,4.169
			c0,0.764,0.221,1.472,0.582,2.088C9.307,6.794,7.673,7.714,6.298,8.923l-0.83-0.841L6.076,7.52c0.33-0.305,0.352-0.82,0.045-1.151
			L5.47,5.665c-0.306-0.33-0.821-0.35-1.152-0.045L1.863,7.891c-0.331,0.305-0.352,0.82-0.046,1.151l0.649,0.703
			c0.306,0.331,0.82,0.351,1.151,0.045l0.462-0.426l0.894,0.907c-2.157,2.542-3.345,5.93-2.98,9.59
			c0.601,6.055,5.506,10.92,11.564,11.478c7.049,0.647,13.077-4.444,13.94-11.131c0.022-0.183,0.18-0.321,0.364-0.321h0.935
			C29.562,19.887,30.042,19.057,29.659,18.393z M14.69,1.969c1.212,0,2.199,0.986,2.199,2.199c0,0.543-0.205,1.034-0.533,1.418V4.57
			H13.04v1.034c-0.337-0.386-0.548-0.885-0.548-1.437C12.492,2.956,13.478,1.969,14.69,1.969z"/>
		<path d="M16.243,18.285c0-0.873-0.708-1.58-1.581-1.58V9.822c-4.623,0.059-8.353,3.819-8.353,8.456c0,0.004,0,0.006,0,0.008h6.772
			c0,0.873,0.708,1.582,1.581,1.582S16.243,19.158,16.243,18.285z"/>
		<path d="M13.662,21.677v4.627c0,0.552,0.448,1,1,1c0.552,0,1-0.448,1-1v-4.627c0-0.552-0.448-1-1-1
			C14.11,20.677,13.662,21.125,13.662,21.677z"/>
		<path d="M20.325,16.941h-2.537c-0.552,0-1,0.448-1,1c0,0.553,0.448,1,1,1h2.537c0.552,0,1-0.447,1-1
			C21.325,17.39,20.877,16.941,20.325,16.941z"/>
	</g>
</g>
<g>
</g>
<g>
</g>
<g>
</g>
<g>
</g>
<g>
</g>
<g>
</g>
<g>
</g>
<g>
</g>
<g>
</g>
<g>
</g>
<g>
</g>
<g>
</g>
<g>
</g>
<g>
</g>
<g>
</g>
</svg>
