<?xml version="1.0" encoding="iso-8859-1"?>
<!-- Generator: Adobe Illustrator 16.0.0, SVG Export Plug-In . SVG Version: 6.00 Build 0)  -->
<!DOCTYPE svg PUBLIC "-//W3C//DTD SVG 1.1//EN" "http://www.w3.org/Graphics/SVG/1.1/DTD/svg11.dtd">
<svg version="1.1" id="Capa_1" xmlns="http://www.w3.org/2000/svg" xmlns:xlink="http://www.w3.org/1999/xlink" x="0px" y="0px"
	 width="30.529px" height="30.529px" viewBox="0 0 30.529 30.529" style="enable-background:new 0 0 30.529 30.529;"
	 xml:space="preserve">
<g>
	<g>
		<g>
			<path d="M15.266,7.062L15.266,7.062c-2.208,0-4.211,0.88-5.686,2.305C9.543,9.402,9.403,9.544,9.368,9.579
				c-1.424,1.476-2.305,3.479-2.305,5.685v0.001c0,4.521,3.681,8.202,8.202,8.202h0.001c2.207,0,4.208-0.88,5.686-2.305
				c0.036-0.035,0.177-0.177,0.213-0.212c1.423-1.477,2.303-3.479,2.303-5.685v-0.001C23.467,10.743,19.789,7.062,15.266,7.062z
				 M8.969,11.867c0.002-0.004,0.003-0.008,0.004-0.011c0.106-0.194,0.222-0.382,0.344-0.565c0.576,0.212,1.149,0.386,1.716,0.522
				c-0.162,0.892-0.288,1.896-0.327,2.985H8.133C8.201,13.743,8.49,12.749,8.969,11.867z M9.318,19.239
				c-0.662-0.985-1.08-2.147-1.18-3.397h2.561c0.015,0.935,0.102,1.917,0.282,2.929C10.242,18.94,9.668,19.12,9.318,19.239z
				 M10.018,20.114c0.307-0.094,0.705-0.203,1.182-0.314c0.131,0.549,0.294,1.1,0.49,1.656
				C11.065,21.095,10.503,20.642,10.018,20.114z M11.245,10.789c-0.411-0.1-0.824-0.218-1.241-0.359
				c0.054-0.059,0.673-0.795,1.723-1.378C11.576,9.518,11.403,10.104,11.245,10.789z M14.744,22.396
				c-0.586-0.043-1.154-0.152-1.692-0.328c-0.355-0.83-0.625-1.658-0.823-2.477c0.74-0.129,1.59-0.232,2.515-0.271V22.396z
				 M14.744,18.259c-1.007,0.04-1.929,0.154-2.729,0.297c-0.161-0.934-0.24-1.845-0.253-2.715h2.982V18.259z M14.744,14.798h-2.971
				c0.041-1.005,0.157-1.936,0.303-2.765c0.923,0.16,1.816,0.232,2.668,0.247V14.798z M14.744,11.225
				c-0.786-0.013-1.612-0.081-2.458-0.223c0.287-1.251,0.616-2.153,0.767-2.541c0.538-0.176,1.104-0.285,1.69-0.327L14.744,11.225
				L14.744,11.225z M15.787,8.134c0.587,0.042,1.154,0.152,1.692,0.327c0.15,0.381,0.473,1.264,0.758,2.488
				c-0.725,0.125-1.553,0.224-2.45,0.262V8.134z M15.787,12.27c0.98-0.038,1.878-0.148,2.665-0.286
				c0.15,0.841,0.271,1.788,0.312,2.814h-2.975L15.787,12.27L15.787,12.27z M17.479,22.067c-0.537,0.176-1.105,0.285-1.693,0.328
				v-3.092c0.809,0.014,1.66,0.084,2.529,0.235C18.117,20.373,17.844,21.22,17.479,22.067z M18.527,18.511
				c-0.946-0.169-1.866-0.248-2.74-0.263v-2.407h2.985C18.759,16.696,18.685,17.593,18.527,18.511z M20.513,10.414
				c-0.318,0.098-0.734,0.214-1.234,0.329c-0.156-0.666-0.325-1.234-0.474-1.691C19.443,9.417,20.016,9.877,20.513,10.414z
				 M18.841,21.455c0.203-0.569,0.368-1.138,0.502-1.701c0.394,0.099,0.788,0.212,1.185,0.347
				C20.473,20.158,19.906,20.84,18.841,21.455z M21.58,18.628c-0.007,0.016-0.015,0.03-0.022,0.045
				c-0.104,0.193-0.221,0.381-0.342,0.562c-0.555-0.205-1.109-0.373-1.657-0.506c0.177-0.998,0.26-1.965,0.275-2.889h2.56
				C22.312,16.842,22.03,17.787,21.58,18.628z M22.397,14.798h-2.573c-0.04-1.105-0.167-2.124-0.333-3.023
				c0.769-0.178,1.36-0.361,1.722-0.485C21.895,12.305,22.314,13.506,22.397,14.798z"/>
		</g>
		<g>
			<path d="M2.514,15.402l4.757-3.674c0.647-0.5,0.511-1.511-0.245-1.822L6.482,9.635C6.393,9.59,6.327,9.507,6.301,9.409
				c-0.026-0.098-0.007-0.202,0.05-0.286c1.963-2.874,5.258-4.767,8.995-4.767c5.975,0,10.836,4.828,10.904,10.786
				c0.062-0.002,0.123-0.008,0.185-0.01l1.003-0.774c0.36-0.278,0.788-0.426,1.239-0.426c0.551,0,1.054,0.229,1.425,0.593
				C29.713,6.698,23.269,0.464,15.346,0.464c-5.385,0-10.085,2.884-12.67,7.187c-0.122,0.203-0.372,0.29-0.593,0.206L1.465,7.623
				C0.708,7.314-0.099,7.937,0.01,8.747l0.804,5.957C0.923,15.513,1.868,15.901,2.514,15.402z"/>
		</g>
		<g>
			<path d="M29.718,15.826c-0.11-0.809-1.054-1.198-1.7-0.698l-4.758,3.674c-0.646,0.5-0.511,1.512,0.246,1.822l0.542,0.271
				c0.09,0.045,0.157,0.127,0.183,0.226s0.007,0.202-0.05,0.286c-1.964,2.873-5.259,4.767-8.996,4.767
				c-5.974,0-10.836-4.827-10.903-10.786c-0.062,0.002-0.124,0.008-0.186,0.01l-1.003,0.773c-0.36,0.277-0.788,0.426-1.238,0.426
				c-0.551,0-1.054-0.229-1.425-0.593c0.388,7.828,6.831,14.062,14.754,14.062c5.386,0,10.086-2.885,12.67-7.188
				c0.123-0.203,0.372-0.29,0.594-0.206l0.618,0.233c0.757,0.31,1.563-0.313,1.454-1.123L29.718,15.826z"/>
		</g>
	</g>
</g>
<g>
</g>
<g>
</g>
<g>
</g>
<g>
</g>
<g>
</g>
<g>
</g>
<g>
</g>
<g>
</g>
<g>
</g>
<g>
</g>
<g>
</g>
<g>
</g>
<g>
</g>
<g>
</g>
<g>
</g>
</svg>
