<?xml version="1.0" encoding="iso-8859-1"?>
<!-- Generator: Adobe Illustrator 16.0.0, SVG Export Plug-In . SVG Version: 6.00 Build 0)  -->
<!DOCTYPE svg PUBLIC "-//W3C//DTD SVG 1.1//EN" "http://www.w3.org/Graphics/SVG/1.1/DTD/svg11.dtd">
<svg version="1.1" id="Capa_1" xmlns="http://www.w3.org/2000/svg" xmlns:xlink="http://www.w3.org/1999/xlink" x="0px" y="0px"
	 width="31.118px" height="31.118px" viewBox="0 0 31.118 31.118" style="enable-background:new 0 0 31.118 31.118;"
	 xml:space="preserve">
<g>
	<g>
		<g>
			<path d="M30.712,26.96l-2.981-2.981c0.625-0.982,0.992-2.145,0.992-3.393c0-3.5-2.849-6.346-6.348-6.346
				s-6.346,2.847-6.346,6.346s2.847,6.346,6.346,6.346c1.247,0,2.409-0.367,3.393-0.992l2.982,2.983
				c0.271,0.271,0.625,0.407,0.98,0.407c0.354,0,0.709-0.137,0.98-0.407C31.254,28.381,31.254,27.502,30.712,26.96z M22.375,24.95
				c-2.404,0-4.361-1.957-4.361-4.363s1.957-4.363,4.361-4.363c2.406,0,4.363,1.959,4.363,4.363S24.782,24.95,22.375,24.95z"/>
		</g>
		<g>
			<path d="M22.375,13.336c1.581,0,3.042,0.515,4.232,1.377V8.428c0-0.561-0.284-1.378-0.635-1.817l-3.346-4.197
				c-0.316-0.396-0.795-0.627-1.303-0.627H5.284c-0.507,0-0.986,0.231-1.303,0.627L0.636,6.611C0.287,7.05,0,7.867,0,8.428v14.485
				c0,1.149,0.932,2.082,2.082,2.082h14.553c-0.942-1.224-1.509-2.75-1.509-4.409C15.126,16.588,18.378,13.336,22.375,13.336z
				 M1.73,6.576l1.107-1.39h6.979l0.903-1.227H3.815l0.818-1.026c0.159-0.2,0.396-0.314,0.651-0.314h16.04
				c0.256,0,0.492,0.114,0.65,0.314l0.819,1.026h-6.903l0.904,1.227h6.977l1.106,1.39H1.73z"/>
		</g>
	</g>
</g>
<g>
</g>
<g>
</g>
<g>
</g>
<g>
</g>
<g>
</g>
<g>
</g>
<g>
</g>
<g>
</g>
<g>
</g>
<g>
</g>
<g>
</g>
<g>
</g>
<g>
</g>
<g>
</g>
<g>
</g>
</svg>
