<?xml version="1.0" encoding="iso-8859-1"?>
<!-- Generator: Adobe Illustrator 16.0.0, SVG Export Plug-In . SVG Version: 6.00 Build 0)  -->
<!DOCTYPE svg PUBLIC "-//W3C//DTD SVG 1.1//EN" "http://www.w3.org/Graphics/SVG/1.1/DTD/svg11.dtd">
<svg version="1.1" id="Capa_1" xmlns="http://www.w3.org/2000/svg" xmlns:xlink="http://www.w3.org/1999/xlink" x="0px" y="0px"
	 width="31.221px" height="31.221px" viewBox="0 0 31.221 31.221" style="enable-background:new 0 0 31.221 31.221;"
	 xml:space="preserve">
<g>
	<g>
		<path d="M26.074,24.379c-1.09,0-1.975,0.884-1.975,1.975c0,1.09,0.885,1.975,1.975,1.975c1.091,0,1.974-0.885,1.974-1.975
			C28.048,25.263,27.165,24.379,26.074,24.379z M26.074,27.34c-0.545,0-0.986-0.441-0.986-0.986c0-0.546,0.441-0.988,0.986-0.988
			c0.543,0,0.986,0.442,0.986,0.988C27.061,26.898,26.617,27.34,26.074,27.34z"/>
		<path d="M15.745,24.379c-1.089,0-1.973,0.884-1.973,1.975c0,1.09,0.884,1.975,1.973,1.975c1.09,0,1.974-0.885,1.974-1.975
			C17.719,25.263,16.836,24.379,15.745,24.379z M15.745,27.34c-0.544,0-0.987-0.441-0.987-0.986c0-0.546,0.442-0.988,0.987-0.988
			c0.545,0,0.988,0.442,0.988,0.988C16.732,26.898,16.291,27.34,15.745,27.34z"/>
		<path d="M30.447,24.379v-5.023L27.25,14.67h-4.9l-0.004,9.617h-4.859c0.498,0.422,0.84,1.013,0.935,1.688h4.978
			c0.186-1.319,1.307-2.337,2.676-2.337s2.49,1.018,2.676,2.337h2.471v-1.597H30.447z M23.791,19.22v-2.828l2.949,0.015l1.912,2.813
			H23.791z"/>
		<path d="M10.244,24.287v1.689h2.827c0.095-0.677,0.436-1.268,0.933-1.689H10.244z"/>
		<polygon points="1.686,9.556 12.99,4.726 24.294,9.556 24.294,13.54 25.98,13.54 25.98,8.443 12.99,2.893 0,8.443 0,25.977 
			8.969,25.977 8.969,24.324 1.686,24.324 		"/>
		<rect x="3.117" y="19.355" width="5.853" height="3.614"/>
		<rect x="10.072" y="19.355" width="5.853" height="3.614"/>
		<rect x="17.029" y="19.355" width="4.011" height="3.614"/>
		<rect x="3.117" y="14.386" width="5.853" height="3.615"/>
		<rect x="10.072" y="14.386" width="5.853" height="3.615"/>
		<rect x="10.072" y="9.416" width="5.853" height="3.615"/>
	</g>
</g>
<g>
</g>
<g>
</g>
<g>
</g>
<g>
</g>
<g>
</g>
<g>
</g>
<g>
</g>
<g>
</g>
<g>
</g>
<g>
</g>
<g>
</g>
<g>
</g>
<g>
</g>
<g>
</g>
<g>
</g>
</svg>
