<?xml version="1.0" encoding="iso-8859-1"?>
<!-- Generator: Adobe Illustrator 16.0.0, SVG Export Plug-In . SVG Version: 6.00 Build 0)  -->
<!DOCTYPE svg PUBLIC "-//W3C//DTD SVG 1.1//EN" "http://www.w3.org/Graphics/SVG/1.1/DTD/svg11.dtd">
<svg version="1.1" id="Capa_1" xmlns="http://www.w3.org/2000/svg" xmlns:xlink="http://www.w3.org/1999/xlink" x="0px" y="0px"
	 width="31.415px" height="31.415px" viewBox="0 0 31.415 31.415" style="enable-background:new 0 0 31.415 31.415;"
	 xml:space="preserve">
<g>
	<g>
		<g>
			<path d="M3.243,21.395c-1.661,0-3.008,1.348-3.008,3.01s1.347,3.009,3.008,3.009c1.662,0,3.009-1.347,3.009-3.009
				S4.905,21.395,3.243,21.395z M3.243,25.909c-0.83,0-1.505-0.675-1.505-1.505S2.413,22.9,3.243,22.9
				c0.831,0,1.505,0.674,1.505,1.504S4.074,25.909,3.243,25.909z"/>
		</g>
		<g>
			<path d="M18.002,21.395c-1.661,0-3.009,1.348-3.009,3.01s1.348,3.009,3.009,3.009c1.662,0,3.01-1.347,3.01-3.009
				S19.664,21.395,18.002,21.395z M18.002,25.909c-0.831,0-1.504-0.675-1.504-1.505s0.673-1.504,1.504-1.504
				s1.505,0.674,1.505,1.504S18.833,25.909,18.002,25.909z"/>
		</g>
		<g>
			<path d="M31.414,12.61c0-0.381-0.309-0.689-0.689-0.689h-8.273c-0.604,0-1.094-0.49-1.094-1.094
				c-0.002-1.918-0.004-3.555-0.004-4.415c-0.002-0.356-0.291-0.645-0.647-0.645h-0.043c-0.466,0-0.845,0.378-0.845,0.844v14.327
				L11.989,5.495c-0.392-0.772-1.184-1.259-2.05-1.259H4.978c-0.846,0-1.532,0.686-1.532,1.532v8.043H1.915
				C0.856,13.811,0,14.668,0,15.725v6.752c0.658-1.105,1.865-1.846,3.244-1.846c1.994,0,3.634,1.555,3.768,3.52h7.223
				c0.003-0.047-0.025-1.01,0.723-1.973c1.184-1.525,3.045-1.602,4.013-1.416c1.049,0.2,1.881,0.967,2.368,1.893
				c0.017-0.904,0.021-5.174,0.019-9.194h9.369c0.381,0,0.688-0.309,0.688-0.689L31.414,12.61L31.414,12.61z M14.89,16.889H6.227
				c-0.216,0-0.384-0.172-0.384-0.383V6.985c0-0.211,0.168-0.383,0.384-0.383h3.771c0.146,0,0.276,0.081,0.341,0.207l4.891,9.521
				C15.361,16.586,15.177,16.889,14.89,16.889z"/>
		</g>
		<g>
			<path d="M30.678,4.691c0-0.381-0.309-0.689-0.688-0.689h-6.931c-0.381,0-0.688,0.309-0.688,0.689v5.527
				c0,0.381,0.31,0.688,0.688,0.688h6.931c0.381,0,0.688-0.309,0.688-0.688V4.691z"/>
		</g>
	</g>
</g>
<g>
</g>
<g>
</g>
<g>
</g>
<g>
</g>
<g>
</g>
<g>
</g>
<g>
</g>
<g>
</g>
<g>
</g>
<g>
</g>
<g>
</g>
<g>
</g>
<g>
</g>
<g>
</g>
<g>
</g>
</svg>
