<?xml version="1.0" encoding="iso-8859-1"?>
<!-- Generator: Adobe Illustrator 16.0.0, SVG Export Plug-In . SVG Version: 6.00 Build 0)  -->
<!DOCTYPE svg PUBLIC "-//W3C//DTD SVG 1.1//EN" "http://www.w3.org/Graphics/SVG/1.1/DTD/svg11.dtd">
<svg version="1.1" id="Capa_1" xmlns="http://www.w3.org/2000/svg" xmlns:xlink="http://www.w3.org/1999/xlink" x="0px" y="0px"
	 width="75.09px" height="75.09px" viewBox="0 0 75.09 75.09" style="enable-background:new 0 0 75.09 75.09;" xml:space="preserve"
	>
<g>
	<g id="_x34__x5F_3">
		<g>
			<path d="M63.71,29.157c-1.177-0.851-2.819-0.585-3.668,0.593L34.748,64.832c-0.011-0.008-0.023-0.017-0.035-0.023
				c-0.071,0.107-0.132,0.22-0.209,0.323c-3.651,5.066-10.737,6.211-15.794,2.554c-5.057-3.659-6.2-10.756-2.547-15.819
				c0.003-0.004,0.006-0.008,0.009-0.012c-0.008-0.004-0.014-0.009-0.022-0.012L47.493,8.371c2.42-3.357,7.117-4.117,10.47-1.693
				c3.351,2.427,4.108,7.13,1.688,10.486c-0.058,0.08-19.772,27.351-22.647,31.326c0.003,0.003,0.006,0.005,0.009,0.008
				c-0.139,0.208-0.32,0.438-0.429,0.59c-1.105,1.532-3.248,1.877-4.778,0.771c-1.53-1.105-1.875-3.254-0.771-4.785
				c0.062-0.083,0.224-0.356,0.348-0.546l16.569-22.979c0.848-1.18,0.582-2.823-0.594-3.675c-1.176-0.853-2.818-0.585-3.668,0.593
				L26.89,41.77c-0.077,0.106-0.131,0.224-0.192,0.335c0.003,0,0.006,0.001,0.011,0.001c-2.711,3.886-1.829,9.236,2.02,12.021
				c3.886,2.811,9.31,1.934,12.116-1.958c0.11-0.154,0.199-0.318,0.293-0.479c0.004,0.012,0.013,0.02,0.017,0.03
				c2.041-2.82,23.146-32.009,23.11-32.02c3.662-5.666,2.298-13.292-3.228-17.287C55.382-1.681,47.481-0.436,43.336,5.16
				c-0.003-0.002-0.004-0.003-0.006-0.005L11.742,48.968c-0.003,0.003-0.285,0.396-0.289,0.4c0.019,0.008,0.052-0.006,0.079-0.009
				c-4.877,7.383-3.129,17.362,4.102,22.594c7.1,5.136,16.881,3.807,22.405-2.833c0.009,0.03,0.005,0.084,0.023,0.103
				c0.006-0.01,0.571-0.788,0.577-0.799l25.66-35.592C65.151,31.653,64.885,30.009,63.71,29.157z"/>
		</g>
	</g>
</g>
<g>
</g>
<g>
</g>
<g>
</g>
<g>
</g>
<g>
</g>
<g>
</g>
<g>
</g>
<g>
</g>
<g>
</g>
<g>
</g>
<g>
</g>
<g>
</g>
<g>
</g>
<g>
</g>
<g>
</g>
</svg>
