<?xml version="1.0" encoding="iso-8859-1"?>
<!-- Generator: Adobe Illustrator 16.0.0, SVG Export Plug-In . SVG Version: 6.00 Build 0)  -->
<!DOCTYPE svg PUBLIC "-//W3C//DTD SVG 1.1//EN" "http://www.w3.org/Graphics/SVG/1.1/DTD/svg11.dtd">
<svg version="1.1" id="Capa_1" xmlns="http://www.w3.org/2000/svg" xmlns:xlink="http://www.w3.org/1999/xlink" x="0px" y="0px"
	 width="78.928px" height="78.928px" viewBox="0 0 78.928 78.928" style="enable-background:new 0 0 78.928 78.928;"
	 xml:space="preserve">
<g>
	<g id="_x34__x5F_1">
		<g>
			<path d="M70.352,24.857L49.318,1.009C48.74,0.354,48.048,0,47.105,0H16.75c-4.835,0-8.791,3.971-8.791,8.824v61.279
				c0,4.854,3.956,8.824,8.791,8.824h45.419c4.834,0,8.79-3.971,8.79-8.824V27.088C71.003,26.171,70.909,25.491,70.352,24.857z
				 M49.861,9.611l11.775,13.354h-8.26c-1.906,0-3.518-1.616-3.518-3.53V9.611H49.861z M65.686,70.104
				c0,1.914-1.61,3.529-3.517,3.529H16.75c-1.906,0-3.516-1.615-3.516-3.529V8.824c0-1.914,1.61-3.529,3.516-3.529h27.837v14.14
				c0,4.854,3.955,8.825,8.791,8.825h12.308V70.104z"/>
		</g>
	</g>
</g>
<g>
</g>
<g>
</g>
<g>
</g>
<g>
</g>
<g>
</g>
<g>
</g>
<g>
</g>
<g>
</g>
<g>
</g>
<g>
</g>
<g>
</g>
<g>
</g>
<g>
</g>
<g>
</g>
<g>
</g>
</svg>
