<?xml version="1.0" encoding="iso-8859-1"?>
<!-- Generator: Adobe Illustrator 16.0.0, SVG Export Plug-In . SVG Version: 6.00 Build 0)  -->
<!DOCTYPE svg PUBLIC "-//W3C//DTD SVG 1.1//EN" "http://www.w3.org/Graphics/SVG/1.1/DTD/svg11.dtd">
<svg version="1.1" id="Capa_1" xmlns="http://www.w3.org/2000/svg" xmlns:xlink="http://www.w3.org/1999/xlink" x="0px" y="0px"
	 width="73.327px" height="73.327px" viewBox="0 0 73.327 73.327" style="enable-background:new 0 0 73.327 73.327;"
	 xml:space="preserve">
<g>
	<g id="_x33__x5F_1">
		<g>
			<path d="M73.09,22.616C71.566,11.681,61.982,4.228,51.826,4.228c-3.113,0-6.281,0.701-9.287,2.216
				c-2.11,1.062-4.001,2.568-6.108,3.944c-0.001-0.001-0.137-0.107-0.262-0.226c-4.149-3.909-9.413-5.926-14.737-5.926
				c-3.667,0-7.363,0.957-10.743,2.912C2.921,11.64-1.211,20.493,0.313,29.327C1.19,34.403,3.662,38.599,7.234,42.2
				c6.748,6.799,18.417,18.534,24.845,24.989c1.268,1.272,2.927,1.91,4.587,1.91c1.658,0,3.313-0.636,4.582-1.904
				c6.599-6.606,18.738-18.809,25.743-26.036C71.932,36.061,74.085,29.766,73.09,22.616z M63.209,37.436
				c-8.172,8.433-22.832,23.122-25.688,25.979c-0.293,0.295-0.627,0.355-0.854,0.355c-0.229,0-0.562-0.062-0.854-0.355
				c-6.427-6.453-18.093-18.185-24.84-24.982c-3.03-3.054-4.812-6.331-5.45-10.019c-1.14-6.599,1.994-13.288,7.797-16.645
				c2.493-1.442,5.297-2.204,8.111-2.204c4.102,0,8.053,1.594,11.125,4.49c1.356,1.276,2.702,1.664,3.838,1.664
				c1.461,0,2.576-0.642,2.912-0.859c0.717-0.468,1.412-0.95,2.098-1.428c1.233-0.857,2.397-1.668,3.501-2.223
				c2.176-1.098,4.504-1.653,6.921-1.653c8.042,0,14.932,5.934,16.027,13.801C68.613,28.82,67.095,33.427,63.209,37.436z"/>
		</g>
	</g>
</g>
<g>
</g>
<g>
</g>
<g>
</g>
<g>
</g>
<g>
</g>
<g>
</g>
<g>
</g>
<g>
</g>
<g>
</g>
<g>
</g>
<g>
</g>
<g>
</g>
<g>
</g>
<g>
</g>
<g>
</g>
</svg>
