<?xml version="1.0" encoding="iso-8859-1"?>
<!-- Generator: Adobe Illustrator 16.0.0, SVG Export Plug-In . SVG Version: 6.00 Build 0)  -->
<!DOCTYPE svg PUBLIC "-//W3C//DTD SVG 1.1//EN" "http://www.w3.org/Graphics/SVG/1.1/DTD/svg11.dtd">
<svg version="1.1" id="Capa_1" xmlns="http://www.w3.org/2000/svg" xmlns:xlink="http://www.w3.org/1999/xlink" x="0px" y="0px"
	 width="75.316px" height="75.316px" viewBox="0 0 75.316 75.316" style="enable-background:new 0 0 75.316 75.316;"
	 xml:space="preserve">
<g>
	<g id="_x32__x5F_1">
		<g>
			<path d="M44.475,61.34l-4.188,4.144V34.186c0-1.438-1.177-2.601-2.629-2.601s-2.629,1.163-2.629,2.601v31.299l-4.188-4.145
				c-1.027-1.018-2.691-1.018-3.717,0c-1.028,1.016-1.028,2.664,0,3.68l7.437,7.357c0.853,0.845,1.975,1.268,3.097,1.268
				s2.243-0.423,3.099-1.268l7.438-7.357c1.027-1.016,1.027-2.664,0-3.68C47.165,60.323,45.501,60.323,44.475,61.34z M66.23,24.281
				c-1.631-7.166-7.592-12.73-15.008-13.853C46.988,4.967,40.37,1.671,33.338,1.671c-10.991,0-20.17,7.825-22.145,18.141
				C4.583,22.197,0,28.424,0,35.727c0,11.838,8.583,16.232,13.123,16.902c0.257,0.038,0.516,0.058,0.775,0.058h13.519v-0.048
				c0.034,0.001,0.066,0.011,0.1,0.011c1.453,0,2.629-1.164,2.629-2.603c0-1.437-1.177-2.601-2.629-2.601
				c-0.125,0-0.246,0.021-0.367,0.035H13.898c0,0-8.64-1.272-8.64-11.754c0-6.132,4.748-11.161,10.803-11.7
				c0-0.019-0.003-0.037-0.003-0.054c0-9.444,7.737-17.099,17.28-17.099c6.396,0,11.967,3.448,14.954,8.557
				c0.056,0,0.11-0.008,0.166-0.008c7.158,0,12.96,5.741,12.96,12.824c0,0.036-0.006,0.071-0.006,0.107
				c4.855,0.536,8.645,4.563,8.645,9.51c0,4.945-3.787,8.973-8.639,9.51v0.107H48.955c-0.121-0.017-0.242-0.037-0.367-0.037
				c-1.453,0-2.629,1.166-2.629,2.602c0,1.393,1.105,2.518,2.492,2.588v0.051h12.967c0.656,0,1.285-0.119,1.864-0.336
				c6.944-1.369,12.034-7.385,12.034-14.484C75.314,31.815,71.621,26.553,66.23,24.281z"/>
		</g>
	</g>
</g>
<g>
</g>
<g>
</g>
<g>
</g>
<g>
</g>
<g>
</g>
<g>
</g>
<g>
</g>
<g>
</g>
<g>
</g>
<g>
</g>
<g>
</g>
<g>
</g>
<g>
</g>
<g>
</g>
<g>
</g>
</svg>
