<?xml version="1.0" encoding="iso-8859-1"?>
<!-- Generator: Adobe Illustrator 16.0.0, SVG Export Plug-In . SVG Version: 6.00 Build 0)  -->
<!DOCTYPE svg PUBLIC "-//W3C//DTD SVG 1.1//EN" "http://www.w3.org/Graphics/SVG/1.1/DTD/svg11.dtd">
<svg version="1.1" id="Capa_1" xmlns="http://www.w3.org/2000/svg" xmlns:xlink="http://www.w3.org/1999/xlink" x="0px" y="0px"
	 width="30.977px" height="30.977px" viewBox="0 0 30.977 30.977" style="enable-background:new 0 0 30.977 30.977;"
	 xml:space="preserve">
<g>
	<g>
		<g>
			<path d="M27.402,15.002V3.995h1.148V1.846h-19.2V0H4.512v1.846H2.383v2.149h2.229L1.956,20.961h-0.95v10.016h11.95V20.961h-0.949
				L9.351,3.995h16.976v11.007h-2.522v5.037h6.166v-5.037H27.402z M4.926,14.902l4.627,3.303l0.338,2.154l-5.234-3.735L4.926,14.902
				z M5.272,12.696l0.271-1.721l3.242,2.314l0.337,2.154L5.272,12.696z M5.887,8.769l0.269-1.722l1.859,1.328l0.337,2.153
				L5.887,8.769z M6.5,4.841L6.628,4.03h0.707l0.247,1.583L6.5,4.841z M4.311,18.83l2.988,2.132H3.977L4.311,18.83z"/>
		</g>
		<g>
			<rect x="14.268" y="25.939" width="6.166" height="5.037"/>
		</g>
		<g>
			<rect x="21.541" y="25.939" width="6.166" height="5.037"/>
		</g>
	</g>
</g>
<g>
</g>
<g>
</g>
<g>
</g>
<g>
</g>
<g>
</g>
<g>
</g>
<g>
</g>
<g>
</g>
<g>
</g>
<g>
</g>
<g>
</g>
<g>
</g>
<g>
</g>
<g>
</g>
<g>
</g>
</svg>
