<?xml version="1.0" encoding="iso-8859-1"?>
<!-- Generator: Adobe Illustrator 16.0.0, SVG Export Plug-In . SVG Version: 6.00 Build 0)  -->
<!DOCTYPE svg PUBLIC "-//W3C//DTD SVG 1.1//EN" "http://www.w3.org/Graphics/SVG/1.1/DTD/svg11.dtd">
<svg version="1.1" id="Capa_1" xmlns="http://www.w3.org/2000/svg" xmlns:xlink="http://www.w3.org/1999/xlink" x="0px" y="0px"
	 width="30.519px" height="30.518px" viewBox="0 0 30.519 30.518" style="enable-background:new 0 0 30.519 30.518;"
	 xml:space="preserve">
<g>
	<g>
		<path d="M29.931,0.587c-1.055-1.055-3.967-1.239-9.489,4.283L5.814,2.292c-0.168-0.03-0.406,0.045-0.526,0.165L2.971,4.773
			c-0.289,0.29-0.243,0.708,0.101,0.929l10.051,6.397c-2.133,2.756-3.793,5.472-5.704,8.056l-5.585-0.72
			c-0.158-0.019-0.378,0.058-0.491,0.17l-1.125,1.124c-0.358,0.358-0.265,0.8,0.208,0.981l6.059,2.322l2.323,6.06
			c0.18,0.473,0.623,0.565,0.981,0.208l1.124-1.125c0.113-0.113,0.19-0.333,0.172-0.49l-0.722-5.586
			c2.584-1.911,5.3-3.57,8.057-5.704l6.396,10.05c0.221,0.346,0.638,0.392,0.928,0.103l2.316-2.316
			c0.12-0.12,0.195-0.357,0.166-0.525l-2.579-14.628C31.171,4.554,30.987,1.643,29.931,0.587z M28.146,2.373
			c0.72,0.72,0.856,1.782,0.396,2.562c-0.245-0.65-0.629-1.267-1.159-1.798c-0.531-0.531-1.148-0.915-1.798-1.159
			C26.363,1.516,27.427,1.652,28.146,2.373z"/>
	</g>
</g>
<g>
</g>
<g>
</g>
<g>
</g>
<g>
</g>
<g>
</g>
<g>
</g>
<g>
</g>
<g>
</g>
<g>
</g>
<g>
</g>
<g>
</g>
<g>
</g>
<g>
</g>
<g>
</g>
<g>
</g>
</svg>
