<?xml version="1.0" encoding="iso-8859-1"?>
<!-- Generator: Adobe Illustrator 16.0.0, SVG Export Plug-In . SVG Version: 6.00 Build 0)  -->
<!DOCTYPE svg PUBLIC "-//W3C//DTD SVG 1.1//EN" "http://www.w3.org/Graphics/SVG/1.1/DTD/svg11.dtd">
<svg version="1.1" id="Capa_1" xmlns="http://www.w3.org/2000/svg" xmlns:xlink="http://www.w3.org/1999/xlink" x="0px" y="0px"
	 width="64.956px" height="64.957px" viewBox="0 0 64.956 64.957" style="enable-background:new 0 0 64.956 64.957;"
	 xml:space="preserve">
<g>
	<g id="_x35__x5F_6">
		<g>
			<path d="M24.668,0.093H5.254C2.365,0.093,0,2.316,0,5.21v19.006c0,2.896,2.365,5.558,5.254,5.558h19.414
				c2.891,0,5.255-2.661,5.255-5.558V5.21C29.923,2.316,27.559,0.093,24.668,0.093z M24.668,24.51H5.254V5.21h19.414V24.51z
				 M24.668,35.182H5.254C2.365,35.182,0,37.551,0,40.447v19.151c0,2.896,2.365,5.265,5.254,5.265h19.414
				c2.891,0,5.255-2.367,5.255-5.265V40.447C29.923,37.551,27.559,35.182,24.668,35.182z M24.668,59.598H5.254V40.299h19.414V59.598
				z M59.699,0.093H40.434c-2.892,0-5.4,2.223-5.4,5.117v19.3c0,2.894,2.51,5.264,5.4,5.264H59.7c2.892,0,5.256-2.37,5.256-5.264
				V5.21C64.955,2.316,62.591,0.093,59.699,0.093z M59.699,24.51H40.434V5.21H59.7L59.699,24.51L59.699,24.51z M59.116,35.182
				h-18.83c-2.89,0-5.254,2.369-5.254,5.265v19.151c0,2.896,2.364,5.265,5.254,5.265h19.413c2.892,0,5.256-2.367,5.256-5.265V40.447
				C64.955,37.551,62.006,35.182,59.116,35.182z M59.699,59.598H40.434V40.447H59.7L59.699,59.598L59.699,59.598z"/>
		</g>
	</g>
</g>
<g>
</g>
<g>
</g>
<g>
</g>
<g>
</g>
<g>
</g>
<g>
</g>
<g>
</g>
<g>
</g>
<g>
</g>
<g>
</g>
<g>
</g>
<g>
</g>
<g>
</g>
<g>
</g>
<g>
</g>
</svg>
