<?xml version="1.0" encoding="iso-8859-1"?>
<!-- Generator: Adobe Illustrator 16.0.0, SVG Export Plug-In . SVG Version: 6.00 Build 0)  -->
<!DOCTYPE svg PUBLIC "-//W3C//DTD SVG 1.1//EN" "http://www.w3.org/Graphics/SVG/1.1/DTD/svg11.dtd">
<svg version="1.1" id="Capa_1" xmlns="http://www.w3.org/2000/svg" xmlns:xlink="http://www.w3.org/1999/xlink" x="0px" y="0px"
	 width="31.612px" height="31.612px" viewBox="0 0 31.612 31.612" style="enable-background:new 0 0 31.612 31.612;"
	 xml:space="preserve">
<g>
	<g>
		<g>
			<path d="M26.505,23.802h1.274c0.39,0,0.707-0.317,0.707-0.707V9.477c0-0.977-0.793-1.768-1.768-1.768h-3.881V6.701h-0.562V4.739
				h1.932V3.877H16.96v0.862h1.933v1.962h-0.563V7.71h-3.88c-0.975,0-1.767,0.791-1.767,1.768v13.617
				c0,0.39,0.317,0.707,0.707,0.707h1.274l-5.108,3.933h3.284l4.003-3.933h7.483l4.003,3.933h3.284L26.505,23.802z M19.755,4.739
				h1.66v1.962h-1.66V4.739z M15.835,22.657c-0.599,0-1.082-0.485-1.082-1.084c0-0.598,0.483-1.082,1.082-1.082
				c0.599,0,1.083,0.484,1.083,1.082C16.918,22.171,16.434,22.657,15.835,22.657z M14.794,17.057c-0.195,0-0.352-0.158-0.352-0.354
				V9.86c0-0.195,0.156-0.354,0.352-0.354h11.581c0.195,0,0.352,0.158,0.352,0.354v6.843c0,0.194-0.155,0.354-0.352,0.354H14.794z
				 M25.41,22.657c-0.6,0-1.084-0.485-1.084-1.084c0-0.598,0.484-1.082,1.084-1.082c0.598,0,1.082,0.484,1.082,1.082
				C26.492,22.171,26.008,22.657,25.41,22.657z"/>
		</g>
		<g>
			<path d="M13.048,24.659l-3.021-2.326h0.754c0.229,0,0.418-0.187,0.418-0.418V13.86c0-0.578-0.468-1.046-1.046-1.046H7.858v-0.596
				H7.524v-1.16h1.143v-0.51H4.381v0.51h1.141v1.16H5.189v0.597H2.896c-0.578,0-1.047,0.468-1.047,1.046v8.055
				c0,0.23,0.188,0.418,0.418,0.418h0.754L0,24.661h1.943l2.367-2.326h4.427l2.367,2.326h1.944V24.659z M6.032,11.058h0.982v1.16
				H6.032V11.058z M3.715,21.657c-0.355,0-0.642-0.287-0.642-0.642s0.286-0.642,0.642-0.642c0.354,0,0.642,0.287,0.642,0.642
				C4.356,21.37,4.069,21.657,3.715,21.657z M3.1,18.344c-0.116,0-0.209-0.094-0.209-0.209v-4.047c0-0.116,0.093-0.209,0.209-0.209
				h6.85c0.114,0,0.208,0.094,0.208,0.209v4.047c0,0.115-0.094,0.209-0.208,0.209H3.1z M9.378,21.657
				c-0.354,0-0.641-0.287-0.641-0.642s0.286-0.642,0.641-0.642c0.354,0,0.641,0.287,0.641,0.642
				C10.018,21.37,9.731,21.657,9.378,21.657z"/>
		</g>
	</g>
</g>
<g>
</g>
<g>
</g>
<g>
</g>
<g>
</g>
<g>
</g>
<g>
</g>
<g>
</g>
<g>
</g>
<g>
</g>
<g>
</g>
<g>
</g>
<g>
</g>
<g>
</g>
<g>
</g>
<g>
</g>
</svg>
