<?xml version="1.0" encoding="iso-8859-1"?>
<!-- Generator: Adobe Illustrator 16.0.0, SVG Export Plug-In . SVG Version: 6.00 Build 0)  -->
<!DOCTYPE svg PUBLIC "-//W3C//DTD SVG 1.1//EN" "http://www.w3.org/Graphics/SVG/1.1/DTD/svg11.dtd">
<svg version="1.1" id="Capa_1" xmlns="http://www.w3.org/2000/svg" xmlns:xlink="http://www.w3.org/1999/xlink" x="0px" y="0px"
	 width="31.578px" height="31.578px" viewBox="0 0 31.578 31.578" style="enable-background:new 0 0 31.578 31.578;"
	 xml:space="preserve">
<g>
	<g>
		<g>
			<path d="M31.199,29.238l-2.778-2.779c0.581-0.915,0.925-1.998,0.925-3.161c0-3.262-2.654-5.916-5.916-5.916
				s-5.916,2.654-5.916,5.916c0,3.261,2.654,5.914,5.916,5.914c1.162,0,2.246-0.342,3.162-0.924l2.778,2.78
				c0.253,0.252,0.583,0.379,0.915,0.379c0.33,0,0.661-0.127,0.914-0.379C31.704,30.562,31.704,29.744,31.199,29.238z
				 M23.428,27.365c-2.24,0-4.065-1.824-4.065-4.066s1.825-4.066,4.065-4.066c2.243,0,4.067,1.824,4.067,4.066
				C27.496,25.541,25.671,27.365,23.428,27.365z"/>
		</g>
		<g>
			<path d="M16.252,28.695v-5.76c0.102,0.002,0.205,0.008,0.307,0.01c0.034-0.682,0.167-1.336,0.387-1.951
				c-0.232-0.01-0.465-0.021-0.693-0.025v-4.482h12.308c-0.053,0.649-0.168,1.281-0.308,1.901c0.597,0.587,1.083,1.282,1.437,2.052
				c0.555-1.578,0.871-3.265,0.871-5.028l0,0c0-8.425-6.854-15.28-15.279-15.28c-4.113,0-7.844,1.641-10.592,4.292
				c-0.068,0.065-0.33,0.328-0.395,0.395C1.641,7.567,0,11.298,0,15.41l0,0c0,8.426,6.854,15.279,15.28,15.279
				c1.938,0,3.786-0.375,5.493-1.039c-0.782-0.328-1.489-0.801-2.096-1.379C17.893,28.479,17.087,28.635,16.252,28.695z
				 M26.359,8.005c1.271,1.893,2.054,4.13,2.211,6.536h-4.797c-0.073-2.056-0.313-3.955-0.621-5.633
				C24.584,8.578,25.688,8.235,26.359,8.005z M25.057,6.375c-0.596,0.182-1.371,0.398-2.305,0.611
				c-0.291-1.239-0.602-2.298-0.882-3.149C23.061,4.516,24.131,5.375,25.057,6.375z M16.252,2.127
				c1.092,0.079,2.146,0.284,3.151,0.61c0.28,0.71,0.881,2.354,1.413,4.636c-1.352,0.232-2.895,0.417-4.564,0.487V2.127z
				 M16.252,9.833c1.827-0.07,3.498-0.277,4.961-0.533c0.283,1.566,0.506,3.332,0.58,5.241h-5.541V9.833z M3.547,9.082
				c0.004-0.006,0.006-0.014,0.01-0.021c0.198-0.362,0.412-0.713,0.642-1.054C5.272,8.402,6.34,8.725,7.396,8.981
				c-0.302,1.661-0.535,3.533-0.609,5.56H1.99C2.119,12.577,2.658,10.724,3.547,9.082z M4.2,22.818
				c-1.233-1.84-2.012-4.002-2.199-6.332h4.772c0.03,1.742,0.188,3.572,0.524,5.453C5.919,22.261,4.855,22.593,4.2,22.818z
				 M5.503,24.449c0.572-0.176,1.313-0.383,2.2-0.588c0.247,1.019,0.549,2.048,0.915,3.084C7.457,26.271,6.41,25.428,5.503,24.449z
				 M7.788,7.073c-0.766-0.186-1.537-0.407-2.311-0.67c0.102-0.109,1.254-1.479,3.212-2.567C8.404,4.706,8.084,5.797,7.788,7.073z
				 M14.307,28.695c-1.093-0.079-2.149-0.283-3.153-0.611c-0.662-1.544-1.165-3.089-1.532-4.612c1.379-0.241,2.963-0.438,4.686-0.51
				L14.307,28.695L14.307,28.695z M14.307,20.992c-1.876,0.072-3.594,0.285-5.084,0.553c-0.303-1.74-0.444-3.438-0.471-5.059h5.555
				V20.992z M14.307,14.541H8.773c0.074-1.871,0.288-3.605,0.564-5.149c1.718,0.298,3.384,0.431,4.97,0.458V14.541z M14.307,7.887
				c-1.465-0.024-3.003-0.151-4.579-0.417c0.536-2.331,1.146-4.013,1.43-4.733c1.003-0.327,2.059-0.531,3.149-0.61V7.887z"/>
		</g>
	</g>
</g>
<g>
</g>
<g>
</g>
<g>
</g>
<g>
</g>
<g>
</g>
<g>
</g>
<g>
</g>
<g>
</g>
<g>
</g>
<g>
</g>
<g>
</g>
<g>
</g>
<g>
</g>
<g>
</g>
<g>
</g>
</svg>
