<?xml version="1.0" encoding="iso-8859-1"?>
<!-- Generator: Adobe Illustrator 16.0.0, SVG Export Plug-In . SVG Version: 6.00 Build 0)  -->
<!DOCTYPE svg PUBLIC "-//W3C//DTD SVG 1.1//EN" "http://www.w3.org/Graphics/SVG/1.1/DTD/svg11.dtd">
<svg version="1.1" id="Capa_1" xmlns="http://www.w3.org/2000/svg" xmlns:xlink="http://www.w3.org/1999/xlink" x="0px" y="0px"
	 width="74.59px" height="74.59px" viewBox="0 0 74.59 74.59" style="enable-background:new 0 0 74.59 74.59;" xml:space="preserve"
	>
<g>
	<g id="_x35__x5F_5">
		<g>
			<path d="M9.927,1.036C4.444,1.036,0,5.486,0,10.978c0,5.49,4.444,9.94,9.927,9.94c5.481,0,9.925-4.45,9.925-9.94
				C19.852,5.486,15.408,1.036,9.927,1.036z M9.927,15.657c-2.576,0-4.671-2.1-4.671-4.679c0-2.581,2.095-4.679,4.671-4.679
				c2.576,0,4.671,2.098,4.671,4.679C14.598,13.557,12.503,15.657,9.927,15.657z M29.776,13.609h42.186
				c1.452,0,2.628-1.178,2.628-2.631c0-1.455-1.176-2.633-2.628-2.633H29.776c-1.45,0-2.626,1.178-2.626,2.633
				C27.15,12.432,28.326,13.609,29.776,13.609z M9.927,27.352C4.444,27.352,0,31.804,0,37.295c0,5.49,4.444,9.941,9.927,9.941
				c5.481,0,9.925-4.451,9.925-9.941C19.852,31.804,15.408,27.352,9.927,27.352z M9.927,41.974c-2.576,0-4.671-2.099-4.671-4.679
				c0-2.579,2.095-4.679,4.671-4.679c2.576,0,4.671,2.1,4.671,4.679C14.598,39.875,12.503,41.974,9.927,41.974z M71.962,34.663
				H29.776c-1.45,0-2.626,1.178-2.626,2.632c0,1.453,1.176,2.632,2.626,2.632h42.186c1.452,0,2.628-1.179,2.628-2.632
				C74.59,35.841,73.414,34.663,71.962,34.663z M9.927,53.67C4.444,53.67,0,58.122,0,63.612s4.444,9.941,9.927,9.941
				c5.481,0,9.925-4.451,9.925-9.941S15.408,53.67,9.927,53.67z M9.927,68.291c-2.576,0-4.671-2.1-4.671-4.679
				c0-2.581,2.095-4.68,4.671-4.68c2.576,0,4.671,2.099,4.671,4.68C14.598,66.191,12.503,68.291,9.927,68.291z M71.962,60.979
				H29.776c-1.45,0-2.626,1.178-2.626,2.633c0,1.453,1.176,2.631,2.626,2.631h42.186c1.452,0,2.628-1.178,2.628-2.631
				C74.59,62.157,73.414,60.979,71.962,60.979z"/>
		</g>
	</g>
</g>
<g>
</g>
<g>
</g>
<g>
</g>
<g>
</g>
<g>
</g>
<g>
</g>
<g>
</g>
<g>
</g>
<g>
</g>
<g>
</g>
<g>
</g>
<g>
</g>
<g>
</g>
<g>
</g>
<g>
</g>
</svg>
