<?xml version="1.0" encoding="iso-8859-1"?>
<!-- Generator: Adobe Illustrator 16.0.0, SVG Export Plug-In . SVG Version: 6.00 Build 0)  -->
<!DOCTYPE svg PUBLIC "-//W3C//DTD SVG 1.1//EN" "http://www.w3.org/Graphics/SVG/1.1/DTD/svg11.dtd">
<svg version="1.1" id="Capa_1" xmlns="http://www.w3.org/2000/svg" xmlns:xlink="http://www.w3.org/1999/xlink" x="0px" y="0px"
	 width="79.461px" height="79.461px" viewBox="0 0 79.461 79.461" style="enable-background:new 0 0 79.461 79.461;"
	 xml:space="preserve">
<g>
	<g id="_x33__x5F_4">
		<g>
			<path d="M39.731,0C17.824,0,0.065,17.788,0.065,39.731c0,21.941,17.759,39.73,39.666,39.73s39.665-17.789,39.665-39.73
				C79.396,17.788,61.638,0,39.731,0z M39.731,74.198c-18.975,0-34.41-15.462-34.41-34.467c0-19.007,15.436-34.468,34.41-34.468
				c18.975,0,34.411,15.461,34.411,34.468C74.142,58.736,58.706,74.198,39.731,74.198z M59.012,20.433
				c-1.703-1.705-4.348-2.033-6.415-0.794L34.113,30.722c-1.353,0.811-2.495,1.955-3.306,3.308L19.675,52.615
				c-1.241,2.07-0.915,4.721,0.789,6.43c1.706,1.707,4.353,2.033,6.419,0.791l18.474-11.104c1.345-0.809,2.483-1.945,3.292-3.293
				l11.15-18.571c1.242-2.07,0.92-4.722-0.783-6.431C59.015,20.437,59.013,20.435,59.012,20.433z M53.431,27.24l-8.729,14.429
				c-0.203,0.526-0.511,1.015-0.887,1.467l-0.076,0.128l-0.016-0.014c-0.075,0.085-0.135,0.182-0.217,0.266
				c-2.086,2.09-5.468,2.09-7.555,0c-2.086-2.092-2.086-5.479,0-7.568c0.083-0.082,0.18-0.141,0.265-0.216l-0.013-0.015l0.117-0.07
				c0.458-0.384,0.953-0.694,1.484-0.9l14.41-8.724c0.35-0.211,0.797-0.158,1.084,0.132C53.586,26.442,53.643,26.89,53.431,27.24z"
				/>
		</g>
	</g>
</g>
<g>
</g>
<g>
</g>
<g>
</g>
<g>
</g>
<g>
</g>
<g>
</g>
<g>
</g>
<g>
</g>
<g>
</g>
<g>
</g>
<g>
</g>
<g>
</g>
<g>
</g>
<g>
</g>
<g>
</g>
</svg>
