<?xml version="1.0" encoding="iso-8859-1"?>
<!-- Generator: Adobe Illustrator 16.0.0, SVG Export Plug-In . SVG Version: 6.00 Build 0)  -->
<!DOCTYPE svg PUBLIC "-//W3C//DTD SVG 1.1//EN" "http://www.w3.org/Graphics/SVG/1.1/DTD/svg11.dtd">
<svg version="1.1" id="Capa_1" xmlns="http://www.w3.org/2000/svg" xmlns:xlink="http://www.w3.org/1999/xlink" x="0px" y="0px"
	 width="81.965px" height="81.965px" viewBox="0 0 81.965 81.965" style="enable-background:new 0 0 81.965 81.965;"
	 xml:space="preserve">
<g>
	<g id="_x34__x5F_2">
		<g>
			<path d="M80.608,36.876c0,0-15.926-19.897-39.626-19.897c-23.701,0-39.626,19.897-39.626,19.897
				c-1.808,2.257-1.808,5.955,0,8.212c0,0,15.925,19.896,39.626,19.896c23.702,0,39.626-19.896,39.626-19.896
				C82.417,42.833,82.417,39.133,80.608,36.876z M76.51,41.796c-0.144,0.182-14.591,17.928-35.528,17.928
				c-20.798,0-35.39-17.758-35.527-17.928c-0.268-0.334-0.268-1.292-0.008-1.619c0.145-0.18,14.736-17.935,35.535-17.935
				c20.8,0,35.39,17.755,35.528,17.925C76.776,40.503,76.776,41.462,76.51,41.796z M40.982,25.753
				c-8.396,0-15.203,6.817-15.203,15.229c0,8.411,6.807,15.229,15.203,15.229c8.397,0,15.206-6.817,15.206-15.229
				S49.379,25.753,40.982,25.753z M40.982,50.949c-5.485,0-9.949-4.471-9.949-9.966c0-0.862,0.122-1.695,0.328-2.492
				c1.027,1.504,2.75,2.492,4.706,2.492c3.149,0,5.703-2.558,5.703-5.712c0-1.666-0.724-3.15-1.857-4.194
				c0.353-0.038,0.71-0.06,1.072-0.06c5.488,0,9.951,4.471,9.951,9.966C50.932,46.479,46.469,50.949,40.982,50.949z"/>
		</g>
	</g>
</g>
<g>
</g>
<g>
</g>
<g>
</g>
<g>
</g>
<g>
</g>
<g>
</g>
<g>
</g>
<g>
</g>
<g>
</g>
<g>
</g>
<g>
</g>
<g>
</g>
<g>
</g>
<g>
</g>
<g>
</g>
</svg>
