<?xml version="1.0" encoding="iso-8859-1"?>
<!-- Generator: Adobe Illustrator 16.0.0, SVG Export Plug-In . SVG Version: 6.00 Build 0)  -->
<!DOCTYPE svg PUBLIC "-//W3C//DTD SVG 1.1//EN" "http://www.w3.org/Graphics/SVG/1.1/DTD/svg11.dtd">
<svg version="1.1" id="Capa_1" xmlns="http://www.w3.org/2000/svg" xmlns:xlink="http://www.w3.org/1999/xlink" x="0px" y="0px"
	 width="31.426px" height="31.425px" viewBox="0 0 31.426 31.425" style="enable-background:new 0 0 31.426 31.425;"
	 xml:space="preserve">
<g>
	<g>
		<g>
			<path d="M2.025,6.733h10.381l0.354,0.885H3.82c-0.823,0-1.489,0.667-1.489,1.49s0.666,1.49,1.489,1.49h10.132l0.317,0.792H5.561
				c-0.824,0-1.49,0.667-1.49,1.49s0.666,1.489,1.49,1.489h9.898l0.713,1.783c0.233,0.582,0.792,0.937,1.383,0.937
				c0.186,0,0.373-0.035,0.553-0.106c0.765-0.306,1.138-1.172,0.832-1.937L14.799,4.691c-0.228-0.566-0.774-0.936-1.385-0.936H2.025
				c-0.822,0-1.488,0.667-1.488,1.49C0.537,6.067,1.203,6.733,2.025,6.733z"/>
		</g>
		<g>
			<path d="M25.253,22.316c-1.479,0-2.681,1.201-2.681,2.68c0,1.475,1.201,2.675,2.681,2.675c1.476,0,2.675-1.2,2.675-2.675
				C27.928,23.517,26.729,22.316,25.253,22.316z M25.253,26.333c-0.739,0-1.338-0.602-1.338-1.338c0-0.74,0.599-1.338,1.338-1.338
				c0.733,0,1.337,0.599,1.337,1.338C26.59,25.732,25.986,26.333,25.253,26.333z"/>
		</g>
		<g>
			<path d="M0.001,20.338v2.856c0,0.711,0.578,1.289,1.291,1.289h1.729c0.249-1.711,1.724-3.027,3.5-3.027s3.251,1.314,3.501,3.027
				h11.727c0.25-1.711,1.726-3.027,3.501-3.027c1.781,0,3.256,1.314,3.505,3.027h1.379c0.714,0,1.292-0.578,1.292-1.289v-2.856
				H0.001z"/>
		</g>
		<g>
			<path d="M6.52,22.316c-1.479,0-2.675,1.201-2.675,2.68c0,1.475,1.195,2.675,2.675,2.675s2.675-1.2,2.675-2.675
				C9.194,23.517,7.999,22.316,6.52,22.316z M6.52,26.333c-0.739,0-1.337-0.602-1.337-1.338c0-0.74,0.598-1.338,1.337-1.338
				c0.74,0,1.338,0.599,1.338,1.338C7.858,25.732,7.26,26.333,6.52,26.333z"/>
		</g>
		<g>
			<path d="M31.424,18.683c0-0.461-0.186-0.9-0.508-1.223l-5.07-5.014c-0.322-0.318-0.756-0.499-1.208-0.499h-2.56v-0.959
				c0-0.714-0.576-1.291-1.288-1.291h-2.916l1.991,4.976c0.507,1.273-0.114,2.725-1.387,3.232c-0.297,0.119-0.607,0.179-0.925,0.179
				c-1.022,0-1.929-0.614-2.309-1.563l-0.462-1.155H5.561c-1.371,0-2.486-1.115-2.486-2.486c0-0.481,0.137-0.932,0.375-1.313
				c-0.999-0.15-1.799-0.9-2.036-1.869H1.292C0.581,9.698,0,10.275,0,10.989v8.635h31.424V18.683z M28.706,17.628h-4.907
				c-0.109,0-0.201-0.09-0.201-0.202v-3.789c0-0.112,0.092-0.202,0.201-0.202h0.934c0.051,0,0.103,0.022,0.144,0.056l3.969,3.79
				C28.979,17.406,28.887,17.628,28.706,17.628z"/>
		</g>
	</g>
</g>
<g>
</g>
<g>
</g>
<g>
</g>
<g>
</g>
<g>
</g>
<g>
</g>
<g>
</g>
<g>
</g>
<g>
</g>
<g>
</g>
<g>
</g>
<g>
</g>
<g>
</g>
<g>
</g>
<g>
</g>
</svg>
