<?xml version="1.0" encoding="iso-8859-1"?>
<!-- Generator: Adobe Illustrator 16.0.0, SVG Export Plug-In . SVG Version: 6.00 Build 0)  -->
<!DOCTYPE svg PUBLIC "-//W3C//DTD SVG 1.1//EN" "http://www.w3.org/Graphics/SVG/1.1/DTD/svg11.dtd">
<svg version="1.1" id="Capa_1" xmlns="http://www.w3.org/2000/svg" xmlns:xlink="http://www.w3.org/1999/xlink" x="0px" y="0px"
	 width="77.291px" height="77.291px" viewBox="0 0 77.291 77.291" style="enable-background:new 0 0 77.291 77.291;"
	 xml:space="preserve">
<g>
	<g id="_x34__x5F_6">
		<g>
			<path d="M10.183,15.899h57.364c1.452,0,2.628-1.177,2.628-2.631c0-1.453-1.176-2.633-2.628-2.633h-19.27V4.058
				C48.277,1.64,46.533,0,44.119,0h-9.195c-2.415,0-4.16,1.64-4.16,4.058v6.578H10.183c-1.452,0-2.628,1.18-2.628,2.633
				C7.555,14.723,8.731,15.899,10.183,15.899z M35.909,5.155h7.115v5.479h-7.115V5.155z M74.115,29.972h-6.568V19.433H9.744v10.539
				H3.175c-1.45,0-2.626,1.177-2.626,2.632s1.176,2.632,2.626,2.632h6.569v34.003c0,4.446,3.599,8.052,8.038,8.052h41.727
				c4.438,0,8.038-3.604,8.038-8.052V35.235h6.568c1.449,0,2.627-1.178,2.627-2.632S75.566,29.972,74.115,29.972z M62.293,69.238
				c0,1.537-1.249,2.787-2.784,2.787H17.782c-1.534,0-2.782-1.25-2.782-2.787V24.696h47.293V69.238z M24.633,67.184
				c1.452,0,2.628-1.18,2.628-2.634V32.165c0-1.454-1.176-2.631-2.628-2.631s-2.628,1.177-2.628,2.631V64.55
				C22.005,66.004,23.181,67.184,24.633,67.184z M38.646,67.184c1.452,0,2.627-1.18,2.627-2.634V32.165
				c0-1.454-1.176-2.631-2.627-2.631c-1.452,0-2.628,1.177-2.628,2.631V64.55C36.018,66.004,37.194,67.184,38.646,67.184z
				 M52.658,67.184c1.451,0,2.627-1.18,2.627-2.634V32.165c0-1.454-1.176-2.631-2.627-2.631c-1.45,0-2.627,1.177-2.627,2.631V64.55
				C50.031,66.004,51.208,67.184,52.658,67.184z"/>
		</g>
	</g>
</g>
<g>
</g>
<g>
</g>
<g>
</g>
<g>
</g>
<g>
</g>
<g>
</g>
<g>
</g>
<g>
</g>
<g>
</g>
<g>
</g>
<g>
</g>
<g>
</g>
<g>
</g>
<g>
</g>
<g>
</g>
</svg>
