<?xml version="1.0" encoding="iso-8859-1"?>
<!-- Generator: Adobe Illustrator 16.0.0, SVG Export Plug-In . SVG Version: 6.00 Build 0)  -->
<!DOCTYPE svg PUBLIC "-//W3C//DTD SVG 1.1//EN" "http://www.w3.org/Graphics/SVG/1.1/DTD/svg11.dtd">
<svg version="1.1" id="Capa_1" xmlns="http://www.w3.org/2000/svg" xmlns:xlink="http://www.w3.org/1999/xlink" x="0px" y="0px"
	 width="31.701px" height="31.701px" viewBox="0 0 31.701 31.701" style="enable-background:new 0 0 31.701 31.701;"
	 xml:space="preserve">
<g>
	<g>
		<g>
			<path d="M31.242,13.938c-0.626-0.626-2.354-0.736-5.632,2.542l-8.683-1.53c-0.1-0.018-0.241,0.026-0.313,0.098l-1.375,1.374
				c-0.172,0.172-0.145,0.42,0.06,0.551l5.965,3.797c-1.267,1.637-2.251,3.248-3.386,4.781l-3.314-0.428
				c-0.093-0.011-0.225,0.035-0.292,0.102l-0.667,0.668c-0.213,0.211-0.157,0.475,0.124,0.582l3.597,1.379l1.379,3.596
				c0.107,0.279,0.369,0.336,0.582,0.124l0.668-0.667c0.066-0.067,0.112-0.198,0.102-0.292l-0.428-3.315
				c1.533-1.134,3.146-2.119,4.781-3.385l3.797,5.965c0.131,0.205,0.379,0.232,0.551,0.061l1.375-1.375
				c0.072-0.072,0.115-0.213,0.099-0.313l-1.53-8.682C31.978,16.292,31.869,14.564,31.242,13.938z M30.183,14.997
				c0.427,0.428,0.508,1.058,0.234,1.521c-0.146-0.385-0.373-0.751-0.688-1.066s-0.683-0.543-1.067-0.688
				C29.125,14.489,29.755,14.571,30.183,14.997z"/>
		</g>
		<g>
			<path d="M16.814,29.355v-0.047l-0.261-0.681l-1.739-0.667v1.395c-1.123-0.082-2.208-0.293-3.241-0.629
				c-0.679-1.588-1.197-3.174-1.575-4.739c1.417-0.249,3.045-0.449,4.815-0.524v0.684l2,0.259v-0.97
				c0.427,0.008,0.86,0.024,1.298,0.05c0.123-0.181,0.248-0.355,0.372-0.537c0.31-0.453,0.638-0.919,0.966-1.386
				c-0.898-0.084-1.779-0.133-2.636-0.147v-2.293l-2-1.272v3.588c-1.928,0.076-3.693,0.295-5.225,0.568
				c-0.311-1.787-0.457-3.531-0.483-5.197h5.029c-0.04-0.4,0.104-0.799,0.398-1.092l1.375-1.374
				c0.231-0.232,0.567-0.365,0.906-0.382V9.971c1.876-0.073,3.594-0.285,5.097-0.548c0.291,1.61,0.521,3.424,0.598,5.387h-0.623
				l3.393,0.598c0.223-0.212,0.439-0.409,0.654-0.598h-1.389c-0.076-2.114-0.321-4.064-0.639-5.789
				c1.471-0.339,2.605-0.691,3.297-0.928c0.938,1.399,1.612,2.983,1.98,4.682c0.388-0.122,0.756-0.184,1.104-0.184
				c0.381,0,0.688,0.076,0.946,0.181C29.853,5.51,23.468,0,15.814,0l0,0c-4.226,0-8.06,1.686-10.885,4.411
				C4.86,4.477,4.589,4.748,4.523,4.817c-2.726,2.826-4.412,6.66-4.412,10.886l0,0c0,8.659,7.044,15.703,15.703,15.703l0,0
				c0.597,0,1.183-0.042,1.762-0.107l-0.746-1.945C16.825,29.354,16.819,29.355,16.814,29.355z M25.86,6.416
				c-0.61,0.187-1.409,0.409-2.366,0.628c-0.3-1.273-0.619-2.362-0.906-3.237C23.81,4.506,24.91,5.389,25.86,6.416z M16.814,2.051
				c1.122,0.082,2.207,0.292,3.238,0.627c0.289,0.729,0.904,2.419,1.451,4.764c-1.388,0.239-2.973,0.429-4.689,0.501V2.051z
				 M11.578,2.678c1.03-0.336,2.115-0.545,3.236-0.627V7.97c-1.505-0.024-3.085-0.155-4.706-0.428
				C10.66,5.147,11.286,3.418,11.578,2.678z M9.706,9.517c1.766,0.306,3.478,0.443,5.107,0.47v4.821H9.127
				C9.202,12.885,9.423,11.103,9.706,9.517z M3.757,9.198c0.004-0.007,0.006-0.014,0.01-0.021c0.202-0.372,0.424-0.732,0.659-1.083
				c1.102,0.406,2.199,0.738,3.285,1c-0.31,1.707-0.55,3.63-0.625,5.714h-4.93C2.288,12.79,2.842,10.886,3.757,9.198z M4.427,23.314
				c-1.267-1.891-2.067-4.113-2.26-6.506h4.904c0.031,1.789,0.194,3.668,0.54,5.604C6.194,22.743,5.101,23.083,4.427,23.314z
				 M5.767,24.991c0.588-0.181,1.349-0.394,2.26-0.604c0.254,1.047,0.564,2.104,0.94,3.168C7.774,26.863,6.698,25.997,5.767,24.991z
				 M8.115,7.134C7.328,6.943,6.535,6.716,5.74,6.446c0.104-0.112,1.288-1.52,3.3-2.639C8.748,4.702,8.419,5.823,8.115,7.134z"/>
		</g>
	</g>
</g>
<g>
</g>
<g>
</g>
<g>
</g>
<g>
</g>
<g>
</g>
<g>
</g>
<g>
</g>
<g>
</g>
<g>
</g>
<g>
</g>
<g>
</g>
<g>
</g>
<g>
</g>
<g>
</g>
<g>
</g>
</svg>
