<?xml version="1.0" encoding="iso-8859-1"?>
<!-- Generator: Adobe Illustrator 16.0.0, SVG Export Plug-In . SVG Version: 6.00 Build 0)  -->
<!DOCTYPE svg PUBLIC "-//W3C//DTD SVG 1.1//EN" "http://www.w3.org/Graphics/SVG/1.1/DTD/svg11.dtd">
<svg version="1.1" id="Capa_1" xmlns="http://www.w3.org/2000/svg" xmlns:xlink="http://www.w3.org/1999/xlink" x="0px" y="0px"
	 width="78.591px" height="78.591px" viewBox="0 0 78.591 78.591" style="enable-background:new 0 0 78.591 78.591;"
	 xml:space="preserve">
<g>
	<g id="_x35__x5F_3">
		<g>
			<path d="M38.113,6.118c-6.548,0-12.933,1.793-18.513,5.161l2.771-7.732c0.492-1.376-0.217-2.894-1.584-3.389
				c-1.368-0.497-2.878,0.216-3.37,1.592l-5,13.949c-0.236,0.662-0.202,1.391,0.095,2.026c0.296,0.637,0.834,1.127,1.49,1.365
				l13.874,5.026c0.295,0.105,0.596,0.158,0.894,0.158c1.078,0,2.088-0.674,2.478-1.753c0.492-1.377-0.217-2.893-1.584-3.388
				l-8.069-2.925c0.095-0.044,0.192-0.082,0.282-0.139c4.864-3.045,10.479-4.656,16.239-4.656c16.966,0,30.767,13.878,30.767,30.938
				S55.082,73.291,38.116,73.291c-12.672,0-23.896-7.648-28.591-19.485c-0.539-1.36-2.07-2.017-3.422-1.479
				c-1.351,0.541-2.008,2.082-1.471,3.44c5.496,13.866,18.64,22.823,33.48,22.823c19.869,0,36.033-16.256,36.033-36.236
				C74.146,22.375,57.982,6.118,38.113,6.118z"/>
		</g>
	</g>
</g>
<g>
</g>
<g>
</g>
<g>
</g>
<g>
</g>
<g>
</g>
<g>
</g>
<g>
</g>
<g>
</g>
<g>
</g>
<g>
</g>
<g>
</g>
<g>
</g>
<g>
</g>
<g>
</g>
<g>
</g>
</svg>
