<?xml version="1.0" encoding="iso-8859-1"?>
<!-- Generator: Adobe Illustrator 16.0.0, SVG Export Plug-In . SVG Version: 6.00 Build 0)  -->
<!DOCTYPE svg PUBLIC "-//W3C//DTD SVG 1.1//EN" "http://www.w3.org/Graphics/SVG/1.1/DTD/svg11.dtd">
<svg version="1.1" id="Capa_1" xmlns="http://www.w3.org/2000/svg" xmlns:xlink="http://www.w3.org/1999/xlink" x="0px" y="0px"
	 width="75.316px" height="75.317px" viewBox="0 0 75.316 75.317" style="enable-background:new 0 0 75.316 75.317;"
	 xml:space="preserve">
<g>
	<g id="_x31__x5F_1">
		<g>
			<path d="M48.191,42.153c1.029-1.015,1.029-2.662,0-3.678l-7.437-7.354c-0.853-0.845-1.976-1.268-3.097-1.268
				c-1.122,0-2.245,0.423-3.1,1.268l-7.436,7.354c-1.028,1.016-1.028,2.663,0,3.678c1.026,1.016,2.69,1.016,3.717,0l4.188-4.143
				v31.282c0,1.437,1.178,2.6,2.629,2.6c1.454,0,2.629-1.163,2.629-2.6V38.009l4.188,4.144
				C45.501,43.168,47.165,43.168,48.191,42.153z M66.23,26.021c-1.631-7.161-7.59-12.722-15.008-13.845
				C46.988,6.718,40.37,3.424,33.338,3.424c-10.991,0-20.17,7.82-22.145,18.13C4.582,23.939,0,30.162,0,37.461
				c0,11.832,8.583,16.224,13.123,16.893c0.257,0.038,0.516,0.057,0.775,0.057h13.519v-0.047c0.034,0.002,0.066,0.012,0.1,0.012
				c1.453,0,2.629-1.165,2.629-2.602c0-1.436-1.177-2.6-2.629-2.6c-0.125,0-0.246,0.02-0.367,0.036H13.898
				c0,0-8.64-1.272-8.64-11.749c0-6.129,4.748-11.155,10.803-11.694c0-0.019-0.003-0.036-0.003-0.053
				c0-9.438,7.737-17.09,17.28-17.09c6.396,0,11.967,3.446,14.954,8.554c0.056-0.002,0.11-0.008,0.166-0.008
				c7.158,0,12.96,5.738,12.96,12.816c0,0.036-0.006,0.071-0.006,0.107c4.855,0.535,8.645,4.561,8.645,9.504
				c0,4.944-3.787,8.968-8.639,9.507v0.106H48.955c-0.121-0.017-0.242-0.036-0.367-0.036c-1.453,0-2.629,1.164-2.629,2.6
				c0,1.391,1.105,2.517,2.492,2.588v0.049h12.967c0.656,0,1.285-0.117,1.864-0.336c6.944-1.367,12.034-7.381,12.034-14.478
				C75.314,33.551,71.621,28.292,66.23,26.021z"/>
		</g>
	</g>
</g>
<g>
</g>
<g>
</g>
<g>
</g>
<g>
</g>
<g>
</g>
<g>
</g>
<g>
</g>
<g>
</g>
<g>
</g>
<g>
</g>
<g>
</g>
<g>
</g>
<g>
</g>
<g>
</g>
<g>
</g>
</svg>
