<?xml version="1.0" encoding="iso-8859-1"?>
<!-- Generator: Adobe Illustrator 16.0.0, SVG Export Plug-In . SVG Version: 6.00 Build 0)  -->
<!DOCTYPE svg PUBLIC "-//W3C//DTD SVG 1.1//EN" "http://www.w3.org/Graphics/SVG/1.1/DTD/svg11.dtd">
<svg version="1.1" id="Capa_1" xmlns="http://www.w3.org/2000/svg" xmlns:xlink="http://www.w3.org/1999/xlink" x="0px" y="0px"
	 width="84.077px" height="84.078px" viewBox="0 0 84.077 84.078" style="enable-background:new 0 0 84.077 84.078;"
	 xml:space="preserve">
<g>
	<g id="_x35__x5F_1">
		<g>
			<path d="M84.077,35.519c0-4.773-3.847-9.096-8.575-9.096H52.729c-0.211,0-0.41,0.049-0.617,0.064
				c0.965-1.335,1.984-2.385,3.078-4.087c0.109-0.172,0.209-0.349,0.299-0.531c2.457-5.035,3.046-9.329,1.75-12.765
				c-1.245-3.302-3.711-4.53-4.438-4.828c-1.506-0.6-2.923-0.895-4.259-0.895c-4.423,0.002-7.375,3.216-8.102,6.495
				c-0.867,2.796-9.092,11.909-17.785,19.69c-1.677-1.191-3.716-1.458-5.918-1.458h-6.417C4.628,28.108,0,32.342,0,38.084v31.883
				c0,5.744,4.628,10.708,10.318,10.708h6.417c3.766,0,7.058-2.346,8.858-5.396h0.057c0.957,0.566,2.165,1.195,3.673,1.821
				c3.312,1.374,8.029,2.843,14.325,3.359c0.553,0.11,1.123,0.173,1.707,0.173h1.151c0.911,0.036,1.834,0.064,2.804,0.064v-0.064
				H68.13c4.728,0,8.575-4.029,8.575-8.802c0-1.767-0.531-3.405-1.436-4.777c2.338-1.546,3.893-4.207,3.893-7.233
				c0-1.795-0.545-3.463-1.477-4.848c2.36-1.543,3.933-4.214,3.933-7.258c0-1.823-0.568-3.514-1.527-4.91
				C82.479,41.266,84.077,38.583,84.077,35.519z M22.77,69.967c0,2.864-2.321,5.5-5.159,5.5h-7.293c-2.837,0-5.16-2.636-5.16-5.5
				V38.084c0-2.864,2.322-4.915,5.16-4.915h7.293c2.838,0,5.159,2.051,5.159,4.915V69.967z M75.502,38.674h-13.66v0.003h-1.984
				c-1.457,0-2.637,1.191-2.637,2.661c0,1.472,1.18,2.664,2.637,2.664h9.508v-0.028h3.679c1.888,0,3.416,1.836,3.416,3.74
				s-1.528,3.303-3.416,3.303H58.137c-1.457,0-2.637,1.168-2.637,2.604s1.182,2.604,2.637,2.604h12.449
				c1.887,0,3.416,1.69,3.416,3.595c0,1.906-1.529,3.447-3.416,3.447h-1.549c-0.303-0.033-0.598-0.093-0.908-0.093H57.613v0.011
				h-1.194c-1.457,0-2.638,1.185-2.638,2.646c0,1.461,1.182,2.645,2.638,2.645h12.474c1.519,0.352,2.654,1.717,2.654,3.355
				c0,1.904-1.529,3.596-3.416,3.596H46.521c-0.707-0.029-1.373-0.078-2.037-0.128c-1.583-0.118-3.05-0.287-4.4-0.5
				c-1.06-0.167-2.047-0.504-2.971-0.712c-2.359-0.533-4.305-1.172-5.83-1.805c-1.803-0.746-2.034-1.479-2.814-2
				c-0.155-0.104-0.278-0.192-0.397-0.277c0-0.014,0.002-0.025,0.002-0.037V38.084c0-0.646-0.067-1.276-0.179-1.892
				c-0.168-0.916-1.479-1.788-1.867-2.603l0.062-0.064l0.63-0.649c3.311-3.022,17.211-15.976,18.73-21.763
				c0,0,0.448-2.524,3.088-2.524c0.637,0,1.401,0.146,2.319,0.512c0,0,4.256,1.743,0,10.466c0,0-2.336,3.197-5.027,6.547
				c-0.75,0.932-0.96,2.192-0.557,3.322c0.406,1.129,1.367,1.963,2.537,2.195h27.688c1.886,0,3.415,1.982,3.415,3.887
				C78.914,37.423,77.389,38.674,75.502,38.674z"/>
		</g>
	</g>
</g>
<g>
</g>
<g>
</g>
<g>
</g>
<g>
</g>
<g>
</g>
<g>
</g>
<g>
</g>
<g>
</g>
<g>
</g>
<g>
</g>
<g>
</g>
<g>
</g>
<g>
</g>
<g>
</g>
<g>
</g>
</svg>
