<?xml version="1.0" encoding="iso-8859-1"?>
<!-- Generator: Adobe Illustrator 16.0.0, SVG Export Plug-In . SVG Version: 6.00 Build 0)  -->
<!DOCTYPE svg PUBLIC "-//W3C//DTD SVG 1.1//EN" "http://www.w3.org/Graphics/SVG/1.1/DTD/svg11.dtd">
<svg version="1.1" id="Capa_1" xmlns="http://www.w3.org/2000/svg" xmlns:xlink="http://www.w3.org/1999/xlink" x="0px" y="0px"
	 width="30.964px" height="30.964px" viewBox="0 0 30.964 30.964" style="enable-background:new 0 0 30.964 30.964;"
	 xml:space="preserve">
<g>
	<g>
		<g>
			<path d="M29.58,20.792c-0.311-0.055-0.619-0.099-0.931-0.143v-3.9c0-1.812-1.476-3.288-3.288-3.288h-1.653
				c-1.813,0-3.288,1.476-3.288,3.288v3.9c-0.311,0.044-0.621,0.088-0.931,0.143c-0.724,0.135-1.304,0.858-1.304,1.576
				c0,2.193,0,4.386,0,6.579c0,0.718,0.58,1.441,1.304,1.575c3.338,0.588,6.753,0.588,10.091,0c0.723-0.136,1.305-0.857,1.305-1.575
				c0-2.193,0-4.386,0-6.579C30.884,21.65,30.302,20.927,29.58,20.792z M25.38,27.585h-1.69l0.454-1.84
				c-0.383-0.155-0.654-0.529-0.654-0.969c0-0.578,0.468-1.047,1.046-1.047s1.046,0.469,1.046,1.047
				c0,0.438-0.271,0.812-0.656,0.969L25.38,27.585z M26.458,20.422c-1.28-0.085-2.565-0.085-3.846,0v-3.673
				c0-0.604,0.491-1.096,1.096-1.096h1.653c0.604,0,1.096,0.492,1.096,1.096L26.458,20.422L26.458,20.422z"/>
		</g>
		<g>
			<path d="M19.419,19.789v-3.04c0-2.364,1.924-4.288,4.288-4.288h1.61V6.169c0-0.327-0.191-0.624-0.489-0.759L13.042,0.074
				c-0.218-0.099-0.468-0.099-0.687,0L0.569,5.41C0.271,5.545,0.08,5.842,0.08,6.169v13.41c0,0.329,0.194,0.627,0.494,0.761
				l11.787,5.24c0.215,0.096,0.461,0.096,0.677,0l4.147-1.844v-1.368c0-1.213,0.932-2.337,2.121-2.559
				C19.343,19.802,19.382,19.795,19.419,19.789z M10.829,22.854l-8.88-3.947V8.509l8.88,3.947V22.854z"/>
		</g>
	</g>
</g>
<g>
</g>
<g>
</g>
<g>
</g>
<g>
</g>
<g>
</g>
<g>
</g>
<g>
</g>
<g>
</g>
<g>
</g>
<g>
</g>
<g>
</g>
<g>
</g>
<g>
</g>
<g>
</g>
<g>
</g>
</svg>
