<?xml version="1.0" encoding="iso-8859-1"?>
<!-- Generator: Adobe Illustrator 16.0.0, SVG Export Plug-In . SVG Version: 6.00 Build 0)  -->
<!DOCTYPE svg PUBLIC "-//W3C//DTD SVG 1.1//EN" "http://www.w3.org/Graphics/SVG/1.1/DTD/svg11.dtd">
<svg version="1.1" id="Capa_1" xmlns="http://www.w3.org/2000/svg" xmlns:xlink="http://www.w3.org/1999/xlink" x="0px" y="0px"
	 width="79.564px" height="79.564px" viewBox="0 0 79.564 79.564" style="enable-background:new 0 0 79.564 79.564;"
	 xml:space="preserve">
<g>
	<g id="_x32__x5F_2">
		<g>
			<path d="M69.145,21.683h-8.343v5.264h8.343c1.188,0,2.193,1.006,2.193,2.196v42.96c0,1.191-1.004,2.197-2.193,2.197H10.421
				c-1.189,0-2.194-1.006-2.194-2.197v-42.96c0-1.19,1.004-2.196,2.194-2.196h8.343v-5.264h-8.343c-4.096,0-7.448,3.358-7.448,7.46
				v42.96c0,4.104,3.352,7.461,7.448,7.461h58.724c4.096,0,7.447-3.357,7.447-7.461v-42.96
				C76.592,25.041,73.24,21.683,69.145,21.683z M24.894,46.1c3.062,0,5.546-2.486,5.546-5.555c0-2.12-1.199-3.941-2.942-4.877
				V16.691c0-6.301,6.578-11.427,12.87-11.427c6.289,0,11.699,5.126,11.699,11.427v18.817c-1.904,0.879-3.234,2.796-3.234,5.036
				c0,3.067,2.482,5.556,5.545,5.556c3.064,0,5.547-2.488,5.547-5.556c0-1.983-1.043-3.71-2.604-4.694V16.691
				C57.32,7.488,49.555,0,40.367,0c-9.188,0-18.125,7.488-18.125,16.691v19.001c-1.718,0.944-2.896,2.751-2.896,4.852
				C19.347,43.611,21.83,46.1,24.894,46.1z M31.061,26.947h17.443v-5.264H31.061V26.947z"/>
		</g>
	</g>
</g>
<g>
</g>
<g>
</g>
<g>
</g>
<g>
</g>
<g>
</g>
<g>
</g>
<g>
</g>
<g>
</g>
<g>
</g>
<g>
</g>
<g>
</g>
<g>
</g>
<g>
</g>
<g>
</g>
<g>
</g>
</svg>
