<?xml version="1.0" encoding="iso-8859-1"?>
<!-- Generator: Adobe Illustrator 16.0.0, SVG Export Plug-In . SVG Version: 6.00 Build 0)  -->
<!DOCTYPE svg PUBLIC "-//W3C//DTD SVG 1.1//EN" "http://www.w3.org/Graphics/SVG/1.1/DTD/svg11.dtd">
<svg version="1.1" id="Capa_1" xmlns="http://www.w3.org/2000/svg" xmlns:xlink="http://www.w3.org/1999/xlink" x="0px" y="0px"
	 width="77.078px" height="77.078px" viewBox="0 0 77.078 77.078" style="enable-background:new 0 0 77.078 77.078;"
	 xml:space="preserve">
<g>
	<g id="_x31__x5F_4">
		<g>
			<path d="M71.844,1.349C70.799,0.471,70.143,0,68.8,0c-0.333,0-0.667,0.03-0.998,0.088L29.61,6.829
				c-2.751,0.486-4.537,2.88-4.537,5.678v4.92h-0.072V52.98c-2.267-1.75-5.315-2.804-8.393-2.804
				c-7.405,0.001-13.43,6.035-13.43,13.45c0,7.417,6.025,13.451,13.43,13.451c7.059,0,12.851-5.489,13.377-12.428h0.052V27.625
				l38.607-6.93v27.243c-2.267-1.75-4.438-2.804-7.516-2.804c-7.406,0-13.431,6.034-13.431,13.451s6.023,13.45,13.431,13.45
				c7.059,0,12.192-5.487,12.72-12.428H73.9V5.766C73.9,4.062,73.146,2.445,71.844,1.349z M16.608,71.814
				c-4.515,0-8.174-3.664-8.174-8.188c0-4.521,3.659-8.188,8.174-8.188c4.515,0,8.174,3.666,8.174,8.188
				C24.782,68.15,21.122,71.814,16.608,71.814z M30.108,22.266v-9.759c0-0.244,0.175-0.453,0.415-0.495l37.533-6.74
				c0.028-0.005,0.06-0.008,0.088-0.008c0.117,0,0.229,0.043,0.322,0.119c0.112,0.094,0.178,0.235,0.178,0.384v9.583L30.108,22.266z
				 M61.128,66.771c-4.517,0-8.177-3.666-8.177-8.187c0-4.522,3.66-8.188,8.177-8.188c4.513,0,8.173,3.666,8.173,8.188
				C69.301,63.105,65.641,66.771,61.128,66.771z"/>
		</g>
	</g>
</g>
<g>
</g>
<g>
</g>
<g>
</g>
<g>
</g>
<g>
</g>
<g>
</g>
<g>
</g>
<g>
</g>
<g>
</g>
<g>
</g>
<g>
</g>
<g>
</g>
<g>
</g>
<g>
</g>
<g>
</g>
</svg>
