<?xml version="1.0" encoding="iso-8859-1"?>
<!-- Generator: Adobe Illustrator 16.0.0, SVG Export Plug-In . SVG Version: 6.00 Build 0)  -->
<!DOCTYPE svg PUBLIC "-//W3C//DTD SVG 1.1//EN" "http://www.w3.org/Graphics/SVG/1.1/DTD/svg11.dtd">
<svg version="1.1" id="Capa_1" xmlns="http://www.w3.org/2000/svg" xmlns:xlink="http://www.w3.org/1999/xlink" x="0px" y="0px"
	 width="30.207px" height="30.207px" viewBox="0 0 30.207 30.207" style="enable-background:new 0 0 30.207 30.207;"
	 xml:space="preserve">
<g>
	<path d="M0,10.034V30.2h30.207V10.034h-2.535l-9.305-5.613V0.007h-6.526v4.414l-9.305,5.613H0L0,10.034z M23.913,10.034H6.293
		l6.237-3.762h1.539V8.02h2.082V6.272h1.525L23.913,10.034z M19.941,23.522h6.6v3.422h-6.6V23.522z M19.941,18.407h6.6v3.422h-6.6
		V18.407z M19.941,13.29h6.6v3.422h-6.6V13.29z M11.804,23.522h6.599v3.422h-6.599V23.522z M11.804,18.407h6.599v3.422h-6.599
		V18.407z M11.804,13.29h6.599v3.422h-6.599V13.29z M3.665,23.522h6.599v3.422H3.665V23.522z M3.665,18.407h6.599v3.422H3.665
		V18.407z M3.665,13.29h6.599v3.422H3.665V13.29z"/>
</g>
<g>
</g>
<g>
</g>
<g>
</g>
<g>
</g>
<g>
</g>
<g>
</g>
<g>
</g>
<g>
</g>
<g>
</g>
<g>
</g>
<g>
</g>
<g>
</g>
<g>
</g>
<g>
</g>
<g>
</g>
</svg>
