<?xml version="1.0" encoding="iso-8859-1"?>
<!-- Generator: Adobe Illustrator 16.0.0, SVG Export Plug-In . SVG Version: 6.00 Build 0)  -->
<!DOCTYPE svg PUBLIC "-//W3C//DTD SVG 1.1//EN" "http://www.w3.org/Graphics/SVG/1.1/DTD/svg11.dtd">
<svg version="1.1" id="Capa_1" xmlns="http://www.w3.org/2000/svg" xmlns:xlink="http://www.w3.org/1999/xlink" x="0px" y="0px"
	 width="77.18px" height="77.18px" viewBox="0 0 77.18 77.18" style="enable-background:new 0 0 77.18 77.18;" xml:space="preserve"
	>
<g>
	<g id="_x34__x5F_4">
		<g>
			<path d="M66.539,0H25.774c-5.557,0-9.93,4.381-9.93,9.945v57.143c0,2.662-2.893,4.828-5.551,4.828h-0.182
				c-2.659,0-4.82-2.166-4.82-4.828V30.993c0-1.451-1.176-2.631-2.628-2.631c-1.45,0-2.627,1.18-2.627,2.631v36.095
				c0,5.564,4.52,10.092,10.076,10.092h0.182c5.557,0,10.805-4.527,10.805-10.092V9.945c0-2.662,2.018-4.828,4.676-4.828H66.54
				c2.659,0,5.352,2.166,5.352,4.828v57.143c0,2.662-2.691,4.828-5.352,4.828H27.376c-1.45,0-2.627,1.18-2.627,2.632
				c0,1.453,1.177,2.632,2.627,2.632h39.163c5.558,0,10.604-4.527,10.604-10.092V9.945C77.144,4.381,72.097,0,66.539,0z
				 M30.259,21.053h32.003c1.45,0,2.627-1.178,2.627-2.631s-1.176-2.631-2.627-2.631H30.259c-1.452,0-2.628,1.178-2.628,2.631
				S28.807,21.053,30.259,21.053z M30.259,33.335h32.003c1.45,0,2.627-1.178,2.627-2.632c0-1.453-1.176-2.631-2.627-2.631H30.259
				c-1.452,0-2.628,1.178-2.628,2.631C27.631,32.157,28.807,33.335,30.259,33.335z M30.259,45.616h32.003
				c1.45,0,2.627-1.181,2.627-2.632c0-1.453-1.176-2.633-2.627-2.633H30.259c-1.452,0-2.628,1.18-2.628,2.633
				S28.807,45.616,30.259,45.616z M30.259,57.896h32.003c1.45,0,2.627-1.179,2.627-2.633c0-1.451-1.176-2.631-2.627-2.631H30.259
				c-1.452,0-2.628,1.18-2.628,2.631C27.631,56.719,28.807,57.896,30.259,57.896z"/>
		</g>
	</g>
</g>
<g>
</g>
<g>
</g>
<g>
</g>
<g>
</g>
<g>
</g>
<g>
</g>
<g>
</g>
<g>
</g>
<g>
</g>
<g>
</g>
<g>
</g>
<g>
</g>
<g>
</g>
<g>
</g>
<g>
</g>
</svg>
