<?xml version="1.0" encoding="iso-8859-1"?>
<!-- Generator: Adobe Illustrator 16.0.0, SVG Export Plug-In . SVG Version: 6.00 Build 0)  -->
<!DOCTYPE svg PUBLIC "-//W3C//DTD SVG 1.1//EN" "http://www.w3.org/Graphics/SVG/1.1/DTD/svg11.dtd">
<svg version="1.1" id="Capa_1" xmlns="http://www.w3.org/2000/svg" xmlns:xlink="http://www.w3.org/1999/xlink" x="0px" y="0px"
	 width="31.04px" height="31.041px" viewBox="0 0 31.04 31.041" style="enable-background:new 0 0 31.04 31.041;"
	 xml:space="preserve">
<g>
	<g>
		<path d="M30.139,16.687c-2.365-0.127-4.332-0.76-5.871-1.795c-0.322-0.216-0.742-0.216-1.063,0
			c-1.54,1.035-3.505,1.667-5.871,1.795c-0.505,0.027-0.901,0.444-0.901,0.951v4.616c0.016,3.419,2.732,5.866,6.775,8.09
			c0.329,0.181,0.729,0.181,1.057,0c4.041-2.225,6.76-4.671,6.776-8.09v-4.616C31.04,17.132,30.645,16.714,30.139,16.687z
			 M24.333,29.04c-0.123,0.07-0.274,0.07-0.397,0c-0.123-0.071-0.199-0.202-0.199-0.345v-6.441h-5.805
			c-0.22,0-0.396-0.179-0.396-0.397v-3.707c0-0.207,0.158-0.378,0.363-0.396c1.992-0.167,3.746-0.677,5.246-1.528
			c0.123-0.07,0.273-0.069,0.396,0.002c0.123,0.071,0.196,0.202,0.196,0.344v5.683h5.785c0.112,0,0.219,0.047,0.293,0.129
			c0.076,0.082,0.113,0.191,0.104,0.303C29.717,24.968,28,26.922,24.333,29.04z"/>
		<path d="M15.433,16.664c0-0.526,0.427-0.953,0.954-0.953h0.047c2.752,0,5-0.67,6.687-1.992l0.028-0.023
			c0.347-0.271,0.832-0.271,1.178,0l0.029,0.023c0.764,0.599,1.648,1.058,2.64,1.387V7.049c0-0.348-0.203-0.665-0.519-0.811
			L14.276,0.642c-0.229-0.104-0.492-0.108-0.724-0.008L0.538,6.247C0.211,6.387,0,6.709,0,7.064v14.332
			c0,0.353,0.207,0.671,0.529,0.813l12.606,5.604c0.23,0.103,0.493,0.103,0.724,0l2.983-1.326c-0.856-1.216-1.402-2.61-1.409-4.229
			V16.664z M11.497,24.897L2,20.675V9.556l9.497,4.222V24.897z"/>
	</g>
</g>
<g>
</g>
<g>
</g>
<g>
</g>
<g>
</g>
<g>
</g>
<g>
</g>
<g>
</g>
<g>
</g>
<g>
</g>
<g>
</g>
<g>
</g>
<g>
</g>
<g>
</g>
<g>
</g>
<g>
</g>
</svg>
