<?xml version="1.0" encoding="iso-8859-1"?>
<!-- Generator: Adobe Illustrator 16.0.0, SVG Export Plug-In . SVG Version: 6.00 Build 0)  -->
<!DOCTYPE svg PUBLIC "-//W3C//DTD SVG 1.1//EN" "http://www.w3.org/Graphics/SVG/1.1/DTD/svg11.dtd">
<svg version="1.1" id="Capa_1" xmlns="http://www.w3.org/2000/svg" xmlns:xlink="http://www.w3.org/1999/xlink" x="0px" y="0px"
	 width="30.861px" height="30.861px" viewBox="0 0 30.861 30.861" style="enable-background:new 0 0 30.861 30.861;"
	 xml:space="preserve">
<g>
	<g>
		<g>
			<circle cx="11.212" cy="26.398" r="2.673"/>
		</g>
		<g>
			<circle cx="23.823" cy="26.398" r="2.673"/>
		</g>
		<g>
			<path d="M8.748,8.439c-0.325,0-0.621-0.186-0.763-0.478L5.353,2.53C5.134,2.077,4.675,1.79,4.172,1.79H0.676
				C0.303,1.79,0,2.092,0,2.465v0.853c0,0.373,0.303,0.675,0.676,0.675h2.502c0.173,0,0.324,0.117,0.369,0.284L7.741,20.2
				c0.401,1.525,1.781,2.589,3.358,2.589h13.042c1.521,0,2.863-0.989,3.315-2.44l3.367-10.811C30.902,9.281,30.855,9,30.697,8.784
				c-0.16-0.217-0.413-0.345-0.684-0.345H8.748z"/>
		</g>
	</g>
</g>
<g>
</g>
<g>
</g>
<g>
</g>
<g>
</g>
<g>
</g>
<g>
</g>
<g>
</g>
<g>
</g>
<g>
</g>
<g>
</g>
<g>
</g>
<g>
</g>
<g>
</g>
<g>
</g>
<g>
</g>
</svg>
