<?xml version="1.0" encoding="iso-8859-1"?>
<!-- Generator: Adobe Illustrator 16.0.0, SVG Export Plug-In . SVG Version: 6.00 Build 0)  -->
<!DOCTYPE svg PUBLIC "-//W3C//DTD SVG 1.1//EN" "http://www.w3.org/Graphics/SVG/1.1/DTD/svg11.dtd">
<svg version="1.1" id="Capa_1" xmlns="http://www.w3.org/2000/svg" xmlns:xlink="http://www.w3.org/1999/xlink" x="0px" y="0px"
	 width="80.863px" height="80.863px" viewBox="0 0 80.863 80.863" style="enable-background:new 0 0 80.863 80.863;"
	 xml:space="preserve">
<g>
	<g id="_x33__x5F_5">
		<g>
			<path d="M14.195,53.745l20.589,14.709l26.518-37.597l-20.59-14.711L14.195,53.745z M53.971,32.085L33.557,61.112l-12.032-8.598
				l20.415-29.025L53.971,32.085z M66.151,2.234v0.22C55.857-4.901,47.496,6.62,47.496,6.62l20.589,14.709
				C68.085,21.329,76.446,9.59,66.151,2.234z M65.946,13.336L55.742,6.045c2.007-1.113,4.562-1.521,7.357,0.475
				C65.895,8.519,66.342,11.075,65.946,13.336z M45.553,9.348c-2.44-1.698-6.007-3.683-10.01-2.896
				c-5.27,1.033-8.59,6.321-9.48,7.914c-1.402,2.51-2.608,5.597-3.146,8.058c-0.126,0.573-0.239,1.157-0.352,1.741
				c-0.345,1.793-0.673,3.485-1.409,4.871c-1.015,1.909-1.981,3.29-3.396,3.824c-0.401,0.151-0.562,0.158-0.561,0.161
				c-0.188-0.054-0.762-0.464-1.095-0.7V32.32c-1.181-0.844-2.819-0.569-3.663,0.614c-0.864,1.209-0.508,2.861,0.695,3.73
				c1.546,1.106,3.318,2.311,6.473,1.122c3.137-1.183,4.887-3.837,6.184-6.277c1.108-2.084,1.526-4.251,1.932-6.345
				c0.104-0.541,0.208-1.082,0.324-1.614c0.429-1.96,1.449-4.556,2.6-6.611c1.301-2.328,3.631-4.876,5.905-5.323
				c1.681-0.33,3.684,0.391,6.31,2.265l20.232,14.456l3.053-4.285L45.558,9.341L45.553,9.348z M12.875,72.973l-2.812,3.73
				c-0.844,1.185-0.569,2.826,0.613,3.671c1.183,0.844,2.822,0.568,3.665-0.614l2.812-3.73c7.548,2.852,15.688-4.652,15.688-4.652
				l-20.68-14.775C12.162,56.602,7.727,66.751,12.875,72.973z"/>
		</g>
	</g>
</g>
<g>
</g>
<g>
</g>
<g>
</g>
<g>
</g>
<g>
</g>
<g>
</g>
<g>
</g>
<g>
</g>
<g>
</g>
<g>
</g>
<g>
</g>
<g>
</g>
<g>
</g>
<g>
</g>
<g>
</g>
</svg>
