<?xml version="1.0" encoding="iso-8859-1"?>
<!-- Generator: Adobe Illustrator 16.0.0, SVG Export Plug-In . SVG Version: 6.00 Build 0)  -->
<!DOCTYPE svg PUBLIC "-//W3C//DTD SVG 1.1//EN" "http://www.w3.org/Graphics/SVG/1.1/DTD/svg11.dtd">
<svg version="1.1" id="Capa_1" xmlns="http://www.w3.org/2000/svg" xmlns:xlink="http://www.w3.org/1999/xlink" x="0px" y="0px"
	 width="77.297px" height="77.298px" viewBox="0 0 77.297 77.298" style="enable-background:new 0 0 77.297 77.298;"
	 xml:space="preserve">
<g>
	<g id="_x34__x5F_5">
		<g>
			<path d="M69.276,33.818c-1.451,0-2.627,1.179-2.627,2.633v13.943c0,1.453,1.176,2.631,2.627,2.631s2.627-1.178,2.627-2.631
				V36.451C71.903,34.997,70.727,33.818,69.276,33.818z M69.276,58.088c-1.451,0-2.627,1.18-2.627,2.633v13.946
				c0,1.453,1.176,2.631,2.627,2.631s2.627-1.178,2.627-2.631V60.721C71.903,59.268,70.727,58.088,69.276,58.088z M68.012,0H9.286
				C5.192,0,1.84,3.357,1.84,7.459V69.83c0,4.104,3.352,7.46,7.446,7.46h44.695c4.098,0,7.448-3.356,7.448-7.46V35.531
				c0-4.104,3.58-7.461,7.288-7.461s6.74-3.355,6.74-7.459V7.459C75.458,3.357,72.11,0,68.012,0z M70.204,20.611
				c0,1.258-0.784,2.197-1.485,2.197c-6.614,0-12.544,5.708-12.544,12.723V69.83c0,1.189-1.004,2.195-2.191,2.195H9.286
				c-1.188,0-2.192-1.006-2.192-2.195V7.459c0-1.189,1.004-2.195,2.192-2.195h58.726c1.188,0,2.191,1.006,2.191,2.195V20.611z
				 M44.862,47.396l-5.875-2.11c-0.002-0.002-0.002-0.004-0.004-0.005c-0.416-0.248-0.83-0.492-1.243-0.741
				c-0.243-0.146-0.479-0.298-0.717-0.452c-0.021-0.015-0.106-0.076-0.197-0.141c2.401-1.825,4.002-5.09,4.002-8.824
				c0-5.732-3.768-10.378-8.414-10.378c-4.647,0-8.415,4.646-8.415,10.378c0,3.717,1.589,6.968,3.97,8.801
				c-0.379,0.439-0.759,0.791-1.139,1.094c-0.128-0.011-0.259,0.004-0.387,0.051l-6.477,2.328c-1.344,0.482-2.395,1.979-2.395,3.41
				v0.676c0,1.56,1.266,2.826,2.821,2.826h24.04c1.557,0,2.821-1.268,2.821-2.826v-0.676C47.255,49.375,46.204,47.878,44.862,47.396
				z"/>
		</g>
	</g>
</g>
<g>
</g>
<g>
</g>
<g>
</g>
<g>
</g>
<g>
</g>
<g>
</g>
<g>
</g>
<g>
</g>
<g>
</g>
<g>
</g>
<g>
</g>
<g>
</g>
<g>
</g>
<g>
</g>
<g>
</g>
</svg>
