<?xml version="1.0" encoding="iso-8859-1"?>
<!-- Generator: Adobe Illustrator 16.0.0, SVG Export Plug-In . SVG Version: 6.00 Build 0)  -->
<!DOCTYPE svg PUBLIC "-//W3C//DTD SVG 1.1//EN" "http://www.w3.org/Graphics/SVG/1.1/DTD/svg11.dtd">
<svg version="1.1" id="Capa_1" xmlns="http://www.w3.org/2000/svg" xmlns:xlink="http://www.w3.org/1999/xlink" x="0px" y="0px"
	 width="78.335px" height="78.335px" viewBox="0 0 78.335 78.335" style="enable-background:new 0 0 78.335 78.335;"
	 xml:space="preserve">
<g>
	<g id="_x32__x5F_4">
		<g>
			<path d="M22.527,24.123c2.418,0,4.379-1.962,4.379-4.385V4.385C26.906,1.962,24.945,0,22.527,0c-2.419,0-4.38,1.962-4.38,4.385
				v15.353C18.147,22.161,20.108,24.123,22.527,24.123z M55.807,24.123c2.418,0,4.379-1.962,4.379-4.385V4.385
				C60.186,1.962,58.225,0,55.807,0c-2.421,0-4.38,1.962-4.38,4.385v15.353C51.427,22.161,53.386,24.123,55.807,24.123z
				 M47.96,9.904H30.373v5.264h17.589V9.904H47.96z M67.218,9.904h-1.814v5.264h1.814c1.898,0,3.502,1.608,3.502,3.509v10.6H7.611
				v-10.6c0-1.901,1.604-3.509,3.504-3.509h3.457V9.904h-3.457c-4.818,0-8.758,3.948-8.758,8.773v50.886
				c0,4.824,3.94,8.772,8.758,8.772h56.104c4.816,0,8.76-3.949,8.76-8.772V18.677C75.977,13.852,72.035,9.904,67.218,9.904z
				 M70.72,69.562c0,1.9-1.604,3.508-3.502,3.508H11.115c-1.899,0-3.504-1.607-3.504-3.508V34.431H70.72V69.562z M21.65,49.197
				c2.418,0,4.379-1.963,4.379-4.387c0-2.422-1.961-4.385-4.379-4.385s-4.379,1.963-4.379,4.385
				C17.271,47.234,19.232,49.197,21.65,49.197z M39.167,49.197c2.418,0,4.379-1.963,4.379-4.387c0-2.422-1.961-4.385-4.379-4.385
				c-2.418,0-4.379,1.963-4.379,4.385C34.788,47.234,36.749,49.197,39.167,49.197z M21.65,66.742c2.418,0,4.379-1.965,4.379-4.385
				c0-2.424-1.961-4.388-4.379-4.388s-4.379,1.964-4.379,4.388C17.271,64.777,19.232,66.742,21.65,66.742z M39.167,66.742
				c2.418,0,4.379-1.965,4.379-4.385c0-2.424-1.961-4.388-4.379-4.388c-2.418,0-4.379,1.964-4.379,4.388
				C34.788,64.777,36.749,66.742,39.167,66.742z M56.682,49.197c2.418,0,4.379-1.963,4.379-4.387c0-2.422-1.961-4.385-4.379-4.385
				s-4.38,1.963-4.38,4.385C52.302,47.234,54.264,49.197,56.682,49.197z"/>
		</g>
	</g>
</g>
<g>
</g>
<g>
</g>
<g>
</g>
<g>
</g>
<g>
</g>
<g>
</g>
<g>
</g>
<g>
</g>
<g>
</g>
<g>
</g>
<g>
</g>
<g>
</g>
<g>
</g>
<g>
</g>
<g>
</g>
</svg>
