<?xml version="1.0" encoding="iso-8859-1"?>
<!-- Generator: Adobe Illustrator 16.0.0, SVG Export Plug-In . SVG Version: 6.00 Build 0)  -->
<!DOCTYPE svg PUBLIC "-//W3C//DTD SVG 1.1//EN" "http://www.w3.org/Graphics/SVG/1.1/DTD/svg11.dtd">
<svg version="1.1" id="Capa_1" xmlns="http://www.w3.org/2000/svg" xmlns:xlink="http://www.w3.org/1999/xlink" x="0px" y="0px"
	 width="31.503px" height="31.504px" viewBox="0 0 31.503 31.504" style="enable-background:new 0 0 31.503 31.504;"
	 xml:space="preserve">
<g>
	<g>
		<g>
			<path d="M7.737,8.498c1.241,0,2.248-1.006,2.248-2.248V2.248C9.985,1.006,8.979,0,7.737,0C6.497,0,5.489,1.006,5.489,2.248V6.25
				C5.489,7.492,6.497,8.498,7.737,8.498z"/>
		</g>
		<g>
			<path d="M23.767,8.498c1.241,0,2.248-1.006,2.248-2.248V2.248C26.015,1.006,25.008,0,23.767,0c-1.24,0-2.248,1.006-2.248,2.248
				V6.25C21.519,7.492,22.525,8.498,23.767,8.498z"/>
		</g>
		<g>
			<path d="M27.14,4.249V6.25c0,1.859-1.514,3.372-3.373,3.372c-1.858,0-3.371-1.512-3.371-3.372V4.249H11.11V6.25
				c0,1.859-1.513,3.372-3.372,3.372c-1.859,0-3.373-1.512-3.373-3.372V4.249H1.123v27.255h29.259V4.249H27.14z M10.19,29.257h-6.82
				v-6.798h6.82V29.257z M10.19,20.211h-6.82v-6.708h6.82V20.211z M19.064,29.257h-6.625v-6.798h6.625V29.257z M19.064,20.211
				h-6.625v-6.708h6.625V20.211z M28.133,29.257h-6.821v-6.798h6.821V29.257z M28.133,20.211h-6.821v-6.708h6.821V20.211z"/>
		</g>
	</g>
</g>
<g>
</g>
<g>
</g>
<g>
</g>
<g>
</g>
<g>
</g>
<g>
</g>
<g>
</g>
<g>
</g>
<g>
</g>
<g>
</g>
<g>
</g>
<g>
</g>
<g>
</g>
<g>
</g>
<g>
</g>
</svg>
