<?xml version="1.0" encoding="iso-8859-1"?>
<!-- Generator: Adobe Illustrator 16.0.0, SVG Export Plug-In . SVG Version: 6.00 Build 0)  -->
<!DOCTYPE svg PUBLIC "-//W3C//DTD SVG 1.1//EN" "http://www.w3.org/Graphics/SVG/1.1/DTD/svg11.dtd">
<svg version="1.1" id="Capa_1" xmlns="http://www.w3.org/2000/svg" xmlns:xlink="http://www.w3.org/1999/xlink" x="0px" y="0px"
	 width="77.072px" height="77.072px" viewBox="0 0 77.072 77.072" style="enable-background:new 0 0 77.072 77.072;"
	 xml:space="preserve">
<g>
	<g id="_x35__x5F_4">
		<g>
			<path d="M66.562,14.817H49.921V11.48c0-5.871-4.715-10.645-10.51-10.645H22.188c-5.795,0-10.51,4.774-10.51,10.646v3.337H10.51
				C4.715,14.817,0,19.592,0,25.463v40.13c0,5.87,4.715,10.645,10.51,10.645h56.053c5.795,0,10.51-4.773,10.51-10.645v-40.13
				C77.07,19.592,72.355,14.817,66.562,14.817z M71.814,65.812c0,2.929-2.363,5.323-5.254,5.323H10.51
				c-2.89,0-5.254-2.396-5.254-5.323V25.463c0-2.928,2.364-5.324,5.254-5.324h1.168c2.892,0,5.256-2.395,5.256-5.321v-3.337
				c0-2.928,2.364-5.324,5.254-5.324h17.224c2.893,0,5.256,2.396,5.256,5.324v3.337c0,2.927,2.364,5.321,5.254,5.321h16.641
				c2.891,0,5.254,2.396,5.254,5.324v40.349H71.814z M30.946,26.893c-9.493,0-17.189,7.795-17.189,17.409
				c0,9.614,7.696,17.409,17.189,17.409c9.494,0,17.188-7.795,17.188-17.409C48.134,34.688,40.439,26.893,30.946,26.893z
				 M30.946,56.39c-6.58,0-11.934-5.423-11.934-12.088s5.354-12.086,11.934-12.086c6.58,0,11.933,5.421,11.933,12.086
				S37.526,56.39,30.946,56.39z M58.389,25.048c-2.421,0-4.38,1.986-4.38,4.436c0,2.45,1.959,4.435,4.38,4.435
				c2.418,0,4.379-1.984,4.379-4.435C62.768,27.034,60.807,25.048,58.389,25.048z"/>
		</g>
	</g>
</g>
<g>
</g>
<g>
</g>
<g>
</g>
<g>
</g>
<g>
</g>
<g>
</g>
<g>
</g>
<g>
</g>
<g>
</g>
<g>
</g>
<g>
</g>
<g>
</g>
<g>
</g>
<g>
</g>
<g>
</g>
</svg>
