<?xml version="1.0" encoding="iso-8859-1"?>
<!-- Generator: Adobe Illustrator 16.0.0, SVG Export Plug-In . SVG Version: 6.00 Build 0)  -->
<!DOCTYPE svg PUBLIC "-//W3C//DTD SVG 1.1//EN" "http://www.w3.org/Graphics/SVG/1.1/DTD/svg11.dtd">
<svg version="1.1" id="Capa_1" xmlns="http://www.w3.org/2000/svg" xmlns:xlink="http://www.w3.org/1999/xlink" x="0px" y="0px"
	 width="31.594px" height="31.594px" viewBox="0 0 31.594 31.594" style="enable-background:new 0 0 31.594 31.594;"
	 xml:space="preserve">
<g>
	<g>
		<path d="M21.86,21.641c1.463-1.517,2.369-3.574,2.369-5.845l0,0c0-4.649-3.783-8.432-8.432-8.432l0,0
			c-2.269,0-4.328,0.905-5.845,2.369C9.916,9.769,9.771,9.915,9.734,9.951c-1.463,1.518-2.369,3.576-2.369,5.845l0,0
			c0,4.649,3.783,8.433,8.432,8.433l0,0c2.27,0,4.328-0.905,5.845-2.369C21.679,21.823,21.824,21.678,21.86,21.641z M9.323,12.303
			c0.002-0.003,0.003-0.007,0.005-0.012c0.109-0.199,0.228-0.393,0.354-0.581c0.592,0.218,1.181,0.396,1.765,0.537
			c-0.167,0.917-0.296,1.95-0.336,3.068H8.464C8.534,14.232,8.833,13.21,9.323,12.303z M9.684,19.883
			c-0.68-1.014-1.11-2.208-1.213-3.493h2.633c0.017,0.962,0.104,1.972,0.29,3.01C10.632,19.576,10.045,19.759,9.684,19.883z
			 M10.403,20.783c0.316-0.097,0.725-0.21,1.213-0.324c0.136,0.562,0.303,1.13,0.505,1.702
			C11.48,21.789,10.902,21.324,10.403,20.783z M11.665,11.195c-0.423-0.103-0.848-0.225-1.275-0.369
			c0.055-0.061,0.691-0.817,1.771-1.417C12.003,9.889,11.828,10.491,11.665,11.195z M15.26,23.127
			c-0.603-0.044-1.186-0.157-1.74-0.338c-0.365-0.852-0.643-1.704-0.846-2.544c0.761-0.133,1.635-0.241,2.586-0.281V23.127z
			 M15.26,18.875c-1.035,0.041-1.983,0.158-2.805,0.305c-0.167-0.96-0.247-1.896-0.26-2.791h3.065V18.875z M15.26,15.316h-3.054
			c0.041-1.034,0.16-1.991,0.312-2.841c0.948,0.164,1.867,0.238,2.742,0.252V15.316z M15.26,11.644
			c-0.808-0.013-1.657-0.083-2.526-0.229c0.295-1.286,0.633-2.214,0.789-2.612c0.554-0.18,1.136-0.292,1.738-0.337L15.26,11.644
			L15.26,11.644z M22.288,19.254c-0.008,0.016-0.014,0.031-0.021,0.047c-0.108,0.198-0.228,0.392-0.353,0.579
			c-0.571-0.21-1.141-0.383-1.704-0.521c0.182-1.024,0.267-2.021,0.283-2.969h2.632C23.042,17.418,22.752,18.388,22.288,19.254z
			 M21.911,11.71c0.701,1.044,1.133,2.278,1.22,3.606h-2.646c-0.041-1.136-0.173-2.184-0.343-3.108
			C20.932,12.025,21.541,11.837,21.911,11.71z M16.334,8.465c0.603,0.044,1.185,0.157,1.739,0.337
			c0.154,0.391,0.485,1.299,0.779,2.558c-0.744,0.128-1.597,0.23-2.518,0.269V8.465z M16.334,12.717
			c1.007-0.039,1.931-0.152,2.738-0.294c0.156,0.864,0.279,1.838,0.32,2.894h-3.058V12.717z M18.074,22.789
			c-0.554,0.181-1.137,0.294-1.741,0.338v-3.178c0.831,0.013,1.705,0.086,2.6,0.242C18.729,21.048,18.448,21.919,18.074,22.789z
			 M19.15,19.133c-0.974-0.173-1.919-0.254-2.817-0.269V16.39h3.069C19.388,17.27,19.312,18.189,19.15,19.133z M21.191,10.809
			c-0.328,0.101-0.756,0.221-1.271,0.338c-0.161-0.684-0.333-1.269-0.485-1.738C20.091,9.784,20.683,10.258,21.191,10.809z
			 M19.474,22.16c0.208-0.587,0.378-1.17,0.516-1.749c0.404,0.101,0.81,0.217,1.217,0.356C21.151,20.827,20.568,21.528,19.474,22.16
			z"/>
		<path d="M31.583,22.982l-0.826-6.124c-0.111-0.832-1.083-1.231-1.748-0.719l-4.891,3.777c-0.665,0.515-0.524,1.554,0.253,1.873
			l0.675,0.277c0.111,0.044,0.418,0.166,0.224,0.489c-1.459,2.428-4.018,4.062-6.878,4.719c-0.494,0.112-0.846,0.553-0.846,1.06
			v1.529c0,0.328,0.148,0.638,0.402,0.845s0.588,0.288,0.909,0.221c4.224-0.879,7.659-3.452,9.916-7.002
			c0.138-0.25,0.351-0.187,0.435-0.151l0.88,0.361C30.866,24.455,31.696,23.815,31.583,22.982z"/>
		<path d="M19.803,7.565c0.515,0.665,1.555,0.524,1.873-0.253l0.277-0.676c0.045-0.111,0.165-0.417,0.489-0.223
			c2.428,1.459,4.061,4.017,4.718,6.878c0.113,0.494,0.553,0.845,1.06,0.845h1.529c0.328,0,0.638-0.148,0.845-0.402
			s0.288-0.588,0.222-0.909c-0.88-4.224-3.453-7.659-7.003-9.916c-0.249-0.138-0.187-0.351-0.151-0.434l0.362-0.88
			c0.316-0.777-0.323-1.607-1.156-1.494l-6.123,0.826c-0.833,0.112-1.232,1.083-0.718,1.748L19.803,7.565z"/>
		<path d="M2.584,15.452l4.891-3.777C8.141,11.16,8,10.121,7.222,9.802L6.546,9.525c-0.111-0.044-0.418-0.166-0.223-0.49
			c1.459-2.427,4.017-4.062,6.878-4.718c0.494-0.113,0.845-0.553,0.845-1.06V1.729c0-0.328-0.148-0.638-0.402-0.845
			s-0.588-0.288-0.909-0.221c-4.224,0.88-7.659,3.453-9.916,7.003c-0.138,0.25-0.351,0.187-0.435,0.152l-0.88-0.362
			C0.729,7.138-0.102,7.778,0.01,8.611l0.826,6.124C0.949,15.567,1.92,15.966,2.584,15.452z"/>
		<path d="M11.792,24.028c-0.514-0.665-1.554-0.524-1.873,0.253l-0.277,0.676c-0.045,0.111-0.165,0.417-0.489,0.223
			c-2.428-1.459-4.061-4.017-4.718-6.878c-0.113-0.494-0.553-0.845-1.06-0.845h-1.53c-0.328,0-0.638,0.148-0.845,0.402
			s-0.288,0.588-0.221,0.909c0.88,4.224,3.453,7.658,7.003,9.916c0.249,0.138,0.186,0.351,0.151,0.434l-0.362,0.88
			c-0.317,0.777,0.323,1.607,1.156,1.494l6.123-0.826c0.833-0.112,1.231-1.083,0.717-1.748L11.792,24.028z"/>
	</g>
</g>
<g>
</g>
<g>
</g>
<g>
</g>
<g>
</g>
<g>
</g>
<g>
</g>
<g>
</g>
<g>
</g>
<g>
</g>
<g>
</g>
<g>
</g>
<g>
</g>
<g>
</g>
<g>
</g>
<g>
</g>
</svg>
