<?xml version="1.0" encoding="iso-8859-1"?>
<!-- Generator: Adobe Illustrator 16.0.0, SVG Export Plug-In . SVG Version: 6.00 Build 0)  -->
<!DOCTYPE svg PUBLIC "-//W3C//DTD SVG 1.1//EN" "http://www.w3.org/Graphics/SVG/1.1/DTD/svg11.dtd">
<svg version="1.1" id="Capa_1" xmlns="http://www.w3.org/2000/svg" xmlns:xlink="http://www.w3.org/1999/xlink" x="0px" y="0px"
	 width="77.145px" height="77.145px" viewBox="0 0 77.145 77.145" style="enable-background:new 0 0 77.145 77.145;"
	 xml:space="preserve">
<g>
	<g id="_x32__x5F_3">
		<g>
			<path d="M61.159,10.646H5.254C2.365,10.646,0,12.795,0,15.69v56.07c0,2.896,2.365,5.265,5.254,5.265h56.344
				c2.891,0,5.036-2.369,5.036-5.265V15.69C66.634,12.795,64.05,10.646,61.159,10.646z M61.598,71.981H5.254V15.69h56.344V71.981z
				 M69.26,0.12H18.172c-1.45,0-2.626,1.177-2.626,2.631c0,1.455,1.176,2.414,2.626,2.414h51.307c1.449,0,2.629,1.179,2.629,2.631
				v57.232c0,1.453,0.957,2.631,2.408,2.631c1.452,0,2.629-1.178,2.629-2.631V8.015C77.145,3.661,73.607,0.12,69.26,0.12z
				 M11.749,66.936c0.74,0,1.477-0.312,1.996-0.92l9.354-10.932l10.732,7.973c1.14,0.842,2.74,0.633,3.621-0.477l18.83-23.685
				c0.903-1.137,0.716-2.792-0.419-3.698c-1.135-0.903-2.787-0.716-3.692,0.419L34.923,57.313l-10.661-7.916
				c-1.11-0.823-2.663-0.646-3.56,0.402L9.755,62.592c-0.944,1.104-0.817,2.764,0.285,3.711
				C10.535,66.727,11.144,66.936,11.749,66.936z M21.751,36.379c2.902,0,5.255-2.356,5.255-5.264c0-2.907-2.354-5.263-5.255-5.263
				c-2.902,0-5.254,2.356-5.254,5.263C16.497,34.022,18.849,36.379,21.751,36.379z"/>
		</g>
	</g>
</g>
<g>
</g>
<g>
</g>
<g>
</g>
<g>
</g>
<g>
</g>
<g>
</g>
<g>
</g>
<g>
</g>
<g>
</g>
<g>
</g>
<g>
</g>
<g>
</g>
<g>
</g>
<g>
</g>
<g>
</g>
</svg>
