<?xml version="1.0" encoding="iso-8859-1"?>
<!-- Generator: Adobe Illustrator 16.0.0, SVG Export Plug-In . SVG Version: 6.00 Build 0)  -->
<!DOCTYPE svg PUBLIC "-//W3C//DTD SVG 1.1//EN" "http://www.w3.org/Graphics/SVG/1.1/DTD/svg11.dtd">
<svg version="1.1" id="Capa_1" xmlns="http://www.w3.org/2000/svg" xmlns:xlink="http://www.w3.org/1999/xlink" x="0px" y="0px"
	 width="31.488px" height="31.488px" viewBox="0 0 31.488 31.488" style="enable-background:new 0 0 31.488 31.488;"
	 xml:space="preserve">
<g>
	<g>
		<path d="M28.114,10.715c0-3.943-3.208-7.151-7.15-7.151h-2.033V2h2.297V0H10.261v2h2.298v1.563h-2.034
			c-3.943,0-7.151,3.208-7.151,7.151v16.438h4.357l-3.997,4.336h6.027l1.937-4.336h8.061l1.936,4.336h6.027l-3.998-4.336h4.391
			V10.715z M14.559,2h2.37v1.563h-2.37V2z M26.114,25.152H5.374V10.715c0-2.84,2.311-5.151,5.151-5.151h10.437
			c2.84,0,5.151,2.311,5.151,5.151L26.114,25.152L26.114,25.152z"/>
		<path d="M8.14,14.409c2.102-1.115,4.445-1.698,6.825-1.698h0.021V8.227H8.14V14.409z"/>
		<path d="M23.317,8.227h-6.846v4.484h0.021c2.379,0,4.724,0.583,6.825,1.698V8.227z"/>
		<circle cx="9.978" cy="20.483" r="1.838"/>
		<circle cx="21.731" cy="20.483" r="1.838"/>
	</g>
</g>
<g>
</g>
<g>
</g>
<g>
</g>
<g>
</g>
<g>
</g>
<g>
</g>
<g>
</g>
<g>
</g>
<g>
</g>
<g>
</g>
<g>
</g>
<g>
</g>
<g>
</g>
<g>
</g>
<g>
</g>
</svg>
