<?xml version="1.0" encoding="iso-8859-1"?>
<!-- Generator: Adobe Illustrator 16.0.0, SVG Export Plug-In . SVG Version: 6.00 Build 0)  -->
<!DOCTYPE svg PUBLIC "-//W3C//DTD SVG 1.1//EN" "http://www.w3.org/Graphics/SVG/1.1/DTD/svg11.dtd">
<svg version="1.1" id="Capa_1" xmlns="http://www.w3.org/2000/svg" xmlns:xlink="http://www.w3.org/1999/xlink" x="0px" y="0px"
	 width="77.245px" height="77.244px" viewBox="0 0 77.245 77.244" style="enable-background:new 0 0 77.245 77.244;"
	 xml:space="preserve">
<g>
	<g id="_x31__x5F_3">
		<g>
			<path d="M38.623,22.712c-8.789,0-15.939,7.162-15.939,15.965c0,8.804,7.15,15.964,15.939,15.964c8.79,0,15.94-7.162,15.94-15.964
				C54.563,29.874,47.413,22.712,38.623,22.712z M38.623,49.38c-5.891,0-10.683-4.802-10.683-10.702
				c0-5.902,4.792-10.702,10.683-10.702c5.894,0,10.687,4.8,10.687,10.702C49.309,44.578,44.514,49.38,38.623,49.38z M71.656,27.386
				h-3.181c-0.441,0-0.84-0.266-1.008-0.676c-0.17-0.408-0.076-0.878,0.236-1.19l2.248-2.253c2.044-2.047,2.044-5.397,0-7.443
				l-8.511-8.525c-1.021-1.024-2.369-1.535-3.716-1.535c-1.348,0-2.693,0.511-3.715,1.535L51.76,9.55
				c-0.207,0.209-0.486,0.321-0.771,0.321c-0.141,0-0.282-0.028-0.417-0.083c-0.408-0.168-0.675-0.567-0.675-1.01V5.591
				C49.897,2.697,47.533,0,44.643,0H32.605c-2.891,0-5.256,2.697-5.256,5.591v3.186c0,0.443-0.265,0.842-0.673,1.01
				C26.541,9.842,26.4,9.87,26.259,9.87c-0.284,0-0.562-0.112-0.772-0.321l-2.248-2.251c-1.021-1.024-2.37-1.535-3.716-1.535
				c-1.348,0-2.694,0.511-3.715,1.535l-8.513,8.525c-2.043,2.046-2.043,5.396,0,7.443l2.25,2.253
				c0.312,0.312,0.405,0.782,0.237,1.19c-0.169,0.41-0.568,0.676-1.009,0.676h-3.18c-2.891,0.001-5.475,2.369-5.475,5.265v12.056
				c0,2.894,2.584,5.264,5.475,5.264h3.179c0.441,0,0.84,0.267,1.009,0.675c0.168,0.408,0.076,0.879-0.237,1.191l-2.25,2.253
				c-2.043,2.046-2.043,5.396,0,7.443l8.513,8.524c1.021,1.023,2.368,1.535,3.715,1.535c1.346,0,2.694-0.512,3.716-1.535
				l2.248-2.252c0.21-0.21,0.489-0.32,0.772-0.32c0.141,0,0.282,0.026,0.418,0.082c0.408,0.168,0.673,0.567,0.673,1.01v3.186
				c0,2.896,2.365,5.482,5.256,5.482h12.037c2.891,0,5.254-2.587,5.254-5.482v-3.186c0-0.441,0.267-0.84,0.675-1.01
				c0.134-0.057,0.276-0.082,0.417-0.082c0.285,0,0.564,0.109,0.771,0.32l2.25,2.252c1.021,1.023,2.368,1.535,3.715,1.535
				s2.694-0.512,3.715-1.535l8.512-8.524c2.044-2.048,2.044-5.397,0-7.443l-2.248-2.253c-0.312-0.312-0.407-0.783-0.236-1.191
				c0.168-0.408,0.566-0.675,1.008-0.675h3.181c2.889,0,5.473-2.37,5.473-5.264V32.65C77.129,29.754,74.544,27.386,71.656,27.386z
				 M71.875,44.706h-3.399c-2.576,0-4.877,1.54-5.863,3.924c-0.987,2.384-0.446,5.103,1.375,6.929l2.25,2.252l-8.512,8.525
				l-2.25-2.252c-1.197-1.201-2.791-1.861-4.487-1.861c-0.837,0-1.654,0.162-2.429,0.483c-2.379,0.987-3.916,3.293-3.916,5.872
				v3.406H32.605v-3.406c0-2.579-1.539-4.885-3.917-5.872c-0.774-0.321-1.592-0.483-2.429-0.483c-1.694,0-3.288,0.66-4.488,1.861
				l-2.248,2.252l-8.512-8.525l2.25-2.252c1.822-1.826,2.361-4.545,1.376-6.929c-0.987-2.384-3.287-3.924-5.864-3.924h-3.4V32.65
				h3.398c2.578,0,4.877-1.542,5.864-3.925c0.985-2.383,0.446-5.103-1.376-6.927l-2.25-2.252l8.512-8.527l2.248,2.254
				c1.2,1.2,2.793,1.862,4.488,1.862c0.837,0,1.655-0.164,2.429-0.484c2.379-0.988,3.917-3.293,3.917-5.874V5.262h12.038v3.516
				c0,2.581,1.537,4.885,3.916,5.874c0.774,0.32,1.59,0.484,2.429,0.484c1.696,0,3.29-0.662,4.487-1.862l2.25-2.254l8.512,8.527
				l-2.25,2.252c-1.821,1.824-2.361,4.543-1.375,6.927c0.984,2.384,3.287,3.925,5.863,3.925h3.399v12.055H71.875z"/>
		</g>
	</g>
</g>
<g>
</g>
<g>
</g>
<g>
</g>
<g>
</g>
<g>
</g>
<g>
</g>
<g>
</g>
<g>
</g>
<g>
</g>
<g>
</g>
<g>
</g>
<g>
</g>
<g>
</g>
<g>
</g>
<g>
</g>
</svg>
