<?xml version="1.0" encoding="iso-8859-1"?>
<!-- Generator: Adobe Illustrator 16.0.0, SVG Export Plug-In . SVG Version: 6.00 Build 0)  -->
<!DOCTYPE svg PUBLIC "-//W3C//DTD SVG 1.1//EN" "http://www.w3.org/Graphics/SVG/1.1/DTD/svg11.dtd">
<svg version="1.1" id="Capa_1" xmlns="http://www.w3.org/2000/svg" xmlns:xlink="http://www.w3.org/1999/xlink" x="0px" y="0px"
	 width="64px" height="64px" viewBox="0 0 64 64" style="enable-background:new 0 0 64 64;" xml:space="preserve">
<g>
	<g>
		<g id="circle_9_">
			<g>
				<path d="M23,24c0.553,0,1-0.447,1-1s-0.447-1-1-1s-1,0.447-1,1S22.447,24,23,24z M19,31c-0.553,0-1,0.447-1,1s0.447,1,1,1
					s1-0.447,1-1S19.553,31,19,31z M23,40c-0.553,0-1,0.447-1,1s0.447,1,1,1s1-0.447,1-1S23.553,40,23,40z M41,24
					c0.553,0,1-0.447,1-1s-0.447-1-1-1s-1,0.447-1,1S40.447,24,41,24z M32,20c0.553,0,1-0.447,1-1s-0.447-1-1-1
					c-0.553,0-1,0.447-1,1S31.447,20,32,20z M32,44c-0.553,0-1,0.447-1,1s0.447,1,1,1c0.553,0,1-0.447,1-1S32.553,44,32,44z M32,0
					C14.327,0,0,14.327,0,32c0,17.674,14.327,32,32,32s32-14.326,32-32C64,14.327,49.673,0,32,0z M41,20c1.657,0,3,1.343,3,3
					s-1.343,3-3,3s-3-1.343-3-3S39.343,20,41,20z M32,16c1.657,0,3,1.343,3,3s-1.343,3-3,3s-3-1.343-3-3S30.343,16,32,16z M23,20
					c1.657,0,3,1.343,3,3s-1.343,3-3,3c-1.656,0-3-1.343-3-3S21.344,20,23,20z M16,32c0-1.657,1.343-3,3-3s3,1.343,3,3s-1.343,3-3,3
					S16,33.657,16,32z M23,44c-1.656,0-3-1.343-3-3c0-1.656,1.344-3,3-3c1.657,0,3,1.344,3,3C26,42.657,24.657,44,23,44z M32,48
					c-1.657,0-3-1.343-3-3s1.343-3,3-3s3,1.343,3,3S33.657,48,32,48z M32,38c-3.313,0-6-2.688-6-6c0-3.313,2.687-6,6-6
					c3.312,0,6,2.687,6,6C38,35.312,35.312,38,32,38z M41,44c-1.657,0-3-1.343-3-3c0-1.656,1.343-3,3-3s3,1.344,3,3
					C44,42.657,42.657,44,41,44z M45,35c-1.657,0-3-1.343-3-3s1.343-3,3-3s3,1.343,3,3S46.657,35,45,35z M45,31
					c-0.553,0-1,0.447-1,1s0.447,1,1,1s1-0.447,1-1S45.553,31,45,31z M41,40c-0.553,0-1,0.447-1,1s0.447,1,1,1s1-0.447,1-1
					S41.553,40,41,40z M32,27.995c-2.212,0-4.005,1.793-4.005,4.005s1.793,4.005,4.005,4.005s4.006-1.793,4.006-4.005
					S34.212,27.995,32,27.995z"/>
			</g>
		</g>
	</g>
</g>
<g>
</g>
<g>
</g>
<g>
</g>
<g>
</g>
<g>
</g>
<g>
</g>
<g>
</g>
<g>
</g>
<g>
</g>
<g>
</g>
<g>
</g>
<g>
</g>
<g>
</g>
<g>
</g>
<g>
</g>
</svg>
