<?xml version="1.0" encoding="iso-8859-1"?>
<!-- Generator: Adobe Illustrator 16.0.0, SVG Export Plug-In . SVG Version: 6.00 Build 0)  -->
<!DOCTYPE svg PUBLIC "-//W3C//DTD SVG 1.1//EN" "http://www.w3.org/Graphics/SVG/1.1/DTD/svg11.dtd">
<svg version="1.1" id="Capa_1" xmlns="http://www.w3.org/2000/svg" xmlns:xlink="http://www.w3.org/1999/xlink" x="0px" y="0px"
	 width="47px" height="47px" viewBox="0 0 47 47" style="enable-background:new 0 0 47 47;" xml:space="preserve">
<g>
	<g>
		<path d="M23.5,7.049c-9.069,0-16.451,7.382-16.451,16.451c0,9.068,7.382,16.451,16.451,16.451c9.068,0,16.451-7.383,16.451-16.451
			C39.951,14.431,32.568,7.049,23.5,7.049z M23.5,32.898c-5.192,0-9.399-4.207-9.399-9.398c0-5.192,9.399-15.039,9.399-15.039
			s9.398,9.847,9.398,15.039C32.898,28.691,28.691,32.898,23.5,32.898z"/>
		<path d="M23.5,0C10.522,0,0,10.522,0,23.5C0,36.479,10.522,47,23.5,47C36.479,47,47,36.479,47,23.5C47,10.522,36.479,0,23.5,0z
			 M23.5,43.711c-11.144,0-20.211-9.066-20.211-20.211c0-11.144,9.067-20.211,20.211-20.211c11.145,0,20.211,9.067,20.211,20.211
			C43.711,34.645,34.645,43.711,23.5,43.711z"/>
	</g>
</g>
<g>
</g>
<g>
</g>
<g>
</g>
<g>
</g>
<g>
</g>
<g>
</g>
<g>
</g>
<g>
</g>
<g>
</g>
<g>
</g>
<g>
</g>
<g>
</g>
<g>
</g>
<g>
</g>
<g>
</g>
</svg>
