<?xml version="1.0" encoding="iso-8859-1"?>
<!-- Generator: Adobe Illustrator 16.0.0, SVG Export Plug-In . SVG Version: 6.00 Build 0)  -->
<!DOCTYPE svg PUBLIC "-//W3C//DTD SVG 1.1//EN" "http://www.w3.org/Graphics/SVG/1.1/DTD/svg11.dtd">
<svg version="1.1" id="Capa_1" xmlns="http://www.w3.org/2000/svg" xmlns:xlink="http://www.w3.org/1999/xlink" x="0px" y="0px"
	 width="64px" height="64px" viewBox="0 0 64 64" style="enable-background:new 0 0 64 64;" xml:space="preserve">
<g>
	<g>
		<g id="circle_37_">
			<g>
				<path d="M25.636,24.222l-1.414,1.414l0.001,0.001L25.636,24.222L25.636,24.222z M39.412,25.271l0.365,0.366v-0.001
					L39.412,25.271z M38.363,39.777l1.414-1.413v-0.001L38.363,39.777L38.363,39.777z M24.222,38.364l1.414,1.413h0.001
					L24.222,38.364L24.222,38.364z M32,0C14.327,0,0,14.327,0,32c0,17.674,14.327,32,32,32s32-14.326,32-32C64,14.327,49.673,0,32,0
					z M36.879,35.464l2.898,2.899l2.828-2.828l1.414,8.484l-8.484-1.414l2.828-2.828l-2.898-2.898
					c-2.074,1.475-4.864,1.479-6.937,0.007l-2.892,2.892l2.828,2.83l-8.485,1.414l1.414-8.485l2.829,2.828l2.899-2.898
					c-1.476-2.073-1.48-4.865-0.008-6.937l-2.892-2.892l-2.829,2.828l-1.414-8.485l8.485,1.414l-2.828,2.829l2.892,2.892
					c2.072-1.473,4.862-1.468,6.937,0.007l2.899-2.899l-2.829-2.828l8.485-1.414l-1.414,8.485l-2.83-2.828l-2.892,2.892
					C38.357,30.6,38.354,33.391,36.879,35.464z M34.792,29.135c-1.554-1.514-4.028-1.514-5.583,0l-0.074,0.074
					c-1.514,1.554-1.514,4.027,0,5.583l0.074,0.073c1.554,1.514,4.027,1.514,5.583,0l0.073-0.073c1.514-1.556,1.514-4.029,0-5.584
					L34.792,29.135z"/>
			</g>
		</g>
	</g>
</g>
<g>
</g>
<g>
</g>
<g>
</g>
<g>
</g>
<g>
</g>
<g>
</g>
<g>
</g>
<g>
</g>
<g>
</g>
<g>
</g>
<g>
</g>
<g>
</g>
<g>
</g>
<g>
</g>
<g>
</g>
</svg>
