<?xml version="1.0" encoding="iso-8859-1"?>
<!-- Generator: Adobe Illustrator 16.0.0, SVG Export Plug-In . SVG Version: 6.00 Build 0)  -->
<!DOCTYPE svg PUBLIC "-//W3C//DTD SVG 1.1//EN" "http://www.w3.org/Graphics/SVG/1.1/DTD/svg11.dtd">
<svg version="1.1" id="Capa_1" xmlns="http://www.w3.org/2000/svg" xmlns:xlink="http://www.w3.org/1999/xlink" x="0px" y="0px"
	 width="47px" height="47px" viewBox="0 0 47 47" style="enable-background:new 0 0 47 47;" xml:space="preserve">
<g>
	<path d="M42.299,8.812H4.701C2.115,8.812,0,10.927,0,13.512v19.976c0,2.586,2.115,4.7,4.701,4.7h37.598
		c2.586,0,4.701-2.114,4.701-4.7V13.511C47,10.926,44.885,8.812,42.299,8.812z M43.164,33.171c0,0.519-0.424,0.941-0.941,0.941
		H4.777c-0.518,0-0.941-0.423-0.941-0.941v-3.657c0-0.519,0.424-0.94,0.941-0.94h37.446c0.518,0,0.94,0.422,0.94,0.94L43.164,33.171
		L43.164,33.171z"/>
</g>
<g>
</g>
<g>
</g>
<g>
</g>
<g>
</g>
<g>
</g>
<g>
</g>
<g>
</g>
<g>
</g>
<g>
</g>
<g>
</g>
<g>
</g>
<g>
</g>
<g>
</g>
<g>
</g>
<g>
</g>
</svg>
