<?xml version="1.0" encoding="iso-8859-1"?>
<!-- Generator: Adobe Illustrator 16.0.0, SVG Export Plug-In . SVG Version: 6.00 Build 0)  -->
<!DOCTYPE svg PUBLIC "-//W3C//DTD SVG 1.1//EN" "http://www.w3.org/Graphics/SVG/1.1/DTD/svg11.dtd">
<svg version="1.1" id="Capa_1" xmlns="http://www.w3.org/2000/svg" xmlns:xlink="http://www.w3.org/1999/xlink" x="0px" y="0px"
	 width="64px" height="64px" viewBox="0 0 64 64" style="enable-background:new 0 0 64 64;" xml:space="preserve">
<g>
	<g>
		<g id="circle_15_">
			<g>
				<path d="M44,21H20c-1.104,0-2,0.896-2,2v12c0,1.104,0.896,2,2,2h24c1.104,0,2-0.896,2-2V23C46,21.896,45.104,21,44,21z M32,0
					C14.327,0,0,14.327,0,32c0,17.674,14.327,32,32,32s32-14.326,32-32C64,14.327,49.673,0,32,0z M48,35c0,2.209-1.791,4-4,4H33v4h5
					c0.553,0,1,0.447,1,1s-0.447,1-1,1H26c-0.553,0-1-0.447-1-1s0.447-1,1-1h5v-4H20c-2.209,0-4-1.791-4-4V23c0-2.209,1.791-4,4-4
					h24c2.209,0,4,1.791,4,4V35z"/>
			</g>
		</g>
	</g>
</g>
<g>
</g>
<g>
</g>
<g>
</g>
<g>
</g>
<g>
</g>
<g>
</g>
<g>
</g>
<g>
</g>
<g>
</g>
<g>
</g>
<g>
</g>
<g>
</g>
<g>
</g>
<g>
</g>
<g>
</g>
</svg>
