<?xml version="1.0" encoding="iso-8859-1"?>
<!-- Generator: Adobe Illustrator 16.0.0, SVG Export Plug-In . SVG Version: 6.00 Build 0)  -->
<!DOCTYPE svg PUBLIC "-//W3C//DTD SVG 1.1//EN" "http://www.w3.org/Graphics/SVG/1.1/DTD/svg11.dtd">
<svg version="1.1" id="Capa_1" xmlns="http://www.w3.org/2000/svg" xmlns:xlink="http://www.w3.org/1999/xlink" x="0px" y="0px"
	 width="55.677px" height="55.677px" viewBox="0 0 55.677 55.677" style="enable-background:new 0 0 55.677 55.677;"
	 xml:space="preserve">
<g>
	<g>
		<g id="dumbbell">
			<g>
				<path d="M54.042,14.096L43.418,2.682c-2.181-2.343-5.739-2.586-7.935-0.544l-1.004,0.934c-0.277,0.258-0.523,0.545-0.735,0.854
					c-0.339-0.097-0.688-0.166-1.04-0.205c-1.667-0.183-3.304,0.347-4.488,1.45l-1.171,1.09c-1.187,1.104-1.83,2.698-1.767,4.374
					c0.058,1.528,0.685,3.009,1.765,4.17c0,0,1.069,1.148,2.14,2.297c-2.868,2.669-9.279,8.637-12.146,11.306
					c-1.068-1.149-2.139-2.298-2.139-2.298c-1.08-1.16-2.512-1.892-4.032-2.059c-1.667-0.184-3.304,0.345-4.489,1.449L5.204,26.59
					c-1.186,1.103-1.829,2.698-1.767,4.375c0.014,0.354,0.058,0.705,0.13,1.051c-0.323,0.188-0.627,0.414-0.905,0.673L1.66,33.621
					c-1.111,1.033-1.715,2.524-1.656,4.094c0.053,1.416,0.632,2.787,1.631,3.859l10.624,11.413c0.999,1.073,2.324,1.749,3.732,1.904
					c1.561,0.172,3.091-0.324,4.202-1.357l1.004-0.935c0.277-0.259,0.523-0.545,0.736-0.854c0.338,0.097,0.685,0.165,1.037,0.204
					c1.668,0.183,3.305-0.347,4.489-1.449l1.172-1.091c1.187-1.104,1.829-2.698,1.768-4.374c-0.059-1.528-0.685-3.01-1.764-4.169
					c0,0-1.07-1.149-2.14-2.299c2.866-2.669,9.278-8.637,12.146-11.305c1.068,1.148,2.14,2.298,2.14,2.298
					c1.08,1.16,2.511,1.893,4.031,2.059c1.668,0.183,3.305-0.347,4.488-1.449l1.172-1.09c1.186-1.104,1.829-2.697,1.768-4.374
					c-0.014-0.354-0.057-0.706-0.129-1.052c0.323-0.188,0.626-0.414,0.903-0.672l1.005-0.935c1.11-1.034,1.715-2.526,1.654-4.094
					C55.62,16.539,55.041,15.168,54.042,14.096z M19.069,50.313l-1.004,0.935c-0.935,0.87-2.511,0.696-3.521-0.389L3.921,39.445
					c-1.009-1.083-1.068-2.668-0.133-3.538l1.002-0.935c0.938-0.872,2.512-0.698,3.521,0.386l10.624,11.414
					C19.945,47.857,20.006,49.441,19.069,50.313z M48.345,26.794l-1.172,1.091c-1.091,1.016-2.93,0.813-4.105-0.45l-4.269-4.585
					L22.082,38.411l4.268,4.584c1.177,1.265,1.245,3.113,0.154,4.129l-1.172,1.091c-1.09,1.016-2.93,0.813-4.106-0.45L7.487,33.006
					c-1.178-1.267-1.246-3.114-0.155-4.129l1.172-1.091c1.091-1.018,2.93-0.816,4.107,0.449l4.267,4.584l16.718-15.561l-4.267-4.583
					c-1.179-1.266-1.248-3.114-0.156-4.13l1.172-1.09c1.092-1.017,2.931-0.815,4.108,0.449l13.737,14.76
					C49.368,23.929,49.437,25.778,48.345,26.794z M51.892,19.764l-1.005,0.935c-0.937,0.871-2.512,0.697-3.521-0.387L36.741,8.897
					c-1.01-1.085-1.068-2.669-0.134-3.539l1.004-0.935c0.936-0.871,2.512-0.697,3.521,0.386l10.624,11.415
					C52.767,17.309,52.825,18.894,51.892,19.764z"/>
			</g>
		</g>
	</g>
</g>
<g>
</g>
<g>
</g>
<g>
</g>
<g>
</g>
<g>
</g>
<g>
</g>
<g>
</g>
<g>
</g>
<g>
</g>
<g>
</g>
<g>
</g>
<g>
</g>
<g>
</g>
<g>
</g>
<g>
</g>
</svg>
