<?xml version="1.0" encoding="iso-8859-1"?>
<!-- Generator: Adobe Illustrator 16.0.0, SVG Export Plug-In . SVG Version: 6.00 Build 0)  -->
<!DOCTYPE svg PUBLIC "-//W3C//DTD SVG 1.1//EN" "http://www.w3.org/Graphics/SVG/1.1/DTD/svg11.dtd">
<svg version="1.1" id="Capa_1" xmlns="http://www.w3.org/2000/svg" xmlns:xlink="http://www.w3.org/1999/xlink" x="0px" y="0px"
	 width="950px" height="950px" viewBox="0 0 950 950" style="enable-background:new 0 0 950 950;" xml:space="preserve">
<g>
	<g>
		<path d="M903.648,715.014h-58.655V374.836c0-17.606-14.271-31.878-31.878-31.878H672.419
			c-3.382,32.724-11.543,64.548-24.413,94.975c-16.794,39.706-40.83,75.359-71.441,105.972
			c-24.072,24.071-51.273,44.057-81.099,59.673v111.437h-58.654c-12.446,0-18.411,15.284-9.255,23.715l219.736,202.32
			c6.481,5.968,14.709,8.951,22.938,8.951c8.228,0,16.456-2.984,22.937-8.951l219.737-202.32
			C922.06,730.299,916.095,715.014,903.648,715.014z"/>
		<path d="M470.199,587.867c4.264-1.977,8.478-4.043,12.633-6.205c4.271-2.222,8.483-4.537,12.633-6.951
			c82.284-47.844,140.378-132.689,151.519-231.754c0.471-4.187,0.866-8.397,1.167-12.633c0.298-4.188,0.511-8.4,0.64-12.633
			c0.097-3.171,0.161-6.351,0.161-9.546C648.952,137.962,510.99,0,340.807,0C170.622,0,32.66,137.962,32.66,308.146
			s137.962,308.146,308.146,308.146C387.023,616.292,430.854,606.099,470.199,587.867z M220.295,462.612V153.68
			c0-15.877,17.184-25.803,30.937-17.871L519.06,290.275c10.138,5.847,12.799,18.16,8.003,27.417
			c-1.716,3.311-4.377,6.234-8.003,8.325l-44.539,25.687L251.232,480.483C237.479,488.415,220.295,478.489,220.295,462.612z"/>
	</g>
</g>
<g>
</g>
<g>
</g>
<g>
</g>
<g>
</g>
<g>
</g>
<g>
</g>
<g>
</g>
<g>
</g>
<g>
</g>
<g>
</g>
<g>
</g>
<g>
</g>
<g>
</g>
<g>
</g>
<g>
</g>
</svg>
