<?xml version="1.0" encoding="iso-8859-1"?>
<!-- Generator: Adobe Illustrator 16.0.0, SVG Export Plug-In . SVG Version: 6.00 Build 0)  -->
<!DOCTYPE svg PUBLIC "-//W3C//DTD SVG 1.1//EN" "http://www.w3.org/Graphics/SVG/1.1/DTD/svg11.dtd">
<svg version="1.1" id="Capa_1" xmlns="http://www.w3.org/2000/svg" xmlns:xlink="http://www.w3.org/1999/xlink" x="0px" y="0px"
	 width="51.998px" height="51.998px" viewBox="0 0 51.998 51.998" style="enable-background:new 0 0 51.998 51.998;"
	 xml:space="preserve">
<g>
	<g>
		<g id="pocket">
			<g>
				<path d="M46.755,2.499c-0.039,0-0.077,0.01-0.116,0.012c-0.039-0.003-0.076-0.012-0.115-0.012H4.968
					c-0.242,0-0.468,0.062-0.67,0.165C1.356,3.618,0,8.975,0,13.999v24c0,6.341,5.163,11.5,11.508,11.5H40.49
					c6.347,0,11.508-5.159,11.508-11.5v-24C51.999,8.46,50.357,2.499,46.755,2.499z M43.021,5.499
					c-0.996,2.055-1.51,4.908-1.51,7.75c0,4.272-3.816,7.75-8.507,7.75h-14.01c-4.69,0-8.506-3.478-8.506-7.75
					c0-2.842-0.516-5.695-1.511-7.75H43.021z M48.997,37.999c0,4.688-3.815,8.5-8.506,8.5H11.508c-4.69,0-8.506-3.812-8.506-8.5v-24
					c0-5.273,1.579-8.35,2.242-8.5c0.577,0,2.243,2.665,2.243,7.75c0,5.928,5.163,10.75,11.508,10.75h14.01
					c6.347,0,11.509-4.822,11.509-10.75c0-5.085,1.666-7.75,2.23-7.751c0.672,0.15,2.251,3.227,2.251,8.501v24H48.997z
					 M38.018,27.474H15.334c-3.586,0-6.505,2.916-6.505,6.5v0.358c0,3.584,2.918,6.5,6.505,6.5h22.684
					c3.586,0,6.504-2.916,6.504-6.5v-0.358C44.521,30.39,41.604,27.474,38.018,27.474z M41.52,34.332c0,1.931-1.57,3.5-3.502,3.5
					H15.334c-1.932,0-3.502-1.569-3.502-3.5v-0.358c0-1.93,1.571-3.5,3.502-3.5h22.684c1.932,0,3.502,1.57,3.502,3.5V34.332
					L41.52,34.332z M18.253,17.106c1.268,0,2.296-1.581,2.296-3.528v-1.412c0-1.949-1.028-3.529-2.296-3.529
					s-2.295,1.581-2.295,3.529v1.412C15.958,15.526,16.985,17.106,18.253,17.106z"/>
			</g>
		</g>
	</g>
</g>
<g>
</g>
<g>
</g>
<g>
</g>
<g>
</g>
<g>
</g>
<g>
</g>
<g>
</g>
<g>
</g>
<g>
</g>
<g>
</g>
<g>
</g>
<g>
</g>
<g>
</g>
<g>
</g>
<g>
</g>
</svg>
