<?xml version="1.0" encoding="iso-8859-1"?>
<!-- Generator: Adobe Illustrator 16.0.0, SVG Export Plug-In . SVG Version: 6.00 Build 0)  -->
<!DOCTYPE svg PUBLIC "-//W3C//DTD SVG 1.1//EN" "http://www.w3.org/Graphics/SVG/1.1/DTD/svg11.dtd">
<svg version="1.1" id="Capa_1" xmlns="http://www.w3.org/2000/svg" xmlns:xlink="http://www.w3.org/1999/xlink" x="0px" y="0px"
	 width="64px" height="64px" viewBox="0 0 64 64" style="enable-background:new 0 0 64 64;" xml:space="preserve">
<g>
	<g>
		<g id="circle_45_">
			<g>
				<path d="M41.744,20.884L27.167,24h15.274L41.744,20.884z M38,36h5v-4h-5V36z M32,0C14.327,0,0,14.327,0,32s14.327,32,32,32
					s32-14.327,32-32S49.673,0,32,0z M45,42c0,1.104-0.896,2-2,2H21c-1.104,0-2-0.896-2-2V26c0-0.139,0.015-0.275,0.042-0.406
					c-0.142-0.972,0.497-1.899,1.493-2.113l20.796-4.445c1.044-0.223,2.076,0.424,2.304,1.444l0.971,4.338
					C44.852,25.149,45,25.556,45,26V42z M21,42h22v-4h-5c-1.104,0-2-0.896-2-2v-4c0-1.104,0.896-2,2-2h5v-4H21V42z"/>
			</g>
		</g>
	</g>
</g>
<g>
</g>
<g>
</g>
<g>
</g>
<g>
</g>
<g>
</g>
<g>
</g>
<g>
</g>
<g>
</g>
<g>
</g>
<g>
</g>
<g>
</g>
<g>
</g>
<g>
</g>
<g>
</g>
<g>
</g>
</svg>
