<?xml version="1.0" encoding="iso-8859-1"?>
<!-- Generator: Adobe Illustrator 16.0.0, SVG Export Plug-In . SVG Version: 6.00 Build 0)  -->
<!DOCTYPE svg PUBLIC "-//W3C//DTD SVG 1.1//EN" "http://www.w3.org/Graphics/SVG/1.1/DTD/svg11.dtd">
<svg version="1.1" id="Capa_1" xmlns="http://www.w3.org/2000/svg" xmlns:xlink="http://www.w3.org/1999/xlink" x="0px" y="0px"
	 width="64px" height="64px" viewBox="0 0 64 64" style="enable-background:new 0 0 64 64;" xml:space="preserve">
<g>
	<g>
		<g id="circle_27_">
			<g>
				<path d="M32,28c-4.971,0-9,4.029-9,9s4.029,9,9,9c4.971,0,9-4.029,9-9S36.971,28,32,28z M33,40.857V42c0,0.553-0.447,1-1,1
					c-0.552,0-1-0.447-1-1v-1.143c-1.723-0.445-3-1.996-3-3.857c0-2.209,1.791-4,4-4s4,1.791,4,4C36,38.861,34.723,40.412,33,40.857
					z M32,35c-1.104,0-2,0.896-2,2s0.896,2,2,2c1.104,0,2-0.896,2-2S33.104,35,32,35z M32,18c-4.971,0-9,4.029-9,9v3.688
					C24.99,27.855,28.275,26,32,26c3.725,0,7.01,1.855,9,4.688V27C41,22.029,36.971,18,32,18z M32,0C14.327,0,0,14.327,0,32
					s14.327,32,32,32s32-14.327,32-32S49.673,0,32,0z M43,38h-0.051C42.443,43.605,37.736,48,32,48c-6.075,0-11-4.925-11-11v-9
					h0.079C21.049,27.668,21,27.341,21,27c0-6.075,4.925-11,11-11s11,4.925,11,11V38z"/>
			</g>
		</g>
	</g>
</g>
<g>
</g>
<g>
</g>
<g>
</g>
<g>
</g>
<g>
</g>
<g>
</g>
<g>
</g>
<g>
</g>
<g>
</g>
<g>
</g>
<g>
</g>
<g>
</g>
<g>
</g>
<g>
</g>
<g>
</g>
</svg>
