<?xml version="1.0" encoding="iso-8859-1"?>
<!-- Generator: Adobe Illustrator 16.0.0, SVG Export Plug-In . SVG Version: 6.00 Build 0)  -->
<!DOCTYPE svg PUBLIC "-//W3C//DTD SVG 1.1//EN" "http://www.w3.org/Graphics/SVG/1.1/DTD/svg11.dtd">
<svg version="1.1" id="Capa_1" xmlns="http://www.w3.org/2000/svg" xmlns:xlink="http://www.w3.org/1999/xlink" x="0px" y="0px"
	 width="64px" height="64px" viewBox="0 0 64 64" style="enable-background:new 0 0 64 64;" xml:space="preserve">
<g>
	<g>
		<g id="Rewind_copy_6_1_">
			<g>
				<path d="M43.82,30.758l-8.481-5.793c-0.459-0.305-1.05-0.334-1.536-0.074c-0.486,0.26-0.791,0.767-0.791,1.318v4.635L33,30.84
					V31h-0.898c-0.082-0.091-0.176-0.172-0.28-0.242l-0.764-0.521L31,30.219v-0.021l-7.661-5.232
					c-0.459-0.305-1.05-0.334-1.536-0.074c-0.487,0.26-0.791,0.767-0.791,1.318v11.586c0,0.554,0.304,1.058,0.791,1.318
					c0.486,0.261,1.077,0.231,1.536-0.074L31,33.809v-0.121l0.275-0.067l0.546-0.373c0.106-0.07,0.201-0.153,0.283-0.246H33v0.19
					l0.012-0.004v4.607c0,0.553,0.305,1.059,0.791,1.318c0.486,0.261,1.077,0.231,1.536-0.074l8.481-5.793
					c0.418-0.277,0.668-0.744,0.668-1.244S44.238,31.036,43.82,30.758z M32,0C14.327,0,0,14.327,0,32s14.327,32,32,32
					s32-14.327,32-32S49.673,0,32,0z M46.109,33.665l-12,7.989c-0.613,0.41-1.402,0.447-2.053,0.1C31.406,41.405,31,40.73,31,39.993
					v-4.259l-8.891,5.92c-0.613,0.41-1.402,0.447-2.053,0.1C19.406,41.405,19,40.73,19,39.993V24.014
					c0-0.738,0.406-1.415,1.057-1.762c0.65-0.348,1.439-0.309,2.053,0.1L31,28.271v-4.257c0-0.738,0.406-1.415,1.057-1.762
					c0.65-0.348,1.439-0.309,2.053,0.1l12,7.989C46.666,30.712,47,31.335,47,32.003C47,32.67,46.666,33.294,46.109,33.665z"/>
			</g>
		</g>
	</g>
</g>
<g>
</g>
<g>
</g>
<g>
</g>
<g>
</g>
<g>
</g>
<g>
</g>
<g>
</g>
<g>
</g>
<g>
</g>
<g>
</g>
<g>
</g>
<g>
</g>
<g>
</g>
<g>
</g>
<g>
</g>
</svg>
