<?xml version="1.0" encoding="iso-8859-1"?>
<!-- Generator: Adobe Illustrator 16.0.0, SVG Export Plug-In . SVG Version: 6.00 Build 0)  -->
<!DOCTYPE svg PUBLIC "-//W3C//DTD SVG 1.1//EN" "http://www.w3.org/Graphics/SVG/1.1/DTD/svg11.dtd">
<svg version="1.1" id="Capa_1" xmlns="http://www.w3.org/2000/svg" xmlns:xlink="http://www.w3.org/1999/xlink" x="0px" y="0px"
	 width="778.021px" height="778.02px" viewBox="0 0 778.021 778.02" style="enable-background:new 0 0 778.021 778.02;"
	 xml:space="preserve">
<g>
	<g>
		<path d="M56.263,359.57h664.941c19.213,0,35.246-16.033,35.246-35.246c0-19.213-16.033-35.246-35.246-35.246H193.607
			c19.614-20.362,39.228-40.724,58.841-61.086h356.289c19.213,0,35.246-16.033,35.246-35.246c0-19.213-16.033-35.246-35.246-35.246
			c0,0-368.71,0-368.89,0c-9.952,0-22.561,5.403-29.591,12.702c-38.169,39.625-76.338,79.25-114.507,118.876H56.263
			c-19.214,0-35.246,16.033-35.246,35.246C21.017,343.539,37.05,359.57,56.263,359.57z"/>
		<path d="M726.04,405.557c-3.277-11.705-14.058-19.881-26.214-19.881H79.311c-12.814,0-24.178,8.618-27.634,20.958L0.974,587.711
			c-2.199,7.854-0.634,16.084,4.295,22.583c4.928,6.498,12.433,10.226,20.589,10.226h726.306c8.156,0,15.66-3.728,20.589-10.226
			s6.494-14.729,4.295-22.583L726.04,405.557z M642.464,592.52l-30.675-92.372c-1.477-4.447-8.055-3.343-7.998,1.345l1.125,91.027
			H496.019l-23.124-92.531c-1.138-4.548-7.782-3.942-8.076,0.736l-5.776,91.795H318.425l-5.775-91.795
			c-0.294-4.679-6.94-5.286-8.076-0.736L281.45,592.52H172.552l1.125-91.027c0.058-4.688-6.521-5.792-7.998-1.345l-30.675,92.372
			h-106.3l49.937-178.335c0.084-0.3,0.359-0.509,0.671-0.509h619.926l50.079,178.844H642.464L642.464,592.52z"/>
	</g>
</g>
<g>
</g>
<g>
</g>
<g>
</g>
<g>
</g>
<g>
</g>
<g>
</g>
<g>
</g>
<g>
</g>
<g>
</g>
<g>
</g>
<g>
</g>
<g>
</g>
<g>
</g>
<g>
</g>
<g>
</g>
</svg>
