<?xml version="1.0" encoding="iso-8859-1"?>
<!-- Generator: Adobe Illustrator 16.0.0, SVG Export Plug-In . SVG Version: 6.00 Build 0)  -->
<!DOCTYPE svg PUBLIC "-//W3C//DTD SVG 1.1//EN" "http://www.w3.org/Graphics/SVG/1.1/DTD/svg11.dtd">
<svg version="1.1" id="Capa_1" xmlns="http://www.w3.org/2000/svg" xmlns:xlink="http://www.w3.org/1999/xlink" x="0px" y="0px"
	 width="64px" height="64px" viewBox="0 0 64 64" style="enable-background:new 0 0 64 64;" xml:space="preserve">
<g>
	<g>
		<g id="circle_36_">
			<g>
				<path d="M33,18.062V31.67l11.479,6.628c0.959-1.896,1.51-4.03,1.51-6.298C45.988,24.611,40.258,18.576,33,18.062z M32,0
					C14.327,0,0,14.327,0,32s14.327,32,32,32s32-14.327,32-32S49.673,0,32,0z M32,48c-8.837,0-16-7.163-16-16s7.163-16,16-16
					s16,7.163,16,16S40.837,48,32,48z M31,18.062C23.743,18.576,18.011,24.611,18.011,32c0,7.727,6.264,13.989,13.989,13.989
					c4.742,0,8.925-2.365,11.455-5.974L31,32.824V18.062z"/>
			</g>
		</g>
	</g>
</g>
<g>
</g>
<g>
</g>
<g>
</g>
<g>
</g>
<g>
</g>
<g>
</g>
<g>
</g>
<g>
</g>
<g>
</g>
<g>
</g>
<g>
</g>
<g>
</g>
<g>
</g>
<g>
</g>
<g>
</g>
</svg>
