<?xml version="1.0" encoding="iso-8859-1"?>
<!-- Generator: Adobe Illustrator 16.0.0, SVG Export Plug-In . SVG Version: 6.00 Build 0)  -->
<!DOCTYPE svg PUBLIC "-//W3C//DTD SVG 1.1//EN" "http://www.w3.org/Graphics/SVG/1.1/DTD/svg11.dtd">
<svg version="1.1" id="Capa_1" xmlns="http://www.w3.org/2000/svg" xmlns:xlink="http://www.w3.org/1999/xlink" x="0px" y="0px"
	 width="750px" height="750px" viewBox="0 0 750 750" style="enable-background:new 0 0 750 750;" xml:space="preserve">
<g>
	<g>
		<circle cx="212.225" cy="465.522" r="31.772"/>
		<circle cx="391.945" cy="465.522" r="31.772"/>
		<path d="M302.085,750c73.878,0,143.246-31.387,195.327-88.378c51.688-56.562,80.153-131.659,80.153-211.46
			c0-28.886-3.749-57.148-10.959-84.146c1.854,0.398,3.717,0.78,5.602,1.124c26.081,4.762,47.355,12.21,63.23,22.141
			c12.311,7.699,18.11,14.976,20.471,18.628c6.371,9.853,17.208,15.735,28.988,15.735c15.858,0,29.566-10.652,33.335-25.904
			c2.803-11.345,5.944-29.188,4.988-49.776c-1.18-25.374-8.157-48.539-20.74-68.853c-16.089-25.973-40.607-46.254-73.178-60.61
			c6.36-6.363,12.595-13.576,18.38-21.72c11.502-16.191,19.721-34.072,24.427-53.147c5.457-22.118,6.197-45.927,2.201-70.765
			c-1.376-8.548-5.91-16.197-12.769-21.538c-6.063-4.722-13.639-7.322-21.328-7.322c-6.637,0-13.09,1.896-18.662,5.484
			c-9.027,5.81-34.251,19.835-73.398,24.556c-38.512,4.644-60.733,35.309-74.044,58.086c-0.05-0.025-0.102-0.05-0.151-0.074
			C453.761,56.029,384.472,0,302.085,0c-96.373,0-174.831,76.663-177.738,172.331c-2.169,2.233-4.31,4.498-6.391,6.829
			c-5.618,6.296-6.653,11.597-8.532,21.22c-0.722,3.699-1.696,8.8-2.893,15.16c-2.026,10.766-4.03,21.617-4.05,21.725l-0.005,0.029
			l-0.005,0.029c-0.413,2.263-0.582,4.536-0.537,6.79c-48.632,55.896-75.33,128.767-75.33,206.049
			c0,79.801,28.466,154.898,80.153,211.46C158.838,718.613,228.207,750,302.085,750z M479.841,172.797
			c0.698,0.851,1.421,1.251,2.179,1.251c9.705,0,25.215-64.849,69.725-70.216c44.787-5.401,74.341-21.582,86.044-29.115
			c0.757-0.487,1.597-0.709,2.425-0.709c2.103,0,4.125,1.436,4.478,3.625c14.434,89.711-47.337,132.812-73.007,146.612
			c-3.438,1.848-2.556,6.701,1.366,7.575c135.485,30.204,124.039,126.424,116.058,158.722c-0.496,2.006-2.335,3.102-4.211,3.102
			c-1.44,0-2.904-0.646-3.795-2.023c-9.371-14.494-35.472-41.57-103.505-53.992c-8.023-1.465-15.43-3.456-22.277-5.868
			c-67.304-23.716-80.009-88.464-81.839-100.788c-0.116-0.78-0.473-1.505-1.004-2.103c-0.354-0.398-0.783-0.741-1.277-0.999
			c-44.042-23.04-92.134-31.381-137.824-31.381c-92.811,0-175.65,34.445-194.077,50.094c-0.314,0.267-0.652,0.461-0.998,0.623
			c-0.594,0.277-1.219,0.422-1.842,0.422c-2.548,0-4.984-2.141-4.477-4.917c0,0,0.616-3.339,1.514-8.166
			c1.349-7.252,3.333-17.862,4.821-25.579c1.082-5.614,1.902-9.697,2.021-9.831c47.263-52.96,114.731-69.879,177.169-69.879
			c79.841,0,151.449,27.68,161.973,43.065C479.601,172.495,479.721,172.65,479.841,172.797z M90.334,418.995
			c15.648-16.238,30.884-32.894,45.374-50.176c24.55-29.281,56.903-66.1,62.399-105.493
			c5.525-39.614,110.477,105.603,178.713,120.225c62.629,13.421,106.098,47.4,112.818,116.946c0.623,6.451,9.027,8.437,12.434,2.923
			c9.377-15.184,22.08-39.901,28.556-70.492c1.03-4.873,7.699-5.593,9.809-1.08c0.852,1.823,1.695,3.689,2.529,5.572
			c0.182,4.223,0.282,8.47,0.282,12.742c0,146.407-108.184,265.518-241.166,265.518C169.854,715.677,65.104,594.652,61.367,466.328
			C60.715,443.985,76.135,433.729,90.334,418.995z"/>
	</g>
</g>
<g>
</g>
<g>
</g>
<g>
</g>
<g>
</g>
<g>
</g>
<g>
</g>
<g>
</g>
<g>
</g>
<g>
</g>
<g>
</g>
<g>
</g>
<g>
</g>
<g>
</g>
<g>
</g>
<g>
</g>
</svg>
