<?xml version="1.0" encoding="iso-8859-1"?>
<!-- Generator: Adobe Illustrator 16.0.0, SVG Export Plug-In . SVG Version: 6.00 Build 0)  -->
<!DOCTYPE svg PUBLIC "-//W3C//DTD SVG 1.1//EN" "http://www.w3.org/Graphics/SVG/1.1/DTD/svg11.dtd">
<svg version="1.1" id="Capa_1" xmlns="http://www.w3.org/2000/svg" xmlns:xlink="http://www.w3.org/1999/xlink" x="0px" y="0px"
	 width="950.452px" height="950.452px" viewBox="0 0 950.452 950.452" style="enable-background:new 0 0 950.452 950.452;"
	 xml:space="preserve">
<g>
	<path d="M175.211,338.555l96.657-93.568l-129.53-37.087C133.667,254.195,145.707,302.164,175.211,338.555z"/>
	<path d="M417.632,31.84C304.207-33.675,159.118,5.152,93.627,118.579c-65.534,113.474-26.577,258.539,86.897,324.029
		c66.086,38.17,142.532,40.204,208.065,13.299l147.613,231.847v164.698h-6.572c-15.982,0-37.812,1.704-167.577,80.65
		c-15.474,9.415-13.261,17.35,4.854,17.35h418.667c18.113,0,20.327-7.936,4.853-17.35c-129.76-78.946-151.594-80.65-167.572-80.65
		h-7.651v-162.92l269.007-422.497c9.729-15.28,2.91-27.582-15.203-27.582H694.203v-71.777l99.854-99.872
		c15.399-15.428,15.504-40.436,0.104-55.862c-15.403-15.422-40.474-15.422-55.948,0c-20.439,20.437-40.88,40.875-61.32,61.312
		c-22.482,22.479-57.138,44.618-62.094,78.683c-4.021,27.652,0.404,59.333,0.404,87.517h-79.57
		C536.394,156.452,494.37,76.129,417.632,31.84z M218.972,375.903c63.272,36.557,127.746,11.265,127.746,11.265l19.812,34.08
		c-53.086,19.443-113.521,17.597-166.351-12.883c-94.542-54.59-126.961-175.461-72.324-269.975
		c54.542-94.562,175.499-126.897,270.035-72.308c64.011,36.945,98.719,104.369,97.797,173.369h-37.57
		c0.495-36.179-10.937-71.957-33.293-100.775l-228.34,221.042C203.375,365.659,210.757,371.195,218.972,375.903z M757.269,315.452
		l-65.667,104h-0.482l-96.866,152.707c-11.126,17.54-38.82-0.027-27.694-17.568l85.722-135.139H459.759l-65.658-104H757.269z"/>
	<path d="M277.25,79.191l31.578,130.018l95.307-92.261c-7.596-6.824-15.763-13.178-24.999-18.505
		C347.05,79.902,311.336,74.408,277.25,79.191z"/>
	<path d="M160.271,157.1c-4.065,7.087-7.372,14.389-10.224,21.802l129.556,37.094L247.975,85.767
		C212.313,97.737,180.615,121.938,160.271,157.1z"/>
</g>
<g>
</g>
<g>
</g>
<g>
</g>
<g>
</g>
<g>
</g>
<g>
</g>
<g>
</g>
<g>
</g>
<g>
</g>
<g>
</g>
<g>
</g>
<g>
</g>
<g>
</g>
<g>
</g>
<g>
</g>
</svg>
