<?xml version="1.0" encoding="iso-8859-1"?>
<!-- Generator: Adobe Illustrator 16.0.0, SVG Export Plug-In . SVG Version: 6.00 Build 0)  -->
<!DOCTYPE svg PUBLIC "-//W3C//DTD SVG 1.1//EN" "http://www.w3.org/Graphics/SVG/1.1/DTD/svg11.dtd">
<svg version="1.1" id="Capa_1" xmlns="http://www.w3.org/2000/svg" xmlns:xlink="http://www.w3.org/1999/xlink" x="0px" y="0px"
	 width="64px" height="64px" viewBox="0 0 64 64" style="enable-background:new 0 0 64 64;" xml:space="preserve">
<g>
	<g>
		<g id="circle_30_">
			<g>
				<path d="M39,19c0.553,0,1-0.447,1-1c0-0.552-0.447-1-1-1s-1,0.448-1,1C38,18.553,38.447,19,39,19z M44,26H20
					c-1.104,0-2,0.896-2,2v12c0,1.104,0.896,2,2,2h24c1.104,0,2-0.896,2-2V28C46,26.896,45.104,26,44,26z M26,40
					c-3.313,0-6-2.688-6-6c0-3.313,2.687-6,6-6s6,2.687,6,6C32,37.312,29.313,40,26,40z M43,30c-0.552,0-1-0.447-1-1
					c0-0.552,0.448-1,1-1c0.553,0,1,0.448,1,1C44,29.553,43.553,30,43,30z M26,30c-2.209,0-4,1.791-4,4s1.791,4,4,4s4-1.791,4-4
					S28.209,30,26,30z M32,0C14.327,0,0,14.327,0,32s14.327,32,32,32s32-14.327,32-32S49.673,0,32,0z M48,40c0,2.209-1.791,4-4,4H20
					c-2.209,0-4-1.791-4-4V28c0-2.209,1.791-4,4-4h18v-3.184c-1.162-0.413-2-1.512-2-2.816c0-1.657,1.343-3,3-3s3,1.343,3,3
					c0,1.305-0.838,2.403-2,2.816V24h4c2.209,0,4,1.791,4,4V40z"/>
			</g>
		</g>
	</g>
</g>
<g>
</g>
<g>
</g>
<g>
</g>
<g>
</g>
<g>
</g>
<g>
</g>
<g>
</g>
<g>
</g>
<g>
</g>
<g>
</g>
<g>
</g>
<g>
</g>
<g>
</g>
<g>
</g>
<g>
</g>
</svg>
