<?xml version="1.0" encoding="iso-8859-1"?>
<!-- Generator: Adobe Illustrator 16.0.0, SVG Export Plug-In . SVG Version: 6.00 Build 0)  -->
<!DOCTYPE svg PUBLIC "-//W3C//DTD SVG 1.1//EN" "http://www.w3.org/Graphics/SVG/1.1/DTD/svg11.dtd">
<svg version="1.1" id="Capa_1" xmlns="http://www.w3.org/2000/svg" xmlns:xlink="http://www.w3.org/1999/xlink" x="0px" y="0px"
	 width="47px" height="47px" viewBox="0 0 47 47" style="enable-background:new 0 0 47 47;" xml:space="preserve">
<g>
	<g>
		<path d="M32.847,42.883h-7.288v-5.029c8.201-1.018,14.579-8.019,14.579-16.494c0-1.136-0.923-2.058-2.062-2.058
			c-1.136,0-2.058,0.921-2.058,2.058c0,6.904-5.614,12.52-12.519,12.52s-12.519-5.616-12.519-12.52c0-1.136-0.922-2.058-2.058-2.058
			c-1.139,0-2.061,0.921-2.061,2.058c0,8.475,6.378,15.476,14.579,16.494v5.029h-7.288c-1.139,0-2.061,0.922-2.061,2.059
			S13.014,47,14.153,47h18.691c1.139,0,2.061-0.921,2.061-2.059C34.907,43.805,33.985,42.883,32.847,42.883z"/>
		<path d="M23.5,30.536c5.043,0,9.151-4.103,9.151-9.159V9.159C32.651,4.102,28.543,0,23.498,0c-5.044,0-9.152,4.102-9.152,9.159
			v12.218C14.346,26.434,18.454,30.536,23.5,30.536z M25.724,25.906L25.724,25.906c0,0.857-0.998,1.55-2.227,1.55
			s-2.226-0.692-2.226-1.55c0-0.168,1.235-5.072,1.235-5.072c-0.686-0.358-1.158-1.07-1.158-1.898c0-1.188,0.961-2.153,2.153-2.153
			c1.189,0,2.149,0.964,2.149,2.153c0,0.829-0.472,1.541-1.157,1.898c0,0,1.221,4.895,1.225,5.039l0.01,0.032L25.724,25.906
			L25.724,25.906z M17.738,9.159c0-3.181,2.581-5.772,5.76-5.772c3.182,0,5.764,2.591,5.764,5.772v4.928H17.738V9.159z"/>
	</g>
</g>
<g>
</g>
<g>
</g>
<g>
</g>
<g>
</g>
<g>
</g>
<g>
</g>
<g>
</g>
<g>
</g>
<g>
</g>
<g>
</g>
<g>
</g>
<g>
</g>
<g>
</g>
<g>
</g>
<g>
</g>
</svg>
