<?xml version="1.0" encoding="iso-8859-1"?>
<!-- Generator: Adobe Illustrator 16.0.0, SVG Export Plug-In . SVG Version: 6.00 Build 0)  -->
<!DOCTYPE svg PUBLIC "-//W3C//DTD SVG 1.1//EN" "http://www.w3.org/Graphics/SVG/1.1/DTD/svg11.dtd">
<svg version="1.1" id="Capa_1" xmlns="http://www.w3.org/2000/svg" xmlns:xlink="http://www.w3.org/1999/xlink" x="0px" y="0px"
	 width="47px" height="47px" viewBox="0 0 47 47" style="enable-background:new 0 0 47 47;" xml:space="preserve">
<g>
	<g>
		<path d="M35.372,0H11.62C5.748,0,2.143,3.604,2.143,9.479v23.753c0,5.391,2.856,8.627,8.062,9.334L7.688,47h2.401l5.937-4.291
			h14.949L36.913,47h2.4l-2.518-4.434c5.205-0.705,8.062-3.943,8.062-9.336V9.479C44.85,3.604,41.243,0,35.372,0z M41.647,28.294
			c0,4.988-1.686,6.67-6.674,6.67H12.018c-4.987,0-6.67-1.682-6.67-6.67V9.875c0-4.988,1.683-6.672,6.67-6.672h22.956
			c4.989,0,6.674,1.684,6.674,6.672L41.647,28.294L41.647,28.294z"/>
		<path d="M31.672,17.283h-1.576v-4.756c0-3.64-2.967-6.603-6.604-6.603c-3.64,0-6.596,2.963-6.596,6.603v4.756H15.32
			c-0.817,0-1.484,0.67-1.484,1.488v11.986c0,0.817,0.667,1.486,1.484,1.486h16.353c0.816,0,1.486-0.669,1.486-1.486V18.771
			C33.159,17.953,32.489,17.283,31.672,17.283z M26.788,17.283h-6.585v-4.756c0-1.822,1.473-3.294,3.289-3.294
			c1.824,0,3.296,1.472,3.296,3.294V17.283z"/>
	</g>
</g>
<g>
</g>
<g>
</g>
<g>
</g>
<g>
</g>
<g>
</g>
<g>
</g>
<g>
</g>
<g>
</g>
<g>
</g>
<g>
</g>
<g>
</g>
<g>
</g>
<g>
</g>
<g>
</g>
<g>
</g>
</svg>
