<?xml version="1.0" encoding="iso-8859-1"?>
<!-- Generator: Adobe Illustrator 16.0.0, SVG Export Plug-In . SVG Version: 6.00 Build 0)  -->
<!DOCTYPE svg PUBLIC "-//W3C//DTD SVG 1.1//EN" "http://www.w3.org/Graphics/SVG/1.1/DTD/svg11.dtd">
<svg version="1.1" id="Capa_1" xmlns="http://www.w3.org/2000/svg" xmlns:xlink="http://www.w3.org/1999/xlink" x="0px" y="0px"
	 width="64px" height="64px" viewBox="0 0 64 64" style="enable-background:new 0 0 64 64;" xml:space="preserve">
<g>
	<g>
		<g id="circle_25_">
			<g>
				<path d="M32,0C14.327,0,0,14.327,0,32s14.327,32,32,32s32-14.327,32-32S49.673,0,32,0z M38,34.943c0.617-0.631,1-1.491,1-2.443
					s-0.383-1.813-1-2.444v-2.429c1.773,0.913,3,2.741,3,4.873s-1.227,3.96-3,4.873V34.943z M36,44h-2v-0.107
					c-3.749-0.49-6.932-2.775-8.644-5.977C25.078,37.965,24.794,38,24.5,38c-3.037,0-5.5-2.463-5.5-5.5s2.463-5.5,5.5-5.5
					c0.294,0,0.578,0.035,0.856,0.084C27.293,23.464,31.107,21,35.5,21c0.169,0,0.333,0.018,0.5,0.025V44z M38,41.656v-2.092
					c2.911-1.031,5-3.801,5-7.064c0-3.264-2.089-6.033-5-7.064v-2.092c4.032,1.099,7,4.776,7,9.156S42.032,40.559,38,41.656z
					 M24.5,29c-1.933,0-3.5,1.567-3.5,3.5c0,1.934,1.567,3.5,3.5,3.5c0.016,0,0.03-0.003,0.045-0.004
					C24.193,34.895,24,33.72,24,32.5s0.193-2.394,0.545-3.496C24.53,29.003,24.516,29,24.5,29z M26,32.5c0,4.734,3.468,8.648,8,9.37
					V23.13C29.468,23.851,26,27.765,26,32.5z"/>
			</g>
		</g>
	</g>
</g>
<g>
</g>
<g>
</g>
<g>
</g>
<g>
</g>
<g>
</g>
<g>
</g>
<g>
</g>
<g>
</g>
<g>
</g>
<g>
</g>
<g>
</g>
<g>
</g>
<g>
</g>
<g>
</g>
<g>
</g>
</svg>
