<?xml version="1.0" encoding="iso-8859-1"?>
<!-- Generator: Adobe Illustrator 16.0.0, SVG Export Plug-In . SVG Version: 6.00 Build 0)  -->
<!DOCTYPE svg PUBLIC "-//W3C//DTD SVG 1.1//EN" "http://www.w3.org/Graphics/SVG/1.1/DTD/svg11.dtd">
<svg version="1.1" id="Capa_1" xmlns="http://www.w3.org/2000/svg" xmlns:xlink="http://www.w3.org/1999/xlink" x="0px" y="0px"
	 width="950px" height="950px" viewBox="0 0 950 950" style="enable-background:new 0 0 950 950;" xml:space="preserve">
<g>
	<g>
		<path d="M819.516,611.58l-62.053-459.217c-2.134-15.796-15.619-27.581-31.558-27.581H664.27C632.706,51.466,559.754,0,475,0
			c-84.754,0-157.706,51.466-189.27,124.783h-60.583c-15.912,0-29.383,11.746-31.549,27.51L130.495,611.51
			c-2.629,19.131,12.238,36.18,31.549,36.18h114.279V459.096c0-30.157,24.536-54.692,54.692-54.692h88.861h110.249h87.19
			c31.078,0,56.362,25.284,56.362,56.362v186.923h114.279C807.24,647.689,822.098,630.688,819.516,611.58z M475,49.223
			c56.729,0,106.516,30.297,134.031,75.56H340.969C368.484,79.52,418.27,49.223,475,49.223z"/>
		<path d="M707.488,715.952h-58.422v-68.263V460.766c0-17.535-14.215-31.751-31.75-31.751H331.014
			c-16.612,0-30.08,13.468-30.08,30.08v188.594v68.263h-58.42c-12.397,0-18.338,15.224-9.218,23.62l218.86,201.514
			C458.611,947.028,466.805,950,475,950c8.195,0,16.389-2.973,22.844-8.915l218.861-201.514
			C725.825,731.175,719.884,715.952,707.488,715.952z"/>
	</g>
</g>
<g>
</g>
<g>
</g>
<g>
</g>
<g>
</g>
<g>
</g>
<g>
</g>
<g>
</g>
<g>
</g>
<g>
</g>
<g>
</g>
<g>
</g>
<g>
</g>
<g>
</g>
<g>
</g>
<g>
</g>
</svg>
