<?xml version="1.0" encoding="iso-8859-1"?>
<!-- Generator: Adobe Illustrator 16.0.0, SVG Export Plug-In . SVG Version: 6.00 Build 0)  -->
<!DOCTYPE svg PUBLIC "-//W3C//DTD SVG 1.1//EN" "http://www.w3.org/Graphics/SVG/1.1/DTD/svg11.dtd">
<svg version="1.1" id="Capa_1" xmlns="http://www.w3.org/2000/svg" xmlns:xlink="http://www.w3.org/1999/xlink" x="0px" y="0px"
	 width="950px" height="950px" viewBox="0 0 950 950" style="enable-background:new 0 0 950 950;" xml:space="preserve">
<g>
	<g>
		<path d="M708.789,714.643h-58.748V593.037c-14.354,8.844-29.388,16.619-45.064,23.248c-41.182,17.418-84.911,26.25-129.977,26.25
			s-88.796-8.832-129.977-26.25c-15.677-6.629-30.71-14.404-45.064-23.248v121.605h-58.748c-12.466,0-18.44,15.309-9.269,23.752
			l220.085,202.641c12.982,11.953,32.963,11.953,45.945,0l220.086-202.641C727.229,729.951,721.255,714.643,708.789,714.643z"/>
		<path d="M299.959,562.84c49.743,34.318,110.038,54.43,175.041,54.43s125.298-20.111,175.041-54.428
			c80.695-55.672,133.594-148.754,133.594-254.206C783.635,138.181,645.454,0,475,0S166.365,138.18,166.365,308.635
			C166.365,414.087,219.264,507.17,299.959,562.84z M475,587.078V421.606c24.297,0,46.8-7.672,65.225-20.723l92.504,137.222
			C587.888,568.984,533.561,587.078,475,587.078z M560.098,308.635c0,23.402-9.45,44.593-24.736,59.977
			c-15.415,15.514-36.765,25.121-60.361,25.121s-44.946-9.607-60.361-25.121c-15.287-15.384-24.736-36.576-24.736-59.977
			c0-46.999,38.1-85.098,85.098-85.098S560.098,261.637,560.098,308.635z M371.617,50.031l64.679,152.44
			c-22.632,8.253-41.882,23.537-55.108,43.209L242.44,155.492C273.527,108.38,318.535,71.271,371.617,50.031z"/>
	</g>
</g>
<g>
</g>
<g>
</g>
<g>
</g>
<g>
</g>
<g>
</g>
<g>
</g>
<g>
</g>
<g>
</g>
<g>
</g>
<g>
</g>
<g>
</g>
<g>
</g>
<g>
</g>
<g>
</g>
<g>
</g>
</svg>
