<?xml version="1.0" encoding="iso-8859-1"?>
<!-- Generator: Adobe Illustrator 16.0.0, SVG Export Plug-In . SVG Version: 6.00 Build 0)  -->
<!DOCTYPE svg PUBLIC "-//W3C//DTD SVG 1.1//EN" "http://www.w3.org/Graphics/SVG/1.1/DTD/svg11.dtd">
<svg version="1.1" id="Capa_1" xmlns="http://www.w3.org/2000/svg" xmlns:xlink="http://www.w3.org/1999/xlink" x="0px" y="0px"
	 width="765.003px" height="765.003px" viewBox="0 0 765.003 765.003" style="enable-background:new 0 0 765.003 765.003;"
	 xml:space="preserve">
<g>
	<g>
		<path d="M455.263,48.236C416.768,17.079,367.311,0,315.171,0c-55.53,0-107.819,19.275-147.234,54.274
			c-38.614,34.288-60.444,79.645-61.828,128.186h30.023C139.104,97.948,218.272,30,315.171,30c47.39,0,92.079,16.132,125.835,45.425
			l5.354,4.647l6.99-1.188c11.245-1.912,22.753-2.881,34.205-2.881c78.498,0,145.359,44.593,169.505,106.458h31.865
			c-9.641-30.823-28.059-59.028-54.137-82.183c-39.415-35-91.704-54.274-147.234-54.274
			C476.77,46.003,465.937,46.753,455.263,48.236z"/>
		<path d="M615.179,753.081l102.628-528.082c1.768-9.092-5.196-17.539-14.458-17.539h-8.641h-30.46h-526.76h-30.263h-1.221h-7.753
			c-9.262,0-16.225,8.447-14.458,17.539l21.633,111.314l2.735,14.074l1.255,6.458l1.498,7.709
			c-3.673,3.285-7.269,6.643-10.774,10.087c-3.637,3.576-7.176,7.244-10.591,11.025c-9.842,10.899-18.674,22.723-25.987,35.885
			C42.13,460.123,40.704,505.84,63.35,543.979c15.172,25.552,40.076,43.51,67.534,54.382c4.495,1.779,9.06,3.365,13.66,4.768
			c4.449,1.356,8.932,2.532,13.422,3.539c1.885,0.423,3.772,0.825,5.657,1.188c13.919,2.669,28.051,3.81,42.22,3.81
			c29.231,0,58.646-4.848,86.857-11.117c94.247-20.943,181.555-75.054,243.619-148.948c1.99,0.291,4.021,0.444,6.081,0.444
			c1.151,0,2.312-0.048,3.479-0.146c22.907-1.938,39.907-22.078,37.97-44.985c-0.19-2.257-0.568-4.452-1.098-6.582
			c-2.618-10.53-9.19-19.352-17.942-24.964c-6.508-4.172-14.213-6.575-22.391-6.575c-1.177,0-2.36,0.049-3.556,0.15
			c-14.229,1.203-26.175,9.433-32.722,20.984c-3.993,7.045-5.98,15.323-5.247,24.001c0.186,2.194,0.559,4.325,1.067,6.399
			c0.29,1.182,0.611,2.35,0.997,3.488c-46.069,54.56-105.13,95.425-171.819,120.176c-37.806,14.031-71.291,21.292-111.778,23.699
			c-5.048,0.3-9.913,0.462-14.677,0.462c-15.205,0-29.412-1.653-45.493-5.767c-3.607-0.922-7.087-2.022-10.467-3.277
			c-4.874-1.811-9.525-3.96-13.986-6.441c-5.108-2.84-9.971-6.107-14.637-9.792c-1.489-1.176-2.962-2.389-4.413-3.649
			c-1.622-1.407-3.164-2.902-4.704-4.397c-0.053-0.051-2.54-2.755-2.875-3.074c-2.501-2.927-4.787-6.031-6.962-9.205
			c-1.197-1.747-2.28-3.566-3.361-5.387c-0.203-0.342-0.373-0.626-0.521-0.869c-0.146-0.339-0.387-0.865-0.759-1.644
			c-2.13-4.467-3.722-9.164-5.064-13.918c-0.105-0.372-0.195-0.683-0.273-0.95c-0.047-0.405-0.149-1.088-0.336-2.179
			c-0.398-2.326-0.604-4.682-0.811-7.03c-0.206-2.343-0.227-4.698-0.249-7.048c0.013-0.646,0.024-1.148,0.031-1.534
			c0.118-1.463,0.261-2.924,0.444-4.38c0.533-4.703,1.552-9.34,2.701-13.924c-0.003,0.011-0.004,0.017-0.003,0.017
			c0.016,0,1.356-4.426,1.344-4.581c0.964-2.741,2.064-5.433,3.2-8.105c1.042-2.449,2.168-4.842,3.362-7.185
			c2.83-5.554,6.072-10.822,9.654-15.848c3.167-4.445,6.6-8.7,10.246-12.804l3.068,15.788l3.324,17.106l2.335,12.016v0.001
			l13.269,68.278c7.069,4.517,14.462,7.709,22.635,9.799c13.485,3.449,25.605,4.986,39.299,4.986c4.14,0,8.455-0.138,13.194-0.418
			c37.388-2.223,68.659-8.855,104.563-22.182c31.374-11.644,60.995-27.112,88.039-45.977c22.663-15.807,43.537-34.021,62.231-54.271
			c1.117-1.21,2.228-2.424,3.329-3.647c-0.02-0.207-0.038-0.415-0.056-0.622c-0.749-8.854,0.293-17.451,2.8-25.449
			c7.854-25.068,30.223-44.206,57.976-46.554c1.878-0.159,3.782-0.239,5.66-0.239c16.65,0,32.604,6.204,44.923,17.469
			c0.604,0.554,1.188,1.125,1.771,1.698c7.307,7.188,12.782,15.871,16.119,25.399c1.844,5.265,3.049,10.779,3.528,16.447
			c3.096,36.606-24.167,68.907-60.777,72.004c-0.141,0.012-0.28,0.022-0.422,0.033c-31.075,35.121-67.325,65.493-107.908,90.396
			c-44.525,27.32-92.144,46.739-141.53,57.714c-35.958,7.99-65.28,11.712-92.28,11.712c-14.865,0-29.21-1.188-42.729-3.508
			l23.306,119.924c1.345,6.921,7.407,11.919,14.458,11.919h399.841C607.771,765,613.834,760.002,615.179,753.081z"/>
	</g>
</g>
<g>
</g>
<g>
</g>
<g>
</g>
<g>
</g>
<g>
</g>
<g>
</g>
<g>
</g>
<g>
</g>
<g>
</g>
<g>
</g>
<g>
</g>
<g>
</g>
<g>
</g>
<g>
</g>
<g>
</g>
</svg>
