<?xml version="1.0" encoding="iso-8859-1"?>
<!-- Generator: Adobe Illustrator 16.0.0, SVG Export Plug-In . SVG Version: 6.00 Build 0)  -->
<!DOCTYPE svg PUBLIC "-//W3C//DTD SVG 1.1//EN" "http://www.w3.org/Graphics/SVG/1.1/DTD/svg11.dtd">
<svg version="1.1" id="Capa_1" xmlns="http://www.w3.org/2000/svg" xmlns:xlink="http://www.w3.org/1999/xlink" x="0px" y="0px"
	 width="47px" height="47px" viewBox="0 0 47 47" style="enable-background:new 0 0 47 47;" xml:space="preserve">
<g>
	<g>
		<path d="M24.75,8.735c-0.447-0.446-1.822-0.622-3.351,1.415c-0.955,1.27-1.781,3.771-2.061,5.935l3.995-4
			C25.093,10.327,25.197,9.181,24.75,8.735z"/>
		<path d="M8.735,24.751c0.448,0.446,1.591,0.342,3.35-1.416l3.998-3.999c-2.165,0.283-4.68,1.094-5.933,2.064
			C8.169,22.929,8.29,24.303,8.735,24.751z"/>
		<path d="M45.968,41.124c-0.077-0.394-0.284-0.86-0.464-1.039c-0.178-0.178-0.65-0.293-1.05-0.254l-0.117,0.01
			c-0.399,0.039-0.957-0.163-1.241-0.446l-1.186-1.184c-0.284-0.283-0.482-0.841-0.445-1.24l0.002-0.015
			c0.038-0.399-0.259-0.712-0.657-0.698l-0.091,0.004c-0.4,0.016-0.961-0.203-1.244-0.488l-0.182-0.183
			c-0.282-0.282-0.396-0.782-0.251-1.108c0.146-0.328,0.034-0.828-0.25-1.11l-0.095-0.093c-0.283-0.284-0.78-0.396-1.107-0.25
			c-0.326,0.146-0.825,0.035-1.109-0.25l-0.287-0.287c-0.283-0.283-0.396-0.782-0.249-1.11c0.146-0.327,0.033-0.827-0.25-1.11
			L33.9,28.477l0.001-1.703l8.862,2.375l-4.027-5.715l6.342-2.932l-13.661-3.665l0.967-0.968c1.77-2.446,1.132-5.769-1.423-7.382
			L19.097,0.981c-2.551-1.616-6.38-1.191-8.52,0.944l-8.65,8.651c-2.136,2.134-2.56,5.97-0.946,8.522l7.506,11.865
			c1.612,2.551,4.937,3.188,7.385,1.42l0.97-0.97l3.663,13.665l2.933-6.344l5.712,4.027l-2.393-8.912l1.703,0.034l1.812,1.813
			c0.283,0.283,0.782,0.396,1.109,0.248c0.329-0.146,0.827-0.033,1.111,0.25l0.286,0.289c0.283,0.283,0.396,0.781,0.248,1.107
			c-0.145,0.327-0.032,0.825,0.25,1.109l0.094,0.094c0.283,0.283,0.781,0.396,1.11,0.25c0.326-0.146,0.825-0.033,1.109,0.25
			l0.183,0.182c0.283,0.283,0.503,0.842,0.487,1.242l-0.005,0.092c-0.015,0.399,0.3,0.695,0.698,0.656l0.015-0.001
			c0.399-0.039,0.957,0.161,1.241,0.444l1.183,1.186c0.284,0.283,0.484,0.842,0.447,1.241l-0.012,0.117
			c-0.038,0.399,0.077,0.872,0.256,1.05c0.177,0.18,0.646,0.387,1.038,0.463l5.288,1.02c0.393,0.078,0.652-0.184,0.575-0.576
			L45.968,41.124z M12.336,29.975L7.412,25.05c-0.605-0.604-1.176-2.532,1.713-4.674c2.767-2.046,8.586-2.666,8.586-2.666
			s0.496-5.907,2.665-8.584c2.199-2.716,4.065-2.318,4.674-1.713l4.924,4.925c0.604,0.604,0.722,2.235-1.714,4.673
			c-2.439,2.436-5.624,5.625-5.624,5.625s-3.196,3.192-5.63,5.625C14.57,30.698,12.938,30.578,12.336,29.975z M22.812,36.396
			l-1.923,4.149l-3.178-11.858l4.775-4.778l4.055,15.12L22.812,36.396z M23.909,22.49l4.777-4.779l11.857,3.181l-4.15,1.916
			l2.635,3.738L23.909,22.49z"/>
	</g>
</g>
<g>
</g>
<g>
</g>
<g>
</g>
<g>
</g>
<g>
</g>
<g>
</g>
<g>
</g>
<g>
</g>
<g>
</g>
<g>
</g>
<g>
</g>
<g>
</g>
<g>
</g>
<g>
</g>
<g>
</g>
</svg>
