<?xml version="1.0" encoding="iso-8859-1"?>
<!-- Generator: Adobe Illustrator 16.0.0, SVG Export Plug-In . SVG Version: 6.00 Build 0)  -->
<!DOCTYPE svg PUBLIC "-//W3C//DTD SVG 1.1//EN" "http://www.w3.org/Graphics/SVG/1.1/DTD/svg11.dtd">
<svg version="1.1" id="Capa_1" xmlns="http://www.w3.org/2000/svg" xmlns:xlink="http://www.w3.org/1999/xlink" x="0px" y="0px"
	 width="47px" height="47px" viewBox="0 0 47 47" style="enable-background:new 0 0 47 47;" xml:space="preserve">
<g>
	<path d="M36.308,0H10.692C8.106,0,5.992,2.115,5.992,4.7v22.016h4.784L10.774,5.777c0-0.518,0.425-0.94,0.941-0.94h23.278
		c0.518,0,0.938,0.422,0.938,0.94v27.106c0,0.516-0.421,0.94-0.938,0.94H5.992V42.3c0,2.584,2.115,4.7,4.701,4.7h25.616
		c2.586,0,4.7-2.115,4.7-4.7V4.7C41.009,2.115,38.894,0,36.308,0z M21.292,44.747l1.222-5.035c-0.681-0.356-1.149-1.063-1.149-1.886
		c0-1.182,0.955-2.139,2.138-2.139c1.183,0,2.138,0.957,2.138,2.139c0,0.822-0.47,1.529-1.149,1.886l1.221,5.035H21.292z"/>
</g>
<g>
</g>
<g>
</g>
<g>
</g>
<g>
</g>
<g>
</g>
<g>
</g>
<g>
</g>
<g>
</g>
<g>
</g>
<g>
</g>
<g>
</g>
<g>
</g>
<g>
</g>
<g>
</g>
<g>
</g>
</svg>
