<?xml version="1.0" encoding="iso-8859-1"?>
<!-- Generator: Adobe Illustrator 16.0.0, SVG Export Plug-In . SVG Version: 6.00 Build 0)  -->
<!DOCTYPE svg PUBLIC "-//W3C//DTD SVG 1.1//EN" "http://www.w3.org/Graphics/SVG/1.1/DTD/svg11.dtd">
<svg version="1.1" id="Capa_1" xmlns="http://www.w3.org/2000/svg" xmlns:xlink="http://www.w3.org/1999/xlink" x="0px" y="0px"
	 width="47px" height="47px" viewBox="0 0 47 47" style="enable-background:new 0 0 47 47;" xml:space="preserve">
<g>
	<g>
		<path d="M27.661,15.213c0-2.311-1.862-4.174-4.165-4.174c-2.297,0-4.167,1.863-4.167,4.174v5.928h8.332V15.213z"/>
		<path d="M37.962,3.614H9.038C4.066,3.614,0,7.683,0,12.653v8.487h15.15v-5.928c0-4.604,3.741-8.354,8.346-8.354
			c4.605,0,8.352,3.75,8.352,8.354v5.928H47v-8.487C47,7.684,42.934,3.614,37.962,3.614z"/>
		<polygon points="35.721,40.142 11.279,40.142 11.279,25.858 0,25.858 0,43.386 47,43.386 47,25.858 35.721,25.858 		"/>
		<path d="M26.284,34.906c-0.007-0.183-1.534-6.327-1.534-6.327c0.859-0.449,1.451-1.342,1.451-2.385c0-1.491-1.207-2.703-2.7-2.703
			c-1.495,0-2.703,1.212-2.703,2.703c0,1.043,0.593,1.936,1.452,2.385c0,0-1.55,6.158-1.55,6.372c0,1.073,1.253,1.942,2.795,1.942
			s2.795-0.869,2.795-1.942c0-0.001,0-0.001,0-0.001h0.004L26.284,34.906z"/>
	</g>
</g>
<g>
</g>
<g>
</g>
<g>
</g>
<g>
</g>
<g>
</g>
<g>
</g>
<g>
</g>
<g>
</g>
<g>
</g>
<g>
</g>
<g>
</g>
<g>
</g>
<g>
</g>
<g>
</g>
<g>
</g>
</svg>
