<?xml version="1.0" encoding="iso-8859-1"?>
<!-- Generator: Adobe Illustrator 16.0.0, SVG Export Plug-In . SVG Version: 6.00 Build 0)  -->
<!DOCTYPE svg PUBLIC "-//W3C//DTD SVG 1.1//EN" "http://www.w3.org/Graphics/SVG/1.1/DTD/svg11.dtd">
<svg version="1.1" id="Capa_1" xmlns="http://www.w3.org/2000/svg" xmlns:xlink="http://www.w3.org/1999/xlink" x="0px" y="0px"
	 width="47px" height="47px" viewBox="0 0 47 47" style="enable-background:new 0 0 47 47;" xml:space="preserve">
<g>
	<path d="M34.451,18.849v-7.892C34.451,4.915,29.537,0,23.497,0c-6.038,0-10.951,4.915-10.951,10.957v7.892H7.47V47h14.24v-3.434
		c-2.253-0.102-4.45-0.715-5.729-1.452l1.014-3.947c1.413,0.778,3.407,1.481,5.597,1.481c1.923,0,3.24-0.736,3.24-2.084
		c0-1.281-1.082-2.092-3.579-2.938c-3.609-1.21-6.068-2.896-6.068-6.171c0-2.966,2.09-5.29,5.699-5.995v-3.613h-3.856v-7.892
		c0-3.021,2.455-5.479,5.471-5.479s5.471,2.458,5.471,5.479v7.892h-3.78v3.369c2.263,0.104,3.776,0.571,4.892,1.114L29.1,27.146
		c-0.879-0.377-2.425-1.154-4.851-1.154c-2.197,0-2.905,0.949-2.905,1.89c0,1.115,1.178,1.823,4.053,2.896
		c4.008,1.422,5.626,3.273,5.626,6.313c0,2.999-2.127,5.564-6.005,6.239V47H39.53V18.849H34.451z"/>
</g>
<g>
</g>
<g>
</g>
<g>
</g>
<g>
</g>
<g>
</g>
<g>
</g>
<g>
</g>
<g>
</g>
<g>
</g>
<g>
</g>
<g>
</g>
<g>
</g>
<g>
</g>
<g>
</g>
<g>
</g>
</svg>
