<?xml version="1.0" encoding="iso-8859-1"?>
<!-- Generator: Adobe Illustrator 16.0.0, SVG Export Plug-In . SVG Version: 6.00 Build 0)  -->
<!DOCTYPE svg PUBLIC "-//W3C//DTD SVG 1.1//EN" "http://www.w3.org/Graphics/SVG/1.1/DTD/svg11.dtd">
<svg version="1.1" id="Capa_1" xmlns="http://www.w3.org/2000/svg" xmlns:xlink="http://www.w3.org/1999/xlink" x="0px" y="0px"
	 width="950px" height="950px" viewBox="0 0 950 950" style="enable-background:new 0 0 950 950;" xml:space="preserve">
<g>
	<g>
		<path d="M35.912,748.444h417.191c-10.453-10.973-13.648-26.822-8.071-41.111c5.896-15.111,20.188-24.875,36.409-24.875h31.434
			v-307.58c0-30.443,24.767-55.21,55.209-55.21h177.403v-89.826c0-9.524-3.784-18.659-10.519-25.393L553.685,23.167
			c-6.734-6.735-15.869-10.518-25.393-10.518h-32.237v210.763c0,15.132-12.267,27.399-27.398,27.399H127.34
			c-15.132,0-27.399-12.267-27.399-27.399V12.647H35.912C16.078,12.647,0,28.726,0,48.56v663.975
			C0,732.366,16.078,748.444,35.912,748.444z M306.523,344.16c67.185,0,121.647,54.463,121.647,121.647
			c0,67.184-54.463,121.647-121.647,121.647c-67.184,0-121.646-54.463-121.646-121.647
			C184.877,398.623,239.34,344.16,306.523,344.16z"/>
		<circle cx="306.523" cy="465.806" r="66.22"/>
		<path d="M879.456,376.514c0-17.166-13.917-31.083-31.084-31.083H745.486H568.084c-16.264,0-29.448,13.185-29.448,29.449v333.342
			h-57.194c-12.136,0-17.951,14.902-9.023,23.123l18.573,17.102l195.689,180.178c6.32,5.82,14.342,8.729,22.365,8.729
			s16.046-2.908,22.365-8.729l214.264-197.279c8.928-8.221,3.112-23.123-9.023-23.123h-57.194L879.456,376.514L879.456,376.514z"/>
	</g>
</g>
<g>
</g>
<g>
</g>
<g>
</g>
<g>
</g>
<g>
</g>
<g>
</g>
<g>
</g>
<g>
</g>
<g>
</g>
<g>
</g>
<g>
</g>
<g>
</g>
<g>
</g>
<g>
</g>
<g>
</g>
</svg>
