<?xml version="1.0" encoding="iso-8859-1"?>
<!-- Generator: Adobe Illustrator 16.0.0, SVG Export Plug-In . SVG Version: 6.00 Build 0)  -->
<!DOCTYPE svg PUBLIC "-//W3C//DTD SVG 1.1//EN" "http://www.w3.org/Graphics/SVG/1.1/DTD/svg11.dtd">
<svg version="1.1" id="Capa_1" xmlns="http://www.w3.org/2000/svg" xmlns:xlink="http://www.w3.org/1999/xlink" x="0px" y="0px"
	 width="950px" height="950px" viewBox="0 0 950 950" style="enable-background:new 0 0 950 950;" xml:space="preserve">
<g>
	<path d="M851,910V534.1c0-94.5-50-174.2-119-204.2v-254c13-5.9,21.9-19.9,21.9-36.4c0-21.8-15.4-39.5-34.7-39.5h-88.7
		c-19.3,0-34.9,17.6-34.9,39.5c0,14.9,7.7,29.6,18.7,36.3L614,329.6c-62,26.6-107.1,93.6-116.2,174.9c-0.6,5.6,3.5,10.5,9.101,10.5
		h255c5.6,0,10.1,3.8,10.1,9.4v296.3c0,5.6-4.5,10.3-10.1,10.3H505.6c-5.6,0-10.199,4.5-10.199,10.1l0.1,69.2
		c0,21.8,17.2,39.7,39,39.7h277C833.5,950,851,931.8,851,910z"/>
	<path d="M110.4,940.3c-2.3,5.101,0.8,9.7,6.4,9.7h281.7c5.6,0,8.6-4.5,6.3-9.7c-18.6-41-59.7-70-107.7-70V706.9
		c68-15.5,119-67.7,119-130.4V341c0-13.6-15.699-24-35.1-24H133.6c-19.4,0-34.6,10.4-34.6,24v235.4c0,63.5,50,116.399,119,131.1
		v162.9C170,870.4,129,899.3,110.4,940.3z M198.5,608.1c-11.1,0-20.5-9.199-20.5-20.3V482v-16.1V404.3c0-4.6,3.7-8.3,8.3-8.3h142.5
		c4.601,0,8.3,3.7,8.3,8.3v69.5c0,4.601-3.699,8.3-8.3,8.3H219V587.9C219,598.9,209.6,608.1,198.5,608.1z"/>
</g>
<g>
</g>
<g>
</g>
<g>
</g>
<g>
</g>
<g>
</g>
<g>
</g>
<g>
</g>
<g>
</g>
<g>
</g>
<g>
</g>
<g>
</g>
<g>
</g>
<g>
</g>
<g>
</g>
<g>
</g>
</svg>
