<?xml version="1.0" encoding="iso-8859-1"?>
<!-- Generator: Adobe Illustrator 16.0.0, SVG Export Plug-In . SVG Version: 6.00 Build 0)  -->
<!DOCTYPE svg PUBLIC "-//W3C//DTD SVG 1.1//EN" "http://www.w3.org/Graphics/SVG/1.1/DTD/svg11.dtd">
<svg version="1.1" id="Capa_1" xmlns="http://www.w3.org/2000/svg" xmlns:xlink="http://www.w3.org/1999/xlink" x="0px" y="0px"
	 width="50.596px" height="50.596px" viewBox="0 0 50.596 50.596" style="enable-background:new 0 0 50.596 50.596;"
	 xml:space="preserve">
<g>
	<g>
		<g id="cap">
			<g>
				<path d="M49.395,36.343l-1.717-2.562c0.569-0.015,1.026-0.476,1.026-1.047v-9.979c0-12.179-5.807-17.631-19.841-18.316
					L28.819,4.3c0-1.332-1.082-2.014-2.661-2.014c-1.58,0-3.061,0.548-3.061,1.881L23.08,4.401
					C6.673,4.89,1.565,10.305,1.565,26.308v6.427c0,0.581,0.47,1.052,1.052,1.052c0.005,0,0.01-0.003,0.016-0.003l-1.455,2.173
					c-1.15,1.891-1.46,3.619-0.92,5.139c0.713,2,2.645,2.83,2.999,2.967c5.571,2.82,14.29,4.248,22.903,4.248
					c8.139,0,16.184-1.273,21.392-3.846c0.1-0.049,0.177-0.121,0.253-0.195c0.726-0.375,1.988-1.217,2.534-2.75
					C50.879,40.001,50.568,38.272,49.395,36.343z M3.669,26.308c0-15.578,4.729-19.844,22.004-19.844
					c17.428,0,20.928,6.234,20.928,16.292v9.595c-10.969,4.942-32.075,4.676-42.932-0.596V26.308z M48.359,40.8
					c-0.421,1.213-1.79,1.73-1.799,1.733c-0.15,0.054-0.275,0.144-0.384,0.25c-10.272,4.762-32.004,4.481-42.017-0.62
					c-0.022-0.011-0.046-0.01-0.069-0.02c-0.021-0.01-0.037-0.027-0.059-0.035c-0.013-0.006-1.364-0.514-1.793-1.721
					c-0.317-0.893-0.069-2.017,0.71-3.301l2.101-3.136c0.079-0.118,0.129-0.247,0.155-0.377c5.667,2.223,13.324,3.346,20.902,3.346
					c7.059,0,14.038-0.975,19.277-2.936c0.025,0.136,0.077,0.27,0.159,0.393l2.076,3.097C48.423,38.791,48.672,39.91,48.359,40.8z
					 M23.618,22.353v-0.024c0.563-0.275,1.055-0.899,1.055-1.822c0-1.367-1.031-2.159-2.458-2.159h-3.622v1.031h0.779v6.669
					c0,0.539,0.228,0.768,0.768,0.768h2.146c1.499,0,2.723-0.816,2.723-2.411C25.009,23.457,24.518,22.617,23.618,22.353z
					 M20.571,19.379h1.631c0.792,0,1.248,0.504,1.248,1.248c0,0.743-0.48,1.283-1.224,1.283h-1.655V19.379z M22.347,25.783h-1.512
					c-0.168,0-0.264-0.096-0.264-0.264v-2.626h1.775c0.863,0,1.427,0.587,1.427,1.451C23.773,25.208,23.246,25.783,22.347,25.783z
					 M30.918,26.815c0.539,0,0.768-0.229,0.768-0.769V24.98h-1.104v0.539c0,0.168-0.098,0.264-0.265,0.264h-2.471
					c-0.168,0-0.265-0.096-0.265-0.264v-2.458h2.963v-1.032h-2.963v-2.65h2.411c0.168,0,0.264,0.084,0.264,0.264v0.54h1.092v-1.067
					c0-0.54-0.229-0.768-0.768-0.768h-4.978v1.031h0.779v6.669c0,0.539,0.229,0.768,0.768,0.768L30.918,26.815L30.918,26.815z"/>
			</g>
		</g>
	</g>
</g>
<g>
</g>
<g>
</g>
<g>
</g>
<g>
</g>
<g>
</g>
<g>
</g>
<g>
</g>
<g>
</g>
<g>
</g>
<g>
</g>
<g>
</g>
<g>
</g>
<g>
</g>
<g>
</g>
<g>
</g>
</svg>
