<?xml version="1.0" encoding="iso-8859-1"?>
<!-- Generator: Adobe Illustrator 16.0.0, SVG Export Plug-In . SVG Version: 6.00 Build 0)  -->
<!DOCTYPE svg PUBLIC "-//W3C//DTD SVG 1.1//EN" "http://www.w3.org/Graphics/SVG/1.1/DTD/svg11.dtd">
<svg version="1.1" id="Capa_1" xmlns="http://www.w3.org/2000/svg" xmlns:xlink="http://www.w3.org/1999/xlink" x="0px" y="0px"
	 width="47.001px" height="47.001px" viewBox="0 0 47.001 47.001" style="enable-background:new 0 0 47.001 47.001;"
	 xml:space="preserve">
<g>
	<g>
		<ellipse cx="35.132" cy="26.53" rx="2.349" ry="4.23"/>
		<path d="M40.42,11.004h-6.814c0-3.395-2.847-6.155-6.347-6.155h-7.52c-3.5,0-6.346,2.76-6.346,6.155H6.58
			C2.888,11.474,0,14.613,0,18.427v15.042c0,3.814,2.888,6.953,6.58,7.424h1.88v0.096v1.164h3.802v-1.164h22.474v1.164h3.805v-1.164
			v-0.096h1.88c3.692-0.471,6.58-3.609,6.58-7.424V18.428C47,14.613,44.111,11.474,40.42,11.004z M19.74,8.138h7.52
			c1.686,0,3.055,1.286,3.055,2.866H16.685C16.685,9.424,18.055,8.138,19.74,8.138z M37.217,33.062l-6.984,1.572
			c-1.504,0.337-2.934-0.627-3.174-2.151l-0.162-1.955l-3.051-0.001l-1.397-1.529h-1.865l-0.578-1.162h-1.542l-0.305,1.162H17.16
			l-0.576-1.162h-1.541l-0.305,1.162H8.454L7.05,26.529l1.402-2.466H21.05l1.398-1.53h4.448l0.162-1.958
			c0.24-1.523,1.67-2.487,3.176-2.15l6.981,1.574c1.505,0.338,2.733,1.868,2.731,3.409l0.002,6.245
			C39.95,31.188,38.721,32.722,37.217,33.062z"/>
	</g>
</g>
<g>
</g>
<g>
</g>
<g>
</g>
<g>
</g>
<g>
</g>
<g>
</g>
<g>
</g>
<g>
</g>
<g>
</g>
<g>
</g>
<g>
</g>
<g>
</g>
<g>
</g>
<g>
</g>
<g>
</g>
</svg>
