<?xml version="1.0" encoding="iso-8859-1"?>
<!-- Generator: Adobe Illustrator 16.0.0, SVG Export Plug-In . SVG Version: 6.00 Build 0)  -->
<!DOCTYPE svg PUBLIC "-//W3C//DTD SVG 1.1//EN" "http://www.w3.org/Graphics/SVG/1.1/DTD/svg11.dtd">
<svg version="1.1" id="Capa_1" xmlns="http://www.w3.org/2000/svg" xmlns:xlink="http://www.w3.org/1999/xlink" x="0px" y="0px"
	 width="46px" height="46px" viewBox="0 0 46 46" style="enable-background:new 0 0 46 46;" xml:space="preserve">
<g>
	<g>
		<path d="M26.451,27.396h1.604c0.002-0.058,0.004-0.108,0.006-0.164v-1.854c0-1.291,0.289-2.515,0.791-3.619h-0.703l-0.01-0.49
			c-0.041-2.036-0.158-5.146-0.488-8.403l-0.043-0.438l0.43-0.1c1.525-0.352,2.997-0.853,4.374-1.489l0.478-0.22l0.196,0.487
			c0.713,1.77,1.238,3.729,1.603,5.778c0.522-0.132,1.063-0.216,1.619-0.249c-0.397-2.284-1.005-4.444-1.812-6.386l-0.164-0.396
			l0.366-0.223c0.621-0.378,1.261-0.82,1.957-1.352l0.344-0.262l0.309,0.301c3.07,2.993,5.114,6.855,5.87,11.027
			c1.495,1.574,2.419,3.694,2.419,6.031v1.896C45.857,25.891,46,24.461,46,23C46,10.317,35.682,0,23,0C10.318,0,0,10.317,0,23
			c0,12.684,10.318,23,23,23c0.729,0,1.447-0.038,2.158-0.104v-7.141c-0.441,2.064-0.954,3.671-1.467,4.51l-0.143,0.233
			l-0.273,0.006C23.122,43.516,23.062,43.52,23,43.52c-0.062,0-0.122-0.004-0.182-0.01l-0.273-0.006l-0.237-0.238
			c-0.766-1.252-1.536-4.193-2.059-7.869l-0.073-0.51l0.513-0.058c1.708-0.188,2.797-0.193,4.469-0.017v-1.617
			c-1.727-0.176-2.864-0.166-4.68,0.037l-0.501,0.056l-0.052-0.501c-0.256-2.486-0.41-5.189-0.455-8.038l-0.008-0.508h7.074
			l-0.009,0.508C26.516,25.648,26.486,26.527,26.451,27.396z M32.514,4.838c0.896,0.47,1.801,1.044,2.694,1.708l0.547,0.407
			l-0.552,0.399c-0.369,0.267-0.742,0.527-1.126,0.77l-0.45,0.283l-0.255-0.467c-0.483-0.885-0.985-1.679-1.491-2.36l-1.306-1.759
			L32.514,4.838z M26.486,2.918c2.084,1.052,3.972,3.049,5.459,5.775l0.256,0.47l-0.485,0.224c-1.239,0.571-2.502,1.017-3.755,1.325
			l-0.539,0.133l-0.076-0.549c-0.394-2.83-0.916-5.102-1.551-6.752l-0.465-1.21L26.486,2.918z M22.451,2.501l0.273-0.006
			c0.309-0.02,0.338-0.015,0.458-0.005l0.273,0.006l0.236,0.238c0.767,1.253,1.537,4.194,2.06,7.869l0.073,0.51l-0.514,0.058
			c-0.881,0.098-1.615,0.144-2.311,0.144c-0.696,0-1.43-0.046-2.311-0.144l-0.513-0.058l0.073-0.51
			c0.523-3.675,1.293-6.616,2.059-7.869L22.451,2.501z M10.792,6.546c0.893-0.664,1.799-1.238,2.694-1.708l1.939-1.019L14.12,5.578
			c-0.509,0.686-1.01,1.479-1.491,2.358l-0.255,0.467l-0.45-0.283c-0.385-0.242-0.757-0.501-1.126-0.768l-0.552-0.399L10.792,6.546z
			 M18.349,12.866c-0.329,3.232-0.446,6.354-0.487,8.402l-0.01,0.49h-7.075l0.027-0.525c0.184-3.593,0.934-7.087,2.168-10.106
			l0.197-0.482l0.474,0.218c1.375,0.629,2.828,1.123,4.32,1.466l0.43,0.099L18.349,12.866z M18.393,33.573l-0.43,0.099
			c-1.492,0.344-2.946,0.837-4.32,1.467l-0.474,0.217l-0.197-0.481c-1.234-3.021-1.984-6.515-2.168-10.106l-0.027-0.524h7.075
			l0.01,0.489c0.041,2.05,0.159,5.17,0.487,8.402L18.393,33.573z M2.572,21.216c0.423-4.88,2.598-9.461,6.123-12.897l0.309-0.301
			L9.347,8.28c0.69,0.526,1.331,0.969,1.958,1.353l0.365,0.224l-0.164,0.395c-1.336,3.217-2.137,7.031-2.315,11.031L9.17,21.761
			H2.524L2.572,21.216z M9.003,37.982l-0.309-0.301c-3.524-3.438-5.699-8.019-6.123-12.897l-0.047-0.543h6.645l0.021,0.478
			c0.179,4,0.979,7.814,2.315,11.031l0.164,0.395l-0.365,0.225c-0.628,0.384-1.268,0.826-1.958,1.354L9.003,37.982z M13.486,41.162
			c-0.895-0.471-1.801-1.044-2.694-1.708l-0.547-0.407l0.552-0.398c0.37-0.269,0.743-0.528,1.128-0.77l0.449-0.281l0.254,0.467
			c0.48,0.879,0.982,1.672,1.491,2.357l1.306,1.76L13.486,41.162z M20.191,42.417l0.473,1.237l-1.172-0.616
			c-2.03-1.065-3.889-3.058-5.375-5.757l-0.26-0.473l0.49-0.225c1.228-0.561,2.47-0.996,3.692-1.297l0.539-0.133l0.076,0.55
			C19.043,38.509,19.561,40.768,20.191,42.417z M18.654,10.295l-0.076,0.55l-0.539-0.133c-1.222-0.301-2.464-0.737-3.692-1.297
			l-0.49-0.224l0.26-0.473c1.486-2.7,3.345-4.69,5.375-5.757l1.172-0.616l-0.473,1.237C19.561,5.232,19.043,7.491,18.654,10.295z
			 M19.463,21.759l0.008-0.508c0.045-2.848,0.198-5.552,0.455-8.038l0.052-0.501l0.501,0.056c1.943,0.217,3.101,0.217,5.044,0
			l0.5-0.056l0.053,0.501c0.256,2.486,0.41,5.19,0.455,8.038l0.008,0.508H19.463z"/>
		<path d="M43.096,25.378c0-3.458-2.812-6.269-6.268-6.269s-6.268,2.811-6.268,6.269v4.519h-2.902V46H46V29.896h-2.904V25.378z
			 M39.957,29.896h-6.259v-4.52c0-1.729,1.403-3.136,3.13-3.136c1.725,0,3.129,1.407,3.129,3.136V29.896z"/>
	</g>
</g>
<g>
</g>
<g>
</g>
<g>
</g>
<g>
</g>
<g>
</g>
<g>
</g>
<g>
</g>
<g>
</g>
<g>
</g>
<g>
</g>
<g>
</g>
<g>
</g>
<g>
</g>
<g>
</g>
<g>
</g>
</svg>
