<?xml version="1.0" encoding="iso-8859-1"?>
<!-- Generator: Adobe Illustrator 16.0.0, SVG Export Plug-In . SVG Version: 6.00 Build 0)  -->
<!DOCTYPE svg PUBLIC "-//W3C//DTD SVG 1.1//EN" "http://www.w3.org/Graphics/SVG/1.1/DTD/svg11.dtd">
<svg version="1.1" id="Capa_1" xmlns="http://www.w3.org/2000/svg" xmlns:xlink="http://www.w3.org/1999/xlink" x="0px" y="0px"
	 width="64px" height="64px" viewBox="0 0 64 64" style="enable-background:new 0 0 64 64;" xml:space="preserve">
<g>
	<g>
		<g id="circle_8_">
			<g>
				<path d="M22,44h20l2-19H20L22,44z M26,30h2v2c0,2.209,1.791,4,4,4s4-1.791,4-4v-2h2v2c0,3.312-2.688,6-6,6c-3.313,0-6-2.688-6-6
					V30z M32,0C14.327,0,0,14.327,0,32c0,17.674,14.327,32,32,32s32-14.326,32-32C64,14.327,49.673,0,32,0z M44,44
					c0,1.104-0.896,2-2,2H22c-1.104,0-2-0.896-2-2l-2-19c0-1.104,0.896-2,2-2c0.857-0.857,2.896-4,4-4h16c1.104,0,3.245,3.245,4,4
					c1.104,0,2,0.896,2,2L44,44z M38.833,21H25.167c-0.875,0-2.487,1.356-3.167,2h20C41.402,22.435,39.708,21,38.833,21z"/>
			</g>
		</g>
	</g>
</g>
<g>
</g>
<g>
</g>
<g>
</g>
<g>
</g>
<g>
</g>
<g>
</g>
<g>
</g>
<g>
</g>
<g>
</g>
<g>
</g>
<g>
</g>
<g>
</g>
<g>
</g>
<g>
</g>
<g>
</g>
</svg>
