<?xml version="1.0" encoding="iso-8859-1"?>
<!-- Generator: Adobe Illustrator 16.0.0, SVG Export Plug-In . SVG Version: 6.00 Build 0)  -->
<!DOCTYPE svg PUBLIC "-//W3C//DTD SVG 1.1//EN" "http://www.w3.org/Graphics/SVG/1.1/DTD/svg11.dtd">
<svg version="1.1" id="Capa_1" xmlns="http://www.w3.org/2000/svg" xmlns:xlink="http://www.w3.org/1999/xlink" x="0px" y="0px"
	 width="46.792px" height="46.792px" viewBox="0 0 46.792 46.792" style="enable-background:new 0 0 46.792 46.792;"
	 xml:space="preserve">
<g>
	<g>
		<g id="paper">
			<g>
				<path d="M15.334,7.597c-2.503,0-5.198,0.745-5.198,2.38c0,1.634,2.695,2.378,5.198,2.378c2.504,0,5.199-0.744,5.198-2.378
					C20.532,8.342,17.838,7.597,15.334,7.597z M15.334,10.879c-2.353,0-3.636-0.672-3.75-0.865c0.114-0.269,1.396-0.941,3.75-0.941
					s3.637,0.674,3.75,0.866C18.97,10.207,17.687,10.879,15.334,10.879z M46.75,43.093c-2.083-6.913-1.186-12.603-0.591-16.366
					c0.396-2.498,0.655-4.149-0.112-5.186c-0.611-0.829-1.584-0.662-2.365-0.529c-1.375,0.238-3.089,0.532-4.842-2.984
					c-3.139-6.29-9.296-10.455-10.291-11.1c-2.428-2.687-7.494-4.5-13.502-4.5C6.609,2.428,0,5.997,0,10.555v20.466
					c0,4.56,6.609,8.13,15.047,8.13c8.071,0,14.454-3.269,14.995-7.543c0.526,0.508,1.29,1.629,1.836,2.756
					c4.718,9.426,13.522,9.979,13.896,9.998c0.017,0.002,0.031,0.002,0.049,0.002c0.297,0,0.58-0.14,0.766-0.379
					C46.782,43.735,46.842,43.401,46.75,43.093z M28.157,31.021c0,3.341-6.003,6.161-13.109,6.161
					c-7.105,0-13.109-2.82-13.109-6.161V14.593c2.559,2.459,7.413,4.089,13.109,4.089c5.697,0,10.552-1.63,13.109-4.089V31.021z
					 M15.047,16.715c-7.105,0-13.109-2.82-13.109-6.16c0-3.339,6.003-6.16,13.109-6.16c5.309,0,10,1.575,12.034,3.764
					c0.052,0.095,0.122,0.175,0.205,0.25c0.552,0.673,0.87,1.395,0.87,2.146C28.157,13.895,22.154,16.715,15.047,16.715z
					 M44.488,42.192c-2.483-0.525-7.7-2.363-10.875-8.703c-0.545-1.129-1.926-3.658-3.518-4.067V10.555
					c0-0.01-0.004-0.02-0.004-0.03c2.188,1.809,5.196,4.739,7.018,8.392c2.397,4.81,5.322,4.309,6.895,4.036
					c0.178-0.03,0.4-0.068,0.557-0.082c0.151,0.575-0.105,2.208-0.315,3.543C43.663,30.091,42.809,35.52,44.488,42.192z"/>
			</g>
		</g>
	</g>
</g>
<g>
</g>
<g>
</g>
<g>
</g>
<g>
</g>
<g>
</g>
<g>
</g>
<g>
</g>
<g>
</g>
<g>
</g>
<g>
</g>
<g>
</g>
<g>
</g>
<g>
</g>
<g>
</g>
<g>
</g>
</svg>
