<?xml version="1.0" encoding="iso-8859-1"?>
<!-- Generator: Adobe Illustrator 16.0.0, SVG Export Plug-In . SVG Version: 6.00 Build 0)  -->
<!DOCTYPE svg PUBLIC "-//W3C//DTD SVG 1.1//EN" "http://www.w3.org/Graphics/SVG/1.1/DTD/svg11.dtd">
<svg version="1.1" id="Capa_1" xmlns="http://www.w3.org/2000/svg" xmlns:xlink="http://www.w3.org/1999/xlink" x="0px" y="0px"
	 width="47px" height="47px" viewBox="0 0 47 47" style="enable-background:new 0 0 47 47;" xml:space="preserve">
<g>
	<g>
		<path d="M46.212,22.648l-3.32-17.437C42.347,2.344,39.513,0,36.594,0h-26.19C7.486,0,4.651,2.344,4.107,5.211l-3.32,17.438
			c-0.546,2.867,1.395,5.21,4.313,5.21h8.596V39.04c0,4.392,4.399,7.96,9.805,7.96c5.405,0,9.805-3.568,9.805-7.96V27.859H41.9
			C44.818,27.859,46.758,25.516,46.212,22.648z M30.652,33.635c-1.792-1.559-4.323-2.549-7.151-2.549c-2.83,0-5.36,0.99-7.152,2.549
			V17.822c0-1.054,2.776-3.555,7.151-3.555c4.377,0,7.153,2.501,7.153,3.555L30.652,33.635L30.652,33.635z M23.5,44.35
			c-3.944,0-7.152-2.381-7.152-5.31c0-2.923,3.208-5.304,7.152-5.304c3.943,0,7.151,2.381,7.151,5.304
			C30.652,41.969,27.444,44.35,23.5,44.35z"/>
		<path d="M23.5,35.729c-2.932,0-5.306,1.479-5.306,3.312c0,1.835,2.374,3.318,5.306,3.318c2.932,0,5.306-1.483,5.306-3.318
			C28.806,37.208,26.432,35.729,23.5,35.729z"/>
	</g>
</g>
<g>
</g>
<g>
</g>
<g>
</g>
<g>
</g>
<g>
</g>
<g>
</g>
<g>
</g>
<g>
</g>
<g>
</g>
<g>
</g>
<g>
</g>
<g>
</g>
<g>
</g>
<g>
</g>
<g>
</g>
</svg>
