<?xml version="1.0" encoding="iso-8859-1"?>
<!-- Generator: Adobe Illustrator 16.0.0, SVG Export Plug-In . SVG Version: 6.00 Build 0)  -->
<!DOCTYPE svg PUBLIC "-//W3C//DTD SVG 1.1//EN" "http://www.w3.org/Graphics/SVG/1.1/DTD/svg11.dtd">
<svg version="1.1" id="Capa_1" xmlns="http://www.w3.org/2000/svg" xmlns:xlink="http://www.w3.org/1999/xlink" x="0px" y="0px"
	 width="909.051px" height="909.051px" viewBox="0 0 909.051 909.051" style="enable-background:new 0 0 909.051 909.051;"
	 xml:space="preserve">
<g>
	<g>
		<path d="M196.702,417.976c14.2,0,28.5,1.699,42.8,5c12.1,2.8,24.2,6.8,36.3,12h48.7v27.199c13.4,9.2,26.7,19.9,40,32v-59.1h70v102
			h-28.4c1.101,1.2,2.2,2.5,3.2,3.7c9,10.5,40.2,51.8,45.101,59c4.899-7.2,47.3-61.5,48.399-62.7h-28.3v-102h70v59.2
			c13.3-12.101,27-22.8,40-32v-27.2h48.8c12.101-5.2,24.2-9.2,36.2-12c26-6.1,54.5-6.7,80.9-1c-8.2-52.8-20.2-102.9-35.7-149.1
			c-17.2-50.8-38.4-95.9-62.9-133.9c-25.8-40-54.899-71.4-86.5-93.5c-35-24.4-72.3-36.8-110.8-36.8c-38.3,0-75.5,12.3-110.4,36.6
			c-31.5,21.9-60.5,53.1-86.3,92.8c-24.5,37.7-45.6,82.5-62.8,133c-15.9,46.7-28.1,97.4-36.4,151c12.1-2.6,24.4-4,36.9-4.1
			C195.901,417.976,196.301,417.976,196.702,417.976z M244.702,395.075c6-29.7,13.3-58.2,21.8-85h58v85H244.702z M364.501,395.075
			v-85h70v85H364.501z M364.501,181.075h70v89h-70V181.075z M544.501,270.075h-70v-89h70V270.075z M474.501,395.075v-85h70v85
			H474.501z M584.501,395.075v-85h58c8.5,26.8,15.9,55.3,21.8,85H584.501z M584.501,270.075v-87.8l0.1,0.1
			c16.4,25.4,31.101,54.9,43.801,87.6h-43.9V270.075z M544.501,132.175v8.9h-70v-50.2c15.1,3.2,30.2,10,45.1,20.3
			C528.101,117.175,536.402,124.175,544.501,132.175z M434.501,90.875v50.2h-70v-8.9c8.2-8.1,16.6-15.2,25.2-21.1
			C404.402,100.775,419.402,94.075,434.501,90.875z M324.501,182.375v87.7h-43.9C293.402,237.275,308.101,207.675,324.501,182.375z"
			/>
		<path d="M907.801,620.175c-28.899-53.3-65.899-108.3-119.1-140c-15.101-9-29.9-16.199-47.5-17.699
			c-17.101-1.4-34.4-0.301-51.3,2.899c-34.601,6.5-67.4,21.601-96,41.9c-49.2,35-87.2,84.2-119.4,134.7
			c-12.9,20.199-20,33.6-20,33.6s-7.1-13.4-20-33.6c-30.3-47.5-66.5-93.4-110-129.5c-37.7-31.301-81.3-54.5-127.8-54.5
			c-62.4,0-130,41.8-195.4,162.199c-1.7,3.101-1.7,4.7-0.2,4.7c0.8,0,2.1-0.5,3.7-1.6c16-10.4,53.1-31.601,92-31.601
			c37.1,0,75.9,19.301,99.9,85.5c57.3,158.301,150.7,223.101,257.8,223.101s200.5-64.8,257.8-223.101c24-66.199,62.8-85.5,99.9-85.5
			c38.899,0,76,21.2,92,31.601c1.7,1.1,2.899,1.6,3.7,1.6C909.402,624.875,909.501,623.275,907.801,620.175z"/>
	</g>
</g>
<g>
</g>
<g>
</g>
<g>
</g>
<g>
</g>
<g>
</g>
<g>
</g>
<g>
</g>
<g>
</g>
<g>
</g>
<g>
</g>
<g>
</g>
<g>
</g>
<g>
</g>
<g>
</g>
<g>
</g>
</svg>
