<?xml version="1.0" encoding="iso-8859-1"?>
<!-- Generator: Adobe Illustrator 16.0.0, SVG Export Plug-In . SVG Version: 6.00 Build 0)  -->
<!DOCTYPE svg PUBLIC "-//W3C//DTD SVG 1.1//EN" "http://www.w3.org/Graphics/SVG/1.1/DTD/svg11.dtd">
<svg version="1.1" id="Capa_1" xmlns="http://www.w3.org/2000/svg" xmlns:xlink="http://www.w3.org/1999/xlink" x="0px" y="0px"
	 width="949.999px" height="949.999px" viewBox="0 0 949.999 949.999" style="enable-background:new 0 0 949.999 949.999;"
	 xml:space="preserve">
<g>
	<g>
		<path d="M315.698,642.622v68.455H256.06c-12.655,0-18.719,15.54-9.41,24.111l223.418,205.709
			c6.589,6.067,14.955,9.102,23.321,9.102c8.365,0,16.731-3.034,23.32-9.102l223.418-205.709c9.31-8.571,3.245-24.111-9.41-24.111
			H671.08v-68.455H315.698z"/>
		<path d="M121.994,169.661h166.948V2.713c-3.251,1.48-6.246,3.533-8.82,6.107l-152.02,152.02
			C125.528,163.415,123.474,166.41,121.994,169.661z"/>
		<path d="M119.281,586.907c0,16.633,13.483,30.115,30.115,30.115h140.703h12.8h12.799H671.08h12.799h12.8h103.925
			c16.632,0,30.114-13.482,30.114-30.115V30.115C830.718,13.483,817.235,0,800.604,0H559.969v34.56
			c0,7.88-6.388,14.268-14.268,14.268h-42.57c-7.88,0-14.268-6.388-14.268-14.268V0H314.542v169.661c0,14.138-11.461,25.6-25.6,25.6
			H119.281V586.907z M413.746,324.764c0-1.667,0.266-3.27,0.748-4.776c2.021-6.304,7.923-10.87,14.898-10.87h64.236h63.089h0.666
			c6.975,0,12.878,4.566,14.898,10.87c0.482,1.506,0.749,3.109,0.749,4.776v8.024V505.48c0,8.642-7.005,15.646-15.646,15.646
			H429.394c-8.642,0-15.646-7.005-15.646-15.646V332.788L413.746,324.764L413.746,324.764z M560.729,283.665
			c-1.104-0.089-2.217-0.147-3.344-0.147h-67.764v-24.127c0-7.88,6.388-14.268,14.269-14.268h42.569
			c7.88,0,14.269,6.388,14.269,14.268L560.729,283.665L560.729,283.665z M503.891,113.907h42.569c7.88,0,14.269,6.388,14.269,14.268
			V168c0,7.88-6.389,14.268-14.269,14.268h-42.569c-7.881,0-14.269-6.388-14.269-14.268v-39.825
			C489.622,120.295,496.01,113.907,503.891,113.907z M418.516,63.097c0-7.88,6.388-14.268,14.268-14.268h42.57
			c7.88,0,14.268,6.388,14.268,14.268v39.825c0,7.88-6.388,14.268-14.268,14.268h-42.57c-7.88,0-14.269-6.388-14.269-14.268
			L418.516,63.097L418.516,63.097z M418.516,196.537c0-7.88,6.388-14.268,14.268-14.268h42.57c7.88,0,14.268,6.388,14.268,14.268
			v39.825c0,7.88-6.388,14.268-14.268,14.268h-42.57c-7.88,0-14.269-6.388-14.269-14.268L418.516,196.537L418.516,196.537z"/>
		<path d="M451.518,494.085h83.745c6.522,0,11.81-5.287,11.81-11.811V432.34c0-6.522-5.287-11.811-11.81-11.811h-83.745
			c-6.522,0-11.811,5.287-11.811,11.811v49.935C439.707,488.798,444.994,494.085,451.518,494.085z"/>
	</g>
</g>
<g>
</g>
<g>
</g>
<g>
</g>
<g>
</g>
<g>
</g>
<g>
</g>
<g>
</g>
<g>
</g>
<g>
</g>
<g>
</g>
<g>
</g>
<g>
</g>
<g>
</g>
<g>
</g>
<g>
</g>
</svg>
