<?xml version="1.0" encoding="iso-8859-1"?>
<!-- Generator: Adobe Illustrator 16.0.0, SVG Export Plug-In . SVG Version: 6.00 Build 0)  -->
<!DOCTYPE svg PUBLIC "-//W3C//DTD SVG 1.1//EN" "http://www.w3.org/Graphics/SVG/1.1/DTD/svg11.dtd">
<svg version="1.1" id="Capa_1" xmlns="http://www.w3.org/2000/svg" xmlns:xlink="http://www.w3.org/1999/xlink" x="0px" y="0px"
	 width="64px" height="64px" viewBox="0 0 64 64" style="enable-background:new 0 0 64 64;" xml:space="preserve">
<g>
	<g>
		<g id="circle_5_">
			<g>
				<path d="M18,41c0,1.104,0.896,2,2,2s2-0.896,2-2v-6c0-1.104-0.896-2-2-2s-2,0.896-2,2V41z M44,33c-1.104,0-2,0.896-2,2v6
					c0,1.104,0.896,2,2,2s2-0.896,2-2v-6C46,33.896,45.104,33,44,33z M32,0C14.327,0,0,14.327,0,32s14.327,32,32,32s32-14.327,32-32
					S49.673,0,32,0z M48,41c0,2.209-1.791,4-4,4s-4-1.791-4-4v-6c0-2.209,1.791-4,4-4c0.723,0,1.393,0.207,1.977,0.542
					C45.732,24.024,39.577,18,32,18s-13.733,6.024-13.977,13.542C18.608,31.207,19.277,31,20,31c2.209,0,4,1.791,4,4v6
					c0,2.209-1.791,4-4,4s-4-1.791-4-4v-9c0-8.837,7.164-16,16-16c8.837,0,16,7.163,16,16V41z"/>
			</g>
		</g>
	</g>
</g>
<g>
</g>
<g>
</g>
<g>
</g>
<g>
</g>
<g>
</g>
<g>
</g>
<g>
</g>
<g>
</g>
<g>
</g>
<g>
</g>
<g>
</g>
<g>
</g>
<g>
</g>
<g>
</g>
<g>
</g>
</svg>
