<?xml version="1.0" encoding="iso-8859-1"?>
<!-- Generator: Adobe Illustrator 16.0.0, SVG Export Plug-In . SVG Version: 6.00 Build 0)  -->
<!DOCTYPE svg PUBLIC "-//W3C//DTD SVG 1.1//EN" "http://www.w3.org/Graphics/SVG/1.1/DTD/svg11.dtd">
<svg version="1.1" id="Capa_1" xmlns="http://www.w3.org/2000/svg" xmlns:xlink="http://www.w3.org/1999/xlink" x="0px" y="0px"
	 width="947.868px" height="947.868px" viewBox="0 0 947.868 947.868" style="enable-background:new 0 0 947.868 947.868;"
	 xml:space="preserve">
<g>
	<path d="M288.072,898.568c-8.6,2.6-10.7,9.2-4,15.2c25.5,22.699,51.2,34.1,77.1,34.1c16.7,0,45.6-8.8,65.1-16.8
		c31.601-13.2,88.5-16.5,131.101,0c26.699,11.2,48.3,16.8,65.1,16.8c26,0,51.7-11.4,77.1-34.1c6.7-6,4.5-12.601-4-15.2
		c-66.699-20.4-115.199-82.5-115.199-155.9c0-35.899,11.699-69.1,31.399-96c19.5-26.6,19.5-39.7-0.1-66.5
		c-19.7-26.899-31.3-60-31.3-95.899c0-72,46.8-133,111.5-154.601c8.5-2.8,8.8-6.899,0.1-9.1c-14.1-3.6-29-5.4-44.6-5.4
		c-24.101,0-45,4.7-87.2,14.9c-15.601,3.8-33.101,5.9-50.9,6.7c0.101-3.3,0.2-6.7,0.4-10c0.399-6.601,1-13.2,1.7-19.7
		c0-0.4,0.199-1.5,0.3-2.3c0.2-1.101,0.3-2.2,0.5-3.3c0.6-3.7,1.2-7.5,1.899-11.2c2.5-13.101,5.9-26.101,10-38.8
		c1.9-6.101,4.101-12,6.4-18c0.6-1.5,1.2-3,1.8-4.4c0.101-0.3,0.2-0.6,0.3-0.8c1.4-3.4,3-6.7,4.5-10c5.601-12,12-23.601,19-34.9
		c3.4-5.399,6.9-10.7,10.601-16c1.8-2.6,3.7-5.2,5.6-7.8c1-1.3,1.9-2.6,2.9-3.9l0.1-0.1c0.5-0.6,1-1.2,1.5-1.9
		c16.9-21.399,36.3-40.8,57.101-58.399c2.6-2.2,5.1-4.3,7.699-6.4c9.2-7.399,7.7-22.899,0-30.6c-9-9-21.399-7.4-30.6,0
		c-43,34.7-80,77.5-105.6,126.6c-7.801,14.9-14.4,30.3-19.9,46c-8.5-45.7-25.401-86.8-50.8-123.1c-19.9-28.5-46.7-51.5-76.7-68.9
		c-16.8-9.7-34.5-17.8-52.7-24.5c-10.2-3.8-20.5-7.1-30.9-10.1c-11.9-3.4-23.6-9.7-27.9,5.2c-5,17.5,0.1,41,2.8,58.699
		c4.7,23,10.2,40.5,17.1,61.801c14.5,36.6,37.4,70.699,68.7,101.899c27,26.601,53.7,44.4,80.301,53.5
		c12.899,4.101,31,7.5,54.3,10.101c-2,13.3-3.101,26.8-3.5,40.3c-15.4-1.101-30-3.2-42.7-6c-38.3-8.4-63.101-14.9-87.2-14.9
		c-15.6,0-30.4,1.8-44.5,5.4c-8.7,2.2-8.4,6.3,0.1,9.1c64.8,21.5,111.5,82.6,111.5,154.6c0,35.9-11.699,69-31.399,95.9
		c-19.601,26.7-19.601,39.8-0.101,66.5c19.7,26.9,31.5,60.1,31.5,96C403.272,816.068,354.772,878.068,288.072,898.568z
		 M523.173,590.368c2.2-11.3,13-18.6,24.3-16.4c11.3,2.2,18.6,13,16.4,24.301c-0.7,3.8-2.5,7.199-4.9,9.899l-50.1,56.2
		L523.173,590.368z M426.672,578.769c8.6-7.601,21.7-6.9,29.3,1.699c2.6,2.9,4.2,6.4,4.9,9.9l14.3,73.9l-50.101-56.2
		C417.373,599.468,418.172,586.368,426.672,578.769z"/>
</g>
<g>
</g>
<g>
</g>
<g>
</g>
<g>
</g>
<g>
</g>
<g>
</g>
<g>
</g>
<g>
</g>
<g>
</g>
<g>
</g>
<g>
</g>
<g>
</g>
<g>
</g>
<g>
</g>
<g>
</g>
</svg>
