<?xml version="1.0" encoding="iso-8859-1"?>
<!-- Generator: Adobe Illustrator 16.0.0, SVG Export Plug-In . SVG Version: 6.00 Build 0)  -->
<!DOCTYPE svg PUBLIC "-//W3C//DTD SVG 1.1//EN" "http://www.w3.org/Graphics/SVG/1.1/DTD/svg11.dtd">
<svg version="1.1" id="Capa_1" xmlns="http://www.w3.org/2000/svg" xmlns:xlink="http://www.w3.org/1999/xlink" x="0px" y="0px"
	 width="64px" height="64px" viewBox="0 0 64 64" style="enable-background:new 0 0 64 64;" xml:space="preserve">
<g>
	<g>
		<g id="circle_7_">
			<g>
				<path d="M32,18c-3.866,0-7,3.134-7,7v14c0,3.866,3.134,7,7,7s7-3.134,7-7V25C39,21.134,35.866,18,32,18z M33,27
					c0,0.553-0.447,1-1,1c-0.553,0-1-0.447-1-1v-5c0-0.553,0.447-1,1-1c0.553,0,1,0.447,1,1V27z M32,0C14.327,0,0,14.327,0,32
					s14.327,32,32,32s32-14.327,32-32S49.673,0,32,0z M41,39c0,4.971-4.029,9-9,9c-4.971,0-9-4.029-9-9V25c0-4.971,4.029-9,9-9
					c4.971,0,9,4.029,9,9V39z"/>
			</g>
		</g>
	</g>
</g>
<g>
</g>
<g>
</g>
<g>
</g>
<g>
</g>
<g>
</g>
<g>
</g>
<g>
</g>
<g>
</g>
<g>
</g>
<g>
</g>
<g>
</g>
<g>
</g>
<g>
</g>
<g>
</g>
<g>
</g>
</svg>
