<?xml version="1.0" encoding="iso-8859-1"?>
<!-- Generator: Adobe Illustrator 16.0.0, SVG Export Plug-In . SVG Version: 6.00 Build 0)  -->
<!DOCTYPE svg PUBLIC "-//W3C//DTD SVG 1.1//EN" "http://www.w3.org/Graphics/SVG/1.1/DTD/svg11.dtd">
<svg version="1.1" id="Capa_1" xmlns="http://www.w3.org/2000/svg" xmlns:xlink="http://www.w3.org/1999/xlink" x="0px" y="0px"
	 width="47px" height="47px" viewBox="0 0 47 47" style="enable-background:new 0 0 47 47;" xml:space="preserve">
<g>
	<g>
		<path d="M28.063,14.653v3.475c5.033,1.862,8.638,6.697,8.638,12.372c0,7.277-5.923,13.2-13.201,13.2
			c-7.279,0-13.201-5.923-13.201-13.2c0-5.674,3.601-10.508,8.632-12.371v-3.474C12.05,16.641,6.999,22.985,6.999,30.5
			c0,9.096,7.402,16.5,16.501,16.5c9.099,0,16.501-7.404,16.501-16.5C40.001,22.984,34.946,16.639,28.063,14.653z"/>
		<path d="M16.338,7.969h5.206v1.144h-3.087c-1.082,0-1.954,0.875-1.954,1.951c0,1.081,0.872,1.95,1.954,1.95h3.087v9.982
			c0,0.054,0.028,0.094,0.029,0.145c-4.608,0.659-7.999,3.646-7.999,7.34c0,4.196,4.359,7.485,9.926,7.485
			c5.567,0,9.927-3.289,9.927-7.485c0-3.693-3.39-6.681-8.006-7.34c0.008-0.051,0.031-0.091,0.031-0.145V1.95
			C25.452,0.874,24.577,0,23.5,0c-1.083,0-1.956,0.874-1.956,1.95v2.111h-5.206c-1.079,0-1.953,0.874-1.953,1.953
			C14.385,7.096,15.259,7.969,16.338,7.969z M23.5,26.906c3.548,0,6.022,1.883,6.022,3.572c0,1.697-2.476,3.582-6.022,3.582
			s-6.021-1.885-6.021-3.582C17.479,28.789,19.953,26.906,23.5,26.906z"/>
	</g>
</g>
<g>
</g>
<g>
</g>
<g>
</g>
<g>
</g>
<g>
</g>
<g>
</g>
<g>
</g>
<g>
</g>
<g>
</g>
<g>
</g>
<g>
</g>
<g>
</g>
<g>
</g>
<g>
</g>
<g>
</g>
</svg>
