<?xml version="1.0" encoding="iso-8859-1"?>
<!-- Generator: Adobe Illustrator 16.0.0, SVG Export Plug-In . SVG Version: 6.00 Build 0)  -->
<!DOCTYPE svg PUBLIC "-//W3C//DTD SVG 1.1//EN" "http://www.w3.org/Graphics/SVG/1.1/DTD/svg11.dtd">
<svg version="1.1" id="Capa_1" xmlns="http://www.w3.org/2000/svg" xmlns:xlink="http://www.w3.org/1999/xlink" x="0px" y="0px"
	 width="47px" height="47px" viewBox="0 0 47 47" style="enable-background:new 0 0 47 47;" xml:space="preserve">
<g>
	<g>
		<path d="M40.766,0H6.235C2.808,0,0,2.806,0,6.235v34.531C0,44.193,2.808,47,6.235,47h34.529C44.194,47,47,44.193,47,40.766V6.235
			C47,2.806,44.194,0,40.766,0z M43.711,37.312c0,3.527-2.872,6.397-6.398,6.397H9.688c-3.527,0-6.399-2.87-6.399-6.397V9.688
			c0-3.528,2.872-6.398,6.399-6.398h27.623c3.527,0,6.399,2.87,6.399,6.398L43.711,37.312L43.711,37.312z"/>
		<circle cx="30.506" cy="30.508" r="3.172"/>
		<path d="M37.313,6.11H9.688c-1.973,0-3.578,1.605-3.578,3.578v27.623c0,1.974,1.605,3.578,3.578,3.578h27.623
			c1.974,0,3.578-1.604,3.578-3.578V9.688C40.891,7.715,39.285,6.11,37.313,6.11z M36.121,31.705l-4.415,4.418
			c-1.085,1.086-3.041,1.301-4.342,0.479l-6.051-3.828c-1.303-0.824-1.631-2.517-0.725-3.767l1.27-1.497l-2.157-2.156l0.095-2.07
			l-1.32-1.318l0.412-1.229l-1.09-1.09l-1.035,0.604l-0.707-0.707l0.414-1.228l-1.09-1.091l-1.036,0.606l-4.445-4.443l0.753-2.736
			L13.385,9.9l8.907,8.907l2.071-0.093l3.146,3.146l1.497-1.271c1.249-0.908,2.94-0.578,3.767,0.724l3.826,6.051
			C37.425,28.666,37.21,30.617,36.121,31.705z"/>
	</g>
</g>
<g>
</g>
<g>
</g>
<g>
</g>
<g>
</g>
<g>
</g>
<g>
</g>
<g>
</g>
<g>
</g>
<g>
</g>
<g>
</g>
<g>
</g>
<g>
</g>
<g>
</g>
<g>
</g>
<g>
</g>
</svg>
