<?xml version="1.0" encoding="iso-8859-1"?>
<!-- Generator: Adobe Illustrator 16.0.0, SVG Export Plug-In . SVG Version: 6.00 Build 0)  -->
<!DOCTYPE svg PUBLIC "-//W3C//DTD SVG 1.1//EN" "http://www.w3.org/Graphics/SVG/1.1/DTD/svg11.dtd">
<svg version="1.1" id="Capa_1" xmlns="http://www.w3.org/2000/svg" xmlns:xlink="http://www.w3.org/1999/xlink" x="0px" y="0px"
	 width="950.619px" height="950.619px" viewBox="0 0 950.619 950.619" style="enable-background:new 0 0 950.619 950.619;"
	 xml:space="preserve">
<g>
	<g>
		<path d="M714.51,922.619l92.2-667.101c4.199-30.4-19.9-55.9-54-55.9h-555c-34,0-58.2,25.4-54,55.8l92.2,667.101
			c2.1,15.5,23,28.1,46.7,28.1h385.2C691.51,950.619,712.409,938.02,714.51,922.619z M238.51,397.619l-16.4-119h497l-16.399,119
			H238.51z M404.609,672.819L573.71,503.719c1.8-1.8,4.3-2.199,5.6-0.8c33.2,36.601,22.5,103.101-24.9,150.5
			c-47.399,47.4-113.899,58.101-150.5,24.9C402.409,677.119,402.81,674.619,404.609,672.819z M375.909,644.219
			c-1.8,1.801-4.3,2.2-5.6,0.801c-33.2-36.601-22.5-103.101,24.9-150.5c47.399-47.401,113.899-58.101,150.5-24.901
			c1.399,1.3,1,3.8-0.801,5.6L375.909,644.219z M637.21,871.619H304.109l-16.399-119h365.899L637.21,871.619z"/>
		<path d="M811.31,81.519c0-21.8-18.1-39.9-39.8-39.9h-39.5c0-21-17.7-45.1-39.5-41.2l-118.5,29.8c-8.3,1.4-15.601,6.4-22,11.4
			h-372.9c-21.8,0-39.8,18.1-39.8,39.9v39.5c0,21.8,18.1,39.6,39.8,39.6h592.3c21.801,0,39.801-17.8,39.801-39.6v-39.5H811.31z"/>
	</g>
</g>
<g>
</g>
<g>
</g>
<g>
</g>
<g>
</g>
<g>
</g>
<g>
</g>
<g>
</g>
<g>
</g>
<g>
</g>
<g>
</g>
<g>
</g>
<g>
</g>
<g>
</g>
<g>
</g>
<g>
</g>
</svg>
