<?xml version="1.0" encoding="iso-8859-1"?>
<!-- Generator: Adobe Illustrator 16.0.0, SVG Export Plug-In . SVG Version: 6.00 Build 0)  -->
<!DOCTYPE svg PUBLIC "-//W3C//DTD SVG 1.1//EN" "http://www.w3.org/Graphics/SVG/1.1/DTD/svg11.dtd">
<svg version="1.1" id="Capa_1" xmlns="http://www.w3.org/2000/svg" xmlns:xlink="http://www.w3.org/1999/xlink" x="0px" y="0px"
	 width="64px" height="64px" viewBox="0 0 64 64" style="enable-background:new 0 0 64 64;" xml:space="preserve">
<g>
	<g>
		<g id="circle_29_">
			<g>
				<path d="M39,26c-0.553,0-1,0.448-1,1c0,0.553,0.447,1,1,1s1-0.447,1-1C40,26.448,39.553,26,39,26z M22,31v-2.009
					c-2.209,0-4,1.782-4,3.981v12.355l5.116-3.956c0.251-0.435,0.772-0.593,1.227-0.421c-0.002-0.016-0.002-0.029-0.004-0.044H30
					c2.184,0,3.952-1.744,3.992-3.908H28C24.687,37,22,34.312,22,31z M31,26c-0.553,0-1,0.448-1,1c0,0.553,0.447,1,1,1s1-0.447,1-1
					C32,26.448,31.553,26,31,26z M32,0C14.327,0,0,14.327,0,32s14.327,32,32,32s32-14.327,32-32S49.673,0,32,0z M48,31
					c0,0.343-0.012,10.008-0.012,10.027c0.054,0.392-0.094,0.699-0.457,0.91c-0.479,0.274-0.92,0.205-1.397-0.272L39.93,37h-3.938
					c-0.04,3.264-2.704,5.898-5.992,5.898h-5.93l-6.204,4.644c-0.479,0.478-0.919,0.546-1.397,0.271
					c-0.363-0.209-0.511-0.517-0.457-0.904C16.011,46.889,16,37.268,16,36.927v-3.954C16,29.674,18.687,27,22,27v-4
					c0-3.313,2.687-6,6-6h14c3.312,0,6,2.687,6,6V31z M42,19H28c-2.209,0-4,1.791-4,4v8c0,2.209,1.791,4,4,4h11.662
					c-0.002,0.016-0.003,0.03-0.005,0.045c0.454-0.173,0.976-0.015,1.228,0.422L46,39.441V23C46,20.791,44.209,19,42,19z M31,30
					c-1.656,0-3-1.343-3-3s1.344-3,3-3c1.657,0,3,1.343,3,3S32.657,30,31,30z M39,30c-1.656,0-3-1.343-3-3s1.344-3,3-3
					c1.657,0,3,1.343,3,3S40.657,30,39,30z"/>
			</g>
		</g>
	</g>
</g>
<g>
</g>
<g>
</g>
<g>
</g>
<g>
</g>
<g>
</g>
<g>
</g>
<g>
</g>
<g>
</g>
<g>
</g>
<g>
</g>
<g>
</g>
<g>
</g>
<g>
</g>
<g>
</g>
<g>
</g>
</svg>
