<?xml version="1.0" encoding="iso-8859-1"?>
<!-- Generator: Adobe Illustrator 16.0.0, SVG Export Plug-In . SVG Version: 6.00 Build 0)  -->
<!DOCTYPE svg PUBLIC "-//W3C//DTD SVG 1.1//EN" "http://www.w3.org/Graphics/SVG/1.1/DTD/svg11.dtd">
<svg version="1.1" id="Capa_1" xmlns="http://www.w3.org/2000/svg" xmlns:xlink="http://www.w3.org/1999/xlink" x="0px" y="0px"
	 width="49.448px" height="49.448px" viewBox="0 0 49.448 49.448" style="enable-background:new 0 0 49.448 49.448;"
	 xml:space="preserve">
<g>
	<g>
		<g id="bow_tie">
			<g>
				<path d="M5.111,10.722c0.001,0,0.004-0.001,0.009-0.001C5.114,10.722,5.11,10.722,5.111,10.722L5.111,10.722z M5.12,10.721
					l0.014-0.001c0.003,0,0.006-0.001,0.009-0.001C5.135,10.719,5.128,10.72,5.12,10.721z M5.144,10.718L5.144,10.718
					c0.002,0,0.01-0.001,0.01-0.001C5.153,10.717,5.15,10.717,5.144,10.718z M49.448,25.616V25.52l-0.003-0.227v-0.078
					c-0.016-1.833-0.104-3.491-0.158-4.586c-0.078-1.519-0.204-3.282-0.553-4.85c-0.229-1.022-0.522-1.857-0.904-2.555
					c-0.592-1.08-1.389-1.818-2.371-2.196c-0.523-0.201-1.074-0.304-1.636-0.304c-1.439,0-2.599,0.646-3.53,1.165
					c-0.236,0.134-0.462,0.26-0.656,0.353c-1.691,0.814-3.385,1.551-5.023,2.262c-1.299,0.564-2.539,1.104-3.758,1.67
					c-2.064-1.083-4.588-1.271-6.084-1.271c-1.436,0-2.87,0.169-4.146,0.49c-0.815,0.204-1.55,0.467-2.196,0.779
					c-1.014-0.496-2.003-0.902-2.97-1.3c-0.823-0.337-1.6-0.656-2.383-1.024c-0.541-0.254-1.109-0.567-1.711-0.898
					c-1.531-0.845-3.265-1.8-5.341-2.201c-0.007,0-0.012-0.001-0.015-0.002c-0.017-0.002-0.519-0.045-0.519-0.045L5.133,10.72
					c-1.318,0.143-2.452,0.824-3.279,1.976c-0.573,0.797-0.996,1.807-1.292,3.089C0.063,17.946,0,20.616,0,22.699v0.286
					c0.002,0.784,0.013,1.547,0.025,2.284l0.021,1.649c0.015,2.91,0.221,5.146,0.628,6.838c0.301,1.246,0.714,2.229,1.264,3.006
					c1.025,1.449,2.306,1.867,3.202,1.963c0.008,0,0.398,0.021,0.398,0.021c1.296,0,2.646-0.656,3.837-1.236l0.607-0.289
					c1.381-0.637,2.695-1.274,3.966-1.896c1.615-0.787,3.16-1.539,4.715-2.224c1.998,1.177,4.438,1.379,5.889,1.379
					c2.326,0,4.521-0.481,6.19-1.333c1.005,0.52,2.016,0.961,3.066,1.42c0.729,0.318,1.486,0.648,2.287,1.023
					c0.232,0.111,0.684,0.355,1.154,0.613c2.641,1.439,4.793,2.541,6.521,2.541c0.146,0,0.295-0.008,0.433-0.021
					c0.94-0.104,2.28-0.566,3.335-2.18c0.552-0.844,0.969-1.912,1.275-3.27c0.427-1.891,0.633-4.303,0.633-7.378v-0.272
					C49.447,25.625,49.447,25.616,49.448,25.616z M43.934,36.299c-1.541,0.17-5.521-2.312-6.799-2.914
					c-2.478-1.166-4.494-1.881-6.477-3.078c-2.514,2.143-9.218,2.479-11.658,0c-3.323,1.361-6.462,3.051-10.039,4.695
					c-1.087,0.502-2.666,1.391-3.562,1.297c-2.413-0.252-2.891-4.924-2.915-9.393c-0.027-5.082-0.558-13.395,2.915-13.762
					c0.045-0.005,0.116-0.008,0.161,0c2.438,0.472,4.458,1.968,6.477,2.914c2.181,1.024,4.307,1.69,6.476,2.914
					c2.583-2.073,9.618-2.271,12.145,0c3.09-1.521,6.521-2.837,10.039-4.532c1.219-0.589,2.521-1.658,3.886-1.135
					c1.831,0.704,2.132,4.82,2.269,7.448C47.059,24.831,47.622,35.887,43.934,36.299z M6.393,16.312
					c-0.311,0-0.562,0.229-0.562,0.513c0,0-1,4.071-1,8.112c0,3.979,1,7.927,1,7.927c0,0.281,0.252,0.512,0.562,0.512
					s0.562-0.229,0.562-0.512c0,0-1-3.623-1-7.427c0-4.196,1-8.612,1-8.612C6.956,16.542,6.704,16.312,6.393,16.312z M43.518,16.312
					c-0.311,0-0.562,0.229-0.562,0.513c0,0,1,4.416,1,8.612c0,3.804-1,7.427-1,7.427c0,0.281,0.252,0.512,0.562,0.512
					c0.312,0,0.562-0.229,0.562-0.512c0,0,1-3.947,1-7.927c0-4.041-1-8.112-1-8.112C44.081,16.542,43.829,16.312,43.518,16.312z"/>
			</g>
		</g>
	</g>
</g>
<g>
</g>
<g>
</g>
<g>
</g>
<g>
</g>
<g>
</g>
<g>
</g>
<g>
</g>
<g>
</g>
<g>
</g>
<g>
</g>
<g>
</g>
<g>
</g>
<g>
</g>
<g>
</g>
<g>
</g>
</svg>
