<?xml version="1.0" encoding="iso-8859-1"?>
<!-- Generator: Adobe Illustrator 16.0.0, SVG Export Plug-In . SVG Version: 6.00 Build 0)  -->
<!DOCTYPE svg PUBLIC "-//W3C//DTD SVG 1.1//EN" "http://www.w3.org/Graphics/SVG/1.1/DTD/svg11.dtd">
<svg version="1.1" id="Capa_1" xmlns="http://www.w3.org/2000/svg" xmlns:xlink="http://www.w3.org/1999/xlink" x="0px" y="0px"
	 width="49.366px" height="49.366px" viewBox="0 0 49.366 49.366" style="enable-background:new 0 0 49.366 49.366;"
	 xml:space="preserve">
<g>
	<g>
		<g id="footaball">
			<g>
				<path d="M31.516,17.854c0-0.001,0-0.001-0.001-0.002s-0.003-0.002-0.003-0.002l-2.276-2.276c-0.626-0.627-1.642-0.627-2.27,0
					c-0.627,0.626-0.627,1.643,0,2.269l1.146,1.145l-1.149,1.149l-1.145-1.145c-0.626-0.627-1.642-0.627-2.269,0
					c-0.626,0.627-0.626,1.643,0,2.269l1.145,1.146l-1.149,1.149l-1.145-1.145c-0.627-0.627-1.643-0.627-2.27,0
					c-0.626,0.627-0.626,1.643,0,2.269l1.145,1.145l-1.149,1.15l-1.145-1.146c-0.626-0.627-1.642-0.627-2.268,0
					c-0.627,0.626-0.627,1.642,0,2.269l1.144,1.146l-1.144,1.146c-0.003,0-0.004,0.004-0.005,0.004l-1.146-1.146
					c-0.626-0.626-1.642-0.626-2.269,0c-0.626,0.627-0.626,1.644,0,2.271l4.558,4.558c0.313,0.313,0.725,0.471,1.135,0.471
					c0.41,0,0.82-0.155,1.134-0.471c0.627-0.626,0.627-1.644,0-2.269l-1.145-1.146c0.001-0.001,0.004-0.003,0.006-0.007l1.145-1.145
					l1.145,1.145c0.312,0.313,0.724,0.473,1.134,0.473c0.41,0,0.82-0.158,1.134-0.473c0.627-0.625,0.627-1.641,0-2.268l-1.145-1.145
					l1.149-1.15l1.145,1.145c0.312,0.312,0.725,0.472,1.134,0.472c0.41,0,0.821-0.158,1.134-0.472c0.626-0.625,0.626-1.643,0-2.27
					l-1.145-1.144l1.148-1.149l1.146,1.145c0.312,0.312,0.725,0.472,1.134,0.472c0.411,0,0.821-0.158,1.135-0.472
					c0.627-0.627,0.627-1.642,0-2.269l-1.145-1.145l1.148-1.149l1.146,1.145c0.312,0.313,0.725,0.471,1.135,0.471
					s0.82-0.157,1.133-0.471c0.627-0.627,0.627-1.643,0-2.269L31.516,17.854z M49.234,10.28c-0.126-1.468-0.349-2.962-0.661-4.441
					l-0.11-0.337c-0.471-1.023-1.103-1.938-1.882-2.719c-0.781-0.779-1.694-1.411-2.719-1.879l-0.334-0.111
					c-1.475-0.312-2.97-0.535-4.443-0.66C38.061,0.045,37.02,0,35.99,0c-9.011,0-17.535,3.283-24.185,9.277l-0.038-0.041
					l-1.181,1.181l-1.192,1.132l0.052,0.069c-6.792,7.44-10.176,17.371-9.314,27.469c0.128,1.488,0.35,2.981,0.661,4.443l0.11,0.335
					c0.467,1.02,1.1,1.935,1.881,2.718c0.783,0.782,1.698,1.416,2.722,1.881l0.332,0.11c1.478,0.314,2.972,0.533,4.441,0.66
					c1.024,0.089,2.066,0.132,3.096,0.132c0,0,0.001,0,0.002,0c9.565,0,18.582-3.697,25.351-10.376c0,0,0.096-0.09,0.129-0.122
					l1.087-1.093l-0.023-0.029C46.712,30.309,50.097,20.378,49.234,10.28z M36.668,36.514l-0.154,0.157
					c-6.204,6.118-14.422,9.488-23.139,9.488c-0.939,0-1.889-0.04-2.823-0.121c-1.278-0.108-2.579-0.299-3.868-0.563
					c-0.612-0.301-1.159-0.688-1.63-1.158c-0.472-0.475-0.861-1.021-1.161-1.633c-0.264-1.274-0.453-2.576-0.563-3.869
					c-0.821-9.629,2.593-19.091,9.368-25.961l0.156-0.155C19.057,6.579,27.274,3.21,35.992,3.21c0.938,0,1.887,0.04,2.821,0.119
					c1.281,0.11,2.583,0.301,3.869,0.565c0.612,0.301,1.162,0.69,1.631,1.159c0.47,0.47,0.858,1.02,1.16,1.633
					c0.266,1.291,0.456,2.591,0.562,3.867C46.858,20.182,43.442,29.645,36.668,36.514z"/>
			</g>
		</g>
	</g>
</g>
<g>
</g>
<g>
</g>
<g>
</g>
<g>
</g>
<g>
</g>
<g>
</g>
<g>
</g>
<g>
</g>
<g>
</g>
<g>
</g>
<g>
</g>
<g>
</g>
<g>
</g>
<g>
</g>
<g>
</g>
</svg>
