<?xml version="1.0" encoding="iso-8859-1"?>
<!-- Generator: Adobe Illustrator 16.0.0, SVG Export Plug-In . SVG Version: 6.00 Build 0)  -->
<!DOCTYPE svg PUBLIC "-//W3C//DTD SVG 1.1//EN" "http://www.w3.org/Graphics/SVG/1.1/DTD/svg11.dtd">
<svg version="1.1" id="Capa_1" xmlns="http://www.w3.org/2000/svg" xmlns:xlink="http://www.w3.org/1999/xlink" x="0px" y="0px"
	 width="970.931px" height="970.931px" viewBox="0 0 970.931 970.931" style="enable-background:new 0 0 970.931 970.931;"
	 xml:space="preserve">
<g>
	<g>
		<path d="M596.631,142.215h-18.2c0-22-16.3-40.3-36.399-40.3c-20.101,0-36.4,18.3-36.4,40.3h-18.2c-40.8,0-74.4,30-85.9,71.1
			c-1.5,5.3,2.199,9.9,7.8,9.9h267.4c5.5,0,9.2-4.6,7.801-9.9C673.031,172.215,637.431,142.215,596.631,142.215z"/>
		<path d="M809.73,343.916h-15.8c-13.7-29-31.8-57.6-59.6-74.4c-4.7-2.9-13.3-4.7-18.8-4.7l-347,0.4c-5.5,0-13.301,3-17.2,7
			c-35,35.6-63.5,89.8-82.9,173.8c0.3-1.399-18.2-14.8-20-16.399c-7.4-6.601-14.5-13.601-21.3-20.801
			c-15.3-16.199-29-33.899-40.8-52.8c-4.3-6.8-8.4-13.7-12.8-20.5c-11.7-17.9-25.5-33.7-45.7-41.9c-22.7-9.2-47.9-9.6-71.9-7.3
			c-6.5,0.6-13.2,1.5-19,4.5c-8.3,4.2-10.4,11.3-14.1,19.1c-3,6.4-6,12.8-9,19.2c-4.3,9.1-8.6,18.3-12.9,27.4c-2.4,5,0,7.7,5.4,6.5
			c25.4-5.6,92.5-12.7,100.2,64.7c11.9,119.5,76.7,295.1,162.6,311.7c44.5,103.5,143.9,129.6,271.5,129.6
			c154.9,0,286.6-38.8,305.9-207.399c71.199-16.7,124.399-80.2,124.399-156.601C970.931,416.015,898.73,343.916,809.73,343.916z
			 M770.331,630.315c-0.7,13.801-2,27.601-4.8,41.101c-3.101,14.6-8.7,28.5-14.4,42.2c-3.2,7.5-10.4,12.5-18.8,9.899
			c-7.2-2.2-13.101-11.2-9.9-18.8c18.8-44.9,22.4-94.9,17.2-142.9c-2.5-23.6-6.6-47.199-13-70c-3.3-11.899-7.3-23.5-11.9-34.899
			c-1.699-4.3-11.1-31.601-15.3-32.101c-5.399-0.6-11.2-1-17.399-1c-33.101,0-90.301,34.7-127.601,34.7
			c-27.3,0-135.9-33.7-161.6-33.7c-19.5,0-33.7,2.801-44,7c28.399-75,87.6-90.2,193.8-90.2c59.3,0,139.4,0.4,175.5,56.5
			c28.7,44.5,44.1,98.1,50,151.699C771.23,576.916,771.73,604.215,770.331,630.315z M848.531,592.515c-1.5-38.6-6.601-81.6-17-131.1
			c-4.2-20.101-9.101-38.2-14.2-55.4c49.1,5.8,87.2,47.101,87.2,97.7C904.631,543.015,881.631,576.515,848.531,592.515z"/>
	</g>
</g>
<g>
</g>
<g>
</g>
<g>
</g>
<g>
</g>
<g>
</g>
<g>
</g>
<g>
</g>
<g>
</g>
<g>
</g>
<g>
</g>
<g>
</g>
<g>
</g>
<g>
</g>
<g>
</g>
<g>
</g>
</svg>
