<?xml version="1.0" encoding="iso-8859-1"?>
<!-- Generator: Adobe Illustrator 16.0.0, SVG Export Plug-In . SVG Version: 6.00 Build 0)  -->
<!DOCTYPE svg PUBLIC "-//W3C//DTD SVG 1.1//EN" "http://www.w3.org/Graphics/SVG/1.1/DTD/svg11.dtd">
<svg version="1.1" id="Capa_1" xmlns="http://www.w3.org/2000/svg" xmlns:xlink="http://www.w3.org/1999/xlink" x="0px" y="0px"
	 width="47.001px" height="47.001px" viewBox="0 0 47.001 47.001" style="enable-background:new 0 0 47.001 47.001;"
	 xml:space="preserve">
<g>
	<path d="M45.918,40.84c-0.081-0.412-0.298-0.902-0.485-1.088c-0.187-0.187-0.683-0.309-1.102-0.269l-0.121,0.014
		c-0.419,0.039-1.004-0.172-1.303-0.471l-1.24-1.239c-0.297-0.297-0.508-0.881-0.468-1.3l0.001-0.015
		c0.041-0.419-0.27-0.748-0.689-0.73l-0.095,0.004c-0.418,0.017-1.006-0.214-1.304-0.511l-0.188-0.191
		c-0.298-0.296-0.416-0.819-0.263-1.162c0.15-0.343,0.033-0.867-0.264-1.165L38.3,32.62c-0.297-0.297-0.82-0.415-1.162-0.263
		c-0.34,0.153-0.863,0.036-1.161-0.261l-0.302-0.301c-0.298-0.297-0.416-0.82-0.263-1.164c0.153-0.343,0.038-0.867-0.261-1.164
		l-3.922-3.922c1.938-2.503,3.125-4.906,3.287-6.613l3.658,3.659l4.553-4.557l-5.872-5.874c0,0,0.423-0.87-0.551-1.844
		c-0.978-0.974-1.894-0.52-1.894-0.52L28.983,4.37c0,0,1.198-2.062,0.815-2.801c-0.39-0.74-1.146-2.189-2.291-1.277
		c-1.153,0.914-2.401,3.236-2.401,3.236s-6.027-2.904-7.133-2.816C16.868,0.8,8.561,8.564,8.561,8.564S0.8,16.866,0.71,17.974
		c-0.088,1.109,2.817,7.134,2.817,7.134s-2.321,1.244-3.236,2.396c-0.91,1.156,0.539,1.909,1.278,2.293
		c0.735,0.385,2.801-0.811,2.801-0.811l5.43,5.429c0,0-0.458,0.915,0.518,1.89c0.977,0.974,1.842,0.551,1.842,0.551l5.875,5.877
		l4.554-4.556l-3.658-3.66c1.711-0.16,4.11-1.348,6.618-3.285l3.921,3.92c0.297,0.298,0.821,0.415,1.165,0.263
		c0.342-0.154,0.866-0.037,1.162,0.26l0.302,0.302c0.297,0.297,0.413,0.821,0.26,1.163c-0.151,0.342-0.034,0.864,0.263,1.161
		l0.098,0.099c0.298,0.297,0.82,0.415,1.163,0.263c0.344-0.151,0.866-0.034,1.163,0.263l0.19,0.19
		c0.298,0.297,0.526,0.883,0.512,1.303l-0.004,0.096c-0.016,0.418,0.312,0.729,0.729,0.689l0.016-0.001
		c0.419-0.041,1.004,0.168,1.302,0.465l1.239,1.243c0.297,0.296,0.509,0.883,0.468,1.301l-0.011,0.122
		c-0.039,0.419,0.081,0.914,0.268,1.101c0.186,0.188,0.676,0.406,1.088,0.486l5.541,1.067c0.412,0.081,0.685-0.191,0.604-0.604
		L45.918,40.84z M10.104,32.468l-2.737-2.744c0,0,3.201-3.309,3.925-3.223c0.717,0.091,2.832,1.942,2.832,1.942L10.104,32.468z
		 M14.856,14.857l-8.529,8.528c0,0-2.559-4.9-2.114-6.16c0.453-1.259,6.058-6.954,6.058-6.954s5.697-5.604,6.958-6.056
		c1.259-0.449,6.157,2.114,6.157,2.114L14.856,14.857z M28.443,14.127c0,0-1.852-2.119-1.938-2.839
		c-0.093-0.719,3.218-3.925,3.218-3.925l2.744,2.744L28.443,14.127z"/>
</g>
<g>
</g>
<g>
</g>
<g>
</g>
<g>
</g>
<g>
</g>
<g>
</g>
<g>
</g>
<g>
</g>
<g>
</g>
<g>
</g>
<g>
</g>
<g>
</g>
<g>
</g>
<g>
</g>
<g>
</g>
</svg>
