<?xml version="1.0" encoding="iso-8859-1"?>
<!-- Generator: Adobe Illustrator 16.0.0, SVG Export Plug-In . SVG Version: 6.00 Build 0)  -->
<!DOCTYPE svg PUBLIC "-//W3C//DTD SVG 1.1//EN" "http://www.w3.org/Graphics/SVG/1.1/DTD/svg11.dtd">
<svg version="1.1" id="Capa_1" xmlns="http://www.w3.org/2000/svg" xmlns:xlink="http://www.w3.org/1999/xlink" x="0px" y="0px"
	 width="64px" height="64px" viewBox="0 0 64 64" style="enable-background:new 0 0 64 64;" xml:space="preserve">
<g>
	<g>
		<g id="circle_32_">
			<g>
				<path d="M45.8,30.814l-9.389-6.184C35.907,24.298,35,24.344,35,24.344s0,1.054,0,1.656v12c0,0.604,0,1.531,0,1.531
					s0.907-0.016,1.411-0.352l9.389-5.775c0.457-0.303,0.731-0.812,0.731-1.357C46.531,31.501,46.257,31.117,45.8,30.814z M32,0
					C14.327,0,0,14.327,0,32c0,17.674,14.327,32,32,32s32-14.326,32-32C64,14.327,49.673,0,32,0z M29,40h-9c-1.104,0-2-0.896-2-2V26
					c0-1.104,0.896-2,2-2h9v2h-9v12h9V40z M48.109,33.646l-12,7.978c-0.613,0.409-1.402,0.446-2.053,0.101
					c-0.65-0.35-1.057-1.023-1.057-1.76V33h-5v2h-2v-6h2v2h5v-6.989c0-0.736,0.406-1.412,1.057-1.759
					c0.651-0.347,1.439-0.309,2.053,0.099l12,7.978C48.666,30.698,49,31.32,49,31.987C49,32.652,48.666,33.277,48.109,33.646z"/>
			</g>
		</g>
	</g>
</g>
<g>
</g>
<g>
</g>
<g>
</g>
<g>
</g>
<g>
</g>
<g>
</g>
<g>
</g>
<g>
</g>
<g>
</g>
<g>
</g>
<g>
</g>
<g>
</g>
<g>
</g>
<g>
</g>
<g>
</g>
</svg>
