<?xml version="1.0" encoding="iso-8859-1"?>
<!-- Generator: Adobe Illustrator 16.0.0, SVG Export Plug-In . SVG Version: 6.00 Build 0)  -->
<!DOCTYPE svg PUBLIC "-//W3C//DTD SVG 1.1//EN" "http://www.w3.org/Graphics/SVG/1.1/DTD/svg11.dtd">
<svg version="1.1" id="Capa_1" xmlns="http://www.w3.org/2000/svg" xmlns:xlink="http://www.w3.org/1999/xlink" x="0px" y="0px"
	 width="949.998px" height="949.998px" viewBox="0 0 949.998 949.998" style="enable-background:new 0 0 949.998 949.998;"
	 xml:space="preserve">
<g>
	<g>
		<path d="M738.591,153.356v208.872h50.296V179.744c0-14.573-11.814-26.387-26.387-26.387L738.591,153.356L738.591,153.356z"/>
		<path d="M165.512,787.838v23.908c0,14.572,11.814,26.387,26.387,26.387h331.554l-54.625-50.297H165.512V787.838z"/>
		<path d="M652.014,77.098v76.259v208.871h60.613V153.356v-49.871c0-14.573-11.814-26.387-26.388-26.387H652.014z"/>
		<path d="M440.63,761.875l-7.672-7.064c-12.158-11.193-16.134-28.375-10.124-43.771c0.04-0.102,0.09-0.197,0.13-0.301H165.512
			H89.252v24.748c0,14.574,11.814,26.387,26.387,26.387h49.872H440.63V761.875z"/>
		<path d="M5.054,148.66h114.118c5.47,0,10.561-1.611,14.837-4.375c3.266-2.111,6.052-4.896,8.163-8.163
			c2.764-4.276,4.375-9.367,4.375-14.837V5.193c-1.034,0.767-2.018,1.613-2.939,2.535L10.405,140.931
			C8.15,143.186,6.351,145.811,5.054,148.66z"/>
		<path d="M165.512,684.777h327.949V418.823c0-31.207,25.388-56.595,56.595-56.595h75.996V153.356V77.098V64.117V51.135V26.387
			C626.052,11.814,614.237,0,599.665,0H172.51v105.784v15.501c0,0.988-0.032,1.969-0.085,2.943
			c-0.586,10.716-4.349,20.597-10.362,28.72c-3.165,4.276-6.952,8.063-11.228,11.228c-8.123,6.013-18.004,9.776-28.72,10.362
			c-0.975,0.054-1.955,0.085-2.943,0.085h-15.501H2.677v483.768c0,14.572,11.814,26.387,26.387,26.387H63.29h12.982h12.981H165.512z
			"/>
		<path d="M933.436,711.658h-59.493V420.524c0-17.857-14.476-32.333-32.333-32.333h-52.724H738.59h-12.982h-12.98h-60.613h-12.982
			h-12.979h-75.996c-16.918,0-30.632,13.714-30.632,30.632v265.953v12.982v12.98v0.918h-59.493
			c-12.624,0-18.674,15.504-9.387,24.053l28.417,26.164l14.098,12.982l14.1,12.98l54.625,50.297L673.42,940.92
			c6.573,6.053,14.919,9.078,23.264,9.078s16.691-3.025,23.264-9.078l222.875-205.211
			C952.109,727.16,946.06,711.658,933.436,711.658z"/>
	</g>
</g>
<g>
</g>
<g>
</g>
<g>
</g>
<g>
</g>
<g>
</g>
<g>
</g>
<g>
</g>
<g>
</g>
<g>
</g>
<g>
</g>
<g>
</g>
<g>
</g>
<g>
</g>
<g>
</g>
<g>
</g>
</svg>
