<?xml version="1.0" encoding="iso-8859-1"?>
<!-- Generator: Adobe Illustrator 16.0.0, SVG Export Plug-In . SVG Version: 6.00 Build 0)  -->
<!DOCTYPE svg PUBLIC "-//W3C//DTD SVG 1.1//EN" "http://www.w3.org/Graphics/SVG/1.1/DTD/svg11.dtd">
<svg version="1.1" id="Capa_1" xmlns="http://www.w3.org/2000/svg" xmlns:xlink="http://www.w3.org/1999/xlink" x="0px" y="0px"
	 width="47.001px" height="47.001px" viewBox="0 0 47.001 47.001" style="enable-background:new 0 0 47.001 47.001;"
	 xml:space="preserve">
<g>
	<g>
		<path d="M46.631,42.09l-8.77-8.771c-0.291-0.293-0.441-0.857-0.332-1.258l0.582-2.108c0.109-0.397-0.041-0.966-0.334-1.259
			l-2.254-2.254c3.182-6.887,1.955-15.307-3.724-20.982c-7.273-7.276-19.066-7.276-26.341,0c-7.276,7.276-7.276,19.068,0,26.344
			c5.677,5.676,14.097,6.904,20.982,3.723l0,0l0.969,0.967c0.292,0.293,0.857,0.441,1.258,0.332l2.107-0.583
			c0.398-0.11,0.965,0.038,1.257,0.331l0.653,0.654c0.293,0.293,0.853,0.424,1.246,0.291l0.172-0.059
			c0.393-0.133,0.953-0.001,1.246,0.291l0.353,0.354c0.292,0.293,0.36,0.825,0.151,1.183l-0.029,0.052
			c-0.209,0.355-0.172,0.855,0.082,1.109c0.253,0.255,0.781,0.354,1.173,0.222l0.174-0.062c0.392-0.133,0.952-0.002,1.245,0.291
			l0.357,0.355c0.293,0.293,0.36,0.825,0.152,1.184l-0.031,0.053c-0.209,0.356-0.14,0.891,0.152,1.183l2.962,2.961
			c0.292,0.292,0.859,0.443,1.257,0.333l2.108-0.584c0.397-0.109,0.815-0.525,0.925-0.926l0.583-2.105
			C47.072,42.948,46.924,42.383,46.631,42.09z M28.562,28.564c-5.485,5.483-14.38,5.483-19.866-0.002
			C3.211,23.075,3.212,14.181,8.698,8.694C14.183,3.21,23.077,3.21,28.562,8.693C34.05,14.182,34.05,23.077,28.562,28.564z"/>
		<path d="M12.615,20.805c-1.662-6.474-6.551-4.335-4.785,1.173c2.096,6.528,9.455,9.783,15.903,7.452
			C19.597,28.77,13.739,25.184,12.615,20.805z"/>
	</g>
</g>
<g>
</g>
<g>
</g>
<g>
</g>
<g>
</g>
<g>
</g>
<g>
</g>
<g>
</g>
<g>
</g>
<g>
</g>
<g>
</g>
<g>
</g>
<g>
</g>
<g>
</g>
<g>
</g>
<g>
</g>
</svg>
