<?xml version="1.0" encoding="iso-8859-1"?>
<!-- Generator: Adobe Illustrator 16.0.0, SVG Export Plug-In . SVG Version: 6.00 Build 0)  -->
<!DOCTYPE svg PUBLIC "-//W3C//DTD SVG 1.1//EN" "http://www.w3.org/Graphics/SVG/1.1/DTD/svg11.dtd">
<svg version="1.1" id="Capa_1" xmlns="http://www.w3.org/2000/svg" xmlns:xlink="http://www.w3.org/1999/xlink" x="0px" y="0px"
	 width="933.819px" height="933.819px" viewBox="0 0 933.819 933.819" style="enable-background:new 0 0 933.819 933.819;"
	 xml:space="preserve">
<g>
	<g>
		<path d="M181.349,660.142c-7.2,0.8-14.4,1.2-21.6,1.2c-20.1,0-42.4-3.7-62.5-10.3l47.6,210.1c4.1,18.2,20.3,31.2,39,31.2h551.2
			c18.7,0,34.9-12.9,39-31.2l46.6-205.8c-15.3,3.9-30.899,6-46.3,6c-12.2,0-24.3-1.2-36.2-3.5l-35,154.5h-56.1l31.8-158.1
			c-13.7,3.8-27.899,6.199-42.2,6.899l-30.399,151.2h-61.3l7.199-166.4c-1.699-0.699-3.3-1.399-5-2.199
			c-11.399,5.3-23.3,9.399-35.5,12.3l-6.8,156.3h-84.8l-6.8-158.8c-6.7-2-13.3-4.3-19.7-7c-6.6,2.8-13.4,5.1-20.3,7.1l6.8,158.601
			h-67.2l-31.1-154.9c-14.4-2.9-28.5-7.5-41.8-13.7c-0.5,0.2-1.1,0.5-1.6,0.7l33.6,168h-56.1L181.349,660.142z"/>
		<path d="M89.249,615.542c3.6,1.7,7.2,3.3,10.9,4.7c18.2,6.899,40.1,11.1,59.6,11.1c5,0,10-0.2,15-0.7
			c20.5-1.899,39.9-7.7,57.4-16.5c2.6-1.3,5.2-2.7,7.7-4.1c11,6.3,22.8,11.399,35.3,15c14.2,4.1,29.2,6.399,44.801,6.399
			c18.199,0,35.6-3,51.899-8.6c7.5-2.6,14.7-5.7,21.601-9.2c5.899,3.101,12,5.7,18.3,8.101c17.2,6.3,35.8,9.8,55.2,9.8
			c16,0,31.399-2.3,45.899-6.7c12-3.6,23.5-8.5,34.2-14.7c2.1,1.2,4.2,2.3,6.3,3.5c22.101,11.4,47.101,17.9,73.7,17.9
			c5.2,0,10.4-0.3,15.5-0.8c15-1.4,29.4-5,42.9-10.2c5.199-2,10.3-4.3,15.199-6.9c13.601,7,28.4,12.2,44,15.101
			c9.601,1.8,19.5,2.699,29.601,2.699c18.3,0,36.6-3.399,54-9.699c45.3-16.4,84.2-52.301,98-98.801c8-27,9.1-52.699,5.899-80.399
			c-6.6-57.3-22.8-113.9-48.199-165.7c-38.101-77.6-98.601-142.1-175.801-181.7c-118.199-60.7-270.3-67.4-397.6-32.7
			c-86.5,23.6-163.8,72.6-218,144.4c-39.8,52.7-66.4,114.8-81.1,179.1c-4.5,19.601-7.9,39.5-10.1,59.5c-4,37,0.3,77.4,21,109
			C38.649,579.441,62.049,602.242,89.249,615.542z M561.148,211.142l76.7-55.5c9-6.5,21.5-4.5,27.9,4.5c6.5,8.9,4.5,21.5-4.5,27.9
			l-76.7,55.5c-3.5,2.6-7.6,3.8-11.7,3.8c-6.2,0-12.3-2.9-16.2-8.3C550.148,230.142,552.249,217.642,561.148,211.142z
			 M492.249,273.142c6.5,8.9,4.5,21.5-4.5,27.9l-76.7,55.5c-3.5,2.6-7.6,3.8-11.7,3.8c-6.2,0-12.3-2.9-16.2-8.3
			c-6.5-8.9-4.5-21.5,4.5-27.9l76.7-55.5C473.249,262.242,485.749,264.242,492.249,273.142z M373.449,211.142l76.699-55.5
			c8.9-6.5,21.5-4.5,27.9,4.5c6.5,8.9,4.5,21.5-4.5,27.9l-76.7,55.5c-3.5,2.6-7.6,3.8-11.7,3.8c-6.199,0-12.3-2.9-16.199-8.3
			C362.549,230.142,364.549,217.642,373.449,211.142z M199.849,324.142l76.7-55.5c9-6.5,21.5-4.5,27.9,4.5
			c6.399,9,4.5,21.5-4.5,27.9l-76.7,55.5c-3.5,2.6-7.6,3.8-11.7,3.8c-6.2,0-12.3-2.9-16.2-8.3
			C188.949,343.142,190.949,330.642,199.849,324.142z"/>
	</g>
	<path d="M467.049,42.942c-4,0-7.9,0-11.8,0.1l32.6,0.2C480.949,43.042,474.049,42.942,467.049,42.942z"/>
</g>
<g>
</g>
<g>
</g>
<g>
</g>
<g>
</g>
<g>
</g>
<g>
</g>
<g>
</g>
<g>
</g>
<g>
</g>
<g>
</g>
<g>
</g>
<g>
</g>
<g>
</g>
<g>
</g>
<g>
</g>
</svg>
