<?xml version="1.0" encoding="iso-8859-1"?>
<!-- Generator: Adobe Illustrator 16.0.0, SVG Export Plug-In . SVG Version: 6.00 Build 0)  -->
<!DOCTYPE svg PUBLIC "-//W3C//DTD SVG 1.1//EN" "http://www.w3.org/Graphics/SVG/1.1/DTD/svg11.dtd">
<svg version="1.1" id="Capa_1" xmlns="http://www.w3.org/2000/svg" xmlns:xlink="http://www.w3.org/1999/xlink" x="0px" y="0px"
	 width="47.661px" height="47.661px" viewBox="0 0 47.661 47.661" style="enable-background:new 0 0 47.661 47.661;"
	 xml:space="preserve">
<g>
	<g>
		<path d="M44.986,10.753c-1.781-3.384-4.379-5.967-7.786-7.75c-3.412-1.782-8.062-2.673-13.951-2.673
			c-7.259,0-12.948,1.989-17.067,5.967C2.061,10.275,0,15.481,0,21.914c0,4.521,1.028,8.453,3.081,11.799
			c2.051,3.345,4.643,5.786,7.768,7.322c3.128,1.537,7.414,2.307,12.866,2.307c2.438,0,4.65-0.14,6.648-0.411v-4.168
			c0-1.584,0.904-2.964,2.223-3.646v-0.853c0-1.358,0.377-2.629,1.021-3.724l-2.377-0.22c-0.982,1.24-1.898,2.104-2.748,2.596
			c-1.397,0.775-2.868,1.163-4.42,1.163c-2.455,0-4.442-0.892-5.967-2.674c-1.084-1.239-1.769-3.125-2.055-5.657h31.621v-1.782
			C47.662,18.542,46.77,14.138,44.986,10.753z M16.081,18.195c0.257-2.455,0.865-4.302,1.82-5.542c1.5-1.988,3.5-2.983,6.006-2.983
			c2.171,0,3.923,0.658,5.251,1.976c1.331,1.317,2.15,3.499,2.461,6.549H16.081z"/>
		<path d="M45.43,36.805h-0.267v-2.541c0-2.877-2.34-5.218-5.216-5.218s-5.217,2.341-5.217,5.218v2.541h-0.267
			c-1.073,0-1.957,0.881-1.957,1.957v6.61c0,1.076,0.884,1.958,1.957,1.958h10.964c1.077,0,1.961-0.882,1.961-1.958v-6.61
			C47.389,37.686,46.506,36.805,45.43,36.805z M42.553,36.805h-5.207v-2.541c0-1.438,1.166-2.608,2.603-2.608
			c1.438,0,2.604,1.17,2.604,2.608V36.805z"/>
	</g>
</g>
<g>
</g>
<g>
</g>
<g>
</g>
<g>
</g>
<g>
</g>
<g>
</g>
<g>
</g>
<g>
</g>
<g>
</g>
<g>
</g>
<g>
</g>
<g>
</g>
<g>
</g>
<g>
</g>
<g>
</g>
</svg>
