<?xml version="1.0" encoding="iso-8859-1"?>
<!-- Generator: Adobe Illustrator 16.0.0, SVG Export Plug-In . SVG Version: 6.00 Build 0)  -->
<!DOCTYPE svg PUBLIC "-//W3C//DTD SVG 1.1//EN" "http://www.w3.org/Graphics/SVG/1.1/DTD/svg11.dtd">
<svg version="1.1" id="Capa_1" xmlns="http://www.w3.org/2000/svg" xmlns:xlink="http://www.w3.org/1999/xlink" x="0px" y="0px"
	 width="64px" height="64px" viewBox="0 0 64 64" style="enable-background:new 0 0 64 64;" xml:space="preserve">
<g>
	<g>
		<g id="circle_copy_3">
			<g>
				<path d="M29.123,35.758h6.042l0.942-6.55h-6.042L29.123,35.758z M32,0C14.327,0,0,14.327,0,32c0,17.674,14.327,32,32,32
					s32-14.326,32-32C64,14.327,49.673,0,32,0z M43.006,29.208H38.25l-0.943,6.55h4.5v1.891H37.05l-1.327,9.363h-2.144l1.328-9.363
					h-6.041l-1.328,9.363h-2.143l1.328-9.363H22.01v-1.891h4.971l0.942-6.55H23.21v-1.89h4.97l1.328-9.322h2.143l-1.328,9.322h6.04
					l1.328-9.322h2.144l-1.328,9.322h4.499V29.208z"/>
			</g>
		</g>
	</g>
</g>
<g>
</g>
<g>
</g>
<g>
</g>
<g>
</g>
<g>
</g>
<g>
</g>
<g>
</g>
<g>
</g>
<g>
</g>
<g>
</g>
<g>
</g>
<g>
</g>
<g>
</g>
<g>
</g>
<g>
</g>
</svg>
