<?xml version="1.0" encoding="iso-8859-1"?>
<!-- Generator: Adobe Illustrator 16.0.0, SVG Export Plug-In . SVG Version: 6.00 Build 0)  -->
<!DOCTYPE svg PUBLIC "-//W3C//DTD SVG 1.1//EN" "http://www.w3.org/Graphics/SVG/1.1/DTD/svg11.dtd">
<svg version="1.1" id="Capa_1" xmlns="http://www.w3.org/2000/svg" xmlns:xlink="http://www.w3.org/1999/xlink" x="0px" y="0px"
	 width="49.113px" height="49.113px" viewBox="0 0 49.113 49.113" style="enable-background:new 0 0 49.113 49.113;"
	 xml:space="preserve">
<g>
	<g>
		<g id="key">
			<g>
				<path d="M13.347,17.563c-3.859,0-6.987,3.132-6.987,6.99c0,3.86,3.127,6.991,6.987,6.991c3.862,0,6.989-3.131,6.989-6.991
					C20.337,20.695,17.21,17.563,13.347,17.563z M13.347,28.226c-2.021,0-3.667-1.646-3.667-3.67c0-2.023,1.646-3.669,3.667-3.669
					c2.024,0,3.67,1.646,3.67,3.669C17.017,26.579,15.373,28.226,13.347,28.226z M49.096,22.217
					c-0.004-1.831-1.488-3.317-3.32-3.317c0,0-16.568,0-20.338,0c-2.152-4.639-6.81-7.694-12.09-7.694
					C5.986,11.205,0,17.194,0,24.555c0,7.361,5.985,13.353,13.348,13.353c5.281,0,9.936-3.061,12.085-7.69h4.998
					c0,1.24,0,2.522,0,2.522c0,0.886,0.35,1.729,0.973,2.351c0.623,0.625,1.469,0.978,2.35,0.978h2.943
					c0.275,0,0.547-0.035,0.804-0.099c0.257,0.062,0.524,0.099,0.8,0.099h2.944c0.272,0,0.546-0.035,0.803-0.099
					c0.259,0.062,0.522,0.099,0.8,0.099h2.943c0.88,0,1.727-0.353,2.35-0.978c0.625-0.621,0.973-1.469,0.973-2.351L49.096,22.217z
					 M42.846,32.744v-4.355h-1.604v4.355h-2.944v-4.355h-1.604v4.355h-2.942l0.004-5.853H23.091
					c-1.053,4.408-5.011,7.691-9.743,7.691c-5.536,0-10.026-4.49-10.026-10.031c0-5.535,4.49-10.029,10.026-10.029
					c4.732,0,8.69,3.282,9.743,7.694h22.685l0.016,10.524L42.846,32.744L42.846,32.744z"/>
			</g>
		</g>
	</g>
</g>
<g>
</g>
<g>
</g>
<g>
</g>
<g>
</g>
<g>
</g>
<g>
</g>
<g>
</g>
<g>
</g>
<g>
</g>
<g>
</g>
<g>
</g>
<g>
</g>
<g>
</g>
<g>
</g>
<g>
</g>
</svg>
