<?xml version="1.0" encoding="iso-8859-1"?>
<!-- Generator: Adobe Illustrator 16.0.0, SVG Export Plug-In . SVG Version: 6.00 Build 0)  -->
<!DOCTYPE svg PUBLIC "-//W3C//DTD SVG 1.1//EN" "http://www.w3.org/Graphics/SVG/1.1/DTD/svg11.dtd">
<svg version="1.1" id="Capa_1" xmlns="http://www.w3.org/2000/svg" xmlns:xlink="http://www.w3.org/1999/xlink" x="0px" y="0px"
	 width="47.001px" height="47.001px" viewBox="0 0 47.001 47.001" style="enable-background:new 0 0 47.001 47.001;"
	 xml:space="preserve">
<g>
	<g>
		<path d="M40.42,11.004h-6.814c0-3.395-2.847-6.155-6.347-6.155h-7.52c-3.5,0-6.346,2.76-6.346,6.155H6.58
			C2.888,11.474,0,14.613,0,18.427v15.042c0,3.814,2.888,6.953,6.58,7.424h1.88v0.096v1.164h3.802v-1.164h22.474v1.164h3.805v-1.164
			v-0.096h1.88c3.692-0.471,6.58-3.609,6.58-7.424V18.427C47,14.613,44.111,11.474,40.42,11.004z M19.74,8.138h7.52
			c1.686,0,3.055,1.286,3.055,2.866H16.685C16.685,9.423,18.055,8.138,19.74,8.138z M32.312,34.57c0,1.275-1.043,2.32-2.318,2.32
			H17.006c-1.275,0-2.319-1.045-2.319-2.32v-7.828c0-1.277,1.044-2.32,2.319-2.32h0.314v-3.009c0-3.409,2.771-6.185,6.177-6.185
			c3.407,0,6.18,2.776,6.18,6.185v3.009h0.316c1.274,0,2.319,1.043,2.319,2.32V34.57L32.312,34.57z"/>
		<path d="M23.498,18.321c-1.7,0-3.084,1.387-3.084,3.092v3.008h6.172v-3.008C26.586,19.708,25.199,18.321,23.498,18.321z"/>
	</g>
</g>
<g>
</g>
<g>
</g>
<g>
</g>
<g>
</g>
<g>
</g>
<g>
</g>
<g>
</g>
<g>
</g>
<g>
</g>
<g>
</g>
<g>
</g>
<g>
</g>
<g>
</g>
<g>
</g>
<g>
</g>
</svg>
