<?xml version="1.0" encoding="iso-8859-1"?>
<!-- Generator: Adobe Illustrator 16.0.0, SVG Export Plug-In . SVG Version: 6.00 Build 0)  -->
<!DOCTYPE svg PUBLIC "-//W3C//DTD SVG 1.1//EN" "http://www.w3.org/Graphics/SVG/1.1/DTD/svg11.dtd">
<svg version="1.1" id="Capa_1" xmlns="http://www.w3.org/2000/svg" xmlns:xlink="http://www.w3.org/1999/xlink" x="0px" y="0px"
	 width="47px" height="47px" viewBox="0 0 47 47" style="enable-background:new 0 0 47 47;" xml:space="preserve">
<g>
	<path d="M44.827,39.188L22.111,16.474c-0.039-0.038-0.092-0.049-0.135-0.086c4.501-5.504,6.061-11.477,3.411-14.121
		c-2.03-2.031-6.03-1.541-10.263,0.81c-0.211-0.278-0.412-0.56-0.663-0.813c-3.018-3.018-7.913-3.019-10.931,0
		c-3.017,3.016-3.018,7.911,0,10.926c0.251,0.254,0.534,0.456,0.815,0.666C1.993,18.09,1.502,22.088,3.533,24.12
		c2.647,2.65,8.618,1.087,14.122-3.41c0.037,0.042,0.047,0.098,0.086,0.132L30.378,33.48l-5.942,5.942
		c-0.905,0.906-0.904,2.374-0.003,3.28c0.906,0.905,2.375,0.902,3.281,0.001l5.946-5.944l2.047,2.046l-4.232,4.236
		c-0.91,0.908-0.905,2.375,0,3.278c0.906,0.906,2.375,0.906,3.278-0.001l4.235-4.235l1.468,1.469c1.209,1.208,3.167,1.207,4.372,0
		C46.032,42.352,46.036,40.396,44.827,39.188z M12.271,19.756c-1.203,1.203-3.16,1.204-4.368-0.003
		c-1.207-1.207-1.208-3.163-0.002-4.369c1.209-1.21,3.165-1.208,4.372-0.001C13.479,16.591,13.48,18.547,12.271,19.756z
		 M12.275,11.009c-1.208,1.208-3.166,1.208-4.372,0.001c-1.207-1.21-1.207-3.167,0-4.373c1.208-1.208,3.166-1.207,4.374-0.001
		C13.483,7.845,13.483,9.803,12.275,11.009z M21.02,11.007c-1.208,1.21-3.165,1.21-4.371,0.002
		c-1.209-1.211-1.208-3.167,0.001-4.373c1.205-1.207,3.163-1.208,4.369,0C22.228,7.849,22.227,9.803,21.02,11.007z"/>
</g>
<g>
</g>
<g>
</g>
<g>
</g>
<g>
</g>
<g>
</g>
<g>
</g>
<g>
</g>
<g>
</g>
<g>
</g>
<g>
</g>
<g>
</g>
<g>
</g>
<g>
</g>
<g>
</g>
<g>
</g>
</svg>
