<?xml version="1.0" encoding="iso-8859-1"?>
<!-- Generator: Adobe Illustrator 16.0.0, SVG Export Plug-In . SVG Version: 6.00 Build 0)  -->
<!DOCTYPE svg PUBLIC "-//W3C//DTD SVG 1.1//EN" "http://www.w3.org/Graphics/SVG/1.1/DTD/svg11.dtd">
<svg version="1.1" id="Capa_1" xmlns="http://www.w3.org/2000/svg" xmlns:xlink="http://www.w3.org/1999/xlink" x="0px" y="0px"
	 width="47px" height="47px" viewBox="0 0 47 47" style="enable-background:new 0 0 47 47;" xml:space="preserve">
<g>
	<g>
		<path d="M40.854,5.215H6.147C2.766,5.215,0,7.981,0,11.363v16.899c0,3.381,2.766,6.147,6.147,6.147h14.894v4.409h-6.415
			c-0.772,0-1.402,0.632-1.402,1.4v0.164c0,0.771,0.63,1.402,1.402,1.402h17.748c0.772,0,1.401-0.631,1.401-1.402v-0.164
			c0-0.77-0.629-1.4-1.401-1.4h-6.415v-4.409h14.895c3.381,0,6.146-2.767,6.146-6.147V11.363C47,7.981,44.234,5.215,40.854,5.215z
			 M39.01,21.292c0,2.097-1.715,3.812-3.811,3.812H11.801c-2.095,0-3.811-1.715-3.811-3.812v-2.959c0-2.094,1.715-3.811,3.811-3.811
			h23.398c2.095,0,3.811,1.717,3.811,3.811V21.292z"/>
		<path d="M17.327,19.779l-0.495-1.517l-1,0.475c-0.104,0.049-0.26,0.126-0.459,0.237c-0.057,0.034-0.178,0.095-0.361,0.186
			c0.091-0.334,0.152-0.633,0.181-0.898l0.128-1.085h-1.586l0.141,1.085c0.026,0.197,0.084,0.497,0.173,0.898
			c-0.417-0.247-0.679-0.396-0.783-0.444l-1-0.454l-0.517,1.517l1.113,0.18c0.359,0.067,0.65,0.11,0.872,0.129
			c-0.217,0.159-0.436,0.35-0.664,0.575l-0.805,0.812l1.331,0.972l0.539-0.972c0.061-0.1,0.187-0.371,0.375-0.812
			c0.172,0.402,0.295,0.673,0.372,0.812l0.531,0.972l1.295-0.972l-0.748-0.812c-0.159-0.173-0.369-0.363-0.64-0.575
			c0.399-0.015,0.698-0.041,0.9-0.08L17.327,19.779z"/>
		<path d="M26.288,19.779l-0.495-1.517l-0.998,0.475c-0.105,0.049-0.26,0.126-0.46,0.237c-0.058,0.034-0.181,0.095-0.362,0.186
			c0.091-0.334,0.151-0.633,0.181-0.898l0.128-1.085h-1.587l0.143,1.085c0.024,0.197,0.081,0.497,0.172,0.898
			c-0.416-0.247-0.677-0.396-0.783-0.444l-0.999-0.454l-0.517,1.517l1.113,0.18c0.358,0.067,0.651,0.11,0.87,0.129
			c-0.217,0.159-0.436,0.35-0.662,0.575l-0.805,0.812l1.33,0.972l0.54-0.972c0.061-0.1,0.185-0.371,0.374-0.812
			c0.173,0.402,0.295,0.673,0.373,0.812l0.531,0.972l1.293-0.972l-0.747-0.812c-0.157-0.173-0.371-0.363-0.64-0.575
			c0.398-0.015,0.697-0.041,0.9-0.08L26.288,19.779z"/>
		<path d="M33.755,18.737c-0.104,0.049-0.26,0.126-0.459,0.237c-0.058,0.034-0.178,0.095-0.36,0.186
			c0.09-0.334,0.149-0.633,0.18-0.898l0.128-1.085h-1.586l0.142,1.085c0.024,0.197,0.082,0.497,0.174,0.898
			c-0.418-0.247-0.68-0.396-0.783-0.444l-1-0.454l-0.518,1.517l1.113,0.18c0.359,0.067,0.65,0.11,0.871,0.129
			c-0.217,0.159-0.436,0.35-0.663,0.575l-0.806,0.812l1.332,0.972l0.539-0.972c0.061-0.1,0.187-0.371,0.373-0.812
			c0.174,0.402,0.297,0.673,0.373,0.812l0.531,0.972l1.295-0.972l-0.747-0.812c-0.159-0.173-0.37-0.363-0.641-0.575
			c0.399-0.015,0.698-0.041,0.899-0.08l1.106-0.23l-0.495-1.517L33.755,18.737z"/>
	</g>
</g>
<g>
</g>
<g>
</g>
<g>
</g>
<g>
</g>
<g>
</g>
<g>
</g>
<g>
</g>
<g>
</g>
<g>
</g>
<g>
</g>
<g>
</g>
<g>
</g>
<g>
</g>
<g>
</g>
<g>
</g>
</svg>
