<?xml version="1.0" encoding="iso-8859-1"?>
<!-- Generator: Adobe Illustrator 16.0.0, SVG Export Plug-In . SVG Version: 6.00 Build 0)  -->
<!DOCTYPE svg PUBLIC "-//W3C//DTD SVG 1.1//EN" "http://www.w3.org/Graphics/SVG/1.1/DTD/svg11.dtd">
<svg version="1.1" id="Capa_1" xmlns="http://www.w3.org/2000/svg" xmlns:xlink="http://www.w3.org/1999/xlink" x="0px" y="0px"
	 width="47px" height="47px" viewBox="0 0 47 47" style="enable-background:new 0 0 47 47;" xml:space="preserve">
<g>
	<path d="M40.285,0H6.715C3.021,0,0,3.021,0,6.714v4.029h4.701V8.729c0-2.216,1.812-4.029,4.027-4.029h29.543
		c2.215,0,4.026,1.813,4.026,4.029v8.057H15.823H4.701H0v23.5C0,43.979,3.021,47,6.715,47h33.57C43.979,47,47,43.979,47,40.286
		V6.714C47,3.021,43.979,0,40.285,0z M15.405,40.675H8.05v-7.358h7.355V40.675z M15.405,29.516H8.05v-7.358h7.355V29.516z
		 M27.18,40.675h-7.358v-7.358h7.358V40.675z M27.18,29.516h-7.358v-7.358h7.358V29.516z M38.951,40.675h-7.355v-7.358h7.355V40.675
		z M38.951,29.516h-7.355v-7.358h7.355V29.516z"/>
</g>
<g>
</g>
<g>
</g>
<g>
</g>
<g>
</g>
<g>
</g>
<g>
</g>
<g>
</g>
<g>
</g>
<g>
</g>
<g>
</g>
<g>
</g>
<g>
</g>
<g>
</g>
<g>
</g>
<g>
</g>
</svg>
