<?xml version="1.0" encoding="iso-8859-1"?>
<!-- Generator: Adobe Illustrator 16.0.0, SVG Export Plug-In . SVG Version: 6.00 Build 0)  -->
<!DOCTYPE svg PUBLIC "-//W3C//DTD SVG 1.1//EN" "http://www.w3.org/Graphics/SVG/1.1/DTD/svg11.dtd">
<svg version="1.1" id="Capa_1" xmlns="http://www.w3.org/2000/svg" xmlns:xlink="http://www.w3.org/1999/xlink" x="0px" y="0px"
	 width="47.001px" height="47px" viewBox="0 0 47.001 47" style="enable-background:new 0 0 47.001 47;" xml:space="preserve">
<g>
	<g>
		<path d="M39.447,8.393H7.553C3.388,8.393,0,11.781,0,15.948v15.105c0,4.166,3.388,7.555,7.553,7.555h31.895
			c4.165,0,7.553-3.389,7.553-7.555V15.947C47,11.78,43.611,8.393,39.447,8.393z M20.058,32.381H6.63v-9.867h2.126v-3.305
			c0-2.53,2.057-4.59,4.583-4.59c2.53,0,4.585,2.06,4.585,4.59v3.305h2.134V32.381z M41.965,31.053c0,1.389-1.131,2.52-2.518,2.52
			H23.314c1.545-2.355,3.305-5.873,3.954-8.395h14.696L41.965,31.053L41.965,31.053z M41.965,21.822H27.268
			c-0.646-2.521-2.406-6.038-3.951-8.396h16.131c1.387,0,2.518,1.131,2.518,2.521L41.965,21.822L41.965,21.822z"/>
		<path d="M13.339,16.914c-1.263,0-2.286,1.021-2.286,2.295v3.305h4.579v-3.305C15.632,17.936,14.611,16.914,13.339,16.914z"/>
	</g>
</g>
<g>
</g>
<g>
</g>
<g>
</g>
<g>
</g>
<g>
</g>
<g>
</g>
<g>
</g>
<g>
</g>
<g>
</g>
<g>
</g>
<g>
</g>
<g>
</g>
<g>
</g>
<g>
</g>
<g>
</g>
</svg>
