<?xml version="1.0" encoding="iso-8859-1"?>
<!-- Generator: Adobe Illustrator 16.0.0, SVG Export Plug-In . SVG Version: 6.00 Build 0)  -->
<!DOCTYPE svg PUBLIC "-//W3C//DTD SVG 1.1//EN" "http://www.w3.org/Graphics/SVG/1.1/DTD/svg11.dtd">
<svg version="1.1" id="Capa_1" xmlns="http://www.w3.org/2000/svg" xmlns:xlink="http://www.w3.org/1999/xlink" x="0px" y="0px"
	 width="47px" height="47px" viewBox="0 0 47 47" style="enable-background:new 0 0 47 47;" xml:space="preserve">
<g>
	<path d="M34.453,18.85v-7.892C34.453,4.915,29.539,0,23.497,0c-6.04,0-10.953,4.915-10.953,10.958v7.892H7.47V47h32.06V18.85
		H34.453z M18.026,10.958c0-3.022,2.455-5.482,5.471-5.482c3.017,0,5.471,2.459,5.471,5.482v7.892H18.026V10.958z M29.492,35.117
		c-0.066,0.011-0.134,0.016-0.199,0.016c-0.58,0-1.09-0.418-1.189-1.008l-0.846-5.07c-0.113-0.035-0.241-0.072-0.377-0.111v8.199
		l0.953,7.078c0.105,0.793-0.451,1.522-1.242,1.629c-0.065,0.01-0.131,0.014-0.195,0.014c-0.714,0-1.335-0.528-1.434-1.256
		l-0.94-6.985c-0.162,0.063-0.336,0.101-0.521,0.101s-0.359-0.037-0.521-0.101l-0.94,6.985c-0.098,0.728-0.72,1.256-1.434,1.256
		c-0.064,0-0.13-0.004-0.195-0.014c-0.792-0.106-1.349-0.836-1.242-1.629l0.953-7.078v-8.199c-0.136,0.039-0.264,0.076-0.378,0.111
		l-0.845,5.07c-0.099,0.59-0.61,1.008-1.189,1.008c-0.066,0-0.133-0.005-0.2-0.016c-0.657-0.109-1.102-0.731-0.992-1.389
		l0.965-5.793c0.009-0.055,0.04-0.096,0.056-0.146c0.024-0.08,0.048-0.157,0.088-0.23c0.038-0.069,0.086-0.127,0.137-0.188
		c0.048-0.057,0.094-0.113,0.153-0.162c0.067-0.057,0.142-0.094,0.221-0.134c0.044-0.023,0.078-0.06,0.125-0.077
		c0.092-0.033,1.815-0.65,3.686-0.916c-0.895-0.707-1.5-1.928-1.5-3.043c0-1.685,1.367-3.052,3.053-3.052
		c1.684,0,3.051,1.367,3.051,3.052c0,1.116-0.604,2.336-1.499,3.043c1.871,0.266,3.595,0.883,3.688,0.916
		c0.047,0.018,0.08,0.054,0.125,0.076c0.077,0.04,0.151,0.078,0.219,0.134c0.061,0.049,0.106,0.104,0.156,0.164
		c0.049,0.06,0.098,0.117,0.135,0.187c0.041,0.073,0.063,0.15,0.088,0.231c0.016,0.05,0.047,0.092,0.056,0.146l0.965,5.793
		C30.593,34.385,30.149,35.007,29.492,35.117z"/>
</g>
<g>
</g>
<g>
</g>
<g>
</g>
<g>
</g>
<g>
</g>
<g>
</g>
<g>
</g>
<g>
</g>
<g>
</g>
<g>
</g>
<g>
</g>
<g>
</g>
<g>
</g>
<g>
</g>
<g>
</g>
</svg>
