<?xml version="1.0" encoding="iso-8859-1"?>
<!-- Generator: Adobe Illustrator 16.0.0, SVG Export Plug-In . SVG Version: 6.00 Build 0)  -->
<!DOCTYPE svg PUBLIC "-//W3C//DTD SVG 1.1//EN" "http://www.w3.org/Graphics/SVG/1.1/DTD/svg11.dtd">
<svg version="1.1" id="Capa_1" xmlns="http://www.w3.org/2000/svg" xmlns:xlink="http://www.w3.org/1999/xlink" x="0px" y="0px"
	 width="47px" height="47px" viewBox="0 0 47 47" style="enable-background:new 0 0 47 47;" xml:space="preserve">
<g>
	<path d="M34.453,18.85v-7.892C34.453,4.915,29.539,0,23.497,0c-6.04,0-10.953,4.915-10.953,10.958v7.892H7.47V47h32.06V18.85
		H34.453z M18.026,10.958c0-3.022,2.455-5.482,5.471-5.482c3.017,0,5.471,2.459,5.471,5.482v7.892H18.026V10.958z M25.561,31.977
		c0,1.137-0.925,2.062-2.061,2.062c-1.135,0-2.061-0.925-2.061-2.062s0.925-2.062,2.061-2.062S25.561,30.84,25.561,31.977z
		 M17.113,22.092l4.441,7.691c-0.469,0.416-0.811,0.969-0.939,1.604H11.75C11.944,27.492,14.029,24.092,17.113,22.092z M23.5,43.756
		c-1.934,0-3.755-0.477-5.367-1.307l4.44-7.692c0.294,0.099,0.601,0.164,0.926,0.164c0.327,0,0.633-0.065,0.927-0.164l4.441,7.692
		C27.255,43.279,25.435,43.756,23.5,43.756z M26.384,31.387c-0.129-0.635-0.471-1.188-0.939-1.604l4.442-7.691
		c3.084,2,5.169,5.401,5.362,9.295H26.384z"/>
</g>
<g>
</g>
<g>
</g>
<g>
</g>
<g>
</g>
<g>
</g>
<g>
</g>
<g>
</g>
<g>
</g>
<g>
</g>
<g>
</g>
<g>
</g>
<g>
</g>
<g>
</g>
<g>
</g>
<g>
</g>
</svg>
