<?xml version="1.0" encoding="iso-8859-1"?>
<!-- Generator: Adobe Illustrator 16.0.0, SVG Export Plug-In . SVG Version: 6.00 Build 0)  -->
<!DOCTYPE svg PUBLIC "-//W3C//DTD SVG 1.1//EN" "http://www.w3.org/Graphics/SVG/1.1/DTD/svg11.dtd">
<svg version="1.1" id="Capa_1" xmlns="http://www.w3.org/2000/svg" xmlns:xlink="http://www.w3.org/1999/xlink" x="0px" y="0px"
	 width="58.947px" height="58.947px" viewBox="0 0 58.947 58.947" style="enable-background:new 0 0 58.947 58.947;"
	 xml:space="preserve">
<g>
	<g>
		<g id="candy">
			<g>
				<path d="M10.872,41.157c-0.007,0.004-0.014,0.006-0.021,0.011c-0.014,0.007-0.023,0.015-0.036,0.021L10.872,41.157z
					 M7.678,14.234c0.011-0.001,0.021-0.001,0.032-0.002c0.007-0.002,0.014-0.004,0.02-0.005L7.678,14.234z M58.947,28.645
					c0-1.196-0.356-2.339-0.999-3.297c0.055-0.327,0.083-0.658,0.083-0.995c0-1.163-0.333-2.294-0.967-3.267
					c-0.211-0.325-0.451-0.625-0.717-0.896c0-0.036,0-0.073,0-0.108c0-1.394-0.488-2.748-1.383-3.818
					c-0.947-1.14-2.275-1.857-3.74-2.029c-0.226-0.028-0.455-0.045-0.684-0.045c-0.783,0-1.575,0.171-2.298,0.488
					c-1.312,0.546-2.39,1.374-3.339,2.107c0,0-0.549,0.418-0.551,0.419c-0.771,0.579-1.56,1.188-2.39,1.851
					c-1.688-2.112-3.846-3.771-6.306-4.846c-2.075-0.905-4.289-1.364-6.58-1.364c-2.082,0-4.123,0.381-6.062,1.131
					c-1.984,0.768-3.772,1.885-5.312,3.319c-0.448,0.417-0.871,0.856-1.267,1.318c-0.043-0.036-0.085-0.07-0.129-0.106
					c-1.485-1.248-3.519-2.955-5.607-3.824c-0.726-0.322-1.523-0.494-2.314-0.494c-0.23,0-0.457,0.018-0.677,0.044
					c-2.924,0.338-5.128,2.849-5.128,5.85c0,0.035,0,0.071,0.001,0.106c-0.266,0.272-0.505,0.573-0.718,0.898
					C1.234,22.06,0.9,23.188,0.9,24.353c0,0.339,0.028,0.674,0.085,1.002C0.352,26.31,0,27.452,0,28.651
					c0,0.806,0.16,1.592,0.465,2.314c-0.146,0.519-0.22,1.058-0.22,1.604c0,1.162,0.331,2.287,0.959,3.257
					c0.297,0.459,0.649,0.866,1.051,1.219c0.2,1.185,0.762,2.283,1.627,3.166c1.095,1.108,2.589,1.747,4.102,1.747
					c0.995,0,1.984-0.273,2.87-0.791c1.536-0.859,2.921-1.753,4.2-2.707c0.761,1.175,1.671,2.259,2.711,3.221
					c2.168,2.006,4.812,3.401,7.647,4.035c0.001,0.001,0.004,0.001,0.006,0.001c1.151,0.257,2.334,0.386,3.517,0.386
					c3.825,0,7.598-1.354,10.616-3.819c1.494-1.22,2.756-2.669,3.731-4.276c1.438,1.126,3.028,2.172,4.813,3.173
					c0.877,0.511,1.858,0.779,2.85,0.779c1.506,0,2.994-0.629,4.089-1.726c0.886-0.889,1.454-1.998,1.651-3.192
					c0.396-0.351,0.748-0.756,1.041-1.211c0.629-0.97,0.961-2.097,0.961-3.256c0-0.55-0.074-1.085-0.219-1.601
					C58.783,30.243,58.947,29.454,58.947,28.645z M14.397,35.474c-1.543,1.256-3.194,2.34-4.928,3.312
					c-2.283,1.348-4.933-0.771-4.493-3.271c-1.887-0.719-2.562-3.104-1.41-4.738c-1.274-1.405-1.017-3.697,0.571-4.75
					c-1.037-1.641-0.33-3.923,1.5-4.615c-0.891-1.879,0.301-4.205,2.398-4.441c0.534-0.068,1.089,0.022,1.58,0.25
					c2.124,0.872,4.447,3.049,5.839,4.163C12.918,25.623,12.512,30.901,14.397,35.474z M42.688,31.942L42.688,31.942
					c0,0.004,0,0.007-0.002,0.009c-1.383,7.646-9.104,12.754-16.671,11.075c-4.82-1.077-8.776-4.75-10.246-9.461
					c-1.574-5.045-0.047-10.658,3.812-14.253c4-3.729,9.962-4.762,14.98-2.576c4.998,2.181,8.354,7.279,8.354,12.735
					C42.919,30.315,42.832,31.14,42.688,31.942z M53.954,35.515c0.465,2.498-2.228,4.608-4.492,3.271
					c-1.985-1.112-3.874-2.375-5.599-3.869c1.572-4.271,1.222-9.073-0.977-13.061c1.026-0.834,2.066-1.652,3.125-2.446
					c1.032-0.775,2.1-1.695,3.303-2.19c0.49-0.227,1.045-0.318,1.578-0.25c2.096,0.235,3.293,2.562,2.398,4.44
					c1.829,0.692,2.54,2.977,1.5,4.615c0.839,0.558,1.396,1.52,1.396,2.621c0,0.824-0.318,1.568-0.826,2.129
					C56.516,32.407,55.84,34.798,53.954,35.515z M51.201,14.227c0.009,0.001,0.017,0.005,0.023,0.006
					c0.01,0.001,0.018,0.001,0.023,0.002L51.201,14.227z M32.09,19.339c-0.502,0-0.906,0.407-0.906,0.909s0.404,0.909,0.906,0.909
					c3.016,0,5.453,2.439,5.455,5.453v0.004c0,0.501,0.408,0.909,0.909,0.909c0.502,0,0.909-0.408,0.909-0.909V26.61
					C39.361,22.596,36.105,19.339,32.09,19.339z"/>
			</g>
		</g>
	</g>
</g>
<g>
</g>
<g>
</g>
<g>
</g>
<g>
</g>
<g>
</g>
<g>
</g>
<g>
</g>
<g>
</g>
<g>
</g>
<g>
</g>
<g>
</g>
<g>
</g>
<g>
</g>
<g>
</g>
<g>
</g>
</svg>
