<?xml version="1.0" encoding="iso-8859-1"?>
<!-- Generator: Adobe Illustrator 16.0.0, SVG Export Plug-In . SVG Version: 6.00 Build 0)  -->
<!DOCTYPE svg PUBLIC "-//W3C//DTD SVG 1.1//EN" "http://www.w3.org/Graphics/SVG/1.1/DTD/svg11.dtd">
<svg version="1.1" id="Capa_1" xmlns="http://www.w3.org/2000/svg" xmlns:xlink="http://www.w3.org/1999/xlink" x="0px" y="0px"
	 width="63.253px" height="63.252px" viewBox="0 0 63.253 63.252" style="enable-background:new 0 0 63.253 63.252;"
	 xml:space="preserve">
<g>
	<g>
		<g id="straw_hat">
			<g>
				<path d="M60.771,40.58c-0.957-0.535-2.226-1.006-3.875-1.44c-0.492-5.586-1.637-10.811-3.408-15.556
					c-1.471-3.938-3.062-6.688-4.135-8.299c-0.791-1.183-2.055-2.129-3.653-2.735c-1.32-0.501-2.839-0.765-4.396-0.765
					c-1.594,0-3.125,0.276-4.433,0.799c-1.097,0.438-2.959,0.698-5.245,0.731c-2.286-0.033-4.147-0.293-5.244-0.732
					c-1.307-0.523-2.839-0.799-4.431-0.799c-1.557,0-3.076,0.264-4.396,0.765c-1.601,0.606-2.864,1.553-3.653,2.736
					c-1.075,1.611-2.666,4.359-4.136,8.298c-1.772,4.745-2.915,9.971-3.407,15.555c-1.651,0.437-2.921,0.907-3.878,1.441
					C0.43,41.723,0,43.139,0,44.125v0.001C0,44.885,0.26,46,1.492,47.01c0.587,0.48,1.356,0.905,2.35,1.301
					c1.631,0.646,3.902,1.215,6.75,1.692c5.641,0.945,13.112,1.466,21.035,1.466c7.924,0,15.395-0.521,21.034-1.466
					c2.851-0.479,5.12-1.048,6.75-1.692c0.995-0.396,1.764-0.819,2.351-1.303c1.232-1.009,1.491-2.123,1.491-2.883
					C63.253,43.139,62.822,41.725,60.771,40.58z M54.583,41.11c0.049,0.783,0.093,1.574,0.115,2.395c0,0-3.772,1.688-20.554,1.978
					v0.042c-0.871,0-1.703-0.006-2.518-0.012c-0.815,0.006-1.646,0.012-2.514,0.01v-0.043c-16.784-0.288-20.555-1.976-20.555-1.976
					c0.022-0.819,0.065-1.61,0.114-2.395c0.051-0.822,0.118-1.619,0.195-2.4c2.039,0.476,12.994,2.92,22.495,2.92
					c9.058,0,19.631-2.045,23.041-2.757C54.471,39.602,54.536,40.344,54.583,41.11z M15.944,16.646
					c1.066-1.599,3.551-2.409,6.008-2.409c1.241,0,2.477,0.207,3.52,0.624c1.75,0.7,4.28,0.883,6.156,0.908
					c1.875-0.025,4.406-0.208,6.155-0.907c1.042-0.417,2.279-0.624,3.521-0.624c2.457,0,4.94,0.811,6.008,2.409
					c1.35,2.023,5.338,8.623,6.83,19.946c-3.664,0.756-13.943,2.702-22.781,2.702c-9.148,0-19.641-2.266-22.229-2.858
					C10.639,25.207,14.6,18.661,15.944,16.646z M31.627,49.016c-16.112,0-29.173-2.19-29.174-4.892c0-0.977,1.714-1.886,4.655-2.647
					c-0.037,0.66-0.075,1.32-0.093,2.005l-0.018,0.639l0.749,0.336c0.41,0.183,4.356,1.753,19.824,2.11v0.031l1.541,0.041
					c0.875,0,1.713-0.004,2.533-0.011c0.786,0.007,1.622,0.011,2.499,0.011h1.543v-0.072c15.467-0.357,19.414-1.928,19.823-2.11
					l0.749-0.336l-0.018-0.639c-0.018-0.687-0.057-1.345-0.094-2.005c2.942,0.763,4.655,1.672,4.655,2.647
					C60.8,46.826,47.74,49.016,31.627,49.016z"/>
			</g>
		</g>
	</g>
</g>
<g>
</g>
<g>
</g>
<g>
</g>
<g>
</g>
<g>
</g>
<g>
</g>
<g>
</g>
<g>
</g>
<g>
</g>
<g>
</g>
<g>
</g>
<g>
</g>
<g>
</g>
<g>
</g>
<g>
</g>
</svg>
