<?xml version="1.0" encoding="iso-8859-1"?>
<!-- Generator: Adobe Illustrator 16.0.0, SVG Export Plug-In . SVG Version: 6.00 Build 0)  -->
<!DOCTYPE svg PUBLIC "-//W3C//DTD SVG 1.1//EN" "http://www.w3.org/Graphics/SVG/1.1/DTD/svg11.dtd">
<svg version="1.1" id="Capa_1" xmlns="http://www.w3.org/2000/svg" xmlns:xlink="http://www.w3.org/1999/xlink" x="0px" y="0px"
	 width="64px" height="64px" viewBox="0 0 64 64" style="enable-background:new 0 0 64 64;" xml:space="preserve">
<g>
	<g>
		<g id="circle_46_">
			<g>
				<path d="M23,43l15,2.643v-22L23,21V43z M32,0C14.327,0,0,14.327,0,32s14.327,32,32,32s32-14.327,32-32S49.673,0,32,0z M44,41
					c0,1.104-0.896,2-2,2h-2v2.973c0,1.105-0.896,1.854-2,1.67L23,45c-1.104,0-2-0.896-2-2c0,0,0-21.568,0-23l2-2
					c1.231-1.231,4.83-1,5-1h14c1.104,0,2,0.896,2,2V41z M23.96,19.169L38,21.643c1.104,0.183,2,1.226,2,2.33V41h2V19H24.129
					L23.96,19.169z"/>
			</g>
		</g>
	</g>
</g>
<g>
</g>
<g>
</g>
<g>
</g>
<g>
</g>
<g>
</g>
<g>
</g>
<g>
</g>
<g>
</g>
<g>
</g>
<g>
</g>
<g>
</g>
<g>
</g>
<g>
</g>
<g>
</g>
<g>
</g>
</svg>
