<?xml version="1.0" encoding="iso-8859-1"?>
<!-- Generator: Adobe Illustrator 16.0.0, SVG Export Plug-In . SVG Version: 6.00 Build 0)  -->
<!DOCTYPE svg PUBLIC "-//W3C//DTD SVG 1.1//EN" "http://www.w3.org/Graphics/SVG/1.1/DTD/svg11.dtd">
<svg version="1.1" id="Capa_1" xmlns="http://www.w3.org/2000/svg" xmlns:xlink="http://www.w3.org/1999/xlink" x="0px" y="0px"
	 width="47px" height="47px" viewBox="0 0 47 47" style="enable-background:new 0 0 47 47;" xml:space="preserve">
<g>
	<path d="M46.5,41.64L35.539,30.676l1.051-3.81L31.021,21.3c0.925-7.749-0.155-13.347-3.263-17.022l-1.186-1.201l-0.275-0.255
		C21.35-1.332,15.658-0.363,12.466,2.294C9.921,4.417,8.865,6.536,8.4,8.401c-1.865,0.464-3.982,1.511-6.107,4.067
		c-2.657,3.188-3.628,8.873,0.529,13.828l1.191,1.211l0.265,0.245c3.677,3.109,9.278,4.189,17.023,3.268l4.19,4.188l3.807-1.051
		l1.839,1.836l1.709-0.575l1.521,1.516l-0.846,1.445l0.986,0.987l1.711-0.58l1.521,1.519l-0.846,1.447l4.746,4.746
		c0.396,0.396,1.162,0.602,1.703,0.451l1.843-0.508c0.541-0.15,1.104-0.714,1.255-1.255l0.51-1.845
		C47.1,42.803,46.896,42.036,46.5,41.64z M23.567,23.565c0,0-9.681,3.845-14.184-1.607c-3.499-4.243,1.996-8.938,5.019-7.558
		c-1.383-3.021,3.313-8.517,7.555-5.017C27.414,13.883,23.567,23.565,23.567,23.565z"/>
</g>
<g>
</g>
<g>
</g>
<g>
</g>
<g>
</g>
<g>
</g>
<g>
</g>
<g>
</g>
<g>
</g>
<g>
</g>
<g>
</g>
<g>
</g>
<g>
</g>
<g>
</g>
<g>
</g>
<g>
</g>
</svg>
