<?xml version="1.0" encoding="iso-8859-1"?>
<!-- Generator: Adobe Illustrator 16.0.0, SVG Export Plug-In . SVG Version: 6.00 Build 0)  -->
<!DOCTYPE svg PUBLIC "-//W3C//DTD SVG 1.1//EN" "http://www.w3.org/Graphics/SVG/1.1/DTD/svg11.dtd">
<svg version="1.1" id="Capa_1" xmlns="http://www.w3.org/2000/svg" xmlns:xlink="http://www.w3.org/1999/xlink" x="0px" y="0px"
	 width="47px" height="47px" viewBox="0 0 47 47" style="enable-background:new 0 0 47 47;" xml:space="preserve">
<g>
	<path d="M35.31,18.849v-7.892C35.31,4.915,30.396,0,24.356,0c-6.04,0-10.953,4.915-10.953,10.957v7.892H8.33V47h13.695v-7.268
		l2.076-0.241c3.25-0.384,5.702-3.146,5.702-6.421c0-3.277-2.451-6.038-5.702-6.422l-2.076-0.242v-7.558h-3.139v-7.892
		c0-3.021,2.454-5.479,5.471-5.479c3.016,0,5.469,2.458,5.469,5.479v7.892h-3.102v3.579c4.553,1.446,7.778,5.704,7.778,10.644
		c0,4.938-3.226,9.195-7.778,10.642V47H38.67V18.849H35.31z"/>
</g>
<g>
</g>
<g>
</g>
<g>
</g>
<g>
</g>
<g>
</g>
<g>
</g>
<g>
</g>
<g>
</g>
<g>
</g>
<g>
</g>
<g>
</g>
<g>
</g>
<g>
</g>
<g>
</g>
<g>
</g>
</svg>
