<?xml version="1.0" encoding="iso-8859-1"?>
<!-- Generator: Adobe Illustrator 16.0.0, SVG Export Plug-In . SVG Version: 6.00 Build 0)  -->
<!DOCTYPE svg PUBLIC "-//W3C//DTD SVG 1.1//EN" "http://www.w3.org/Graphics/SVG/1.1/DTD/svg11.dtd">
<svg version="1.1" id="Capa_1" xmlns="http://www.w3.org/2000/svg" xmlns:xlink="http://www.w3.org/1999/xlink" x="0px" y="0px"
	 width="64px" height="64px" viewBox="0 0 64 64" style="enable-background:new 0 0 64 64;" xml:space="preserve">
<g>
	<g>
		<g id="circle_41_">
			<g>
				<path d="M18,42h28v-6H18V42z M42,38h2v2h-2V38z M22,23l-4,11h28l-4-11H22z M32,0C14.327,0,0,14.327,0,32s14.327,32,32,32
					s32-14.327,32-32S49.673,0,32,0z M48,42c0,1.104-0.896,2-2,2H18c-1.104,0-2-0.896-2-2v-8l4-11c0-1.104,0.896-2,2-2h20
					c1.104,0,2,0.896,2,2l4,11V42z"/>
			</g>
		</g>
	</g>
</g>
<g>
</g>
<g>
</g>
<g>
</g>
<g>
</g>
<g>
</g>
<g>
</g>
<g>
</g>
<g>
</g>
<g>
</g>
<g>
</g>
<g>
</g>
<g>
</g>
<g>
</g>
<g>
</g>
<g>
</g>
</svg>
