<?xml version="1.0" encoding="iso-8859-1"?>
<!-- Generator: Adobe Illustrator 16.0.0, SVG Export Plug-In . SVG Version: 6.00 Build 0)  -->
<!DOCTYPE svg PUBLIC "-//W3C//DTD SVG 1.1//EN" "http://www.w3.org/Graphics/SVG/1.1/DTD/svg11.dtd">
<svg version="1.1" id="Capa_1" xmlns="http://www.w3.org/2000/svg" xmlns:xlink="http://www.w3.org/1999/xlink" x="0px" y="0px"
	 width="64px" height="64px" viewBox="0 0 64 64" style="enable-background:new 0 0 64 64;" xml:space="preserve">
<g>
	<g>
		<g id="circle_19_">
			<g>
				<path d="M24.403,34.497l-4.79,3.992c1.321,2.517,3.4,4.555,5.915,5.877l3.973-4.769C27.096,38.807,25.194,36.905,24.403,34.497z
					 M38,32c0-3.313-2.688-6-6-6c-3.313,0-6,2.687-6,6c0,3.312,2.687,6,6,6C35.312,38,38,35.312,38,32z M34.499,39.6l3.974,4.768
					c2.514-1.322,4.594-3.36,5.914-5.877l-4.789-3.992C38.807,36.905,36.904,38.807,34.499,39.6z M29.501,24.401l-3.973-4.768
					c-2.515,1.322-4.594,3.36-5.915,5.877l4.79,3.992C25.194,27.096,27.096,25.193,29.501,24.401z M32,0C14.327,0,0,14.327,0,32
					s14.327,32,32,32s32-14.327,32-32S49.673,0,32,0z M32,48c-8.837,0-16-7.163-16-16s7.163-16,16-16s16,7.163,16,16
					S40.837,48,32,48z M38.473,19.634l-3.974,4.768c2.405,0.792,4.308,2.694,5.099,5.102l4.789-3.992
					C43.066,22.994,40.986,20.956,38.473,19.634z"/>
			</g>
		</g>
	</g>
</g>
<g>
</g>
<g>
</g>
<g>
</g>
<g>
</g>
<g>
</g>
<g>
</g>
<g>
</g>
<g>
</g>
<g>
</g>
<g>
</g>
<g>
</g>
<g>
</g>
<g>
</g>
<g>
</g>
<g>
</g>
</svg>
