<?xml version="1.0" encoding="iso-8859-1"?>
<!-- Generator: Adobe Illustrator 16.0.0, SVG Export Plug-In . SVG Version: 6.00 Build 0)  -->
<!DOCTYPE svg PUBLIC "-//W3C//DTD SVG 1.1//EN" "http://www.w3.org/Graphics/SVG/1.1/DTD/svg11.dtd">
<svg version="1.1" id="Capa_1" xmlns="http://www.w3.org/2000/svg" xmlns:xlink="http://www.w3.org/1999/xlink" x="0px" y="0px"
	 width="47px" height="47px" viewBox="0 0 47 47" style="enable-background:new 0 0 47 47;" xml:space="preserve">
<g>
	<path d="M37,26.592h-6.027c2.887-3.555,5.824-8.368,5.824-13.294C36.797,5.966,30.832,0,23.501,0
		c-7.333,0-13.297,5.966-13.297,13.298c0,4.926,2.937,9.739,5.824,13.294H10v6.352h10.323V47h6.354V32.943H37V26.592z M23.501,6.354
		c3.828,0,6.942,3.116,6.942,6.943c0,4.131-4.008,9.129-6.938,12.111c-2.891-2.956-6.947-8.004-6.947-12.111
		C16.558,9.471,19.672,6.354,23.501,6.354z"/>
</g>
<g>
</g>
<g>
</g>
<g>
</g>
<g>
</g>
<g>
</g>
<g>
</g>
<g>
</g>
<g>
</g>
<g>
</g>
<g>
</g>
<g>
</g>
<g>
</g>
<g>
</g>
<g>
</g>
<g>
</g>
</svg>
