<?xml version="1.0" encoding="iso-8859-1"?>
<!-- Generator: Adobe Illustrator 16.0.0, SVG Export Plug-In . SVG Version: 6.00 Build 0)  -->
<!DOCTYPE svg PUBLIC "-//W3C//DTD SVG 1.1//EN" "http://www.w3.org/Graphics/SVG/1.1/DTD/svg11.dtd">
<svg version="1.1" id="Capa_1" xmlns="http://www.w3.org/2000/svg" xmlns:xlink="http://www.w3.org/1999/xlink" x="0px" y="0px"
	 width="950.003px" height="950.003px" viewBox="0 0 950.003 950.003" style="enable-background:new 0 0 950.003 950.003;"
	 xml:space="preserve">
<g>
	<path d="M256.401,216.501h-39.5c-10.9,0-19.7,8.6-19.7,19.5s8.8,19.5,19.7,19.5h39.5c10.9,0,19.8-8.6,19.8-19.5
		S267.302,216.501,256.401,216.501z"/>
	<path d="M375.002,176.501h-39.5c-10.9,0-19.801,9.1-19.801,20s8.9,20,19.801,20h39.5c10.899,0,19.699-9.1,19.699-20
		S385.901,176.501,375.002,176.501z"/>
	<path d="M493.502,216.501h-39.5c-10.9,0-19.7,8.6-19.7,19.5s8.8,19.5,19.7,19.5h39.5c10.899,0,19.8-8.6,19.8-19.5
		C513.201,225.102,504.401,216.501,493.502,216.501z"/>
	<path d="M612.002,176.501h-39.5c-10.9,0-19.801,9.1-19.801,20s8.9,20,19.801,20h39.5c10.899,0,19.8-9.1,19.8-20
		S622.901,176.501,612.002,176.501z"/>
	<path d="M730.502,216.501h-39.5c-10.9,0-19.801,8.6-19.801,19.5s8.801,19.5,19.801,19.5h39.5c10.899,0,19.699-8.6,19.699-19.5
		C750.302,225.102,741.401,216.501,730.502,216.501z"/>
	<g>
		<path d="M17.401,356.702c7.3,6.3,16.6,10.6,26.7,13.6c-3.1,7.2-5,14.9-5,23.2c0,32.7,26.5,59,59.3,59h750.601
			c32.699,0,59.199-26.3,59.199-59c0-8.2-1.699-15.9-4.699-23c11-2.9,21.199-7.1,29.1-13.9c12.9-11.2,19.1-26.8,17-41.7
			c-21-146.9-181.1-258.4-372.4-258.4H372.802c-191.3,0-351.4,111.5-372.4,258.5C-1.698,329.901,4.501,345.501,17.401,356.702z
			 M375.401,137.501h199.2c153.9,0,280.4,69,296.9,159h-793C95.001,206.501,221.501,137.501,375.401,137.501z"/>
		<path d="M372.802,893.501h204.399c191.2,0,351.4-110.7,372.4-257.6c2.1-14.9-4.1-29.601-17-40.801c-7.9-6.8-18.1-11.1-29.1-14
			c3-7.1,4.699-14.5,4.699-22.8c0-32.7-26.5-58.8-59.199-58.8h-96.5h-566.9h-87.2c-32.7,0-59.3,26.1-59.3,58.8
			c0,8.4,1.8,16.101,5,23.4c-10.1,3-19.4,7.1-26.7,13.5c-12.9,11.2-19.1,25.899-17,40.8
			C21.401,782.902,181.501,893.501,372.802,893.501z M871.602,654.501c-16.5,90-143.1,161-296.9,161h-199.3
			c-153.9,0-280.4-71-296.9-161H871.602z"/>
	</g>
</g>
<g>
</g>
<g>
</g>
<g>
</g>
<g>
</g>
<g>
</g>
<g>
</g>
<g>
</g>
<g>
</g>
<g>
</g>
<g>
</g>
<g>
</g>
<g>
</g>
<g>
</g>
<g>
</g>
<g>
</g>
</svg>
