<?xml version="1.0" encoding="iso-8859-1"?>
<!-- Generator: Adobe Illustrator 16.0.0, SVG Export Plug-In . SVG Version: 6.00 Build 0)  -->
<!DOCTYPE svg PUBLIC "-//W3C//DTD SVG 1.1//EN" "http://www.w3.org/Graphics/SVG/1.1/DTD/svg11.dtd">
<svg version="1.1" id="Capa_1" xmlns="http://www.w3.org/2000/svg" xmlns:xlink="http://www.w3.org/1999/xlink" x="0px" y="0px"
	 width="973.734px" height="973.734px" viewBox="0 0 973.734 973.734" style="enable-background:new 0 0 973.734 973.734;"
	 xml:space="preserve">
<g>
	<path d="M775.393,475.733H181.027c-57.469-29.913-88.593-93.938-88.593-157.926c0-94.58,76.604-171.133,171.111-171.133
		c0.926,0,1.785,0.201,2.686,0.252C303.928,60.529,389.873,0,490.209,0c100.336,0,186.357,60.53,224.029,147.025
		c92.574,2.212,167.062,77.606,167.062,170.783C881.301,389.139,837.521,450.096,775.393,475.733z M308.428,746.127l7.817,19.969
		l170.622,81.996l170.552-81.996l7.854-19.969l-178.406-85.752L308.428,746.127z M225.727,534.879l71.734,183.234l154.776-74.381
		L225.727,534.879z M381.248,932.133l0.767,2.088c9.294,23.707,32.449,39.514,58.267,39.514h46.587h46.447
		c25.816,0,48.973-15.807,58.268-39.514l0.836-2.088l-105.55-50.725L381.248,932.133z M332.296,807.094l37.984,97.025l81.956-39.387
		L332.296,807.094z M739.258,505.732h-252.39H234.336l252.531,121.359L739.258,505.732z M521.357,643.732l154.775,74.381
		l71.734-183.234L521.357,643.732z M603.314,904.117l37.982-97.023l-119.939,57.639L603.314,904.117z"/>
</g>
<g>
</g>
<g>
</g>
<g>
</g>
<g>
</g>
<g>
</g>
<g>
</g>
<g>
</g>
<g>
</g>
<g>
</g>
<g>
</g>
<g>
</g>
<g>
</g>
<g>
</g>
<g>
</g>
<g>
</g>
</svg>
