<?xml version="1.0" encoding="iso-8859-1"?>
<!-- Generator: Adobe Illustrator 16.0.0, SVG Export Plug-In . SVG Version: 6.00 Build 0)  -->
<!DOCTYPE svg PUBLIC "-//W3C//DTD SVG 1.1//EN" "http://www.w3.org/Graphics/SVG/1.1/DTD/svg11.dtd">
<svg version="1.1" id="Capa_1" xmlns="http://www.w3.org/2000/svg" xmlns:xlink="http://www.w3.org/1999/xlink" x="0px" y="0px"
	 width="47px" height="47px" viewBox="0 0 47 47" style="enable-background:new 0 0 47 47;" xml:space="preserve">
<g>
	<path d="M34.411,1.125c-4.671,0-8.739,2.551-10.911,6.328c-2.172-3.777-6.24-6.328-10.911-6.328C5.635,1.125,0,6.764,0,13.715
		c0,6.955,5.635,12.592,12.589,12.592c2.124,0,4.121-0.533,5.875-1.459v19.026c0,1.101,0.9,2,2,2h6.072c1.101,0,2-0.899,2-2V24.848
		c1.754,0.926,3.751,1.459,5.875,1.459C41.365,26.307,47,20.67,47,13.715C47,6.764,41.365,1.125,34.411,1.125z M12.589,19.59
		c-3.243,0-5.875-2.631-5.875-5.875c0-3.242,2.632-5.875,5.875-5.875c3.244,0,5.875,2.633,5.875,5.875
		C18.464,16.959,15.833,19.59,12.589,19.59z M34.411,19.59c-3.244,0-5.875-2.631-5.875-5.875c0-3.242,2.631-5.875,5.875-5.875
		c3.243,0,5.875,2.633,5.875,5.875C40.286,16.959,37.654,19.59,34.411,19.59z"/>
</g>
<g>
</g>
<g>
</g>
<g>
</g>
<g>
</g>
<g>
</g>
<g>
</g>
<g>
</g>
<g>
</g>
<g>
</g>
<g>
</g>
<g>
</g>
<g>
</g>
<g>
</g>
<g>
</g>
<g>
</g>
</svg>
