<?xml version="1.0" encoding="iso-8859-1"?>
<!-- Generator: Adobe Illustrator 16.0.0, SVG Export Plug-In . SVG Version: 6.00 Build 0)  -->
<!DOCTYPE svg PUBLIC "-//W3C//DTD SVG 1.1//EN" "http://www.w3.org/Graphics/SVG/1.1/DTD/svg11.dtd">
<svg version="1.1" id="Capa_1" xmlns="http://www.w3.org/2000/svg" xmlns:xlink="http://www.w3.org/1999/xlink" x="0px" y="0px"
	 width="950px" height="950px" viewBox="0 0 950 950" style="enable-background:new 0 0 950 950;" xml:space="preserve">
<g>
	<g>
		<path d="M344.443,616.113c-15.465-6.541-30.31-14.188-44.494-22.873v121.387h-58.752c-12.467,0-18.441,15.311-9.27,23.754
			l220.1,202.652C458.517,947.012,466.758,950,475,950c8.242,0,16.484-2.988,22.974-8.967l220.1-202.652
			c9.17-8.443,3.195-23.754-9.271-23.754H650.05V593.24c-14.184,8.686-29.029,16.332-44.494,22.873
			c-41.365,17.496-85.291,26.367-130.557,26.367C429.733,642.48,385.808,633.609,344.443,616.113z"/>
		<path d="M273.211,540.646c4.348,3.76,8.813,7.387,13.369,10.904c4.365,3.369,8.823,6.623,13.369,9.76
			c30.3,20.904,64.516,36.525,101.329,45.549c-16.661-17.588-31.634-41.426-44.292-70.996
			c-7.434-17.363-13.922-36.293-19.411-56.455c-13.103,2.795-25.664,5.98-37.626,9.514c-4.545,1.344-9.005,2.734-13.369,4.176
			c-4.557,1.506-9.019,3.062-13.369,4.672c-10.753,3.98-20.853,8.277-30.232,12.85C252.359,521.305,262.456,531.346,273.211,540.646
			z"/>
		<path d="M488.37,0v152.906c34.738-0.634,67.99-3.725,98.83-8.879C566.093,64.948,530.099,9.794,488.37,0z"/>
		<path d="M362.8,144.024c30.839,5.154,64.093,8.237,98.831,8.871V0C419.904,9.794,383.909,64.946,362.8,144.024z"/>
		<path d="M461.631,179.635c-36.021-0.647-71.627-3.894-105.055-9.563c-7.973,37.527-12.773,79.378-13.58,123.649h118.636
			L461.631,179.635L461.631,179.635z"/>
		<path d="M488.37,293.72h118.635c-0.807-44.263-5.605-86.107-13.576-123.629c-33.131,5.633-68.533,8.911-105.059,9.556V293.72
			L488.37,293.72z"/>
		<path d="M240.271,106.686c26.597,13.325,59.26,24.362,96.181,32.316c5.721-21.744,12.585-42.117,20.534-60.686
			c12.658-29.57,27.631-53.408,44.292-70.996C337.537,22.943,281.574,58.355,240.271,106.686z"/>
		<path d="M166.653,293.72h149.6c0.794-45.179,5.606-88.812,14.041-128.697c-2.844-0.615-5.671-1.245-8.473-1.897
			c-37.351-8.686-70.881-20.654-98.321-34.999C189.934,175.216,169.278,232.133,166.653,293.72z"/>
		<path d="M548.722,7.32c16.662,17.587,31.635,41.426,44.293,70.996c7.949,18.569,14.812,38.94,20.533,60.684
			c36.916-7.953,69.596-18.98,96.191-32.303C668.435,58.36,612.47,22.944,548.722,7.32z"/>
		<path d="M783.347,320.458H642.306h-8.559c-0.064,3.615-0.143,7.224-0.258,10.819c-0.154,4.789-0.357,9.556-0.602,14.303
			c-1.936,37.824-6.719,74.235-14.105,107.884c10.727,2.303,21.166,4.864,31.27,7.672c4.525,1.257,8.982,2.563,13.369,3.919
			c4.533,1.399,8.992,2.851,13.369,4.354c17.105,5.873,32.977,12.521,47.352,19.876
			C759.089,441.578,780.661,383.468,783.347,320.458z"/>
		<path d="M619.708,165.029c8.434,39.884,13.244,83.514,14.039,128.691h149.6c-2.625-61.581-23.275-118.493-56.838-165.578
			C696.712,143.757,660.315,156.248,619.708,165.029z"/>
		<path d="M461.631,341.958v-13.369v-8.131H342.996c0.05,2.72,0.114,5.43,0.192,8.131c0.133,4.484,0.308,8.94,0.521,13.369
			c1.829,37.999,6.606,73.912,13.794,106.452c33.158-5.571,68.441-8.76,104.129-9.4V341.958L461.631,341.958z"/>
		<path d="M488.37,614.18c40.971-9.617,76.418-62.955,97.672-139.741c-30.516-5.04-63.365-8.062-97.672-8.689V614.18L488.37,614.18z
			"/>
		<path d="M461.631,614.18V465.749c-34.305,0.626-67.158,3.646-97.673,8.685C385.211,551.221,420.66,604.562,461.631,614.18z"/>
		<path d="M488.37,328.589v13.369v97.04c36.115,0.644,71.213,3.883,104.123,9.438c7.191-32.548,11.969-68.469,13.799-106.477
			c0.213-4.429,0.389-8.885,0.521-13.369c0.078-2.701,0.143-5.411,0.191-8.131H488.37V328.589z"/>
		<path d="M286.58,465.042c4.383-1.357,8.845-2.663,13.369-3.924c7.133-1.987,14.417-3.866,21.872-5.599
			c3.102-0.721,6.233-1.417,9.388-2.093c-7.423-33.826-12.213-70.445-14.128-108.482c-0.236-4.693-0.436-9.404-0.583-14.137
			c-0.108-3.439-0.184-6.89-0.245-10.348h-9.877H166.653c2.687,63.018,24.264,121.135,59.22,168.846
			c14.292-7.309,30.163-13.986,47.338-19.9C277.584,467.899,282.045,466.447,286.58,465.042z"/>
		<path d="M663.421,493.098c-4.369-1.445-8.816-2.848-13.369-4.191c-11.953-3.531-24.535-6.697-37.627-9.488
			c-5.488,20.158-11.977,39.086-19.41,56.445c-12.658,29.57-27.631,53.408-44.291,70.996c36.812-9.023,71.029-24.645,101.328-45.549
			c4.547-3.135,9.004-6.391,13.369-9.76c4.555-3.516,9.021-7.143,13.369-10.902c10.758-9.303,20.857-19.348,30.238-30.035
			c-9.373-4.57-19.49-8.854-30.238-12.832C672.435,496.166,667.983,494.604,663.421,493.098z"/>
	</g>
</g>
<g>
</g>
<g>
</g>
<g>
</g>
<g>
</g>
<g>
</g>
<g>
</g>
<g>
</g>
<g>
</g>
<g>
</g>
<g>
</g>
<g>
</g>
<g>
</g>
<g>
</g>
<g>
</g>
<g>
</g>
</svg>
