<?xml version="1.0" encoding="iso-8859-1"?>
<!-- Generator: Adobe Illustrator 16.0.0, SVG Export Plug-In . SVG Version: 6.00 Build 0)  -->
<!DOCTYPE svg PUBLIC "-//W3C//DTD SVG 1.1//EN" "http://www.w3.org/Graphics/SVG/1.1/DTD/svg11.dtd">
<svg version="1.1" id="Capa_1" xmlns="http://www.w3.org/2000/svg" xmlns:xlink="http://www.w3.org/1999/xlink" x="0px" y="0px"
	 width="64px" height="64px" viewBox="0 0 64 64" style="enable-background:new 0 0 64 64;" xml:space="preserve">
<g>
	<g>
		<g id="circle_copy_4_6_">
			<g>
				<path d="M45,24c-1.104,0-2,0.896-2,2s0.896,2,2,2s2-0.896,2-2S46.104,24,45,24z M32,0C14.327,0,0,14.327,0,32s14.327,32,32,32
					s32-14.327,32-32S49.673,0,32,0z M45,30c-0.432,0-0.837-0.086-1.227-0.211l-4.931,7.748l-0.142-0.09l-0.258,0.385l-4.476-2.982
					l-3.138,4.705l-0.154-0.104l-0.259,0.361l-5.512-3.937l-6.088,8.696l-1.639-1.146l7-10l0.152,0.106l0.248-0.347l5.482,3.916
					l3.104-4.658l0.141,0.094l0.246-0.37l4.448,2.965l4.08-6.412C41.416,28.007,41,27.055,41,26c0-2.209,1.791-4,4-4s4,1.791,4,4
					S47.209,30,45,30z"/>
			</g>
		</g>
	</g>
</g>
<g>
</g>
<g>
</g>
<g>
</g>
<g>
</g>
<g>
</g>
<g>
</g>
<g>
</g>
<g>
</g>
<g>
</g>
<g>
</g>
<g>
</g>
<g>
</g>
<g>
</g>
<g>
</g>
<g>
</g>
</svg>
