<?xml version="1.0" encoding="iso-8859-1"?>
<!-- Generator: Adobe Illustrator 16.0.0, SVG Export Plug-In . SVG Version: 6.00 Build 0)  -->
<!DOCTYPE svg PUBLIC "-//W3C//DTD SVG 1.1//EN" "http://www.w3.org/Graphics/SVG/1.1/DTD/svg11.dtd">
<svg version="1.1" id="Capa_1" xmlns="http://www.w3.org/2000/svg" xmlns:xlink="http://www.w3.org/1999/xlink" x="0px" y="0px"
	 width="64px" height="64px" viewBox="0 0 64 64" style="enable-background:new 0 0 64 64;" xml:space="preserve">
<g>
	<g>
		<g id="circle_33_">
			<g>
				<path d="M37,23c0-1.104-0.896-2-2-2h-6c-1.104,0-2,0.896-2,2v1h10V23z M44,26H20c-1.104,0-2,0.896-2,2v12c0,1.104,0.896,2,2,2
					h24c1.104,0,2-0.896,2-2V28C46,26.896,45.104,26,44,26z M32,40c-3.313,0-6-2.688-6-6c0-3.313,2.687-6,6-6c3.312,0,6,2.687,6,6
					C38,37.312,35.312,40,32,40z M43,30c-0.552,0-1-0.447-1-1c0-0.552,0.448-1,1-1c0.553,0,1,0.448,1,1C44,29.553,43.553,30,43,30z
					 M32,30c-2.209,0-4,1.791-4,4s1.791,4,4,4s4-1.791,4-4S34.209,30,32,30z M32,0C14.327,0,0,14.327,0,32c0,17.674,14.327,32,32,32
					s32-14.326,32-32C64,14.327,49.673,0,32,0z M48,40c0,2.209-1.791,4-4,4H20c-2.209,0-4-1.791-4-4V28c0-2.209,1.791-4,4-4h5v-1
					c0-2.209,1.791-4,4-4h6c2.209,0,4,1.791,4,4v1h5c2.209,0,4,1.791,4,4V40z"/>
			</g>
		</g>
	</g>
</g>
<g>
</g>
<g>
</g>
<g>
</g>
<g>
</g>
<g>
</g>
<g>
</g>
<g>
</g>
<g>
</g>
<g>
</g>
<g>
</g>
<g>
</g>
<g>
</g>
<g>
</g>
<g>
</g>
<g>
</g>
</svg>
