<?xml version="1.0" encoding="iso-8859-1"?>
<!-- Generator: Adobe Illustrator 16.0.0, SVG Export Plug-In . SVG Version: 6.00 Build 0)  -->
<!DOCTYPE svg PUBLIC "-//W3C//DTD SVG 1.1//EN" "http://www.w3.org/Graphics/SVG/1.1/DTD/svg11.dtd">
<svg version="1.1" id="Capa_1" xmlns="http://www.w3.org/2000/svg" xmlns:xlink="http://www.w3.org/1999/xlink" x="0px" y="0px"
	 width="950px" height="950px" viewBox="0 0 950 950" style="enable-background:new 0 0 950 950;" xml:space="preserve">
<g>
	<g>
		<path d="M300.671,603.097v112.502h-58.51c-12.415,0-18.365,15.245-9.232,23.655l219.191,201.817
			c12.93,11.905,32.829,11.905,45.758,0L717.07,739.254c9.133-8.41,3.184-23.655-9.232-23.655h-58.51V603.097H300.671z"/>
		<path d="M231.773,578.097h68.898H649.33h107.797c71.715,0,129.85-58.137,129.85-129.852c0-66.014-49.262-120.52-113.029-128.768
			c1.047-10.001,1.592-20.151,1.592-30.429C775.539,129.411,646.127,0,486.49,0C342.389,0,222.933,105.454,201.043,243.396
			c-78.524,14.449-138.02,83.247-138.02,165.95C63.023,502.544,138.576,578.097,231.773,578.097z"/>
	</g>
</g>
<g>
</g>
<g>
</g>
<g>
</g>
<g>
</g>
<g>
</g>
<g>
</g>
<g>
</g>
<g>
</g>
<g>
</g>
<g>
</g>
<g>
</g>
<g>
</g>
<g>
</g>
<g>
</g>
<g>
</g>
</svg>
