<?xml version="1.0" encoding="iso-8859-1"?>
<!-- Generator: Adobe Illustrator 16.0.0, SVG Export Plug-In . SVG Version: 6.00 Build 0)  -->
<!DOCTYPE svg PUBLIC "-//W3C//DTD SVG 1.1//EN" "http://www.w3.org/Graphics/SVG/1.1/DTD/svg11.dtd">
<svg version="1.1" id="Capa_1" xmlns="http://www.w3.org/2000/svg" xmlns:xlink="http://www.w3.org/1999/xlink" x="0px" y="0px"
	 width="47px" height="47px" viewBox="0 0 47 47" style="enable-background:new 0 0 47 47;" xml:space="preserve">
<g>
	<g>
		<path d="M40.766,0H6.235C2.808,0,0,2.806,0,6.235v34.531C0,44.193,2.808,47,6.235,47h34.529C44.194,47,47,44.193,47,40.766V6.235
			C47,2.806,44.194,0,40.766,0z M43.711,37.312c0,3.527-2.872,6.397-6.398,6.397H9.688c-3.527,0-6.399-2.87-6.399-6.397V9.688
			c0-3.528,2.872-6.398,6.399-6.398h27.623c3.527,0,6.399,2.87,6.399,6.398L43.711,37.312L43.711,37.312z"/>
		<path d="M37.313,6.11H9.688c-1.973,0-3.578,1.605-3.578,3.578v27.623c0,1.974,1.605,3.578,3.578,3.578h27.623
			c1.974,0,3.578-1.604,3.578-3.578V9.688C40.891,7.715,39.285,6.11,37.313,6.11z M15.548,20.288c-2.617,0-4.739-2.123-4.739-4.74
			c0-2.617,2.122-4.738,4.739-4.738c2.618,0,4.74,2.122,4.74,4.738C20.289,18.166,18.167,20.288,15.548,20.288z M33.116,34.251
			c0,1.308-1.061,2.369-2.37,2.369c-1.308,0-2.368-1.062-2.368-2.369c0-0.976,0.589-1.812,1.432-2.175V21.698
			c-0.843-0.364-1.432-1.199-1.432-2.174c0-1.308,1.062-2.37,2.368-2.37c1.312,0,2.37,1.062,2.37,2.37
			c0,0.975-0.59,1.809-1.428,2.174v10.379C32.526,32.441,33.116,33.277,33.116,34.251z"/>
	</g>
</g>
<g>
</g>
<g>
</g>
<g>
</g>
<g>
</g>
<g>
</g>
<g>
</g>
<g>
</g>
<g>
</g>
<g>
</g>
<g>
</g>
<g>
</g>
<g>
</g>
<g>
</g>
<g>
</g>
<g>
</g>
</svg>
