<?xml version="1.0" encoding="iso-8859-1"?>
<!-- Generator: Adobe Illustrator 16.0.0, SVG Export Plug-In . SVG Version: 6.00 Build 0)  -->
<!DOCTYPE svg PUBLIC "-//W3C//DTD SVG 1.1//EN" "http://www.w3.org/Graphics/SVG/1.1/DTD/svg11.dtd">
<svg version="1.1" id="Capa_1" xmlns="http://www.w3.org/2000/svg" xmlns:xlink="http://www.w3.org/1999/xlink" x="0px" y="0px"
	 width="48.33px" height="48.33px" viewBox="0 0 48.33 48.33" style="enable-background:new 0 0 48.33 48.33;" xml:space="preserve"
	>
<g>
	<g>
		<g id="camera">
			<g>
				<path d="M23.403,16.692c-3.304,0-5.98,2.679-5.982,5.98v0.003c0,0.412,0.335,0.748,0.748,0.748c0.412,0,0.748-0.336,0.748-0.748
					v-0.003c0.001-2.477,2.008-4.484,4.486-4.484c0.412,0,0.747-0.336,0.747-0.748C24.15,17.027,23.815,16.692,23.403,16.692z
					 M44.503,9.673l-0.519-0.002c0.004-0.04,0.022-0.075,0.022-0.116c0.001-0.742-0.601-2.344-1.343-2.344h-1.656
					c-0.742,0-1.344,1.602-1.344,2.344c0,0.036,0.018,0.065,0.021,0.101l-0.201-0.001h-8.959c-1.893-0.793-3.963-1.236-6.136-1.236
					c-2.174,0-4.244,0.443-6.136,1.236h-8.192L3.319,9.673C1.101,10.041,0,11.812,0,14.06l0.128,21.297
					c0,2.524,1.417,4.261,3.94,4.261H17.68c2.044,0.954,4.311,1.501,6.708,1.501s4.664-0.547,6.709-1.501h12.653
					c2.524,0,4.579-2.056,4.579-4.579V14.188C48.331,11.94,46.721,10.041,44.503,9.673z M3.465,37.617
					c-0.877,0-1.586-0.748-1.586-1.674V13.099c0-0.818,0.562-1.516,1.325-1.648l7.968,0.092l3.807-0.021
					c-4.046,2.97-6.689,7.79-6.689,13.248c0,5.219,2.416,9.855,6.165,12.85H3.465V37.617z M24.469,38.859
					c-7.614,0-13.786-6.269-13.786-14c0-7.732,6.172-14,13.786-14c7.614,0,13.786,6.268,13.786,14
					C38.255,32.591,32.083,38.859,24.469,38.859z M46.271,35.943c0,0.926-0.709,1.674-1.584,1.674H34.324
					c3.749-2.994,6.164-7.631,6.164-12.85c0-5.521-2.701-10.393-6.827-13.353l2.321-0.013l8.965,0.048
					c0.765,0.133,1.324,0.83,1.324,1.648V35.943z"/>
			</g>
		</g>
	</g>
</g>
<g>
</g>
<g>
</g>
<g>
</g>
<g>
</g>
<g>
</g>
<g>
</g>
<g>
</g>
<g>
</g>
<g>
</g>
<g>
</g>
<g>
</g>
<g>
</g>
<g>
</g>
<g>
</g>
<g>
</g>
</svg>
