<?xml version="1.0" encoding="iso-8859-1"?>
<!-- Generator: Adobe Illustrator 16.0.0, SVG Export Plug-In . SVG Version: 6.00 Build 0)  -->
<!DOCTYPE svg PUBLIC "-//W3C//DTD SVG 1.1//EN" "http://www.w3.org/Graphics/SVG/1.1/DTD/svg11.dtd">
<svg version="1.1" id="Capa_1" xmlns="http://www.w3.org/2000/svg" xmlns:xlink="http://www.w3.org/1999/xlink" x="0px" y="0px"
	 width="47px" height="47px" viewBox="0 0 47 47" style="enable-background:new 0 0 47 47;" xml:space="preserve">
<g>
	<path d="M34.453,18.85v-7.892C34.453,4.915,29.539,0,23.497,0c-6.04,0-10.953,4.915-10.953,10.958v7.892H7.47V47h32.06V18.85
		H34.453z M18.026,10.958c0-3.022,2.455-5.482,5.471-5.482c3.017,0,5.471,2.459,5.471,5.482v7.892H18.026V10.958z M23.5,44.561
		c-6.48,0-11.75-5.27-11.75-11.75c0-5.695,4.075-10.455,9.466-11.521l-1.941,3.881c-2.687,1.492-4.51,4.357-4.51,7.643
		c0,4.816,3.917,8.735,8.735,8.735s8.735-3.918,8.735-8.735c0-3.285-1.823-6.149-4.51-7.643l-1.94-3.881
		c5.391,1.068,9.465,5.827,9.465,11.521C35.25,39.291,29.98,44.561,23.5,44.561z M23.5,22.142l3.225,6.45
		c1.278,0.979,2.114,2.5,2.114,4.233l0,0c0,2.946-2.389,5.34-5.338,5.34c-2.949,0-5.339-2.394-5.339-5.34l0,0
		c0-1.734,0.837-3.255,2.115-4.233L23.5,22.142z"/>
</g>
<g>
</g>
<g>
</g>
<g>
</g>
<g>
</g>
<g>
</g>
<g>
</g>
<g>
</g>
<g>
</g>
<g>
</g>
<g>
</g>
<g>
</g>
<g>
</g>
<g>
</g>
<g>
</g>
<g>
</g>
</svg>
