<?xml version="1.0" encoding="iso-8859-1"?>
<!-- Generator: Adobe Illustrator 16.0.0, SVG Export Plug-In . SVG Version: 6.00 Build 0)  -->
<!DOCTYPE svg PUBLIC "-//W3C//DTD SVG 1.1//EN" "http://www.w3.org/Graphics/SVG/1.1/DTD/svg11.dtd">
<svg version="1.1" id="Capa_1" xmlns="http://www.w3.org/2000/svg" xmlns:xlink="http://www.w3.org/1999/xlink" x="0px" y="0px"
	 width="56.478px" height="56.479px" viewBox="0 0 56.478 56.479" style="enable-background:new 0 0 56.478 56.479;"
	 xml:space="preserve">
<g>
	<g>
		<g id="ice_cream">
			<g>
				<path d="M43.295,16.652c-0.395-2.482-3.115-2.757-3.793-4.827c-0.638-1.95-0.104-3.624-0.689-5.173
					c-1.497-3.951-6.864-7.284-12.068-6.551c-4.204,0.591-8.393,3.298-9.311,7.414c-0.257,1.151,0.214,3.038-0.345,4.482
					c-0.401,1.038-1.638,1.452-2.413,2.241c-0.865,0.88-1.521,1.833-1.552,3.275c-0.031,1.464,1.032,2.741,1.552,4.311
					c0.474,1.438,1.111,3.444,1.207,5c0.108,1.798,0.277,3.059,0.734,4.107c0.6,1.377,2.746,1.59,3.245,3.918
					c0.588,2.736,0.773,6.832,1.364,10.249c0.851,4.9,1.761,11.469,6.896,11.379c5.022-0.086,6.17-7.104,6.896-11.724
					c0.525-3.351,0.151-7.39,1.146-9.904c0.838-2.122,2.844-2.804,3.34-4.373c0.327-1.036-0.816-2.723-0.688-4.357
					c0.076-0.969,0.533-2.938,1.598-3.7C42.22,21.124,43.672,19.039,43.295,16.652z M34.398,31.653
					c-1.81,2.479-1.498,8.579-2.271,13.441c-0.409,2.563-1.397,9.367-3.978,9.466c-2.108,0.081-2.576-3.149-3.218-5.68
					c-0.466-1.837-1.242-5.038-1.515-7.384c-0.484-4.174-0.089-7.834-2.083-10.224c-1.317-1.577-4.363-1.727-2.65-3.976
					c1.066-0.085,2.376-1.864,3.812-1.392c1.657,0.544,3.484,3.357,5.299,3.358c2.125,0.001,4.232-2.176,6.035-2.156
					c1.356,0.015,2.355,0.781,3.086,1.783C36.862,31.189,35.601,30.007,34.398,31.653z M35.191,25.101
					c-2.016,0.245-4.679,2.233-7.379,2.132c-1.596-0.061-3.204-2.612-4.699-3.181c-1.62-0.615-3.107,0.75-4.3,0.704
					c-0.438-0.653-0.702-1.482-0.862-2.413c0.938-0.475,1.396-0.409,2.241-0.862c1.145-0.615,1.856-2.055,2.759-2.069
					c1.51-0.023,1.867,2.263,3.62,2.587c3.608,1.358,4.679-2.484,6.379-2.587c1.823-0.108,2.347,2.981,4.826,2.932
					C38.246,24.181,36.637,24.924,35.191,25.101z M40.266,19.716c-2.811,0.865-2.137-1.66-4.33-2.636
					c-1.699-0.757-3.106-0.479-4.329,0c-1.593,0.625-2.163,2.404-3.388,2.447c-1.316,0.047-2.327-1.993-3.389-2.447
					c-1.15-0.491-2.895-0.604-4.329,0c-1.698,0.718-2.155,3.34-4.895,2.071c-0.536-3.315,2.76-2.962,3.765-4.895
					c0.98-1.887,0.105-4.162,0.564-6.4c0.563-2.742,4.929-5.594,8.283-5.646c3.148-0.049,7.309,2.482,8.282,4.894
					c0.913,2.259-0.098,5.499,0.939,7.342c0.721,1.275,3.88,1.827,3.953,3.576C41.419,18.619,40.539,19.631,40.266,19.716z"/>
			</g>
		</g>
	</g>
</g>
<g>
</g>
<g>
</g>
<g>
</g>
<g>
</g>
<g>
</g>
<g>
</g>
<g>
</g>
<g>
</g>
<g>
</g>
<g>
</g>
<g>
</g>
<g>
</g>
<g>
</g>
<g>
</g>
<g>
</g>
</svg>
