<?xml version="1.0" encoding="iso-8859-1"?>
<!-- Generator: Adobe Illustrator 16.0.0, SVG Export Plug-In . SVG Version: 6.00 Build 0)  -->
<!DOCTYPE svg PUBLIC "-//W3C//DTD SVG 1.1//EN" "http://www.w3.org/Graphics/SVG/1.1/DTD/svg11.dtd">
<svg version="1.1" id="Capa_1" xmlns="http://www.w3.org/2000/svg" xmlns:xlink="http://www.w3.org/1999/xlink" x="0px" y="0px"
	 width="47px" height="47px" viewBox="0 0 47 47" style="enable-background:new 0 0 47 47;" xml:space="preserve">
<g>
	<g>
		<path d="M46.996,16.65l-0.005-0.585C46.996,15.995,47,15.921,47,15.842c0-0.118-0.006-0.234-0.014-0.352v-0.001
			C46.579,9.732,36.221,5.119,23.5,5.119c-12.721,0-23.079,4.613-23.487,10.371v0.001C0.006,15.608,0,15.725,0,15.843
			c0,0.059,0.004,0.114,0.01,0.171l-0.006,0.637C0.003,16.674,0,16.693,0,16.717c0,0.013,0.002,0.028,0.003,0.045L0,17.001h0.021
			c0.286,2.106,3.706,3.768,7.886,3.768c4.368,0,7.909-1.814,7.909-4.052c0.154-1.281-0.202-3.877-0.344-4.818
			c2.474-0.401,5.17-0.62,8.028-0.62c2.835,0,5.542,0.176,8.043,0.515c-0.128,0.841-0.52,3.592-0.359,4.924
			c0,2.237,3.541,4.052,7.908,4.052c4.18,0,7.602-1.661,7.887-3.768H47l-0.001-0.239c0-0.017,0.001-0.032,0.001-0.045
			C47,16.693,46.998,16.674,46.996,16.65z"/>
		<path d="M23.5,22.559c-1.238,0-2.245,1.007-2.245,2.25v3.237h4.491v-3.237C25.746,23.566,24.736,22.559,23.5,22.559z"/>
		<path d="M29.916,18.098l-0.387-4.932H26.71l-0.94,4.932h-4.537l-0.94-4.932h-2.82l-0.387,4.932c0,0-3.043,3.594-8.021,4.259
			L3.148,31.54v10.341h40.709V31.539l-6.858-9.183C32.02,21.691,29.916,18.098,29.916,18.098z M30.08,39.6H16.921V28.046h2.083
			v-3.237c0-2.48,2.017-4.499,4.496-4.499c2.479,0,4.496,2.018,4.496,4.499v3.237h2.084V39.6z"/>
	</g>
</g>
<g>
</g>
<g>
</g>
<g>
</g>
<g>
</g>
<g>
</g>
<g>
</g>
<g>
</g>
<g>
</g>
<g>
</g>
<g>
</g>
<g>
</g>
<g>
</g>
<g>
</g>
<g>
</g>
<g>
</g>
</svg>
