<?xml version="1.0" encoding="iso-8859-1"?>
<!-- Generator: Adobe Illustrator 16.0.0, SVG Export Plug-In . SVG Version: 6.00 Build 0)  -->
<!DOCTYPE svg PUBLIC "-//W3C//DTD SVG 1.1//EN" "http://www.w3.org/Graphics/SVG/1.1/DTD/svg11.dtd">
<svg version="1.1" id="Capa_1" xmlns="http://www.w3.org/2000/svg" xmlns:xlink="http://www.w3.org/1999/xlink" x="0px" y="0px"
	 width="47px" height="47px" viewBox="0 0 47 47" style="enable-background:new 0 0 47 47;" xml:space="preserve">
<g>
	<g>
		<rect x="12.369" y="9.914" width="14.429" height="5.496"/>
		<path d="M45.626,6.321h-16.08c-0.754,0-1.374,0.619-1.374,1.373v9.622c0,0.755-0.617,1.374-1.374,1.374H12.369
			c-0.756,0-1.376-0.619-1.376-1.374V7.694c0-0.754-0.618-1.373-1.374-1.373H5.496c-0.753,0-1.374,0.619-1.374,1.373v2.219H2.748
			C1.23,9.914,0,11.144,0,12.662c0,1.519,1.23,2.748,2.748,2.748h1.374v23.896c0,0.754,0.621,1.373,1.374,1.373h40.13
			c0.755,0,1.374-0.619,1.374-1.373V7.694C47,6.94,46.381,6.321,45.626,6.321z"/>
	</g>
</g>
<g>
</g>
<g>
</g>
<g>
</g>
<g>
</g>
<g>
</g>
<g>
</g>
<g>
</g>
<g>
</g>
<g>
</g>
<g>
</g>
<g>
</g>
<g>
</g>
<g>
</g>
<g>
</g>
<g>
</g>
</svg>
