<?xml version="1.0" encoding="iso-8859-1"?>
<!-- Generator: Adobe Illustrator 16.0.0, SVG Export Plug-In . SVG Version: 6.00 Build 0)  -->
<!DOCTYPE svg PUBLIC "-//W3C//DTD SVG 1.1//EN" "http://www.w3.org/Graphics/SVG/1.1/DTD/svg11.dtd">
<svg version="1.1" id="Capa_1" xmlns="http://www.w3.org/2000/svg" xmlns:xlink="http://www.w3.org/1999/xlink" x="0px" y="0px"
	 width="53.701px" height="53.701px" viewBox="0 0 53.701 53.701" style="enable-background:new 0 0 53.701 53.701;"
	 xml:space="preserve">
<g>
	<g>
		<g id="whistle">
			<g>
				<path d="M19.55,15.485c0.003,0.002,0.005,0.004,0.007,0.006l0.01,0.007L19.55,15.485z M52.855,26.79
					c-0.701-2.304-1.742-3.869-3.094-4.655c-1.031-0.599-2.468-0.761-4.384-0.925c0,0-0.308-0.027-0.31-0.027
					c-0.797-0.069-1.637-0.104-2.498-0.104c-2.633,0-4.906,0.32-6.026,0.512c-0.655,0.111-1.233,0.493-1.595,1.051
					c-0.582,0.898-1.239,1.282-2.195,1.282c-1.234,0-3.518-0.634-7.374-3.65c-1.212-0.947-2.465-1.949-3.678-2.917
					c0,0-0.569-0.454-0.62-0.494c-0.004-0.003-0.007-0.007-0.011-0.01l-0.008-0.006c-0.008-0.006-0.014-0.012-0.016-0.014
					c-0.134-0.107-0.294-0.267-0.464-0.435c-0.289-0.287-0.618-0.613-1.028-0.907l-2.8-2.037l0.015,0.011
					c-1.856-1.373-3.973-2.46-6.288-3.231C8.104,9.44,5.56,8.997,2.916,8.914C2.891,8.913,2.865,8.913,2.841,8.913
					c-0.293,0-0.582,0.054-0.856,0.159c-0.805,0.311-1.423,0.925-1.74,1.731c-0.027,0.07-0.052,0.142-0.073,0.216
					C0.054,11.433,0,11.799,0,12.171v0.021c0,0,0.001,0.021,0.001,0.028c0,0.006,0,0.013,0,0.013c0,0.034,0,0.067,0.001,0.102
					c0.01,0.213,0.034,0.391,0.054,0.533c0.013,0.098,0.024,0.175,0.033,0.271c0.092,1.163,1.017,2.088,2.181,2.18
					c2.679,0.213,5.121,0.841,7.468,1.916c2.088,0.959,4.052,2.253,6.002,3.958c3.719,3.249,6.71,7.407,9.603,11.429
					c0,0,1.378,1.908,1.379,1.908c0.366,0.503,0.734,1.029,1.09,1.539c1.429,2.043,2.905,4.156,4.957,5.807
					c2.436,1.96,5.258,2.912,8.631,2.912c0.615,0,1.258-0.031,1.906-0.095c2.559-0.25,4.989-1.351,6.848-3.101
					c0.959-0.906,1.744-1.957,2.328-3.125c0.615-1.229,0.996-2.559,1.135-3.951c0.057-0.564,0.084-1.168,0.084-1.793v-0.095
					C53.691,30.622,53.391,28.548,52.855,26.79z M36.943,23.934c1.983-0.338,5-0.639,7.92-0.383
					c1.248,0.109,2.998,0.229,3.703,0.639c0.769,0.446,1.396,1.493,1.858,2.823c-0.696,0.867-2.379,2.438-5.419,2.438h-6.75
					c-1.21,0-3.285-1.993-4.48-3.259C34.973,25.957,36.07,25.282,36.943,23.934z M51.25,34.28c-0.449,4.552-4.102,7.648-8.175,8.047
					c-8.409,0.82-10.996-4.479-14.435-9.196c-6.238-8.565-12.843-19.12-26.184-20.182c-0.047-0.59-0.156-0.734,0-1.277
					c0.072-0.184,0.2-0.312,0.384-0.383c4.942,0.155,9.261,1.678,12.518,4.087l2.811,2.044c0.478,0.342,0.896,0.871,1.404,1.277
					c1.367,1.091,2.898,2.318,4.344,3.448c1.634,1.277,4.243,3.131,6.835,3.847c-0.04,0.058-0.067,0.111-0.058,0.146
					c0,0,5.652,4.911,7.594,5.312c0.906,0.188,3.596,0,6.844,0c3.053,0,4.999-1.551,5.836-2.398
					C51.303,30.767,51.411,32.655,51.25,34.28z"/>
			</g>
		</g>
	</g>
</g>
<g>
</g>
<g>
</g>
<g>
</g>
<g>
</g>
<g>
</g>
<g>
</g>
<g>
</g>
<g>
</g>
<g>
</g>
<g>
</g>
<g>
</g>
<g>
</g>
<g>
</g>
<g>
</g>
<g>
</g>
</svg>
