<?xml version="1.0" encoding="iso-8859-1"?>
<!-- Generator: Adobe Illustrator 16.0.0, SVG Export Plug-In . SVG Version: 6.00 Build 0)  -->
<!DOCTYPE svg PUBLIC "-//W3C//DTD SVG 1.1//EN" "http://www.w3.org/Graphics/SVG/1.1/DTD/svg11.dtd">
<svg version="1.1" id="Capa_1" xmlns="http://www.w3.org/2000/svg" xmlns:xlink="http://www.w3.org/1999/xlink" x="0px" y="0px"
	 width="47px" height="47px" viewBox="0 0 47 47" style="enable-background:new 0 0 47 47;" xml:space="preserve">
<g>
	<g>
		<path d="M31.393,19.347c-1.17,0-2.472,1.705-2.472,4.155c0,2.449,1.3,4.154,2.472,4.154c1.166,0,2.469-1.705,2.469-4.154
			C33.861,21.052,32.557,19.347,31.393,19.347z"/>
		<path d="M30.236,10.444c-3.953,0-6.736,2.301-6.736,2.301s-2.784-2.301-6.736-2.301c-5.668,0-13.746,8.21-16.764,9.072
			c1.531,1.435,7.669,11.371,13.891,14.869c4.515,2.549,9.609,2.148,9.609,2.148s5.094,0.399,9.609-2.148
			C39.331,30.887,45.469,20.951,47,19.517C43.982,18.654,35.904,10.444,30.236,10.444z M31.393,30.355
			c-2.551,0-4.615-2.341-5.07-5.524c-0.032,0-0.062,0.021-0.096,0.021h-6.795v2.134c0,0.744-0.6,1.343-1.346,1.343
			c-0.745,0-1.35-0.599-1.35-1.343v-2.134H15.95v3.592c0,0.744-0.606,1.352-1.35,1.352c-0.746,0-1.348-0.606-1.348-1.352v-3.592
			h-1.457c-0.747,0-1.35-0.605-1.35-1.352c0-0.743,0.603-1.351,1.35-1.351h14.432c0.032,0,0.062,0.021,0.096,0.024
			c0.455-3.188,2.519-5.527,5.068-5.527c2.896,0,5.166,3.009,5.166,6.854C36.557,27.346,34.287,30.355,31.393,30.355z"/>
	</g>
</g>
<g>
</g>
<g>
</g>
<g>
</g>
<g>
</g>
<g>
</g>
<g>
</g>
<g>
</g>
<g>
</g>
<g>
</g>
<g>
</g>
<g>
</g>
<g>
</g>
<g>
</g>
<g>
</g>
<g>
</g>
</svg>
