<?xml version="1.0" encoding="iso-8859-1"?>
<!-- Generator: Adobe Illustrator 16.0.0, SVG Export Plug-In . SVG Version: 6.00 Build 0)  -->
<!DOCTYPE svg PUBLIC "-//W3C//DTD SVG 1.1//EN" "http://www.w3.org/Graphics/SVG/1.1/DTD/svg11.dtd">
<svg version="1.1" id="Capa_1" xmlns="http://www.w3.org/2000/svg" xmlns:xlink="http://www.w3.org/1999/xlink" x="0px" y="0px"
	 width="64px" height="64px" viewBox="0 0 64 64" style="enable-background:new 0 0 64 64;" xml:space="preserve">
<g>
	<g>
		<g id="circle_55_">
			<g>
				<path d="M32,0C14.327,0,0,14.327,0,32s14.327,32,32,32s32-14.327,32-32S49.673,0,32,0z M36,42.949V43H23v-0.102
					C20.165,42.42,18,39.97,18,37c0-3.312,2.687-6,6-6c0.018,0,0.033,0.005,0.051,0.005C24.554,25.396,29.261,21,35,21
					c6.075,0,11,4.925,11,11C46,37.736,41.605,42.443,36,42.949z M35,23c-0.305,0-0.604,0.016-0.9,0.046
					c-0.104,0.01-0.205,0.031-0.311,0.045c-0.188,0.025-0.379,0.049-0.562,0.086c-0.127,0.025-0.25,0.062-0.375,0.092
					c-0.156,0.039-0.314,0.074-0.469,0.121c-0.137,0.042-0.27,0.093-0.404,0.142c-0.134,0.048-0.27,0.093-0.401,0.146
					c-0.145,0.06-0.283,0.128-0.423,0.194c-0.115,0.055-0.23,0.106-0.343,0.165c-0.148,0.079-0.292,0.166-0.436,0.252
					c-0.095,0.058-0.192,0.112-0.285,0.174c-0.151,0.099-0.297,0.205-0.441,0.312c-0.077,0.058-0.156,0.113-0.231,0.173
					c-0.152,0.12-0.297,0.248-0.441,0.378c-0.06,0.055-0.121,0.107-0.18,0.164c-0.15,0.143-0.293,0.292-0.433,0.445
					c-0.045,0.05-0.091,0.098-0.135,0.148c-0.146,0.165-0.282,0.337-0.415,0.514c-0.032,0.042-0.064,0.084-0.095,0.127
					c-0.138,0.188-0.266,0.382-0.388,0.581c-0.021,0.035-0.042,0.068-0.062,0.104c-0.126,0.21-0.242,0.426-0.35,0.647
					c-0.013,0.025-0.025,0.052-0.038,0.077c-0.11,0.231-0.211,0.468-0.301,0.709c-0.007,0.018-0.014,0.036-0.02,0.054
					c-0.093,0.25-0.174,0.505-0.243,0.765l-0.009,0.032c-0.07,0.267-0.13,0.538-0.176,0.813c-0.001,0.005-0.001,0.01-0.002,0.014
					C26.052,31.003,26.015,31.495,26,32c-0.014,0.479,0,0.322,0,1h-2c-2.209,0-4,1.791-4,4s1.791,4,4,4h12v-0.059
					c0.803-0.09,1.57-0.287,2.296-0.573c0.041-0.017,0.083-0.028,0.124-0.045c0.182-0.074,0.355-0.161,0.532-0.247
					c0.077-0.037,0.157-0.071,0.231-0.111c0.157-0.083,0.309-0.175,0.459-0.266c0.09-0.055,0.181-0.105,0.268-0.162
					c0.139-0.092,0.271-0.188,0.404-0.286c0.093-0.067,0.186-0.134,0.274-0.205c0.123-0.098,0.241-0.201,0.359-0.305
					c0.092-0.081,0.184-0.163,0.272-0.248c0.107-0.104,0.213-0.212,0.316-0.321c0.089-0.095,0.176-0.189,0.261-0.288
					c0.097-0.108,0.188-0.222,0.277-0.336c0.084-0.106,0.165-0.216,0.243-0.325c0.082-0.115,0.162-0.229,0.238-0.349
					s0.149-0.241,0.221-0.364c0.068-0.117,0.137-0.234,0.199-0.354c0.069-0.134,0.133-0.269,0.194-0.403
					c0.056-0.119,0.11-0.238,0.16-0.359c0.06-0.146,0.11-0.295,0.162-0.443c0.041-0.118,0.085-0.236,0.12-0.357
					c0.05-0.16,0.088-0.326,0.128-0.49c0.026-0.115,0.059-0.229,0.082-0.345c0.036-0.188,0.062-0.379,0.087-0.571
					c0.013-0.098,0.031-0.193,0.042-0.293C43.984,32.598,44,32.301,44,32C44,27.029,39.971,23,35,23z"/>
			</g>
		</g>
	</g>
</g>
<g>
</g>
<g>
</g>
<g>
</g>
<g>
</g>
<g>
</g>
<g>
</g>
<g>
</g>
<g>
</g>
<g>
</g>
<g>
</g>
<g>
</g>
<g>
</g>
<g>
</g>
<g>
</g>
<g>
</g>
</svg>
