<?xml version="1.0" encoding="iso-8859-1"?>
<!-- Generator: Adobe Illustrator 16.0.0, SVG Export Plug-In . SVG Version: 6.00 Build 0)  -->
<!DOCTYPE svg PUBLIC "-//W3C//DTD SVG 1.1//EN" "http://www.w3.org/Graphics/SVG/1.1/DTD/svg11.dtd">
<svg version="1.1" id="Capa_1" xmlns="http://www.w3.org/2000/svg" xmlns:xlink="http://www.w3.org/1999/xlink" x="0px" y="0px"
	 width="64px" height="64px" viewBox="0 0 64 64" style="enable-background:new 0 0 64 64;" xml:space="preserve">
<g>
	<g>
		<g id="circle_53_">
			<g>
				<path d="M32.052,28h-0.104c-2.17,0.028-3.92,1.778-3.948,3.948v0.104c0.028,2.169,1.778,3.919,3.948,3.947h0.104
					c2.171-0.028,3.921-1.778,3.948-3.947v-0.104C35.973,29.778,34.223,28.028,32.052,28z M32,0C14.327,0,0,14.327,0,32
					s14.327,32,32,32s32-14.327,32-32S49.673,0,32,0z M42,33h-4.091c-0.423,2.507-2.4,4.477-4.909,4.898V42h-2v-4.102
					c-2.509-0.424-4.486-2.393-4.909-4.898H22v-2h4.101c0.424-2.509,2.394-4.486,4.899-4.909V22h2v4.091
					c2.507,0.423,4.477,2.4,4.898,4.909H42V33z"/>
			</g>
		</g>
	</g>
</g>
<g>
</g>
<g>
</g>
<g>
</g>
<g>
</g>
<g>
</g>
<g>
</g>
<g>
</g>
<g>
</g>
<g>
</g>
<g>
</g>
<g>
</g>
<g>
</g>
<g>
</g>
<g>
</g>
<g>
</g>
</svg>
