<?xml version="1.0" encoding="iso-8859-1"?>
<!-- Generator: Adobe Illustrator 16.0.0, SVG Export Plug-In . SVG Version: 6.00 Build 0)  -->
<!DOCTYPE svg PUBLIC "-//W3C//DTD SVG 1.1//EN" "http://www.w3.org/Graphics/SVG/1.1/DTD/svg11.dtd">
<svg version="1.1" id="Capa_1" xmlns="http://www.w3.org/2000/svg" xmlns:xlink="http://www.w3.org/1999/xlink" x="0px" y="0px"
	 width="62.51px" height="62.51px" viewBox="0 0 62.51 62.51" style="enable-background:new 0 0 62.51 62.51;" xml:space="preserve"
	>
<g>
	<g>
		<g id="aviator">
			<g>
				<path d="M61.887,27.376h-1.169c-0.019-0.082-0.036-0.169-0.057-0.237c-1.267-4.173-5.07-6.055-8.349-6.604
					c-1.399-0.445-4.363-0.591-8.26-0.615v-0.229H18.73v0.228c-4.026,0.021-7.1,0.161-8.534,0.616
					c-3.275,0.551-7.08,2.432-8.345,6.604c-0.021,0.069-0.039,0.156-0.058,0.238H0.625C0.279,27.376,0,27.657,0,28.001v1.093
					c0,0.346,0.277,0.624,0.625,0.624h0.986c0.043,2.737,0.763,6.729,2.895,9.604c2.529,2.299,5.124,3.496,8.276,3.496
					c5.37-0.002,10.807-3.291,12.62-6.234c1.231-1.998,2.541-4.125,3.054-5.637l0.068-0.206c0.205-0.602,0.438-0.938,0.534-1.414
					c0.125-0.618,0.151-1.354,0.119-2.104h4.155c-0.032,0.749-0.005,1.486,0.119,2.104c0.096,0.476,0.33,0.812,0.533,1.414
					l0.068,0.206c0.512,1.512,1.821,3.639,3.053,5.637c1.814,2.943,7.25,6.232,12.621,6.234c3.152,0,5.746-1.197,8.276-3.496
					c2.132-2.875,2.851-6.865,2.894-9.604h0.988c0.346,0,0.625-0.278,0.625-0.624v-1.093C62.512,27.657,62.232,27.376,61.887,27.376
					z M27.519,27.156c-0.165,1.934-1.401,5.107-4.368,9.195c-3.314,3.812-6.461,4.562-9.461,4.689c-2.546,0-5.155-0.775-7.024-2.248
					c-2.71-3.01-3.431-6.711-2.763-9.843c0.327-3.137,1.595-6.1,10.689-7.026c0.47-0.029,0.919-0.045,1.346-0.045
					C22.452,21.879,28.305,23.218,27.519,27.156z M33.623,24.958h-4.734c-0.15-0.68-0.34-1.263-0.551-1.611l-2.439-1.807
					c-0.11-0.043-0.886-0.603-1.542-1.03h13.797c-0.653,0.429-1.43,0.987-1.541,1.03l-2.438,1.807
					C33.963,23.695,33.773,24.278,33.623,24.958z M55.848,38.793c-1.869,1.473-4.479,2.248-7.025,2.248
					c-3-0.127-6.146-0.881-9.461-4.689c-2.965-4.088-4.201-7.262-4.366-9.195c-0.787-3.938,5.065-5.276,11.579-5.276
					c0.427,0,0.876,0.016,1.346,0.045c9.098,0.927,10.359,3.89,10.688,7.026C59.275,32.086,58.559,35.787,55.848,38.793z
					 M54.559,24.677c-0.107-0.233-0.389-0.336-0.623-0.227c-0.232,0.109-0.336,0.388-0.227,0.623l3.004,6.452
					c0.107,0.232,0.389,0.335,0.623,0.227c0.232-0.106,0.336-0.388,0.227-0.622L54.559,24.677z M52.997,26.239
					c-0.108-0.234-0.39-0.336-0.622-0.228c-0.234,0.109-0.336,0.389-0.229,0.622l2.066,4.893c0.109,0.231,0.389,0.335,0.622,0.228
					c0.231-0.107,0.336-0.389,0.228-0.623L52.997,26.239z"/>
			</g>
		</g>
	</g>
</g>
<g>
</g>
<g>
</g>
<g>
</g>
<g>
</g>
<g>
</g>
<g>
</g>
<g>
</g>
<g>
</g>
<g>
</g>
<g>
</g>
<g>
</g>
<g>
</g>
<g>
</g>
<g>
</g>
<g>
</g>
</svg>
