<?xml version="1.0" encoding="iso-8859-1"?>
<!-- Generator: Adobe Illustrator 16.0.0, SVG Export Plug-In . SVG Version: 6.00 Build 0)  -->
<!DOCTYPE svg PUBLIC "-//W3C//DTD SVG 1.1//EN" "http://www.w3.org/Graphics/SVG/1.1/DTD/svg11.dtd">
<svg version="1.1" id="Capa_1" xmlns="http://www.w3.org/2000/svg" xmlns:xlink="http://www.w3.org/1999/xlink" x="0px" y="0px"
	 width="64px" height="64px" viewBox="0 0 64 64" style="enable-background:new 0 0 64 64;" xml:space="preserve">
<g>
	<g>
		<g id="circle_54_">
			<g>
				<path d="M32,0C14.327,0,0,14.327,0,32s14.327,32,32,32s32-14.327,32-32S49.673,0,32,0z M38,18h2v6h-2V18z M40,28
					c1.104,0,2,0.896,2,2s-0.896,2-2,2s-2-0.896-2-2S38.896,28,40,28z M40,36c1.104,0,2,0.896,2,2s-0.896,2-2,2s-2-0.896-2-2
					S38.896,36,40,36z M28,20h8v2h-8V20z M32,32c-1.104,0-2-0.896-2-2s0.896-2,2-2c1.104,0,2,0.896,2,2S33.104,32,32,32z M34,38
					c0,1.104-0.896,2-2,2c-1.104,0-2-0.896-2-2s0.896-2,2-2C33.104,36,34,36.896,34,38z M24,18h2v6h-2V18z M24,28
					c1.104,0,2,0.896,2,2s-0.896,2-2,2s-2-0.896-2-2S22.896,28,24,28z M26,38c0,1.104-0.896,2-2,2s-2-0.896-2-2s0.896-2,2-2
					S26,36.896,26,38z M48,43c0,2.209-1.791,4-4,4H20c-2.209,0-4-1.791-4-4V24c0-2.209,1.791-4,4-4h2v2h-2c-1.104,0-2,0.896-2,2v19
					c0,1.104,0.896,2,2,2h24c1.104,0,2-0.896,2-2V24c0-1.104-0.896-2-2-2h-2v-2h2c2.209,0,4,1.791,4,4V43z"/>
			</g>
		</g>
	</g>
</g>
<g>
</g>
<g>
</g>
<g>
</g>
<g>
</g>
<g>
</g>
<g>
</g>
<g>
</g>
<g>
</g>
<g>
</g>
<g>
</g>
<g>
</g>
<g>
</g>
<g>
</g>
<g>
</g>
<g>
</g>
</svg>
