<?xml version="1.0" encoding="iso-8859-1"?>
<!-- Generator: Adobe Illustrator 16.0.0, SVG Export Plug-In . SVG Version: 6.00 Build 0)  -->
<!DOCTYPE svg PUBLIC "-//W3C//DTD SVG 1.1//EN" "http://www.w3.org/Graphics/SVG/1.1/DTD/svg11.dtd">
<svg version="1.1" id="Capa_1" xmlns="http://www.w3.org/2000/svg" xmlns:xlink="http://www.w3.org/1999/xlink" x="0px" y="0px"
	 width="52.33px" height="52.33px" viewBox="0 0 52.33 52.33" style="enable-background:new 0 0 52.33 52.33;" xml:space="preserve"
	>
<g>
	<g>
		<g id="microphone">
			<g>
				<path d="M32.789,43.057H27.49v-4.041c7.151-0.672,12.772-6.705,12.772-14.033v-7.098c0-0.731-0.593-1.325-1.325-1.325h-1.365
					c-0.73,0-1.324,0.594-1.324,1.325c0,0.732,0.594,1.326,1.324,1.326l0.041,5.771c0,6.312-5.135,11.45-11.448,11.45
					s-11.451-5.137-11.451-11.45v-5.771h0.043c0.731,0,1.325-0.594,1.325-1.326c0-0.731-0.594-1.325-1.325-1.325h-1.368
					c-0.731,0-1.325,0.594-1.325,1.325v7.098c0,7.328,5.62,13.361,12.776,14.033v4.039h-5.299c-4.383,0-7.949,3.567-7.949,7.95
					c0,0.731,0.594,1.325,1.325,1.325h26.495c0.731,0,1.326-0.594,1.326-1.325C40.738,46.622,37.172,43.057,32.789,43.057z
					 M14.409,49.682c0.589-2.283,2.668-3.975,5.132-3.975h13.248c2.464,0,4.541,1.689,5.132,3.975H14.409z M26.165,32.459
					c4.383,0,7.948-3.566,7.948-7.95V7.948C34.113,3.566,30.548,0,26.165,0c-4.383,0-7.949,3.566-7.949,7.949v16.56
					C18.216,28.893,21.782,32.459,26.165,32.459z M20.866,7.948c0-2.921,2.378-5.298,5.299-5.298c2.921,0,5.299,2.377,5.299,5.298
					v16.561c0,2.921-2.378,5.3-5.299,5.3c-2.921,0-5.299-2.379-5.299-5.3V7.948z M24.297,11.906c0.69,0,1.25-0.592,1.25-1.323
					c0-0.73-0.56-1.323-1.25-1.323s-1.25,0.593-1.25,1.323C23.047,11.314,23.607,11.906,24.297,11.906z M27.164,10.583
					c0,0.731,0.56,1.323,1.25,1.323c0.689,0,1.25-0.592,1.25-1.323c0-0.73-0.561-1.323-1.25-1.323
					C27.724,9.26,27.164,9.853,27.164,10.583z M26.356,7.789c0.69,0,1.25-0.593,1.25-1.323s-0.56-1.323-1.25-1.323
					s-1.25,0.593-1.25,1.323S25.665,7.789,26.356,7.789z"/>
			</g>
		</g>
	</g>
</g>
<g>
</g>
<g>
</g>
<g>
</g>
<g>
</g>
<g>
</g>
<g>
</g>
<g>
</g>
<g>
</g>
<g>
</g>
<g>
</g>
<g>
</g>
<g>
</g>
<g>
</g>
<g>
</g>
<g>
</g>
</svg>
