<?xml version="1.0" encoding="iso-8859-1"?>
<!-- Generator: Adobe Illustrator 16.0.0, SVG Export Plug-In . SVG Version: 6.00 Build 0)  -->
<!DOCTYPE svg PUBLIC "-//W3C//DTD SVG 1.1//EN" "http://www.w3.org/Graphics/SVG/1.1/DTD/svg11.dtd">
<svg version="1.1" id="Capa_1" xmlns="http://www.w3.org/2000/svg" xmlns:xlink="http://www.w3.org/1999/xlink" x="0px" y="0px"
	 width="64px" height="64px" viewBox="0 0 64 64" style="enable-background:new 0 0 64 64;" xml:space="preserve">
<g>
	<g>
		<g id="circle_58_">
			<g>
				<path d="M32,0C14.327,0,0,14.327,0,32c0,17.674,14.327,32,32,32s32-14.326,32-32C64,14.327,49.673,0,32,0z M36,19
					c0-0.553,0.447-1,1-1s1,0.447,1,1v2c0,0.553-0.447,1-1,1s-1-0.447-1-1V19z M32,17c0-0.553,0.447-1,1-1s1,0.447,1,1v4
					c0,0.553-0.447,1-1,1s-1-0.447-1-1V17z M28,15c0-0.553,0.447-1,1-1s1,0.447,1,1v6c0,0.553-0.447,1-1,1s-1-0.447-1-1V15z M24,19
					c0-0.553,0.447-1,1-1s1,0.447,1,1v2c0,0.553-0.447,1-1,1s-1-0.447-1-1V19z M42,40.898V43c0,2.209-1.791,4-4,4H24
					c-2.209,0-4-1.791-4-4V23h22v4.101c3.389,0.489,6,3.376,6,6.899C48,37.523,45.389,40.41,42,40.898z M42,29.101V38.9
					c2.282-0.465,4-2.48,4-4.899S44.282,29.564,42,29.101z M22,43c0,1.104,0.896,2,2,2h14c1.104,0,2-0.896,2-2V25H22V43z"/>
			</g>
		</g>
	</g>
</g>
<g>
</g>
<g>
</g>
<g>
</g>
<g>
</g>
<g>
</g>
<g>
</g>
<g>
</g>
<g>
</g>
<g>
</g>
<g>
</g>
<g>
</g>
<g>
</g>
<g>
</g>
<g>
</g>
<g>
</g>
</svg>
