<?xml version="1.0" encoding="iso-8859-1"?>
<!-- Generator: Adobe Illustrator 16.0.0, SVG Export Plug-In . SVG Version: 6.00 Build 0)  -->
<!DOCTYPE svg PUBLIC "-//W3C//DTD SVG 1.1//EN" "http://www.w3.org/Graphics/SVG/1.1/DTD/svg11.dtd">
<svg version="1.1" id="Capa_1" xmlns="http://www.w3.org/2000/svg" xmlns:xlink="http://www.w3.org/1999/xlink" x="0px" y="0px"
	 width="64px" height="64px" viewBox="0 0 64 64" style="enable-background:new 0 0 64 64;" xml:space="preserve">
<g>
	<g>
		<g id="circle_56_">
			<g>
				<path d="M22,22l-4,11c0,0,4.378,0,7,0c1.043,0,2,1.085,2,2c0,1.072,0,2,0,2h10c0,0,0-0.943,0-2c0-0.938,0.843-2,2-2
					c2.65,0,7,0,7,0l-4-11H22z M39,37c0,1.104-0.896,2-2,2H27c-1.104,0-2-0.896-2-2v-2h-7v8h28v-8h-7V37z M32,0
					C14.327,0,0,14.327,0,32s14.327,32,32,32s32-14.327,32-32S49.673,0,32,0z M48,35v8c0,1.104-0.896,2-2,2H18c-1.104,0-2-0.896-2-2
					v-8c0-0.366,0.105-0.705,0.277-1C16.105,33.705,16,33.366,16,33l4-11c0-1.104,0.896-2,2-2h20c1.104,0,2,0.896,2,2l4,11
					c0,0.366-0.105,0.705-0.277,1C47.895,34.295,48,34.634,48,35z"/>
			</g>
		</g>
	</g>
</g>
<g>
</g>
<g>
</g>
<g>
</g>
<g>
</g>
<g>
</g>
<g>
</g>
<g>
</g>
<g>
</g>
<g>
</g>
<g>
</g>
<g>
</g>
<g>
</g>
<g>
</g>
<g>
</g>
<g>
</g>
</svg>
