<?xml version="1.0" encoding="iso-8859-1"?>
<!-- Generator: Adobe Illustrator 16.0.0, SVG Export Plug-In . SVG Version: 6.00 Build 0)  -->
<!DOCTYPE svg PUBLIC "-//W3C//DTD SVG 1.1//EN" "http://www.w3.org/Graphics/SVG/1.1/DTD/svg11.dtd">
<svg version="1.1" id="Capa_1" xmlns="http://www.w3.org/2000/svg" xmlns:xlink="http://www.w3.org/1999/xlink" x="0px" y="0px"
	 width="59.364px" height="59.364px" viewBox="0 0 59.364 59.364" style="enable-background:new 0 0 59.364 59.364;"
	 xml:space="preserve">
<g>
	<g>
		<g id="cigar">
			<g>
				<path d="M58.666,15.597L50.178,5.126c-1.089-1.343-3.059-1.549-4.402-0.46l-1.062,0.862c-0.165,0.134-0.312,0.28-0.441,0.437
					c-0.18,0.096-0.354,0.208-0.52,0.342L42.688,7.17c-0.15,0.122-0.285,0.255-0.407,0.396c-0.303,0.115-0.594,0.28-0.859,0.495
					l-9.87,8.001c-0.511,0.414-0.863,0.963-1.036,1.562c-0.631,0.046-1.24,0.283-1.742,0.688l-1.538,1.246
					C14.497,29.887,6.12,38.213,2.34,44.302c-1.417,2.282-2.174,4.217-2.316,5.913c-0.16,1.887,0.498,3.007,0.907,3.512
					c0.406,0.501,1.367,1.378,3.246,1.61c1.689,0.212,3.738-0.129,6.264-1.043c6.74-2.438,16.617-8.912,29.357-19.24l1.57-1.271
					c0.503-0.408,0.861-0.956,1.038-1.565c0.622-0.045,1.232-0.275,1.744-0.689l9.83-7.971c0.266-0.215,0.486-0.464,0.661-0.736
					c0.165-0.091,0.324-0.195,0.476-0.317l1.063-0.863c0.165-0.134,0.312-0.281,0.442-0.438c0.18-0.095,0.354-0.207,0.519-0.341
					L58.206,20C59.548,18.909,59.754,16.94,58.666,15.597z M37.827,32.623C7.514,57.197,3.36,51.754,3.36,51.754
					s-4.467-5.188,25.846-29.764l1.539-1.246c0.298,0.593,0.61,1.177,0.943,1.748c-1.362,1.747-1.328,4.362,0.224,6.275
					c1.568,1.937,4.164,2.505,6.166,1.48c0.429,0.379,0.87,0.746,1.319,1.102L37.827,32.623z M34.155,24.418
					c0.125-0.159,0.232-0.327,0.321-0.503c0.205,0.016,0.413,0.011,0.623-0.015c0.655-0.081,1.354,0.229,1.822,0.807
					c0.46,0.567,0.621,1.306,0.42,1.926c-0.064,0.2-0.108,0.404-0.131,0.609c-0.191,0.054-0.377,0.127-0.558,0.219
					c-0.714,0.365-1.708,0.079-2.311-0.665C33.66,25.953,33.731,24.962,34.155,24.418z M42.181,29.094
					c-0.639-0.476-1.264-0.971-1.86-1.497c0.509-1.57,0.205-3.415-0.967-4.86c-1.189-1.469-2.971-2.146-4.635-1.942
					c-0.437-0.744-0.829-1.516-1.196-2.3l9.87-8.001l8.619,10.632L42.181,29.094z M53.146,20.071l-8.487-10.47l1.063-0.862
					l8.488,10.47L53.146,20.071z M55.172,18.429l-8.488-10.47l1.063-0.862l8.487,10.471L55.172,18.429z"/>
			</g>
		</g>
	</g>
</g>
<g>
</g>
<g>
</g>
<g>
</g>
<g>
</g>
<g>
</g>
<g>
</g>
<g>
</g>
<g>
</g>
<g>
</g>
<g>
</g>
<g>
</g>
<g>
</g>
<g>
</g>
<g>
</g>
<g>
</g>
</svg>
