<?xml version="1.0" encoding="iso-8859-1"?>
<!-- Generator: Adobe Illustrator 16.0.0, SVG Export Plug-In . SVG Version: 6.00 Build 0)  -->
<!DOCTYPE svg PUBLIC "-//W3C//DTD SVG 1.1//EN" "http://www.w3.org/Graphics/SVG/1.1/DTD/svg11.dtd">
<svg version="1.1" id="Capa_1" xmlns="http://www.w3.org/2000/svg" xmlns:xlink="http://www.w3.org/1999/xlink" x="0px" y="0px"
	 width="57.117px" height="57.118px" viewBox="0 0 57.117 57.118" style="enable-background:new 0 0 57.117 57.118;"
	 xml:space="preserve">
<g>
	<g>
		<g id="graduate">
			<g>
				<path d="M28.896,36.641c-5.288,0-9.577,1.072-9.577,2.396c0,1.319,4.289,2.394,9.577,2.394c5.29,0,9.579-1.074,9.579-2.394
					C38.475,37.713,34.186,36.641,28.896,36.641z M55.277,22.899l-24.162-11.97c-0.465-0.229-0.967-0.345-1.471-0.345
					c-0.463,0-0.922,0.099-1.354,0.292L1.955,22.7C0.765,23.232,0,24.416,0,25.717v0.047c0.018,1.318,0.817,2.502,2.034,3.007
					c0,0,2.18,0.905,3.952,1.646v1.94c-0.617,0.836-0.972,1.859-0.972,2.938c0,0.797,0.189,1.559,0.533,2.238
					c-0.281,0.785-0.564,1.587-0.564,1.587c-0.13,0.36-0.193,0.737-0.193,1.108c0,0.674,0.207,1.345,0.604,1.91
					c0.621,0.881,1.629,1.403,2.705,1.403h3.591c1.077,0,2.088-0.522,2.706-1.403c0.126-0.184,0.235-0.373,0.323-0.572
					c0.119,0.237,0.267,0.463,0.442,0.67c0.617,0.717,4.151,4.296,13.286,4.296c8.991,0,13.562-3.479,14.049-3.878
					c0.779-0.629,1.232-1.571,1.232-2.572c0,0,0-4.396,0-6.604c0.119-0.051,11.312-4.543,11.312-4.543
					c1.21-0.487,2.024-1.639,2.073-2.939c0.004-0.046,0.004-0.088,0.004-0.134C57.117,24.608,56.408,23.458,55.277,22.899z
					 M14.364,37.897c-0.031-0.088-0.035-0.1-0.07-0.192c0.024-0.043,0.049-0.085,0.07-0.127V37.897z M40.418,40.083
					c0.001,0-3.889,3.141-11.971,3.141c-8.078,0-10.774-3.141-10.774-3.141v-8.381c0,0,3.741-4.04,11.375-4.04
					c7.63,0,11.37,4.04,11.37,4.04V40.083z M42.438,30.43c0,0-5.502-5.611-13.092-5.611c-7.412,0-14.739,5.611-14.739,5.611
					l-4.113-1.715v5.039c0.649,0.223,1.123,0.814,1.123,1.541c0,0.729-0.484,1.327-1.145,1.544l1.218,3.394H8.099l1.226-3.424
					c-0.589-0.25-1-0.832-1-1.514c0-0.67,0.4-1.238,0.973-1.495v-5.587L3.31,25.717l26.334-11.822l24.164,11.971L42.438,30.43z"/>
			</g>
		</g>
	</g>
</g>
<g>
</g>
<g>
</g>
<g>
</g>
<g>
</g>
<g>
</g>
<g>
</g>
<g>
</g>
<g>
</g>
<g>
</g>
<g>
</g>
<g>
</g>
<g>
</g>
<g>
</g>
<g>
</g>
<g>
</g>
</svg>
