<?xml version="1.0" encoding="iso-8859-1"?>
<!-- Generator: Adobe Illustrator 16.0.0, SVG Export Plug-In . SVG Version: 6.00 Build 0)  -->
<!DOCTYPE svg PUBLIC "-//W3C//DTD SVG 1.1//EN" "http://www.w3.org/Graphics/SVG/1.1/DTD/svg11.dtd">
<svg version="1.1" id="Capa_1" xmlns="http://www.w3.org/2000/svg" xmlns:xlink="http://www.w3.org/1999/xlink" x="0px" y="0px"
	 width="47px" height="47px" viewBox="0 0 47 47" style="enable-background:new 0 0 47 47;" xml:space="preserve">
<g>
	<g>
		<path d="M36.308,0H10.692C8.106,0,5.992,2.115,5.992,4.7v37.6c0,2.584,2.115,4.7,4.701,4.7h25.616c2.586,0,4.7-2.115,4.7-4.7V4.7
			C41.009,2.115,38.894,0,36.308,0z M35.933,35.523c0,0.516-0.42,0.939-0.938,0.939H11.717c-0.518,0-0.941-0.424-0.941-0.939
			L10.774,5.777c0-0.518,0.425-0.94,0.941-0.94h23.278c0.518,0,0.938,0.422,0.938,0.94v29.747H35.933z"/>
		<path d="M25.838,18.922c1.614-0.842,2.722-2.517,2.722-4.464c0-2.798-2.263-5.059-5.059-5.059c-2.792,0-5.059,2.261-5.059,5.059
			c0,1.947,1.106,3.621,2.721,4.464l-2.808,9.877c-0.053,0.116-0.087,0.234-0.087,0.355l0,0c0.001,1.109,2.343,2.012,5.231,2.012
			c2.889,0,5.23-0.902,5.23-2.012l0,0c0-0.122-0.033-0.24-0.086-0.355L25.838,18.922z"/>
	</g>
</g>
<g>
</g>
<g>
</g>
<g>
</g>
<g>
</g>
<g>
</g>
<g>
</g>
<g>
</g>
<g>
</g>
<g>
</g>
<g>
</g>
<g>
</g>
<g>
</g>
<g>
</g>
<g>
</g>
<g>
</g>
</svg>
