<?xml version="1.0" encoding="iso-8859-1"?>
<!-- Generator: Adobe Illustrator 16.0.0, SVG Export Plug-In . SVG Version: 6.00 Build 0)  -->
<!DOCTYPE svg PUBLIC "-//W3C//DTD SVG 1.1//EN" "http://www.w3.org/Graphics/SVG/1.1/DTD/svg11.dtd">
<svg version="1.1" id="Capa_1" xmlns="http://www.w3.org/2000/svg" xmlns:xlink="http://www.w3.org/1999/xlink" x="0px" y="0px"
	 width="55.322px" height="55.322px" viewBox="0 0 55.322 55.322" style="enable-background:new 0 0 55.322 55.322;"
	 xml:space="preserve">
<g>
	<g>
		<g id="player">
			<g>
				<path d="M41.093,23.897l0.001-0.046c1.047-0.134,1.872-0.997,1.898-2.085c0.027-1.087-0.756-1.99-1.793-2.176l0.001-0.046
					c-1.2-0.029-2.2,0.922-2.229,2.123C38.941,22.871,39.893,23.867,41.093,23.897z M30.792,27.46l-1.533,0.001
					c-0.317,0-0.575,0.258-0.575,0.575c0,0.318,0.256,0.575,0.573,0.574h1.535c0.317,0.001,0.575-0.257,0.575-0.575
					C31.368,27.719,31.109,27.461,30.792,27.46z M26.216,27.462l-1.533-0.001c-0.317,0-0.575,0.258-0.575,0.575
					c0,0.318,0.257,0.575,0.576,0.576l1.534-0.001c0.317-0.001,0.574-0.258,0.574-0.574C26.792,27.719,26.535,27.461,26.216,27.462z
					 M19.113,23.049c-0.009-0.023-0.015-0.047-0.025-0.069c-0.046-0.102-0.109-0.191-0.184-0.273
					c-0.025-0.027-0.051-0.052-0.079-0.077c-0.016-0.015-0.029-0.032-0.046-0.046c0.005,0.007,0.008,0.017,0.013,0.023
					c-0.187-0.155-0.417-0.26-0.68-0.26l-1.613-0.001v-0.173v-1.44c0-0.133-0.031-0.258-0.075-0.375
					c-0.009-0.022-0.015-0.045-0.025-0.067c-0.047-0.101-0.11-0.191-0.184-0.273c-0.025-0.027-0.051-0.053-0.08-0.077
					c-0.016-0.015-0.029-0.032-0.046-0.046c0.005,0.007,0.008,0.016,0.013,0.023c-0.187-0.155-0.417-0.26-0.679-0.26h-1.075
					c-0.595-0.001-1.077,0.481-1.076,1.076l-0.001,1.613h-1.612c-0.595-0.001-1.077,0.481-1.076,1.077v1.074
					c0,0.262,0.104,0.492,0.259,0.679c-0.007-0.005-0.016-0.007-0.022-0.013c0.013,0.017,0.03,0.029,0.044,0.045
					c0.026,0.029,0.051,0.056,0.08,0.081c0.082,0.074,0.172,0.137,0.272,0.184c0.022,0.011,0.045,0.017,0.068,0.025
					c0.117,0.045,0.241,0.075,0.375,0.075H13.1v-0.001h0.173v1.614c0,0.262,0.104,0.493,0.26,0.68
					c-0.007-0.005-0.017-0.007-0.023-0.013c0.014,0.017,0.031,0.03,0.046,0.047c0.024,0.027,0.048,0.052,0.076,0.077
					c0.082,0.075,0.174,0.139,0.276,0.186c0.021,0.01,0.042,0.016,0.064,0.023c0.118,0.045,0.242,0.075,0.376,0.075l1.076,0.001
					c0.594,0,1.077-0.481,1.077-1.076v-1.612l1.614-0.001c0.594,0,1.076-0.482,1.076-1.076v-1.076
					C19.188,23.29,19.157,23.165,19.113,23.049z M37.484,23.126v-0.044c-0.057-0.002-0.109,0.01-0.164,0.012
					c0,0,0.002,0,0.003,0.001c-1.128,0.056-2.039,0.963-2.066,2.109c-0.028,1.146,0.839,2.098,1.961,2.208
					c-0.001,0-0.002,0.001-0.004,0.001c0.056,0.005,0.106,0.019,0.164,0.02l0.001-0.044c1.046-0.135,1.871-0.999,1.896-2.085
					C39.303,24.217,38.521,23.314,37.484,23.126z M54.583,32.671c-0.11-0.426-0.215-0.83-0.297-1.205
					c-0.167-0.76-0.322-1.538-0.485-2.363c-0.171-0.859-0.347-1.747-0.553-2.699c-0.161-0.738-0.312-1.545-0.473-2.4
					c-0.533-2.836-1.084-5.768-2.235-8.017c-0.976-1.907-2.613-3.634-4.613-4.864c-2.149-1.322-4.597-2.02-7.077-2.02
					c-1.304,0-2.606,0.193-3.873,0.574c-1.313,0.396-2.369,1.114-3.299,1.748c-0.83,0.566-1.548,1.056-2.21,1.164
					c-0.602,0.099-1.153,0.149-1.642,0.149c-1.575,0-2.343-0.479-3.617-1.273c-0.98-0.612-2.091-1.305-3.649-1.783
					c-1.161-0.356-2.592-0.43-3.588-0.43c-0.514,0-1.025,0.021-1.48,0.06c-4.361,0.386-8.155,2.572-10.15,5.849
					c-1.372,2.252-1.912,5.052-2.485,8.016c-0.18,0.93-0.365,1.891-0.575,2.807L1.76,28.309c-0.211,0.95-0.43,1.933-0.646,2.871
					c-0.103,0.444-0.222,0.897-0.348,1.377C0.388,33.987,0,35.464,0,36.943l0.004,0.281v-0.005c0.085,2.458,1.129,4.745,2.943,6.44
					c1.764,1.65,4.047,2.56,6.43,2.56c1.384,0,2.733-0.306,4.008-0.911c2.13-1.012,3.466-2.842,4.539-4.312
					c0,0,0.133-0.182,0.134-0.184c0.274-0.376,0.53-0.775,0.777-1.162c0.346-0.541,0.987-1.541,1.33-1.74
					c0.469-0.134,1.102-0.195,1.988-0.195c0.701,0,1.488,0.039,2.323,0.08c0.972,0.049,2.073,0.103,3.22,0.103
					c0.895,0,1.869-0.052,2.811-0.103c0.923-0.051,1.878-0.103,2.726-0.103c1.135,0,1.713,0.095,2.006,0.179
					c0.07,0.047,0.294,0.222,0.678,0.699c0.375,0.469,0.729,1.01,1.042,1.487c0.17,0.262,0.332,0.51,0.485,0.724l0.314,0.45
					c1.027,1.476,2.307,3.312,4.649,4.269c1.128,0.461,2.313,0.692,3.522,0.692c1.922,0,3.87-0.61,5.487-1.722
					c1.61-1.106,2.829-2.654,3.427-4.359c0.318-0.902,0.479-1.886,0.479-2.922C55.324,35.541,54.93,34.017,54.583,32.671z
					 M52.277,39.207c-1.066,3.039-5.09,5.305-8.844,3.771c-1.787-0.73-2.744-2.323-3.771-3.771
					c-0.688-0.971-2.035-3.414-3.513-3.901c-2.02-0.666-5.742-0.13-8.455-0.13c-3.34,0-6.216-0.487-8.324,0.13
					c-1.585,0.464-2.547,2.58-3.512,3.901c-0.969,1.326-2.063,2.895-3.642,3.643c-4.379,2.074-9.337-1.104-9.495-5.723
					c-0.054-1.584,0.612-3.481,1.04-5.334c0.399-1.725,0.791-3.541,1.171-5.202c0.839-3.67,1.218-7.529,2.731-10.016
					c1.636-2.686,4.77-4.261,8.064-4.552c1.175-0.104,2.979-0.062,4.032,0.26c3.614,1.111,4.499,3.917,10.145,2.991
					c2.275-0.373,3.816-2.379,5.853-2.991c5.441-1.638,10.523,1.359,12.356,4.942c1.296,2.531,1.797,6.658,2.471,9.755
					c0.402,1.846,0.689,3.482,1.041,5.072C52.107,34.23,53.124,36.802,52.277,39.207z M41.021,26.842v-0.044
					c-0.056-0.002-0.109,0.01-0.164,0.012c0,0,0.002,0,0.002,0.001c-1.127,0.056-2.041,0.963-2.068,2.108
					c-0.027,1.147,0.839,2.099,1.962,2.209c-0.001,0-0.002,0-0.004,0c0.056,0.007,0.108,0.02,0.165,0.021l0.001-0.044
					c1.046-0.136,1.872-0.998,1.897-2.085C42.84,27.932,42.059,27.029,41.021,26.842z M44.736,23.305l0.002-0.044
					c-0.059-0.002-0.11,0.01-0.166,0.012c0.001,0,0.002,0.001,0.003,0.001c-1.127,0.056-2.039,0.964-2.066,2.11
					c-0.028,1.144,0.837,2.094,1.958,2.208c0,0,0,0-0.001,0c0.056,0.005,0.106,0.019,0.165,0.021l0.001-0.045
					c1.046-0.136,1.871-0.998,1.897-2.085C46.555,24.396,45.775,23.493,44.736,23.305z"/>
			</g>
		</g>
	</g>
</g>
<g>
</g>
<g>
</g>
<g>
</g>
<g>
</g>
<g>
</g>
<g>
</g>
<g>
</g>
<g>
</g>
<g>
</g>
<g>
</g>
<g>
</g>
<g>
</g>
<g>
</g>
<g>
</g>
<g>
</g>
</svg>
