<?xml version="1.0" encoding="iso-8859-1"?>
<!-- Generator: Adobe Illustrator 16.0.0, SVG Export Plug-In . SVG Version: 6.00 Build 0)  -->
<!DOCTYPE svg PUBLIC "-//W3C//DTD SVG 1.1//EN" "http://www.w3.org/Graphics/SVG/1.1/DTD/svg11.dtd">
<svg version="1.1" id="Capa_1" xmlns="http://www.w3.org/2000/svg" xmlns:xlink="http://www.w3.org/1999/xlink" x="0px" y="0px"
	 width="64px" height="64px" viewBox="0 0 64 64" style="enable-background:new 0 0 64 64;" xml:space="preserve">
<g>
	<g>
		<g id="circle_60_">
			<g>
				<path d="M32,0C14.327,0,0,14.327,0,32c0,17.674,14.327,32,32,32s32-14.326,32-32C64,14.327,49.673,0,32,0z M39,41
					c0,2.762-2.238,5-5,5c-2.762,0-5-2.238-5-5c0-0.344,0.043-0.677,0.109-1H29V25c0-1.657,1.343-3,3-3s3,1.343,3,3v15h-2V25
					c0-0.553-0.447-1-1-1c-0.553,0-1,0.447-1,1v16c0,1.657,1.344,3,3,3c1.657,0,3-1.343,3-3V25c0-2.762-2.238-5-5-5
					c-2.762,0-5,2.238-5,5v15h-2V25c0-3.866,3.134-7,7-7c3.525,0,6.436,2.609,6.921,6H39V41z"/>
			</g>
		</g>
	</g>
</g>
<g>
</g>
<g>
</g>
<g>
</g>
<g>
</g>
<g>
</g>
<g>
</g>
<g>
</g>
<g>
</g>
<g>
</g>
<g>
</g>
<g>
</g>
<g>
</g>
<g>
</g>
<g>
</g>
<g>
</g>
</svg>
