<?xml version="1.0" encoding="iso-8859-1"?>
<!-- Generator: Adobe Illustrator 16.0.0, SVG Export Plug-In . SVG Version: 6.00 Build 0)  -->
<!DOCTYPE svg PUBLIC "-//W3C//DTD SVG 1.1//EN" "http://www.w3.org/Graphics/SVG/1.1/DTD/svg11.dtd">
<svg version="1.1" id="Capa_1" xmlns="http://www.w3.org/2000/svg" xmlns:xlink="http://www.w3.org/1999/xlink" x="0px" y="0px"
	 width="47px" height="47px" viewBox="0 0 47 47" style="enable-background:new 0 0 47 47;" xml:space="preserve">
<g>
	<path d="M40.286,0H6.714C3.021,0,0,3.021,0,6.714v33.572C0,43.979,3.021,47,6.714,47h33.572C43.979,47,47,43.979,47,40.286V6.714
		C47,3.021,43.979,0,40.286,0z M27.5,40.414h-8l1.785-8.602c-1.528-0.802-2.585-2.387-2.585-4.235c0-2.65,2.151-4.798,4.801-4.798
		c2.649,0,4.798,2.147,4.798,4.798c0,1.849-1.056,3.437-2.587,4.235L27.5,40.414z M42.3,16.786H4.7V8.729
		C4.7,6.513,6.513,4.7,8.729,4.7h29.542c2.215,0,4.028,1.813,4.028,4.029V16.786z"/>
</g>
<g>
</g>
<g>
</g>
<g>
</g>
<g>
</g>
<g>
</g>
<g>
</g>
<g>
</g>
<g>
</g>
<g>
</g>
<g>
</g>
<g>
</g>
<g>
</g>
<g>
</g>
<g>
</g>
<g>
</g>
</svg>
