<?xml version="1.0" encoding="iso-8859-1"?>
<!-- Generator: Adobe Illustrator 16.0.0, SVG Export Plug-In . SVG Version: 6.00 Build 0)  -->
<!DOCTYPE svg PUBLIC "-//W3C//DTD SVG 1.1//EN" "http://www.w3.org/Graphics/SVG/1.1/DTD/svg11.dtd">
<svg version="1.1" id="Capa_1" xmlns="http://www.w3.org/2000/svg" xmlns:xlink="http://www.w3.org/1999/xlink" x="0px" y="0px"
	 width="949.497px" height="949.497px" viewBox="0 0 949.497 949.497" style="enable-background:new 0 0 949.497 949.497;"
	 xml:space="preserve">
<g>
	<path d="M328.974,333.353c-68.096,0-118.99,41.509-155.592,126.904c-48.735,113.721-39.15,244.807,25.003,342.107
		c22.321,33.854,51.642,64.688,86.754,85.938c17.621,10.664,36.753,18.887,56.806,23.693c22.994,5.512,46.72,5.267,69.597,11.727
		c13.114,3.703,24.777,9.213,36.476,15.989c22.072,12.785,27.663,13.952,51.973-1.926c13.438-8.777,25.6-14.872,41.36-17.805
		c30.438-5.664,60.137-6.512,89.498-17.396c27.507-10.197,52.745-25.768,74.299-45.658c17.35-16.022,32.943-34.844,45.945-54.561
		c64.182-97.29,73.758-228.376,25.012-342.107c-36.593-85.395-87.494-126.904-155.602-126.904
		c-39.604,0-77.027,14.037-103.854,25.039c0.115-11.963,0.004-23.907-0.379-35.832c35.999-16.745,70.863-36.226,103.89-58.106
		c56.372-37.346,113.804-85.145,140.889-148.868C772.024,89.76,791.619-9.833,735.261,0.79
		C618.862,22.729,545.398,125.778,507.675,233.768c-0.04-0.237-0.075-0.473-0.116-0.711c-5.887-34.22-18.738-69.033-33.494-100.798
		c-12.849-27.662-29.108-56.577-57.336-70.962c-23.131-11.788-49.766-2.862-56.935,23.198c-3.127,11.369-0.92,21.842,4.206,32.141
		c6.91,13.878,19.946,24.834,28.74,37.537c21.769,31.447,31.836,76.05,36.336,113.492c3.625,30.158,4.527,60.538,4.168,90.898
		C406.396,347.543,368.786,333.362,328.974,333.353z M474.752,434.692c49.299,0,118.265,83.868,118.265,187.335
		c0,77.304-66.018,153.963-99.403,187.788c-10.114,10.247-27.608,10.247-37.723,0c-33.386-33.825-99.402-110.483-99.402-187.788
		C356.488,518.569,425.453,434.692,474.752,434.692z"/>
</g>
<g>
</g>
<g>
</g>
<g>
</g>
<g>
</g>
<g>
</g>
<g>
</g>
<g>
</g>
<g>
</g>
<g>
</g>
<g>
</g>
<g>
</g>
<g>
</g>
<g>
</g>
<g>
</g>
<g>
</g>
</svg>
