<?xml version="1.0" encoding="iso-8859-1"?>
<!-- Generator: Adobe Illustrator 16.0.0, SVG Export Plug-In . SVG Version: 6.00 Build 0)  -->
<!DOCTYPE svg PUBLIC "-//W3C//DTD SVG 1.1//EN" "http://www.w3.org/Graphics/SVG/1.1/DTD/svg11.dtd">
<svg version="1.1" id="Capa_1" xmlns="http://www.w3.org/2000/svg" xmlns:xlink="http://www.w3.org/1999/xlink" x="0px" y="0px"
	 width="47px" height="47px" viewBox="0 0 47 47" style="enable-background:new 0 0 47 47;" xml:space="preserve">
<g>
	<g>
		<path d="M16.863,15.421c-1.348,0-2.451,1.099-2.451,2.459v3.538h4.907V17.88C19.319,16.52,18.217,15.421,16.863,15.421z"/>
		<path d="M41.551,18.13L11.127,1.228C5.812-1.725,1.462,0.834,1.462,6.915v33.17c0,6.081,4.349,8.64,9.665,5.688L41.551,28.87
			C46.867,25.918,46.867,21.082,41.551,18.13z M24.053,34.034H9.679V21.418h2.277V17.88c0-2.711,2.201-4.914,4.907-4.914
			c2.709,0,4.913,2.203,4.913,4.914v3.538h2.277V34.034z"/>
	</g>
</g>
<g>
</g>
<g>
</g>
<g>
</g>
<g>
</g>
<g>
</g>
<g>
</g>
<g>
</g>
<g>
</g>
<g>
</g>
<g>
</g>
<g>
</g>
<g>
</g>
<g>
</g>
<g>
</g>
<g>
</g>
</svg>
