<?xml version="1.0" encoding="iso-8859-1"?>
<!-- Generator: Adobe Illustrator 16.0.0, SVG Export Plug-In . SVG Version: 6.00 Build 0)  -->
<!DOCTYPE svg PUBLIC "-//W3C//DTD SVG 1.1//EN" "http://www.w3.org/Graphics/SVG/1.1/DTD/svg11.dtd">
<svg version="1.1" id="Capa_1" xmlns="http://www.w3.org/2000/svg" xmlns:xlink="http://www.w3.org/1999/xlink" x="0px" y="0px"
	 width="64px" height="64px" viewBox="0 0 64 64" style="enable-background:new 0 0 64 64;" xml:space="preserve">
<g>
	<g>
		<g id="circle_copy_5">
			<g>
				<path d="M28.304,32.33l6.358,3.979l6.533-11.433l-6.393-4L28.304,32.33z M32,0C14.327,0,0,14.327,0,32s14.327,32,32,32
					s32-14.327,32-32S49.673,0,32,0z M42.928,25.876l-11,19.248c-0.552,0.957-1.775,1.285-2.731,0.731l-6.393-4
					c-0.956-0.553-1.284-1.774-0.731-2.731l11-19.248c0.552-0.957,1.774-1.284,2.731-0.732l6.393,4
					C43.152,23.696,43.48,24.919,42.928,25.876z"/>
			</g>
		</g>
	</g>
</g>
<g>
</g>
<g>
</g>
<g>
</g>
<g>
</g>
<g>
</g>
<g>
</g>
<g>
</g>
<g>
</g>
<g>
</g>
<g>
</g>
<g>
</g>
<g>
</g>
<g>
</g>
<g>
</g>
<g>
</g>
</svg>
