<?xml version="1.0" encoding="iso-8859-1"?>
<!-- Generator: Adobe Illustrator 16.0.0, SVG Export Plug-In . SVG Version: 6.00 Build 0)  -->
<!DOCTYPE svg PUBLIC "-//W3C//DTD SVG 1.1//EN" "http://www.w3.org/Graphics/SVG/1.1/DTD/svg11.dtd">
<svg version="1.1" id="Capa_1" xmlns="http://www.w3.org/2000/svg" xmlns:xlink="http://www.w3.org/1999/xlink" x="0px" y="0px"
	 width="47px" height="47px" viewBox="0 0 47 47" style="enable-background:new 0 0 47 47;" xml:space="preserve">
<g>
	<path d="M34.451,18.849v-7.892C34.451,4.915,29.537,0,23.497,0c-6.038,0-10.951,4.915-10.951,10.957v7.892H7.47V47h32.06V18.849
		H34.451z M18.026,10.957c0-3.021,2.455-5.479,5.471-5.479s5.471,2.458,5.471,5.479v7.892H18.026V10.957z M23.502,42.125
		c0,0-11.788-5.087-10.96-13.766c0.648-6.748,9.527-5.168,10.96-1.332c1.43-3.836,10.31-5.416,10.957,1.332
		C35.292,37.038,23.502,42.125,23.502,42.125z"/>
</g>
<g>
</g>
<g>
</g>
<g>
</g>
<g>
</g>
<g>
</g>
<g>
</g>
<g>
</g>
<g>
</g>
<g>
</g>
<g>
</g>
<g>
</g>
<g>
</g>
<g>
</g>
<g>
</g>
<g>
</g>
</svg>
