<?xml version="1.0" encoding="iso-8859-1"?>
<!-- Generator: Adobe Illustrator 16.0.0, SVG Export Plug-In . SVG Version: 6.00 Build 0)  -->
<!DOCTYPE svg PUBLIC "-//W3C//DTD SVG 1.1//EN" "http://www.w3.org/Graphics/SVG/1.1/DTD/svg11.dtd">
<svg version="1.1" id="Capa_1" xmlns="http://www.w3.org/2000/svg" xmlns:xlink="http://www.w3.org/1999/xlink" x="0px" y="0px"
	 width="950px" height="950px" viewBox="0 0 950 950" style="enable-background:new 0 0 950 950;" xml:space="preserve">
<g>
	<path d="M75.252,428v375h-0.198l0.083,134.312C75.141,944.23,80.794,950,87.712,950h749.131c20.694,0,37.475-16.77,37.485-37.464
		L874.37,837h0.883v-34V428v-40h-0.637l0.044-80.797c0.004-6.918-3.271-17.157-7.314-22.77L757.401,132H191.609L81.976,284.434
		c-4.043,5.613-7.231,15.771-7.228,22.689L74.822,428H75.252z M795.252,428v375h-640V428H795.252z"/>
	<path d="M746.252,37.728C746.252,16.978,729.274,0,708.524,0H474.748H240.424c-20.995,0-38.172,17.177-38.172,38.172V102h544
		V37.728z"/>
	<polygon points="226.252,565.042 260.804,701 294.341,701 328.252,565.042 328.252,701 361.252,701 361.252,528 308.699,528 
		277.75,645.676 246.447,528 194.252,528 194.252,701 226.252,701 	"/>
	<rect x="394.252" y="528" width="35" height="173"/>
	<polygon points="585.252,672 498.252,672 498.252,530 463.252,530 463.252,701 585.252,701 	"/>
	<polygon points="645.252,648.71 673.376,619.959 720.681,701 765.751,701 697.263,595.438 762.22,528 715.385,528 645.252,604.935 
		645.252,528 610.252,528 610.252,701 645.252,701 	"/>
</g>
<g>
</g>
<g>
</g>
<g>
</g>
<g>
</g>
<g>
</g>
<g>
</g>
<g>
</g>
<g>
</g>
<g>
</g>
<g>
</g>
<g>
</g>
<g>
</g>
<g>
</g>
<g>
</g>
<g>
</g>
</svg>
