<?xml version="1.0" encoding="iso-8859-1"?>
<!-- Generator: Adobe Illustrator 16.0.0, SVG Export Plug-In . SVG Version: 6.00 Build 0)  -->
<!DOCTYPE svg PUBLIC "-//W3C//DTD SVG 1.1//EN" "http://www.w3.org/Graphics/SVG/1.1/DTD/svg11.dtd">
<svg version="1.1" id="Capa_1" xmlns="http://www.w3.org/2000/svg" xmlns:xlink="http://www.w3.org/1999/xlink" x="0px" y="0px"
	 width="979.999px" height="979.999px" viewBox="0 0 979.999 979.999" style="enable-background:new 0 0 979.999 979.999;"
	 xml:space="preserve">
<g>
	<path d="M813.888,11.716C806.387,4.215,796.212,0,785.604,0c-10.607,0-20.783,4.214-28.284,11.716L11.716,757.319
		c-15.621,15.621-15.621,40.947,0,56.567c54.126,54.127,117.261,96.041,187.649,124.581c67.968,27.559,139.78,41.531,213.442,41.531
		c73.649,0,145.455-13.973,213.422-41.528c70.395-28.541,133.531-70.457,187.657-124.584
		c54.133-54.133,96.052-117.273,124.591-187.672c27.556-67.97,41.525-139.78,41.521-213.438
		c-0.005-73.653-13.98-145.46-41.539-213.425C909.92,128.965,868.008,65.835,813.888,11.716z M571.285,390.168l80.489-40
		c22.091-10.979,48.9-1.97,59.878,20.121c10.979,22.092,1.971,48.9-20.121,59.879c-12.938,6.431-27.71,5.896-39.757,0
		L571.285,390.168z M623.417,595.761c-7.858,23.385-33.186,35.971-56.569,28.113c-13.696-4.602-23.763-15.426-28.112-28.113
		l-28.63-85.197l85.198,28.63C618.688,547.051,631.274,572.377,623.417,595.761z M410.076,711.623
		c-22.092,10.979-48.899,1.97-59.879-20.122c-6.43-12.938-5.895-27.71,0-39.757l40-80.489l40,80.489
		C441.176,673.836,432.168,700.645,410.076,711.623z M864.34,596.159c-24.494,60.419-60.501,114.641-107.021,161.16
		c-46.514,46.514-100.73,82.518-161.147,107.014C537.798,888,476.106,900,412.809,900c-63.31,0-125.009-12.001-183.384-35.669
		c-48.085-19.497-92.246-46.286-131.722-79.862l47.953-47.952c164.848,137.837,410.514,129.28,565.327-25.533
		c154.814-154.814,163.37-400.479,25.532-565.326l47.953-47.953c33.572,39.47,60.356,83.625,79.854,131.709
		c23.67,58.373,35.673,120.066,35.678,183.368C900.004,476.086,888.006,537.784,864.34,596.159z"/>
</g>
<g>
</g>
<g>
</g>
<g>
</g>
<g>
</g>
<g>
</g>
<g>
</g>
<g>
</g>
<g>
</g>
<g>
</g>
<g>
</g>
<g>
</g>
<g>
</g>
<g>
</g>
<g>
</g>
<g>
</g>
</svg>
