<?xml version="1.0" encoding="iso-8859-1"?>
<!-- Generator: Adobe Illustrator 16.0.0, SVG Export Plug-In . SVG Version: 6.00 Build 0)  -->
<!DOCTYPE svg PUBLIC "-//W3C//DTD SVG 1.1//EN" "http://www.w3.org/Graphics/SVG/1.1/DTD/svg11.dtd">
<svg version="1.1" id="Capa_1" xmlns="http://www.w3.org/2000/svg" xmlns:xlink="http://www.w3.org/1999/xlink" x="0px" y="0px"
	 width="64px" height="64px" viewBox="0 0 64 64" style="enable-background:new 0 0 64 64;" xml:space="preserve">
<g>
	<g>
		<g id="circle_copy_4_10_">
			<g>
				<path d="M24,25c-1.104,0-2,0.896-2,2s0.896,2,2,2s2-0.896,2-2S25.104,25,24,25z M32,34c-1.104,0-2,0.896-2,2s0.896,2,2,2
					c1.104,0,2-0.896,2-2S33.104,34,32,34z M32,0C14.327,0,0,14.327,0,32s14.327,32,32,32s32-14.327,32-32S49.673,0,32,0z
					 M25,30.858V44h-2V30.858c-1.722-0.446-3-1.997-3-3.858s1.278-3.412,3-3.858V20h2v3.142c1.723,0.446,3,1.997,3,3.858
					S26.723,30.412,25,30.858z M33,39.857V44h-2v-4.143c-1.722-0.445-3-1.996-3-3.857s1.278-3.412,3-3.857V20h2v12.143
					c1.723,0.445,3,1.996,3,3.857S34.723,39.412,33,39.857z M41,30.858V44h-2V30.858c-1.723-0.446-3-1.997-3-3.858
					s1.277-3.412,3-3.858V20h2v3.142c1.723,0.446,3,1.997,3,3.858S42.723,30.412,41,30.858z M40,25c-1.104,0-2,0.896-2,2
					s0.896,2,2,2s2-0.896,2-2S41.104,25,40,25z"/>
			</g>
		</g>
	</g>
</g>
<g>
</g>
<g>
</g>
<g>
</g>
<g>
</g>
<g>
</g>
<g>
</g>
<g>
</g>
<g>
</g>
<g>
</g>
<g>
</g>
<g>
</g>
<g>
</g>
<g>
</g>
<g>
</g>
<g>
</g>
</svg>
