<?xml version="1.0" encoding="iso-8859-1"?>
<!-- Generator: Adobe Illustrator 16.0.0, SVG Export Plug-In . SVG Version: 6.00 Build 0)  -->
<!DOCTYPE svg PUBLIC "-//W3C//DTD SVG 1.1//EN" "http://www.w3.org/Graphics/SVG/1.1/DTD/svg11.dtd">
<svg version="1.1" id="Capa_1" xmlns="http://www.w3.org/2000/svg" xmlns:xlink="http://www.w3.org/1999/xlink" x="0px" y="0px"
	 width="51.91px" height="51.909px" viewBox="0 0 51.91 51.909" style="enable-background:new 0 0 51.91 51.909;"
	 xml:space="preserve">
<g>
	<g>
		<g id="pin">
			<g>
				<path d="M35.357,20.115c-0.194-1.071-1.207-6.678-1.575-8.717c2.101-0.918,3.573-3.019,3.573-5.453
					C37.355,2.667,34.689,0,31.412,0H20.499c-3.281,0-5.947,2.667-5.947,5.945c0,2.435,1.473,4.535,3.577,5.453
					c-0.368,2.039-1.381,7.643-1.576,8.717c-3.201,0.576-5.637,3.386-5.637,6.749c0,3.778,3.073,6.854,6.852,6.854
					c0,0,1.817,0,2.431,0c0.259,1.556,2.585,15.503,2.585,15.503c0.259,1.553,1.599,2.688,3.171,2.688s2.913-1.136,3.171-2.688
					c0,0,2.326-13.947,2.585-15.503c0.614,0,2.428,0,2.428,0c3.779,0,6.855-3.075,6.855-6.854
					C40.995,23.501,38.556,20.691,35.357,20.115z M17.768,5.945c0-1.508,1.224-2.729,2.731-2.729h10.913
					c1.507,0,2.729,1.221,2.729,2.729c0,1.508-1.222,2.729-2.729,2.729H20.499C18.992,8.674,17.768,7.453,17.768,5.945z
					 M32.323,21.407H19.588l1.971-10.913h8.792L32.323,21.407z M25.956,48.693l-2.728-16.369h5.456L25.956,48.693z M34.14,30.503
					H17.768c-2.009,0-3.635-1.627-3.635-3.639c0-2.009,1.626-3.639,3.635-3.639H34.14c2.01,0,3.639,1.63,3.639,3.639
					C37.779,28.876,36.148,30.503,34.14,30.503z"/>
			</g>
		</g>
	</g>
</g>
<g>
</g>
<g>
</g>
<g>
</g>
<g>
</g>
<g>
</g>
<g>
</g>
<g>
</g>
<g>
</g>
<g>
</g>
<g>
</g>
<g>
</g>
<g>
</g>
<g>
</g>
<g>
</g>
<g>
</g>
</svg>
