<?xml version="1.0" encoding="iso-8859-1"?>
<!-- Generator: Adobe Illustrator 16.0.0, SVG Export Plug-In . SVG Version: 6.00 Build 0)  -->
<!DOCTYPE svg PUBLIC "-//W3C//DTD SVG 1.1//EN" "http://www.w3.org/Graphics/SVG/1.1/DTD/svg11.dtd">
<svg version="1.1" id="Capa_1" xmlns="http://www.w3.org/2000/svg" xmlns:xlink="http://www.w3.org/1999/xlink" x="0px" y="0px"
	 width="765px" height="765.001px" viewBox="0 0 765 765.001" style="enable-background:new 0 0 765 765.001;" xml:space="preserve"
	>
<g>
	<g>
		<path d="M234.853,33.269v421.636c8.255-0.905,16.592-1.376,25-1.376s16.745,0.471,25,1.376V33.269c0-13.807-11.193-25-25-25
			S234.853,19.462,234.853,33.269z"/>
		<path d="M537.444,739.775c0,13.808,11.193,25,25,25c13.809,0,25-11.192,25-25V350.308h-50V739.775z"/>
		<path d="M49.354,762.19c2.458,1.762,5.463,2.811,8.718,2.811h403.562c3.254,0,6.258-1.048,8.717-2.811
			c3.799-2.721,6.283-7.16,6.283-12.189c0-1.459-0.221-2.865-0.607-4.199c-1.418-4.863-5.223-8.704-10.068-10.161
			c-1.369-0.412-2.82-0.64-4.324-0.64h-8.484c5.041-17.607,7.75-36.199,7.75-55.425c0-102.568-76.809-187.191-176.046-199.5
			c-8.191-1.017-16.533-1.546-25-1.546s-16.809,0.529-25,1.546c-99.236,12.31-176.046,96.932-176.046,199.5
			c0,19.226,2.71,37.817,7.749,55.425h-8.483c-1.504,0-2.955,0.227-4.325,0.639c-4.846,1.458-8.651,5.298-10.068,10.162
			c-0.389,1.334-0.607,2.74-0.607,4.199C43.072,755.029,45.556,759.469,49.354,762.19z"/>
		<path d="M562.444,0C442.719,0,417.028,86.521,411.645,117.987c-1.008,5.895,3.539,11.268,9.52,11.268h116.324
			c-0.027,0.483-0.045,0.968-0.045,1.458v38.363H427.959c-13.809,0-25,11.193-25,25c0,13.807,11.191,25,25,25h109.484v50.439
			H427.959c-13.809,0-25,11.193-25,25c0,13.167,10.18,23.948,23.098,24.921c0.625-0.076,1.256-0.128,1.902-0.128h109.484h50h109.484
			c0.645,0,1.275,0.052,1.9,0.128c12.918-0.972,23.1-11.754,23.1-24.921c0-13.807-11.193-25-25-25H587.444v-50.439h109.484
			c13.807,0,25-11.193,25-25c0-13.807-11.193-25-25-25H587.444v-38.363c0-0.49-0.018-0.975-0.045-1.458h116.324
			c5.98,0,10.529-5.373,9.52-11.268C707.858,86.521,682.17,0,562.444,0z"/>
	</g>
</g>
<g>
</g>
<g>
</g>
<g>
</g>
<g>
</g>
<g>
</g>
<g>
</g>
<g>
</g>
<g>
</g>
<g>
</g>
<g>
</g>
<g>
</g>
<g>
</g>
<g>
</g>
<g>
</g>
<g>
</g>
</svg>
