<?xml version="1.0" encoding="iso-8859-1"?>
<!-- Generator: Adobe Illustrator 16.0.0, SVG Export Plug-In . SVG Version: 6.00 Build 0)  -->
<!DOCTYPE svg PUBLIC "-//W3C//DTD SVG 1.1//EN" "http://www.w3.org/Graphics/SVG/1.1/DTD/svg11.dtd">
<svg version="1.1" id="Capa_1" xmlns="http://www.w3.org/2000/svg" xmlns:xlink="http://www.w3.org/1999/xlink" x="0px" y="0px"
	 width="51.729px" height="51.728px" viewBox="0 0 51.729 51.728" style="enable-background:new 0 0 51.729 51.728;"
	 xml:space="preserve">
<g>
	<g>
		<g id="bag">
			<g>
				<path d="M30.014,8.443h-8.296c-0.916,0-1.659,0.743-1.659,1.658c0,0.92,0,1.663,0,1.663h11.614c0,0,0-0.743,0-1.663
					C31.673,9.186,30.93,8.443,30.014,8.443z M51.729,15.082c0-3.741-3.043-6.785-6.783-6.785c0,0-3.547,0-6.491,0
					c-0.078-3.674-3.091-6.639-6.781-6.639H20.059c-3.693,0-6.705,2.965-6.781,6.639c-2.946,0-6.491,0-6.491,0
					C3.046,8.297,0,11.341,0,15.082v6.635c0,0.282,0.034,0.562,0.1,0.83C0.034,22.815,0,23.091,0,23.375v19.911
					c0,3.74,3.046,6.785,6.786,6.785h38.159c3.74,0,6.783-3.045,6.783-6.785V23.375c0-0.284-0.031-0.56-0.098-0.828
					c0.064-0.269,0.098-0.548,0.098-0.83V15.082z M48.262,43.286c0,1.831-1.486,3.315-3.316,3.315H6.786
					c-1.832,0-3.319-1.484-3.319-3.315V23.375c0,0,8.662,4.457,16.592,6.281v2.016c0,0.916,0.743,1.658,1.659,1.658h8.296
					c0.916,0,1.659-0.742,1.659-1.658v-2.016c7.929-1.824,16.589-6.281,16.589-6.281V43.286z M21.718,30.011v-1.658
					c0-0.915,0.741-1.658,1.657-1.658h4.979c0.916,0,1.66,0.743,1.66,1.658v1.658c0,0.916-0.744,1.66-1.66,1.66h-4.979
					C22.459,31.671,21.718,30.929,21.718,30.011z M48.262,21.717c0,0-8.66,4.585-16.589,6.464v-1.485
					c0-0.919-0.743-1.658-1.659-1.658h-8.296c-0.916,0-1.659,0.739-1.659,1.658v1.485c-7.93-1.879-16.592-6.464-16.592-6.464v-6.635
					c0-1.836,1.487-3.317,3.319-3.317h9.955V8.443c0-1.831,1.485-3.316,3.317-3.316h11.614c1.83,0,3.316,1.485,3.316,3.316v3.321
					h9.955c1.83,0,3.316,1.481,3.316,3.317v6.636H48.262z"/>
			</g>
		</g>
	</g>
</g>
<g>
</g>
<g>
</g>
<g>
</g>
<g>
</g>
<g>
</g>
<g>
</g>
<g>
</g>
<g>
</g>
<g>
</g>
<g>
</g>
<g>
</g>
<g>
</g>
<g>
</g>
<g>
</g>
<g>
</g>
</svg>
