<?xml version="1.0" encoding="iso-8859-1"?>
<!-- Generator: Adobe Illustrator 16.0.0, SVG Export Plug-In . SVG Version: 6.00 Build 0)  -->
<!DOCTYPE svg PUBLIC "-//W3C//DTD SVG 1.1//EN" "http://www.w3.org/Graphics/SVG/1.1/DTD/svg11.dtd">
<svg version="1.1" id="Capa_1" xmlns="http://www.w3.org/2000/svg" xmlns:xlink="http://www.w3.org/1999/xlink" x="0px" y="0px"
	 width="949.5px" height="949.5px" viewBox="0 0 949.5 949.5" style="enable-background:new 0 0 949.5 949.5;" xml:space="preserve"
	>
<g>
	<path d="M178.55,477.4l-60.4-53.8v-237h207v29h44v-43.4c0-1.5,0-6.4,0-7.1c0-12-9.9-22.5-21.9-22.5H97.75c-2.6,0-5.2,0.7-7.5,1.6
		c-9.2,2.7-16.1,11.4-16.1,21.4v258.7l-56.8,53.1c-4,3.699-6.2,8.9-6.2,14.299V628c0,10.801,8.8,19.6,19.6,19.6h134.8
		c10.8,0,19.6-8.799,19.6-19.6V492C185.15,486.4,182.75,481.1,178.55,477.4z"/>
	<path d="M898.15,348.6h-81h-15h-15c0-51.9,0-87.6,0-87.6c0-8.6-7.2-15.4-15.8-15.4H490.25h-121.1h-44h-80.9
		c-8.5,0-15.5,6.9-15.5,15.5l-0.4,483.701c0,15.799,2.9,47.199,24.4,72c15.8,18.299,38.5,28.799,66.5,32.299c0,20.6,0,85.1,0,85.1
		c0,8.602,7.301,15.301,15.9,15.301h345.6c8.601,0,15.601-6.699,15.601-15.301c0,0,0-64.5,0-85.1c28-3.5,50.8-14,66.6-32.299
		c21.5-24.801,24.2-56.102,24.2-71.9c0-4.5,0.2-7.4,0.2-8.801c0-0.1,0-1.299,0-3.6h15h15h81c22.1,0,40-17.9,40-40V388.6
		C938.15,366.5,920.25,348.6,898.15,348.6z M858.15,652.6h-41h-15h-15c0-61.799,0-148.1,0-224h15h15h41V652.6z"/>
	<path d="M708.65,46.7c-1.3,0.3-2.7,0.7-4,1l-2,0.5l-2,0.5c-2.7,0.7-5.5,1.3-8.2,2c-2.8,0.6-5.5,1.3-8.3,1.9c-1.4,0.3-2.8,0.7-4.2,1
		c-1.399,0.3-2.8,0.6-4.2,0.9c-1.399,0.3-2.8,0.6-4.199,1c-1.4,0.3-2.801,0.6-4.301,0.9c-2.8,0.6-5.699,1.2-8.5,1.9
		c-2.699,0.6-5.5,1.1-8.199,1.7l-2.101,0.4c-0.7,0.1-1.3,0.3-2.2,0.5l-4.699,0.9l-4.601,1l-4.2,0.9c-6.6,1.4-13.3,2.9-19.8,4.8
		c-13.1,3.6-25.8,8.2-37.899,13.8c-6,2.8-11.9,5.8-17.601,9.1c-1.399,0.8-2.8,1.6-4.2,2.5c-1.399,0.9-2.699,1.7-4.1,2.6
		c-1.3,0.9-2.7,1.8-4,2.7s-2.6,1.9-3.9,2.8c-10.3,7.5-19.399,15.8-26.899,24.7c-7.4,8.9-13.101,18.2-16.8,27.2
		c-3.7,8.9-5.2,17.4-5.301,24.2c-0.1,3.4,0.2,6.4,0.601,9c0.2,1.3,0.5,2.5,0.7,3.5c0.3,1.1,0.6,2,0.899,2.8
		c0.601,1.7,1.2,2.9,1.601,3.7c0.399,0.8,0.699,1.2,0.699,1.2s0.2-0.4,0.601-1.2c0.399-0.7,1.1-1.8,2-3.1c0.5-0.6,1-1.3,1.6-2.1
		c0.601-0.7,1.2-1.5,2-2.3c0.7-0.8,1.601-1.6,2.4-2.5c0.899-0.8,1.8-1.7,2.8-2.6c4-3.5,9.1-6.9,15.1-10s12.9-6,20.601-8.6
		c7.7-2.6,16.2-5,25.399-7.3c2.301-0.6,4.7-1.1,7-1.7c2.4-0.5,4.801-1.1,7.301-1.7c5-1.1,10-2.1,15.199-3.2
		c10.4-2.1,21.301-4.3,32.5-6.5c5.601-1.1,11.301-2.2,17-3.3l2.801-0.6l2.3-0.5l4.6-1l4.6-1l1.2-0.3l1.3-0.3l2.601-0.7
		c3.399-0.9,6.8-1.8,10.3-2.7c3.3-1,6.6-2,9.8-3c3.3-1,6.5-2.2,9.7-3.3c3.2-1.2,6.4-2.3,9.6-3.6c12.7-5,24.801-10.9,36.2-17.5
		c11.4-6.5,21.9-13.8,31.3-21.4c9.4-7.6,17.7-15.7,24.7-23.7s12.7-16,17.2-23.4s7.6-14.3,9.8-20.2c2.101-5.8,3.3-10.6,3.9-13.9
		c0.6-3.3,0.6-5.1,0.6-5.1s-1.5,1-4.2,2.7c-2.699,1.7-6.699,4-11.699,6.6c-5,2.6-11.101,5.6-18,8.6c-6.9,3-14.7,6.2-23.101,9.2
		c-8.399,3.1-17.5,6.2-27.1,9.1c-9.601,3-19.7,5.8-30.2,8.6c-1.3,0.4-2.6,0.7-3.9,1.1C711.35,46,710.05,46.4,708.65,46.7z"/>
</g>
<g>
</g>
<g>
</g>
<g>
</g>
<g>
</g>
<g>
</g>
<g>
</g>
<g>
</g>
<g>
</g>
<g>
</g>
<g>
</g>
<g>
</g>
<g>
</g>
<g>
</g>
<g>
</g>
<g>
</g>
</svg>
