<?xml version="1.0" encoding="iso-8859-1"?>
<!-- Generator: Adobe Illustrator 16.0.0, SVG Export Plug-In . SVG Version: 6.00 Build 0)  -->
<!DOCTYPE svg PUBLIC "-//W3C//DTD SVG 1.1//EN" "http://www.w3.org/Graphics/SVG/1.1/DTD/svg11.dtd">
<svg version="1.1" id="Capa_1" xmlns="http://www.w3.org/2000/svg" xmlns:xlink="http://www.w3.org/1999/xlink" x="0px" y="0px"
	 width="950px" height="950px" viewBox="0 0 950 950" style="enable-background:new 0 0 950 950;" xml:space="preserve">
<g>
	<g>
		<path d="M44.453,755.037h17.504v-19.771c0-7.824,6.343-14.167,14.167-14.167h42.267c7.824,0,14.167,6.343,14.167,14.167v19.771
			h37.925V649.42c0-16.414,13.306-29.719,29.72-29.719h217.712c16.414,0,29.719,13.306,29.719,29.719v37.148
			c7.314,0,38.278,0.041,38.278,0.041s-0.191-253.246,0.082-254.345c1.57-29.847,26.344-53.646,56.574-53.646h63.516V32.42
			c0-17.905-14.516-32.42-32.42-32.42H556.16v19.771c0,7.824-6.344,14.167-14.166,14.167h-42.268
			c-7.824,0-14.168-6.343-14.168-14.167V0.001h-37.924v112.612c0,16.414-13.306,29.719-29.719,29.719H200.202
			c-16.414,0-29.72-13.306-29.72-29.719V0.001h-37.925v19.77c0,7.824-6.343,14.167-14.167,14.167H76.123
			c-7.824,0-14.167-6.343-14.167-14.167V0.001H44.453c-17.905,0-32.42,14.515-32.42,32.42v690.197
			C12.033,740.522,26.548,755.037,44.453,755.037z M485.558,126.225c0-7.824,6.344-14.167,14.168-14.167h42.268
			c7.822,0,14.166,6.343,14.166,14.167v39.542c0,7.824-6.344,14.167-14.166,14.167h-42.268c-7.824,0-14.168-6.343-14.168-14.167
			V126.225L485.558,126.225z M485.558,286.343c0-7.824,6.344-14.167,14.168-14.167h42.268c7.822,0,14.166,6.343,14.166,14.167
			v39.542c0,7.824-6.344,14.167-14.166,14.167h-42.268c-7.824,0-14.168-6.343-14.168-14.167V286.343L485.558,286.343z
			 M170.483,259.875c0-16.414,13.306-29.719,29.72-29.719h217.712c16.414,0,29.719,13.306,29.719,29.719v236.227
			c0,16.414-13.306,29.72-29.719,29.72H200.202c-16.414,0-29.72-13.307-29.72-29.72L170.483,259.875L170.483,259.875z
			 M61.957,126.225c0-7.824,6.343-14.167,14.167-14.167h42.267c7.824,0,14.167,6.343,14.167,14.167v39.542
			c0,7.824-6.343,14.167-14.167,14.167H76.124c-7.824,0-14.167-6.343-14.167-14.167V126.225z M61.957,286.343
			c0-7.824,6.343-14.167,14.167-14.167h42.267c7.824,0,14.167,6.343,14.167,14.167v39.542c0,7.824-6.343,14.167-14.167,14.167
			H76.124c-7.824,0-14.167-6.343-14.167-14.167V286.343z M61.957,435.688c0-7.823,6.343-14.167,14.167-14.167h42.267
			c7.824,0,14.167,6.344,14.167,14.167v39.542c0,7.824-6.343,14.167-14.167,14.167H76.124c-7.824,0-14.167-6.343-14.167-14.167
			V435.688z M61.957,595.185c0-7.823,6.343-14.167,14.167-14.167h42.267c7.824,0,14.167,6.344,14.167,14.167v39.542
			c0,7.824-6.343,14.167-14.167,14.167H76.124c-7.824,0-14.167-6.343-14.167-14.167V595.185z"/>
		<path d="M864.933,436.969c0-17.772-14.408-32.181-32.182-32.181H606.083h-63.516c-11.887,0-22.178,6.808-27.207,16.733
			c-2.094,4.134-3.279,8.805-3.279,13.754v54.121v91.621v67.875v63.885h-59.215c-1.905,0-3.657,0.36-5.232,0.992
			c-8.804,3.535-11.951,15.729-4.11,22.949l4.11,3.784l15.785,14.534l22.172,20.415l14.688,13.522l165.072,151.989
			c6.543,6.024,14.85,9.036,23.156,9.036c8.305,0,16.611-3.012,23.154-9.036L933.49,736.719c9.242-8.511,3.223-23.939-9.344-23.939
			h-59.213V436.969L864.933,436.969z"/>
	</g>
</g>
<g>
</g>
<g>
</g>
<g>
</g>
<g>
</g>
<g>
</g>
<g>
</g>
<g>
</g>
<g>
</g>
<g>
</g>
<g>
</g>
<g>
</g>
<g>
</g>
<g>
</g>
<g>
</g>
<g>
</g>
</svg>
