<?xml version="1.0" encoding="iso-8859-1"?>
<!-- Generator: Adobe Illustrator 16.0.0, SVG Export Plug-In . SVG Version: 6.00 Build 0)  -->
<!DOCTYPE svg PUBLIC "-//W3C//DTD SVG 1.1//EN" "http://www.w3.org/Graphics/SVG/1.1/DTD/svg11.dtd">
<svg version="1.1" id="Capa_1" xmlns="http://www.w3.org/2000/svg" xmlns:xlink="http://www.w3.org/1999/xlink" x="0px" y="0px"
	 width="64px" height="64px" viewBox="0 0 64 64" style="enable-background:new 0 0 64 64;" xml:space="preserve">
<g>
	<g>
		<g id="circle_70_">
			<g>
				<path d="M30,27.46V32h4.54L30,27.46z M37,24h4.54L37,19.46V24z M32,0C14.327,0,0,14.327,0,32s14.327,32,32,32s32-14.327,32-32
					S49.673,0,32,0z M37,32v13c0,1.104-0.896,2-2,2H23c-1.104,0-2-0.896-2-2V27c0-1.104,0.896-2,2-2h7v0.431l0.445-0.445
					l6.569,6.569L36.568,32H37z M44,24v13c0,1.104-0.896,2-2,2h-3v-2h3V26h-5c-1.104,0-2-0.896-2-2v-5h-5v4h-2v-4
					c0-1.104,0.896-2,2-2h7v0.431l0.445-0.445l6.568,6.569L43.568,24H44z M28,32v-5h-5v18h12V34h-5C28.896,34,28,33.104,28,32z"/>
			</g>
		</g>
	</g>
</g>
<g>
</g>
<g>
</g>
<g>
</g>
<g>
</g>
<g>
</g>
<g>
</g>
<g>
</g>
<g>
</g>
<g>
</g>
<g>
</g>
<g>
</g>
<g>
</g>
<g>
</g>
<g>
</g>
<g>
</g>
</svg>
