<?xml version="1.0" encoding="iso-8859-1"?>
<!-- Generator: Adobe Illustrator 16.0.0, SVG Export Plug-In . SVG Version: 6.00 Build 0)  -->
<!DOCTYPE svg PUBLIC "-//W3C//DTD SVG 1.1//EN" "http://www.w3.org/Graphics/SVG/1.1/DTD/svg11.dtd">
<svg version="1.1" id="Capa_1" xmlns="http://www.w3.org/2000/svg" xmlns:xlink="http://www.w3.org/1999/xlink" x="0px" y="0px"
	 width="47px" height="47px" viewBox="0 0 47 47" style="enable-background:new 0 0 47 47;" xml:space="preserve">
<g>
	<path d="M46.569,41.05L33.722,28.203c-0.341-0.342-0.563-1.013-0.492-1.492l0.289-1.936c0.071-0.479-0.152-1.152-0.494-1.495
		l-3.215-3.213l3.664-3.662C35.3,13.878,34.639,10.441,32,8.772L19.74,1.013c-2.638-1.669-6.598-1.23-8.804,0.979L1.99,10.935
		c-2.204,2.205-2.645,6.169-0.979,8.807l7.76,12.265c1.667,2.638,5.104,3.295,7.634,1.47l3.661-3.663l1.65,1.648
		c0.342,0.343,1.013,0.563,1.492,0.491l1.94-0.287c0.479-0.072,1.148,0.149,1.492,0.492L27.48,33
		c0.342,0.343,0.998,0.496,1.457,0.341l0.275-0.093c0.458-0.156,1.113-0.002,1.455,0.339l0.479,0.479
		c0.343,0.342,0.424,0.964,0.179,1.383l-0.072,0.124c-0.245,0.418-0.19,1.012,0.116,1.319c0.308,0.307,0.937,0.432,1.396,0.277
		l0.276-0.095c0.458-0.153,1.113-0.002,1.455,0.34l0.48,0.48c0.343,0.342,0.424,0.964,0.179,1.382l-0.072,0.125
		c-0.245,0.417-0.164,1.04,0.179,1.382l5.783,5.785c0.342,0.343,1.002,0.518,1.472,0.388l2.63-0.726
		c0.468-0.128,0.954-0.615,1.083-1.083l0.726-2.627C47.086,42.052,46.912,41.394,46.569,41.05z M23.818,13.588l-2.376,3.102
		c-1.133,1.486-3.269,3.619-4.756,4.752l-3.1,2.375c-1.478,1.131-3.329,0.951-4.106-0.408l-3.621-6.322
		c-0.781-1.362-0.332-3.554,0.992-4.877l5.36-5.36c1.32-1.321,3.517-1.773,4.877-0.993l6.321,3.621
		C24.768,10.26,24.953,12.104,23.818,13.588z"/>
</g>
<g>
</g>
<g>
</g>
<g>
</g>
<g>
</g>
<g>
</g>
<g>
</g>
<g>
</g>
<g>
</g>
<g>
</g>
<g>
</g>
<g>
</g>
<g>
</g>
<g>
</g>
<g>
</g>
<g>
</g>
</svg>
