<?xml version="1.0" encoding="iso-8859-1"?>
<!-- Generator: Adobe Illustrator 16.0.0, SVG Export Plug-In . SVG Version: 6.00 Build 0)  -->
<!DOCTYPE svg PUBLIC "-//W3C//DTD SVG 1.1//EN" "http://www.w3.org/Graphics/SVG/1.1/DTD/svg11.dtd">
<svg version="1.1" id="Capa_1" xmlns="http://www.w3.org/2000/svg" xmlns:xlink="http://www.w3.org/1999/xlink" x="0px" y="0px"
	 width="64px" height="64px" viewBox="0 0 64 64" style="enable-background:new 0 0 64 64;" xml:space="preserve">
<g>
	<g>
		<g id="Rewind_copy_6_4_">
			<g>
				<path d="M42.197,24.891c-0.486-0.26-1.077-0.23-1.536,0.074L33,30.197v0.021l-0.059,0.018l-0.764,0.521
					c-0.104,0.07-0.198,0.151-0.28,0.242H31v-0.16l-0.012,0.004v-4.635c0-0.552-0.304-1.059-0.791-1.318
					c-0.486-0.26-1.077-0.23-1.536,0.074l-8.482,5.793c-0.417,0.278-0.667,0.744-0.667,1.244s0.25,0.967,0.667,1.244l8.482,5.793
					c0.459,0.307,1.05,0.335,1.536,0.073c0.487-0.26,0.791-0.766,0.791-1.317v-4.606L31,33.189V33h0.896
					c0.083,0.093,0.177,0.176,0.284,0.246l0.545,0.373L33,33.688v0.121l7.661,5.23c0.459,0.307,1.05,0.335,1.536,0.074
					c0.486-0.262,0.791-0.766,0.791-1.318V26.209C42.988,25.657,42.686,25.15,42.197,24.891z M32,0C14.327,0,0,14.327,0,32
					s14.327,32,32,32s32-14.327,32-32S49.673,0,32,0z M45,39.993c0,0.737-0.406,1.412-1.057,1.761
					c-0.65,0.348-1.439,0.311-2.053-0.1L33,35.734v4.259c0,0.737-0.406,1.412-1.057,1.761c-0.65,0.348-1.439,0.311-2.053-0.1
					l-12-7.989C17.334,33.294,17,32.67,17,32.003c0-0.668,0.334-1.291,0.891-1.662l12-7.989c0.613-0.408,1.402-0.447,2.053-0.1
					C32.594,22.599,33,23.275,33,24.014v4.257l8.891-5.919c0.613-0.408,1.402-0.447,2.053-0.1C44.594,22.599,45,23.275,45,24.014
					V39.993z"/>
			</g>
		</g>
	</g>
</g>
<g>
</g>
<g>
</g>
<g>
</g>
<g>
</g>
<g>
</g>
<g>
</g>
<g>
</g>
<g>
</g>
<g>
</g>
<g>
</g>
<g>
</g>
<g>
</g>
<g>
</g>
<g>
</g>
<g>
</g>
</svg>
