<?xml version="1.0" encoding="iso-8859-1"?>
<!-- Generator: Adobe Illustrator 16.0.0, SVG Export Plug-In . SVG Version: 6.00 Build 0)  -->
<!DOCTYPE svg PUBLIC "-//W3C//DTD SVG 1.1//EN" "http://www.w3.org/Graphics/SVG/1.1/DTD/svg11.dtd">
<svg version="1.1" id="Capa_1" xmlns="http://www.w3.org/2000/svg" xmlns:xlink="http://www.w3.org/1999/xlink" x="0px" y="0px"
	 width="47px" height="47px" viewBox="0 0 47 47" style="enable-background:new 0 0 47 47;" xml:space="preserve">
<g>
	<g>
		<ellipse cx="11.868" cy="26.321" rx="2.351" ry="4.23"/>
		<path d="M41.777,13.448H27.156v-2.089c0-2.873-2.352-5.222-5.223-5.222H5.222C2.351,6.137,0,8.486,0,11.359v24.284
			c0,2.873,2.351,5.221,5.222,5.221h16.711h19.844c2.871,0,5.223-2.348,5.223-5.221V18.67C47,15.798,44.648,13.448,41.777,13.448z
			 M38.546,28.787h-6.284l-0.305-1.162h-1.541l-0.576,1.162h-0.999l-0.305-1.161h-1.542l-0.578,1.161h-1.865l-1.397,1.529
			l-3.051,0.002l-0.162,1.955c-0.241,1.523-1.67,2.488-3.175,2.151l-6.984-1.573c-1.504-0.34-2.732-1.873-2.732-3.41l0.002-6.244
			c-0.001-1.541,1.226-3.071,2.731-3.409l6.982-1.574c1.505-0.336,2.935,0.627,3.176,2.152l0.162,1.957h4.448l1.398,1.532h12.598
			l1.402,2.463L38.546,28.787z"/>
	</g>
</g>
<g>
</g>
<g>
</g>
<g>
</g>
<g>
</g>
<g>
</g>
<g>
</g>
<g>
</g>
<g>
</g>
<g>
</g>
<g>
</g>
<g>
</g>
<g>
</g>
<g>
</g>
<g>
</g>
<g>
</g>
</svg>
