<?xml version="1.0" encoding="iso-8859-1"?>
<!-- Generator: Adobe Illustrator 16.0.0, SVG Export Plug-In . SVG Version: 6.00 Build 0)  -->
<!DOCTYPE svg PUBLIC "-//W3C//DTD SVG 1.1//EN" "http://www.w3.org/Graphics/SVG/1.1/DTD/svg11.dtd">
<svg version="1.1" id="Capa_1" xmlns="http://www.w3.org/2000/svg" xmlns:xlink="http://www.w3.org/1999/xlink" x="0px" y="0px"
	 width="64px" height="64px" viewBox="0 0 64 64" style="enable-background:new 0 0 64 64;" xml:space="preserve">
<g>
	<g>
		<g id="circle_68_">
			<g>
				<path d="M40,34c-1.657,0-3,1.343-3,3s1.343,3,3,3s3-1.343,3-3S41.657,34,40,34z M24,38c-1.657,0-3,1.343-3,3s1.343,3,3,3
					s3-1.343,3-3S25.657,38,24,38z M29,28l14-4v-4l-14,4V28z M32,0C14.327,0,0,14.327,0,32s14.327,32,32,32s32-14.327,32-32
					S49.673,0,32,0z M45,38h-0.102c-0.463,2.282-2.479,4-4.898,4c-2.762,0-5-2.238-5-5s2.238-5,5-5c1.131,0,2.162,0.391,3,1.021V26
					l-14,4v12h-0.101c-0.464,2.282-2.48,4-4.899,4c-2.762,0-5-2.238-5-5s2.238-5,5-5c1.131,0,2.162,0.391,3,1.021V24
					c0-1.104,0.896-2,2-2l14-4c1.104,0,2,0.896,2,2V38z"/>
			</g>
		</g>
	</g>
</g>
<g>
</g>
<g>
</g>
<g>
</g>
<g>
</g>
<g>
</g>
<g>
</g>
<g>
</g>
<g>
</g>
<g>
</g>
<g>
</g>
<g>
</g>
<g>
</g>
<g>
</g>
<g>
</g>
<g>
</g>
</svg>
