<?xml version="1.0" encoding="iso-8859-1"?>
<!-- Generator: Adobe Illustrator 16.0.0, SVG Export Plug-In . SVG Version: 6.00 Build 0)  -->
<!DOCTYPE svg PUBLIC "-//W3C//DTD SVG 1.1//EN" "http://www.w3.org/Graphics/SVG/1.1/DTD/svg11.dtd">
<svg version="1.1" id="Capa_1" xmlns="http://www.w3.org/2000/svg" xmlns:xlink="http://www.w3.org/1999/xlink" x="0px" y="0px"
	 width="45.588px" height="45.588px" viewBox="0 0 45.588 45.588" style="enable-background:new 0 0 45.588 45.588;"
	 xml:space="preserve">
<g>
	<g>
		<path d="M40.11,5.414c-0.045-0.274-0.178-0.606-0.504-0.916l-2.303-2.272c0-0.001,0-0.001,0-0.001h-0.002
			C35.634,0.582,28.442,0,22.79,0C17.149,0,9.976,0.58,8.285,2.216C8.281,2.22,8.278,2.223,8.274,2.226L8.273,2.228L5.989,4.483
			C5.543,4.904,5.45,5.35,5.45,5.651v4.676c0,1.206,1.407,1.762,1.85,1.936c0.153,0.065,0.319,0.127,0.51,0.193l1.148,8.014v0.001
			l1.457,10.235c0,0.001,0,0.001,0,0.002l2.051,11.651c0.16,3.138,9.276,3.229,10.324,3.229c1.047,0,10.162-0.09,10.324-3.229
			l2.049-11.651c0,0,0-0.001,0-0.002l2.615-18.251c0.18-0.061,0.342-0.123,0.48-0.184c0.463-0.183,1.869-0.74,1.869-1.945V5.789
			c0.008-0.046,0.01-0.092,0.01-0.139C40.138,5.569,40.13,5.489,40.11,5.414z M22.79,1.951c6.404,0,10.965,0.71,12.583,1.351
			c-1.032,0.413-2.996,0.787-5.483,1.042c-2.06,0.211-4.515,0.322-7.1,0.322c-2.587,0-5.043-0.111-7.103-0.322
			c-2.47-0.254-4.425-0.626-5.478-1.042C11.833,2.659,16.39,1.951,22.79,1.951z M31.175,42.139
			c-0.002,0.008-0.002,0.014-0.004,0.021c-0.455,0.521-3.345,1.479-8.381,1.479c-5.037,0-7.926-0.959-8.383-1.479
			c0-0.007-0.001-0.015-0.002-0.021l-1.729-9.391c3.35,1.374,9.25,1.425,10.113,1.425c0.863,0,6.761-0.051,10.111-1.425
			L31.175,42.139z M33.25,30.298c-0.465,0.711-4.237,1.925-10.46,1.925c-6.235,0-10.011-1.219-10.462-1.921l-1.101-7.728
			c2.981,1.299,8.178,1.697,11.562,1.697c3.401,0,8.588-0.4,11.563-1.699L33.25,30.298z M34.739,19.912l-0.025,0.148
			c-0.365,0.801-4.716,2.26-11.924,2.26c-7.151,0-11.488-1.436-11.917-2.239l-1.016-7.089c3.162,0.65,7.877,1.031,12.933,1.031
			c5.051,0,9.762-0.38,12.941-1.034L34.739,19.912z M38.179,7.638v2.496c-0.092,0.067-0.287,0.186-0.666,0.337
			c-0.229,0.099-0.52,0.197-0.863,0.288c-0.038,0.01-0.075,0.023-0.109,0.037c-0.085,0.02-0.169,0.042-0.247,0.063
			c-2.954,0.76-8.003,1.213-13.502,1.213c-5.501,0-10.548-0.454-13.523-1.218c-0.053-0.012-0.105-0.027-0.156-0.041
			c-0.001,0-0.002-0.001-0.003-0.001H9.106c-0.001,0-0.001,0-0.001,0c-0.028-0.008-0.057-0.016-0.081-0.022
			c-0.027-0.007-0.056-0.015-0.082-0.021c-0.374-0.11-0.656-0.208-0.906-0.312c-0.357-0.141-0.544-0.257-0.635-0.323L7.288,7.92
			h0.069C7.356,7.898,7.353,7.875,7.355,7.854C6.971,7.718,7.327,6.577,7.628,5.607l0.96-0.949C8.722,4.75,8.879,4.84,9.058,4.925
			c1.474,0.73,4.31,1.142,6.431,1.358c2.124,0.218,4.648,0.333,7.301,0.333c2.651,0,5.174-0.115,7.299-0.333
			c2.121-0.216,4.961-0.628,6.413-1.35c0.188-0.088,0.349-0.181,0.488-0.277l0.961,0.95c0.097,0.479,0.147,0.875,0.285,1.978
			l-0.179,0.002c0,0.018,0,0.035-0.002,0.053L38.179,7.638z"/>
	</g>
</g>
<g>
</g>
<g>
</g>
<g>
</g>
<g>
</g>
<g>
</g>
<g>
</g>
<g>
</g>
<g>
</g>
<g>
</g>
<g>
</g>
<g>
</g>
<g>
</g>
<g>
</g>
<g>
</g>
<g>
</g>
</svg>
