<?xml version="1.0" encoding="iso-8859-1"?>
<!-- Generator: Adobe Illustrator 16.0.0, SVG Export Plug-In . SVG Version: 6.00 Build 0)  -->
<!DOCTYPE svg PUBLIC "-//W3C//DTD SVG 1.1//EN" "http://www.w3.org/Graphics/SVG/1.1/DTD/svg11.dtd">
<svg version="1.1" id="Capa_1" xmlns="http://www.w3.org/2000/svg" xmlns:xlink="http://www.w3.org/1999/xlink" x="0px" y="0px"
	 width="750px" height="750px" viewBox="0 0 750 750" style="enable-background:new 0 0 750 750;" xml:space="preserve">
<g>
	<g>
		<path d="M364.003,171.303c-14.016,0-25.155,11.771-24.384,25.765l7.944,144.146c0.476,8.615,7.6,15.357,16.228,15.357h18.08h18.08
			c8.628,0,15.752-6.742,16.227-15.357l7.945-144.146c0.771-13.994-10.368-25.765-24.385-25.765H364.003z"/>
		<path d="M713.838,484.277l-14.4-22.908l-9.104-14.486c-8.29-13.188-22.539-21.062-38.116-21.062h-57.878h-18.847h-18.849
			l-26.578-31.047c-5.197-6.072-12.791-9.568-20.783-9.568H396.932H381.87h-15.062H254.46c-7.993,0-15.586,3.494-20.784,9.568
			l-26.578,31.047H188.25h-18.847H97.78c-15.577,0-29.826,7.875-38.116,21.061l-9.106,14.486l-14.4,22.91l-13.466,21.424
			L4.387,534.822c-3.434,5.463-4.857,11.814-4.251,18.025c0.373,3.82,1.511,7.588,3.431,11.062c1.61,2.914,3.688,5.469,6.106,7.605
			c5.154,4.553,11.863,7.182,18.958,7.182h21.168h325.198h309.99h36.377c2.316,0,4.589-0.295,6.783-0.83
			c7.679-1.873,14.36-6.861,18.28-13.957c5.041-9.123,4.728-20.264-0.82-29.088L713.838,484.277z M55.582,507.186l14.4-22.908
			l13.926-22.156c0.162-0.258,0.333-0.506,0.508-0.754c3.06-4.316,8.034-6.91,13.364-6.91h60.3h14.446h17.332h185.14h6.872h192.013
			h17.332h14.446h46.555c5.33,0,10.303,2.592,13.364,6.91c0.175,0.248,0.346,0.496,0.508,0.754l13.926,22.156l14.4,22.908H55.582z"
			/>
	</g>
</g>
<g>
</g>
<g>
</g>
<g>
</g>
<g>
</g>
<g>
</g>
<g>
</g>
<g>
</g>
<g>
</g>
<g>
</g>
<g>
</g>
<g>
</g>
<g>
</g>
<g>
</g>
<g>
</g>
<g>
</g>
</svg>
