<?xml version="1.0" encoding="iso-8859-1"?>
<!-- Generator: Adobe Illustrator 16.0.0, SVG Export Plug-In . SVG Version: 6.00 Build 0)  -->
<!DOCTYPE svg PUBLIC "-//W3C//DTD SVG 1.1//EN" "http://www.w3.org/Graphics/SVG/1.1/DTD/svg11.dtd">
<svg version="1.1" id="Capa_1" xmlns="http://www.w3.org/2000/svg" xmlns:xlink="http://www.w3.org/1999/xlink" x="0px" y="0px"
	 width="988.293px" height="988.293px" viewBox="0 0 988.293 988.293" style="enable-background:new 0 0 988.293 988.293;"
	 xml:space="preserve">
<g>
	<path d="M936.601,343.752c-15.592-36.75-48.677-62.118-86.354-73.213c-28.106-8.277-57.97-9.033-87.191-5.847
		c29.143-10.798,59.23-19.286,89.925-23.961c4.717-0.536,9.441-0.973,14.181-1.28c23.907-1.552,43.967-18.825,43.967-43.967
		c0-22.791-20.026-45.522-43.967-43.967c-51.354,3.334-101.526,17.228-148.941,36.79c-50.508,20.837-97.683,46.685-140.788,79.991
		c6.128-26.119,11.015-52.481,12.917-79.338c1.819-25.676-0.062-51.984-6.839-76.867c-7.451-27.36-21.638-51.917-39.947-73.393
		c-9.844-11.546-21.211-21.421-33.094-30.756c-0.466-0.589-0.959-1.151-1.483-1.675c-9.095-9.094-21.832-7.59-31.091,0
		c-18.758,15.379-28.046,40.599-33.341,63.519c-5.558,24.055-7.466,49.071-8.084,73.702
		c-1.395,55.613,11.175,110.763,40.111,158.674c2.104,3.483,4.308,6.925,6.612,10.312c-8.579-1.378-17.311-2.081-26.135-2.081
		c-12.943,0-25.71,1.547-38.064,4.502c-0.36-3.848-0.85-7.7-1.482-11.552c-7.102-43.234-30.613-81.114-66.206-106.664
		c-28.057-20.14-61.096-30.786-95.547-30.786c-52.764,0-102.616,25.564-133.354,68.384c-25.549,35.592-35.709,79.003-28.607,122.237
		c5.411,32.942,20.359,62.768,42.909,86.407c-14.969,10.471-28.268,23.462-39.159,38.634c-46.4,64.64-38.916,151.88,13.58,207.84
		c-15.309,10.567-28.9,23.758-39.992,39.211c-52.742,73.474-35.875,176.157,37.599,228.899
		c28.057,20.141,61.096,30.786,95.547,30.786c52.764,0,102.617-25.563,133.354-68.384c11.041-15.381,19.202-32.225,24.345-49.882
		c21.771,10.336,45.535,15.716,70.014,15.716c52.764,0,102.616-25.564,133.354-68.384c10.95-15.255,19.063-31.947,24.212-49.443
		c21.384,9.9,44.646,15.049,68.593,15.049c52.764,0,102.615-25.563,133.354-68.384c25.549-35.592,35.709-79.003,28.607-122.237
		c-7.103-43.233-30.614-81.113-66.206-106.663c-28.058-20.141-61.098-30.785-95.547-30.785c-12.972,0-25.764,1.553-38.143,4.519
		c-2.609-28.171-12.448-55.577-29.001-79.209c2.129-1.825,4.286-3.62,6.484-5.364c0.534-0.401,1.068-0.802,1.604-1.201
		c1.596-1.184,3.21-2.34,4.831-3.487c3.64-2.574,7.354-5.039,11.107-7.442c15.736-10.077,32.388-18.71,49.459-26.284
		c0.755-0.335,2.848-1.229,4.159-1.792c1.597-0.659,3.194-1.318,4.799-1.959c4.829-1.932,9.702-3.753,14.6-5.503
		c9.499-3.394,19.135-6.402,28.861-9.077c9.695-2.666,19.504-4.909,29.384-6.768c4.474-0.841,8.969-1.564,13.476-2.217
		c0.995-0.124,1.992-0.243,2.989-0.358c2.713-0.314,5.434-0.574,8.154-0.811c9.497-0.827,19.04-1.109,28.57-0.851
		c4.435,0.12,8.863,0.407,13.28,0.808c1.011,0.091,2.019,0.197,3.025,0.308c0.389,0.08,4.811,0.689,6.151,0.923
		c8.584,1.497,17.032,3.734,25.229,6.686c0.85,0.306,2.902,1.132,4.014,1.573c0.966,0.442,1.926,0.895,2.882,1.357
		c3.913,1.889,7.695,4.04,11.368,6.359c1.689,1.067,3.334,2.202,4.963,3.359c0.264,0.188,0.521,0.387,0.781,0.579
		c0.112,0.089,0.219,0.175,0.313,0.252c3.385,2.763,6.551,5.784,9.559,8.951c1.409,1.484,2.75,3.029,4.068,4.593
		c0.263,0.312,0.513,0.634,0.77,0.951c0.091,0.12,0.177,0.235,0.25,0.336c2.736,3.744,5.167,7.704,7.407,11.761
		c1.072,1.941,2.058,3.928,3.018,5.927c0.379,0.788,0.733,1.587,1.091,2.384c2.021,5.051,3.78,10.268,5.062,15.553
		c0.28,1.153,0.496,2.321,0.705,3.489c0.012,0.141,0.026,0.295,0.042,0.472c0.261,2.792,0.269,5.602,0.195,8.402
		c-0.036,1.396-0.154,2.788-0.271,4.179c-0.001,0.007-0.001,0.012-0.002,0.02c-0.516,3.104-1.292,6.163-2.17,9.183
		c-0.347,1.193-2.226,6.111-2.185,6.249c-0.845,1.795-1.759,3.558-2.705,5.301c-1.351,2.488-2.874,4.877-4.45,7.227
		c-0.268,0.399-0.548,0.791-0.826,1.183c0.019-0.086-2.074,2.626-2.686,3.334c-3.203,3.708-6.773,7.078-10.533,10.214
		c0.45-0.483-4.324,3.036-5.439,3.743c-2.774,1.759-5.686,3.29-8.642,4.717c-0.144,0.07-0.274,0.133-0.391,0.19
		c-1.144,0.441-2.301,0.845-3.46,1.241c-2.65,0.902-5.369,1.589-8.101,2.195c-0.536,0.119-1.076,0.22-1.617,0.319
		c-0.717,0.101-1.722,0.238-2.257,0.283c-3.3,0.275-6.618,0.219-9.92,0.024c-0.411-0.023-1.151-0.104-1.809-0.179
		c-0.795-0.15-1.588-0.31-2.381-0.475c-2.809-0.585-5.565-1.422-8.275-2.358c-0.006-0.002-0.014-0.005-0.021-0.008
		c-0.626-0.31-1.246-0.627-1.862-0.952c-1.088-0.573-4.056-2.629-4.942-3.166c-0.787-0.712-1.552-1.447-2.302-2.196
		c-0.599-0.597-1.779-2.031-2.547-2.963c-0.643-0.974-1.261-1.964-1.849-2.97c-0.533-0.912-1.592-3.269-2.143-4.465
		c-0.842-2.513-1.472-5.093-1.967-7.695c-0.041-0.545-0.075-1.091-0.106-1.636c-0.124-2.172-0.064-4.351,0.074-6.521
		c0.003-0.042,0.006-0.085,0.009-0.129c0.021-0.11,0.041-0.223,0.063-0.334c0.335-1.743,0.816-3.453,1.351-5.144
		c0.062-0.198,0.135-0.394,0.203-0.589c0.427-0.854,0.895-1.684,1.396-2.493c0.576-0.723,1.33-1.642,1.87-2.168
		c0.047-0.046,0.099-0.088,0.146-0.133c0.479-0.304,1.192-0.662,1.874-0.983c0.521-0.151,1.045-0.287,1.574-0.41
		c0.475-0.049,0.959-0.09,1.345-0.102c0.789-0.023,1.577-0.003,2.364,0.039c0.772,0.106,1.707,0.247,2.285,0.375
		c1.96,0.433,3.877,1.042,5.778,1.679c11.366,3.808,23.997-4.281,27.042-15.354c3.31-12.032-4.003-23.239-15.354-27.043
		c-20.897-7.002-46.196-3.918-60.93,13.865c-14.247,17.196-17.58,39.232-13.002,60.727c4.425,20.774,19.286,40.161,38.527,49.247
		c27.159,12.822,57.622,10.312,84.043-2.998c25.091-12.641,43.409-35.869,53.357-61.692c4.66-12.096,6.555-25.88,5.611-38.781
		C946.598,369.462,942.124,356.771,936.601,343.752z M482.006,187.726c-0.016-0.105-0.03-0.194-0.044-0.288
		c-0.013-0.105-0.026-0.207-0.04-0.326c-0.266-2.134-0.482-4.273-0.689-6.413c-2.141-21.965-1.096-44.619,0.769-66.571
		c0.242-2.849,0.531-5.693,0.839-8.536c0.156-1.435,0.329-2.868,0.503-4.302c0.009-0.077,0.018-0.139,0.025-0.208
		c0.864-6.107,1.964-12.18,3.27-18.208c1.194-5.509,2.664-10.955,4.366-16.328c0.821-2.592,1.749-5.147,2.721-7.686
		c0.038-0.098,0.085-0.218,0.138-0.345c0.602-1.339,1.238-2.662,1.892-3.977c0.214-0.431,0.449-0.85,0.672-1.277
		c0.63,0.58,1.266,1.154,1.891,1.739c5.388,5.042,10.441,10.431,15.228,16.045c1.059,1.242,2.085,2.513,3.11,3.784
		c0.02,0.025,0.035,0.045,0.056,0.069c0.121,0.163,0.258,0.348,0.426,0.573c1.886,2.519,3.664,5.114,5.405,7.733
		c3.65,5.49,6.891,11.244,9.845,17.134c1.001,1.996,1.93,4.029,2.834,6.07c-0.516-1.049,1.952,5.04,2.405,6.302
		c2.124,5.91,3.824,11.965,5.267,18.074c0.664,2.811,1.224,5.645,1.749,8.484c0.206,1.111,0.858,5.603,1.026,6.578
		c0.627,5.463,1.005,10.953,1.216,16.446c0.478,12.409-0.169,24.846-1.401,37.194c-0.227,2.262-0.491,4.52-0.768,6.776
		c0.059-0.637-0.813,5.813-1.016,7.127c-1.031,6.685-2.254,13.34-3.564,19.975c-4.142,20.968-9.479,41.678-15.021,62.32
		c-0.247-0.321-0.46-0.599-0.574-0.753c-1.288-1.741-2.526-3.519-3.756-5.3c-7.89-11.422-14.505-23.701-20.231-36.333
		c-0.371-0.818-0.722-1.645-1.081-2.468c-0.133-0.349-1.098-2.653-1.318-3.206c-1.261-3.153-2.434-6.341-3.575-9.539
		c-2.468-6.913-4.593-13.944-6.5-21.031c-1.739-6.463-3.182-13.004-4.436-19.578C483.023,194.238,482.499,190.983,482.006,187.726z
		 M505.952,406.169c36.229,26.007,45.575,75.712,22.13,112.965c-1.046,1.364-2.074,2.743-3.079,4.145
		c-1.021,1.423-2.008,2.86-2.977,4.305c-15.885,19.427-39.873,30.882-65.178,30.882c-17.609,0-34.518-5.455-48.895-15.774
		c-36.23-26.008-45.575-75.714-22.129-112.967c1.045-1.362,2.073-2.742,3.079-4.143c1.021-1.423,2.009-2.862,2.98-4.309
		c15.884-19.425,39.871-30.878,65.173-30.878C474.668,390.395,491.576,395.849,505.952,406.169z M162.535,528.209
		c15.748-21.938,41.305-35.036,68.365-35.036c17.611,0,34.518,5.455,48.896,15.775c36.228,26.006,45.574,75.709,22.131,112.963
		c-1.046,1.364-2.075,2.744-3.081,4.146c-1.022,1.425-2.008,2.862-2.978,4.308c-15.884,19.426-39.872,30.88-65.176,30.88
		c-17.611,0-34.518-5.455-48.895-15.775C144.158,618.451,135.517,565.848,162.535,528.209z M187.394,280.932
		c15.748-21.938,41.305-35.036,68.365-35.036c17.611,0,34.518,5.455,48.895,15.775c18.233,13.088,30.278,32.494,33.917,54.641
		c3.356,20.438-0.833,40.945-11.782,58.318c-1.047,1.365-2.077,2.747-3.084,4.149c-1.021,1.423-2.008,2.861-2.978,4.305
		c-15.884,19.427-39.873,30.882-65.177,30.882c-17.61,0-34.518-5.455-48.895-15.774c-18.233-13.088-30.278-32.494-33.916-54.642
		C169.101,321.401,174.305,299.165,187.394,280.932z M272.644,873.257c-15.748,21.938-41.305,35.036-68.365,35.036
		c-17.611,0-34.518-5.455-48.895-15.775c-37.639-27.019-46.279-79.62-19.261-117.26c15.748-21.938,41.305-35.036,68.365-35.036
		c17.61,0,34.518,5.455,48.895,15.775c18.233,13.088,30.278,32.493,33.916,54.641C290.937,832.787,285.732,855.025,272.644,873.257z
		 M500.354,770.708c-15.747,21.938-41.305,35.036-68.363,35.036c-17.611,0-34.52-5.455-48.896-15.775
		c-36.229-26.006-45.574-75.71-22.131-112.963c1.046-1.364,2.075-2.744,3.081-4.145c1.022-1.424,2.008-2.862,2.979-4.307
		c15.884-19.426,39.871-30.881,65.176-30.881c17.609,0,34.518,5.455,48.895,15.775c18.233,13.088,30.278,32.493,33.916,54.641
		C518.648,730.238,513.443,752.475,500.354,770.708z M707.252,550.669c18.233,13.088,30.278,32.493,33.916,54.641
		c3.638,22.148-1.567,44.387-14.655,62.619c-15.748,21.938-41.305,35.036-68.364,35.036c-17.61,0-34.518-5.455-48.895-15.774
		c-36.229-26.008-45.575-75.713-22.13-112.966c1.046-1.363,2.074-2.742,3.079-4.144c1.021-1.423,2.008-2.861,2.977-4.305
		c15.884-19.428,39.873-30.883,65.177-30.883C675.967,534.894,692.875,540.349,707.252,550.669z"/>
</g>
<g>
</g>
<g>
</g>
<g>
</g>
<g>
</g>
<g>
</g>
<g>
</g>
<g>
</g>
<g>
</g>
<g>
</g>
<g>
</g>
<g>
</g>
<g>
</g>
<g>
</g>
<g>
</g>
<g>
</g>
</svg>
