<?xml version="1.0" encoding="iso-8859-1"?>
<!-- Generator: Adobe Illustrator 16.0.0, SVG Export Plug-In . SVG Version: 6.00 Build 0)  -->
<!DOCTYPE svg PUBLIC "-//W3C//DTD SVG 1.1//EN" "http://www.w3.org/Graphics/SVG/1.1/DTD/svg11.dtd">
<svg version="1.1" id="Capa_1" xmlns="http://www.w3.org/2000/svg" xmlns:xlink="http://www.w3.org/1999/xlink" x="0px" y="0px"
	 width="64px" height="64px" viewBox="0 0 64 64" style="enable-background:new 0 0 64 64;" xml:space="preserve">
<g>
	<g>
		<g id="Rewind_copy_6_5_">
			<g>
				<path d="M32,0C14.327,0,0,14.327,0,32s14.327,32,32,32c17.672,0,32-14.327,32-32S49.672,0,32,0z M32,62C15.432,62,2,48.568,2,32
					C2,15.432,15.432,2,32,2c16.568,0,30,13.432,30,30C62,48.568,48.568,62,32,62z"/>
			</g>
		</g>
		<g id="Reply_copy_4_1_">
			<g>
				<path d="M46.109,30.341l-12-7.989c-0.613-0.408-1.402-0.447-2.053-0.1C31.405,22.599,31,23.276,31,24.014v4.257l-8.891-5.919
					c-0.613-0.408-1.402-0.447-2.053-0.1C19.405,22.599,19,23.276,19,24.014v15.979c0,0.737,0.406,1.412,1.057,1.761
					c0.65,0.348,1.439,0.311,2.053-0.1l8.89-5.92v4.259c0,0.737,0.406,1.412,1.057,1.761c0.65,0.348,1.439,0.311,2.053-0.1l12-7.989
					C46.666,33.294,47,32.67,47,32.003C47,31.335,46.666,30.712,46.109,30.341z M43.82,33.246l-8.481,5.793
					c-0.459,0.307-1.05,0.335-1.537,0.074c-0.487-0.262-0.79-0.766-0.79-1.318v-4.607L33,33.189V33h-0.895
					c-0.084,0.093-0.179,0.176-0.285,0.246l-0.546,0.373L31,33.688v0.121l-7.661,5.23c-0.459,0.307-1.05,0.335-1.537,0.074
					c-0.487-0.262-0.791-0.766-0.791-1.318V26.209c0-0.552,0.304-1.059,0.791-1.318c0.487-0.259,1.078-0.23,1.537,0.074L31,30.197
					v0.021l0.058,0.018l0.764,0.522c0.104,0.069,0.198,0.15,0.282,0.241H33v-0.16l0.012,0.004v-4.635
					c0-0.552,0.305-1.059,0.791-1.318c0.487-0.259,1.077-0.23,1.537,0.074l8.482,5.794c0.416,0.277,0.666,0.743,0.666,1.243
					S44.238,32.969,43.82,33.246z"/>
			</g>
		</g>
	</g>
</g>
<g>
</g>
<g>
</g>
<g>
</g>
<g>
</g>
<g>
</g>
<g>
</g>
<g>
</g>
<g>
</g>
<g>
</g>
<g>
</g>
<g>
</g>
<g>
</g>
<g>
</g>
<g>
</g>
<g>
</g>
</svg>
