<?xml version="1.0" encoding="iso-8859-1"?>
<!-- Generator: Adobe Illustrator 16.0.0, SVG Export Plug-In . SVG Version: 6.00 Build 0)  -->
<!DOCTYPE svg PUBLIC "-//W3C//DTD SVG 1.1//EN" "http://www.w3.org/Graphics/SVG/1.1/DTD/svg11.dtd">
<svg version="1.1" id="Capa_1" xmlns="http://www.w3.org/2000/svg" xmlns:xlink="http://www.w3.org/1999/xlink" x="0px" y="0px"
	 width="950px" height="950px" viewBox="0 0 950 950" style="enable-background:new 0 0 950 950;" xml:space="preserve">
<g>
	<path d="M326.578,318.345c0,100.269-89.953,249.108-102.854,333.054c-4.021,17.208-6.208,35.07-6.208,53.438
		C217.516,840.234,332.806,950,475,950c142.194,0,257.485-109.766,257.485-245.163c0-18.367-2.189-36.229-6.172-53.447
		C713.375,567.453,623.42,418.604,623.42,318.345c0-63.252-43.662-116.771-103.855-134.791c0.094-1.715,0.084-3.45,0.004-5.211
		c27.863-2.21,78.916-11.091,113.436-45.61c34.305-34.298,43.291-84.924,45.57-112.905c0.92-11.278-8.49-20.686-19.77-19.766
		c-27.977,2.282-78.598,11.272-112.895,45.569c-20.883,20.886-32.383,47.813-38.701,71.994c-0.746-2.114-1.533-4.213-2.377-6.293
		c-9.068-22.346-20.506-44.785-39.975-59.951c-11.847-9.227-22.387-15.379-36.455-20.842c-7.491-2.908-15.296-4.919-23.245-6.104
		c-19.506-2.907-38.532-3.807-58.214-3.316c-22.326,0.557-40.979,18.218-40.979,40.978c0,21.916,18.641,41.535,40.979,40.978
		c12.931-0.323,25.889-0.431,38.767,0.804c5.964,1.05,11.827,2.494,17.546,4.479c2.709,1.37,5.337,2.873,7.88,4.537
		c2.214,1.99,4.314,4.088,6.296,6.313c3.512,5.161,6.562,10.594,9.236,16.238c5.585,14.846,8.952,30.366,11.487,46.015
		C374.009,197.066,326.578,252.409,326.578,318.345z M572.332,659.207c11.088,9.443,12.422,26.086,2.98,37.174
		c-9.443,11.089-26.088,12.421-37.176,2.979c-4.545-3.872-7.453-8.964-8.648-14.377l-16.98-76.726L572.332,659.207z
		 M377.371,659.207l59.826-50.95l-16.981,76.726c-3.146,14.219-17.227,23.195-31.446,20.048s-23.194-17.227-20.048-31.446
		C370.011,667.754,373.148,662.8,377.371,659.207z"/>
</g>
<g>
</g>
<g>
</g>
<g>
</g>
<g>
</g>
<g>
</g>
<g>
</g>
<g>
</g>
<g>
</g>
<g>
</g>
<g>
</g>
<g>
</g>
<g>
</g>
<g>
</g>
<g>
</g>
<g>
</g>
</svg>
