<?xml version="1.0" encoding="iso-8859-1"?>
<!-- Generator: Adobe Illustrator 16.0.0, SVG Export Plug-In . SVG Version: 6.00 Build 0)  -->
<!DOCTYPE svg PUBLIC "-//W3C//DTD SVG 1.1//EN" "http://www.w3.org/Graphics/SVG/1.1/DTD/svg11.dtd">
<svg version="1.1" id="Capa_1" xmlns="http://www.w3.org/2000/svg" xmlns:xlink="http://www.w3.org/1999/xlink" x="0px" y="0px"
	 width="47.001px" height="47.001px" viewBox="0 0 47.001 47.001" style="enable-background:new 0 0 47.001 47.001;"
	 xml:space="preserve">
<g>
	<path d="M40.47,13.388c0,0-3.302-0.609-7.793-1.031V9.185C32.677,4.115,28.56,0,23.499,0c-5.058,0-9.176,4.114-9.176,9.185v4.023
		c-1.838,0.569-3.401,1.362-4.496,2.457C4.88,20.612,5.874,34.969,6.014,42.137c7.537-5.828,17.311-20.688,25.998-22.862
		C24.523,24.99,18.523,40.023,8.98,46.609c6.257,0.563,22.6,1.291,27.84-3.951C43.516,35.963,40.47,13.388,40.47,13.388z
		 M17.723,12.445V9.186c0-3.19,2.589-5.789,5.776-5.789c3.189,0,5.779,2.599,5.779,5.789v2.912
		C25.513,11.877,21.354,11.877,17.723,12.445z"/>
</g>
<g>
</g>
<g>
</g>
<g>
</g>
<g>
</g>
<g>
</g>
<g>
</g>
<g>
</g>
<g>
</g>
<g>
</g>
<g>
</g>
<g>
</g>
<g>
</g>
<g>
</g>
<g>
</g>
<g>
</g>
</svg>
