<?xml version="1.0" encoding="iso-8859-1"?>
<!-- Generator: Adobe Illustrator 16.0.0, SVG Export Plug-In . SVG Version: 6.00 Build 0)  -->
<!DOCTYPE svg PUBLIC "-//W3C//DTD SVG 1.1//EN" "http://www.w3.org/Graphics/SVG/1.1/DTD/svg11.dtd">
<svg version="1.1" id="Capa_1" xmlns="http://www.w3.org/2000/svg" xmlns:xlink="http://www.w3.org/1999/xlink" x="0px" y="0px"
	 width="44.003px" height="44.003px" viewBox="0 0 44.003 44.003" style="enable-background:new 0 0 44.003 44.003;"
	 xml:space="preserve">
<g>
	<g>
		<g id="meter">
			<g>
				<path d="M44.003,2.935C44.003,1.313,42.689,0,41.068,0H29.152c-1.62,0-2.934,1.313-2.934,2.935v2.38
					c0,0.205,0.02,0.404,0.061,0.597c-0.041,0.193-0.061,0.393-0.061,0.599v3.574c0,0.206,0.02,0.404,0.061,0.598
					c-0.041,0.192-0.061,0.389-0.061,0.594v5.958c0,0.206,0.02,0.405,0.061,0.598c-0.041,0.193-0.061,0.389-0.061,0.594v3.576
					c0,0.204,0.02,0.403,0.061,0.597c-0.041,0.193-0.061,0.389-0.061,0.593c0,0,0,1.623,0,3.024c-1.402,0-3.027,0-3.027,0
					c-0.205,0-0.4,0.019-0.593,0.06c-0.193-0.041-0.392-0.06-0.597-0.06h-3.575c-0.206,0-0.401,0.019-0.594,0.06
					c-0.193-0.041-0.392-0.06-0.598-0.06h-5.958c-0.205,0-0.401,0.019-0.594,0.06c-0.192-0.041-0.392-0.06-0.597-0.06H6.509
					c-0.205,0-0.401,0.019-0.594,0.06c-0.193-0.041-0.392-0.06-0.597-0.06H2.934C1.313,26.216,0,27.527,0,29.15v11.918
					c0,1.621,1.313,2.935,2.934,2.935h25.027c0.205,0,0.404-0.019,0.598-0.06c0.192,0.041,0.389,0.06,0.594,0.06h11.916
					c1.621,0,2.935-1.312,2.935-2.935V29.15c0-0.207-0.019-0.402-0.06-0.596c0.041-0.193,0.06-0.393,0.06-0.598V2.935z
					 M27.961,41.068H2.934V29.15h2.384v4.766h1.191V29.15h3.575V36.3h1.191V29.15h5.958v4.766h1.192V29.15H22V36.3h1.191V29.15h4.77
					V41.068z M41.068,41.068H29.152V29.15H41.07v11.918H41.068z M41.068,27.958H29.152v-4.767h7.15v-1.19h-7.15v-3.576h4.767v-1.191
					h-4.767v-5.958h7.15v-1.191h-7.15V6.51h4.767V5.314h-4.767v-2.38H41.07v25.024H41.068z"/>
			</g>
		</g>
	</g>
</g>
<g>
</g>
<g>
</g>
<g>
</g>
<g>
</g>
<g>
</g>
<g>
</g>
<g>
</g>
<g>
</g>
<g>
</g>
<g>
</g>
<g>
</g>
<g>
</g>
<g>
</g>
<g>
</g>
<g>
</g>
</svg>
