<?xml version="1.0" encoding="iso-8859-1"?>
<!-- Generator: Adobe Illustrator 16.0.0, SVG Export Plug-In . SVG Version: 6.00 Build 0)  -->
<!DOCTYPE svg PUBLIC "-//W3C//DTD SVG 1.1//EN" "http://www.w3.org/Graphics/SVG/1.1/DTD/svg11.dtd">
<svg version="1.1" id="Capa_1" xmlns="http://www.w3.org/2000/svg" xmlns:xlink="http://www.w3.org/1999/xlink" x="0px" y="0px"
	 width="47.002px" height="47.002px" viewBox="0 0 47.002 47.002" style="enable-background:new 0 0 47.002 47.002;"
	 xml:space="preserve">
<g>
	<path d="M45.5,39.301c0.128-1.469-0.357-2.82-1.372-3.833c-1.746-1.745-3.742-1.881-6.862-0.387
		c-2.269,1.025-3.354,1.297-3.993,0.657c-0.543-0.544-0.679-1.491,0.583-2.754c1.395-1.394,2.733-1.841,3.45-2.13l-1.629-2.752
		c-0.298,0.104-0.62,0.246-0.958,0.417l-4.779-4.78l0.498-3.882l-3.787-3.786l1.832-2.229c1.543-2.132,0.985-5.029-1.24-6.437
		l-10.349-6.55c-2.227-1.408-5.569-1.04-7.43,0.824l-7.55,7.547c-1.861,1.859-2.232,5.208-0.825,7.433l6.549,10.352
		c1.406,2.224,4.305,2.78,6.44,1.238l2.227-1.835l2.093,2.096l3.883-0.497l2.257,2.257l2.102-0.709l1.862,1.862l-1.036,1.779
		l1.211,1.208l0.896-0.302c-0.613,1.859-0.229,3.634,1.066,4.928c1.878,1.88,4.263,1.431,7.035,0.054
		c1.918-0.947,3.004-1.104,3.741-0.367c0.776,0.776,0.445,1.96-0.66,3.064c-1.259,1.258-2.81,1.995-4.068,2.363l1.686,2.851
		c0.584-0.157,1.281-0.463,2.002-0.89l0.422,0.423l4.681-1.291l1.292-4.678L45.5,39.301z M20.334,11.469l-2.006,2.617
		c-0.956,1.255-2.757,3.055-4.012,4.011l-2.619,2.004c-1.247,0.955-2.807,0.804-3.465-0.343l-3.054-5.337
		c-0.66-1.148-0.281-2.999,0.835-4.115l4.525-4.525c1.113-1.113,2.967-1.493,4.116-0.836l5.333,3.056
		C21.134,8.66,21.29,10.216,20.334,11.469z"/>
</g>
<g>
</g>
<g>
</g>
<g>
</g>
<g>
</g>
<g>
</g>
<g>
</g>
<g>
</g>
<g>
</g>
<g>
</g>
<g>
</g>
<g>
</g>
<g>
</g>
<g>
</g>
<g>
</g>
<g>
</g>
</svg>
