<?xml version="1.0" encoding="iso-8859-1"?>
<!-- Generator: Adobe Illustrator 16.0.0, SVG Export Plug-In . SVG Version: 6.00 Build 0)  -->
<!DOCTYPE svg PUBLIC "-//W3C//DTD SVG 1.1//EN" "http://www.w3.org/Graphics/SVG/1.1/DTD/svg11.dtd">
<svg version="1.1" id="Capa_1" xmlns="http://www.w3.org/2000/svg" xmlns:xlink="http://www.w3.org/1999/xlink" x="0px" y="0px"
	 width="950px" height="950px" viewBox="0 0 950 950" style="enable-background:new 0 0 950 950;" xml:space="preserve">
<g>
	<path d="M871.241,0H297.294C218.126,0,218,0,218,79.154v90.659c-18-7.286-38.526-11.452-59.531-11.452
		C71.001,158.361,0,229.198,0,316.701v296.864C0,701.069,71.001,771.89,158.469,771.89c21.005,0,41.531-4.166,59.531-11.452v110.408
		C218,950,218.126,950,297.294,950h573.947c79.186,0,78.759,0,78.759-79.154V79.154C950,0,950.427,0,871.241,0z M218,613.565
		c0,32.875-26.643,59.388-59.5,59.388c-32.839,0-59.5-26.513-59.5-59.388V316.701c0-32.892,26.661-59.388,59.5-59.388
		c32.857,0,59.5,26.495,59.5,59.388V613.565z M435,297v446.672c0,13.752-11.748,25.229-25.5,25.229S384,757.424,384,743.672V297
		v-25.081c0-13.752,11.748-25.228,25.5-25.228s25.5,11.476,25.5,25.228V297z M608,297v449.195c0,13.752-11.748,25.228-25.5,25.228
		S557,759.947,557,746.195V297v-22.558c0-13.752,11.748-25.228,25.5-25.228S608,260.69,608,274.442V297z M781,297v446.672
		c0,13.752-11.748,25.229-25.5,25.229S730,757.424,730,743.672V297v-25.081c0-13.752,11.748-25.228,25.5-25.228
		s25.5,11.476,25.5,25.228V297z M811,296.917v-24.998c0-14.664-5.983-28.509-16.458-38.984s-24.535-16.244-39.199-16.244
		c-14.665,0-28.566,5.769-39.042,16.244C705.826,243.41,700,257.255,700,271.919V297h-62v-22.558
		c0-14.664-5.887-28.509-16.362-38.984c-10.475-10.475-24.438-16.244-39.103-16.244s-28.663,5.769-39.139,16.244
		C532.923,245.933,527,259.778,527,274.442V297h-62v-25.081c0-14.664-5.791-28.509-16.266-38.984
		c-10.476-10.475-24.343-16.244-39.007-16.244c-14.663,0-28.759,5.769-39.233,16.244C360.019,243.41,354,257.255,354,271.919v24.991
		c-36.896-0.112-37-2.26-37-43.552V142.533C317,98.974,316.596,99,360.623,99h447.289C851.457,99,851,98.901,851,142.533v110.825
		C851,296.081,851.361,296.902,811,296.917z"/>
</g>
<g>
</g>
<g>
</g>
<g>
</g>
<g>
</g>
<g>
</g>
<g>
</g>
<g>
</g>
<g>
</g>
<g>
</g>
<g>
</g>
<g>
</g>
<g>
</g>
<g>
</g>
<g>
</g>
<g>
</g>
</svg>
