<?xml version="1.0" encoding="iso-8859-1"?>
<!-- Generator: Adobe Illustrator 16.0.0, SVG Export Plug-In . SVG Version: 6.00 Build 0)  -->
<!DOCTYPE svg PUBLIC "-//W3C//DTD SVG 1.1//EN" "http://www.w3.org/Graphics/SVG/1.1/DTD/svg11.dtd">
<svg version="1.1" id="Capa_1" xmlns="http://www.w3.org/2000/svg" xmlns:xlink="http://www.w3.org/1999/xlink" x="0px" y="0px"
	 width="940px" height="940px" viewBox="0 0 940 940" style="enable-background:new 0 0 940 940;" xml:space="preserve">
<g>
	<g>
		<path d="M297.077,609.927v97.562h-58.038c-12.315,0-18.217,15.122-9.157,23.465l217.424,200.189
			c6.413,5.905,14.555,8.857,22.695,8.857s16.282-2.952,22.695-8.857L710.12,730.953c9.06-8.342,3.158-23.465-9.157-23.465h-58.038
			v-97.562H297.077z"/>
		<path d="M86.43,584.927h185.646h12.5h12.5h345.848h12.5h12.5H853.57c21.87,0,39.599-17.729,39.599-39.599V100.301
			c0-21.87-17.729-39.599-39.599-39.599H470.001l-41.276-47.604C421.512,4.779,411.043,0,400.032,0H86.43
			C64.56,0,46.831,17.729,46.831,39.599v505.729C46.832,567.198,64.561,584.927,86.43,584.927z"/>
	</g>
</g>
<g>
</g>
<g>
</g>
<g>
</g>
<g>
</g>
<g>
</g>
<g>
</g>
<g>
</g>
<g>
</g>
<g>
</g>
<g>
</g>
<g>
</g>
<g>
</g>
<g>
</g>
<g>
</g>
<g>
</g>
</svg>
