<?xml version="1.0" encoding="iso-8859-1"?>
<!-- Generator: Adobe Illustrator 16.0.0, SVG Export Plug-In . SVG Version: 6.00 Build 0)  -->
<!DOCTYPE svg PUBLIC "-//W3C//DTD SVG 1.1//EN" "http://www.w3.org/Graphics/SVG/1.1/DTD/svg11.dtd">
<svg version="1.1" id="Capa_1" xmlns="http://www.w3.org/2000/svg" xmlns:xlink="http://www.w3.org/1999/xlink" x="0px" y="0px"
	 width="47px" height="47px" viewBox="0 0 47 47" style="enable-background:new 0 0 47 47;" xml:space="preserve">
<g>
	<path d="M35.25,25.775h4.28v-6.927h-5.079v-7.892C34.451,4.915,29.537,0,23.497,0c-6.038,0-10.951,4.915-10.951,10.957v7.892H7.47
		v11.445l4.28,9.583H7.47V47h32.06V35.361L35.25,25.775z M18.026,10.957c0-3.021,2.455-5.479,5.471-5.479s5.471,2.458,5.471,5.479
		v7.892H18.026V10.957z M18.047,39.877L11.75,25.775h5.453L23.5,39.877H18.047z M29.796,39.877L23.5,25.775h5.453l6.297,14.102
		H29.796z"/>
</g>
<g>
</g>
<g>
</g>
<g>
</g>
<g>
</g>
<g>
</g>
<g>
</g>
<g>
</g>
<g>
</g>
<g>
</g>
<g>
</g>
<g>
</g>
<g>
</g>
<g>
</g>
<g>
</g>
<g>
</g>
</svg>
