<?xml version="1.0" encoding="iso-8859-1"?>
<!-- Generator: Adobe Illustrator 16.0.0, SVG Export Plug-In . SVG Version: 6.00 Build 0)  -->
<!DOCTYPE svg PUBLIC "-//W3C//DTD SVG 1.1//EN" "http://www.w3.org/Graphics/SVG/1.1/DTD/svg11.dtd">
<svg version="1.1" id="Capa_1" xmlns="http://www.w3.org/2000/svg" xmlns:xlink="http://www.w3.org/1999/xlink" x="0px" y="0px"
	 width="750px" height="750px" viewBox="0 0 750 750" style="enable-background:new 0 0 750 750;" xml:space="preserve">
<g>
	<g>
		<path d="M314.868,734.356c34.343-20.026,57.475-57.262,57.475-99.802c0-63.656-51.789-115.445-115.445-115.445
			c-41.376,0-77.732,21.885-98.118,54.683c-10.977,17.661-17.328,38.482-17.328,60.763C141.451,698.212,193.24,750,256.896,750
			C278.013,750,297.82,744.296,314.868,734.356z"/>
		<path d="M98.535,182.183h8.324c0.039,0.389,0.071,0.778,0.123,1.168l46.328,349.215c26.397-26.808,63.082-43.457,103.587-43.457
			c80.199,0,145.444,65.246,145.444,145.445c0,38.688-15.186,73.893-39.906,99.975l174.158,0.633
			c18.398,0.066,33.994-13.521,36.447-31.755l69.967-519.988c0.055-0.414,0.09-0.824,0.131-1.236h8.326c11.045,0,20-8.955,20-20
			s-8.955-20-20-20h-15.908c-13.879-33.159-62.807-61.247-130.16-77.291c-6.643-9.824-14.807-18.958-24.402-27.173
			C452.582,13.396,414.951,0,375.037,0c-39.915,0-77.545,13.396-105.958,37.719c-9.596,8.215-17.759,17.349-24.403,27.173
			c-67.351,16.044-116.28,44.131-130.16,77.291H98.535c-11.046,0-20,8.955-20,20S87.49,182.183,98.535,182.183z M375.037,30
			c30.856,0,59.049,9.734,80.45,25.724c-25.371-3.396-52.396-5.236-80.45-5.236c-28.055,0-55.081,1.839-80.452,5.236
			C315.987,39.734,344.179,30,375.037,30z"/>
	</g>
</g>
<g>
</g>
<g>
</g>
<g>
</g>
<g>
</g>
<g>
</g>
<g>
</g>
<g>
</g>
<g>
</g>
<g>
</g>
<g>
</g>
<g>
</g>
<g>
</g>
<g>
</g>
<g>
</g>
<g>
</g>
</svg>
