<?xml version="1.0" encoding="iso-8859-1"?>
<!-- Generator: Adobe Illustrator 16.0.0, SVG Export Plug-In . SVG Version: 6.00 Build 0)  -->
<!DOCTYPE svg PUBLIC "-//W3C//DTD SVG 1.1//EN" "http://www.w3.org/Graphics/SVG/1.1/DTD/svg11.dtd">
<svg version="1.1" id="Capa_1" xmlns="http://www.w3.org/2000/svg" xmlns:xlink="http://www.w3.org/1999/xlink" x="0px" y="0px"
	 width="48.631px" height="48.631px" viewBox="0 0 48.631 48.631" style="enable-background:new 0 0 48.631 48.631;"
	 xml:space="preserve">
<g>
	<g>
		<g id="trophy">
			<g>
				<path d="M41.412,1.312c-2.24,0-4.243,1.028-5.569,2.632H12.786C11.46,2.34,9.457,1.312,7.218,1.312C3.238,1.312,0,4.552,0,8.535
					c0,0.18,0.013,0.361,0.044,0.538c0,0,1.205,7.253,1.275,7.67c0.166,3.833,3.34,6.901,7.214,6.901
					c0.976,0,1.878-0.204,2.666-0.594c0.479,0.754,1.042,1.469,1.681,2.146c1.534,1.622,3.444,2.924,5.53,3.795v6.518
					c-1.648,0-3.302,0-3.302,0c-3.204,0-4.51,3.606-4.94,4.791c-0.537,1.496-0.871,2.969-0.885,3.031
					c-0.053,0.239-0.08,0.479-0.08,0.719c0,0.734,0.25,1.457,0.719,2.041c0.621,0.777,1.562,1.229,2.556,1.229h23.674
					c0.992,0,1.934-0.451,2.556-1.229c0.469-0.584,0.719-1.307,0.719-2.041c0-0.24-0.028-0.479-0.079-0.719
					c-0.015-0.062-0.348-1.535-0.887-3.031c-0.43-1.185-1.734-4.791-4.939-4.791c0,0-1.651,0-3.301,0v-6.514
					c2.086-0.871,3.994-2.174,5.529-3.799c0.639-0.677,1.201-1.392,1.682-2.146c0.787,0.39,1.689,0.594,2.666,0.594
					c3.875,0,7.047-3.068,7.215-6.901c0.068-0.417,1.272-7.67,1.272-7.67c0.031-0.177,0.046-0.357,0.046-0.538
					C48.63,4.552,45.391,1.312,41.412,1.312z M11.162,16.425c0,2.177-0.452,3.943-2.629,3.943c-2.181,0-3.947-1.767-3.947-3.943
					L3.272,8.535c0-2.18,1.765-3.948,3.945-3.948c2.18,0,3.944,1.769,3.944,3.948L11.162,16.425L11.162,16.425z M33.521,38.781
					c1.453,0,2.631,5.264,2.631,5.264H12.478c0,0,1.177-5.264,2.631-5.264H33.521z M36.152,16.425c0,4.93-4.344,9.059-9.207,10.196
					v10.848h-5.261V26.623c-4.864-1.143-9.207-5.268-9.207-10.196V7.218h23.675V16.425z M44.043,16.425
					c0,2.177-1.768,3.943-3.947,3.943c-2.177,0-2.628-1.767-2.628-3.943V8.535c0-2.18,1.765-3.948,3.944-3.948
					s3.943,1.769,3.943,3.948L44.043,16.425z"/>
			</g>
		</g>
	</g>
</g>
<g>
</g>
<g>
</g>
<g>
</g>
<g>
</g>
<g>
</g>
<g>
</g>
<g>
</g>
<g>
</g>
<g>
</g>
<g>
</g>
<g>
</g>
<g>
</g>
<g>
</g>
<g>
</g>
<g>
</g>
</svg>
