<?xml version="1.0" encoding="iso-8859-1"?>
<!-- Generator: Adobe Illustrator 16.0.0, SVG Export Plug-In . SVG Version: 6.00 Build 0)  -->
<!DOCTYPE svg PUBLIC "-//W3C//DTD SVG 1.1//EN" "http://www.w3.org/Graphics/SVG/1.1/DTD/svg11.dtd">
<svg version="1.1" id="Capa_1" xmlns="http://www.w3.org/2000/svg" xmlns:xlink="http://www.w3.org/1999/xlink" x="0px" y="0px"
	 width="972.196px" height="972.196px" viewBox="0 0 972.196 972.196" style="enable-background:new 0 0 972.196 972.196;"
	 xml:space="preserve">
<g>
	<g>
		<path d="M815.391,731.864V41.006c0-17.761-14.566-29.908-29.998-29.908c-6.392,0-12.931,2.083-18.646,6.713L581.095,168.22
			c-5.316,4.307-11.95,6.657-18.792,6.657H273.416c-16.487,0-29.852,13.365-29.852,29.852v177.044h146.431
			c31.6,0,57.307,25.708,57.307,57.307v158.913h115c6.843,0,13.477,2.351,18.793,6.657l185.651,150.409
			c5.714,4.629,12.256,6.713,18.646,6.713C800.825,761.772,815.391,749.626,815.391,731.864z"/>
		<path d="M866.97,223.236c-9.932,9.93-9.932,26.03,0,35.961c35.061,35.062,54.369,81.678,54.369,131.262
			c0,45.092-16.361,88.563-46.071,122.405c-9.266,10.555-8.221,26.62,2.334,35.886c4.828,4.238,10.808,6.318,16.766,6.318
			c7.063,0,14.093-2.927,19.119-8.652c37.86-43.126,58.71-98.514,58.71-155.958c0-63.168-24.599-122.556-69.266-167.225
			C893,213.306,876.899,213.306,866.97,223.236z"/>
		<path d="M247.11,961.098c8.228,0,16.455-2.984,22.937-8.951l219.737-202.32c9.156-8.43,3.192-23.715-9.255-23.715h-58.655v-102.69
			v-12.715v-12.715V439.08c0-17.606-14.271-31.879-31.878-31.879H243.565h-12.714h-12.714h-115.59
			c-16.679,0-30.201,13.521-30.201,30.201v288.711H13.691c-12.446,0-18.411,15.284-9.255,23.716l219.737,202.319
			C230.655,958.114,238.882,961.098,247.11,961.098z"/>
	</g>
</g>
<g>
</g>
<g>
</g>
<g>
</g>
<g>
</g>
<g>
</g>
<g>
</g>
<g>
</g>
<g>
</g>
<g>
</g>
<g>
</g>
<g>
</g>
<g>
</g>
<g>
</g>
<g>
</g>
<g>
</g>
</svg>
