<?xml version="1.0" encoding="iso-8859-1"?>
<!-- Generator: Adobe Illustrator 16.0.0, SVG Export Plug-In . SVG Version: 6.00 Build 0)  -->
<!DOCTYPE svg PUBLIC "-//W3C//DTD SVG 1.1//EN" "http://www.w3.org/Graphics/SVG/1.1/DTD/svg11.dtd">
<svg version="1.1" id="Capa_1" xmlns="http://www.w3.org/2000/svg" xmlns:xlink="http://www.w3.org/1999/xlink" x="0px" y="0px"
	 width="64px" height="64px" viewBox="0 0 64 64" style="enable-background:new 0 0 64 64;" xml:space="preserve">
<g>
	<g>
		<g id="circle_80_">
			<g>
				<path d="M32,0C14.327,0,0,14.327,0,32s14.327,32,32,32c17.674,0,32-14.327,32-32S49.674,0,32,0z M31,22h2v9h-2V22z M32,43
					c-6.075,0-11-4.84-11-10.811c0-3.932,2.142-7.361,5.334-9.254l1.065,1.329c-2.627,1.571-4.393,4.437-4.393,7.722
					c0,4.971,4.026,8.999,8.993,8.999s8.993-4.027,8.993-8.999c0-3.285-1.766-6.15-4.393-7.722l1.064-1.329
					C40.857,24.828,43,28.259,43,32.189C43,38.16,38.075,43,32,43z"/>
			</g>
		</g>
	</g>
</g>
<g>
</g>
<g>
</g>
<g>
</g>
<g>
</g>
<g>
</g>
<g>
</g>
<g>
</g>
<g>
</g>
<g>
</g>
<g>
</g>
<g>
</g>
<g>
</g>
<g>
</g>
<g>
</g>
<g>
</g>
</svg>
