<?xml version="1.0" encoding="iso-8859-1"?>
<!-- Generator: Adobe Illustrator 16.0.0, SVG Export Plug-In . SVG Version: 6.00 Build 0)  -->
<!DOCTYPE svg PUBLIC "-//W3C//DTD SVG 1.1//EN" "http://www.w3.org/Graphics/SVG/1.1/DTD/svg11.dtd">
<svg version="1.1" id="Capa_1" xmlns="http://www.w3.org/2000/svg" xmlns:xlink="http://www.w3.org/1999/xlink" x="0px" y="0px"
	 width="749.988px" height="749.988px" viewBox="0 0 749.988 749.988" style="enable-background:new 0 0 749.988 749.988;"
	 xml:space="preserve">
<g>
	<g>
		<path d="M669.067,393.613c-36.793-29.802-83.978-45.557-129.453-56.164c-44.064-10.277-89.697-16.389-135.592-18.727
			c-51.621-2.63-103.573-0.487-153.995,5.871c-61.857,7.8-127.239,20.882-181.176,53.842
			c-19.845,12.126-38.255,27.885-51.432,47.182c-25.213,36.922-18.976,93.951-6.782,134.881
			c8.485,28.48,24.947,54.604,51.614,69.025c42.196,22.82,95.237,13.383,138.516-1.252c0.526-0.18,1.051-0.357,1.575-0.537
			c98.692-33.904,212.427-34.049,311.535,0c62.157,21.354,200.961,49.115,200.961-140.939
			C714.839,448.232,699.76,418.474,669.067,393.613z M372.242,434.027c-73.039-9.471-147.136-0.914-216.049,25.08
			c-7.31,2.758-15.685-2.998-17.611-10c-2.214-8.049,2.705-14.859,9.999-17.611c70.918-26.75,148.49-35.85,223.66-26.104
			c7.736,1.004,14.316,5.754,14.316,14.316C386.558,426.751,380.001,435.033,372.242,434.027z"/>
		<circle cx="686.269" cy="292.082" r="63.719"/>
		<circle cx="544.468" cy="254.29" r="36.843"/>
		<circle cx="645.102" cy="143.612" r="36.843"/>
	</g>
</g>
<g>
</g>
<g>
</g>
<g>
</g>
<g>
</g>
<g>
</g>
<g>
</g>
<g>
</g>
<g>
</g>
<g>
</g>
<g>
</g>
<g>
</g>
<g>
</g>
<g>
</g>
<g>
</g>
<g>
</g>
</svg>
