<?xml version="1.0" encoding="iso-8859-1"?>
<!-- Generator: Adobe Illustrator 16.0.0, SVG Export Plug-In . SVG Version: 6.00 Build 0)  -->
<!DOCTYPE svg PUBLIC "-//W3C//DTD SVG 1.1//EN" "http://www.w3.org/Graphics/SVG/1.1/DTD/svg11.dtd">
<svg version="1.1" id="Capa_1" xmlns="http://www.w3.org/2000/svg" xmlns:xlink="http://www.w3.org/1999/xlink" x="0px" y="0px"
	 width="64px" height="64px" viewBox="0 0 64 64" style="enable-background:new 0 0 64 64;" xml:space="preserve">
<g>
	<g>
		<g id="circle_79_">
			<g>
				<path d="M22.4,36.073l0.018-0.028C22.283,36.018,22.144,36,22,36c-1.104,0-2,0.896-2,2s0.896,2,2,2s2-0.896,2-2
					c0-0.412-0.125-0.794-0.338-1.111L22.4,36.073z M32,22c-1.104,0-2,0.896-2,2s0.896,2,2,2c1.104,0,2-0.896,2-2S33.104,22,32,22z
					 M32,0C14.327,0,0,14.327,0,32s14.327,32,32,32s32-14.327,32-32S49.673,0,32,0z M42,42c-2.209,0-4-1.791-4-4
					c0-0.982,0.368-1.87,0.956-2.566l-5.067-7.928C33.323,27.811,32.688,28,32,28c-0.626,0-1.21-0.156-1.737-0.412l-5.134,7.947
					C25.666,36.217,26,37.064,26,38c0,2.209-1.791,4-4,4s-4-1.791-4-4s1.791-4,4-4c0.546,0,1.065,0.111,1.54,0.309l5.155-7.98
					l0.134,0.086C28.316,25.74,28,24.911,28,24c0-2.209,1.791-4,4-4s4,1.791,4,4c0,0.777-0.23,1.496-0.613,2.109l5.213,8.157
					C41.037,34.102,41.506,34,42,34c2.209,0,4,1.791,4,4S44.209,42,42,42z M42,36c-1.104,0-2,0.896-2,2s0.896,2,2,2s2-0.896,2-2
					S43.104,36,42,36z"/>
			</g>
		</g>
	</g>
</g>
<g>
</g>
<g>
</g>
<g>
</g>
<g>
</g>
<g>
</g>
<g>
</g>
<g>
</g>
<g>
</g>
<g>
</g>
<g>
</g>
<g>
</g>
<g>
</g>
<g>
</g>
<g>
</g>
<g>
</g>
</svg>
