<?xml version="1.0" encoding="iso-8859-1"?>
<!-- Generator: Adobe Illustrator 16.0.0, SVG Export Plug-In . SVG Version: 6.00 Build 0)  -->
<!DOCTYPE svg PUBLIC "-//W3C//DTD SVG 1.1//EN" "http://www.w3.org/Graphics/SVG/1.1/DTD/svg11.dtd">
<svg version="1.1" id="Capa_1" xmlns="http://www.w3.org/2000/svg" xmlns:xlink="http://www.w3.org/1999/xlink" x="0px" y="0px"
	 width="950.127px" height="950.128px" viewBox="0 0 950.127 950.128" style="enable-background:new 0 0 950.127 950.128;"
	 xml:space="preserve">
<g>
	<path d="M928.871,163.736c-7.101-10.4-20.5-12-30.8-5.7c-2.601,1.6-5.2,3.1-7.9,4.6c-0.4,0.2-1.4,0.7-2.1,1.1
		c-0.801,0.4-1.5,0.8-2.301,1.1c-5.899,2.9-12,5.4-18.199,7.7c-5.7,2.1-11.5,4-17.4,5.7c-3,0.8-5.9,1.6-8.9,2.4
		c-1.5,0.4-2.899,0.7-4.399,1c-0.7,0.1-1.4,0.3-2.101,0.4c-26,5.3-52.699,7.1-79.1,7.8c-53.6,1.3-107.3-3.3-160.8-0.3
		c-50.4,2.9-101.8,14-143,44.7c-8.2,6.1-15.9,12.8-23,20c10.1-25.3,22.2-49.8,36.899-72.8c10-14.7,20.9-28.7,33.4-41.5
		c2.6-2.6,5.3-5.2,8-7.7c0.1-0.1,0.3-0.2,0.4-0.4c1.899-1.7,3.899-3.3,5.899-4.9c7-5.7,14.4-10.8,22-15.7c3.3-2.1,6.7-4.1,10.2-6.1
		c1.7-1,3.4-1.9,5.2-2.9c0.1-0.1,0.2-0.1,0.3-0.2l0,0c7.5-3.7,15.2-7,23-10c14.9-5.8,30.4-10.3,46-13.9
		c34.7-7.2,70.1-10.2,105.5-11.9c18.1-0.8,31.7-18.4,30.3-35.9c-1.6-18.5-17.8-31.1-35.899-30.3c-53.5,2.5-107.7,8.4-158.601,25.9
		c-52.7,18.2-99.8,50.8-133.8,95c-55.8,72.5-81.9,161.2-98.5,249.9c-11.3,0.2-22.5,2-33.3,5.3c-18.7,5.8-36.2,16.3-51.1,31.4
		c-17.3-29.9-47-52.4-83.6-59.2c-66.5-12.4-130.6,31.6-143,98c-11.4,61.399,25.3,120.7,83.3,139.2
		c-6.5,11.5-11.3,24.199-13.8,37.899c-11.7,62.8,27,123.601,87.5,140.4c-7.5,12.3-13,26.2-15.8,41.3
		c-12.4,66.5,31.6,130.6,98.1,142.9c66.4,12.399,130.5-31.601,142.9-98.101c3.3-17.7,2.6-35.3-1.5-51.8
		c59.399,1.8,113-39.9,124.2-100.1c2.899-15.4,2.699-30.7-0.101-45.2c61.5,4.6,118.101-37.8,129.601-99.8
		c12.399-66.4-31.601-130.5-98.101-142.9c-41.6-7.7-82.3,6.6-110,34.8c3.3-3.3-20.1-32.2-22.8-35.1c-7.1-7.601-15.2-14.3-24-19.8
		c4.1-6.101,8.7-12,13.8-17.4c1.9-2.1,4-4.1,6.101-6c0.699-0.7,1.6-1.4,2.1-1.8c1.6-1.3,3.2-2.6,4.9-3.8
		c5.899-4.5,12.199-8.4,18.699-11.9c0.2-0.1,0.5-0.3,0.7-0.4c1.5-0.8,3.101-1.5,4.7-2.2c3.6-1.6,7.2-3.1,10.9-4.5
		c7.199-2.8,14.699-5.1,22.1-7.1c1.8-0.5,3.7-0.9,5.5-1.4c0.6-0.1,1.8-0.4,2.8-0.7c3.5-0.7,7-1.4,10.5-2
		c16.601-2.9,33.5-4.5,50.3-5.6c70.601-4.3,141.801,2.9,212-6.4c33.9-4.5,67.4-13.2,97-30.8c29.101-17.3,51.601-44.7,64.4-76
		c3.7-9.2,6.7-18.7,9.3-28.2C934.97,178.236,933.47,170.436,928.871,163.736z M165.17,407.636c-1.8,9.8-15.9,15.3-31.5,12.4
		c-15.6-2.9-26.8-13.2-25-22.9s15.9-15.3,31.5-12.4C155.871,387.636,167.07,397.936,165.17,407.636z M246.97,594.136
		c-1.8,9.8-15.9,15.3-31.5,12.4c-15.6-2.9-26.8-13.101-24.9-22.9c1.8-9.7,15.9-15.3,31.5-12.4
		C237.57,574.136,248.771,584.436,246.97,594.136z M528.371,467.936c1.8-9.7,15.899-15.3,31.5-12.399
		c15.6,2.899,26.8,13.199,25,22.899c-1.8,9.8-15.9,15.3-31.5,12.4C537.77,487.936,526.571,477.735,528.371,467.936z M320.67,764.936
		c-1.8,9.8-15.9,15.3-31.5,12.4c-15.6-2.9-26.8-13.2-25-22.9s15.9-15.3,31.5-12.399C311.27,744.936,322.47,755.235,320.67,764.936z
		 M371.27,438.736c-1.8,9.801-15.899,15.301-31.5,12.4c-15.6-2.9-26.8-13.2-24.899-22.9c1.8-9.699,15.899-15.3,31.5-12.399
		C361.871,418.736,373.071,428.936,371.27,438.736z M416.47,600.436c15.601,2.9,26.7,13.2,24.9,22.9s-15.9,15.3-31.5,12.399
		c-15.601-2.899-26.8-13.199-25-22.899C386.77,603.036,400.871,597.536,416.47,600.436z M870.77,218.536c-1.1,1.5-2.199,3-3.3,4.4
		c-2.399,3.1-4.899,6-7.6,8.9c-1.9,2-3.9,4-5.9,5.9c-0.7,0.7-1.6,1.4-2.1,1.8c-1.601,1.3-3.2,2.6-4.8,3.8
		c-5.801,4.4-12.101,8.3-18.5,11.8c0,0-0.101,0-0.101,0.1c-0.1,0.1-0.2,0.1-0.399,0.2c-1.601,0.8-3.2,1.5-4.801,2.3
		c-3.6,1.6-7.199,3.1-10.8,4.5c-7.2,2.7-14.6,5-22,6.9c-1.8,0.5-3.7,0.9-5.5,1.4c-0.5,0.1-1.1,0.2-1.6,0.4
		c-3.9,0.8-7.8,1.5-11.7,2.2c-69.5,11.9-140.9,4.8-211.1,7.6c-37.7,1.5-77.5,5.9-113.4,19c0.7-0.8,1.4-1.7,2.1-2.5
		c3.301-3.8,6.7-7.5,10.2-11.2c1.7-1.8,3.5-3.5,5.4-5.3c0.399-0.4,0.8-0.7,1.1-1.1c0.7-0.6,1.601-1.5,2.101-1.8
		c8-6.8,16.6-12.9,25.699-18.2c1.5-0.9,2.9-1.7,4.4-2.5c-0.2,0.2,4.5-2.3,5.7-2.8c5.399-2.5,10.899-4.7,16.5-6.7
		c5.5-2,11.1-3.6,16.7-5.1c2.399-0.7,4.8-1.2,7.3-1.8c0.8-0.2,1.7-0.4,2.1-0.5c2.101-0.4,4.2-0.8,6.3-1.2
		c12.601-2.3,25.4-3.8,38.2-4.7c92.5-7.1,191,12.4,280.3-16.3C871.071,218.136,870.97,218.336,870.77,218.536z"/>
</g>
<g>
</g>
<g>
</g>
<g>
</g>
<g>
</g>
<g>
</g>
<g>
</g>
<g>
</g>
<g>
</g>
<g>
</g>
<g>
</g>
<g>
</g>
<g>
</g>
<g>
</g>
<g>
</g>
<g>
</g>
</svg>
