<?xml version="1.0" encoding="iso-8859-1"?>
<!-- Generator: Adobe Illustrator 16.0.0, SVG Export Plug-In . SVG Version: 6.00 Build 0)  -->
<!DOCTYPE svg PUBLIC "-//W3C//DTD SVG 1.1//EN" "http://www.w3.org/Graphics/SVG/1.1/DTD/svg11.dtd">
<svg version="1.1" id="Capa_1" xmlns="http://www.w3.org/2000/svg" xmlns:xlink="http://www.w3.org/1999/xlink" x="0px" y="0px"
	 width="46.998px" height="46.999px" viewBox="0 0 46.998 46.999" style="enable-background:new 0 0 46.998 46.999;"
	 xml:space="preserve">
<g>
	<g>
		<path d="M45.694,11.752l-1.55-2.686c-0.333-0.574-1.006-0.684-1.502-0.241l-0.188,0.166c-0.494,0.441-1.422,0.944-2.063,1.119
			l-3.81,0.603c-0.642,0.174-1.45,0.776-1.797,1.337l-1.011,1.62c-0.345,0.563-1.104,1.293-1.679,1.625l-12.191,7.037
			c-3.185-3.278-9.854-3.26-14.302-0.691C0.45,24.618-1.5,30.876,1.241,35.629c2.743,4.748,9.142,6.189,14.297,3.213
			c4.449-2.568,7.8-8.335,6.553-12.731l12.188-7.039c0.576-0.33,1.589-0.623,2.246-0.642l1.91-0.063
			c0.659-0.021,1.585-0.419,2.058-0.889l2.426-2.996c0.474-0.467,1.372-1.018,1.999-1.229l0.237-0.079
			C45.784,12.967,46.026,12.325,45.694,11.752z M12.018,35.91c-2.924,1.688-6.552,0.873-8.106-1.823
			c-1.556-2.692-0.447-6.244,2.476-7.932C8.942,24.678,14.576,34.432,12.018,35.91z"/>
		<circle cx="37.625" cy="9.208" r="0.761"/>
		<circle cx="40.138" cy="8.606" r="0.759"/>
		<path d="M42.666,8.023c0.361-0.208,0.488-0.673,0.275-1.037c-0.207-0.362-0.673-0.488-1.034-0.278
			c-0.364,0.209-0.488,0.675-0.278,1.037C41.836,8.109,42.302,8.236,42.666,8.023z"/>
		<path d="M41.932,16.672c-0.362,0.208-0.486,0.675-0.279,1.036c0.214,0.363,0.681,0.49,1.042,0.28
			c0.362-0.208,0.485-0.675,0.277-1.039C42.761,16.588,42.295,16.46,41.932,16.672z"/>
		<path d="M43.712,14.796c-0.364,0.209-0.489,0.675-0.276,1.037c0.208,0.364,0.673,0.488,1.035,0.278
			c0.366-0.209,0.49-0.675,0.28-1.037C44.541,14.71,44.078,14.583,43.712,14.796z"/>
		<circle cx="46.238" cy="14.213" r="0.759"/>
	</g>
</g>
<g>
</g>
<g>
</g>
<g>
</g>
<g>
</g>
<g>
</g>
<g>
</g>
<g>
</g>
<g>
</g>
<g>
</g>
<g>
</g>
<g>
</g>
<g>
</g>
<g>
</g>
<g>
</g>
<g>
</g>
</svg>
