<?xml version="1.0" encoding="iso-8859-1"?>
<!-- Generator: Adobe Illustrator 16.0.0, SVG Export Plug-In . SVG Version: 6.00 Build 0)  -->
<!DOCTYPE svg PUBLIC "-//W3C//DTD SVG 1.1//EN" "http://www.w3.org/Graphics/SVG/1.1/DTD/svg11.dtd">
<svg version="1.1" id="Capa_1" xmlns="http://www.w3.org/2000/svg" xmlns:xlink="http://www.w3.org/1999/xlink" x="0px" y="0px"
	 width="950px" height="950px" viewBox="0 0 950 950" style="enable-background:new 0 0 950 950;" xml:space="preserve">
<g>
	<path d="M157.203,792.727c163.01,160.413,395.802,199.76,570.266,110.461c10.053,2.216,22.299,4.793,34.764,7.908
		c30.116,7.526,72.564-8.131,106.623-42.188c29.796-29.797,45.508-66.015,43.936-94.777c-0.371-6.782-4.701-28.222-8.946-47.999
		c88.381-174.31,48.817-406.3-111.169-568.876C630.012-2.82,398.164-42.242,223.854,46.139c-19.777-4.245-41.163-8.521-47.945-8.893
		c-28.763-1.572-64.994,14.126-94.791,43.923c-34.059,34.059-49.729,76.492-42.203,106.608c3.115,12.464,5.665,24.685,7.881,34.737
		C-42.503,396.979-2.868,630.059,157.203,792.727z M546.308,680.735c18.231-18.23,48.658-18.23,66.889,0
		c18.231,18.231,18.231,48.658,0,66.89c-18.23,18.23-48.657,18.23-66.889,0C528.079,729.393,528.079,698.967,546.308,680.735z
		 M472.731,794.446c18.231-18.23,48.658-18.23,66.889,0c18.231,18.231,18.231,48.658,0,66.89c-18.23,18.23-48.656,18.23-66.889,0
		C454.5,843.104,454.5,812.678,472.731,794.446z M354.003,717.524c18.23-18.23,48.657-18.23,66.889,0
		c18.231,18.231,18.231,48.658,0,66.89c-18.23,18.23-48.657,18.23-66.889,0C335.772,766.182,335.772,735.755,354.003,717.524z"/>
</g>
<g>
</g>
<g>
</g>
<g>
</g>
<g>
</g>
<g>
</g>
<g>
</g>
<g>
</g>
<g>
</g>
<g>
</g>
<g>
</g>
<g>
</g>
<g>
</g>
<g>
</g>
<g>
</g>
<g>
</g>
</svg>
