<?xml version="1.0" encoding="iso-8859-1"?>
<!-- Generator: Adobe Illustrator 16.0.0, SVG Export Plug-In . SVG Version: 6.00 Build 0)  -->
<!DOCTYPE svg PUBLIC "-//W3C//DTD SVG 1.1//EN" "http://www.w3.org/Graphics/SVG/1.1/DTD/svg11.dtd">
<svg version="1.1" id="Capa_1" xmlns="http://www.w3.org/2000/svg" xmlns:xlink="http://www.w3.org/1999/xlink" x="0px" y="0px"
	 width="64px" height="64px" viewBox="0 0 64 64" style="enable-background:new 0 0 64 64;" xml:space="preserve">
<g>
	<g>
		<g id="circle_83_">
			<g>
				<path d="M32,0C14.327,0,0,14.327,0,32s14.327,32,32,32s32-14.327,32-32S49.673,0,32,0z M38.189,37.984l-6.73,10.125
					c-0.37,0.557-1.057,0.925-1.722,0.891c-0.689-0.035-1.706-0.257-1.706-2.111c0-2.389,2.882-11.873,2.882-11.873
					S30.464,35.031,30,35.031h-5c-1.909,0-3-1.045-3-3c0-1.136,1.684-3.171,3.053-5.331l7.3-10.81
					c0.371-0.557,1.236-0.925,1.901-0.891c0.688,0.035,1.714,0.534,1.714,1.987C35.754,18.686,32.982,29,32.889,29H39
					c1.657,0,3,1.343,3,3C42,32.729,39.891,35.844,38.189,37.984z M39,31h-6.91c-0.466,0.016-1.106-0.05-1.106-0.982
					c0-1.317,0.009-1.064,0.009-1.064l3.444-10.972c0-0.731-0.188-0.888-0.733-0.888s-0.681,0.462-0.981,0.919l-5.902,9.576
					C26.484,28.093,24,31.323,24,31.875c0,0.553,0.447,1.156,1,1.156h6.787c0.633,0,1.213,0.177,1.213,1
					c0,0.553-0.021,1.002-0.021,1.002l-3.632,10.984c0,0.731,0.218,0.889,0.764,0.889c0.545,0,0.68-0.463,0.982-0.92l5.995-9.2
					C37.422,36.282,40,32.553,40,32S39.553,31,39,31z"/>
			</g>
		</g>
	</g>
</g>
<g>
</g>
<g>
</g>
<g>
</g>
<g>
</g>
<g>
</g>
<g>
</g>
<g>
</g>
<g>
</g>
<g>
</g>
<g>
</g>
<g>
</g>
<g>
</g>
<g>
</g>
<g>
</g>
<g>
</g>
</svg>
