<?xml version="1.0" encoding="iso-8859-1"?>
<!-- Generator: Adobe Illustrator 16.0.0, SVG Export Plug-In . SVG Version: 6.00 Build 0)  -->
<!DOCTYPE svg PUBLIC "-//W3C//DTD SVG 1.1//EN" "http://www.w3.org/Graphics/SVG/1.1/DTD/svg11.dtd">
<svg version="1.1" id="Capa_1" xmlns="http://www.w3.org/2000/svg" xmlns:xlink="http://www.w3.org/1999/xlink" x="0px" y="0px"
	 width="47px" height="47px" viewBox="0 0 47 47" style="enable-background:new 0 0 47 47;" xml:space="preserve">
<g>
	<g>
		<path d="M41.243,6.245H5.757C2.582,6.245,0,8.826,0,11.999v23.002c0,3.174,2.582,5.754,5.757,5.754h35.486
			c3.175,0,5.757-2.581,5.757-5.754V11.999C47,8.825,44.418,6.245,41.243,6.245z M45.082,35.001c0,2.116-1.723,3.836-3.839,3.836
			H5.757c-2.116,0-3.839-1.721-3.839-3.836V11.999c0-2.116,1.723-3.836,3.839-3.836h35.486c2.116,0,3.839,1.721,3.839,3.836V35.001z
			"/>
		<path d="M12.192,24.819H6.701c-1.1,0-2,0.899-2,2v7.621c0,1.101,0.9,2,2,2h5.491c1.1,0,2-0.899,2-2v-7.621
			C14.192,25.719,13.292,24.819,12.192,24.819z"/>
		<path d="M26.247,10.559h-5.494c-1.1,0-2,0.9-2,2v7.622c0,1.1,0.9,2,2,2h5.494c1.101,0,2-0.9,2-2v-7.622
			C28.247,11.459,27.348,10.559,26.247,10.559z"/>
		<path d="M40.299,24.819h-5.49c-1.1,0-2,0.899-2,2v7.621c0,1.101,0.9,2,2,2h5.49c1.1,0,2-0.899,2-2v-7.621
			C42.299,25.719,41.398,24.819,40.299,24.819z"/>
		<path d="M12.192,10.559H6.701c-1.1,0-2,0.9-2,2v7.622c0,1.1,0.9,2,2,2h5.491c1.1,0,2-0.9,2-2v-7.622
			C14.192,11.459,13.292,10.559,12.192,10.559z M9.445,18.85c-1.369,0-2.48-1.11-2.48-2.48c0-1.371,1.111-2.48,2.48-2.48
			c1.368,0,2.479,1.109,2.479,2.48C11.925,17.74,10.813,18.85,9.445,18.85z"/>
		<path d="M26.247,24.819h-5.494c-1.1,0-2,0.899-2,2v7.621c0,1.101,0.9,2,2,2h5.494c1.101,0,2-0.899,2-2v-7.621
			C28.247,25.719,27.348,24.819,26.247,24.819z M23.499,33.11c-1.368,0-2.479-1.109-2.479-2.48c0-1.37,1.111-2.48,2.479-2.48
			c1.369,0,2.479,1.11,2.479,2.48C25.979,32.001,24.868,33.11,23.499,33.11z"/>
		<path d="M40.299,10.559h-5.49c-1.1,0-2,0.9-2,2v7.622c0,1.1,0.9,2,2,2h5.49c1.1,0,2-0.9,2-2v-7.622
			C42.299,11.459,41.398,10.559,40.299,10.559z M37.557,18.85c-1.369,0-2.479-1.11-2.479-2.48c0-1.371,1.11-2.48,2.479-2.48
			c1.368,0,2.479,1.109,2.479,2.48C40.036,17.74,38.925,18.85,37.557,18.85z"/>
	</g>
</g>
<g>
</g>
<g>
</g>
<g>
</g>
<g>
</g>
<g>
</g>
<g>
</g>
<g>
</g>
<g>
</g>
<g>
</g>
<g>
</g>
<g>
</g>
<g>
</g>
<g>
</g>
<g>
</g>
<g>
</g>
</svg>
