<?xml version="1.0" encoding="iso-8859-1"?>
<!-- Generator: Adobe Illustrator 16.0.0, SVG Export Plug-In . SVG Version: 6.00 Build 0)  -->
<!DOCTYPE svg PUBLIC "-//W3C//DTD SVG 1.1//EN" "http://www.w3.org/Graphics/SVG/1.1/DTD/svg11.dtd">
<svg version="1.1" id="Capa_1" xmlns="http://www.w3.org/2000/svg" xmlns:xlink="http://www.w3.org/1999/xlink" x="0px" y="0px"
	 width="960.031px" height="960.031px" viewBox="0 0 960.031 960.031" style="enable-background:new 0 0 960.031 960.031;"
	 xml:space="preserve">
<g>
	<path d="M790.577,626.667c1.21,7.438,2.214,14.82,3.025,22.151c41.925-37.94,79.536-86.181,108.929-142.762
		c98.275-189.184,67.477-399.932-68.704-470.674c-122.081-63.418-287.521,7.155-391.274,158.747
		c65.869,29.14,128.774,72.56,183.863,127.648C714.642,410.004,772.942,518.283,790.577,626.667z"/>
	<path d="M147.23,800.901c46.673,46.674,99.156,83.308,155.992,109.006c55.162,24.941,112.687,38.01,166.355,38.01
		c0.015,0,0.018,0,0.03,0c75.857,0,141.257-25.176,189.113-73.032c3.392-3.392,6.663-6.875,9.827-10.438
		c25.574-28.804,43.697-63.177,53.933-102.561c5.524-21.258,8.604-43.462,9.271-66.432c0.632-21.779-0.904-44.246-4.65-67.269
		c-15.319-94.148-65.899-188.145-142.425-264.67c-46.675-46.675-99.158-83.373-155.992-109.072
		c-5.934-2.683-11.896-5.222-17.877-7.631c-49.621-19.989-100.588-30.5-148.482-30.5c-70.472,0-131.897,21.83-178.634,63.278
		c-3.586,3.18-7.096,6.463-10.506,9.873c-30.807,30.806-52.259,68.859-63.76,113.114c-10.763,41.414-12.317,86.382-4.62,133.685
		C20.124,630.413,70.705,724.376,147.23,800.901z M129.753,346.041c32.529-32.529,78.371-49.723,132.571-49.723
		c37.776,0,77.436,8.352,116.501,23.895c52.896,21.046,104.705,55.281,149.282,99.858c32.908,32.908,60.148,69.381,80.964,108.434
		c19.831,37.206,32.977,75.025,39.067,112.467c5.407,33.231,4.936,64.383-1.093,92.392c-7.192,33.424-22.307,62.364-44.895,84.953
		c-32.528,32.53-78.357,49.601-132.542,49.601c-0.006,0-0.017,0-0.023,0c-88.935,0-188.293-46.153-265.786-123.646
		c-32.908-32.908-60.148-69.272-80.964-108.325c-19.831-37.206-32.976-75.058-39.068-112.498
		C71.907,450.559,88.239,387.555,129.753,346.041z"/>
	<path d="M262.726,657.212c-3.041,1.762-5.753,4.365-7.631,7.631c-5.703,9.918-2.287,22.581,7.631,28.284
		c9.917,5.703,22.581,2.287,28.284-7.631l38.277-66.562h-0.001L262.726,657.212z"/>
	<path d="M211.509,578.233l74.132-20l-1.17-0.316l-72.962-19.684c-3.396-0.904-7.154-0.981-10.792,0
		c-11.045,2.979-17.584,14.35-14.604,25.396C189.093,574.674,200.463,581.213,211.509,578.233z"/>
	<path d="M284.156,504.431L284.156,504.431L284.156,504.431z"/>
	<path d="M217.594,466.154l66.562,38.277l-38.277-66.561c-1.763-3.041-4.365-5.753-7.631-7.631
		c-9.918-5.703-22.581-2.287-28.284,7.631S207.676,460.45,217.594,466.154z"/>
	<path d="M475.375,719.087l6.562,11.408c1.763,3.041,4.365,5.752,7.631,7.631c8.175,4.701,18.206,3.194,24.676-3.031
		c-12.438-3.667-24.569-8.522-36.302-14.617C477.075,720.028,476.232,719.548,475.375,719.087z"/>
	<path d="M510.22,702.211l-66.52-38.252l-0.04-0.042h-0.002l0.015,0.025l-0.013-0.008l0.021,0.02l31.694,55.125
		c0.857,0.461,1.7,0.945,2.565,1.395c11.732,6.095,23.864,10.952,36.302,14.619c1.38-1.327,2.606-2.854,3.608-4.598
		C523.555,720.576,520.138,707.914,510.22,702.211z"/>
	<path d="M395.833,762.557c11.047-2.979,17.584-14.35,14.604-25.396l-20-74.132l-0.415,1.538l-19.585,72.594
		c-0.904,3.396-0.981,7.154,0,10.792C373.417,758.998,384.788,765.537,395.833,762.557z"/>
	<path d="M464.406,512.101c3.041-1.762,5.753-4.364,7.631-7.631c5.703-9.918,2.287-22.581-7.631-28.284
		c-9.917-5.703-22.581-2.287-28.284,7.631l-38.276,66.562h0.001L464.406,512.101z"/>
	<path d="M337.023,506.29l0.119,0.442l15.314-56.771l4.686-17.362c0.904-3.396,0.98-7.153,0-10.792
		c-0.398-1.477-0.957-2.864-1.634-4.168c-4.391-8.447-14.192-13.018-23.763-10.436c-11.046,2.979-17.585,14.35-14.604,25.396
		L337.023,506.29z"/>
	<path d="M443.379,611.917l72.691,19.611c3.396,0.903,7.154,0.98,10.791,0c11.046-2.98,17.585-14.351,14.604-25.396
		c-2.979-11.046-14.351-17.584-25.396-14.604l-74.133,20L443.379,611.917z"/>
</g>
<g>
</g>
<g>
</g>
<g>
</g>
<g>
</g>
<g>
</g>
<g>
</g>
<g>
</g>
<g>
</g>
<g>
</g>
<g>
</g>
<g>
</g>
<g>
</g>
<g>
</g>
<g>
</g>
<g>
</g>
</svg>
