<?xml version="1.0" encoding="iso-8859-1"?>
<!-- Generator: Adobe Illustrator 16.0.0, SVG Export Plug-In . SVG Version: 6.00 Build 0)  -->
<!DOCTYPE svg PUBLIC "-//W3C//DTD SVG 1.1//EN" "http://www.w3.org/Graphics/SVG/1.1/DTD/svg11.dtd">
<svg version="1.1" id="Capa_1" xmlns="http://www.w3.org/2000/svg" xmlns:xlink="http://www.w3.org/1999/xlink" x="0px" y="0px"
	 width="47px" height="47px" viewBox="0 0 47 47" style="enable-background:new 0 0 47 47;" xml:space="preserve">
<g>
	<g>
		<path d="M36.518,14.041c0-3.207-2.607-5.815-5.814-5.815h-3.756V0h-6.893v8.226h-3.756c-3.207,0-5.815,2.608-5.815,5.815
			L7.991,41.186c0,3.207,2.608,5.814,5.815,5.814h19.388c3.207,0,5.815-2.607,5.815-5.814L36.518,14.041z M13.747,22.618
			l2.275-6.929c0.322-0.98,1.434-1.786,2.466-1.786h10.025c1.032,0,2.145,0.806,2.467,1.786l2.274,6.929
			c0.32,0.983-0.261,1.786-1.293,1.786H15.04C14.007,24.404,13.425,23.602,13.747,22.618z M22.131,36.787
			c0,1.033-0.848,1.881-1.88,1.881h-7.76c-1.035,0-1.813-0.844-1.729-1.876l0.636-7.771c0.084-1.031,0.999-1.873,2.031-1.873h6.821
			c1.032,0,1.88,0.845,1.88,1.879L22.131,36.787L22.131,36.787z M34.509,38.668h-7.76c-1.032,0-1.88-0.848-1.88-1.881v-7.76
			c0-1.034,0.848-1.879,1.88-1.879h6.821c1.031,0,1.947,0.842,2.031,1.873l0.635,7.771C36.321,37.824,35.544,38.668,34.509,38.668z"
			/>
		<path d="M18.336,31.036c0-1.086-0.88-1.968-1.967-1.968c-1.084,0-1.966,0.882-1.966,1.968v1.419h-0.911v4.289h5.761v-4.289h-0.917
			V31.036z M17.354,32.455H15.39v-1.419c0-0.544,0.438-0.983,0.98-0.983c0.545,0,0.984,0.439,0.984,0.983L17.354,32.455
			L17.354,32.455z"/>
		<path d="M32.598,31.035c0-1.084-0.885-1.967-1.97-1.967c-1.084,0-1.965,0.883-1.965,1.967v0.292h0.985v-0.292
			c0-0.542,0.438-0.982,0.979-0.982c0.543,0,0.982,0.44,0.982,0.982v1.418h-3.863v4.29h5.761v-4.29h-0.911v-1.418H32.598z"/>
	</g>
</g>
<g>
</g>
<g>
</g>
<g>
</g>
<g>
</g>
<g>
</g>
<g>
</g>
<g>
</g>
<g>
</g>
<g>
</g>
<g>
</g>
<g>
</g>
<g>
</g>
<g>
</g>
<g>
</g>
<g>
</g>
</svg>
