<?xml version="1.0" encoding="iso-8859-1"?>
<!-- Generator: Adobe Illustrator 16.0.0, SVG Export Plug-In . SVG Version: 6.00 Build 0)  -->
<!DOCTYPE svg PUBLIC "-//W3C//DTD SVG 1.1//EN" "http://www.w3.org/Graphics/SVG/1.1/DTD/svg11.dtd">
<svg version="1.1" id="Capa_1" xmlns="http://www.w3.org/2000/svg" xmlns:xlink="http://www.w3.org/1999/xlink" x="0px" y="0px"
	 width="51.506px" height="51.507px" viewBox="0 0 51.506 51.507" style="enable-background:new 0 0 51.506 51.507;"
	 xml:space="preserve">
<g>
	<g>
		<g id="cd">
			<g>
				<path d="M32.165,0.813C18.413-2.721,4.349,5.591,0.814,19.343c-3.535,13.752,4.778,27.815,18.529,31.35
					s27.815-4.777,31.35-18.529C54.228,18.412,45.916,4.349,32.165,0.813z M47.44,31.328c-3.072,11.957-15.302,19.186-27.261,16.111
					C8.222,44.367,0.995,32.138,4.067,20.18C7.14,8.222,19.371,0.994,31.329,4.066C43.287,7.14,50.514,19.37,47.44,31.328z
					 M27.675,18.278c-4.121-1.06-8.337,1.432-9.396,5.553c-1.06,4.124,1.433,8.338,5.555,9.397c4.123,1.061,8.338-1.432,9.396-5.555
					C34.289,23.553,31.796,19.337,27.675,18.278z M29.977,26.838c-0.599,2.33-2.979,3.736-5.309,3.139
					c-2.327-0.6-3.735-2.979-3.138-5.308c0.599-2.329,2.979-3.735,5.309-3.137C29.168,22.129,30.575,24.51,29.977,26.838z
					 M26.195,24.037c-0.946-0.243-1.915,0.328-2.157,1.275c-0.243,0.946,0.327,1.916,1.274,2.159
					c0.946,0.242,1.915-0.33,2.158-1.276C27.714,25.248,27.142,24.279,26.195,24.037z M30.596,6.914
					c-0.898-0.231-1.812,0.31-2.044,1.208s0.31,1.813,1.208,2.045c8.596,2.209,13.79,10.998,11.581,19.593
					c-0.23,0.898,0.311,1.814,1.209,2.045c0.897,0.23,1.812-0.311,2.044-1.209C47.264,20.208,40.984,9.583,30.596,6.914z
					 M29.256,12.129c-0.898-0.231-1.814,0.31-2.045,1.208c-0.231,0.898,0.311,1.814,1.209,2.045
					c5.718,1.47,9.175,7.318,7.705,13.036c-0.231,0.899,0.311,1.814,1.208,2.045c0.897,0.231,1.812-0.31,2.045-1.207
					C41.309,21.743,36.768,14.061,29.256,12.129z M21.717,40.898C13.123,38.689,7.927,29.9,10.136,21.307
					c0.23-0.899-0.31-1.814-1.208-2.045c-0.899-0.23-1.814,0.31-2.045,1.208c-2.67,10.389,3.609,21.013,13.998,23.683
					c0.897,0.23,1.812-0.311,2.044-1.208C23.156,42.045,22.615,41.131,21.717,40.898z M23.058,35.684
					c-5.719-1.471-9.176-7.318-7.706-13.037c0.231-0.898-0.31-1.813-1.208-2.044c-0.897-0.231-1.812,0.31-2.045,1.208
					c-1.931,7.514,2.61,15.195,10.122,17.126c0.898,0.229,1.814-0.312,2.045-1.209S23.957,35.914,23.058,35.684z"/>
			</g>
		</g>
	</g>
</g>
<g>
</g>
<g>
</g>
<g>
</g>
<g>
</g>
<g>
</g>
<g>
</g>
<g>
</g>
<g>
</g>
<g>
</g>
<g>
</g>
<g>
</g>
<g>
</g>
<g>
</g>
<g>
</g>
<g>
</g>
</svg>
