<?xml version="1.0" encoding="iso-8859-1"?>
<!-- Generator: Adobe Illustrator 16.0.0, SVG Export Plug-In . SVG Version: 6.00 Build 0)  -->
<!DOCTYPE svg PUBLIC "-//W3C//DTD SVG 1.1//EN" "http://www.w3.org/Graphics/SVG/1.1/DTD/svg11.dtd">
<svg version="1.1" id="Capa_1" xmlns="http://www.w3.org/2000/svg" xmlns:xlink="http://www.w3.org/1999/xlink" x="0px" y="0px"
	 width="750.003px" height="750.003px" viewBox="0 0 750.003 750.003" style="enable-background:new 0 0 750.003 750.003;"
	 xml:space="preserve">
<g>
	<g>
		<path d="M723.446,364.498c-17.716-3.591-35.495,8.196-39.085,25.911l-17.392,85.806c-0.4,0.467-0.798,0.934-1.197,1.4
			c-1.953,2.278-4.277,3.791-7.31,2.272c-3.124-1.562-4.055-4.273-3.279-7.623c0.157-0.678,0.276-1.365,0.414-2.048
			c9.559-47.332,55.329-273.266,68.717-338.889c1.691-8.287,0.793-16.018-3.312-23.486c-6.596-11.998-16.944-17.899-30.28-17.782
			c-16.438,0.144-28.808,11.206-32.213,27.859c-7.021,34.336-33.687,165.58-40.065,196.854c-0.95,4.655-3.541,6.753-7.312,6.036
			c-3.727-0.708-5.359-3.738-4.467-8.376c0.614-3.189,42.962-212.228,52.181-257.599c3.623-17.828-8.231-35.514-26.131-39.089
			c-18.312-3.657-35.951,7.809-39.605,25.771c-5.252,25.817-49.599,244.561-51.049,251.842c-0.592,2.974-1.999,5.237-5.159,5.843
			c-4.575,0.877-7.844-2.944-6.796-8.243c3.489-17.643,35.336-173.987,41.373-204.733c2.987-15.209-5.007-28.267-17.204-34.98
			c-19.803-10.9-44.188,0.739-48.714,22.93c-1.52,7.449-3.899,19.162-6.799,33.453c16.849,6.415,28.378,19.653,32.728,37.882
			c3.021,12.659,1.456,25.181-4.651,37.217c-17.187,33.866-60.102,118.672-97.236,192.09c0.675-0.026,1.351-0.038,2.028-0.038
			c8.23,0,16.441,1.953,23.743,5.646c12.567,6.358,21.94,17.332,26.394,30.9c4.452,13.568,3.403,27.963-2.953,40.527l-1.873,3.702
			l-0.378,0.747l-10.93,21.606l-10.931,21.605c-3.108,6.146-6.318,12.326-9.424,18.302c-6.072,11.69-12.353,23.778-17.898,35.687
			c-2.772,5.951-5.619,11.312-8.704,16.387c-15.179,24.973-35.942,41.803-65.34,52.966c-2.583,0.981-5.18,1.902-7.782,2.793
			c3.159,10.841,6.364,18.947,8.532,23.902c1.101,2.516,1.404,5.305,0.859,7.998l-5.232,25.817
			c-1.46,7.202,3.195,14.227,10.398,15.687c0,0,63.268,3.606,84.124,7.833c23.075,4.677,91.602,27.785,91.602,27.785
			c7.203,1.46,14.226-3.196,15.686-10.399l8.692-42.883c0.137-0.677,0.336-1.337,0.569-1.986c0.321-0.893,0.612-1.811,0.861-2.763
			c1.732-6.627,5.099-11.911,9.881-16.417c31.693-29.858,74.777-44.925,109.985-70.661c22.24-16.257,34.782-34.077,41.528-57.731
			c1.438-5.041,2.611-10.347,3.561-15.958c3.393-20.064,8.107-39.997,12.148-59.939c8.114-40.029,1.507-7.433,9.62-47.462
			c0.33-1.628,0.66-3.255,0.99-4.883C752.948,385.868,741.162,368.088,723.446,364.498z"/>
		<path d="M173.295,706.883c4.859,0,9.542-2.671,11.886-7.304l19.751-39.044c0.312-0.616,0.679-1.199,1.076-1.765
			c0.547-0.775,1.07-1.584,1.562-2.436c3.427-5.931,8.074-10.133,13.88-13.209c36.752-19.474,79.945-23.187,119.276-36.971
			c1.844-0.646,3.682-1.308,5.508-2c25.754-9.778,42.573-23.637,55.348-44.656c2.724-4.479,5.263-9.283,7.665-14.443
			c8.592-18.446,18.423-36.416,27.607-54.573c18.438-36.444,3.423-6.767,21.86-43.212c0.75-1.481,1.5-2.964,2.249-4.445
			c8.158-16.129,1.509-36.397-14.621-44.558c-4.688-2.371-9.728-3.492-14.715-3.492c-12.175,0-24.055,6.672-29.843,18.113
			l-39.519,78.124c-0.509,0.344-1.018,0.689-1.526,1.033c-1.41,0.952-2.87,1.635-4.329,1.635c-1.114,0-2.229-0.398-3.322-1.381
			c-2.599-2.335-2.776-5.196-1.142-8.219c0.331-0.613,0.628-1.243,0.942-1.865c13.264-26.268,57.082-112.925,96.147-190.13
			c7.082-13.996,14.008-27.68,20.566-40.639c16.631-32.857,30.906-61.042,39.396-77.772c3.827-7.542,5.012-15.235,3.033-23.524
			c-2.545-10.666-8.458-18.191-17.332-22.527c-2.205-1.077-4.585-1.966-7.149-2.647c-2.98-0.791-5.926-1.175-8.793-1.175
			c-2.236,0-4.422,0.241-6.545,0.695c-9.671,2.066-17.979,8.706-23.108,18.801c-10.49,20.648-40.47,79.824-63.769,125.806
			c-11.958,23.599-22.157,43.726-27.055,53.38c-1.546,3.046-3.559,4.592-5.849,4.592c-0.896,0-1.833-0.236-2.802-0.712
			c-3.405-1.67-4.177-5.025-2.086-9.261c0.671-1.359,21.996-43.544,46.676-92.348c20.005-39.559,42.213-83.464,57.414-113.507
			c6.227-12.307,11.28-22.289,14.521-28.69c8.221-16.229,1.48-36.425-14.832-44.619c-4.978-2.5-10.256-3.687-15.432-3.687
			c-12.171,0-23.775,6.563-29.589,18.035c-11.909,23.5-112.666,222.657-115.995,229.293c-1.275,2.541-3.073,4.29-5.936,4.29
			c-0.19,0-0.387-0.008-0.588-0.024c-4.644-0.367-6.782-4.919-4.367-9.75c8.042-16.087,80.202-158.391,94.175-186.436
			c6.912-13.873,2.667-28.583-7.313-38.29c-6.551-6.372-14.802-9.39-22.983-9.39c-12.056,0-23.962,6.552-30.067,18.584
			c-17.693,34.873-87.121,172.202-104.218,205.954c-1.49,2.941-3.6,4.471-5.911,4.471c-0.918,0-1.868-0.241-2.824-0.731
			c-3.323-1.704-4.163-4.913-2.134-8.976c7.411-14.839,53.213-104.783,68.222-135.154c8.303-16.801,1.009-36.344-15.774-44.537
			c-4.715-2.302-9.704-3.397-14.619-3.397c-12.09,0-23.734,6.626-29.772,18.218c-5.145,9.878-159.776,317.365-161.982,322.589
			C6.813,492.938,11.804,555.787,14.619,575.183c0.395,2.718-0.052,5.488-1.292,7.939L1.436,606.628
			c-3.318,6.559-0.691,14.565,5.868,17.883c0,0,65.538,18.453,84.933,28.264c20.603,10.423,75.059,52.672,75.059,52.672
			C169.225,706.421,171.275,706.883,173.295,706.883z"/>
	</g>
</g>
<g>
</g>
<g>
</g>
<g>
</g>
<g>
</g>
<g>
</g>
<g>
</g>
<g>
</g>
<g>
</g>
<g>
</g>
<g>
</g>
<g>
</g>
<g>
</g>
<g>
</g>
<g>
</g>
<g>
</g>
</svg>
