<?xml version="1.0" encoding="iso-8859-1"?>
<!-- Generator: Adobe Illustrator 16.0.0, SVG Export Plug-In . SVG Version: 6.00 Build 0)  -->
<!DOCTYPE svg PUBLIC "-//W3C//DTD SVG 1.1//EN" "http://www.w3.org/Graphics/SVG/1.1/DTD/svg11.dtd">
<svg version="1.1" id="Capa_1" xmlns="http://www.w3.org/2000/svg" xmlns:xlink="http://www.w3.org/1999/xlink" x="0px" y="0px"
	 width="64px" height="64px" viewBox="0 0 64 64" style="enable-background:new 0 0 64 64;" xml:space="preserve">
<g>
	<g>
		<g id="circle_82_">
			<g>
				<path d="M22,45h20V19H22V45z M32,37c1.657,0,3,1.343,3,3s-1.343,3-3,3s-3-1.343-3-3S30.343,37,32,37z M32,41
					c0.553,0,1-0.447,1-1s-0.447-1-1-1c-0.553,0-1,0.447-1,1S31.447,41,32,41z M32,0C14.327,0,0,14.327,0,32s14.327,32,32,32
					s32-14.327,32-32S49.673,0,32,0z M44,45c0,1.104-0.896,2-2,2H22c-1.104,0-2-0.896-2-2V19c0-1.104,0.896-2,2-2h20
					c1.104,0,2,0.896,2,2V45z"/>
			</g>
		</g>
	</g>
</g>
<g>
</g>
<g>
</g>
<g>
</g>
<g>
</g>
<g>
</g>
<g>
</g>
<g>
</g>
<g>
</g>
<g>
</g>
<g>
</g>
<g>
</g>
<g>
</g>
<g>
</g>
<g>
</g>
<g>
</g>
</svg>
