<?xml version="1.0" encoding="iso-8859-1"?>
<!-- Generator: Adobe Illustrator 16.0.0, SVG Export Plug-In . SVG Version: 6.00 Build 0)  -->
<!DOCTYPE svg PUBLIC "-//W3C//DTD SVG 1.1//EN" "http://www.w3.org/Graphics/SVG/1.1/DTD/svg11.dtd">
<svg version="1.1" id="Capa_1" xmlns="http://www.w3.org/2000/svg" xmlns:xlink="http://www.w3.org/1999/xlink" x="0px" y="0px"
	 width="950px" height="950px" viewBox="0 0 950 950" style="enable-background:new 0 0 950 950;" xml:space="preserve">
<g>
	<g>
		<path d="M894.228,401.3c1.1-9.2,2-18.5,2-28c0-105.9-73.101-196.9-174.101-222C674.927,58.6,580.627,0,475.028,0
			c-105.601,0-199.9,58.6-247.1,151.3c-101,25.1-174.1,116.1-174.1,222c0,9.5,0.8,18.9,1.9,28c-0.9,1-1.7,2.101-2.5,3.2
			c-9,12.5-11.4,30.9-6.6,45.5l153.2,463.4c6.5,19.5,24.8,36.6,45.4,36.6h459.5c20.6,0,38.899-16,45.399-35.5l153.2-463.1
			c4.9-14.601,2.4-34.301-6.6-46.801C895.927,403.4,895.127,402.4,894.228,401.3z M279.828,856l-121.3-367h73.7l97.5,367H279.828z
			 M438.328,856h-49.1l-97.5-367h146.6V856z M506.328,856V489h152l-97.5,367H506.328z M670.228,856h-50l97.5-367h73.699L670.228,856
			z M799.927,394h-170c1.5-4,2.4-8.8,2.4-13.6c0-23.101-19.3-42.3-42.4-42.3c-23.1,0-42.399,19.1-42.399,42.3
			c0,4.8,0.8,9.6,2.399,13.6h-399.7c-0.1,0-0.6-11.4-0.6-13.7c0-27.6,8.6-54.6,23.3-77.5c7.2,13.3,21.4,22.6,37.3,22.6
			c23.1,0,42.4-19.3,42.4-42.4c0-13.6-6.6-25.8-16.8-33.6c9.9-4.1,20.4-6.9,31.3-8.3c17.4-2.1,32.3-13.7,38.7-30
			c27.6-70.2,94-115.5,169.2-115.5c14.8,0,29.3,1.8,43.3,5.1c-14,7-23.9,21.5-23.9,38c0,23.1,19.301,42.4,42.4,42.4
			s42.4-19.3,42.4-42.4c0-4-0.601-7.9-1.7-11.7c29.399,20.1,52.8,48.9,66.6,84c6.5,16.3,21.3,27.9,38.7,30
			c8.7,1.1,17.1,3.1,25.2,5.9c-3.7,6.3-5.8,13.5-5.8,21.1c0,23.1,19.3,42.4,42.399,42.4c11.4,0,21.8-4.7,29.5-12.2
			c16.601,23.8,26.3,52.4,26.3,81.8C800.427,382.6,800.028,394,799.927,394z"/>
		<path d="M393.728,273.5c-23.101,0-42.4,19.3-42.4,42.4s19.3,42.4,42.4,42.4c23.1,0,42.399-19.3,42.399-42.4
			S416.828,273.5,393.728,273.5z"/>
		<path d="M413.828,143.1c-23.1,0-42.4,19.3-42.4,42.4s19.301,42.4,42.4,42.4s42.4-19.3,42.4-42.4S436.927,143.1,413.828,143.1z"/>
	</g>
</g>
<g>
</g>
<g>
</g>
<g>
</g>
<g>
</g>
<g>
</g>
<g>
</g>
<g>
</g>
<g>
</g>
<g>
</g>
<g>
</g>
<g>
</g>
<g>
</g>
<g>
</g>
<g>
</g>
<g>
</g>
</svg>
