<?xml version="1.0" encoding="iso-8859-1"?>
<!-- Generator: Adobe Illustrator 16.0.0, SVG Export Plug-In . SVG Version: 6.00 Build 0)  -->
<!DOCTYPE svg PUBLIC "-//W3C//DTD SVG 1.1//EN" "http://www.w3.org/Graphics/SVG/1.1/DTD/svg11.dtd">
<svg version="1.1" id="Capa_1" xmlns="http://www.w3.org/2000/svg" xmlns:xlink="http://www.w3.org/1999/xlink" x="0px" y="0px"
	 width="989.984px" height="989.984px" viewBox="0 0 989.984 989.984" style="enable-background:new 0 0 989.984 989.984;"
	 xml:space="preserve">
<g>
	<path d="M919.876,84.535c9.949-7.159,17.481-14.89,20.84-27.101c3.221-11.704,1.564-24.47-4.57-34.943
		c-5.938-10.137-15.767-17.722-27.102-20.84c-10.793-2.969-25.511-2.216-34.942,4.571c-42.753,30.765-86.086,60.776-130.936,88.424
		c-2.062,1.272-3.996,2.688-5.801,4.22c-7.695,5.458-13.767,13.287-16.839,22.79l-34.369,106.328H87.659c-22.091,0-40,17.908-40,40
		v682c0,22.092,17.909,40,40,40h807c22.091,0,40-17.908,40-40v-682c0-22.092-17.909-40-40-40H781.472l20.4-63.114
		C842.138,139.493,881.249,112.331,919.876,84.535z M309.055,475.984l82.015-82.015l82.015,82.015l26.207,26.207l-58.587,58.587
		l-15.379,15.38l-15.38,15.38l-18.876,18.875l-40.941-40.94l-14.589-14.589l-14.162-14.162l-38.53-38.53L309.055,475.984z
		 M362.786,638.696c7.501,7.501,17.676,11.716,28.284,11.716c10.607,0,20.783-4.214,28.284-11.716l30.964-30.964l34.985,14.035
		l-53.96,134.507l-134.507-53.96l37.098-92.471L362.786,638.696z M602.3,487.418l84.375,33.85l44.253,17.753l-56.983,142.044
		l-142.045-56.985l56.983-142.044L602.3,487.418z M854.659,307.984v602h-727v-602h532.64l-45.667,141.282l-10.855-4.355
		c-4.782-1.918-9.839-2.876-14.894-2.876c-5.353,0-10.702,1.074-15.72,3.219c-9.755,4.17-17.454,12.042-21.405,21.889l-3.547,8.842
		h-18.716c-0.616-0.71-1.25-1.408-1.919-2.078L419.354,365.686c-7.812-7.811-18.047-11.716-28.284-11.716
		s-20.474,3.905-28.284,11.716L254.564,473.906c-0.669,0.669-1.303,1.367-1.919,2.078h-79.986v390h637v-390H701.312l54.303-168
		H854.659z"/>
</g>
<g>
</g>
<g>
</g>
<g>
</g>
<g>
</g>
<g>
</g>
<g>
</g>
<g>
</g>
<g>
</g>
<g>
</g>
<g>
</g>
<g>
</g>
<g>
</g>
<g>
</g>
<g>
</g>
<g>
</g>
</svg>
