<?xml version="1.0" encoding="iso-8859-1"?>
<!-- Generator: Adobe Illustrator 16.0.0, SVG Export Plug-In . SVG Version: 6.00 Build 0)  -->
<!DOCTYPE svg PUBLIC "-//W3C//DTD SVG 1.1//EN" "http://www.w3.org/Graphics/SVG/1.1/DTD/svg11.dtd">
<svg version="1.1" id="Capa_1" xmlns="http://www.w3.org/2000/svg" xmlns:xlink="http://www.w3.org/1999/xlink" x="0px" y="0px"
	 width="965.34px" height="965.34px" viewBox="0 0 965.34 965.34" style="enable-background:new 0 0 965.34 965.34;"
	 xml:space="preserve">
<g>
	<path d="M674.559,72.34c16.562-16.531,16.49-43.348-0.07-59.937c-16.537-16.537-43.385-16.537-59.92,0
		c0,0-114.792,114.803-115.4,115.41c-10.577,10.578-16.498,20.919-16.498,36.143V288.34H228.579
		c-23.402,0-42.909,18.177-42.909,41.584v42.341c0,23.351,19.238,42.342,42.64,42.342l70.437,528.369
		c1.624,12.401,17.815,22.364,35.942,22.364h296.07c18.157,0,34.214-9.963,35.837-22.364l70.562-528.387
		c23.35-0.052,42.512-19.031,42.512-42.323v-42.341c0-23.408-19.477-41.585-42.884-41.585H567.67V179.372L674.559,72.34z
		 M649.557,414.34l-55.943,463H364.715l-55.944-463h32.874l33.816,303.86c1.206,10.835,11.254,18.87,22.089,17.665
		c10.835-1.206,18.871-11.255,17.665-22.09L381.892,414.34H649.557z"/>
</g>
<g>
</g>
<g>
</g>
<g>
</g>
<g>
</g>
<g>
</g>
<g>
</g>
<g>
</g>
<g>
</g>
<g>
</g>
<g>
</g>
<g>
</g>
<g>
</g>
<g>
</g>
<g>
</g>
<g>
</g>
</svg>
