<?xml version="1.0" encoding="iso-8859-1"?>
<!-- Generator: Adobe Illustrator 16.0.0, SVG Export Plug-In . SVG Version: 6.00 Build 0)  -->
<!DOCTYPE svg PUBLIC "-//W3C//DTD SVG 1.1//EN" "http://www.w3.org/Graphics/SVG/1.1/DTD/svg11.dtd">
<svg version="1.1" id="Capa_1" xmlns="http://www.w3.org/2000/svg" xmlns:xlink="http://www.w3.org/1999/xlink" x="0px" y="0px"
	 width="64px" height="64px" viewBox="0 0 64 64" style="enable-background:new 0 0 64 64;" xml:space="preserve">
<g>
	<g>
		<g id="circle_84_">
			<g>
				<path d="M38,18H26c-1.104,0-2,0.896-2,2v1h16v-1C40,18.896,39.104,18,38,18z M26,46h11v-9H26V46z M41,29c0.553,0,1-0.447,1-1
					c0-0.552-0.447-1-1-1s-1,0.448-1,1C40,28.553,40.447,29,41,29z M32,0C14.327,0,0,14.327,0,32s14.327,32,32,32s32-14.327,32-32
					S49.673,0,32,0z M39,46c0,1.104-0.896,2-2,2H26c-1.104,0-2-0.896-2-2v-9c0-1.104,0.896-2,2-2h11c1.104,0,2,0.896,2,2V46z M38,28
					c0-1.657,1.343-3,3-3s3,1.343,3,3s-1.343,3-3,3S38,29.657,38,28z M48,37c0,2.209-1.791,4-4,4h-3v-2h3c1.104,0,2-0.896,2-2V25
					c0-1.104-0.896-2-2-2H20c-1.104,0-2,0.896-2,2v12c0,1.104,0.896,2,2,2h2v2h-2c-2.209,0-4-1.791-4-4V25c0-2.209,1.791-4,4-4h2v-1
					c0-2.209,1.791-4,4-4h12c2.209,0,4,1.791,4,4v1h2c2.209,0,4,1.791,4,4V37z"/>
			</g>
		</g>
	</g>
</g>
<g>
</g>
<g>
</g>
<g>
</g>
<g>
</g>
<g>
</g>
<g>
</g>
<g>
</g>
<g>
</g>
<g>
</g>
<g>
</g>
<g>
</g>
<g>
</g>
<g>
</g>
<g>
</g>
<g>
</g>
</svg>
