<svg height="480pt" viewBox="0 0 480 480.00001" width="480pt" xmlns="http://www.w3.org/2000/svg"><path d="m152 248c0 13.253906 10.746094 24 24 24s24-10.746094 24-24-10.746094-24-24-24-24 10.746094-24 24zm32 0c0 4.417969-3.582031 8-8 8s-8-3.582031-8-8 3.582031-8 8-8 8 3.582031 8 8zm0 0"/><path d="m136 272c0 4.417969-3.582031 8-8 8s-8-3.582031-8-8 3.582031-8 8-8 8 3.582031 8 8zm0 0"/><path d="m112 240c0 4.417969-3.582031 8-8 8s-8-3.582031-8-8 3.582031-8 8-8 8 3.582031 8 8zm0 0"/><path d="m144 216c0 4.417969-3.582031 8-8 8s-8-3.582031-8-8 3.582031-8 8-8 8 3.582031 8 8zm0 0"/><path d="m328 400c-13.253906 0-24 10.746094-24 24s10.746094 24 24 24 24-10.746094 24-24-10.746094-24-24-24zm0 32c-4.417969 0-8-3.582031-8-8s3.582031-8 8-8 8 3.582031 8 8-3.582031 8-8 8zm0 0"/><path d="m312 384c0 4.417969-3.582031 8-8 8s-8-3.582031-8-8 3.582031-8 8-8 8 3.582031 8 8zm0 0"/><path d="m280 440c0 4.417969-3.582031 8-8 8s-8-3.582031-8-8 3.582031-8 8-8 8 3.582031 8 8zm0 0"/><path d="m320 312c0 4.417969-3.582031 8-8 8s-8-3.582031-8-8 3.582031-8 8-8 8 3.582031 8 8zm0 0"/><path d="m320 280c0 4.417969-3.582031 8-8 8s-8-3.582031-8-8 3.582031-8 8-8 8 3.582031 8 8zm0 0"/><path d="m480 88c0-13.253906-10.746094-24-24-24h-24c-.027344-26.5-21.5-47.972656-48-48h-16c-26.496094.03125-47.96875 21.503906-48 48v120h-16v-128c-.035156-30.914062-25.085938-55.9648438-56-56h-48c-30.914062.0351562-55.964844 25.085938-56 56h-32c-11.675781-.023438-21.664062 8.378906-23.644531 19.886719-1.976563 11.507812 4.632812 22.761719 15.644531 26.640625v25.472656h-40v-8c0-4.417969-3.582031-8-8-8h-16v-72c0-4.417969-3.582031-8-8-8s-8 3.582031-8 8v72h-16c-4.417969 0-8 3.582031-8 8v32c0 4.417969 3.582031 8 8 8h16v272h-8c-4.417969 0-8 3.582031-8 8v32c0 4.417969 3.582031 8 8 8h104c13.253906 0 24-10.746094 24-24s-10.746094-24-24-24h-80v-272h16c4.417969 0 8-3.582031 8-8v-8h40v18.328125c-1.640625 1.0625-3.246094 2.191406-4.800781 3.359375-33.113281 24.835938-44.445313 69.394531-27.210938 107.03125 17.230469 37.636719 58.359375 58.179688 98.800781 49.339844 40.4375-8.835938 69.253907-44.664063 69.210938-86.058594-.082031-29.726562-15.113281-57.414062-40-73.671875v-18.328125h16c4.417969 0 8-3.582031 8-8s-3.582031-8-8-8h-16v-25.472656c11.011719-3.878906 17.621094-15.132813 15.644531-26.640625-1.980469-11.507813-11.96875-19.910157-23.644531-19.886719h-32c.027344-22.082031 17.917969-39.972656 40-40h48c22.082031.027344 39.972656 17.917969 40 40v128h-12c-11.046875 0-20 8.953125-20 20v8c.011719 7.941406 4.71875 15.125 12 18.304688v119.808593l-47.617188 95.199219c-3.722656 7.429688-3.332031 16.253906 1.035157 23.324219 4.367187 7.070312 12.089843 11.371093 20.398437 11.363281h94.183594c4.417969 0 8-3.582031 8-8s-3.582031-8-8-8h-94.183594c-2.753906 0-5.3125-1.425781-6.761718-3.769531-1.449219-2.34375-1.582032-5.269531-.351563-7.734375l48.496094-96.921875c.539062-1.113281.8125-2.335938.800781-3.574219v-120h28c4.417969 0 8-3.582031 8-8s-3.582031-8-8-8h-36c-2.210938 0-4-1.789062-4-4v-8c0-2.210938 1.789062-4 4-4h72c2.210938 0 4 1.789062 4 4v8c0 2.210938-1.789062 4-4 4-4.417969 0-8 3.582031-8 8v128c0 1.242188.289062 2.46875.847656 3.574219l48.457032 96.921875c1.226562 2.464844 1.089843 5.386718-.359376 7.730468-1.445312 2.339844-4 3.769532-6.753906 3.773438-4.417968 0-8 3.582031-8 8s3.582032 8 8 8c8.300782 0 16.011719-4.296875 20.375-11.359375 4.367188-7.0625 4.761719-15.878906 1.050782-23.304687l-47.617188-95.222657v-119.808593c7.28125-3.179688 11.988281-10.363282 12-18.304688v-8c0-11.046875-8.953125-20-20-20h-12v-120c0-17.671875 14.328125-32 32-32h16c17.671875 0 32 14.328125 32 32h-24c-11.675781-.023438-21.664062 8.378906-23.644531 19.886719-1.976563 11.507812 4.632812 22.761719 15.644531 26.640625v185.472656c0 22.089844 17.910156 40 40 40s40-17.910156 40-40v-185.472656c9.554688-3.378906 15.957031-12.394532 16-22.527344zm-352 368c0 4.417969-3.582031 8-8 8h-96v-16h96c4.417969 0 8 3.582031 8 8zm-80-312h-32v-16h32zm64-72h32v16h-32c-4.417969 0-8-3.582031-8-8s3.582031-8 8-8zm8 32h24v24h-24zm68 69.710938c30.265625 17.476562 43.613281 54.164062 31.648438 87-11.960938 32.839843-45.78125 52.34375-80.195313 46.253906s-59.484375-36.015625-59.453125-70.964844c.054688-25.691406 13.765625-49.417969 36-62.289062 2.472656-1.425782 3.996094-4.0625 4-6.917969v-22.792969h24v32c0 4.417969 3.582031 8 8 8s8-3.582031 8-8v-32h24v22.792969c.003906 2.855469 1.527344 5.492187 4 6.917969zm-28-45.710938v-24h24v24zm32-56c4.417969 0 8 3.582031 8 8s-3.582031 8-8 8h-32v-16zm200 8h24v16h-24c-4.417969 0-8-3.582031-8-8s3.582031-8 8-8zm32 240c-13.253906 0-24-10.746094-24-24v-184h16v96c0 4.417969 3.582031 8 8 8s8-3.582031 8-8v-96h16v184c0 13.253906-10.746094 24-24 24zm32-224h-24v-16h24c4.417969 0 8 3.582031 8 8s-3.582031 8-8 8zm0 0"/><path d="m432 248c0 4.417969-3.582031 8-8 8s-8-3.582031-8-8 3.582031-8 8-8 8 3.582031 8 8zm0 0"/><path d="m432 280c0 4.417969-3.582031 8-8 8s-8-3.582031-8-8 3.582031-8 8-8 8 3.582031 8 8zm0 0"/></svg>