<svg height="482pt" viewBox="-1 0 482 482.14454" width="482pt" xmlns="http://www.w3.org/2000/svg"><path d="m440.074219 74.144531c-.320313 0-.617188.089844-.9375.097657l-163.472657-43.800782c-7.28125-18.574218-25.300781-30.695312-45.25-30.43749975-19.945312.25781275-37.648437 12.84374975-44.445312 31.59765575l-11.199219 30.773438c-56.652343.472656-107.015625 36.179688-126.210937 89.480469-.734375 2-.644532 4.207031.25 6.136719.898437 1.933593 2.527344 3.425781 4.527344 4.152343l75.855468 27.609375c-3.273437 17.660156 3.597656 35.671875 17.808594 46.660156 14.210938 10.988282 33.371094 13.113282 49.640625 5.5 9.015625-4.214843 16.484375-11.15625 21.34375-19.839843l75.917969 27.621093c.878906.308594 1.800781.460938 2.730468.449219 1.167969.003907 2.324219-.253906 3.382813-.753906 1.921875-.894531 3.410156-2.515625 4.136719-4.511719 19.4375-53.148437 3.808594-112.777344-39.199219-149.558594l3.246094-8.910156 131.875 35.335938v216.398437h-24c-30.914063.039063-55.960938 25.089844-56 56v80c0 4.417969 3.578125 8 8 8h104c4.417969 0 8-3.582031 8-8s-3.582031-8-8-8h-96v-72c.023437-22.082031 17.917969-39.972656 40-40h64c4.417969 0 8-3.582031 8-8s-3.582031-8-8-8h-24v-224c.054687-12.554687 9.777343-22.945312 22.300781-23.832031.5625-.039062 1.097656-.167969 1.664062-.167969 13.257813 0 24 10.746094 24 24v280c0 4.417969 3.582032 8 8 8 4.417969 0 8-3.582031 8-8v-280c-.023437-22.066406-17.898437-39.957031-39.964843-40zm-250.195313 153.222657c-10.378906 4.859374-22.570312 3.773437-31.929687-2.84375-9.363281-6.617188-14.449219-17.746094-13.332031-29.15625l58.007812 21.113281c-3.199219 4.703125-7.597656 8.464843-12.746094 10.886719zm54.195313-146.824219c-2.488281-1.542969-5.617188-1.609375-8.167969-.167969-2.546875 1.4375-4.105469 4.15625-4.058594 7.082031.042969 2.925781 1.683594 5.597657 4.273438 6.960938 48.046875 27.441406 71.007812 84.253906 55.511718 137.375l-74.953124-27.25-150.101563-54.644531c23.507813-53.820313 82.667969-82.554688 139.503906-67.753907 4.277344 1.105469 8.640625-1.46875 9.746094-5.746093 1.105469-4.28125-1.46875-8.644532-5.746094-9.75-6.125-1.53125-12.34375-2.632813-18.617187-3.304688l9.550781-26.253906c6.300781-16.21875 24.40625-24.429688 40.757813-18.488282 16.355468 5.945313 24.960937 23.863282 19.378906 40.34375l-9.601563 26.34375c-2.453125-1.609374-4.902343-3.25-7.476562-4.746093zm32.132812-16.117188c1.914063-5.300781 2.875-10.894531 2.839844-16.527343l134.945313 36.167968c-6.480469 5.5625-11.003907 13.054688-12.902344 21.382813l-127.417969-34.128907zm0 0"/><path d="m440.074219 146.144531c-4.421875 0-8 3.582031-8 8v152c0 4.417969 3.578125 8 8 8 4.417969 0 8-3.582031 8-8v-152c0-4.417969-3.582031-8-8-8zm0 0"/><path d="m296.074219 434.144531h-8v-20.800781c-.003907-7.113281-3.171875-13.855469-8.644531-18.394531-5.476563-4.542969-12.6875-6.410157-19.675782-5.101563l-107.027344 20.039063-109.964843-39.269531c-2.722657-1.097657-5.828125-.617188-8.089844 1.253906s-3.320313 4.828125-2.753906 7.707031c.566406 2.878906 2.664062 5.21875 5.464843 6.09375l106.691407 38.074219v8.261718l-126.160157-29.65625c-4.304687-1.011718-8.617187 1.652344-9.628906 5.957032-1.015625 4.304687 1.652344 8.613281 5.957032 9.628906l68.894531 16.207031h-75.0625c-4.421875 0-8.0000002 3.582031-8.0000002 8v24c0 8.835938 7.1601562 16 16.0000002 16h120c5.921875-.019531 11.625-2.246093 16-6.238281 4.371093 3.992188 10.074219 6.21875 16 6.238281h120c8.835937 0 16-7.164062 16-16v-24c0-4.417969-3.582031-8-8-8zm-33.371094-28.609375c2.316406-.441406 4.707031.183594 6.511719 1.699219 1.835937 1.492187 2.886718 3.742187 2.859375 6.109375v20.800781h-112v-9.359375zm-126.628906 60.609375h-120v-16h128v8c0 4.417969-3.582031 8-8 8zm32 0c-4.421875 0-8-3.582031-8-8v-8h128v16zm0 0"/><path d="m99.960938 329c1.238281.75 2.660156 1.144531 4.113281 1.144531 2.8125.003907 5.421875-1.46875 6.871093-3.878906l24-40c2.273438-3.789063 1.046876-8.707031-2.742187-10.980469-3.789063-2.277344-8.703125-1.050781-10.980469 2.738282l-24 40c-2.273437 3.789062-1.046875 8.703124 2.738282 10.976562zm0 0"/><path d="m208.074219 330.144531c.441406.003907.882812-.035156 1.316406-.113281 4.355469-.726562 7.300781-4.84375 6.578125-9.199219l-8-48c-.839844-4.242187-4.894531-7.050781-9.160156-6.339843-4.265625.707031-7.195313 4.679687-6.617188 8.964843l8 48c.640625 3.855469 3.972656 6.683594 7.882813 6.6875zm0 0"/><path d="m100.496094 218.984375-32 16c-3.953125 1.976563-5.558594 6.78125-3.582032 10.734375 1.972657 3.957031 6.78125 5.5625 10.734376 3.585938l32-16c3.953124-1.976563 5.558593-6.78125 3.582031-10.734376-1.972657-3.957031-6.78125-5.5625-10.734375-3.585937zm0 0"/><path d="m448.074219 114.144531c0 4.417969-3.582031 8-8 8-4.421875 0-8-3.582031-8-8s3.578125-8 8-8c4.417969 0 8 3.582031 8 8zm0 0"/></svg>