<svg height="480pt" viewBox="-32 0 480 480" width="480pt" xmlns="http://www.w3.org/2000/svg"><path d="m288 56c-12.710938.035156-24.644531 6.125-32.128906 16.398438-44.035156-15.769532-92.996094-9.085938-131.191406 17.910156-38.199219 26.996094-60.84375 70.917968-60.679688 117.691406 0 2.398438.160156 4.800781.3125 7.136719l.097656 1.375c.269532 4.21875 3.773438 7.496093 8 7.488281h.519532c4.40625-.28125 7.753906-4.085938 7.46875-8.496094l-.09375-1.441406c-.136719-2-.28125-4-.28125-6.046875-.152344-41.308594 19.710937-80.132813 53.300781-104.175781 33.589843-24.046875 76.742187-30.332032 115.796875-16.871094-.71875 2.957031-1.097656 5.988281-1.121094 9.03125.027344 22.082031 17.917969 39.972656 40 40 7.460938-.023438 14.765625-2.152344 21.074219-6.144531 17.394531 22.339843 26.867187 49.832031 26.925781 78.144531 0 4.417969 3.582031 8 8 8s8-3.582031 8-8c-.070312-32.390625-11.082031-63.808594-31.253906-89.152344 8.570312-12.199218 9.628906-28.160156 2.738281-41.382812-6.886719-13.222656-20.574219-21.5-35.484375-21.464844zm-24 40c0-13.253906 10.746094-24 24-24s24 10.746094 24 24-10.746094 24-24 24-24-10.746094-24-24zm0 0"/><path d="m208 184c-13.253906 0-24 10.746094-24 24 0 4.417969 3.582031 8 8 8s8-3.582031 8-8 3.582031-8 8-8 8 3.582031 8 8 3.582031 8 8 8 8-3.582031 8-8c0-13.253906-10.746094-24-24-24zm0 0"/><path d="m208 0c-44.476562.109375-87.75 14.441406-123.496094 40.902344-12.292968-14.460938-31.957031-20.308594-50.15625-14.917969-18.199218 5.390625-31.503906 21.011719-33.9375 39.835937-2.429687 18.824219 6.472656 37.308594 22.703125 47.148438-34.121093 66.089844-30.242187 145.386719 10.167969 207.832031 1.476562 2.28125 4.007812 3.660157 6.726562 3.65625 2.929688-.003906 5.625-1.605469 7.023438-4.179687 1.398438-2.574219 1.28125-5.707032-.3125-8.164063-37.59375-58.089843-40.914062-131.941406-8.6875-193.167969 14.164062 3.019532 28.9375-.519531 40.191406-9.632812 11.257813-9.117188 17.789063-22.828125 17.777344-37.3125-.007812-5.921875-1.121094-11.789062-3.28125-17.304688 33.140625-25.203124 73.648438-38.800781 115.28125-38.695312 70.304688-.015625 134.992188 38.398438 168.617188 100.140625 33.625 61.738281 30.8125 136.917969-7.335938 195.972656-2.398438 3.710938-1.335938 8.664063 2.375 11.0625 3.710938 2.398438 8.664062 1.335938 11.0625-2.375 41.296875-63.980469 44.332031-145.414062 7.910156-212.289062-36.421875-66.871094-106.480468-108.496094-182.628906-108.511719zm-160 104c-17.671875 0-32-14.328125-32-32s14.328125-32 32-32 32 14.328125 32 32-14.328125 32-32 32zm0 0"/><path d="m272 208c0 4.417969 3.582031 8 8 8s8-3.582031 8-8c-.027344-31.832031-18.929688-60.621094-48.128906-73.304688-.605469-17.160156-14.695313-30.757812-31.867188-30.757812s-31.257812 13.597656-31.867187 30.757812c-29.203125 12.679688-48.105469 41.46875-48.136719 73.304688 0 4.417969 3.582031 8 8 8s8-3.582031 8-8c.054688-24.335938 13.929688-46.527344 35.785156-57.230469 5.433594 10.574219 16.324219 17.226563 28.214844 17.226563s22.785156-6.652344 28.214844-17.226563c21.855468 10.703125 35.730468 32.894531 35.785156 57.230469zm-64-56c-8.835938 0-16-7.164062-16-16s7.164062-16 16-16 16 7.164062 16 16-7.164062 16-16 16zm0 0"/><path d="m216 408c0 4.417969-3.582031 8-8 8s-8-3.582031-8-8 3.582031-8 8-8 8 3.582031 8 8zm0 0"/><path d="m336 240h-32c-13.253906 0-24 10.746094-24 24v32c0 13.253906 10.746094 24 24 24h8v16h-48v-88c0-13.253906-10.746094-24-24-24h-64c-13.253906 0-24 10.746094-24 24v88h-48v-16h8c13.253906 0 24-10.746094 24-24v-32c0-13.253906-10.746094-24-24-24h-32c-13.253906 0-24 10.746094-24 24v32c0 13.253906 10.746094 24 24 24h8v48h-8c-13.253906 0-24 10.746094-24 24v32c0 13.253906 10.746094 24 24 24h32c13.253906 0 24-10.746094 24-24v-32c0-13.253906-10.746094-24-24-24h-8v-16h56v80h-8c-4.417969 0-8 3.582031-8 8v32c0 4.417969 3.582031 8 8 8h112c4.417969 0 8-3.582031 8-8v-32c0-4.417969-3.582031-8-8-8h-8v-80h56v16h-8c-13.253906 0-24 10.746094-24 24v32c0 13.253906 10.746094 24 24 24h32c13.253906 0 24-10.746094 24-24v-32c0-13.253906-10.746094-24-24-24h-8v-48h8c13.253906 0 24-10.746094 24-24v-32c0-13.253906-10.746094-24-24-24zm-264 56v-8h16c4.417969 0 8-3.582031 8-8s-3.582031-8-8-8h-16v-8c0-4.417969 3.582031-8 8-8h32c4.417969 0 8 3.582031 8 8v32c0 4.417969-3.582031 8-8 8h-32c-4.417969 0-8-3.582031-8-8zm48 96v32c0 4.417969-3.582031 8-8 8h-32c-4.417969 0-8-3.582031-8-8v-8h16c4.417969 0 8-3.582031 8-8s-3.582031-8-8-8h-16v-8c0-4.417969 3.582031-8 8-8h32c4.417969 0 8 3.582031 8 8zm56-152h64c4.417969 0 8 3.582031 8 8v48h-80v-16h40c4.417969 0 8-3.582031 8-8s-3.582031-8-8-8h-40v-16c0-4.417969 3.582031-8 8-8zm64 200c0 4.417969 3.582031 8 8 8h8v16h-96v-16h48c4.417969 0 8-3.582031 8-8s-3.582031-8-8-8h-32v-88c0-4.417969-3.582031-8-8-8v-24h80v24h-40c-4.417969 0-8 3.582031-8 8s3.582031 8 8 8h32zm104-48v8h-16c-4.417969 0-8 3.582031-8 8s3.582031 8 8 8h16v8c0 4.417969-3.582031 8-8 8h-32c-4.417969 0-8-3.582031-8-8v-32c0-4.417969 3.582031-8 8-8h32c4.417969 0 8 3.582031 8 8zm-8-88h-32c-4.417969 0-8-3.582031-8-8v-32c0-4.417969 3.582031-8 8-8h32c4.417969 0 8 3.582031 8 8v8h-16c-4.417969 0-8 3.582031-8 8s3.582031 8 8 8h16v8c0 4.417969-3.582031 8-8 8zm0 0"/><path d="m216 376c0 4.417969-3.582031 8-8 8s-8-3.582031-8-8 3.582031-8 8-8 8 3.582031 8 8zm0 0"/></svg>