<svg height="480pt" viewBox="0 0 480 480" width="480pt" xmlns="http://www.w3.org/2000/svg"><path d="m456 432h-8v-32c0-4.417969-3.582031-8-8-8s-8 3.582031-8 8v32h-16v-48.800781c20.140625-4.089844 33.902344-22.773438 31.835938-43.21875-2.0625-20.445313-19.285157-36-39.835938-35.980469-8.683594.03125-17.117188 2.914062-24 8.207031v-56.207031h48v32c0 4.417969 3.582031 8 8 8s8-3.582031 8-8v-32h8c4.417969 0 8-3.582031 8-8v-32c0-4.417969-3.582031-8-8-8h-72v-56h8c13.253906 0 24-10.746094 24-24v-8c0-13.253906-10.746094-24-24-24h-144v-32h72c3.234375 0 6.152344-1.949219 7.390625-4.9375s.550781-6.429688-1.734375-8.71875l-18.34375-18.34375 18.34375-18.34375c2.285156-2.289062 2.972656-5.730469 1.734375-8.71875s-4.15625-4.9375-7.390625-4.9375h-80c-4.417969 0-8 3.582031-8 8v88h-144c-13.253906 0-24 10.746094-24 24v8c0 13.253906 10.746094 24 24 24h8v56h-72c-4.417969 0-8 3.582031-8 8v32c0 4.417969 3.582031 8 8 8h8v32c0 4.417969 3.582031 8 8 8s8-3.582031 8-8v-32h48v56.207031c-6.882812-5.292969-15.316406-8.175781-24-8.207031-20.550781-.019531-37.773438 15.535156-39.835938 35.980469-2.066406 20.445312 11.695313 39.128906 31.835938 43.21875v48.800781h-16v-32c0-4.417969-3.582031-8-8-8s-8 3.582031-8 8v32h-8c-13.253906 0-24 10.746094-24 24v16c0 4.417969 3.582031 8 8 8h464c4.417969 0 8-3.582031 8-8v-16c0-13.253906-10.746094-24-24-24zm-208-416h52.6875l-10.34375 10.34375c-3.121094 3.125-3.121094 8.1875 0 11.3125l10.34375 10.34375h-52.6875zm104 416v-48.800781c9.628906-2.015625 18.171875-7.511719 24-15.4375 5.828125 7.925781 14.371094 13.421875 24 15.4375v48.800781zm-8-64c-13.253906 0-24-10.746094-24-24s10.746094-24 24-24 24 10.746094 24 24-10.746094 24-24 24zm64-48c13.253906 0 24 10.746094 24 24s-10.746094 24-24 24-24-10.746094-24-24 10.746094-24 24-24zm40-96v16h-64v-16zm-48-104v8c0 4.417969-3.582031 8-8 8h-101.480469c-4.761719-9.96875-12.351562-18.316406-21.824219-24h123.304688c4.417969 0 8 3.582031 8 8zm-160 0c22.089844 0 40 17.910156 40 40s-17.910156 40-40 40-40-17.910156-40-40c.027344-22.082031 17.917969-39.972656 40-40zm-160 8v-8c0-4.417969 3.582031-8 8-8h123.304688c-9.472657 5.6875-17.0625 14.03125-21.824219 24h-101.480469c-4.417969 0-8-3.582031-8-8zm104.640625 24c-3.324219 21.789062 6.441406 43.496094 24.949219 55.464844 18.507812 11.96875 42.3125 11.96875 60.820312 0 18.507813-11.96875 28.273438-33.675782 24.949219-55.464844h72.640625v160.207031c-6.882812-5.292969-15.316406-8.175781-24-8.207031-20.550781-.019531-37.773438 15.535156-39.835938 35.980469-2.066406 20.445312 11.695313 39.128906 31.835938 43.21875v48.800781h-48v-56c-.027344-22.082031-17.917969-39.972656-40-40h-16c-22.082031.027344-39.972656 17.917969-40 40v56h-48v-48.800781c20.140625-4.089844 33.902344-22.773438 31.835938-43.21875-2.0625-20.445313-19.285157-36-39.835938-35.980469-8.683594.03125-17.117188 2.914062-24 8.207031v-160.207031zm23.359375 280v-56c0-13.253906 10.746094-24 24-24h16c13.253906 0 24 10.746094 24 24v56zm-72-112c13.253906 0 24 10.746094 24 24s-10.746094 24-24 24-24-10.746094-24-24 10.746094-24 24-24zm-96-80h-8v-16h64v16zm8 104c0-13.253906 10.746094-24 24-24s24 10.746094 24 24-10.746094 24-24 24-24-10.746094-24-24zm32 39.199219c9.628906-2.015625 18.171875-7.511719 24-15.4375 5.828125 7.925781 14.371094 13.421875 24 15.4375v48.800781h-48zm384 80.800781h-448v-8c0-4.417969 3.582031-8 8-8h432c4.417969 0 8 3.582031 8 8zm0 0"/><path d="m144 280h64c4.417969 0 8-3.582031 8-8v-32c0-4.417969-3.582031-8-8-8h-32c-4.417969 0-8 3.582031-8 8s3.582031 8 8 8h24v16h-48v-24c0-4.417969-3.582031-8-8-8s-8 3.582031-8 8v32c0 4.417969 3.582031 8 8 8zm0 0"/><path d="m272 280h64c4.417969 0 8-3.582031 8-8v-32c0-4.417969-3.582031-8-8-8h-64c-4.417969 0-8 3.582031-8 8v32c0 4.417969 3.582031 8 8 8zm8-32h48v16h-48zm0 0"/><path d="m240 168h16c4.417969 0 8-3.582031 8-8s-3.582031-8-8-8h-8v-8c0-4.417969-3.582031-8-8-8s-8 3.582031-8 8v16c0 4.417969 3.582031 8 8 8zm0 0"/></svg>