<svg height="480pt" viewBox="0 0 480 480" width="480pt" xmlns="http://www.w3.org/2000/svg"><path d="m336 128c-4.417969 0-8 3.582031-8 8v304c0 13.253906-10.746094 24-24 24h-224c-13.253906 0-24-10.746094-24-24h208c22.082031-.027344 39.972656-17.917969 40-40v-304c-.027344-22.082031-17.917969-39.972656-40-40h-16v-16c0-13.253906-10.746094-24-24-24h-17.472656c-3.378906-9.554688-12.394532-15.9570312-22.527344-16-4.417969 0-8 3.582031-8 8s3.582031 8 8 8 8 3.582031 8 8-3.582031 8-8 8h-64c-4.417969 0-8-3.582031-8-8s3.582031-8 8-8 8-3.582031 8-8-3.582031-8-8-8c-10.132812.0429688-19.148438 6.445312-22.527344 16h-17.472656c-13.253906 0-24 10.746094-24 24v16h-16c-22.082031.027344-39.9726562 17.917969-40 40v184c0 4.417969 3.582031 8 8 8s8-3.582031 8-8v-184c0-13.253906 10.746094-24 24-24h16v16c0 13.253906 10.746094 24 24 24h56c4.417969 0 8-3.582031 8-8v-8h16v8c0 4.417969 3.582031 8 8 8h56c13.253906 0 24-10.746094 24-24v-16h16c13.253906 0 24 10.746094 24 24v248h-55.855469c-17.742187.023438-32.121093 14.402344-32.144531 32.144531v47.855469h-160c-13.253906 0-24-10.746094-24-24v-24c0-4.417969-3.582031-8-8-8s-8 3.582031-8 8v24c.0273438 22.082031 17.917969 39.972656 40 40 .027344 22.082031 17.917969 39.972656 40 40h224c22.082031-.027344 39.972656-17.917969 40-40v-304c0-4.417969-3.582031-8-8-8zm-264-88c0-4.417969 3.582031-8 8-8h17.472656c3.378906 9.554688 12.394532 15.957031 22.527344 16h64c10.132812-.042969 19.148438-6.445312 22.527344-16h17.472656c4.417969 0 8 3.582031 8 8v16h-160zm160 48c0 4.417969-3.582031 8-8 8h-48v-8c0-4.417969-3.582031-8-8-8h-32c-4.417969 0-8 3.582031-8 8v8h-48c-4.417969 0-8-3.582031-8-8v-16h160zm-16 288.144531c.007812-8.914062 7.230469-16.136719 16.144531-16.144531h48.304688c-17.746094 23.148438-39.589844 42.839844-64.449219 58.097656zm72-.066406v23.921875c0 13.253906-10.746094 24-24 24h-28c19.476562-13.476562 36.980469-29.605469 52-47.921875zm0 0"/><path d="m48 160c-4.417969 0-8 3.582031-8 8v48c0 13.253906 10.746094 24 24 24h48c13.253906 0 24-10.746094 24-24v-48c0-4.417969-3.582031-8-8-8s-8 3.582031-8 8v48c0 4.417969-3.582031 8-8 8h-48c-4.417969 0-8-3.582031-8-8v-48c0-4.417969-3.582031-8-8-8zm0 0"/><path d="m248 168c4.417969 0 8-3.582031 8-8s-3.582031-8-8-8h-48c-4.417969 0-8 3.582031-8 8s3.582031 8 8 8zm0 0"/><path d="m160 192c0 4.417969 3.582031 8 8 8h80c4.417969 0 8-3.582031 8-8s-3.582031-8-8-8h-80c-4.417969 0-8 3.582031-8 8zm0 0"/><path d="m168 240h80c4.417969 0 8-3.582031 8-8s-3.582031-8-8-8h-80c-4.417969 0-8 3.582031-8 8s3.582031 8 8 8zm0 0"/><path d="m56 272c0 4.417969 3.582031 8 8 8h184c4.417969 0 8-3.582031 8-8s-3.582031-8-8-8h-184c-4.417969 0-8 3.582031-8 8zm0 0"/><path d="m64 312h48c4.417969 0 8-3.582031 8-8s-3.582031-8-8-8h-48c-4.417969 0-8 3.582031-8 8s3.582031 8 8 8zm0 0"/><path d="m184 336c0-4.417969-3.582031-8-8-8h-112c-4.417969 0-8 3.582031-8 8s3.582031 8 8 8h112c4.417969 0 8-3.582031 8-8zm0 0"/><path d="m112 360c-4.417969 0-8 3.582031-8 8s3.582031 8 8 8h40c4.417969 0 8-3.582031 8-8s-3.582031-8-8-8zm0 0"/><path d="m472 144h-24v-8c-.042969-10.132812-6.445312-19.148438-16-22.527344v-25.472656c0-13.253906-10.746094-24-24-24s-24 10.746094-24 24c0 4.417969 3.582031 8 8 8s8-3.582031 8-8 3.582031-8 8-8 8 3.582031 8 8v24h-24c-13.253906 0-24 10.746094-24 24v224c0 4.417969 3.582031 8 8 8v24c.03125 7.722656 2.875 15.167969 8 20.945312v19.054688c0 13.253906 10.746094 24 24 24s24-10.746094 24-24v-19.054688c5.128906-5.773437 7.972656-13.222656 8-20.945312v-24c4.417969 0 8-3.582031 8-8v-168h16v88c0 4.417969 3.582031 8 8 8s8-3.582031 8-8v-128c0-4.417969-3.582031-8-8-8zm-80-16h32c4.417969 0 8 3.582031 8 8v8h-48v-8c0-4.417969 3.582031-8 8-8zm40 224h-48v-160h24c4.417969 0 8-3.582031 8-8s-3.582031-8-8-8h-24v-16h48zm-16 80c0 4.417969-3.582031 8-8 8s-8-3.582031-8-8v-9.039062c.273438.070312.558594.09375.800781.167968.527344.117188 1.0625.214844 1.597657.3125 1.765624.328125 3.558593.507813 5.355468.535156h.207032.207031c1.796875-.027343 3.585937-.207031 5.351562-.535156.535157-.097656 1.074219-.195312 1.601563-.3125.277344-.074218.566406-.097656.800781-.167968zm8-40c-.011719 4.464844-1.898438 8.722656-5.199219 11.726562-.054687.035157-.105469.066407-.152343.105469-6.085938 5.367188-15.210938 5.367188-21.296876 0-.046874-.039062-.097656-.070312-.152343-.105469-3.300781-3.003906-5.1875-7.261718-5.199219-11.726562v-24h32zm24-216v-16h16v16zm0 0"/></svg>