<svg height="480pt" viewBox="0 0 480.01483 480" width="480pt" xmlns="http://www.w3.org/2000/svg"><path d="m479.816406 418.746094c-.703125-3.195313-3.289062-5.636719-6.519531-6.167969l-51.007813-8.398437-33.773437-5.601563h-.210937c-.921876-.144531-1.867188-.117187-2.78125.074219-.082032 0-.160157 0-.242188 0-24.757812 5.503906-50.125-6.320313-61.828125-28.820313-11.707031-22.5-6.832031-50.058593 11.886719-67.171875 18.71875-17.117187 46.601562-19.515625 67.964844-5.847656l13.496093 8.574219c18.625 11.886719 43.355469 6.421875 55.242188-12.199219 11.882812-18.625 6.421875-43.355469-12.199219-55.238281l-13.488281-8.609375c-46.375-29.601563-106.015625-28.347656-151.105469 3.175781-45.085938 31.523437-66.742188 87.105469-54.863281 140.824219 2.355469 10.449218 5.929687 20.582031 10.648437 30.199218 1.339844 2.753907 4.136719 4.5 7.199219 4.496094 1.210937.003906 2.40625-.269531 3.496094-.800781 3.976562-1.929687 5.628906-6.722656 3.695312-10.695313-22.996093-46.933593-12.914062-103.355468 24.910157-139.425781 37.824218-36.066406 94.660156-43.457031 140.449218-18.261719l-8.605468 13.488282c-42.230469-22.6875-94.507813-13.445313-126.402344 22.34375-2.941406 3.296875-2.65625 8.351562.640625 11.296875 3.296875 2.941406 8.351562 2.65625 11.296875-.640625 26.6875-29.941406 70.28125-37.972656 105.886718-19.511719l-8.65625 13.597656c-27.476562-13.558593-60.523437-8.242187-82.363281 13.25-21.839843 21.492188-27.683593 54.449219-14.566406 82.140625s42.324219 44.046875 72.785156 40.761719l3.457031 15.664063c-27.625 3.550781-55.296874-6.207032-74.582031-26.300782-19.285156-20.089844-27.902343-48.136718-23.226562-75.59375.738281-4.359375-2.195313-8.492187-6.554688-9.226562-4.359375-.738282-8.492187 2.195312-9.226562 6.554687-5.84375 32.746094 4.457031 66.300781 27.667969 90.128907 23.210937 23.828124 56.480468 35.007812 89.371093 30.03125l3.445313 15.625c-31.964844 4.898437-64.554688-3.34375-90.351563-22.851563-3.535156-2.648437-8.546875-1.933594-11.199219 1.601563-2.652343 3.535156-1.933593 8.550781 1.601563 11.199218 31.730469 24.0625 72.425781 32.984375 111.3125 24.402344.085937 0 .152344-.089844.238281-.113281.902344-.210938 1.757813-.582031 2.527344-1.097657l.105469-.070312h.046875l28.320312-19.289062 42.726563-29.09375c2.742187-1.84375 4.066406-5.179688 3.335937-8.402344zm-21.261718-134.175782c-7.128907 11.183594-21.976563 14.464844-33.152344 7.328126l-6.746094-4.304688 12.90625-20.222656 12.917969-20.238282 6.738281 4.300782c11.175781 7.125 14.457031 21.960937 7.335938 33.136718zm-24 151.738282-3.199219-14.402344 19.613281 3.199219zm-20.191407-17.21875 5.941407 26.921875-14.246094 9.695312-4.359375-19.695312-4.351563-19.703125zm0 0"/><path d="m240.003906 200.011719c0-4.417969-3.582031-8-8-8-4.421875 0-8 3.582031-8 8v32h-48v-32c0-4.417969-3.582031-8-8-8h-96c-4.421875 0-8 3.582031-8 8v32h-16v-112c0-39.765625 32.234375-72 72-72 39.761719 0 72 32.234375 72 72v40h-120c-4.421875 0-8 3.582031-8 8s3.578125 8 8 8h120v24c0 4.417969 3.578125 8 8 8 4.417969 0 8-3.582031 8-8v-80c0-48.601563-39.402344-88-88-88-48.601562 0-88 39.398437-88 88v112h-16v-112c-.003906-28.457031 11.65625-55.671875 32.261719-75.300781 20.605469-19.628907 48.351563-29.957032 76.777344-28.578126 56.316406 3.476563 99.921875 50.660157 98.960937 107.078126v20.800781c0 4.417969 3.578125 8 8 8 4.417969 0 8-3.582031 8-8v-20.800781c.976563-64.96875-49.351562-119.199219-114.210937-123.0625-32.792969-1.585938-64.804688 10.335937-88.570313 32.984374-23.769531 22.648438-37.222656 54.046876-37.21874975 86.878907v120c.03515625.238281.08203125.472656.14062475.703125.050781.542968.15625 1.078125.320313 1.601562.148437.515625.351562 1.015625.609375 1.488282.121093.214843.136719.460937.273437.671874l32 48c1.480469 2.222657 3.980469 3.558594 6.65625 3.558594 2.671875 0 5.171875-1.335937 6.652344-3.558594l32-48c.109375-.214843.199219-.4375.273438-.664062.507812-.953125.824218-2 .929687-3.074219.058594-.238281.109375-.480469.144531-.726562v-32h80v40c0 22.089843 17.90625 40 40 40 22.089844 0 40-17.910157 40-40zm-200 73.597656-17.050781-25.597656h34.105469zm160-1.597656c-13.257812 0-24-10.746094-24-24h48c0 13.253906-10.746094 24-24 24zm0 0"/><path d="m72.003906 144.011719h96c4.417969 0 8-3.582031 8-8v-16c0-30.929688-25.074218-56-56-56-30.929687 0-56 25.070312-56 56v16c0 4.417969 3.578125 8 8 8zm8-24c0-22.09375 17.90625-40 40-40 22.089844 0 40 17.90625 40 40v8h-80zm0 0"/><path d="m264.464844 138.292969c.148437.515625.351562 1.015625.609375 1.484375.121093.21875.136719.464844.273437.675781l32 48c1.480469 2.222656 3.980469 3.558594 6.65625 3.558594 2.671875 0 5.171875-1.335938 6.652344-3.558594l29.625-44.441406h11.722656c17.214844 0 32.5-11.019531 37.945313-27.351563 5.445312-16.332031-.171875-34.320312-13.945313-44.648437 13.773438-10.332031 19.390625-28.316407 13.945313-44.648438-5.445313-16.335937-20.730469-27.3515622-37.945313-27.3515622h-16c-4.421875 0-8 3.5820312-8 8.0000002v88c0 4.417969 3.578125 8 8 8 4.417969 0 8-3.582031 8-8v-16h8c13.253906 0 24 10.746093 24 24 0 13.253906-10.746094 24-24 24h-40v-120c0-4.417969-3.582031-8.0000002-8-8.0000002-4.421875 0-8 3.5820312-8 8.0000002v120h-16v-120c0-4.417969-3.582031-8.0000002-8-8.0000002-4.421875 0-8 3.5820312-8 8.0000002v128c.035156.238281.082032.472656.140625.703125.050781.535156.160157 1.0625.320313 1.578125zm87.539062-74.28125h-8v-48h8c13.253906 0 24 10.746093 24 24 0 13.253906-10.746094 24-24 24zm-48 105.597656-17.050781-25.597656h34.105469zm0 0"/><path d="m138.113281 301.898438c-10.613281-.027344-20.800781 4.1875-28.289062 11.710937l-5.652344 5.65625-90.515625 90.523437s-.046875.078126-.078125.117188c-.644531.671875-1.164063 1.453125-1.535156 2.304688-.097657.222656-.152344.449218-.234375.671874-.132813.320313-.246094.648438-.335938.984376l-11.3125 56.542968c-.535156 2.632813.28125 5.359375 2.183594 7.261719 1.898438 1.898437 4.625 2.71875 7.257812 2.179687l56.578126-11.3125c.335937-.085937.664062-.199218.980468-.335937.226563-.078125.449219-.136719.675782-.230469.851562-.375 1.628906-.894531 2.300781-1.539062.042969 0 .089843-.046875.121093-.078125l90.480469-90.511719 5.65625-5.65625c11.441407-11.4375 14.867188-28.644531 8.675781-43.59375-6.191406-14.949219-20.777343-24.695312-36.957031-24.695312zm16.96875 23.03125c9.375 9.375 9.375 24.574218 0 33.945312l-33.902343-33.902344c9.480468-9.050781 24.398437-9.070312 33.902343-.042968zm-136.878906 136.890624 6.023437-30.152343 12.039063 12.039062 12 12.039063zm46.398437-12.433593-11.34375-11.320313 32.398438-32.398437c3.035156-3.140625 2.988281-8.128907-.09375-11.214844-3.085938-3.085937-8.078125-3.128906-11.214844-.097656l-32.402344 32.398437-11.320312-11.3125 79.199219-79.199218 11.3125 11.320312-14.789063 14.792969c-2.082031 2.007812-2.914062 4.984375-2.183594 7.78125.734376 2.796875 2.917969 4.980469 5.714844 5.710937 2.796875.734375 5.769532-.101562 7.777344-2.179687l14.792969-14.792969 11.320312 11.3125zm0 0"/></svg>