<svg height="480pt" viewBox="0 0 480 480" width="480pt" xmlns="http://www.w3.org/2000/svg"><path d="m192 423.996094h-24c-4.417969 0-8 3.582031-8 8 0 4.417968 3.582031 8 8 8h24c4.417969 0 8-3.582032 8-8 0-4.417969-3.582031-8-8-8zm0 0"/><path d="m192 391.996094h-24c-4.417969 0-8 3.582031-8 8 0 4.417968 3.582031 8 8 8h24c4.417969 0 8-3.582032 8-8 0-4.417969-3.582031-8-8-8zm0 0"/><path d="m192 359.996094h-24c-4.417969 0-8 3.582031-8 8 0 4.417968 3.582031 8 8 8h24c4.417969 0 8-3.582032 8-8 0-4.417969-3.582031-8-8-8zm0 0"/><path d="m192 191.996094h-24c-4.417969 0-8 3.582031-8 8 0 4.417968 3.582031 8 8 8h24c4.417969 0 8-3.582032 8-8 0-4.417969-3.582031-8-8-8zm0 0"/><path d="m192 223.996094h-24c-4.417969 0-8 3.582031-8 8 0 4.417968 3.582031 8 8 8h24c4.417969 0 8-3.582032 8-8 0-4.417969-3.582031-8-8-8zm0 0"/><path d="m280 175.996094c-4.417969 0-8 3.582031-8 8v64c0 4.417968 3.582031 8 8 8s8-3.582032 8-8v-64c0-4.417969-3.582031-8-8-8zm0 0"/><path d="m280 383.996094c-4.417969 0-8 3.582031-8 8v48c0 4.417968 3.582031 8 8 8s8-3.582032 8-8v-48c0-4.417969-3.582031-8-8-8zm0 0"/><path d="m280 295.996094c-4.417969 0-8 3.582031-8 8v16c0 4.417968 3.582031 8 8 8s8-3.582032 8-8v-16c0-4.417969-3.582031-8-8-8zm0 0"/><path d="m360 375.996094h-16c-4.417969 0-8 3.582031-8 8 0 4.417968 3.582031 8 8 8h16c4.417969 0 8-3.582032 8-8 0-4.417969-3.582031-8-8-8zm0 0"/><path d="m360 407.996094h-16c-4.417969 0-8 3.582031-8 8 0 4.417968 3.582031 8 8 8h16c4.417969 0 8-3.582032 8-8 0-4.417969-3.582031-8-8-8zm0 0"/><path d="m456 247.996094h-40c-2.730469.027344-5.4375.523437-8 1.472656v-41.472656c-.019531-5.289063-1.804688-10.425782-5.070312-14.585938 1.777343-.035156 3.542968-.269531 5.269531-.695312 6.160156-1.632813 11.410156-5.667969 14.578125-11.199219l12-20.800781 6.925781 4c11.488281 6.628906 26.171875 2.6875 32.800781-8.800782 6.628906-11.484374 2.6875-26.171874-8.800781-32.796874l-207.839844-120c-5.417969-3.0898442-11.835937-3.921876-17.863281-2.320313-6.035156-1.578125-12.449219-.7148438-17.855469 2.398437l-207.847656 120c-8.429687 4.847657-13.101563 14.300782-11.832031 23.941407 1.265625 9.636719 8.226562 17.558593 17.625 20.058593 2.035156.539063 4.136718.808594 6.246094.800782 4.210937.011718 8.351562-1.09375 12-3.199219l6.929687-4 12 20.800781c2.839844 4.847656 7.308594 8.535156 12.613281 10.398438h-45.878906c-13.253906 0-24 10.746094-24 24v240c0 13.253906 10.746094 24 24 24h88c13.253906 0 24-10.746094 24-24v-272c0-4.417969 3.582031-8 8-8h80c4.417969 0 8 3.582031 8 8v272c0 13.253906 10.746094 24 24 24h40c5.921875-.019532 11.625-2.246094 16-6.238282 4.375 3.992188 10.078125 6.21875 16 6.238282h56c5.921875-.019532 11.625-2.246094 16-6.238282 4.375 3.992188 10.078125 6.21875 16 6.238282h40c13.253906 0 24-10.746094 24-24v-184c0-13.253906-10.746094-24-24-24zm-139.34375-100 62.398438 36h-51.054688c-2.730469.027344-5.4375.523437-8 1.472656v-25.472656c-.023438-4.226563-1.179688-8.371094-3.34375-12zm-257.601562 4.800781 52.304687-30.191406c3.828125-2.210938 5.140625-7.105469 2.933594-10.933594-2.210938-3.828125-7.105469-5.140625-10.933594-2.933594l-59.199219 34.195313-13.847656 8c-2.804688 1.617187-6.304688 1.386718-8.871094-.582032-2.566406-1.972656-3.695312-5.292968-2.855468-8.417968.546874-2.050782 1.890624-3.796875 3.726562-4.859375l207.855469-120c2.113281-1.199219 4.664062-1.359375 6.910156-.4375 1.886719.742187 3.988281.742187 5.875 0 2.25-.925781 4.800781-.761719 6.917969.4375l207.847656 120c2.496094 1.421875 4.039062 4.066406 4.046875 6.9375.007813 2.871093-1.527344 5.527343-4.015625 6.957031s-5.554688 1.414062-8.03125-.035156l-13.855469-8-191.863281-110.800782c-2.476562-1.429687-5.523438-1.429687-8 0l-61.503906 35.511719c-2.496094 1.417969-4.039063 4.066407-4.046875 6.9375-.003907 2.871094 1.527343 5.523438 4.015625 6.953125 2.488281 1.429688 5.554687 1.417969 8.03125-.035156l57.503906-33.199219 180.921875 104.445313-12 20.800781c-2.210937 3.828125-7.105469 5.136719-10.929687 2.929687l-149.992188-86.609374v-15.757813c0-4.417969-3.582031-8-8-8s-8 3.582031-8 8v15.757813l-149.984375 86.59375c-1.832031 1.078124-4.027344 1.367187-6.078125.800781-2.054688-.546875-3.800781-1.890625-4.859375-3.730469zm30.9375 37.597656 34.046874-19.664062c-2.628906 3.925781-4.035156 8.542969-4.039062 13.265625v9.472656c-2.5625-.949219-5.269531-1.445312-8-1.472656h-25.6875c1.277344-.457032 2.515625-1.015625 3.703125-1.671875zm22.007812 273.601563h-88c-4.417969 0-8-3.582032-8-8v-240c0-4.417969 3.582031-8 8-8h88c4.417969 0 8 3.582031 8 8v240c0 4.417968-3.582031 8-8 8zm112-304h-80c-.609375 0-1.175781.136718-1.777344.175781l97.777344-56.449219 55.894531 32.273438h-39.894531c-13.253906 0-24 10.746094-24 24v1.472656c-2.5625-.949219-5.269531-1.445312-8-1.472656zm72 304h-40c-4.417969 0-8-3.582032-8-8v-296c0-4.417969 3.582031-8 8-8h40c4.417969 0 8 3.582031 8 8v296c0 4.417968-3.582031 8-8 8zm88 0h-56c-4.417969 0-8-3.582032-8-8v-168h32c4.417969 0 8-3.582032 8-8 0-4.417969-3.582031-8-8-8h-32v-32h32c4.417969 0 8-3.582032 8-8 0-4.417969-3.582031-8-8-8h-32v-16c0-4.417969 3.582031-8 8-8h56c4.417969 0 8 3.582031 8 8v248c0 4.417968-3.582031 8-8 8zm80-8c0 4.417968-3.582031 8-8 8h-40c-4.417969 0-8-3.582032-8-8v-8h32c4.417969 0 8-3.582032 8-8 0-4.417969-3.582031-8-8-8h-32v-16h32c4.417969 0 8-3.582032 8-8 0-4.417969-3.582031-8-8-8h-32v-56h32c4.417969 0 8-3.582032 8-8 0-4.417969-3.582031-8-8-8h-32v-24h32c4.417969 0 8-3.582032 8-8 0-4.417969-3.582031-8-8-8h-32v-16c0-4.417969 3.582031-8 8-8h40c4.417969 0 8 3.582031 8 8zm0 0"/><path d="m96 239.996094c-4.417969 0-8 3.582031-8 8v72h-40v-72c0-4.417969-3.582031-8-8-8s-8 3.582031-8 8v80c0 4.417968 3.582031 8 8 8h56c4.417969 0 8-3.582032 8-8v-80c0-4.417969-3.582031-8-8-8zm0 0"/><path d="m88 423.996094h-40c-4.417969 0-8 3.582031-8 8 0 4.417968 3.582031 8 8 8h40c4.417969 0 8-3.582032 8-8 0-4.417969-3.582031-8-8-8zm0 0"/><path d="m88 391.996094h-40c-4.417969 0-8 3.582031-8 8 0 4.417968 3.582031 8 8 8h40c4.417969 0 8-3.582032 8-8 0-4.417969-3.582031-8-8-8zm0 0"/></svg>