<svg height="480pt" viewBox="0 0 480 480.03233" width="480pt" xmlns="http://www.w3.org/2000/svg"><path d="m440.015625 0h-400c-22.078125.0273438-39.9726562 17.917969-40 40v160c.0273438 22.082031 17.921875 39.972656 40 40h400c22.082031-.027344 39.972656-17.917969 40-40v-160c-.027344-22.082031-17.917969-39.9726562-40-40zm24 200c0 13.253906-10.746094 24-24 24h-400c-13.253906 0-24-10.746094-24-24v-160c0-13.253906 10.746094-24 24-24h400c13.253906 0 24 10.746094 24 24zm0 0"/><path d="m120.015625 64c-4.417969 0-8 3.582031-8 8 0 13.253906-10.746094 24-24 24s-24-10.746094-24-24 10.746094-24 24-24c4.417969 0 8-3.582031 8-8s-3.582031-8-8-8c-22.089844 0-40 17.910156-40 40s17.910156 40 40 40c22.09375 0 40-17.910156 40-40 0-4.417969-3.582031-8-8-8zm0 0"/><path d="m189.351562 32c-22.089843 0-40 17.910156-40 40s17.910157 40 40 40c22.09375 0 40-17.910156 40-40-.027343-22.082031-17.917968-39.972656-40-40zm0 64c-13.253906 0-24-10.746094-24-24s10.746094-24 24-24c13.253907 0 24 10.746094 24 24s-10.746093 24-24 24zm0 0"/><path d="m290.6875 32c-22.089844 0-40 17.910156-40 40s17.910156 40 40 40c22.09375 0 40-17.910156 40-40-.027344-22.082031-17.917969-39.972656-40-40zm0 64c-13.253906 0-24-10.746094-24-24s10.746094-24 24-24 24 10.746094 24 24-10.746094 24-24 24zm0 0"/><path d="m392.015625 32c-22.089844 0-40 17.910156-40 40s17.910156 40 40 40c22.09375 0 40-17.910156 40-40-.027344-22.082031-17.917969-39.972656-40-40zm0 64c-13.253906 0-24-10.746094-24-24s10.746094-24 24-24 24 10.746094 24 24-10.746094 24-24 24zm0 0"/><path d="m88.015625 128c-22.089844 0-40 17.910156-40 40s17.910156 40 40 40c22.09375 0 40-17.910156 40-40-.027344-22.082031-17.917969-39.972656-40-40zm0 64c-13.253906 0-24-10.746094-24-24s10.746094-24 24-24 24 10.746094 24 24-10.746094 24-24 24zm0 0"/><path d="m189.351562 128c-22.089843 0-40 17.910156-40 40s17.910157 40 40 40c4.417969 0 8-3.582031 8-8s-3.582031-8-8-8c-13.253906 0-24-10.746094-24-24s10.746094-24 24-24c13.253907 0 24 10.746094 24 24 0 4.417969 3.582032 8 8 8 4.417969 0 8-3.582031 8-8-.027343-22.082031-17.917968-39.972656-40-40zm0 0"/><path d="m322.6875 160c-4.417969 0-8 3.582031-8 8 0 13.253906-10.746094 24-24 24s-24-10.746094-24-24 10.746094-24 24-24c4.417969 0 8-3.582031 8-8s-3.582031-8-8-8c-22.089844 0-40 17.910156-40 40s17.910156 40 40 40c22.09375 0 40-17.910156 40-40 0-4.417969-3.582031-8-8-8zm0 0"/><path d="m392.015625 128c-22.089844 0-40 17.910156-40 40s17.910156 40 40 40c22.09375 0 40-17.910156 40-40-.027344-22.082031-17.917969-39.972656-40-40zm0 64c-13.253906 0-24-10.746094-24-24s10.746094-24 24-24 24 10.746094 24 24-10.746094 24-24 24zm0 0"/><path d="m105.617188 276.160156-80-16c-2.355469-.480468-4.800782.121094-6.660157 1.640625-1.863281 1.519531-2.941406 3.796875-2.941406 6.199219v116c0 .128906.074219.238281.074219.367188 0 .128906-.074219.234374-.074219.351562l8 88c.398437 4.417969 4.300781 7.679688 8.71875 7.28125 4.421875-.398438 7.679687-4.300781 7.28125-8.71875l-7.199219-79.28125h62.480469l-7.28125 79.28125c-.199219 2.121094.457031 4.238281 1.824219 5.875 1.367187 1.636719 3.332031 2.660156 5.457031 2.84375h.726563c4.152343.015625 7.628906-3.144531 8-7.28125l8-88c0-.117188-.046876-.230469-.039063-.351562.007813-.121094.03125-.238282.03125-.367188v-100c0-3.800781-2.675781-7.078125-6.398437-7.839844zm-73.601563 1.601563 16 3.199219v23.039062c0 4.417969 3.582031 8 8 8s8-3.582031 8-8v-19.839844l32 6.398438v37.441406h-64zm0 98.238281v-32h64v32zm0 0"/><path d="m240.015625 256h-80c-4.417969 0-8 3.582031-8 8v72c.035156.222656.078125.441406.136719.65625-.011719.222656-.011719.441406 0 .664062l15.863281 95.34375v39.335938c0 4.417969 3.582031 8 8 8s8-3.582031 8-8v-32h32v32c0 4.417969 3.582031 8 8 8s8-3.582031 8-8v-39.335938l15.886719-95.34375c.042968-.230468 0-.441406 0-.664062s.113281-.425781.113281-.65625v-72c0-4.417969-3.582031-8-8-8zm-72 16h16v32c0 4.417969 3.582031 8 8 8s8-3.582031 8-8v-32h32v56h-64zm14.777344 152-13.328125-80h61.109375l-13.335938 80zm0 0"/><path d="m319.824219 334.265625-16-72c-.816407-3.660156-4.0625-6.257813-7.808594-6.257813s-6.992187 2.597657-7.808594 6.257813l-16 72c-.015625.265625-.015625.53125 0 .796875-.085937.308594-.148437.621094-.191406.9375v136c0 4.417969 3.582031 8 8 8s8-3.582031 8-8v-88h16v88c0 4.417969 3.582031 8 8 8s8-3.582031 8-8v-136c-.042969-.328125-.109375-.648438-.191406-.96875-.03125-.253906.054687-.511719 0-.765625zm-23.808594-33.386719 6.03125 27.121094h-12.054687zm-8 67.121094v-24h16v24zm0 0"/><path d="m479.945312 374.945312-16-120c-.539062-3.96875-3.925781-6.929687-7.929687-6.929687s-7.390625 2.960937-7.925781 6.929687l-16 120c0 .183594.046875.351563 0 .535157-.050782.183593-.074219.335937-.074219.519531v96c0 4.417969 3.582031 8 8 8s8-3.582031 8-8v-32h16v32c0 4.417969 3.582031 8 8 8s8-3.582031 8-8v-96c0-.183594-.09375-.34375-.101563-.519531-.011718-.175781.054688-.351563.03125-.535157zm-23.929687-58.417968 6.863281 51.472656h-13.726562zm-8 107.472656v-40h16v40zm0 0"/><path d="m408.015625 264h-56c-4.417969 0-8 3.582031-8 8v120c0 .144531.074219.265625.082031.40625.007813.144531-.058594.257812 0 .394531l8 80c.441406 4.394531 4.363282 7.601563 8.757813 7.160157 4.398437-.441407 7.601562-4.363282 7.160156-8.761719l-7.121094-71.199219h38.320313l-7.117188 71.199219c-.226562 2.113281.398438 4.226562 1.734375 5.875 1.335938 1.652343 3.273438 2.703125 5.382813 2.925781.269531.015625.535156.015625.800781 0 4.125.019531 7.589844-3.097656 8-7.199219l8-80c0-.136719-.046875-.265625 0-.394531.046875-.125 0-.261719 0-.40625v-120c0-4.417969-3.582031-8-8-8zm-48 16h40v56h-40zm0 104v-32h40v32zm0 0"/></svg>