<svg height="480pt" viewBox="0 0 480 479" width="480pt" xmlns="http://www.w3.org/2000/svg"><path d="m423.769531 207.34375c-4.921875-97.90625-85.738281-174.761719-183.769531-174.761719s-178.847656 76.855469-183.769531 174.761719c-.105469.378906-.183594.765625-.230469 1.152344.042969.304687.101562.601562.183594.898437-.09375 2.359375-.183594 4.703125-.183594 7.101563v200c0 4.417968 3.582031 8 8 8h352c4.417969 0 8-3.582032 8-8v-200c0-2.398438-.089844-4.742188-.175781-7.101563.074219-.296875.132812-.597656.175781-.898437-.042969-.390625-.121094-.773438-.230469-1.152344zm-351.769531 9.152344h16.40625c-.140625 2.664062-.40625 5.296875-.40625 8h-16zm32.40625 16c-.160156-2.65625-.40625-5.296875-.40625-8 0-75.109375 60.890625-136 136-136s136 60.890625 136 136c0 2.695312-.246094 5.335937-.40625 8-4.0625 71.921875-63.566406 128.160156-135.601562 128.160156-72.035157 0-131.539063-56.238281-135.601563-128.160156zm287.203125-16h16.390625v8h-16c0-2.703125-.265625-5.335938-.40625-8zm-151.609375-168c86.535156.113281 158.867188 65.867187 167.199219 152h-17.277344c-11.703125-73.726563-75.269531-128-149.917969-128-74.648437 0-138.214844 54.273437-149.914062 128h-17.289063c8.335938-86.132813 80.664063-151.882813 167.199219-152zm-168 360v-168h16.863281c8.253907 77.257812 73.445313 135.855468 151.140625 135.855468 77.699219 0 142.886719-58.597656 151.140625-135.855468h16.855469v168zm0 0"/><path d="m460 200.496094h-4.648438c-8.632812-115.230469-106.367187-203.289063-221.871093-199.902344-108.777344 3.222656-198.425781 91.101562-208.503907 199.902344h-4.976562c-11.046875 0-20 8.953125-20 20s8.953125 20 20 20h4v176.046875c.027344 22.054687 17.898438 39.925781 39.953125 39.953125h17.183594c3.589843 14.113281 16.300781 23.992187 30.863281 23.992187s27.273438-9.878906 30.863281-23.992187h194.273438c3.589843 14.113281 16.300781 23.992187 30.863281 23.992187s27.273438-9.878906 30.863281-23.992187h17.183594c22.054687-.027344 39.925781-17.898438 39.953125-39.953125v-176.046875h4c11.046875 0 20-8.953125 20-20s-8.953125-20-20-20zm-440 24c-2.210938 0-4-1.789063-4-4 0-2.207032 1.789062-4 4-4h4.113281c0 1.480468-.113281 2.945312-.113281 4.425781v3.574219zm92 240c-5.691406-.015625-10.941406-3.066406-13.777344-8h27.554688c-2.835938 4.933594-8.085938 7.984375-13.777344 8zm256 0c-5.691406-.015625-10.941406-3.066406-13.777344-8h27.554688c-2.835938 4.933594-8.085938 7.984375-13.777344 8zm72-47.953125c-.027344 13.21875-10.734375 23.925781-23.953125 23.953125h-352.09375c-13.21875-.027344-23.925781-10.734375-23.953125-23.953125v-195.621094c0-109.503906 87.007812-201.167969 193.945312-204.335937 2.042969-.058594 4.078126-.089844 6.109376-.089844 110.386718.15625 199.820312 89.617187 199.945312 200zm20-192.046875h-4v-8h4c2.210938 0 4 1.792968 4 4 0 2.210937-1.789062 4-4 4zm0 0"/><path d="m147.503906 287.953125c3.808594-2.242187 5.082032-7.144531 2.839844-10.953125-7.976562-13.582031-12.761719-28.800781-14-44.503906h15.65625c4.417969 0 8-3.582032 8-8 0-4.417969-3.582031-8-8-8h-15.59375c3.988281-51.050782 44.542969-91.605469 95.59375-95.589844v15.589844c0 4.417968 3.582031 8 8 8s8-3.582032 8-8v-15.589844c51.050781 3.984375 91.605469 44.539062 95.59375 95.589844h-15.59375c-4.417969 0-8 3.582031-8 8 0 4.417968 3.582031 8 8 8h15.59375c-3.988281 51.054687-44.542969 91.609375-95.59375 95.59375v-15.59375c0-4.417969-3.582031-8-8-8s-8 3.582031-8 8v15.496094c-14.792969-1.085938-29.183594-5.324219-42.199219-12.429688-3.867187-2.136719-8.738281-.734375-10.871093 3.132812-2.136719 3.871094-.734376 8.738282 3.132812 10.875 52.816406 29.320313 119.175781 15.046876 155.261719-33.394531 36.089843-48.441406 30.773437-116.109375-12.433594-158.324219-43.210937-42.214843-110.984375-45.949218-158.570313-8.742187-47.589843 37.207031-60.3125 103.878906-29.769531 155.996094 2.238281 3.8125 7.144531 5.085937 10.953125 2.847656zm0 0"/><path d="m240 232.496094c2.121094 0 4.15625-.84375 5.65625-2.34375l39.601562-39.597656c2.078126-2.011719 2.910157-4.984376 2.179688-7.78125-.730469-2.796876-2.917969-4.980469-5.714844-5.714844-2.796875-.730469-5.769531.101562-7.777344 2.183594l-33.945312 33.941406-28.28125-28.285156c-2.007812-2.082032-4.980469-2.914063-7.777344-2.183594-2.796875.734375-4.984375 2.917968-5.714844 5.714844-.730468 2.796874.101563 5.769531 2.179688 7.777343l33.9375 33.945313c1.5 1.5 3.535156 2.34375 5.65625 2.34375zm0 0"/></svg>