<svg height="480pt" viewBox="0 -72 480 480" width="480pt" xmlns="http://www.w3.org/2000/svg"><path d="m472 0h-88c-4.417969 0-8 3.582031-8 8s3.582031 8 8 8h40.71875c3.4375 20.101562 19.179688 35.84375 39.28125 39.28125v32.71875h-88c-4.417969 0-8 3.582031-8 8v48c0 4.417969 3.582031 8 8 8s8-3.582031 8-8v-40h80v24h-40c-4.417969 0-8 3.582031-8 8v64c0 4.417969 3.582031 8 8 8h40v24h-80v-32c0-4.417969-3.582031-8-8-8s-8 3.582031-8 8v40c0 4.417969 3.582031 8 8 8h88v32.71875c-20.101562 3.4375-35.84375 19.179688-39.28125 39.28125h-176.71875v-40.40625c41.152344-2.847656 77.386719-28.140625 94.246094-65.789062 16.859375-37.648438 11.597656-81.523438-13.6875-114.117188l-.070313-.085938c-19.453125-25.207031-48.730469-40.921874-80.488281-43.195312v-40.40625h80c4.417969 0 8-3.582031 8-8s-3.582031-8-8-8h-320c-4.417969 0-8 3.582031-8 8v320c0 4.417969 3.582031 8 8 8h88c4.417969 0 8-3.582031 8-8s-3.582031-8-8-8h-40.71875c-3.433594-20.101562-19.179688-35.847656-39.28125-39.28125v-32.71875h88c4.417969 0 8-3.582031 8-8v-144c0-4.417969-3.582031-8-8-8h-88v-32.71875c20.101562-3.433594 35.847656-19.179688 39.28125-39.28125h176.71875v40.40625c-31.757812 2.277344-61.039062 17.992188-80.488281 43.203125l-.0625.085937c-25.285157 32.59375-30.550781 76.464844-13.691407 114.113282 16.855469 37.648437 53.089844 62.941406 94.242188 65.785156v40.40625h-80c-4.417969 0-8 3.582031-8 8s3.582031 8 8 8h320c4.417969 0 8-3.582031 8-8v-320c0-4.417969-3.582031-8-8-8zm-456 144h32v48h-32zm22.984375 176h-22.984375v-22.992188c11.261719 2.933594 20.054688 11.730469 22.984375 22.992188zm57.015625-216v128h-80v-24h40c4.417969 0 8-3.582031 8-8v-64c0-4.417969-3.582031-8-8-8h-40v-24zm-80-65.007812v-22.992188h22.984375c-2.929687 11.261719-11.722656 20.058594-22.984375 22.992188zm206.601562 223.351562c-.03125-.332031-.082031-.664062-.152343-.992188l-12.480469-38.398437 11.878906-16.351563h36.304688l11.878906 16.351563-12.480469 38.398437c-.070312.328126-.121093.660157-.152343.992188-11.492188 2.207031-23.304688 2.207031-34.796876 0zm-67-48.632812c-5.5625-10.289063-9.179687-21.515626-10.671874-33.117188.277343-.160156.589843-.25.863281-.441406l32.671875-23.738282 19.199218 6.25 11.199219 34.527344-11.871093 16.351563h-40.351563c-.351563.03125-.699219.089843-1.039063.167969zm2.949219-96.285157 9.097657 27.070313-23.3125 16.9375c1.050781-15.617188 5.933593-30.730469 14.214843-44.007813zm81.449219-45.425781c7.871094.03125 15.703125 1.03125 23.328125 2.984375l-23.328125 16.945313-23.320312-16.945313c7.621093-1.953125 15.453124-2.953125 23.320312-2.984375zm0 68.070312 26.558594 19.296876-10.144532 31.199218h-32.796874l-10.144532-31.199218zm95.671875 21.363282-23.320313-16.9375 8.894532-27.398438c8.40625 13.355469 13.363281 28.589844 14.425781 44.335938zm-34.128906-5.019532 32.671875 23.738282c.28125.164062.570312.3125.863281.441406-1.492187 11.601562-5.113281 22.828125-10.679687 33.117188-.339844-.078126-.6875-.136719-1.039063-.167969h-40.382813l-11.878906-16.351563 11.199219-34.527344zm-25.75 100.59375 8.917969-27.464843h28.890624c-10.160156 12.117187-23.144531 21.550781-37.808593 27.464843zm33.703125-155.046874c-.15625.257812-.296875.523437-.425782.800781l-12.476562 38.398437-19.203125 6.246094-29.390625-21.300781v-20.210938l32.671875-23.734375c.238281-.210937.460937-.433594.671875-.671875 10.550781 5.054688 20.09375 11.992188 28.152344 20.472657zm-110.832032-20.472657c.207032.238281.429688.460938.664063.671875l32.671875 23.734375v20.210938l-29.375 21.34375-19.199219-6.25-12.480469-38.398438c-.125-.277343-.265624-.542969-.425781-.800781 8.058594-8.492188 17.59375-15.441406 28.144531-20.511719zm-32 148.34375 28.609376-.289062 8.917968 27.464843c-14.527344-5.871093-27.40625-15.199218-37.511718-27.175781zm274.351563-213.832031h22.984375v22.992188c-11.261719-2.933594-20.054688-11.730469-22.984375-22.992188zm-9.015625 176v-48h32v48zm32 128h-22.984375c2.929687-11.261719 11.722656-20.058594 22.984375-22.992188zm0 0"/></svg>