<svg height="480pt" viewBox="0 0 480.02653 480" width="480pt" xmlns="http://www.w3.org/2000/svg"><path d="m88 320.015625h-40c-4.417969 0-8 3.582031-8 8v40c0 4.417969 3.582031 8 8 8h40c4.417969 0 8-3.582031 8-8v-40c0-4.417969-3.582031-8-8-8zm-8 40h-24v-24h24zm0 0"/><path d="m88 392.015625c-4.417969 0-8 3.582031-8 8v32h-24v-32c0-4.417969-3.582031-8-8-8s-8 3.582031-8 8v40c0 4.417969 3.582031 8 8 8h40c4.417969 0 8-3.582031 8-8v-40c0-4.417969-3.582031-8-8-8zm0 0"/><path d="m156 248.015625h-40c-4.417969 0-8 3.582031-8 8v40c0 4.417969 3.582031 8 8 8h40c4.417969 0 8-3.582031 8-8v-40c0-4.417969-3.582031-8-8-8zm-8 40h-24v-24h24zm0 0"/><path d="m156 320.015625c-4.417969 0-8 3.582031-8 8v32h-24v-32c0-4.417969-3.582031-8-8-8s-8 3.582031-8 8v40c0 4.417969 3.582031 8 8 8h40c4.417969 0 8-3.582031 8-8v-40c0-4.417969-3.582031-8-8-8zm0 0"/><path d="m156 392.015625h-40c-4.417969 0-8 3.582031-8 8v40c0 4.417969 3.582031 8 8 8h40c4.417969 0 8-3.582031 8-8v-40c0-4.417969-3.582031-8-8-8zm-8 40h-24v-24h24zm0 0"/><path d="m232 264.015625c4.417969 0 8-3.582031 8-8s-3.582031-8-8-8h-40c-4.417969 0-8 3.582031-8 8v40c0 4.417969 3.582031 8 8 8h40c4.417969 0 8-3.582031 8-8s-3.582031-8-8-8h-32v-24zm0 0"/><path d="m232 320.015625h-40c-4.417969 0-8 3.582031-8 8v40c0 4.417969 3.582031 8 8 8h40c4.417969 0 8-3.582031 8-8v-40c0-4.417969-3.582031-8-8-8zm-8 40h-24v-24h24zm0 0"/><path d="m300 376.015625c4.417969 0 8-3.582031 8-8s-3.582031-8-8-8h-32v-16c0-4.417969-3.582031-8-8-8s-8 3.582031-8 8v24c0 4.417969 3.582031 8 8 8zm0 0"/><path d="m368 320.015625c-4.417969 0-8 3.582031-8 8v32h-24v-32c0-4.417969-3.582031-8-8-8s-8 3.582031-8 8v40c0 4.417969 3.582031 8 8 8h40c4.417969 0 8-3.582031 8-8v-40c0-4.417969-3.582031-8-8-8zm0 0"/><path d="m232 392.015625h-40c-4.417969 0-8 3.582031-8 8v40c0 4.417969 3.582031 8 8 8h40c4.417969 0 8-3.582031 8-8v-40c0-4.417969-3.582031-8-8-8zm-8 40h-24v-24h24zm0 0"/><path d="m304 408.015625c4.417969 0 8-3.582031 8-8s-3.582031-8-8-8h-40c-4.417969 0-8 3.582031-8 8v40c0 4.417969 3.582031 8 8 8h40c4.417969 0 8-3.582031 8-8s-3.582031-8-8-8h-32v-24zm0 0"/><path d="m476 74.082031c-3.828125-2.210937-8.722656-.894531-10.929688 2.933594l-100 173.199219-13.855468-8 127.714844-221.199219c1.449218-2.476563 1.464843-5.539063.035156-8.03125-1.429688-2.488281-4.085938-4.019531-6.957032-4.015625-2.871093.007812-5.515624 1.550781-6.9375 4.046875l-127.710937 221.199219-6.925781-4-6.929688-4 123.695313-214.199219c2.210937-3.828125.898437-8.722656-2.929688-10.929687-3.828125-2.210938-8.722656-.898438-10.933593 2.929687l-123.6875 214.199219-13.855469-8 114.429687-198.199219c2.175782-3.820313.855469-8.683594-2.953125-10.882813-3.808593-2.199218-8.675781-.910156-10.902343 2.882813l-80.832032 140h-75.535156v-8c0-17.671875-14.328125-32-32-32s-32 14.328125-32 32v8h-48v-8c0-17.671875-14.328125-32-32-32s-32 14.328125-32 32v8h-24c-22.082031.027344-39.9726562 17.921875-40 40v256c.0273438 22.082031 17.917969 39.972656 40 40h336c22.082031-.027344 39.972656-17.917969 40-40v-246.007813l62.929688-108.992187c1.0625-1.835937 1.351562-4.023437.800781-6.074219-.546875-2.050781-1.890625-3.800781-3.730469-4.859375zm-187.886719 218.398438.742188-12.328125 18.855469 10.886718-19.878907 12.976563c-.261719-.121094-.410156-.402344-.367187-.6875zm34.605469-11.246094-32.796875-18.9375 2.140625-35.703125 60.664062 35.015625zm-130.71875-145.21875c0-8.835937 7.164062-16 16-16s16 7.164063 16 16v32c0 8.835937-7.164062 16-16 16s-16-7.164063-16-16zm-112 0c0-8.835937 7.164062-16 16-16s16 7.164063 16 16v32c0 8.835937-7.164062 16-16 16s-16-7.164063-16-16zm320 304c0 13.253906-10.746094 24-24 24h-336c-13.253906 0-24-10.746094-24-24v-208h232c4.417969 0 8-3.582031 8-8s-3.582031-8-8-8h-232v-32c0-13.253906 10.746094-24 24-24h24v8c0 17.675781 14.328125 32 32 32s32-14.324219 32-32v-8h48v8c0 17.675781 14.328125 32 32 32s32-14.324219 32-32v-8h66.296875l-28.367187 49.128906c-.058594.113281-.058594.238281-.113282.351563-.359375.695312-.613281 1.4375-.753906 2.207031-.039062.21875-.09375.410156-.117188.625-.023437.214844-.058593.222656-.066406.335937l-3.199218 53.601563-2.167969 36.117187c-.390625 6.335938 2.835937 12.34375 8.328125 15.515626 5.496094 3.171874 12.3125 2.960937 17.601562-.546876l30.199219-19.933593 44.800781-29.5625c.214844-.144531.382813-.34375.582032-.503907.28125-.203124.550781-.429687.800781-.671874.265625-.292969.503906-.605469.71875-.933594.160156-.179688.308593-.371094.441406-.570313l25.015625-43.457031zm0 0"/></svg>