<svg height="480pt" viewBox="0 0 480 480.0401" width="480pt" xmlns="http://www.w3.org/2000/svg"><path d="m344.019531 376c-4.417969 0-8 3.582031-8 8v16c0 4.417969-3.582031 8-8 8h-48c-4.417969 0-8-3.582031-8-8v-16c0-4.417969-3.582031-8-8-8s-8 3.582031-8 8v16c0 13.253906 10.746094 24 24 24h48c13.253907 0 24-10.746094 24-24v-16c0-4.417969-3.582031-8-8-8zm0 0"/><path d="m352.019531 240v-16c0-13.253906-10.746093-24-24-24h-16c-4.417969 0-8 3.582031-8 8s3.582031 8 8 8h16c4.417969 0 8 3.582031 8 8v16c0 4.417969-3.582031 8-8 8h-48c-4.417969 0-8-3.582031-8-8v-16c0-4.417969 3.582031-8 8-8s8-3.582031 8-8-3.582031-8-8-8c-13.253906 0-24 10.746094-24 24v16c0 13.253906 10.746094 24 24 24h48c13.253907 0 24-10.746094 24-24zm0 0"/><path d="m440.019531 296h-8v-8c-.105469-23.949219-12.097656-46.285156-32-59.609375v-36.390625c-.023437-19-13.386719-35.371094-32-39.199219v-88.863281c-.035156-13.207031-10.730469-23.902344-23.933593-23.9375h-80.128907c-13.207031.035156-23.902343 10.730469-23.9375 23.9375v88.863281c-18.609375 3.828125-31.976562 20.199219-32 39.199219v36.390625c-19.902343 13.324219-31.894531 35.660156-32 59.609375v8h-8c-22.078125.027344-39.972656 17.917969-40 40v64c0 13.253906 10.746094 24 24 24h24c0 13.253906 10.746094 24 24 24h.800781c3.785157 18.644531 20.175782 32.039062 39.199219 32.039062 19.023438 0 35.414063-13.394531 39.199219-32.039062h49.601562c3.785157 18.644531 20.175782 32.039062 39.199219 32.039062 19.023438 0 35.414063-13.394531 39.199219-32.039062h.800781c13.253907 0 24-10.746094 24-24h24c13.253907 0 24-10.746094 24-24v-64c-.027343-22.082031-17.917969-39.972656-40-40zm0 16c13.253907 0 24 10.746094 24 24h-32v-24zm-184-160v-64h96v64zm7.9375-96h80.128907c4.378906.003906 7.929687 3.554688 7.933593 7.9375v8.0625h-96v-8.0625c.003907-4.382812 3.554688-7.933594 7.9375-7.9375zm-39.9375 136c0-13.253906 10.746094-24 24-24h112c13.253907 0 24 10.746094 24 24v59.929688l-65.925781 47.949218c-8.382812 6.121094-19.757812 6.121094-28.136719 0l-65.9375-47.949218zm-56 120h8v24h-32c0-13.253906 10.746094-24 24-24zm72 152c-10.132812-.042969-19.148437-6.445312-22.527343-16h45.054687c-3.375 9.554688-12.390625 15.957031-22.527344 16zm128 0c-10.132812-.042969-19.148437-6.445312-22.527343-16h45.054687c-3.375 9.554688-12.390625 15.957031-22.527344 16zm48-40c0 4.417969-3.582031 8-8 8h-208c-4.417969 0-8-3.582031-8-8v-8c0-4.417969-3.582031-8-8-8h-32c-4.417969 0-8-3.582031-8-8v-48h32v24c0 4.417969 3.582031 8 8 8s8-3.582031 8-8v-88c.046875-14.601562 5.785157-28.613281 16-39.046875v7.046875c0 2.558594 1.226563 4.964844 3.296875 6.472656l28.703125 20.871094v36.65625h-8c-4.417969 0-8 3.582031-8 8s3.582031 8 8 8h8v8c0 4.417969 3.582031 8 8 8s8-3.582031 8-8v-8h8c4.417969 0 8-3.582031 8-8s-3.582031-8-8-8h-8v-25.015625l24.527344 17.816406c13.984375 10.21875 32.972656 10.21875 46.953125 0l24.519531-17.816406v25.015625h-8c-4.417969 0-8 3.582031-8 8s3.582031 8 8 8h8v8c0 4.417969 3.582031 8 8 8s8-3.582031 8-8v-8h8c4.417969 0 8-3.582031 8-8s-3.582031-8-8-8h-8v-36.65625l28.710938-20.871094c2.070312-1.507812 3.292969-3.914062 3.289062-6.472656v-7.046875c10.214844 10.433594 15.957031 24.445313 16 39.046875zm40-16h-24v-56h32v48c0 4.417969-3.582031 8-8 8zm0 0"/><path d="m104.019531 424h-16v-195.390625c14.558594-6.355469 23.980469-20.722656 24-36.609375v-64h38.242188c4.511719 5.070312 10.96875 7.980469 17.757812 8h32c13.253907 0 24-10.746094 24-24v-40c0-13.253906-10.746093-24-24-24h-8v-16c0-13.253906-10.746093-24-24-24-13.253906 0-24 10.746094-24 24v24h-32v-48c0-4.417969-3.582031-8-8-8s-8 3.582031-8 8v48h-16v-48c0-4.417969-3.582031-8-8-8s-8 3.582031-8 8v24h-48v-24c0-4.417969-3.582031-8-8-8s-7.9999998 3.582031-7.9999998 8v48c.0507813 39.746094 32.2578128 71.953125 71.9999998 72h24v64c0 13.253906-10.746093 24-24 24h-64c-4.417969 0-7.9999998 3.582031-7.9999998 8s3.5820308 8 7.9999998 8h64v192h-64c-4.417969 0-7.9999998 3.582031-7.9999998 8s3.5820308 8 7.9999998 8h96c13.253907 0 24 10.746094 24 24h-120c-4.417969 0-7.9999998 3.582031-7.9999998 8s3.5820308 8 7.9999998 8h128c4.417969 0 8-3.582031 8-8v-8c-.027343-22.082031-17.917969-39.972656-40-40zm104-352v40c0 4.417969-3.582031 8-8 8h-32c-4.417969 0-8-3.582031-8-8v-48h40c4.417969 0 8 3.582031 8 8zm-40-48c4.417969 0 8 3.582031 8 8v16h-16v-16c0-4.417969 3.582031-8 8-8zm-152 32v-8h48v16c0 4.417969 3.582031 8 8 8h72v40h-72c-30.914062-.035156-55.964843-25.085938-56-56zm0 0"/></svg>