<svg height="480pt" viewBox="-16 0 480 480" width="480pt" xmlns="http://www.w3.org/2000/svg"><path d="m399.449219 416.550781c-3.152344-23.570312-20.859375-42.574219-44.148438-47.378906-23.289062-4.808594-47.074219 5.632813-59.300781 26.027344-10.125-16.847657-28.34375-27.15625-48-27.15625s-37.875 10.308593-48 27.15625c-10.125-16.847657-28.34375-27.15625-48-27.15625s-37.875 10.308593-48 27.15625c-12.957031-21.5625-38.703125-31.835938-62.945312-25.125-24.242188 6.714843-41.0351568 28.769531-41.054688 53.925781 0 4.417969 3.582031 8 8 8s8-3.582031 8-8c.175781-20.546875 15.890625-37.621094 36.355469-39.492188 20.464843-1.871093 39.019531 12.066407 42.917969 32.246094-27.199219 4.289063-47.238282 27.714844-47.273438 55.246094 0 4.417969 3.582031 8 8 8s8-3.582031 8-8c0-22.089844 17.910156-40 40-40s40 17.910156 40 40c0 4.417969 3.582031 8 8 8s8-3.582031 8-8c-.03125-27.53125-20.070312-50.953125-47.265625-55.246094 3.730469-20.335937 22.355469-34.46875 42.945313-32.585937 20.585937 1.882812 36.339843 19.160156 36.320312 39.832031 0 4.417969 3.582031 8 8 8s8-3.582031 8-8c.175781-20.546875 15.890625-37.621094 36.355469-39.492188 20.464843-1.871093 39.019531 12.066407 42.917969 32.246094-27.199219 4.289063-47.238282 27.714844-47.273438 55.246094 0 4.417969 3.582031 8 8 8s8-3.582031 8-8c0-22.089844 17.910156-40 40-40s40 17.910156 40 40c0 4.417969 3.582031 8 8 8s8-3.582031 8-8c0-22.089844 17.910156-40 40-40s40 17.910156 40 40c0 4.417969 3.582031 8 8 8s8-3.582031 8-8c-.046875-28.019531-20.78125-51.699219-48.550781-55.449219zm-55.449219 26.648438c-8.554688-14.160157-22.921875-23.820313-39.265625-26.398438 3.472656-18.960937 19.992187-32.734375 39.269531-32.734375s35.796875 13.773438 39.269532 32.734375c-16.34375 2.578125-30.714844 12.238281-39.273438 26.398438zm0 0"/><path d="m64 280h24v8c0 4.417969 3.582031 8 8 8h2.761719l-11.5625 20c-6.625 11.488281-2.6875 26.171875 8.800781 32.800781 11.488281 6.625 26.171875 2.6875 32.800781-8.800781l25.382813-44h45.816406v40c0 13.253906 10.746094 24 24 24s24-10.746094 24-24v-40h49.808594l25.390625 44c6.628906 11.488281 21.3125 15.425781 32.800781 8.800781 11.488281-6.628906 15.425781-21.3125 8.800781-32.800781l-11.671875-20.222656c3.910156-.515625 6.839844-3.832032 6.871094-7.777344v-8h24c13.253906 0 24-10.746094 24-24v-184c0-13.253906-10.746094-24-24-24h-88v-8c0-4.417969-3.582031-8-8-8h-40v-8c0-13.253906-10.746094-24-24-24s-24 10.746094-24 24v8h-40c-4.417969 0-8 3.582031-8 8v8h-88c-13.253906 0-24 10.746094-24 24v184c0 13.253906 10.746094 24 24 24zm50.921875 52c-2.277344 3.675781-7.0625 4.882812-10.808594 2.71875-3.742187-2.164062-5.089843-6.910156-3.042969-10.71875l16.160157-28h18.480469zm117.078125 4c0 4.417969-3.582031 8-8 8s-8-3.582031-8-8v-40h16zm119.71875-5.9375c-.835938 3.125-3.472656 5.433594-6.675781 5.859375-3.207031.421875-6.351563-1.125-7.972657-3.921875l-20.796874-36h18.46875l16.167968 28c1.074219 1.832031 1.363282 4.015625.808594 6.0625zm-135.71875-306.0625c0-4.417969 3.582031-8 8-8s8 3.582031 8 8v8h-16zm-48 24h112v16h-112zm-112 24c0-4.417969 3.582031-8 8-8h88v8c0 4.417969 3.582031 8 8 8h128c4.417969 0 8-3.582031 8-8v-8h88c4.417969 0 8 3.582031 8 8v184c0 4.417969-3.582031 8-8 8h-24v-8c0-4.417969-3.582031-8-8-8h-88c-4.417969 0-8 3.582031-8 8s3.582031 8 8 8h80v16h-240v-16h80c4.417969 0 8-3.582031 8-8s-3.582031-8-8-8h-88c-4.417969 0-8 3.582031-8 8v8h-24c-4.417969 0-8-3.582031-8-8zm0 0"/><path d="m112 136h48c4.417969 0 8-3.582031 8-8s-3.582031-8-8-8h-48c-4.417969 0-8 3.582031-8 8s3.582031 8 8 8zm0 0"/><path d="m96 176h64c4.417969 0 8-3.582031 8-8s-3.582031-8-8-8h-64c-4.417969 0-8 3.582031-8 8s3.582031 8 8 8zm0 0"/><path d="m96 208h16c4.417969 0 8-3.582031 8-8s-3.582031-8-8-8h-16c-4.417969 0-8 3.582031-8 8s3.582031 8 8 8zm0 0"/><path d="m272 168h48c4.417969 0 8-3.582031 8-8s-3.582031-8-8-8h-40v-32h40c4.417969 0 8-3.582031 8-8s-3.582031-8-8-8h-48c-4.417969 0-8 3.582031-8 8v48c0 4.417969 3.582031 8 8 8zm0 0"/><path d="m264 200h24c4.417969 0 8-3.582031 8-8s-3.582031-8-8-8h-24c-4.417969 0-8 3.582031-8 8s3.582031 8 8 8zm0 0"/><path d="m312 192c0 4.417969 3.582031 8 8 8h16c4.417969 0 8-3.582031 8-8s-3.582031-8-8-8h-16c-4.417969 0-8 3.582031-8 8zm0 0"/><path d="m352 160c4.417969 0 8-3.582031 8-8v-32c0-4.417969-3.582031-8-8-8s-8 3.582031-8 8v32c0 4.417969 3.582031 8 8 8zm0 0"/></svg>