<svg height="480pt" viewBox="0 0 480 480.00432" width="480pt" xmlns="http://www.w3.org/2000/svg"><path d="m472.003906 336.003906h-24v-24c0-4.417968-3.582031-8-8-8-4.421875 0-8 3.582032-8 8v24h-24v-32c0-4.417968-3.582031-8-8-8-4.421875 0-8 3.582032-8 8v32h-24v-112h48v16c0 4.417969 3.578125 8 8 8 4.417969 0 8-3.582031 8-8v-16h40c4.417969 0 8-3.582031 8-8 0-4.417968-3.582031-8-8-8h-104v-72c.003906-.0625.003906-.128906 0-.191406-.03125-.871094-.203125-1.730469-.515625-2.542969-.066406-.214843-.148437-.421875-.238281-.625-.0625-.152343-.097656-.3125-.175781-.464843l-41.175781-75.703126c-2.679688-5.207031-8.042969-8.480468-13.898438-8.480468-5.859375 0-11.222656 3.273437-13.902344 8.480468l-10.535156 19.390626-6.207031-14.878907v-.070312l-20-47.792969c-4.078125-8.050781-12.335938-13.125-21.359375-13.125-9.027344 0-17.285156 5.074219-21.363282 13.125-.078124.167969-.160156.34375-.230468.519531l-19.726563 47.28125-6.234375 14.933594-10.542968-19.382813c-2.679688-5.207031-8.042969-8.480468-13.898438-8.480468-5.859375 0-11.222656 3.273437-13.902344 8.480468l-41.128906 75.695313c-.078125.152344-.101562.320313-.175781.472656-.070313.152344-.160157.40625-.238281.617188-.308594.8125-.480469 1.671875-.511719 2.542969v.191406 72h-104.039063c-4.421875 0-7.99999975 3.582031-7.99999975 8 0 4.417968 3.57812475 8 7.99999975 8h40v16c0 4.417968 3.578125 8 8 8 4.417969 0 8-3.582032 8-8v-15.992188h48v112h-24v-32c0-4.417968-3.582031-8-8-8-4.421875 0-8 3.582032-8 8v32h-24v-24c0-4.417968-3.582031-8-8-8-4.421875 0-8 3.582032-8 8v24h-24c-4.421875 0-7.99999975 3.582032-7.99999975 8 0 4.417969 3.57812475 8 7.99999975 8h104v32c.039063 30.910156 25.085938 55.960938 56 56 .222656 0 .484375-.0625.710938-.0625 3.871094 23.105469 23.859375 40.039063 47.289062 40.0625h48c23.425782-.023437 43.414063-16.957031 47.285156-40.0625.226563 0 .488282.0625.714844.0625 30.910156-.035156 55.964844-25.085937 56-56v-32h104c4.417969 0 8-3.582031 8-8 0-4.417968-3.582031-8-8-8zm-256-176c-4.421875 0-8 3.582032-8 8v200h-24v-224h72v192c0 4.417969 3.578125 8 8 8 4.417969 0 8-3.582031 8-8v-192h24v224h-72v-200c0-4.417968-3.582031-8-8-8zm-88 184v-200h40v216h-40zm72.308594-245.472656.449219-1.054688 10.625-25.472656h57.230469l10.625 25.449219.625 1.464844 12.136718 29.085937h-104zm111.691406 45.472656h40v216h-40zm-2.671875-16-10.027343-24h34.210937l13.039063 24zm15.46875-40h-25.710937l12.761718-23.878906zm-77.964843-68.191406 15.101562 36.191406h-43.871094l14.929688-35.75c.210937-.375.457031-.730468.726562-1.066406.160156-.25.339844-.496094.527344-.726562.316406-.292969.652344-.558594 1.007812-.800782.214844-.160156.398438-.359375.625-.496094.425782-.234374.875-.429687 1.335938-.582031.207031-.074219.390625-.195312.605469-.257812.710937-.199219 1.441406-.308594 2.179687-.320313 2.800782-.078125 5.421875 1.382813 6.832032 3.808594zm-66.035157 68.191406h-25.71875l12.800781-23.878906zm-34.46875 16h34.34375l-10.019531 24h-37.253906zm-18.328125 280v-8h40v48c-22.082031-.027344-39.976562-17.917968-40-40zm168 48c0 17.671875-14.328125 32-32 32h-48c-17.675781 0-32-14.328125-32-32v-8h80c4.417969 0 8-3.582031 8-8 0-4.417968-3.582031-8-8-8h-80v-24h112zm56-48c-.027344 22.082032-17.921875 39.972656-40 40v-48h40zm0 0"/></svg>