<svg height="480pt" viewBox="0 0 480 480" width="480pt" xmlns="http://www.w3.org/2000/svg"><path d="m24 232h56c4.417969 0 8-3.582031 8-8v-104c.042969-39.746094 32.253906-71.957031 72-72h160c39.746094.042969 71.957031 32.253906 72 72v104c0 4.417969 3.582031 8 8 8h56c4.417969 0 8-3.582031 8-8s-3.582031-8-8-8h-48v-96c-.054688-48.578125-39.421875-87.945312-88-88h-48c0-17.671875-14.328125-32-32-32s-32 14.328125-32 32h-48c-48.578125.058594-87.941406 39.421875-88 88v96h-48c-4.417969 0-8 3.582031-8 8s3.582031 8 8 8zm216-216c8.835938 0 16 7.164062 16 16h-32c0-8.835938 7.164062-16 16-16zm0 0"/><path d="m456 417.136719v-145.136719h16c4.417969 0 8-3.582031 8-8s-3.582031-8-8-8h-72c-17.671875 0-32-14.328125-32-32v-104c-.027344-26.5-21.5-47.972656-48-48h-160c-26.496094.03125-47.96875 21.503906-48 48v104c0 17.671875-14.328125 32-32 32h-72c-4.417969 0-8 3.582031-8 8s3.582031 8 8 8h16v145.136719c-14.085938 3.636719-23.9453125 16.316406-24 30.863281v24c0 4.417969 3.582031 8 8 8s8-3.582031 8-8v-24c0-8.835938 7.164062-16 16-16h48c8.835938 0 16 7.164062 16 16v24c0 4.417969 3.582031 8 8 8s8-3.582031 8-8v-24c-.054688-14.546875-9.914062-27.226562-24-30.863281v-145.855469c23.066406-3.921875 39.957031-23.882812 40-47.28125v-104c0-17.671875 14.328125-32 32-32h72v17.136719c-13.152344 3.425781-22.6875 14.816406-23.742188 28.367187-38.4375 13.496094-64.1875 49.761719-64.257812 90.496094v96c-13.253906 0-24 10.746094-24 24s10.746094 24 24 24h48.71875c3.882812 23.085938 23.871094 39.992188 47.28125 39.992188s43.398438-16.90625 47.28125-39.992188h48.71875c13.253906 0 24-10.746094 24-24s-10.746094-24-24-24v-96c-.070312-40.734375-25.816406-77-64.246094-90.496094-1.0625-13.550781-10.597656-24.941406-23.753906-28.367187v-17.136719h72c17.671875 0 32 14.328125 32 32v104c.042969 23.398438 16.933594 43.359375 40 47.28125v145.855469c-14.085938 3.636719-23.945312 16.316406-24 30.863281v24c0 4.417969 3.582031 8 8 8s8-3.582031 8-8v-24c0-8.835938 7.164062-16 16-16h48c8.835938 0 16 7.164062 16 16v24c0 4.417969 3.582031 8 8 8s8-3.582031 8-8v-24c-.054688-14.546875-9.914062-27.226562-24-30.863281zm-416-1.136719v-144h32v144zm200-24c-14.585938-.015625-27.324219-9.878906-30.984375-24h61.96875c-3.648437 14.128906-16.390625 24-30.984375 24zm80-168v96h-16c-4.417969 0-8 3.582031-8 8s3.582031 8 8 8h32c4.417969 0 8 3.582031 8 8s-3.582031 8-8 8h-192c-4.417969 0-8-3.582031-8-8s3.582031-8 8-8h96c4.417969 0 8-3.582031 8-8s-3.582031-8-8-8h-80v-96c0-44.183594 35.816406-80 80-80s80 35.816406 80 80zm-65.601562-94.792969c-9.550782-1.609375-19.304688-1.609375-28.855469 0 2.605469-5.617187 8.234375-9.210937 14.429687-9.210937 6.191406 0 11.820313 3.59375 14.425782 9.210937zm153.601562 286.792969v-144h32v144zm0 0"/><path d="m176 240c-.027344 25.105469 14.628906 47.90625 37.476562 58.308594 22.847657 10.40625 49.667969 6.492187 68.585938-10.007813 18.921875-16.5 26.449219-42.539062 19.25-66.589843-1.332031-4.144532-5.734375-6.460938-9.90625-5.214844-4.167969 1.246094-6.578125 5.597656-5.421875 9.792968 5.910156 19.824219-1.546875 41.207032-18.507813 53.058594-16.957031 11.847656-39.601562 11.5-56.183593-.867187-16.585938-12.367188-23.382813-33.96875-16.863281-53.601563 6.515624-19.636718 24.882812-32.886718 45.570312-32.878906 7.117188.003906 14.144531 1.605469 20.558594 4.6875 3.992187 1.898438 8.769531.203125 10.667968-3.789062 1.902344-3.992188.207032-8.765626-3.785156-10.667969-19.816406-9.457031-43.101562-8.078125-61.664062 3.648437-18.5625 11.726563-29.808594 32.164063-29.777344 54.121094zm0 0"/><path d="m232 216v19.398438l-16.800781 9.707031c-2.480469 1.433593-4.007813 4.082031-4 6.949219-.003907 1.40625.367187 2.785156 1.074219 4v.082031c1.003906 2.316406 3.25 3.855469 5.773437 3.960937 4.339844-.789062 8.441406-2.546875 12-5.144531l13.855469-8c.558594-.332031 1.074218-.730469 1.539062-1.183594.039063-.042969.09375-.074219.144532-.113281.621093-.652344 1.128906-1.410156 1.503906-2.230469.097656-.214843.1875-.433593.261718-.65625.375-.878906.597657-1.816406.648438-2.769531v-24c0-4.417969-3.582031-8-8-8s-8 3.582031-8 8zm0 0"/></svg>