<svg height="480pt" viewBox="-8 0 480 480" width="480pt" xmlns="http://www.w3.org/2000/svg"><path d="m48 376c4.417969 0 8-3.582031 8-8s-3.582031-8-8-8h-8v-8c0-4.417969-3.582031-8-8-8s-8 3.582031-8 8v8h-8c-4.417969 0-8 3.582031-8 8s3.582031 8 8 8h8v8c0 4.417969 3.582031 8 8 8s8-3.582031 8-8v-8zm0 0"/><path d="m432 384h-8v-8c0-4.417969-3.582031-8-8-8s-8 3.582031-8 8v8h-8c-4.417969 0-8 3.582031-8 8s3.582031 8 8 8h8v8c0 4.417969 3.582031 8 8 8s8-3.582031 8-8v-8h8c4.417969 0 8-3.582031 8-8s-3.582031-8-8-8zm0 0"/><path d="m208 32h8v8c0 4.417969 3.582031 8 8 8s8-3.582031 8-8v-8h8c4.417969 0 8-3.582031 8-8s-3.582031-8-8-8h-8v-8c0-4.417969-3.582031-8-8-8s-8 3.582031-8 8v8h-8c-4.417969 0-8 3.582031-8 8s3.582031 8 8 8zm0 0"/><path d="m456 296h-8v-8c0-4.417969-3.582031-8-8-8s-8 3.582031-8 8v8h-8c-4.417969 0-8 3.582031-8 8s3.582031 8 8 8h8v8c0 4.417969 3.582031 8 8 8s8-3.582031 8-8v-8h8c4.417969 0 8-3.582031 8-8s-3.582031-8-8-8zm0 0"/><path d="m16 24c0 4.417969-3.582031 8-8 8s-8-3.582031-8-8 3.582031-8 8-8 8 3.582031 8 8zm0 0"/><path d="m464 88c0 4.417969-3.582031 8-8 8s-8-3.582031-8-8 3.582031-8 8-8 8 3.582031 8 8zm0 0"/><path d="m88 344c0 4.417969-3.582031 8-8 8s-8-3.582031-8-8 3.582031-8 8-8 8 3.582031 8 8zm0 0"/><path d="m384 464h-320v-8c-.003906-2.6875.265625-5.367188.800781-8h55.199219c4.417969 0 8-3.582031 8-8s-3.582031-8-8-8h-47.792969c7.492188-10.035156 19.269531-15.964844 31.792969-16h136c4.417969 0 8-3.582031 8-8s-3.582031-8-8-8h-104v-24c0-4.417969 3.582031-8 8-8h160c4.417969 0 8 3.582031 8 8v24h-24c-4.417969 0-8 3.582031-8 8s3.582031 8 8 8h72c4.417969 0 8-3.582031 8-8s-3.582031-8-8-8h-32v-24c0-13.253906-10.746094-24-24-24h-40v-32h72c44.164062-.046875 79.953125-35.835938 80-80v-168c0-13.253906-10.746094-24-24-24h-120c-19.6875.03125-37.910156 10.398438-48 27.304688-10.089844-16.90625-28.3125-27.273438-48-27.304688h-120c-13.253906 0-24 10.746094-24 24v168c.046875 44.164062 35.835938 79.953125 80 80h72v32h-40c-13.253906 0-24 10.746094-24 24v24h-16c-30.914062.035156-55.964844 25.085938-56 56v8c0 8.835938 7.164062 16 16 16h320c4.417969 0 8-3.582031 8-8s-3.582031-8-8-8zm16-392v168c-.039062 35.328125-28.671875 63.960938-64 64h-104v-16h96c30.914062-.035156 55.964844-25.085938 56-56v-160c-.027344-2.730469-.523438-5.4375-1.472656-8h9.472656c4.417969 0 8 3.582031 8 8zm-184 32v64c0 4.417969 3.582031 8 8 8s8-3.582031 8-8v-64c.027344-22.082031 17.917969-39.972656 40-40h88c4.417969 0 8 3.582031 8 8v160c-.027344 22.082031-17.917969 39.972656-40 40h-96v-56c0-4.417969-3.582031-8-8-8s-8 3.582031-8 8v56h-96c-22.082031-.027344-39.972656-17.917969-40-40v-160c0-4.417969 3.582031-8 8-8h88c22.082031.027344 39.972656 17.917969 40 40zm-168 136v-168c0-4.417969 3.582031-8 8-8h9.472656c-.949218 2.5625-1.445312 5.269531-1.472656 8v160c.035156 30.914062 25.085938 55.964844 56 56h96v16h-104c-35.328125-.039062-63.960938-28.671875-64-64zm152 80h48v32h-48zm0 0"/><path d="m120 120h56c4.417969 0 8-3.582031 8-8s-3.582031-8-8-8h-56c-4.417969 0-8 3.582031-8 8s3.582031 8 8 8zm0 0"/><path d="m120 160h56c4.417969 0 8-3.582031 8-8s-3.582031-8-8-8h-56c-4.417969 0-8 3.582031-8 8s3.582031 8 8 8zm0 0"/><path d="m120 200h56c4.417969 0 8-3.582031 8-8s-3.582031-8-8-8h-56c-4.417969 0-8 3.582031-8 8s3.582031 8 8 8zm0 0"/><path d="m176 224h-24c-4.417969 0-8 3.582031-8 8s3.582031 8 8 8h24c4.417969 0 8-3.582031 8-8s-3.582031-8-8-8zm0 0"/><path d="m272 120h56c4.417969 0 8-3.582031 8-8s-3.582031-8-8-8h-56c-4.417969 0-8 3.582031-8 8s3.582031 8 8 8zm0 0"/><path d="m272 160h56c4.417969 0 8-3.582031 8-8s-3.582031-8-8-8h-56c-4.417969 0-8 3.582031-8 8s3.582031 8 8 8zm0 0"/><path d="m272 200h56c4.417969 0 8-3.582031 8-8s-3.582031-8-8-8h-56c-4.417969 0-8 3.582031-8 8s3.582031 8 8 8zm0 0"/><path d="m272 240h24c4.417969 0 8-3.582031 8-8s-3.582031-8-8-8h-24c-4.417969 0-8 3.582031-8 8s3.582031 8 8 8zm0 0"/></svg>