<svg height="480pt" viewBox="0 0 480.01708 480" width="480pt" xmlns="http://www.w3.org/2000/svg"><path d="m427.378906 275.289062c70.183594-70.339843 70.183594-184.21875 0-254.558593-3.125-3.125-8.1875-3.125-11.3125 0l-17.289062 17.285156c-30.882813-27.90625-72.132813-41.441406-113.550782-37.261719-41.414062 4.179688-79.125 25.691406-103.808593 59.207032l-.078125.089843c-38.976563 52.144531-38.976563 123.726563 0 175.871094l.078125.085937c2.734375 3.679688 5.632812 7.226563 8.6875 10.632813l-17.289063 17.367187c-3.121094 3.125-3.121094 8.191407 0 11.3125 27.863282 27.898438 64.183594 45.777344 103.28125 50.839844v9.847656h-32c-4.417968 0-8 3.582032-8 8v24h-48.078125c-13.257812 0-24 10.746094-24 24v16c.023438 2.734376.523438 5.441407 1.46875 8h-71.613281l95.640625-55.199218c5.519531-3.179688 9.546875-8.421875 11.195313-14.574219 1.652343-6.152344.789062-12.710937-2.398438-18.226563l-8-13.863281c-6.640625-11.464843-21.308594-15.402343-32.796875-8.800781l-121.921875 70.402344-23.574219 13.625c-5.519531 3.179687-9.550781 8.421875-11.199219 14.574218-1.652343 6.152344-.789062 12.707032 2.398438 18.222657l8 13.847656c3.179688 5.519531 8.421875 9.550781 14.574219 11.199219 6.152343 1.652344 12.710937.789062 18.226562-2.398438l21.328125-12.3125c-.84375 2.414063-1.292968 4.949219-1.328125 7.503906v16c0 13.257813 10.742188 24 24 24h288c13.253907 0 24-10.742187 24-24v-16c-.042969-12.265624-9.347656-22.519531-21.554687-23.75 1.003906-2.636718 1.53125-5.429687 1.554687-8.25v-16c-.015625-6.753906-2.894531-13.183593-7.921875-17.695312v-30.304688c0-4.417968-3.582031-8-8-8h-32v-11.03125c36.113282-6.371093 69.382813-23.722656 95.28125-49.6875zm-286.792968 58.320313 16 27.710937-90.0625 52-16-27.710937zm24.929687-14.398437c3.824219-2.210938 8.71875-.898438 10.925781 2.925781l8 13.855469c2.210938 3.828124.898438 8.71875-2.925781 10.929687l-11.074219 6.398437-16-27.710937zm-129.496094 111.726562c-3.824219 2.203125-8.710937.894531-10.921875-2.929688l-8-13.863281c-2.214844-3.824219-.90625-8.722656 2.921875-10.933593l16.640625-9.601563 16 27.710937zm164.75-196.273438c12.867188-5.773437 26.347657-10.066406 40.183594-12.796874 4.410156 19.140624 12.550781 37.222656 23.953125 53.214843-24.867188-6.914062-47.167969-20.964843-64.136719-40.417969zm-32.261719-78.65625h63.765626c.324218 16.855469 2.03125 33.652344 5.105468 50.226563-16.152344 3.195313-31.832031 8.429687-46.664062 15.582031-13.183594-19.539062-20.855469-42.273437-22.207032-65.808594zm22.207032-81.804687c14.832031 7.148437 30.511718 12.386719 46.664062 15.582031-3.074218 16.574219-4.78125 33.371094-5.105468 50.222656h-63.765626c1.351563-23.53125 9.023438-46.265624 22.207032-65.804687zm109.382812-58.195313c16.054688 0 33.257813 23.203126 43.304688 60.882813-14.34375 2.070313-28.8125 3.113281-43.304688 3.117187-14.488281-.003906-28.960937-1.046874-43.304687-3.117187 10.050781-37.679687 27.226562-60.882813 43.304687-60.882813zm99.328125 45.34375c-12.867187 5.777344-26.347656 10.074219-40.183593 12.800782-4.410157-19.140625-12.546876-37.222656-23.953126-53.214844 24.871094 6.914062 47.167969 20.964844 64.136719 40.414062zm-99.328125 34.65625c15.703125.011719 31.386719-1.128906 46.921875-3.414062 2.933594 15.644531 4.574219 31.503906 4.902344 47.414062h-23.902344c-4.417969 0-8 3.582032-8 8 0 4.417969 3.582031 8 8 8h23.902344c-.328125 15.914063-1.96875 31.773438-4.902344 47.417969-31.117187-4.554687-62.726562-4.554687-93.839843 0-2.9375-15.644531-4.578126-31.503906-4.90625-47.417969h31.746093c4.417969 0 8-3.582031 8-8 0-4.417968-3.582031-8-8-8h-31.746093c.328124-15.910156 1.96875-31.769531 4.90625-47.414062 15.535156 2.285156 31.214843 3.425781 46.917968 3.414062zm-43.28125 123.121094c28.722656-4.160156 57.890625-4.160156 86.609375 0-10.070312 37.679688-27.273437 60.878906-43.328125 60.878906-16.054687 0-33.253906-23.199218-43.28125-60.878906zm102.449219 2.753906c13.835937 2.726563 27.320313 7.023438 40.183594 12.796876-16.964844 19.457031-39.265625 33.515624-64.136719 40.433593 11.390625-16 19.511719-34.089843 23.90625-53.230469zm50.242187-.066406c-14.832031-7.152344-30.511718-12.386718-46.664062-15.582031 3.070312-16.574219 4.777344-33.371094 5.09375-50.226563h63.777344c-1.363282 23.535157-9.042969 46.269532-22.234375 65.808594zm-41.59375-81.808594c-.316406-16.851562-2.023437-33.648437-5.097656-50.222656 16.152344-3.195312 31.835938-8.433594 46.664063-15.582031 13.179687 19.539063 20.851562 42.273437 22.210937 65.804687zm-103.007812-119.085937c-11.402344 15.992187-19.542969 34.074219-23.953125 53.214844-13.835937-2.730469-27.316406-7.027344-40.183594-12.800781 16.96875-19.449219 39.269531-33.5 64.136719-40.414063zm-63.488281 237.078125c30.726562 27.765625 71.71875 41.3125 112.9375 37.324219s78.855469-25.144531 103.6875-58.28125c.296875-.335938.5625-.695313.800781-1.074219v-.039062c38.964844-52.136719 38.964844-123.703126 0-175.839844-.042969-.0625-.097656-.097656-.136719-.152344-2.722656-3.660156-5.601562-7.179688-8.640625-10.558594l11.550782-11.539062c58.957031 64.773437 56.609374 164.441406-5.328126 226.367187s-161.605468 64.257813-226.367187 5.289063zm-49.398438 174.007812v32h-32v-32zm-72 24v-16c0-4.417968 3.582031-8 8-8h16v32h-16c-4.417969 0-8-3.582031-8-8zm304-16v16c0 4.417969-3.582031 8-8 8h-120v-8c0-4.417968-3.582031-8-8-8s-8 3.582032-8 8v8h-72v-32h80c4.417969 0 8-3.582031 8-8 0-4.417968-3.582031-8-8-8h-60c-4.417969 0-8-3.582031-8-8v-16c0-4.417968 3.582031-8 8-8h132v32h-32c-4.417969 0-8 3.582032-8 8 0 4.417969 3.582031 8 8 8h88c4.417969 0 8 3.582032 8 8zm-28-56c4.417969 0 8 3.582032 8 8v16c0 4.417969-3.582031 8-8 8h-20v-32zm.078125-16h-104v-16h104zm-40-32h-24v-8.46875c2.671875.117188 5.3125.390626 8 .390626 5.375 0 10.695313-.320313 16-.800782zm0 0"/><path d="m40.019531 168.007812c4.417969 0 8-3.582031 8-8 0-4.417968-3.582031-8-8-8-13.257812 0-24-10.742187-24-24 0-13.253906 10.742188-24 24-24 13.253907 0 24 10.746094 24 24 0 4.417969 3.582031 8 8 8s8-3.582031 8-8c0-22.089843-17.910156-40-40-40-22.09375 0-39.9999998 17.910157-39.9999998 40 0 22.09375 17.9062498 40 39.9999998 40zm0 0"/><path d="m112.019531 88.007812c13.253907 0 24-10.742187 24-24 0-13.253906-10.746093-24-24-24-13.257812 0-24 10.746094-24 24 0 13.257813 10.742188 24 24 24zm0-32c4.417969 0 8 3.582032 8 8 0 4.417969-3.582031 8-8 8s-8-3.582031-8-8c0-4.417968 3.582031-8 8-8zm0 0"/></svg>