<svg height="479pt" viewBox="0 -55 479.99986 479" width="479pt" xmlns="http://www.w3.org/2000/svg"><path d="m119.996094 272.5c39.765625 0 72-32.234375 72-72s-32.234375-72-72-72-72 32.234375-72 72c0 4.417969 3.582031 8 8 8 4.417968 0 8-3.582031 8-8-.027344-26.242188 18.183594-48.976562 43.796875-54.675781s51.746093 7.164062 62.851562 30.941406c-9.324219-1.394531-18.605469 2.796875-23.714843 10.722656-5.113282 7.921875-5.113282 18.101563 0 26.023438 5.109374 7.925781 14.390624 12.117187 23.714843 10.722656-9.203125 19.664063-28.9375 32.238281-50.648437 32.265625-4.417969 0-8 3.582031-8 8s3.582031 8 8 8zm48-64c-4.417969 0-8-3.582031-8-8s3.582031-8 8-8c4.417968 0 8 3.582031 8 8s-3.582032 8-8 8zm0 0"/><path d="m87.996094 192.5c-4.417969 0-8 3.582031-8 8 .027344 22.082031 17.917968 39.972656 40 40 4.417968 0 8-3.582031 8-8s-3.582032-8-8-8c-13.253906 0-24-10.746094-24-24 0-4.417969-3.582032-8-8-8zm0 0"/><path d="m111.996094 168.5c0 4.417969-3.582032 8-8 8-4.417969 0-8-3.582031-8-8s3.582031-8 8-8c4.417968 0 8 3.582031 8 8zm0 0"/><path d="m463.882812 103.1875c-.292968-1.773438-1.175781-3.398438-2.503906-4.609375l-85.773437-77.980469c-1.90625-11.566406-11.890625-20.0625-23.609375-20.097656h-48c-13.253906 0-24 10.746094-24 24s10.746094 24 24 24h48c7.722656-.015625 14.964844-3.757812 19.449218-10.046875l77.117188 70.101563 9.699219 58.175781c-14.792969-43.199219-56.058594-71.671875-101.695313-70.164063-45.636718 1.507813-84.9375 32.644532-96.84375 76.726563-12.617187-5.296875-26.835937-5.296875-39.453125 0-11.90625-44.082031-51.207031-75.21875-96.84375-76.726563-45.636719-1.507812-86.902343 26.964844-101.695312 70.164063l9.699219-58.175781 77.117187-70.101563c4.484375 6.289063 11.726563 10.03125 19.449219 10.046875h48c13.253906 0 24-10.746094 24-24s-10.746094-24-24-24h-48c-11.722656.035156-21.703125 8.53125-23.609375 20.097656l-85.773438 77.980469c-1.332031 1.210937-2.210937 2.835937-2.503906 4.609375l-16 96c-.722656 4.355469 2.21875 8.472656 6.574219 9.199219.433594.078125.871094.113281 1.3125.113281 3.90625-.003906 7.238281-2.832031 7.878906-6.6875l.136719-.800781c.207031 50.550781 36.753906 93.617187 86.597656 102.050781 49.839844 8.433594 98.519531-20.214844 115.347656-67.882812 1.472657-4.167969-.707031-8.738282-4.875-10.214844-4.164062-1.476563-8.738281.703125-10.214843 4.871094-14.753907 41.769531-58.257813 66.054687-101.558594 56.699218-43.296875-9.351562-72.894532-49.433594-69.089844-93.570312 3.804688-44.132813 39.820312-78.5625 84.082031-80.371094s82.964844 29.566406 90.359375 73.242188c.664063 3.75 3.917969 6.488281 7.726563 6.503906h.304687c.394532.046875.789063.0625 1.183594.046875h.113281c1.566407.0625 3.113281-.351563 4.441407-1.191407 11.835937-7.914062 27.277343-7.914062 39.117187 0 1.324219.863282 2.871094 1.320313 4.449219 1.304688 4.128906-.257812 7.753906-2.847656 9.335937-6.671875 7.390625-43.675781 46.097657-75.050781 90.359375-73.242187 44.261719 1.808593 80.277344 36.238281 84.082032 80.371093 3.804687 44.136719-25.792969 84.21875-69.089844 93.570313-43.300782 9.355468-86.804688-14.929688-101.558594-56.699219-1.511719-4.113281-6.050781-6.242187-10.183594-4.78125-4.128906 1.464844-6.3125 5.976563-4.898437 10.125 16.820312 47.679687 65.507812 76.339844 115.355469 67.90625 49.851562-8.433594 86.398437-51.515625 86.597656-102.074219l.136718.800782c.636719 3.851562 3.957032 6.679687 7.863282 6.695312.445312 0 .890625-.035156 1.328125-.113281 4.351562-.730469 7.289062-4.84375 6.566406-9.199219zm-111.886718-70.6875h-48c-4.417969 0-8-3.582031-8-8s3.582031-8 8-8h48c4.417968 0 8 3.582031 8 8s-3.582032 8-8 8zm-224-16h48c4.417968 0 8 3.582031 8 8s-3.582032 8-8 8h-48c-4.417969 0-8-3.582031-8-8s3.582031-8 8-8zm0 0"/><path d="m279.996094 296.5c-4.417969 0-8 3.582031-8 8v17.496094c-.179688.550781-.300782 1.121094-.359375 1.695312-1.539063 16.324219-15.242188 28.796875-31.636719 28.796875s-30.097656-12.472656-31.636719-28.796875c-.0625-.542968-.1875-1.082031-.367187-1.597656v-17.59375c0-4.417969-3.582032-8-8-8-4.417969 0-8 3.582031-8 8v20c.003906 1.109375.261718 2.203125.75 3.199219 3.453125 23.390625 23.496094 40.734375 47.136718 40.792969 23.644532.054687 43.769532-17.195313 47.328126-40.566407.511718-1.070312.78125-2.242187.785156-3.425781v-20c0-4.417969-3.582032-8-8-8zm0 0"/><path d="m359.996094 336.5c0 4.417969-3.582032 8-8 8-4.417969 0-8-3.582031-8-8s3.582031-8 8-8c4.417968 0 8 3.582031 8 8zm0 0"/><path d="m431.996094 320.5c0 4.417969-3.582032 8-8 8-4.417969 0-8-3.582031-8-8s3.582031-8 8-8c4.417968 0 8 3.582031 8 8zm0 0"/><path d="m399.996094 360.5c0 4.417969-3.582032 8-8 8-4.417969 0-8-3.582031-8-8s3.582031-8 8-8c4.417968 0 8 3.582031 8 8zm0 0"/><path d="m135.996094 336.5c0 4.417969-3.582032 8-8 8-4.417969 0-8-3.582031-8-8s3.582031-8 8-8c4.417968 0 8 3.582031 8 8zm0 0"/><path d="m87.996094 352.5c0 4.417969-3.582032 8-8 8-4.417969 0-8-3.582031-8-8s3.582031-8 8-8c4.417968 0 8 3.582031 8 8zm0 0"/><path d="m343.996094 176.5c.054687-12.523438-9.523438-22.984375-22.003906-24.023438-12.480469-1.042968-23.664063 7.6875-25.683594 20.046876-2.019532 12.359374 5.804687 24.191406 17.96875 27.175781l12.726562 31.839843c-9.339844 9.277344-9.492187 24.335938-.335937 33.796876 9.152343 9.460937 24.207031 9.808593 33.785156.777343 9.582031-9.027343 10.125-24.078125 1.222656-33.773437l26.839844-40.257813c2.300781.472657 4.667969.472657 6.96875 0l10.214844 15.339844-11.359375 11.359375c-2.078125 2.007812-2.914063 4.980469-2.179688 7.777344.730469 2.796875 2.914063 4.984375 5.710938 5.714844 2.796875.730468 5.773437-.101563 7.78125-2.179688l16-16c.160156-.21875.308594-.441406.449218-.671875.339844-.414063.636719-.863281.886719-1.339844.234375-.441406.425781-.902343.566407-1.382812.148437-.480469.246093-.976563.289062-1.480469.050781-.507812.050781-1.019531 0-1.527344-.050781-.492187-.144531-.980468-.28125-1.457031-.148438-.515625-.355469-1.015625-.613281-1.488281-.085938-.253906-.1875-.503906-.304688-.75l-12.96875-19.398438c8.785157-9.570312 8.363281-24.390625-.953125-33.441406-9.3125-9.054688-24.140625-9.054688-33.453125 0-9.316406 9.050781-9.738281 23.871094-.953125 33.441406l-26.832031 40.253906c-1.152344-.203124-2.320313-.320312-3.488281-.351562-.847656 0-1.65625.167969-2.480469.246094l-10.769531-26.910156c8.09375-4.035157 13.222656-12.292969 13.25-21.335938zm-24-8c4.417968 0 8 3.582031 8 8s-3.582032 8-8 8c-4.417969 0-8-3.582031-8-8s3.582031-8 8-8zm24 88c-4.417969 0-8-3.582031-8-8s3.582031-8 8-8c4.417968 0 8 3.582031 8 8s-3.582032 8-8 8zm48-96c4.417968 0 8 3.582031 8 8s-3.582032 8-8 8c-4.417969 0-8-3.582031-8-8s3.582031-8 8-8zm0 0"/><path d="m399.996094 256.5c0 4.417969-3.582032 8-8 8-4.417969 0-8-3.582031-8-8s3.582031-8 8-8c4.417968 0 8 3.582031 8 8zm0 0"/><path d="m359.996094 144.5c0 4.417969-3.582032 8-8 8-4.417969 0-8-3.582031-8-8s3.582031-8 8-8c4.417968 0 8 3.582031 8 8zm0 0"/></svg>