<svg height="480pt" viewBox="-24 0 480 480.04379" width="480pt" xmlns="http://www.w3.org/2000/svg"><path d="m432.023438 40c-.027344-22.082031-17.921876-39.9726562-40-40h-352c-22.082032.0273438-39.976563 17.917969-40.0000005 40v328c0 4.417969 3.5820315 8 8.0000005 8 4.417968 0 8-3.582031 8-8v-328c0-13.253906 10.742187-24 24-24h352c13.253906 0 24 10.746094 24 24s-10.746094 24-24 24h-128c-5.925782.019531-11.628907 2.246094-16 6.238281-4.375-3.992187-10.078126-6.21875-16-6.238281h-20.800782c-4.578125-19.835938-22.894531-33.402344-43.199218-32h-64c-4.417969 0-8 3.582031-8 8s3.582031 8 8 8c11.371093-.914062 22.0625 5.523438 26.574218 16h-42.574218c-13.257813 0-24 10.746094-24 24v144c.019531 5.921875 2.242187 11.625 6.238281 16-3.996094 4.375-6.21875 10.078125-6.238281 16v144c0 13.253906 10.742187 24 24 24h40v40c-.015626 2.78125 1.414062 5.367188 3.773437 6.835938s5.3125 1.605468 7.800781.363281l28.425782-14.253907 28.421874 14.253907c2.488282 1.242187 5.441407 1.105469 7.800782-.363281 2.363281-1.46875 3.792968-4.054688 3.777344-6.835938v-40h24c5.921874-.019531 11.625-2.246094 16-6.238281 4.371093 3.992187 10.074218 6.21875 16 6.238281h144c13.253906 0 24-10.746094 24-24v-144c-.019532-5.925781-2.242188-11.628906-6.242188-16 4-4.371094 6.222656-10.074219 6.242188-16zm-264 8c13.933593 0 28 7.425781 28 24v60.6875l-18.34375-18.34375c-3.125-3.121094-8.191407-3.121094-11.3125 0l-18.34375 18.34375v-60.6875c.097656-8.683594-2.746094-17.144531-8.074219-24zm24 411.054688-20.425782-10.214844c-2.25-1.125-4.902344-1.125-7.152344 0l-20.421874 10.214844v-27.054688h48zm40-43.054688h-144c-4.417969 0-8-3.582031-8-8v-144c0-4.417969 3.582031-8 8-8h40.183593c3.027344 0 5.800781-1.710938 7.152344-4.421875 1.355469-2.710937 1.066406-5.953125-.753906-8.378906-4.242188-5.503907-6.554688-12.25-6.582031-19.199219 0-17.671875 14.324218-32 32-32 17.671874 0 32 14.328125 32 32-.023438 6.945312-2.328126 13.691406-6.5625 19.199219-1.816407 2.425781-2.109376 5.667969-.753907 8.378906s4.125 4.421875 7.15625 4.421875h40.160157c4.417968 0 8 3.582031 8 8v26.808594c-5.128907-1.863282-10.546876-2.8125-16-2.808594-26.511719 0-48 21.492188-48 48s21.488281 48 48 48c5.453124.003906 10.871093-.945312 16-2.808594v26.808594c0 4.417969-3.582032 8-8 8zm184-8c0 4.417969-3.582032 8-8 8h-144c-4.417969 0-8-3.582031-8-8v-40.175781c0-3.03125-1.714844-5.800781-4.425782-7.15625-2.707031-1.355469-5.953125-1.0625-8.375.757812-5.507812 4.234375-12.253906 6.546875-19.199218 6.574219-17.675782 0-32-14.328125-32-32s14.324218-32 32-32c6.945312.023438 13.691406 2.328125 19.199218 6.558594 2.421875 1.820312 5.667969 2.113281 8.375.757812 2.710938-1.355468 4.425782-4.125 4.425782-7.15625v-40.160156c0-4.417969 3.582031-8 8-8 4.417968 0 8-3.582031 8-8s-3.582032-8-8-8c-4.417969 0-8-3.582031-8-8v-26.808594c5.128906 1.863282 10.542968 2.8125 16 2.808594 26.507812 0 48-21.492188 48-48s-21.492188-48-48-48c-10.417969.023438-20.535157 3.464844-28.800782 9.800781-2.488281 1.636719-3.863281 4.519531-3.566406 7.484375.300781 2.964844 2.222656 5.515625 4.984375 6.625 2.765625 1.109375 5.917969.585938 8.179687-1.351562 5.511719-4.230469 12.253907-6.535156 19.203126-6.558594 17.671874 0 32 14.328125 32 32s-14.328126 32-32 32c-6.949219-.023438-13.691407-2.328125-19.203126-6.558594-2.421874-1.820312-5.664062-2.113281-8.375-.757812-2.710937 1.355468-4.421874 4.125-4.421874 7.15625v40.160156c0 4.417969-3.582032 8-8 8h-26.800782c1.855469-5.128906 2.804688-10.542969 2.800782-16 0-26.507812-21.492188-48-48-48-26.511719 0-48 21.492188-48 48-.007813 5.457031.945312 10.871094 2.804687 16h-26.804687c-4.417969 0-8-3.582031-8-8v-144c0-4.417969 3.582031-8 8-8h44v72c0 3.234375 1.949218 6.152344 4.9375 7.390625 2.988281 1.238281 6.429687.550781 8.71875-1.734375l26.34375-26.34375 26.34375 26.34375c1.5 1.5 3.53125 2.34375 5.65625 2.34375 1.050781.003906 2.09375-.203125 3.0625-.609375 2.988281-1.238281 4.9375-4.15625 4.9375-7.390625v-72h20c4.417968 0 8 3.582031 8 8s3.582031 8 8 8c4.417968 0 8-3.582031 8-8s3.582031-8 8-8h128c2.492187-.019531 4.976562-.269531 7.421874-.753906.800782-.140625 1.480469-.375 2.222657-.558594 1.632812-.394531 3.234375-.894531 4.800781-1.488281.800781-.3125 1.554688-.648438 2.320312-1.007813 1.460938-.679687 2.875-1.449218 4.242188-2.304687.671875-.414063 1.351562-.796875 2-1.269531.320312-.226563.679688-.394532.992188-.632813v160.015625c0 4.417969-3.582032 8-8 8h-40.175782c-3.03125 0-5.800781 1.710938-7.15625 4.421875-1.355468 2.710937-1.0625 5.953125.753906 8.378906 4.238282 5.503907 6.550782 12.25 6.578126 19.199219 0 17.671875-14.328126 32-32 32-17.675782 0-32-14.328125-32-32 .019531-6.945312 2.324218-13.691406 6.558593-19.199219 1.9375-2.261719 2.457031-5.414062 1.351563-8.179687-1.109375-2.765625-3.664063-4.6875-6.625-4.984375-2.964844-.300781-5.851563 1.074219-7.488282 3.5625-6.332031 8.269531-9.773437 18.386719-9.796874 28.800781 0 26.507812 21.488281 48 48 48 26.507812 0 48-21.492188 48-48 .003906-5.457031-.945313-10.871094-2.800782-16h26.800782c4.417968 0 8 3.582031 8 8zm0 0"/><path d="m360.023438 48c4.417968 0 8-3.582031 8-8s-3.582032-8-8-8h-88c-4.417969 0-8 3.582031-8 8s3.582031 8 8 8zm0 0"/><path d="m40.023438 216c-4.417969 0-8 3.582031-8 8v136c0 4.417969 3.582031 8 8 8 4.417968 0 8-3.582031 8-8v-136c0-4.417969-3.582032-8-8-8zm0 0"/><path d="m72.023438 40c0-4.417969-3.582032-8-8-8h-8c-13.257813 0-24 10.746094-24 24v96c0 4.417969 3.582031 8 8 8 4.417968 0 8-3.582031 8-8v-96c0-4.417969 3.582031-8 8-8h8c4.417968 0 8-3.582031 8-8zm0 0"/><path d="m344.023438 200h32c9.460937-.003906 18.039062-5.566406 21.902343-14.207031 3.859375-8.636719 2.285157-18.738281-4.023437-25.792969 6.308594-7.054688 7.882812-17.15625 4.023437-25.792969-3.863281-8.640625-12.441406-14.203125-21.902343-14.207031h-32c-4.417969 0-8 3.582031-8 8v64c0 4.417969 3.582031 8 8 8zm32-16h-24v-16h24c4.417968 0 8 3.582031 8 8s-3.582032 8-8 8zm0-48c4.417968 0 8 3.582031 8 8s-3.582032 8-8 8h-24v-16zm0 0"/><path d="m128.023438 304c-17.675782 0-32 14.328125-32 32v40c0 4.417969 3.582031 8 8 8 4.417968 0 8-3.582031 8-8v-16h32v16c0 4.417969 3.582031 8 8 8 4.417968 0 8-3.582031 8-8v-40c0-17.671875-14.328126-32-32-32zm-16 40v-8c0-8.835938 7.160156-16 16-16 8.835937 0 16 7.164062 16 16v8zm0 0"/></svg>