<svg height="480pt" viewBox="0 0 480 480.00002" width="480pt" xmlns="http://www.w3.org/2000/svg"><path d="m256 344h-32c-13.253906 0-24 10.746094-24 24s10.746094 24 24 24h32c13.253906 0 24-10.746094 24-24s-10.746094-24-24-24zm0 32h-32c-4.417969 0-8-3.582031-8-8s3.582031-8 8-8h32c4.417969 0 8 3.582031 8 8s-3.582031 8-8 8zm0 0"/><path d="m472 400c4.417969 0 8-3.582031 8-8s-3.582031-8-8-8h-126c-4.417969 0-8 3.582031-8 8v32h-26v-88h160c4.417969 0 8-3.582031 8-8s-3.582031-8-8-8h-72c-4.417969 0-8-3.582031-8-8s3.582031-8 8-8c9.484375.042969 18.097656-5.53125 21.945312-14.199219 3.847657-8.667969 2.207032-18.792969-4.183593-25.800781 7.222656-7.945312 8.285156-19.722656 2.605469-28.835938-5.679688-9.113281-16.722657-13.34375-27.039063-10.359374-10.3125 2.984374-17.390625 12.457031-17.328125 23.195312 0 4.417969-3.582031 8-8 8s-8-3.582031-8-8-3.582031-8-8-8-8 3.582031-8 8-3.582031 8-8 8-8-3.582031-8-8c-.015625-1.164062-.289062-2.308594-.800781-3.351562-4.027344-31.890626-25.222657-59-55.199219-70.601563v-94.046875h8c4.417969 0 8-3.582031 8-8v-8h8c4.417969 0 8-3.582031 8-8s-3.582031-8-8-8h-8v-16h8c4.417969 0 8-3.582031 8-8s-3.582031-8-8-8h-8v-8c0-4.417969-3.582031-8-8-8h-80c-4.417969 0-8 3.582031-8 8v8h-8c-4.417969 0-8 3.582031-8 8s3.582031 8 8 8h8v16h-8c-4.417969 0-8 3.582031-8 8s3.582031 8 8 8h8v8c0 4.417969 3.582031 8 8 8h8v16h-168c-22.082031.027344-39.9726562 17.917969-40 40v100c0 4.417969 3.582031 8 8 8s8-3.582031 8-8v-100c0-13.253906 10.746094-24 24-24h168v62.046875c-16.054688 6.222656-29.921875 17.035156-39.871094 31.089844-7.992187-18.855469-27.046875-30.582031-47.476562-29.21875-20.433594 1.359375-37.765625 15.507812-43.1875 35.253906s2.257812 40.761719 19.128906 52.363281c16.875 11.605469 39.242188 11.25 55.742188-.878906.691406 9.648438 2.996093 19.113281 6.816406 28-3.140625 3.308594-6.082032 6.808594-8.800782 10.472656-8.375-3.371094-17.320312-5.113281-26.351562-5.128906-39.765625 0-72 32.234375-72 72s32.234375 72 72 72c9.046875-.007812 18.007812-1.746094 26.398438-5.121094 8.75 11.703125 19.6875 21.59375 32.210937 29.121094h-142.609375c-13.253906 0-24-10.746094-24-24v-108c0-4.417969-3.582031-8-8-8s-8 3.582031-8 8v108c.0273438 22.082031 17.917969 39.972656 40 40h168c3.941406-.066406 7.847656-.726562 11.59375-1.953125 6.726562 1.273437 13.558594 1.925781 20.40625 1.953125 19.6875.011719 39.019531-5.234375 56-15.199219v7.199219c0 4.417969 3.582031 8 8 8h168c4.417969 0 8-3.582031 8-8s-3.582031-8-8-8h-34v-24h34c4.417969 0 8-3.582031 8-8s-3.582031-8-8-8h-34v-24zm-118 0h26v24h-26zm26 40v24h-26v-24zm-44-168c5.921875-.019531 11.625-2.246094 16-6.238281 7.007812 6.390625 17.132812 8.03125 25.800781 4.183593 8.667969-3.847656 14.242188-12.460937 14.199219-21.945312 0-4.417969 3.582031-8 8-8s8 3.582031 8 8-3.582031 8-8 8-8 3.582031-8 8 3.582031 8 8 8 8 3.582031 8 8-3.582031 8-8 8c-13.253906 0-24 10.746094-24 24 .027344 2.730469.523438 5.4375 1.472656 8h-36.527344c-5.082031-10.800781-11.867187-20.714844-20.097656-29.359375 2.804688-6.566406 4.789063-13.453125 5.90625-20.503906 2.925782 1.230469 6.070313 1.863281 9.246094 1.863281zm-112-120h32v24h-32zm32-16h-32v-24h32zm-16 104c17.671875 0 32 14.328125 32 32s-14.328125 32-32 32-32-14.328125-32-32 14.328125-32 32-32zm0-16c-5.453125.015625-10.867188.960938-16 2.800781v-34.800781h32v34.800781c-5.132812-1.839843-10.546875-2.789062-16-2.800781zm-32-208h64v48h-64zm48 64v16h-32v-16zm-125.601562 311.015625c-2.074219.636719-4.230469.96875-6.398438.984375-13.253906 0-24-10.746094-24-24s10.746094-24 24-24c2.167969.015625 4.324219.347656 6.398438.984375-1.582032 7.570313-2.386719 15.28125-2.398438 23.015625.003906 7.734375.808594 15.449219 2.398438 23.015625zm-6.398438-135.015625c-17.671875 0-32-14.328125-32-32s14.328125-32 32-32 32 14.328125 32 32-14.328125 32-32 32zm0 168c-30.929688 0-56-25.070312-56-56s25.070312-56 56-56c5.9375.015625 11.835938.996094 17.464844 2.894531-2.5625 4.734375-4.769532 9.648438-6.609375 14.707031-3.523438-1.050781-7.179688-1.589843-10.855469-1.601562-22.089844 0-40 17.910156-40 40s17.910156 40 40 40c3.699219-.003906 7.375-.542969 10.921875-1.601562 1.808594 5.0625 3.984375 9.988281 6.503906 14.738281-5.617187 1.886719-11.5 2.851562-17.425781 2.863281zm116 40c-52.996094-.058594-95.941406-43.003906-96-96-.035156-18.902344 5.585938-37.382812 16.144531-53.0625 0-.074219.113281-.121094.152344-.195312v-.09375c4.03125-5.992188 8.714844-11.519532 13.960937-16.480469 2.578126-2.449219 3.230469-6.308594 1.597657-9.472657-8.769531-17.128906-10.308594-37.058593-4.265625-55.328124 6.042968-18.269532 19.15625-33.355469 36.410156-41.878907v44.800781c-14.832031 13.265626-19.941406 34.3125-12.839844 52.902344 7.101563 18.59375 24.9375 30.875 44.839844 30.875s37.738281-12.28125 44.839844-30.875c7.101562-18.589844 1.992187-39.636718-12.839844-52.902344v-44.800781c17.242188 8.53125 30.347656 23.621094 36.378906 41.890625 6.027344 18.269532 4.484375 38.195313-4.289062 55.316406-1.632813 3.164063-.980469 7.023438 1.597656 9.472657 6.777344 6.394531 12.582031 13.75 17.222656 21.832031h-18.910156c-4.417969 0-8 3.582031-8 8v117.769531c-16.257812 11.867188-35.871094 18.253907-56 18.230469zm72-24h26v24h-26zm110 24h-26v-24h26zm0-40h-26v-24h26zm0 0"/><path d="m448 360c0 4.417969-3.582031 8-8 8s-8-3.582031-8-8 3.582031-8 8-8 8 3.582031 8 8zm0 0"/><path d="m416 360c0 4.417969-3.582031 8-8 8s-8-3.582031-8-8 3.582031-8 8-8 8 3.582031 8 8zm0 0"/><path d="m376 360c0 4.417969-3.582031 8-8 8s-8-3.582031-8-8 3.582031-8 8-8 8 3.582031 8 8zm0 0"/><path d="m344 360c0 4.417969-3.582031 8-8 8s-8-3.582031-8-8 3.582031-8 8-8 8 3.582031 8 8zm0 0"/><path d="m80 152c0-13.253906-10.746094-24-24-24s-24 10.746094-24 24 10.746094 24 24 24 24-10.746094 24-24zm-32 0c0-4.417969 3.582031-8 8-8s8 3.582031 8 8-3.582031 8-8 8-8-3.582031-8-8zm0 0"/><path d="m184 152c0-4.417969 3.582031-8 8-8s8-3.582031 8-8-3.582031-8-8-8c-13.253906 0-24 10.746094-24 24 0 4.417969 3.582031 8 8 8s8-3.582031 8-8zm0 0"/><path d="m132 224c0 4.417969-3.582031 8-8 8s-8-3.582031-8-8 3.582031-8 8-8 8 3.582031 8 8zm0 0"/><path d="m360 136c13.253906 0 24-10.746094 24-24v-32h48v17.472656c-2.5625-.949218-5.269531-1.445312-8-1.472656-13.253906 0-24 10.746094-24 24s10.746094 24 24 24 24-10.746094 24-24v-80c0-4.417969-3.582031-8-8-8h-64c-4.417969 0-8 3.582031-8 8v49.472656c-2.5625-.949218-5.269531-1.445312-8-1.472656-13.253906 0-24 10.746094-24 24s10.746094 24 24 24zm64-8c-4.417969 0-8-3.582031-8-8s3.582031-8 8-8 8 3.582031 8 8-3.582031 8-8 8zm-40-80h48v16h-48zm-24 56c4.417969 0 8 3.582031 8 8s-3.582031 8-8 8-8-3.582031-8-8 3.582031-8 8-8zm0 0"/></svg>