<svg height="480pt" viewBox="0 0 480 480" width="480pt" xmlns="http://www.w3.org/2000/svg"><path d="m457.121094 269.015625c-.089844-.085937-.160156-.191406-.25-.273437-16.609375-18.292969-40.164063-28.726563-64.871094-28.742188h-24v-136c-.027344-22.082031-17.917969-39.972656-40-40h-8v-40c0-13.253906-10.746094-24-24-24h-12c-13.253906 0-24 10.746094-24 24v40h-124v-8c0-17.671875-14.328125-32-32-32h-96c-4.417969 0-8 3.582031-8 8s3.582031 8 8 8h96c8.835938 0 16 7.164062 16 16v8h-112c-4.417969 0-8 3.582031-8 8s3.582031 8 8 8h320c13.253906 0 24 10.746094 24 24v24h-344c-4.417969 0-8 3.582031-8 8s3.582031 8 8 8h184v208c0 4.417969 3.582031 8 8 8s8-3.582031 8-8v-96h184c17.066406-.003906 33.574219 6.082031 46.550781 17.167969-12.996093 10.742187-17.863281 28.484375-12.160156 44.355469 5.703125 15.871093 20.746094 26.460937 37.609375 26.476562v56h-88.550781c-3.996094-32-31.195313-56.019531-63.445313-56.019531s-59.449218 24.019531-63.445312 56.019531h-104.558594v-16h24c4.417969 0 8-3.582031 8-8v-64c0-13.253906-10.746094-24-24-24h-16.199219c5.289063-6.886719 8.167969-15.316406 8.199219-24 0-22.089844-17.910156-40-40-40s-40 17.910156-40 40c.03125 8.683594 2.914062 17.117188 8.207031 24h-16.207031c-13.253906 0-24 10.746094-24 24v64c0 4.417969 3.582031 8 8 8h24v16h-56c-4.417969 0-8 3.582031-8 8s3.582031 8 8 8h56v16c-13.253906 0-24 10.746094-24 24v16c0 4.417969 3.582031 8 8 8h112c4.417969 0 8-3.582031 8-8v-16c0-13.253906-10.746094-24-24-24v-16h104.558594c3.996094 32 31.195312 56.019531 63.445312 56.019531s59.449219-24.019531 63.445313-56.019531h96.550781c4.417969 0 8-3.582031 8-8v-80c-.007812-21.828125-8.167969-42.863281-22.878906-58.984375zm-181.121094-245.015625c0-4.417969 3.582031-8 8-8h12c4.417969 0 8 3.582031 8 8v40h-28zm-68 120h144v96h-32v-64c0-4.417969-3.582031-8-8-8s-8 3.582031-8 8v64h-96zm-128 160h48v48h-48zm80 8v56h-16v-64h8c4.417969 0 8 3.582031 8 8zm-80-48c0-13.253906 10.746094-24 24-24s24 10.746094 24 24-10.746094 24-24 24-24-10.746094-24-24zm-32 104v-56c0-4.417969 3.582031-8 8-8h8v64zm8 88c0-4.417969 3.582031-8 8-8h32v16h-40zm96 0v8h-40v-16h32c4.417969 0 8 3.582031 8 8zm-40-24v-48c0-4.417969-3.582031-8-8-8s-8 3.582031-8 8v48h-16v-64h48v64zm200 24c-26.507812 0-48-21.492188-48-48s21.492188-48 48-48 48 21.492188 48 48c-.03125 26.496094-21.503906 47.96875-48 48zm128-152c.011719-7.507812 3.546875-14.578125 9.550781-19.089844 9.375 12.410156 14.445313 27.539063 14.449219 43.089844-13.253906 0-24-10.746094-24-24zm0 0"/><path d="m240.800781 371.65625c13.617188-26.789062 41.121094-43.660156 71.171875-43.660156 30.050782 0 57.554688 16.871094 71.171875 43.660156 2.019531 3.929688 6.839844 5.480469 10.769531 3.460938 3.933594-2.019532 5.480469-6.84375 3.460938-10.773438-16.359375-32.121094-49.359375-52.347656-85.40625-52.347656s-69.046875 20.226562-85.410156 52.347656c-2.019532 3.933594-.46875 8.757812 3.464844 10.777344 3.933593 2.019531 8.757812.46875 10.777343-3.464844zm0 0"/><path d="m312 376c-17.671875 0-32 14.328125-32 32s14.328125 32 32 32 32-14.328125 32-32-14.328125-32-32-32zm0 48c-8.835938 0-16-7.164062-16-16s7.164062-16 16-16 16 7.164062 16 16-7.164062 16-16 16zm0 0"/><path d="m272 208h-24c-4.417969 0-8-3.582031-8-8v-16c0-4.417969-3.582031-8-8-8s-8 3.582031-8 8v16c0 13.253906 10.746094 24 24 24h24c4.417969 0 8-3.582031 8-8s-3.582031-8-8-8zm0 0"/></svg>