<svg height="479pt" viewBox="0 0 479 479.99871" width="479pt" xmlns="http://www.w3.org/2000/svg"><path d="m402.191406 402.558594c-21.734375-50.679688-66.046875-88.179688-119.625-101.238282-4.289062-1.054687-8.625 1.570313-9.679687 5.863282-1.050781 4.292968 1.574219 8.625 5.867187 9.679687 22.800782 5.597657 44.085938 16.15625 62.34375 30.917969-6.457031 10.960938-12.882812 21.464844-16.472656 27.289062l-34.527344-6.910156c-3.957031-.792968-7.882812 1.484375-9.160156 5.3125l-15.160156 45.390625-21.722656 14.480469c-2.6875 1.789062-4.035157 5.023438-3.414063 8.195312.621094 3.167969 3.089844 5.65625 6.253906 6.300782l40 8c.527344.109375 1.0625.164062 1.601563.160156 4.109375.003906 7.554687-3.109375 7.96875-7.199219.410156-4.085937-2.339844-7.824219-6.367188-8.640625l-21.058594-4.21875 7.929688-5.285156c1.480469-.988281 2.589844-2.441406 3.152344-4.128906l13.765625-41.304688 33.074219 6.617188c3.261718.667968 6.597656-.769532 8.351562-3.601563.105469-.160156 8.800781-14.070312 17.984375-29.597656 13.230469 13.101563 24.0625 28.425781 32 45.269531l-30.402344 30.402344c-2.078125 2.007812-2.910156 4.980469-2.179687 7.777344.730468 2.796875 2.917968 4.980468 5.714844 5.714844 2.796874.730468 5.769531-.101563 7.777343-2.183594l25.601563-25.597656c4.886718 14.183593 7.746094 28.988281 8.496094 43.976562h-319.601563c.738281-14.519531 3.472656-28.867188 8.128906-42.640625l10.542969 8.800781c3.398438 2.828125 8.445312 2.363282 11.273438-1.035156 2.828124-3.394531 2.367187-8.441406-1.03125-11.269531l-14.503907-12.097657c14.949219-32.578124 40.375-59.21875 72.222657-75.671874l10.214843 17.914062c.351563.617188.785157 1.183594 1.289063 1.6875l28.503906 28.511719-12.871094 38.597656-51.105468 7.296875c-4.375.625-7.414063 4.679688-6.785157 9.054688.625 4.371093 4.675781 7.410156 9.050781 6.785156l56-8c3-.429688 5.5-2.515625 6.457032-5.390625l16-48c.953125-2.875.207031-6.042969-1.9375-8.183594l-31.257813-31.257813-13.503906-23.628906c-.261719-.386718-.5625-.746094-.894531-1.074218-.242188-.328126-.511719-.632813-.800782-.917969-.617187-.523438-1.308593-.941407-2.054687-1.25-.160156-.070313-.289063-.167969-.449219-.222657-.90625-.324218-1.867187-.480468-2.832031-.464843h-.101563c-1.308593-.003907-2.597656.324219-3.746093.953125-.136719.070312-.207031.199218-.335938.285156-39.511719 18.519531-70.769531 51.015625-87.734375 91.21875-.433594.699219-.75 1.464844-.945312 2.261719-8.542969 20.867187-12.957032 43.191406-13 65.738281 0 4.417969 3.582031 8 8 8h336c4.417968 0 8-3.582031 8-8-.003906-23.804688-4.839844-47.363281-14.222656-69.242188zm0 0"/><path d="m215.9375 165.199219c12.382812 7.257812 27.703125 7.328125 40.152344.175781 12.445312-7.148438 20.109375-20.417969 20.074218-34.773438-.03125-14.351562-7.75-27.589843-20.226562-34.683593-3.828125-2.207031-8.722656-.894531-10.933594 2.933593-2.207031 3.828126-.894531 8.722657 2.933594 10.929688 11.472656 6.628906 15.402344 21.304688 8.78125 32.78125-6.625 11.476562-21.296875 15.414062-32.777344 8.792969-11.480468-6.621094-15.421875-21.289063-8.804687-32.773438 1.453125-2.476562 1.464843-5.539062.035156-8.03125-1.429687-2.488281-4.085937-4.019531-6.953125-4.015625-2.871094.007813-5.519531 1.550782-6.9375 4.046875-11.046875 19.132813-4.492188 43.59375 14.640625 54.640625zm0 0"/><path d="m467.992188 214.527344c-5.398438-13.074219-19.777344-44.542969-36.703126-54.320313l-20.800781-12-24.847656-14.34375-9.945313-37.304687 38.34375-66.398438c1.242188-2.136718 1.421876-4.730468.496094-7.019531-.929687-2.289063-2.863281-4.023437-5.238281-4.695313l-63.449219-18.144531c-1.96875-.554687-4.078125-.3398435-5.894531.601563l-91.535156 47.710937-59.617188-28.40625-13.855469-8c-26.167968-15.089843-109.648437-2.0625-119.144531 14.351563-9.496093 16.417968 20.976563 95.25 47.144531 110.359375l13.269532 7.632812 55.015625 38.398438 4.464843 102.523437c.078126 1.730469.714844 3.394532 1.816407 4.734375l43.425781 52.800781c1.519531 1.84375 3.785156 2.910157 6.175781 2.910157h.664063c2.621094-.21875 4.964844-1.714844 6.269531-4l42.335937-73.34375 37.3125-9.992188 24.847657 14.34375 20.800781 12c11.660156 5.132813 24.371094 7.421875 37.089844 6.671875 33.839844 0 75.511718-9.710937 82.046875-21.03125 6.625-11.574218-5.128907-43.046875-10.488281-56.039062zm-357.046876-91.464844c-19.394531-11.199219-43.34375-76.421875-41.183593-88.449219 9.328125-7.878906 77.773437-19.742187 97.183593-8.542969l14.398438 8.289063 127.710938 60.839844c2.605468 1.480469 5.816406 1.382812 8.324218-.253907 2.511719-1.632812 3.894532-4.535156 3.589844-7.511718-.300781-2.980469-2.246094-5.539063-5.03125-6.636719l-49.433594-23.566406 77.992188-40.664063 50.503906 14.449219-34.871094 60.398437-83.632812 144.898438-91.785156-63.699219c-.085938-.0625-.199219-.0625-.292969-.125-.097657-.066406-.160157-.167969-.265625-.234375-.105469-.0625-.441406-.121094-.648438-.214844l-45.511718-31.769531 37.414062-64.269531c1.640625-2.480469 1.769531-5.664062.335938-8.265625-1.429688-2.605469-4.1875-4.199219-7.160157-4.144531-2.96875.054687-5.664062 1.753906-6.996093 4.410156l-36.761719 63.101562zm80.582032 159.046875-3.773438-87.597656 40.160156 28.046875c.695313.480468 1.460938.847656 2.269532 1.097656l38.28125 26.558594-42.542969 73.695312zm172.800781-165.957031 6.710937 25.046875c.269532 1.015625.742188 1.96875 1.386719 2.800781.652344.847656 1.464844 1.558594 2.398438 2.085938l20.75 12-56 96.992187-13.886719-8 33.753906-59.078125c2.0625-3.824219.703125-8.59375-3.070312-10.75-3.773438-2.15625-8.574219-.90625-10.820313 2.8125l-36.054687 63.097656-21.832032 5.847656zm24.351563 85.824218c3.679687 7.3125 6.964843 14.816407 9.847656 22.476563-8.078125 1.332031-16.21875 2.234375-24.390625 2.707031zm75.816406 60.527344c-9.320313 7.886719-77.792969 19.75-97.183594 8.558594l-13.855469-8 11.359375-19.671875h.945313c15.171875-.175781 30.289062-1.847656 45.132812-4.992187 2.195313-.484376 4.082031-1.867188 5.207031-3.8125 1.121094-1.941407 1.375-4.269532.699219-6.410157-4.78125-14.730469-11.042969-28.9375-18.6875-42.402343l11.351563-19.65625 13.855468 8c19.359376 11.136718 43.3125 76.378906 41.175782 88.386718zm0 0"/><path d="m67.375 295.894531c.859375.308594 1.761719.464844 2.671875.464844 2.160156 0 4.230469-.871094 5.734375-2.417969 1.507812-1.550781 2.324219-3.640625 2.265625-5.796875l-.605469-22.105469 13.480469-17.519531c1.605469-2.089843 2.082031-4.839843 1.269531-7.347656-.816406-2.511719-2.8125-4.457031-5.34375-5.207031l-21.207031-6.246094-12.503906-18.238281c-1.492188-2.175781-3.960938-3.476563-6.597657-3.476563-2.636718 0-5.101562 1.300782-6.59375 3.476563l-12.503906 18.238281-21.210937 6.28125c-2.527344.746094-4.527344 2.691406-5.339844 5.203125-.8164062 2.507813-.339844 5.257813 1.269531 7.347656l13.480469 17.519531-.609375 22.105469c-.070312 2.636719 1.164062 5.140625 3.296875 6.6875 2.136719 1.550781 4.898437 1.949219 7.382813 1.0625l20.800781-7.398437zm-36-18.984375.359375-13.28125c.046875-1.839844-.535156-3.640625-1.652344-5.101562l-8.121093-10.527344 12.734374-3.761719c1.765626-.519531 3.296876-1.628906 4.335938-3.144531l7.511719-10.960938 7.503906 10.960938c1.042969 1.515625 2.574219 2.625 4.335937 3.144531l12.738282 3.761719-8.097656 10.527344c-1.117188 1.460937-1.703126 3.261718-1.65625 5.101562l.359374 13.28125-12.511718-4.449218c-1.730469-.617188-3.621094-.617188-5.351563 0zm0 0"/><path d="m96.496094 184c0 4.417969-3.582032 8-8 8-4.417969 0-8-3.582031-8-8s3.582031-8 8-8c4.417968 0 8 3.582031 8 8zm0 0"/><path d="m144.496094 272c0 4.417969-3.582032 8-8 8-4.417969 0-8-3.582031-8-8s3.582031-8 8-8c4.417968 0 8 3.582031 8 8zm0 0"/><path d="m48.496094 368c0 4.417969-3.582032 8-8 8-4.417969 0-8-3.582031-8-8s3.582031-8 8-8c4.417968 0 8 3.582031 8 8zm0 0"/></svg>