<svg height="480pt" viewBox="0 0 480 480" width="480pt" xmlns="http://www.w3.org/2000/svg"><path d="m208 144h-40c-4.417969 0-8 3.582031-8 8v16c0 15.464844 12.535156 28 28 28s28-12.535156 28-28v-16c0-4.417969-3.582031-8-8-8zm-8 24c0 6.628906-5.371094 12-12 12s-12-5.371094-12-12v-8h24zm0 0"/><path d="m264 88c4.417969 0 8-3.582031 8-8s-3.582031-8-8-8h-32v-6.863281c0-3.648438-2.46875-6.832031-6-7.746094-3.257812-.894531-6.621094-1.363281-10-1.390625h-29.96875c-7.3125-.003906-14.042969 3.984375-17.550781 10.398438-.128907.234374-.25.476562-.351563.722656l-2.050781 4.878906h-14.078125v-9.015625c16.101562-4.15625 26.335938-19.957031 23.546875-36.347656-2.789063-16.394531-17.667969-27.921875-34.238281-26.523438-16.570313 1.398438-29.308594 15.257813-29.308594 31.886719 0 4.417969 3.582031 8 8 8s8-3.582031 8-8c0-8.835938 7.164062-16 16-16s16 7.164062 16 16-7.164062 16-16 16c-4.417969 0-8 3.582031-8 8v16h-14.070312l-2.050782-4.855469c-.109375-.25-.230468-.488281-.351562-.71875-3.503906-6.429687-10.238282-10.425781-17.558594-10.425781h-29.96875c-3.378906.027344-6.742188.496094-10 1.390625-3.53125.914063-6 4.097656-6 7.746094v6.863281h-32c-13.253906 0-24 10.746094-24 24s10.746094 24 24 24h32v7.3125c0 2.207031-1.789062 4-4 4-11.046875 0-20 8.953125-20 20v64.6875c.019531 15.886719 9.441406 30.253906 24 36.609375v11.390625c.019531 6.789062 2.929688 13.246094 8 17.761719v94.238281c0 4.417969 3.582031 8 8 8s8-3.582031 8-8v-88h128v80h-56v-48c0-4.417969-3.582031-8-8-8s-8 3.582031-8 8v56c0 4.417969 3.582031 8 8 8h72c4.417969 0 8-3.582031 8-8v-94.238281c5.070312-4.515625 7.980469-10.972657 8-17.761719v-11.390625c14.558594-6.355469 23.980469-20.722656 24-36.609375v-64.6875c0-11.046875-8.953125-20-20-20-2.210938 0-4-1.792969-4-4v-7.3125h32c4.417969 0 8-3.582031 8-8s-3.582031-8-8-8h-32v-16zm-104.664062 0-12 28.433594c-.738282 1.132812-2 1.816406-3.351563 1.816406s-2.613281-.683594-3.351563-1.816406l-11.96875-28.433594zm-135.335938 16c-4.417969 0-8-3.582031-8-8s3.582031-8 8-8h32v16zm212 43.3125c2.210938 0 4 1.789062 4 4v64.6875c0 13.253906-10.746094 24-24 24-4.417969 0-8 3.582031-8 8s3.582031 8 8 8v8c0 4.417969-3.582031 8-8 8h-128c-4.417969 0-8-3.582031-8-8v-8h96c4.417969 0 8-3.582031 8-8s-3.582031-8-8-8h-96c-13.253906 0-24-10.746094-24-24v-64.6875c0-2.210938 1.789062-4 4-4 11.046875 0 20-8.953125 20-20v-55.3125h29.96875c1.359375 0 2.621094.691406 3.359375 1.832031l20.800781 49.28125c.109375.238281.222656.480469.351563.71875 3.507812 6.417969 10.238281 10.410157 17.550781 10.410157 7.316406 0 14.046875-3.992188 17.554688-10.410157.125-.238281.246093-.480469.351562-.71875l20.796875-49.28125c.738281-1.140625 2.003906-1.832031 3.363281-1.832031h29.902344v55.3125c0 11.046875 8.953125 20 20 20zm0 0"/><path d="m120 152h-32c-4.417969 0-8 3.582031-8 8s3.582031 8 8 8h32c4.417969 0 8-3.582031 8-8s-3.582031-8-8-8zm0 0"/><path d="m112 192c0 4.417969-3.582031 8-8 8s-8-3.582031-8-8 3.582031-8 8-8 8 3.582031 8 8zm0 0"/><path d="m232 432.800781v-8.800781c0-4.417969-3.582031-8-8-8s-8 3.582031-8 8v16c0 4.417969 3.582031 8 8 8 10.167969.011719 19.230469 6.417969 22.632812 16h-78.632812v-32h16c4.417969 0 8-3.582031 8-8s-3.582031-8-8-8h-24c-4.417969 0-8 3.582031-8 8v40c0 8.835938 7.164062 16 16 16h88c4.417969 0 8-3.582031 8-8-.019531-19.003906-13.386719-35.375-32-39.199219zm0 0"/><path d="m128 416h-24c-4.417969 0-8 3.582031-8 8s3.582031 8 8 8h16v32h-78.632812c3.402343-9.582031 12.464843-15.988281 22.632812-16 4.417969 0 8-3.582031 8-8v-16c0-4.417969-3.582031-8-8-8s-8 3.582031-8 8v8.800781c-18.613281 3.824219-31.980469 20.195313-32 39.199219 0 4.417969 3.582031 8 8 8h88c8.835938 0 16-7.164062 16-16v-40c0-4.417969-3.582031-8-8-8zm0 0"/><path d="m408 288c-27.316406.035156-52.257812 15.53125-64.398438 40h-23.601562c-22.082031.027344-39.972656 17.917969-40 40v8c0 4.417969 3.582031 8 8 8h120c12 0 72-1.160156 72-24-.042969-39.746094-32.253906-71.957031-72-72zm-21.601562 20.328125c-4.332032 11.136719-7.273438 22.765625-8.75 34.625-.578126 4.378906 2.503906 8.398437 6.882812 8.980469 4.382812.578125 8.402344-2.503906 8.980469-6.886719 3.511719-26.648437 11.328125-40 14.265625-41.039063h.078125c4.929687 1.519532 16 26.871094 16.105469 63.417969-4.960938.335938-10.199219.574219-16 .574219-32.191407 0-51.808594-5.886719-56-9.328125.554687-22.101563 14.042968-41.816406 34.4375-50.34375zm-66.398438 35.671875h17.855469c-1.214844 5.246094-1.839844 10.613281-1.855469 16 .03125 2.9375 1.09375 5.769531 3 8h-43c0-13.253906 10.746094-24 24-24zm120 21.75c-.003906-19.625-3.546875-39.089844-10.457031-57.460938 20.429687 8.523438 33.9375 28.265626 34.480469 50.398438-7.449219 3.953125-15.621094 6.355469-24.023438 7.0625zm0 0"/><path d="m336.542969 66.984375c-2.472657 11.339844 3.570312 22.820313 14.320312 27.199219l-14.75 88.503906c-.398437 2.382812.304688 4.820312 1.910157 6.625l32 36c1.519531 1.703125 3.691406 2.679688 5.976562 2.679688s4.457031-.976563 5.976562-2.679688l32-36c1.605469-1.804688 2.308594-4.242188 1.910157-6.625l-14.75-88.519531c10.75-4.382813 16.792969-15.859375 14.320312-27.199219l23.742188-47.394531c1.304687-2.558594 1.136719-5.621094-.441407-8.023438-1.578124-2.398437-4.320312-3.769531-7.1875-3.589843-2.867187.179687-5.417968 1.882812-6.683593 4.464843l-19.757813 39.503907c-1.175781-.78125-2.417968-1.453126-3.714844-2.019532l6.433594-32.308594c.882813-4.332031-1.910156-8.5625-6.242187-9.445312s-8.5625 1.910156-9.445313 6.242188l-6.71875 33.601562h-18.882812l-6.710938-33.601562c-.882812-4.332032-5.113281-7.125-9.445312-6.242188-4.332032.882812-7.125 5.113281-6.242188 9.445312l6.464844 32.34375c-1.292969.5625-2.535156 1.238282-3.714844 2.015626l-19.710937-39.535157c-1.261719-2.582031-3.8125-4.285156-6.679688-4.464843-2.867187-.179688-5.613281 1.191406-7.191406 3.589843-1.574219 2.402344-1.746094 5.464844-.441406 8.023438zm23.457031-2.984375h32c4.417969 0 8 3.582031 8 8s-3.582031 8-8 8h-32c-4.417969 0-8-3.582031-8-8s3.582031-8 8-8zm25.222656 32 6.664063 40h-31.773438l6.664063-40zm-9.222656 112-23.472656-26.398438 4.921875-29.601562h37.101562l4.929688 29.542969zm0 0"/></svg>