<svg height="480pt" viewBox="0 0 480 480" width="480pt" xmlns="http://www.w3.org/2000/svg"><path d="m232 48c0 4.417969 3.582031 8 8 8h104c4.417969 0 8-3.582031 8-8s-3.582031-8-8-8h-104c-4.417969 0-8 3.582031-8 8zm0 0"/><path d="m152 40c-4.417969 0-8 3.582031-8 8s3.582031 8 8 8h32c4.417969 0 8-3.582031 8-8s-3.582031-8-8-8zm0 0"/><path d="m312 184c4.417969 0 8-3.582031 8-8s-3.582031-8-8-8h-160c-4.417969 0-8-3.582031-8-8v-16c0-4.417969 3.582031-8 8-8h160c4.417969 0 8-3.582031 8-8s-3.582031-8-8-8h-160c-13.253906 0-24 10.746094-24 24v16c0 13.253906 10.746094 24 24 24zm0 0"/><path d="m168 224c0 4.417969-3.582031 8-8 8s-8-3.582031-8-8-3.582031-8-8-8-8 3.582031-8 8c0 13.253906 10.746094 24 24 24s24-10.746094 24-24c0-4.417969-3.582031-8-8-8s-8 3.582031-8 8zm0 0"/><path d="m232 200c-13.253906 0-24 10.746094-24 24s10.746094 24 24 24 24-10.746094 24-24-10.746094-24-24-24zm0 32c-4.417969 0-8-3.582031-8-8s3.582031-8 8-8 8 3.582031 8 8-3.582031 8-8 8zm0 0"/><path d="m280 224c0 13.253906 10.746094 24 24 24s24-10.746094 24-24-10.746094-24-24-24-24 10.746094-24 24zm32 0c0 4.417969-3.582031 8-8 8s-8-3.582031-8-8 3.582031-8 8-8 8 3.582031 8 8zm0 0"/><path d="m184 288c0-13.253906-10.746094-24-24-24s-24 10.746094-24 24 10.746094 24 24 24 24-10.746094 24-24zm-32 0c0-4.417969 3.582031-8 8-8s8 3.582031 8 8-3.582031 8-8 8-8-3.582031-8-8zm0 0"/><path d="m248 280c-4.417969 0-8 3.582031-8 8s-3.582031 8-8 8-8-3.582031-8-8-3.582031-8-8-8-8 3.582031-8 8c0 13.253906 10.746094 24 24 24s24-10.746094 24-24c0-4.417969-3.582031-8-8-8zm0 0"/><path d="m304 264c-13.253906 0-24 10.746094-24 24s10.746094 24 24 24 24-10.746094 24-24-10.746094-24-24-24zm0 32c-4.417969 0-8-3.582031-8-8s3.582031-8 8-8 8 3.582031 8 8-3.582031 8-8 8zm0 0"/><path d="m472 464h-456v-16h440c4.417969 0 8-3.582031 8-8v-48c-.027344-22.082031-17.917969-39.972656-40-40-.570312.003906-1.136719.0625-1.695312.175781l-54.304688 11.824219v-276c0-4.417969-3.582031-8-8-8h-216c-17.671875 0-32-14.328125-32-32s14.328125-32 32-32h184c4.417969 0 8-3.582031 8-8s-3.582031-8-8-8h-184c-26.496094.03125-47.96875 21.503906-48 48v272c.027344 21.113281 11.925781 40.417969 30.777344 49.929688l-93.273438-17.785157c-2.835937-.609375-5.78125.367188-7.695312 2.546875-1.910156 2.183594-2.492188 5.226563-1.519532 7.960938.976563 2.734375 3.351563 4.722656 6.214844 5.203125l191.375 36.488281-197.703125-4.34375c-2.140625-.121094-4.238281.652344-5.789062 2.132812-1.550781 1.484376-2.414063 3.546876-2.386719 5.691407-.097656 4.417969 3.40625 8.078125 7.824219 8.175781l208.175781 4.574219v11.425781h-216c-8.835938 0-16 7.164062-16 16v24c0 4.417969 3.582031 8 8 8h464c4.417969 0 8-3.582031 8-8s-3.582031-8-8-8zm-360-144v-236.320312c8.773438 7.925781 20.175781 12.316406 32 12.320312h208v264h-200c-22.082031-.027344-39.972656-17.917969-40-40zm200.742188 56-61.980469 13.480469c-4.007813.875-7.71875 2.785156-10.761719 5.535156-3.101562-2.78125-6.875-4.710937-10.945312-5.601563l-70.4375-13.414062zm-64.742188 36.753906c-.019531-3.6875 2.554688-6.878906 6.160156-7.640625l170.640625-37.113281c12.941407.429688 23.207031 11.050781 23.199219 24v8h-64c-4.417969 0-8 3.582031-8 8s3.582031 8 8 8h64v16h-200zm0 0"/><path d="m408 120h16v16c0 4.417969 3.582031 8 8 8s8-3.582031 8-8v-16h16c4.417969 0 8-3.582031 8-8s-3.582031-8-8-8h-16v-16c0-4.417969-3.582031-8-8-8s-8 3.582031-8 8v16h-16c-4.417969 0-8 3.582031-8 8s3.582031 8 8 8zm0 0"/><path d="m54.625 265.375c-3.125-3.121094-8.1875-3.121094-11.3125 0l-11.3125 11.3125-11.3125-11.3125c-3.136719-3.03125-8.128906-2.988281-11.214844.097656-3.085937 3.085938-3.128906 8.078125-.097656 11.214844l11.3125 11.3125-11.3125 11.3125c-2.078125 2.007812-2.914062 4.984375-2.179688 7.78125.730469 2.796875 2.914063 4.980469 5.710938 5.710938 2.796875.734374 5.773438-.101563 7.78125-2.179688l11.3125-11.3125 11.3125 11.3125c3.136719 3.03125 8.128906 2.988281 11.214844-.097656 3.085937-3.085938 3.128906-8.078125.097656-11.214844l-11.3125-11.3125 11.3125-11.3125c3.121094-3.125 3.121094-8.1875 0-11.3125zm0 0"/><path d="m8 128h48c4.417969 0 8-3.582031 8-8s-3.582031-8-8-8h-48c-4.417969 0-8 3.582031-8 8s3.582031 8 8 8zm0 0"/><path d="m40 88c0 4.417969-3.582031 8-8 8s-8-3.582031-8-8 3.582031-8 8-8 8 3.582031 8 8zm0 0"/><path d="m40 152c0 4.417969-3.582031 8-8 8s-8-3.582031-8-8 3.582031-8 8-8 8 3.582031 8 8zm0 0"/><path d="m408 288h48c4.417969 0 8-3.582031 8-8s-3.582031-8-8-8h-48c-4.417969 0-8 3.582031-8 8s3.582031 8 8 8zm0 0"/></svg>