<svg height="480pt" viewBox="0 0 480 480.15993" width="480pt" xmlns="http://www.w3.org/2000/svg"><path d="m72.078125 288c4.421875 0 8-3.582031 8-8s-3.578125-8-8-8h-32c-13.253906 0-24-10.746094-24-24v-208c0-13.253906 10.746094-24 24-24h336c13.257813 0 24 10.746094 24 24v208c0 13.253906-10.742187 24-24 24-4.417969 0-8 3.582031-8 8s3.582031 8 8 8c22.082031-.027344 39.976563-17.917969 40-40v-208c-.023437-22.082031-17.917969-39.9726562-40-40h-336c-22.078125.0273438-39.972656 17.917969-40 40v208c.027344 22.082031 17.921875 39.972656 40 40zm0 0"/><path d="m256.078125 200c0-13.253906-10.742187-24-24-24h-40c-4.417969 0-8 3.582031-8 8s3.582031 8 8 8h40c4.421875 0 8 3.582031 8 8s-3.578125 8-8 8h-40c-4.417969 0-8 3.582031-8 8s3.582031 8 8 8h40c13.257813 0 24-10.746094 24-24zm0 0"/><path d="m192.078125 240c-4.417969 0-8 3.582031-8 8s3.582031 8 8 8h32c4.421875 0 8-3.582031 8-8s-3.578125-8-8-8zm0 0"/><path d="m368.078125 56c0-4.417969-3.578125-8-8-8h-120c-4.417969 0-8 3.582031-8 8s3.582031 8 8 8h120c4.421875 0 8-3.582031 8-8zm0 0"/><path d="m328.078125 104h32c4.421875 0 8-3.582031 8-8s-3.578125-8-8-8h-32c-4.417969 0-8 3.582031-8 8s3.582031 8 8 8zm0 0"/><path d="m344.078125 144h16c4.421875 0 8-3.582031 8-8s-3.578125-8-8-8h-16c-4.417969 0-8 3.582031-8 8s3.582031 8 8 8zm0 0"/><path d="m192.078125 56c0-4.417969-3.578125-8-8-8h-80c-4.417969 0-8 3.582031-8 8s3.582031 8 8 8h80c4.421875 0 8-3.582031 8-8zm0 0"/><path d="m128.078125 96c0-4.417969-3.578125-8-8-8h-64c-4.417969 0-8 3.582031-8 8s3.582031 8 8 8h64c4.421875 0 8-3.582031 8-8zm0 0"/><path d="m88.078125 136c0-4.417969-3.578125-8-8-8h-24c-4.417969 0-8 3.582031-8 8s3.582031 8 8 8h24c4.421875 0 8-3.582031 8-8zm0 0"/><path d="m64.078125 232c0 4.417969-3.578125 8-8 8-4.417969 0-8-3.582031-8-8s3.582031-8 8-8c4.421875 0 8 3.582031 8 8zm0 0"/><path d="m64.078125 192c0 4.417969-3.578125 8-8 8-4.417969 0-8-3.582031-8-8s3.582031-8 8-8c4.421875 0 8 3.582031 8 8zm0 0"/><path d="m143.96875 353.335938c.4375-2.601563-.433594-5.25-2.332031-7.082032-1.894531-1.832031-4.574219-2.613281-7.15625-2.085937l-42.921875 8.863281c-3.785156-.683594-7.628906-1.03125-11.480469-1.03125-28.511719-.042969-53.621094 18.761719-61.609375 46.132812-7.984375 27.371094 3.074219 56.726563 27.136719 72.023438s55.339843 12.855469 76.734375-5.992188c21.398437-18.847656 27.765625-49.5625 15.628906-75.363281zm-63.890625 110.664062c-18.335937.003906-35.074219-10.445312-43.125-26.917969-8.054687-16.476562-6.019531-36.097656 5.246094-50.570312 11.265625-14.46875 29.789062-21.253907 47.738281-17.488281 1.074219.230468 2.1875.230468 3.261719 0l33.039062-6.832032-4.476562 26.457032c-.296875 1.726562-.015625 3.503906.796875 5.054687 3.640625 6.867187 5.535156 14.523437 5.519531 22.296875-.023437 26.5-21.5 47.972656-48 48zm0 0"/><path d="m96.078125 416h-40c-4.417969 0-8 3.582031-8 8s3.582031 8 8 8h40c4.421875 0 8-3.582031 8-8s-3.578125-8-8-8zm0 0"/><path d="m88.078125 392c0 4.417969-3.578125 8-8 8-4.417969 0-8-3.582031-8-8s3.582031-8 8-8c4.421875 0 8 3.582031 8 8zm0 0"/><path d="m302.367188 179.28125c-1.695313-4.082031-6.378907-6.015625-10.460938-4.316406-4.078125 1.695312-6.011719 6.378906-4.3125 10.460937 14.902344 35.519531 2.40625 76.617188-29.75 97.828125-32.15625 21.210938-74.855469 16.523438-101.644531-11.160156-26.785157-27.679688-30.066407-70.511719-7.8125-101.953125 22.257812-31.441406 63.746093-42.582031 98.757812-26.515625 3.988281 1.703125 8.609375-.085938 10.414063-4.03125 1.804687-3.941406.136718-8.609375-3.757813-10.515625-41.933593-19.1875-91.585937-5.816406-118.210937 31.832031-26.625 37.648438-22.6875 88.917969 9.375 122.058594 32.066406 33.144531 83.175781 38.773438 121.683594 13.40625 38.511718-25.371094 53.511718-74.550781 35.71875-117.09375zm0 0"/><path d="m468.359375 400.40625-56.558594-56.574219c-11.746093-11.671875-29.46875-14.902343-44.578125-8.121093l-24.34375-24.335938c4.46875-9.136719 2.609375-20.101562-4.621094-27.253906l-10.226562-10.226563c28.402344-56.171875 11.800781-124.65625-39.164062-161.59375-50.96875-36.941406-121.21875-31.394531-165.761719 13.078125-44.542969 44.476563-50.195313 114.714844-13.335938 165.738282 36.859375 51.027343 105.316407 67.730468 161.535157 39.417968l10.269531 10.265625c7.195312 7.265625 18.242187 9.089844 27.394531 4.527344l25.457031 25.464844c-4.851562 14.335937-1.175781 30.183593 9.496094 40.917969l51.007813 51 5.527343 5.527343c15.617188 15.617188 40.9375 15.617188 56.558594 0l11.3125-11.308593c15.613281-15.621094 15.613281-40.941407 0-56.5625zm-333.742187-104.972656c-37.785157-37.78125-43.621094-96.992188-13.9375-141.421875 29.683593-44.425781 86.617187-61.703125 135.980468-41.257813 49.367188 20.445313 77.417969 72.914063 66.996094 125.320313-10.417969 52.40625-56.40625 90.152343-109.839844 90.15625-29.722656.085937-58.242187-11.726563-79.199218-32.796875zm158.261718 34.0625-7.296875-7.296875c13.421875-9.078125 24.984375-20.632813 34.082031-34.039063l7.273438 7.273438c3.121094 3.121094 3.121094 8.1875 0 11.308594l-22.746094 22.753906c-3.167968 3.007812-8.140625 3.007812-11.3125 0zm28.402344 5.535156 11.3125-11.320312 21.375 21.378906-10.046875 10.0625c-.433594.421875-.730469.9375-1.136719 1.382812zm135.757812 110.625-11.3125 11.3125c-9.496093 9.0625-24.4375 9.0625-33.933593 0l-.121094-.121094 26.175781-27.3125c3.058594-3.1875 2.949219-8.253906-.238281-11.3125-3.191406-3.054687-8.257813-2.949218-11.3125.242188l-25.945313 27.0625-45.128906-45.121094c-9.375-9.371094-9.375-24.570312 0-33.941406l11.3125-11.3125c9.375-9.375 24.570313-9.375 33.945313 0l56.558593 56.566406c9.371094 9.375 9.371094 24.566406 0 33.9375zm0 0"/></svg>