<svg height="480pt" viewBox="0 0 480 480" width="480pt" xmlns="http://www.w3.org/2000/svg"><path d="m104 272c4.417969 0 8-3.582031 8-8s-3.582031-8-8-8h-16c-4.417969 0-8 3.582031-8 8s3.582031 8 8 8zm0 0"/><path d="m456 216h-24.886719c10.800781-10.503906 16.890625-24.933594 16.886719-40v-32c0-4.417969-3.582031-8-8-8h-40c-4.417969 0-8 3.582031-8 8s3.582031 8 8 8h32v24c0 22.089844-17.910156 40-40 40s-40-17.910156-40-40v-32c0-4.417969-3.582031-8-8-8s-8 3.582031-8 8v32c0 15.066406 6.089844 29.492188 16.886719 40h-24.886719c-13.253906 0-24 10.746094-24 24v40h-24v-80c0-4.417969-3.582031-8-8-8h-64c-4.417969 0-8 3.582031-8 8v80h-24v-40c0-13.253906-10.746094-24-24-24h-24.886719c16.296875-15.90625 21.339844-40.097656 12.753907-61.191406-8.585938-21.09375-29.09375-34.886719-51.867188-34.886719s-43.28125 13.792969-51.867188 34.886719c-8.585937 21.09375-3.542968 45.285156 12.753907 61.191406h-24.886719c-13.253906 0-24 10.746094-24 24v88c0 13.253906 10.746094 24 24 24h8v56c0 4.417969 3.582031 8 8 8s8-3.582031 8-8v-144c0-4.417969-3.582031-8-8-8s-8 3.582031-8 8v72h-8c-4.417969 0-8-3.582031-8-8v-88c0-4.417969 3.582031-8 8-8h128c4.417969 0 8 3.582031 8 8v48c0 4.417969 3.582031 8 8 8h32c4.417969 0 8 3.582031 8 8s-3.582031 8-8 8h-48c-4.417969 0-8-3.582031-8-8v-40c0-4.417969-3.582031-8-8-8s-8 3.582031-8 8v40c.027344 2.730469.523438 5.4375 1.472656 8h-57.472656c-4.417969 0-8 3.582031-8 8s3.582031 8 8 8h56v104h-32v-76c0-4.417969-3.582031-8-8-8s-8 3.582031-8 8v76h-40c-13.253906 0-24 10.746094-24 24v16c0 4.417969 3.582031 8 8 8h128c4.417969 0 8-3.582031 8-8v-16c-.042969-10.132812-6.445312-19.148438-16-22.527344v-106.945312c2.5625.949218 5.269531 1.445312 8 1.472656h48c13.253906 0 24-10.746094 24-24-.027344-2.730469-.523438-5.4375-1.472656-8h34.945312c-.949218 2.5625-1.445312 5.269531-1.472656 8 0 13.253906 10.746094 24 24 24h48c2.730469-.027344 5.4375-.523438 8-1.472656v106.945312c-9.554688 3.378906-15.957031 12.394532-16 22.527344v16c0 4.417969 3.582031 8 8 8h128c4.417969 0 8-3.582031 8-8v-16c0-13.253906-10.746094-24-24-24h-40v-76c0-4.417969-3.582031-8-8-8s-8 3.582031-8 8v76h-32v-104h56c4.417969 0 8-3.582031 8-8s-3.582031-8-8-8h-57.472656c.949218-2.5625 1.445312-5.269531 1.472656-8v-40c0-4.417969-3.582031-8-8-8s-8 3.582031-8 8v40c0 4.417969-3.582031 8-8 8h-48c-4.417969 0-8-3.582031-8-8s3.582031-8 8-8h32c4.417969 0 8-3.582031 8-8v-48c0-4.417969 3.582031-8 8-8h128c4.417969 0 8 3.582031 8 8v88c0 4.417969-3.582031 8-8 8h-8v-72c0-4.417969-3.582031-8-8-8s-8 3.582031-8 8v144c0 4.417969 3.582031 8 8 8s8-3.582031 8-8v-56h8c13.253906 0 24-10.746094 24-24v-88c0-13.253906-10.746094-24-24-24zm-408-40c0-22.089844 17.910156-40 40-40s40 17.910156 40 40-17.910156 40-40 40c-22.082031-.027344-39.972656-17.917969-40-40zm-16 280c0-4.417969 3.582031-8 8-8h40v16h-48zm112 8h-48v-16h40c4.417969 0 8 3.582031 8 8zm304-8v8h-48v-16h40c4.417969 0 8 3.582031 8 8zm-64 8h-48v-8c0-4.417969 3.582031-8 8-8h40zm-120-256v72h-48v-40h24c4.417969 0 8-3.582031 8-8s-3.582031-8-8-8h-24v-16zm0 0"/><path d="m392 256c-4.417969 0-8 3.582031-8 8s3.582031 8 8 8h16c4.417969 0 8-3.582031 8-8s-3.582031-8-8-8zm0 0"/><path d="m192 128h88c14.089844-.007812 27.785156-4.675781 38.945312-13.28125l46.398438 12.433594c3.125.839844 6.449219-.289063 8.417969-2.855469 1.972656-2.570313 2.199219-6.070313.582031-8.871094l-30.34375-52.59375c-.679688-34.871093-29.121094-62.7968748-64-62.832031h-88c-35.347656 0-64 28.652344-64 64s28.652344 64 64 64zm0-112h88c26.445312 0 47.90625 21.386719 48 47.832031 0 .078125-.039062.800781-.046875.878907-.035156 1.472656.335937 2.925781 1.070313 4.199218l21.816406 37.785156-31.726563-8.503906c-2.59375-.691406-5.359375-.039062-7.371093 1.738282-8.75 7.761718-20.042969 12.054687-31.742188 12.070312h-88c-26.507812 0-48-21.492188-48-48s21.492188-48 48-48zm0 0"/><path d="m192 56h40c4.417969 0 8-3.582031 8-8s-3.582031-8-8-8h-40c-4.417969 0-8 3.582031-8 8s3.582031 8 8 8zm0 0"/><path d="m200 88c0 4.417969-3.582031 8-8 8s-8-3.582031-8-8 3.582031-8 8-8 8 3.582031 8 8zm0 0"/><path d="m232 88c0 4.417969-3.582031 8-8 8s-8-3.582031-8-8 3.582031-8 8-8 8 3.582031 8 8zm0 0"/><path d="m264 88c0 4.417969-3.582031 8-8 8s-8-3.582031-8-8 3.582031-8 8-8 8 3.582031 8 8zm0 0"/><path d="m264 56h16c4.417969 0 8-3.582031 8-8s-3.582031-8-8-8h-16c-4.417969 0-8 3.582031-8 8s3.582031 8 8 8zm0 0"/></svg>