<svg height="471pt" viewBox="-67 0 471 471.99976" width="471pt" xmlns="http://www.w3.org/2000/svg"><path d="m123.5625 328.664062c.355469-4.285156-2.765625-8.070312-7.039062-8.535156-4.304688-.511718-8.230469 2.5-8.855469 6.792969-1.40625 9.824219 2.300781 19.683594 9.832031 26.148437l5.777344 4.984376c3.355468 2.761718 8.300781 2.339843 11.140625-.949219 2.835937-3.292969 2.53125-8.246094-.695313-11.160157l-5.773437-4.992187c-3.347657-2.820313-5.039063-7.140625-4.488281-11.480469.039062-.242187.085937-.578125.101562-.808594zm0 0"/><path d="m115.300781 271.375c-11.628906 3.082031-21.542969 10.6875-27.527343 21.121094-11.433594 19.808594-23.273438 75.503906.726562 89.382812 5.578125 3.222656 11.78125 5.210938 18.191406 5.832032 3.75 5.226562 8.574219 9.589843 14.144532 12.800781 3.589843 2.027343 7.65625 3.058593 11.777343 2.992187 11.859375-1.007812 23.152344-5.515625 32.445313-12.953125 2.410156-1.605469 3.761718-4.394531 3.535156-7.28125-.230469-2.886719-2-5.425781-4.632812-6.636719-2.628907-1.210937-5.710938-.90625-8.054688.800782-14.398438 10.039062-23.574219 11.199218-27.078125 9.222656-4.453125-2.570312-8.152344-6.269531-10.726563-10.71875-1.429687-2.476562-4.070312-4-6.929687-4h-.046875c-5.136719-.011719-10.179688-1.367188-14.625-3.9375-11.199219-6.457031-4.710938-50.503906 5.121094-67.527344 5.222656-9.085937 14.90625-14.6875 25.386718-14.6875 10.480469 0 20.164063 5.601563 25.386719 14.6875 1.433594 2.476563 4.078125 4.003906 6.9375 4h.046875c10.398438-.015625 20.023438 5.488282 25.277344 14.457032 5.257812 8.96875 5.359375 20.054687.269531 29.117187-2.011719 3.84375-.597656 8.585937 3.1875 10.699219 3.785157 2.113281 8.566407.824218 10.777344-2.90625 7.511719-13.574219 7.578125-30.046875.167969-43.679688 4.273437-.90625 8.375-2.476562 12.160156-4.65625 6.617188-3.683594 12.011719-9.214844 15.527344-15.917968 3.851562-6.402344 3.921875-14.390626.1875-20.859376s-10.683594-10.402343-18.152344-10.269531c-7.570312-.320312-15.066406 1.585938-21.5625 5.480469-8.46875 4.523438-14.769531 12.253906-17.496094 21.460938l5-34.734376c.484375-2.863281-.621094-5.765624-2.890625-7.578124-2.265625-1.816407-5.339843-2.257813-8.027343-1.15625-2.6875 1.101562-4.570313 3.570312-4.914063 6.453124l-4.199219 29.128907c-10.878906-9.269531-25.734375-12.359375-39.40625-8.191407zm79.933594 8.472656c3.5-2.09375 7.472656-3.265625 11.546875-3.398437h.984375c2.035156-.109375 4.007813.742187 5.328125 2.304687.675781 1.917969.425781 4.046875-.683594 5.757813-2.125 3.867187-5.308594 7.042969-9.183594 9.160156-3.757812 2.316406-8.105468 3.488281-12.519531 3.375-2.035156.105469-4.003906-.742187-5.328125-2.292969-1.632812-2.800781 1.402344-10.019531 9.855469-14.90625zm0 0"/><path d="m326.746094 214.585938-152.414063-88c-19.128906-11.015626-43.5625-4.480469-54.632812 14.613281l-16 27.710937-92.101563 159.546875c-10.980468 19.046875-4.460937 43.386719 14.566406 54.398438l152.582032 88.074219c3.828125 2.207031 8.71875.894531 10.929687-2.929688l108-187.0625c2.210938-3.828125.898438-8.71875-2.929687-10.929688l-152.414063-88c-5.519531-3.179687-9.546875-8.421874-11.199219-14.574218-1.648437-6.152344-.789062-12.710938 2.398438-18.226563 3.179688-5.519531 8.425781-9.546875 14.578125-11.199219 6.152344-1.648437 12.707031-.785156 18.222656 2.398438l152.414063 88c1.21875.699219 2.597656 1.066406 4 1.066406 3.621094 0 6.792968-2.433594 7.730468-5.929687.933594-3.496094-.59375-7.1875-3.730468-9zm-192.414063-18.722657 145.488281 84-100 173.207031-145.65625-84.09375c-11.375-6.585937-15.269531-21.132812-8.710937-32.519531l92.085937-159.511719c3.382813 7.96875 9.28125 14.613282 16.792969 18.917969zm0 0"/><path d="m310.746094 242.296875-76.207032-44c-3.828124-2.210937-8.722656-.898437-10.929687 2.929687-2.210937 3.828126-.898437 8.722657 2.929687 10.933594l76.207032 44c1.21875.695313 2.597656 1.0625 4 1.0625 3.621094 0 6.792968-2.429687 7.730468-5.929687.933594-3.496094-.59375-7.1875-3.730468-8.996094zm0 0"/><path d="m165.25 158.296875c-3.828125-2.210937-8.722656-.898437-10.929688 2.929687-2.210937 3.828126-.898437 8.722657 2.929688 10.933594l27.722656 16c3.828125 2.207032 8.722656.894532 10.929688-2.933594 2.210937-3.828124.898437-8.722656-2.929688-10.929687zm0 0"/><path d="m16.5 288v-112c0-4.417969-3.582031-8-8-8s-8 3.582031-8 8v112c0 4.417969 3.582031 8 8 8s8-3.582031 8-8zm0 0"/><path d="m64.5 160c4.417969 0 8-3.582031 8-8v-112c0-4.417969-3.582031-8-8-8s-8 3.582031-8 8v112c0 4.417969 3.582031 8 8 8zm0 0"/><path d="m144.5 88c4.417969 0 8-3.582031 8-8v-64c0-4.417969-3.582031-8-8-8s-8 3.582031-8 8v64c0 4.417969 3.582031 8 8 8zm0 0"/><path d="m240.5 136c4.417969 0 8-3.582031 8-8v-96c0-4.417969-3.582031-8-8-8s-8 3.582031-8 8v96c0 4.417969 3.582031 8 8 8zm0 0"/><path d="m328.5 104c-4.417969 0-8 3.582031-8 8v80c0 4.417969 3.582031 8 8 8s8-3.582031 8-8v-80c0-4.417969-3.582031-8-8-8zm0 0"/><path d="m288.5 72c4.417969 0 8-3.582031 8-8v-56c0-4.417969-3.582031-8-8-8s-8 3.582031-8 8v56c0 4.417969 3.582031 8 8 8zm0 0"/></svg>