<svg height="479pt" viewBox="0 0 479.97818 479" width="479pt" xmlns="http://www.w3.org/2000/svg"><path d="m405.808594 177.050781c-3.824219-2.210937-8.71875-.902343-10.929688 2.925781-2.210937 3.828126-.898437 8.722657 2.929688 10.929688 3.828125 2.210938 8.722656.894531 10.929687-2.933594 2.203125-3.824218.894531-8.710937-2.929687-10.921875zm0 0"/><path d="m447.976562 376.339844c0 4.417968-3.582031 8-8 8-4.417968 0-8-3.582032-8-8 0-4.417969 3.582032-8 8-8 4.417969 0 8 3.582031 8 8zm0 0"/><path d="m175.976562 336.339844c1.042969 0 2.078126-.203125 3.042969-.601563 3.15625-1.289062 5.148438-4.441406 4.957031-7.847656l-5.71875-102.75c49.480469-27.566406 72.921876-85.996094 56.214844-140.117187-16.707031-54.121094-69.007812-89.167969-125.414062-84.042969-56.410156 5.125-101.539063 49.019531-108.222656 105.265625-6.679688 56.246094 26.90625 109.496094 80.542968 127.691406l88.625 99.714844c1.515625 1.707031 3.691406 2.683594 5.972656 2.6875zm-84.070312-114.625c-.953125-1.074219-2.175781-1.871094-3.542969-2.3125-47.488281-15.0625-77.652343-61.65625-71.960937-111.152344 5.691406-49.492188 45.648437-88.019531 95.316406-91.910156s95.132812 27.949218 108.460938 75.953125c13.328124 48.003906-9.214844 98.722656-53.777344 121-2.851563 1.429687-4.578125 4.414062-4.398438 7.597656l4.71875 84.984375zm0 0"/><path d="m167.976562 96.339844c0-22.09375-17.90625-40-40-40-22.089843 0-40 17.90625-40 40 0 22.089844 17.910157 40 40 40 22.082032-.027344 39.976563-17.921875 40-40zm-40 24c-13.253906 0-24-10.746094-24-24s10.746094-24 24-24c13.257813 0 24 10.746094 24 24s-10.742187 24-24 24zm0 0"/><path d="m135.976562 96.339844c0 4.417968-3.582031 8-8 8-4.417968 0-8-3.582032-8-8 0-4.417969 3.582032-8 8-8 4.417969 0 8 3.582031 8 8zm0 0"/><path d="m84.777344 134.484375c-6.625-11.488281-21.3125-15.429687-32.800782-8.800781-11.484374 6.628906-15.425781 21.3125-8.796874 32.800781l8 13.855469c6.625 11.488281 21.3125 15.425781 32.796874 8.800781 11.488282-6.628906 15.429688-21.3125 8.800782-32.800781zm-5.0625 27.925781c-.539063 2.050782-1.882813 3.800782-3.730469 4.847656-3.824219 2.210938-8.71875.898438-10.925781-2.925781l-8-13.847656c-1.453125-2.476563-1.464844-5.542969-.035156-8.03125 1.429687-2.488281 4.082031-4.023437 6.953124-4.015625 2.871094.007812 5.519532 1.550781 6.9375 4.046875l8 13.855469c1.066407 1.835937 1.351563 4.023437.792969 6.070312zm0 0"/><path d="m191.691406 173.140625c11.484375-6.628906 15.425782-21.3125 8.796875-32.800781-6.625-11.488282-21.3125-15.429688-32.796875-8.800782-3.828125 2.210938-5.140625 7.105469-2.933594 10.933594 2.210938 3.828125 7.105469 5.140625 10.933594 2.929688 3.824219-2.207032 8.71875-.898438 10.925782 2.929687 2.203124 3.824219.894531 8.710938-2.925782 10.917969l-27.722656 16c-2.476562 1.535156-5.597656 1.597656-8.136719.167969-2.539062-1.433594-4.097656-4.132813-4.070312-7.046875.027343-2.917969 1.640625-5.585938 4.207031-6.96875 3.828125-2.207032 5.140625-7.101563 2.933594-10.929688-2.210938-3.828125-7.105469-5.140625-10.933594-2.933594-11.484375 6.628907-15.425781 21.3125-8.796875 32.800782 6.625 11.488281 21.3125 15.425781 32.796875 8.800781zm0 0"/><path d="m45.578125 105.371094c2.4375.003906 4.746094-1.109375 6.265625-3.015625l19.925781-25.03125c2.753907-3.457031 2.183594-8.492188-1.273437-11.246094-3.460938-2.75-8.492188-2.179687-11.246094 1.277344l-19.945312 25.03125c-1.914063 2.40625-2.28125 5.695312-.945313 8.464843 1.339844 2.769532 4.144531 4.523438 7.21875 4.519532zm0 0"/><path d="m199.976562 96.339844c0 4.417968-3.582031 8-8 8-4.417968 0-8-3.582032-8-8 0-4.417969 3.582032-8 8-8 4.417969 0 8 3.582031 8 8zm0 0"/><path d="m119.976562 200.339844c0 4.417968-3.582031 8-8 8-4.417968 0-8-3.582032-8-8 0-4.417969 3.582032-8 8-8 4.417969 0 8 3.582031 8 8zm0 0"/><path d="m95.976562 48.339844c0 4.417968-3.582031 8-8 8-4.417968 0-8-3.582032-8-8 0-4.417969 3.582032-8 8-8 4.417969 0 8 3.582031 8 8zm0 0"/><path d="m469.578125 349.714844c19.128906-51.074219 10.898437-108.375-21.832031-152 5.574218-18.433594-.519532-38.414063-15.433594-50.597656l4.394531-7.601563c6.609375-11.488281 2.675781-26.164063-8.800781-32.800781l16.800781-29.046875c1.398438.3125 2.824219.5 4.253907.558593 2.109374.007813 4.210937-.261718 6.25-.800781 9.394531-2.5 16.355468-10.417969 17.625-20.058593 1.269531-9.640626-3.40625-19.09375-11.832032-23.941407l-41.601562-24c-10.105469-5.925781-23.019532-3.667969-30.511719 5.339844s-7.363281 22.113281.304687 30.972656l-16.722656 28.96875c-5.515625-3.1875-12.070312-4.046875-18.222656-2.398437-6.152344 1.652344-11.394531 5.679687-14.574219 11.199218l-21.992187 38.09375-20 34.648438-26 45.023438c-11.488282-6.625-26.175782-2.6875-32.800782 8.800781-6.628906 11.488281-2.6875 26.171875 8.800782 32.800781l-12 20.800781c-4.285156 7.417969-4.289063 16.558594-.011719 23.980469 4.277344 7.425781 12.1875 12.003906 20.753906 12.019531 2.109375.007813 4.210938-.261719 6.25-.800781 6.160157-1.632812 11.410157-5.667969 14.574219-11.199219l12-20.800781 13.855469 8-12 20.800781c-4.28125 7.417969-4.285157 16.558594-.007813 23.980469 4.277344 7.425781 12.183594 12.003906 20.753906 12.019531 2.109376.007813 4.214844-.261719 6.253907-.800781 6.160156-1.632812 11.40625-5.667969 14.570312-11.199219l12-20.800781c11.484375 6.628906 26.171875 2.6875 32.796875-8.800781 6.628906-11.488281 2.6875-26.171875-8.796875-32.800781l16.375-28.359376c5.308594 2.019532 10.9375 3.070313 16.617188 3.097657 3.585937-.035157 7.160156-.464844 10.652343-1.289063 22.414063 32.65625 25.765626 74.765625 8.800782 110.550782-11.347656 6.089843-19.046875 17.289062-20.671875 30.066406-24.226563 25.152344-58.828125 37.523437-93.511719 33.429687-5.144531-7.875-11.628906-14.789062-19.160156-20.429687h32.199218c4.417969 0 8-3.582032 8-8 0-4.417969-3.582031-8-8-8h-160c-4.417968 0-8 3.582031-8 8 0 4.417968 3.582032 8 8 8h32.210938c-20.242188 15.046875-32.1875 38.777344-32.210938 64v24c0 4.417968 3.582032 8 8 8 4.417969 0 8-3.582032 8-8v-24c0-35.347656 28.65625-64 64-64 35.347657 0 64 28.652344 64 64v24c0 4.417968 3.582032 8 8 8 4.417969 0 8-3.582032 8-8v-18.730469c28.089844-.105469 55.664063-7.535156 80-21.558594v40.289063c0 4.417968 3.582032 8 8 8 4.417969 0 8-3.582032 8-8v-95.703125c.042969-.335938.113282-1.007813.121094-1.257813 0-.039062 0-.070312 0-.113281.582032-13.003906 11.449219-23.164063 24.464844-22.871094 13.015625.289063 23.414062 10.925781 23.414062 23.945313v96c0 4.417968 3.582032 8 8 8 4.417969 0 8-3.582032 8-8v-96c-.039062-9.859375-3.746093-19.351563-10.398437-26.625zm-150.695313-38.105469c-1.417968 2.496094-4.066406 4.042969-6.9375 4.046875-2.871093.007812-5.523437-1.523438-6.953124-4.015625-1.429688-2.488281-1.417969-5.554687.035156-8.03125l12-20.796875 13.855468 8zm81.648438-285.414063c1.054688-1.84375 2.804688-3.183593 4.855469-3.726562.675781-.183594 1.375-.277344 2.078125-.28125 1.40625.003906 2.785156.375 4 1.078125l41.601562 24c3.820313 2.214844 5.125 7.109375 2.910156 10.929687-1.054687 1.84375-2.800781 3.183594-4.855468 3.726563-2.050782.550781-4.234375.261719-6.070313-.796875l-41.601562-24c-3.816407-2.214844-5.125-7.097656-2.917969-10.921875zm-14.152344 56.496094 16-27.710937 27.710938 16-16 27.710937zm-51.855468 57.816406c1.839843 1.058594 3.179687 2.808594 3.730468 4.859376.546875 2.050781.257813 4.238281-.804687 6.074218l-8 13.851563c-1.054688 1.84375-2.800781 3.1875-4.855469 3.734375-2.050781.542968-4.230469.253906-6.070312-.800782l-6.929688-4 16-27.710937zm-71.066407 139.101563c-1.054687 1.84375-2.800781 3.1875-4.855469 3.730469-2.050781.546875-4.234374.261718-6.070312-.800782-3.824219-2.207031-5.132812-7.09375-2.929688-10.917968l12-20.800782 13.855469 8zm122.351563-67.925781c-3.824219-2.210938-8.71875-.898438-10.925782 2.925781l-20 34.648437-9.128906-5.269531c-2.476562-1.453125-5.539062-1.464843-8.03125-.035156-2.488281 1.429687-4.019531 4.082031-4.015625 6.953125.007813 2.871094 1.550781 5.519531 4.046875 6.9375l23.023438 13.273438c2.496094 1.417968 4.039062 4.0625 4.046875 6.933593.007812 2.871094-1.527344 5.527344-4.015625 6.957031-2.488282 1.429688-5.554688 1.414063-8.03125-.035156l-6.917969-4-13.855469-8-76.210937-44c-2.496094-1.421875-4.039063-4.066406-4.042969-6.9375-.007812-2.871094 1.523438-5.527344 4.011719-6.957031 2.492187-1.429687 5.554687-1.414063 8.03125.039063l6.921875 4 32.4375 18.726562c2.476562 1.453125 5.542968 1.464844 8.03125.035156 2.492187-1.429687 4.023437-4.082031 4.015625-6.953125-.003907-2.871093-1.550781-5.519531-4.046875-6.9375l-25.574219-14.730469 18-31.199218 6.929687 4c5.515626 3.1875 12.070313 4.050781 18.222657 2.398437 6.152343-1.648437 11.394531-5.679687 14.574219-11.199219l8-13.847656c6.613281-11.488281 2.675781-26.160156-8.796876-32.800781l-6.929687-4 18-31.199219c2.207031-3.828125 7.101563-5.144531 10.929687-2.933594l55.421876 32c1.839843 1.058594 3.183593 2.808594 3.730468 4.859376.550782 2.050781.261719 4.238281-.800781 6.074218l-4.351563 7.546875c-21.9375-8.167969-46.566406.683594-58.289062 20.941407-1.453125 2.476562-1.464844 5.542968-.035156 8.03125 1.429687 2.488281 4.082031 4.023437 6.953125 4.015624 2.871093-.007812 5.519531-1.550781 6.9375-4.046874 6.472656-11.210938 19.058593-17.417969 31.890625-15.726563 12.832031 1.691406 23.382812 10.945313 26.734375 23.449219 1.738281 6.535156 1.335937 13.457031-1.144531 19.75-.074219.160156-.191407.296875-.265626.464844l-.304687.800781c-.34375.847656-.726563 1.695312-1.132813 2.527343-.136718.246094-.210937.519532-.351562.800782-8.839844 15.304687-28.410156 20.546875-43.714844 11.710937zm41.601562 12.65625c4.59375-2.898438 8.652344-6.566406 12-10.839844 24.984375 37.214844 31.195313 83.949219 16.800782 126.398438-4.964844-2.226563-10.332032-3.40625-15.769532-3.472657 13.40625-37.34375 8.585938-78.8125-13.03125-112.085937zm-108.230468 213.167968c-.742188-5.457031-2.050782-10.816406-3.90625-16 1.601562.054688 3.199218.175782 4.730468.175782 29.09375-.003906 57.316406-9.9375 80-28.160156v19.671874c-23.933594 15.941407-52.070312 24.402344-80.824218 24.3125zm0 0"/></svg>